<svg xmlns="http://www.w3.org/2000/svg" width="224.225" height="312.808"><path d="M8.678 38.036l3.22-.028c.612 1.944 1.972 3.926 3.817 4.473 5.21 1.23 8.567-1.68 9.672-5.04 1.34-4.07-.03-9.792-3.617-11.83-2.976-1.68-7.395-.26-9.422 3.34l-2.258-1.38 1.212-13.42h14.73v3.17H14.095l-.188 5.59c2.566-1.8 6.518-1.78 9.086-.52 4.864 2.32 7.124 7.597 6.177 13.81-1.31 6.187-4.198 9.69-10.718 10.19-7.244.06-9.803-4.92-9.774-8.35zm206.87 236.736l-3.22.028c-.613-1.944-1.973-3.926-3.818-4.474-5.21-1.223-8.567 1.688-9.672 5.047-1.34 4.074.03 9.796 3.617 11.828 2.976 1.69 7.395.27 9.422-3.33l2.258 1.38-1.212 13.42h-14.73v-3.17h11.938l.19-5.59c-2.56 1.8-6.52 1.784-9.08.52-4.863-2.32-7.123-7.593-6.176-13.81 1.31-6.183 4.198-9.686 10.718-10.19 7.245-.06 9.804 4.92 9.776 8.35zM10.01 61.096c-1.583-3.473-1.757-9.406 2.97-10.208 3.563-.46 5.013 1.198 5.3 3.74.143.744.563.79.696-.057.204-2.6 2.787-4.13 4.806-3.75 5.527.95 5.204 7.03 3.4 11.16-2.732 5.48-5.602 8.94-8.246 14.45-3.038-5.74-6.508-10.4-8.926-15.33zM44.554 28.42c7.144-.474 10.868 5.628 11.595 10.437.43.764.67.55.83-.042.35-6.175 5.872-11.22 10.99-10.53 8.33.108 13.39 9.375 11.966 17.218-1.74 9.582-6.9 15.35-10.808 21.293-4.42 6.153-10.374 15.04-12.29 19.317 0 0-6.05-9.204-13.918-20.03-5.26-7.238-9.472-15.083-9.865-21.835-.447-7.715 2.72-14.632 11.49-15.827zm110.68 0c7.145-.474 10.87 5.628 11.596 10.437.434.764.67.55.837-.042.35-6.175 5.875-11.22 10.993-10.53 8.328.108 13.39 9.375 11.966 17.218-1.738 9.582-6.9 15.35-10.808 21.293-4.42 6.153-10.372 15.04-12.29 19.317 0 0-6.048-9.204-13.917-20.03-5.26-7.238-9.47-15.082-9.86-21.835-.45-7.715 2.72-14.632 11.49-15.827zm-55.17 99.237c7.143-.474 10.867 5.628 11.594 10.437.433.764.67.548.837-.043.35-6.17 5.875-11.22 10.993-10.53 8.328.11 13.39 9.38 11.966 17.22-1.74 9.59-6.9 15.35-10.808 21.3-4.42 6.15-10.373 15.04-12.29 19.32 0 0-6.048-9.205-13.917-20.03-5.27-7.238-9.48-15.08-9.87-21.835-.45-7.716 2.72-14.632 11.49-15.83zm-55.51 154.908c7.144.475 10.868-5.627 11.595-10.436.43-.77.67-.55.83.04.35 6.17 5.872 11.22 10.99 10.53 8.33-.11 13.39-9.38 11.966-17.22-1.74-9.58-6.9-15.35-10.808-21.3-4.42-6.153-10.374-15.04-12.29-19.317 0 0-6.05 9.204-13.918 20.03-5.263 7.24-9.474 15.08-9.866 21.835-.448 7.715 2.72 14.63 11.49 15.827zm110.68 0c7.145.475 10.87-5.627 11.596-10.436.434-.77.67-.55.837.04.35 6.17 5.875 11.22 10.993 10.53 8.328-.11 13.39-9.38 11.966-17.22-1.738-9.58-6.9-15.35-10.808-21.3-4.42-6.153-10.372-15.04-12.29-19.317 0 0-6.048 9.204-13.917 20.03-5.26 7.24-9.47 15.08-9.86 21.835-.45 7.715 2.72 14.63 11.49 15.827zm41.484-30.612c-1.583 3.472-1.757 9.406 2.97 10.208 3.563.46 5.013-1.19 5.3-3.74.143-.74.562-.79.696.06.204 2.61 2.787 4.13 4.806 3.75 5.527-.94 5.204-7.03 3.398-11.15-2.73-5.48-5.6-8.94-8.245-14.45-3.038 5.74-6.507 10.405-8.925 15.333z" fill="#d40000"/></svg>