<svg xmlns="http://www.w3.org/2000/svg" width="224.225" height="312.808"><path d="M8.774 39.85l3.027-.943c1.15 2.995 3.45 3.88 5.9 3.69 4.38-.342 5.838-5.15 6.166-9.4-1.707 1.774-4.274 2.675-6.46 2.587-6.98-.37-8.77-5.854-8.834-11.6-.194-4.847 1.848-8.357 5.35-9.964 1.85-.817 6.093-.817 7.958.148 4.283 2.216 5.868 6.05 5.58 15.19.005 7.525-1.624 16.288-9.837 16.476-4.75.644-8.352-2.98-8.84-6.185zm11.887-8.245c1.43-.885 2.23-1.716 2.87-2.962.53-1.022.7-1.553.55-3.67-.38-5.456-3.29-8.548-7.52-7.934-2.35.34-3.64 1.63-4.38 4.04-1.363 4.45.368 9.66 3.61 10.855 1.46.54 3.716.385 4.88-.34zM214.81 272.96l-3.027.94c-1.14-2.995-3.45-3.878-5.89-3.688-4.383.34-5.838 5.148-6.166 9.4 1.707-1.775 4.274-2.676 6.46-2.588 6.982.37 8.77 5.854 8.834 11.6.2 4.847-1.84 8.357-5.34 9.964-1.85.817-6.093.817-7.96-.148-4.28-2.217-5.865-6.05-5.58-15.19-.003-7.525 1.626-16.29 9.84-16.476 4.75-.644 8.352 2.98 8.84 6.185zm-11.887 8.243c-1.425.885-2.23 1.716-2.868 2.962-.524 1.022-.702 1.553-.552 3.67.385 5.455 3.3 8.548 7.524 7.933 2.357-.342 3.644-1.638 4.383-4.047 1.366-4.45-.365-9.65-3.61-10.85-1.46-.54-3.713-.382-4.877.34zM9.083 58.823c-1.584-3.472-1.758-9.405 2.97-10.208 3.562-.458 5.012 1.2 5.3 3.742.142.743.56.79.695-.058.204-2.61 2.787-4.14 4.806-3.75 5.527.94 5.204 7.02 3.398 11.15-2.73 5.48-5.6 8.94-8.245 14.45-3.037-5.74-6.507-10.4-8.925-15.33zm36.267-29.65C52.494 28.7 56.22 34.8 56.945 39.61c.434.764.67.55.837-.042.35-6.174 5.875-11.22 10.993-10.53 8.328.108 13.39 9.375 11.966 17.22-1.73 9.58-6.89 15.35-10.8 21.292-4.42 6.152-10.37 15.04-12.29 19.316 0 0-6.05-9.204-13.915-20.03-5.262-7.238-9.473-15.08-9.865-21.834-.448-7.716 2.72-14.632 11.49-15.828zm109.533 0c7.144-.474 10.868 5.628 11.595 10.437.433.764.67.55.837-.042.35-6.174 5.875-11.22 10.993-10.53 8.328.108 13.39 9.375 11.966 17.22-1.74 9.58-6.9 15.35-10.808 21.292-4.42 6.152-10.373 15.04-12.29 19.316 0 0-6.048-9.204-13.917-20.03-5.27-7.238-9.48-15.08-9.87-21.834-.45-7.716 2.72-14.632 11.49-15.828zm0 65.33c7.144-.473 10.868 5.63 11.595 10.438.433.77.67.55.837-.04.35-6.17 5.875-11.22 10.993-10.53 8.328.11 13.39 9.38 11.966 17.22-1.74 9.58-6.9 15.35-10.808 21.29-4.42 6.16-10.373 15.04-12.29 19.32 0 0-6.048-9.2-13.917-20.03-5.27-7.24-9.48-15.08-9.87-21.83-.45-7.714 2.72-14.63 11.49-15.83zm-54.82 33.154c7.144-.474 10.868 5.628 11.595 10.437.433.764.67.548.837-.043.35-6.17 5.875-11.22 10.993-10.53 8.328.11 13.39 9.38 11.966 17.22-1.74 9.59-6.9 15.35-10.808 21.3-4.42 6.15-10.373 15.04-12.29 19.32 0 0-6.048-9.205-13.917-20.03-5.27-7.238-9.48-15.08-9.87-21.835-.45-7.716 2.72-14.632 11.49-15.83zM45.35 94.504c7.144-.474 10.87 5.628 11.595 10.437.434.77.67.55.837-.04.35-6.17 5.875-11.22 10.993-10.53 8.328.11 13.39 9.38 11.966 17.22-1.73 9.58-6.89 15.35-10.8 21.29-4.42 6.16-10.37 15.04-12.29 19.32 0 0-6.05-9.2-13.915-20.03-5.262-7.24-9.473-15.08-9.865-21.83-.448-7.714 2.72-14.63 11.49-15.83zm109.533 124.39c7.144.475 10.868-5.627 11.595-10.436.433-.764.67-.548.837.043.35 6.18 5.875 11.22 10.993 10.53 8.328-.1 13.39-9.37 11.966-17.21-1.74-9.58-6.9-15.35-10.808-21.292-4.42-6.153-10.373-15.04-12.29-19.317 0 0-6.048 9.205-13.917 20.03-5.27 7.238-9.48 15.08-9.87 21.835-.45 7.716 2.72 14.633 11.49 15.83zm0 65.106c7.144.475 10.868-5.627 11.595-10.436.433-.764.67-.55.837.042.35 6.174 5.875 11.22 10.993 10.53 8.328-.108 13.39-9.375 11.966-17.22-1.74-9.58-6.9-15.35-10.808-21.292-4.42-6.152-10.373-15.04-12.29-19.317 0 0-6.048 9.205-13.917 20.03-5.27 7.24-9.48 15.082-9.87 21.835-.45 7.716 2.72 14.632 11.49 15.828zM45.35 284c7.144.475 10.87-5.627 11.595-10.436.434-.764.67-.55.837.042.35 6.174 5.875 11.22 10.993 10.53 8.328-.108 13.39-9.375 11.966-17.22-1.73-9.58-6.89-15.35-10.8-21.292-4.42-6.152-10.37-15.04-12.29-19.317 0 0-6.05 9.205-13.915 20.03-5.262 7.24-9.473 15.082-9.865 21.835-.448 7.716 2.72 14.632 11.49 15.828zm0-65.105c7.144.474 10.87-5.628 11.595-10.437.434-.764.67-.548.837.043.35 6.18 5.875 11.22 10.993 10.53 8.328-.1 13.39-9.37 11.966-17.21-1.73-9.58-6.89-15.35-10.8-21.292-4.42-6.153-10.37-15.04-12.29-19.317 0 0-6.05 9.205-13.915 20.03-5.262 7.238-9.473 15.08-9.865 21.835-.448 7.716 2.72 14.633 11.49 15.83zm152.547 30.785c-1.583 3.473-1.757 9.406 2.97 10.21 3.563.457 5.013-1.2 5.3-3.743.143-.743.563-.788.696.058.204 2.61 2.787 4.133 4.806 3.75 5.52-.945 5.2-7.028 3.39-11.155-2.73-5.48-5.6-8.938-8.246-14.452-3.04 5.74-6.508 10.405-8.926 15.333z" fill="#d40000"/></svg>