<svg xmlns="http://www.w3.org/2000/svg" width="224.225" height="312.808"><title>Vectorized Playing Cards 1.0</title><path d="M192.583 36.668l-11.525 7.512-.16 8.762c-6.835-3.28-9.806-8.65-10.882-14.944-1.933 2.44-1.55 14.75-1.55 14.75-1.756.91-2.398 2.1-3.52 3.17 1.102 1.82 4.223 4.92 4.223 4.92-.03-.055-1.44 12.818.27 13.33 1.56-5.485 3.63-10.273 11.26-15.29 0 0 .114 20.436-.375 40.18-3.23-2.223-10.06-6.217-14.473-10.304 5.72-7.38-.113-16.997-8.65-10.61-5.536-2.994-6.385-17.142-7.754-24.552-.265-1.487-1.553-5.846-1.553-5.846s-18.234-5.043-26.065-4.633c6.577 17.14 5.3 38.025-23.807 41.937-13.948 6.378-30.06 13.487-45.72 26.768-2.885 19.776-13.084 29.512-20.287 34.898.052 8.014-.05 15.947.28 24.035-.01.05 6.57-4.32 7.605-3.51 5.5 35.74 25.64 42.83 23.625 43.82-.325.16-6.6 6.61-6.6 6.61L32.35 201.48c-.842 24.71-.354 49.91 0 74.665 4.34-2.453 12.316-8.32 12.316-8.32l.12-8.41c-.036-.8 11.18 7.006 11.205 16.3.875.595 2.788-13.375 1.046-14.89l4.594-4.74-4.95-4.765s1.256-7.91-1.31-12.47c-1.66 10.43-10.32 13.685-10.32 13.685s-.17-38.13-.395-38.163l15.45 9.78c-1.15.238-4.09 5.706-1.023 10.135 1.87 2.698 8.59 2.52 9.105-.587 9.5 8.854 5.843 19.438 9.998 31.997l26.96 4.944c-11.11-20.61.95-44.1 22.768-42.42 4.087-1.7 7.787-4.16 7.787-4.16s-2.712-4.433-6.14-8.55l-46.696-.77 21.77-40.813-14.32-.46s11.637-24.68 9.123-26.668c-.882-.7-.513-8.656-.513-8.656l12.79.475c.505-5.696-6.186-27.4-15.626-41.59l52.485.47-29.548 41.21 15.87.453-9.47 19.453 1.518 15.173-14.08.453c2.427 21.033 18.052 43.194 23.545 50.04 9.08-2.154 26.034-15.13 36.555-23.196 1.364-14.114 6.224-26.13 18.93-35.094l.04-23.236s-7.253 4.68-7.252 4.36c.03-5.03-2.59-15.5-7.425-24.83-5.19-10.017-13.707-19.087-15.667-19.655 4.504-6.82 6.427-7.43 6.362-7.537l24.542 15.74zM68.878 86.214s-4.774 1.816-8.922 1.76c-7.433.383-13.102.982-16.117 7.08-.62 1.855.72 2.54 1.71 3.025 5.6-6.96 20.49 2.23 23.32-11.87zm-32.996 31.924c0 .982 1.098 2.588 1.65.92.476-1.19.573-3.117.037-4.305-1.5-.84-1.67 2.422-1.69 3.385zm80.494 33.66l-7.26.033-.043 8.52 7.395.35zm71.3 42.41c-.16.848-.942 4.654.83 3.992 2.09-1.61.31-9.01-.83-3.99zm-6.833 21.388c-.857-1.25-3.508 1.856-5.684 1.973-9.68.51-16.8-.78-18.01 9.34 5.576-3.56 13.39-1.94 18.424-3.09 3.64-1.21 7.814-4.51 5.26-8.23z" fill="#e2cf00"/><path d="M31.07 287.707c-1.087-88.702-.568-176.257-.264-263.967l163.717.918c-.586 87.537-.697 175.34.466 263.75zm6.998-170.65c.14-2.538-.903-3.59-1.808-1.844-.214.413-.917 4.824.752 4.97 1.096.097.996-2.037 1.056-3.126zm-2.65 2.977c-.01-.598-.378-.86.438-6.074-1.56-.6-2.91-3.133-1.774-4.734.443-.624.314-.76.133-1.286-.448-1.296-.21-2.352.992-3.178.77-.53.803-.67.556-1.364-.634-1.79-.04-3.54 1.674-4.135 1.187-.413.958-.472 1.083-1.225.28-1.684 1.21-2.703 2.9-2.533 1.572.16 1.676.16 1.81-.608.374-2.125 2.95-4.445 6.312-6.022 1.67-.783 4.437-1.338 9.74-1.323 3.038-.053 6.825-.46 8.95-2.326.35-.327.838-1.187 1.007-1.07.39.273.3 2.388-.48 4.317-2.26 5.62-5.32 7.168-13.98 7.117-2.58-.122-6.38.227-7.99 1.867-.48.508-.8.988-.62 1.25 3.584.508 7.264 2.125 9.406 9.197 6.5-4.607 16.86-11.664 29.706-18.043-1.543-8.45 5.787-9.75 9.897-8.07 0 0 .104-.55-.055-1.19-.157-.62-.385-1.44-1.14-2.49-.194-.38-1.348-1.11-1.12-1.68.372-.94.206-1.2-.58-2.063-.51-.564-.174-1.767-.05-2.252.162-.905.76-2.197.232-2.684-.815-.753-3.588-2.03-5.016-3.04-1.58-1.15-1.61-2.183.706-5.96 1.054-2.193 2.05-4.55 2.89-6.13 1.27-2.382 1.402-3.954.632-5.322-1.008-1.783-.84-3.902-.818-3.847 0 0-9.494-13.51-13.405-18.82l-44.42-.144L32.6 127.72l7.916-7.304-2.076-2.46c-.29 1.427-.025 2.82-1.784 2.903-.6.02-1.153-.23-1.25-.82zM61.816 255.44c.253-4.015-1.67-10.59-4.565-15.143.13 3.458.38 7.687-.32 11.068zm70.094 10.48c-.35-.113-3.266-.29-5.097-.388-6.07-.322-10.013-3.234-12.645-7.262-.646-.99-.38-.945 1.056.175 4.03 3.15 7.804 5.033 11.116 4.56 4.696-.67 7.23 1.052 6.58 3.058-.115.35-.153.133-1.01-.143zm-15.904-8.958c-.94-.815-1.01-1.18.105-.44 3.41 2.27 7.53 5.974 12.61 3.804 1.06-.676.09-.587-1.68-.4-2.69.288-5.98-1.083-10.03-3.875-1.97-1.36-1.1-2.51 1.12-1.44.69.33 1.39.57 1.83.6 2.19-1.45 6.79-1.432 6.68-1.43.53-.45-1.19-1.162-3.75-2.13-1.66-.626-2.062-.884-.825-.932 1.08-.04 2.78.498 4.007 1.29 2.046 1.316 3.076 2.045 3.687 2.13 1.003.08 2.027.224.305 1.023-.786.363-.717.456-.627 1.334.14 1.373.223 1.36.857 2.134 1.07 1.18 1.535 3.37.01 2-.33-.153-.362.14-1.26.5-5.27 1.488-9.197-.833-13.032-4.158zm9.728.392c.294-.387.736-1.376.796-1.652-.102-.64-.67-.44-.96-.08-.49.604-1.18 1.492-.614 1.795.268.144.53.264.778-.063zm-1.8-.416l1.172-2.088c-.29-.135-4.258.684-3.635 1.253.55.505 2.47.835 2.47.835zm4.47-7.007c-1.81-.96-2.336-3.05-.985-4.43 1.13-1.16 3.05-1.06 5.36.36.81.5 1.31.752 1.86.547.93-.34 1.28.18 1.21.908-.17 1.603-2.67 1.995-4.24.167-2.08-2.416-4.348-.73-3.68 1.018.34.89.99 1.03 1.74 1.364-.002.176-.752.364-1.277.08zm-8.242-10.76c2.995-.806 7.447 2.36 9.862 1.93 1.046-.223.9 1.284-.188 1.83-1.27.64-3.076.21-6.906-1.788-3.156-1.705-5.708 1.12-3.6 3.228.453.427 1.112.684 1.92.646 1.067-.05 1.38.24.006.595-.79.204-2.26-.117-2.973-.837-1.7-1.72-1.28-5.024 1.88-5.6zm-63.374-9.25c-.09-3.56 1.813-5.536 1.86-5.55l-13.458-9.13.2 36.47c6.67-4.236 8.858-9.57 9.24-16.46 13.166 14.747 9.057 32.698.834 42.92-.338-6.256-2.205-13.65-9.808-17.44l-.014 7.465-12.615 8.946.076 8.245 29.68.093 14.356-20.96c-2.6-9.512-2.21-17.422-3.97-21.772-1.32-3.575-3.82-8.194-5.44-7.477-5.47 4.33-10.84-.725-10.95-5.354zm11.326 4.21c4.662 3.357 5.906 8.843 6.862 13.72.032.04 2.447 16.53 2.524 16.75.312.904.208 1.806-.59 2.493-4.306 5.904-12.722 18.568-12.722 18.568l82.49.487c-4.403-6.4-7.84-12.73-12.02-17.994.175-.28-.327-3.877-1.024-5.04-.718-1.2-.883-1.824-.397-2.92 1.206-2.7 2.444-5.62 3.56-8.1 2.133-4.74 2.378-4.78-.537-6.32-3.454-2.01-4.07-2.665-3.345-4.96.264-.835.297-1.17-.772-1.388-.495-.1-1.7-.39-2.51-.613-2.33-.736-1.656-.28-2.51.324-.648.32-1.207-.91-1.97-2.365-.874-1.674-1.095-1.714.353-.853 2.682 1.596 7.443.976 5.765-.87-.81-.9-1.57-1.363-1.49-3.4.09-2.025.12-2.618-1.25-2.9-2.75-.562-5.733-.327-8.292.31-7.786 1.945-14.032 8.7-16.4 13.718-.534.876.69.83 1.22.834 2.55-.228 4.36 3.84 2.692 5.66-.77.813-1.54.314-.718-.743.94-1.75-.46-4.06-2.516-3.47-2.585.74-2.66 4.08-2.98 6.41-.88 6.71 2.53 15.683 3.364 17.513 0 0 .183.27.12.27-.062 0-.47.38-.645.18-.6-.68-2.11-6.17-2.93-10.09-1.587-10.85 1.22-20.825 10.246-26.49 7.998-5.77 12.024-4.528 16.564-4.794 1.55-.556 3.7-1.402 5.33-2.2 7.997-4.37 14.476-8.092 21.27-11.79 6.595-3.59 11.018-8.717 17.047-11.92.273-.146.556-.485.84-.623 7.497-6.517 14.91-12.915 19.38-17.374.543-.546.99-1.28.99-1.28l-.757-37.604s-.755-.625-.75-1.224c.006-1.303-.478-1.054-3.16.833-3.37 2.37-3.6 2.25-3.6 2.25-1.785-17.25-11.114-34.214-22.42-44.134l.463-.634s3.783 2.5 5.67 3.687v-2.405L164 100.786s-.406-.33.037-.93c.245-.333.868-.087.868-.087l3.65 2.69v-2.2l-2.95-1.88.944-1.19 1.58 1.024c-.67-1.738.28-1.677 1.25-.524.4.53.922 1.208 1.143 1.848.084.245.336.844.336.844l2.587 1.925s-.1-.938-.008-1.226c.435-1.364 3.56 3.037 3.166 3.14l2.65 1.91c.623-.956 2.984.95 3.08 1.888.208.41 9.13 6.148 9.13 6.148l.098-3.17.96-1.252.43-73.24-11.847 7.576-.13 8.866c-5.595-1.81-10.443-9.915-11.152-14.97-.364-.2-1.984 9.972-1.13 14.424-1.48 1.1-3.97 3.674-3.95 3.69l4.49 4.91s-.896 7.52-.687 11.254c.182 1.773.22 1.953.75 1.956.43.004.82-.46.82-.866 1.053-4.475 4.515-11.455 10.51-13.83.393-.014-.035 39.9-.035 39.9l-14.87-10.144c-.74-.636.972-.595 2.017-3.973 2.695-8.713-6.65-11.79-10.26-6.746-.595 0-3.076-3.07-3.447-4.35-2.75-5.54-3.276-11.82-3.81-16.855-.323-2.29-1.163-6.047-1.86-8.307-.372-1.208-.41-2.08.393-3.204 3.685-4.976 7.25-10.2 10.354-15.3 2.832-3.72 2.28-3.91 2.28-3.91l-82.713-.27L91.902 43.77l1.34.52c-2.29.295-1.512 2.295-.623 4.446 1.09 2.644.97 3.19-1.8 8.637-4.06 7.984-4.28 7.283-.23 9.755 2.503 1.602 2.96 1.95 2.59 4.127-.368 2.175-.47 1.5 1.596 1.68 1.105.095 1.985.295 2.48.52.566.256.987.61 1.714.374 1.226-.4 1.256-.106 1.305.79.02.383.596 1.17.775 1.464.47.77.25.9-.612.357-2.66-1.675-7.105-.96-5.47.86.674.75 1.352 3.247 1.41 4.487.104 2.22 1.544 3.005 4.57 2.55 5.812-.43 18.917-7.647 21.97-15.75-6.712 2.286-5.333-5.95-2.94-5.69 0 0-.644 1.46-.664 2.293-.075 2.945 2.393 3.173 4.092 1.086.74-1.094 1.637-5.166 1.196-9.762-.54-5.566-2.79-11.792-3.2-13.337 9.6 22.91.78 32.986-12.707 39.56-5.164 2.16-5.873 2.145-8.92 2.287-2.08.17-3.96 1.202-5.96 1.86-11.54 5.51-25.722 12.376-38.41 22.623-9.1 6.743-16.33 12.803-23.52 20.593l-.03 40.426c2.164-.336 5.67-2.44 7.75-3.653 2.38 15.1 10.146 32.587 23.008 43.044-.01-.004-.305.57-.31.566-1.834-1.217-3.665-2.427-5.44-3.36l-.093 1.924 4.328 2.976c.116.46-.74 1.106-.74 1.106l-3.574-2.47-.028 1.96 2.766 1.76c.747.75-.906 1.14-.906 1.14l-1.64-1.19s.118.95.068 1.12c-.427 1.444-2.794-1.75-3.22-3.34l-2.33-1.38c.33.94-.503 1.072-1.162.84-1.75-.89-1.65-2.38-2.016-3.26l-3.098-1.968c-.533 2.95-3.682-1.206-3.184-2.2l-3.973-2.705c.22.082-1.516.44-2.103.06-.676-.44-.913-2.246-.913-2.246l-2.382-1.475v2.582l24.508 17.11-.356.664-25.56-17.487 1.035 75.9 12.46-8.62c-.24-2.84.284-5.38.05-8.617C51.2 263.29 53.36 266 56.18 274.37c1.828-4.765 1.506-9.337.686-13.566 1.637-1.34 3.23-2.64 4.053-4.66-1.54-2.12-3.048-2.717-4.67-4.683-.128-2.396 1.276-9.54-.608-11.892 0 0-3.442 10.373-10.857 13.49-.226-10.954.03-38.492.03-38.492s7.62 5.26 11.508 7.4c1.83.975 3.1 1.586 3.126 2.28.013.353-.72.803-1.043 1.3-.2.31-1.044 3.272-.715 5.59.15 1.707.953 2.787 1.724 3.605 2.446 2.6 6.924 1.376 8.697-.63zm14.752-19.385l29.315-41.007c3.49 15.09 9.38 28.91 17.06 41.437zm14.496-43.102s2.046-4.054 2.984-6.205h-3.59l2.147-2.41h5.346l-2.86 6.097h2.26l3.136-6.094h8.33l-2.913 6.095h1.92l3.115-6.095h7.744l-2.722 6.092h1.814l1.592-3.076.387 5.596h-7.69l3.04-6.206h-2.48l-3.436 6.206h-7.208l3.125-6.206h-2.74l-3.43 6.206zM121.1 149.8l3.108-6.567h-2.46l-3.437 6.43h-7.68l3.03-6.355-1.913.006c-1.3 2.005-3.37 6.075-3.37 6.075h-8.145s2.304-4.32 3.213-6.43h-2.01l-1.635 2.61c-.574-.98-.195-3.56-.29-4.66h7.68l-3.087 6.3h2.45l3.366-6.3h8.11l-3.305 6.3h1.92l3.276-5.96h8.25l-2.89 5.956h2.547l-1.122 2.59zm-7.59-11.44l-1.555.29c-1.99-17.014-11.406-34.36-15.39-41.523l46.847.66zm55.008-98.24s-4.467 5.743-4.766 15.38l4.255-3.4c-.27-9.78.51-11.982.51-11.982zm-4.718 16.1c-.07 7.17 1.81 11.743 4.187 15.322.04-4.62.505-9.295.78-10.52zM47.814 193.43l-15.15-10.436v2.287l18.006 12.23zm-2.73-5.602c-4.058-2.037-12.42-8.344-12.42-8.344v2.087l13.312 9.36c.26.26.613.19.736-.094-.524-.884-1.155-2.09-1.628-3zm-3.717-9.06l-8.703-6.07v1.888c2.232 2 9.575 6.755 9.575 6.755zm-8.703-7.452l8.187 5.292-.5-2.343-5.814-3.95zM179.786 97.96l.438-37.707c-8.53 4.033-10.22 15.798-9.937 16.163-8.49-8.75-11.692-27.62.218-40.307.896 4.07 1.197 9.97 9.622 15.36l.216-7.99 11.805-7.54-.098-9.076-28.314-.22c-4.392 5.562-8.782 11.895-13.126 17.8-1.63 2.212-2.038 3.253-1.726 4.41 2.857 10.265 2.285 22.905 8.28 28.88 8.044-7.56 15.58 3.825 9.327 10.846zM57.45 261.017c1.088 3.434.34 10.36.27 10.36 1.298-.705 4.83-10.736 3.946-14.505m40.98-184.155c-2.004-.568-3.512-1.428-5.626-1.227-1.665.173-2.23-.378-1.216-1.284 1.328-1.125 2.615-1.59 5.075-.302 7.4 3.873 7.63-1.783 4.29-2.183-.948-.11-.9-.71.04-.56 5.172.21 3.595 7.06-2.57 5.56zM93.99 67.07c-.98-.36-2.164-.956-2.6-.84-1.1.296-1.136-.31-1.005-1.024.316-1.727 2.082-1.414 4.416.072 3.35 2.128 4.63-.933 1.59-2.584-1.022-.556-.705-.71-.11-.735 1.588-.07 3.08 2.09 2.66 3.86-1.066 2.83-3.654 1.72-4.944 1.25zm9.796-5.23c-2.163-.374-5.297-3.283-6.752-3.482-.817-.094-1.778.005-2.04-.323-.8-1.005 1.465-1.005 1.62-1.37.005-.847.058-1.377.024-1.667-.4-.54-1.975-2.706-1.92-3.754.038-.065.826.58 1.23.582 3.864-2.036 6.505-1.133 9.766.306 1.347.595 4.825 3.29 4.868 3.72.074.722-1.474-.635-2.685-1.447-2.983-2.073-5.666-3.547-9.41-2.318-.583.2-.482.307 1.435.19 1.875-.114 3.41.46 5.804 2.023.594.388 1.312 1.05 1.74 1.254 3.012 1.435 3.668 2.846 1.75 2.464-.41-.08-1.204-.508-1.986-.784-1.376-.487-.89-.34-2.214.277-.465.22-1.584.68-2.503.79-.705.118-2.99.1-1.98 1.065 1.074 1.073 2.853 1.864 4.075 2.354.88.392.203.307-.825.13zm.257-4.675c1.41-.522.308-1.705-1.49-1.966-.41-.06-1.29 1.88-1.31 2.29-.014.3 2.028-.04 2.8-.33zm-3.892.21c.33-.206 1.41-1.772 1.41-2.02.01-1.006-1.28-.726-1.58.32-.36 1.273-.39 2.057.17 1.7zm-4.5-8.102c-1.16-.513-2.733-2.756-.93-2.377.39.09 2.412.194 3.72.2 4.443.02 8.874 2.033 11.692 4.963 1.568 1.63 1.67 2.83.08 1.71-5.64-5.06-9.097-4.12-14.56-4.5zm43.9 174.417l-1.57.838c.004.872.318.736 1.015 1.354 0 0-.965.157-1.67.11-1.15-.076-1.414-.057-.906.75.234.375.556.927.556.927s-.624.13-1.562-.13c-1.42-.39-2.15-.196-1.61.594l.438.63c-1.036-.237-2.942-1.16-2.942-1.16l-1.342.405c2.68 5.24 12.22 1.934 9.606-4.326zm46.52-7.473c1.477-1.237.76-2.754-1.393-3.866-.896-.46-.808-.46-2.26.39-1.792 1.05-1.918 1.11-.643 2.46 1.54 1.63 3.22 1.93 4.3 1.02zm-5.47-3.497c1.357-.6.853-.5.76-1.917-.394-1.633.53-1.746.987-3.27.19-.834-.516-.527-1.886.748-1.13.95-1.465 1.18-1.463.72.128-.38-.775-1.37-1.585-1.51-.683-.11-.62-.27.05-1.13 1.16-1.5 1.64-3.393.86-5.06-.984-2.11-1.31-2.42-3.484-.578-1.114 1.026-2.688 1.813-3.448 3.08-.544.934-.23 1.837.632 3.67 2.147 4.58 5.47 6.636 8.577 5.257zm7.62.04c2.39-.937 1.426-3.518-2.31-6.12-2.252-1.566-2.89-1.55-.98.15 1.225 1.086 1.416 1.47.89 2.25-.44.653-.9 1.42-.466 2.016.683.94 1.85 2.098 2.86 1.703zm-134.6-4.292l-2.605-1.645v2.25l2.606 1.556zm130.23 2.034c.51-.364.96-1.385.96-1.836.12-1.047-1.59-.796-2.4.36-.916 1.303.166 2.37 1.436 1.476zm5.83-3.543c1.19-1.25.61-2.57-1.83-4.15-.94-.62-1.42-1.02-1.302.2.035.37-.374.86-.637 1.16-.845.94-.47 1.11 1.94 2.64 1.225.78 1.16.842 1.83.14zm-136.06-2.4l-2.606-1.577v2.043l2.606 1.76zm-5.7 2.04l.036-2.05-3.376-2.247-.05 2.283zm132.767-.83c-.435 1.17 1.315.64 1.416.52.306-.595.038-.65-.11-.71-.31-.13-1.5.073-1.303.19zm.764-1.48c.6-.196.67-.12.584-1.2-.126-1.636.12-1.766 1.205-2.485.87-.573.876-.486.86-1.49-.015-1.206.07-1.727 1.66-1.973.65-.1 1.02-.26 1.075-.774.09-.863-1.297-2.32-3.022-3.16-.254-.003-4.11 3.352-5.187 4.512l-.658.706.785 1.474c1.227 2.3 1.026 3.147.305 6.195-.15.817.48.7.648-.283.217-.917.342-1.25 1.747-1.523zm5.875-8.137c-.297 1.852.662 2.99 1.568 2.07.493-.5.907-4.588.564-5.237-1.866-1.99-2.06 2.722-2.137 3.167zM157.36 226.82c6.917-4.05 15.805-.74 20.81-4.06 2.337-2.574 4.685-4.215 3.36-5.99-1.03-1.38-1.7-1.594-1.7-1.594.073.1-3.65 3.234-9.05 2.51-9-.31-13.255 2.516-13.42 9.135zm11.82-9.64c4.404.152 7.984-.613 9.622-1.89 1.016-.793 1.17-.933-.423-1.06-3.42-.277-6.88-4.24-7.967-8.09-.22-.79-.482-1.65-.482-1.65-9.11 7.274-29.17 18.73-29.17 18.73 1.33 6.19-3.154 9.885-9.23 7.686-1.057-.096-.92 1.264-.72 1.823.33.913 1.065 1.68 1.21 1.803.903.776 1.07 1.29.936 2.03-.138.733-.125.71.39.983.91.49.864 1.185.366 2.62-.537 2.02-.574 2.53.878 3.49 1.87 1.203 5.54 2.517 4.998 4.324-1.228 4.093-3.244 7.62-5.016 11.45-.658 1.06-.517 2.81.002 3.626.642 1.25.567 2.75 1.4 3.897 4.607 6.84 8.573 12.856 12.77 19.033l43.91.415-1.09-101.265s-6.77 6.666-6.75 7.137c.025.56 1.59 1.44 2.262 1.55.027-.304-.005-1.504.08-1.925.064-.61 2.02-.45 2.664.08.453.37.314 2.794-.144 4.766-.374 1.616-.322 1.638.37 2.57.844 1.137 1.136 2.1 1.025 3.385-.06.705-.053 1.26.146 1.727.47 1.095.33 2.637-.186 3.354-.748 1.04-.76 1.2-.598 1.756.614 1.924.385 3.57-1.765 4.4-.276.108-.577.583-.753.994-.938 3.085-2.697 3.08-5.1 2.193-1.704 6.635-8.63 8.303-13.617 8.106-5.196-.204-10.48.185-12.833 3.584.55-8.05 4.153-11.932 12.814-11.63zm15.683-13.37c.884-.33.993-1.25.25-1.843-1.138-.907-2.446.016-1.912 1.33.3.734.807.832 1.665.512zm-136.797-2.92l-3.462-2.398.02 2.148 3.45 2.217zm6.528 1.764l-2.45-2.94c-7.22-4.414-13.477-9.352-19.48-13.328l-.046 2.72 1.71.866s.145-.6.262-.945c.22-.65 2.206 1.18 2.838 2.64.16.363.5 1.18.5 1.18l2.315 1.275s.034-.655.035-.838c.01-1.394 2.484.523 3.61 2.8.276.552.634 1.14.634 1.14l2.176 1.32c.86-1.173 3.05.433 3.61 1.86.71 1.807 1.96 1.964 2.01 1.97zm-13.03-.396l.003-2.088-3.608-2.373-.05 2.115zm148.552.17c.094-.55-.446-2.68-1.256-2.8-.5-.073-1.292.694-1.3 1.23 0 .695 2.46 2.162 2.56 1.57zm-2.935-2.53c.79-.86-.204-1.985-1.41-1.596-1.43.463-.935 1.76.667 1.787.358.004.573-.007.746-.196zM41.38 198.36l.013-1.99-3.333-2.202-.07 1.945zm-6.556-.702l.04-1.913-2.19-1.53v2.293zm.08-5.734l-2.23-1.458v2.074l2.34 1.336zm9.09-6.31c-.23-.614-1.173-2.554-1.173-2.554l-10.146-7.08v2.178l11.35 7.635zm-4.75-16.828l-.12-.888-.9.482zm-2.15.22l-1.42.77 4.29 2.785-.344-1.98zm148.85-23.486l1.107-.8-1.95-1.323-.147 1.34zm1.98-1.273l1.452-1.2-4.86-3.425.345 2.13zm3.442-1.793v-1.464l-7.877-5.32.54 2.676c1.39.8 3.087 1.973 4.86 3.22 1.126.793 1.13 1.1 2.475.887zm0-2.71v-2.322l-9.113-6.05.74 2.724zm0-3.486l.004-2.433-11.03-7.288 1.207 3.22zm0-6.112l-13.906-9.31 1.78 3.568 12.126 8.103zm0-3.558l-17.452-11.61 1.96 3.25 15.492 10.475zm0-3.774l-.653-.004c-.052 1.665-1.854.458-2.532-1.37-.51-1.226-.624-1.535-.624-1.535l-3.514-2.375.276 1.86-2.37-1.444s-.683-2.287-.705-2.303l-4.043-2.75c.085.47.153 1.24-.11 1.294 0 0-1.23-.525-1.79-1.343-.588-.85-.676-1.708-.676-1.708l-3.3-2.137-.82.083s-.445-.3-.864-.64c-.783-1.4-1.7-1.61-2.794-2.18 0 0 2.324 2.71 3.565 4.314 1.14 1.48 2.52 2.535 2.52 2.535l18.436 12.3zm0-3.796l-1.425-.856.107 2.244 1.32.897zm-143.73-4.943c.087-.14-.277-.304-.68-1.184-.99-2.18-1.09-2.94-.56-5.23.255-1.095-.74-1.564-1.195-.4-.355.91-.908 1.42-1.436 1.354-.5-.062-.605.147-.39.836.263.952-.31 2.193-1.11 2.53-.81.21-.956.72-.73 1.46.378 1.23-.95 2.27-1.99 2.21-1.61-.09-.98 1.375.96 2.772.72.518 1.04.797 1.606.536 1.47-1.39 4.202-3.375 5.52-4.88zm139.775 4.5l-.08-2.14-4.05-2.737.5 2.865zm3.957-.898v-2.16l-1.667-1.07.085 2.293zm-152.52-3.333c.39.393.776.43 1.393.058.71-.37.438-.933-.305-1.3-.694-.364-1.667.748-1.085 1.242zm-1.21-.945c-.052-.457.498-1.06.88-1.088.83-.05.684-.498-.268-1.07-.443-.27-1.234-.906-1.523-1.116-1.423-1.034-2.8.56-1.74 1.91.884 1.127 2.19 1.797 2.657 1.354zM187 114.74l-.315-2.384-3.66-2.432.29 2.625zm-133.03-5.81c.198-.33.26-.645.24-1.044-.077-1.5-.85-3.26-1.933-4.736-.807-1.097-1.785-2.035-2.776-2.586-2.8-1.44-6.53-.82-5.99 1.034.39 1.253.3 2.302-.78 2.932-.73.428-.82 1.005-.05 1.006.56 0 2.05-.513 2.67-1.49.88-1.38 1.38-2.18 1.18.07-.08.94.04.87 1.5.795 1.98-.1 1.61.27.46 1.16-1.683 1.3-2.017 3.5-1.168 5.36.526 1.16.89 1.77 1.575 1.62 1.48-.97 3.9-2.924 5.083-4.11zm126.566 2.782l-3.602-2.37.142 2.536 3.89 2.296zm-138.233-2.32c-1.32-1.666-2.87.462-1.868 1.392.726.64 2.56-.015 1.868-1.392zm-3.122.232c-.16-.52.79-1.353.94-1.685.44-.97-3.47-3.66-4.68-2.06-.84 1.09-.254 2.19 2 3.69 1.367.9 2.02.9 1.75.05zm141.01-1.608l-3.33-2.073.06 2.19 3.538 2.132zm-5.87 1.96v-2.237l-3.35-2.34-.054 2.31zm-130.4-2.644c.61-.602.407-.797-.77-.737-.742.038-.97-.085-1.02.255-.11.754 1.17 1.1 1.795.482zm-2.79-.846c.06-.156-.36-.46-1.05-1.037-1.31-1.1-1.46-1.79-.2-2.64 1.8-1.22-.09-2.96-2.17-2.25-1.682.57-1.69 2.26-.69 3.35 1.376.912 3.86 3.55 4.11 2.57zm133.19-2.236l-3.3-2.262v2.203l3.3 1.93zm-132.57.144c1.47-.75 1.55-2.627.08-1.94-.605.285-1.4 1.053-1.402 1.4-.003.678.578.922 1.328.54zm1.08-4.31c1.907-1.024 1.61-1.975-.282-3.163-2.315-1.32-3.937 1.22-2.03 2.95 1 .91 1.23.8 2.315.22zm2.47-1.847c3.098-3.325 5.15-3.155 9.238-3.066 10.543.1 13.774-4.94 13.44-8.47-5.123 2.547-9.696 1.18-14.573 1.918-8.414 1.878-9.4 5.835-9.99 8.1zm42.268-11.33c2.717.025 2.595.108 1.478-2.125 2.645.362 3.71 1.63 2.84-1.003 1.402.5 2.242.88 3.69 1.36l.92-.54c-5.595-5.447-11.8-.83-10.166 4.66l2.08-.994z" fill="#131f67"/><path d="M197.837 303.043v-3.584h3.233s-.026 1.25 0-11.65c.024-11.25.11-11.34.438-12.43 2.254-7.53 15.646-7.52 16.506.84.046 4.064.066 4.92.092 4.92h-3.584s-.003-1.02 0-1.604c.02-4.188-1.28-6.043-4.593-6.068-2.53-.02-3.93.886-4.73 2.95-.445 1.003-.49 1.94-.49 2.855.004 4.64.002 20.18 0 20.174h3.605l.045 3.56zm-96.622-17.084l1.3-6.31 11.615.56s1.35 3.957 1.895 5.74zm-26.82-.16l6.162-10.18 8.75 2.374-2.013 7.955zm17.02.15l2.65-10.863c-5.005-1.1-9.726-1.827-15.25-3.318l-8.97 14.166-5.394-.143c4.65-6.193 13.14-18.7 13.14-18.7 19.48 6.7 39.11 7.83 58.87 4.29 0 0 7.29 9.61 9.9 14.817l-5.134-.25-6.38-10.685c-4.444.48-8.814 1.072-13.45 1.265l3.174 9.42h-5.1l-2.894-9.394c-5.56-.215-10.232.22-16.896-.824l-2.35 10.21zm36.75.003l-1.757-6.68 6.268-.73s2.907 5.093 4.498 7.41zm18.358-20.02c.306-4.65 1.232-8.3 5.552-14.468 5.522-7.884 15.556-23.245 15.8-23.967 0 0 10.292 15.436 14.895 22.41 3.927 5.98 6.32 12.64 6.45 16.642.247 7.67-4.586 12.47-11.07 13.27-4.453.55-9.075-3.486-9.425-8.23-.143-1.944-1.202-2.533-1.486-.827-.38 5.913-5.06 9.42-10.43 8.892-7.98-.78-10.63-8.63-10.29-13.726zm55.88-.7c-2.047-.65-3.514-2.748-3.772-5.39-.29-3.02.8-6.106 4.49-11.75 1.75-2.743 3.58-5.635 5.02-8.55 2.17 3.185 3.3 5.63 5.488 8.92 5.02 8.05 5.98 12.383 3.42 15.467-1.802 2.177-5.605 2.235-7.176.11-.47-.64-.586-.93-.92-2.335-.146-.626-.6-.708-.724-.13-.654 2.964-3.122 4.52-5.816 3.66zM71.92 223.9c7.794-11.848 35.324-50.05 35.324-50.05l4.01.383s-24.452 34.104-36.328 51.4zm-39.754-18.432l9.6 6.913.07 53.82-9.757 6.87zM72.02 117.42l5.81 11.373c-24.69 23.394-19.846 50.844-6.62 70.425 0 0-1.71 4.38-5.436 9.03-17.897-11.8-23.34-42.473-23.204-42.8 19.722-17.592 22.38-23.193 29.45-48.027zm100.894 83.838c1.275-17.32 9.746-28.64 19.238-35.556l.486 17.616c-6.214 5.964-12.785 12.122-19.724 17.94zm-25.78-17.445c21.623-20.194 22.36-48.872 6.607-69.923l6.45-9.002c9.14 9.78 18.1 20.028 21.92 43.845-13.693 10.793-25.794 28.63-29.013 46.633zm-29.797-23.496l-.04-8.253 8.088-.04-.23 8.24zm-17.098-.064l-.12-8.225 7.99.058-.125 8.337zm13.84-22.02s26.8-37.517 37.32-51.058l2.234 1.644L118 138.44zm-62.6-26.236c-.03 14.8-9.517 26.53-19.21 34.182l.134-16.86zm5.65-26.937S37.833 59.25 35.773 48.023c-.69-6.834 3.195-14.004 9.9-14.922 5.214-.63 10.242 3.11 10.872 8.43.11 1.05.35 1.33.9 1.09.4-.18.46-.39.636-2.2.5-5.15 5.302-8 10.287-7.56C77.3 34 80.42 45.16 77.93 50.79c-5.266 11.89-21.89 34.71-20.8 34.27zM6.04 55.256c-.744-3.022.396-6.917 2.563-7.897 3.223-1.46 6.32.38 6.837 3.24.195 1.072.65 1 .83-.118.44-2.754 3.636-4.306 6.41-2.878 3.44 1.77 4.123 6.347 1.56 11.45-2.87 4.85-8.718 14.134-8.718 14.134-.18-.536-8.184-12.59-9.48-17.943zM192.3 40.57l.057 65.698-9.057-5.454.768-55.095zm-43.17 3.89c-20.447-5.316-39.075-6.906-58.657-2.71-2.553-3.043-11.13-15.72-11.13-15.72l4.95.072L91.3 37.316l13.348-1.744-3.437-9.122 5.51.024 2.74 8.946c-.03-.07 10.86.107 16.91.824.96-3.322 2.75-9.923 2.75-9.923h6.06c-.78 3.17-2.87 10.72-2.87 10.72 4.97.69 14.178 3.03 14.26 3.138 3.23-4.567 6.236-9.133 9.158-13.7l5.91-.03c-1.74 2.95-12.174 18.168-12.5 18.02zM6.19 31.76h3.68c-.123 2.68-.082 5.872 2.388 7.02 4.39 1.495 7.3-1.163 7.594-5.015.198-4.416.09-20.39.09-20.39H16.45v-3.61h10.72v3.61h-3.522s.25 13.683-.02 20.507c-.17 6.732-5.313 9.008-9.56 8.763-8.8-.33-8.068-6.62-7.876-10.886zm139.164 4.826l-9.033-2.107 2.36-7.96 12.63-.01zm-51.87-2.88l-4.2-7.388h8.08l2.677 6.507zM111.83 32.2l-1.223-5.882h14.677l-1.5 6.266z" fill="#d40000"/><path d="M78.274 25.823L91.327 44.66c.06-.06 7.314-1.444 14.445-1.794 7.088-.347 15.54.096 15.612.31 0 0 2.23 6.735 2.987 10.042 1 4.42.9 9.504-.16 12.878-1.54 4.945-2.35 6.428-5.8 9.824-2.556 2.48-6.17 5.177-9.9 6.618-5.166 2.158-5.692 2.146-8.736 2.288-2.013.094-2.22.173-3.32.744-.34.118-.56.472-.862.574-.255.086-.74-.01-.74-.01-16.79 7.357-29.93 15.562-39.86 22.89-.114.085-.19.464-.3.555-.812.66-1.56 1.16-2.352 1.77-.11.08-.352-.07-.46.02-11.68 9-18.3 16.29-20.732 18.4l.24 41.9s5.318-2.73 8.046-4.398c1.915 16.223 10.007 31.983 22.784 42.93l-5.543 7.64-25.544-17.586.355 77.313 13.58-9.43v-8.156c4.048 2.724 7.998 3.79 10.87 16.2 2.298-4.36 2.097-10.854 1.067-15.19.018 0 3.45-2.838 4.5-5.01l-5.047-4.477s1.307-10.84-1.07-13.02c-1.885 4.92-3.386 10.134-10.42 13.93l-.09-37.66c3.505 2.22 6.82 4.723 10.29 7.002l.475-.097 3.586 2.458s-.38.77-.725 1.296c-4.36 6.61 2.903 14.712 8.81 9.84 2.313-1.91 6.653 6.03 7.47 13.663.835 4.934 1.284 11.06 2.625 15.345.41 1.25.25 1.952-.63 2.71-4.53 6.37-13.63 19.202-13.63 19.202h6.56l.472-.75H65.34c4.163-5.538 8.134-11.99 12.452-17.397 16.09 6.058 42.443 7.456 58.36 3.784 3.286 4.61 6.482 9.442 9.643 14.14h-4.577l.63.983h6.192l-13.043-19.2c-8.99 2.676-30.908 1.634-30.508 1.41 0 0-.06-.147-.82-2.325-3.77-12.147-4.11-22.93 5.33-31.642 5.01-4.458 10.61-7.398 16.86-6.84 2.795-.055 2.85-.206 4.013-.733.642-.29 1.973-.59 1.973-.59l6.335-3.52.835-.164 1.822-.96.376-.446 2.943-1.496.33.028 3.98-2.29.052-.32 1.566-.967.37.394c.434.036 15.604-9.92 21.93-15.468l.393.145c7.387-5.977 17.433-15.403 20.413-18.982l-.16-17.935-.254-.22-.1-19.86h-.578l-.026-2.45c-3.267 1.21-6.863 4.244-7.104 4.12-2.08-16.817-9.822-32.306-22.473-43.68l5.386-7.437 25.016 16.83.067-4.92h.31c.31-18.855.477-67.72.477-67.72l-.246-.027-.004-3.903-12.786 8.165-.18 8.247c-5.668-1.85-9.26-8.66-10.45-14.73-1.65.66-2.417 7.052-1.807 15.146-1.75 1.046-2.873 2.19-3.946 3.574 1.388 1.748 2.93 3.18 4.627 4.648-.357.763-1.107 11.564-.36 12.904.34.99 1.52.846 1.525-.193 1.728-8.425 9.718-13.953 10.166-13.443l-.195 38.84-14.195-9.95c2.98-3.365 3.608-9.04-.146-11.818-3.767-2.786-7.45-.424-8.32 1.347-4.61-3.003-6.16-14.132-6.836-18.488-.167-2.12-.71-4.998-1.338-7.594-.394-1.626-.862-3.182-.922-4.64-.027-.686.055-.983.68-1.842l13.798-19.58-7.045-.025-.068.12 5.54.013L148.8 44.147c-18.724-5.88-38.14-7.304-58.91-3.573L79.64 26.15l4.668-.02-.184-.31zm10.828.165l.198.354 8.064-.025-.12-.3-8.142-.03zm11.957.043l.15.43 5.5.02-.17-.42zm28.09.16l-.06.195 6.06.01.053-.195zm-18.58.006l.06.247h14.62l.052-.233zm28.16.13l-.06.204 12.626-.01.107-.194zM192 37.096l.04 2.657-8.48 5.39c-.214 11.367-.54 55.088-.54 55.088L181 98.89l.397-54.747s7.504-4.82 10.614-7.05zM169.75 39.23h.287l.09.616h-.495zm.603 1.605l.223.835-1.243-.005.21-.806zm21.407.43V43l-7.316 4.572V45.85zm-22.585 1.447l1.916.022.32.96H169zm-46.994.512l1.28.193c2.94 6.996 3.69 13.005 4.2 19.256 1.17 8.116 3.53 16.25 5.17 19.707l-1.87-.02c-.217-.028-4.18-11.775-5.004-18.71-.22-1.375-.13-2.65-.202-3.924-.417-5.362-1.15-9.393-3.563-16.5zm2.41.284l1.63.167c1.14 4.97 2.81 9.66 3.48 14.65 1.08 7.984 1.66 16.137 5.51 24.006l-1.524-.012c-2.336-5.32-3.782-10.87-4.712-16.867-.727-3.44-.734-6.025-1.12-9.135-.47-3.734-1.907-8.483-3.263-12.803zm2.48.23l1.637.243c1.076 4.937 2.92 10.367 3.41 14.82.995 9.08 2.42 17.55 5.285 23.55l-1.146-.03c-4.424-8.57-4.495-16.21-5.735-24.242-.73-4.73-2.28-9.463-3.45-14.338zm2.607.384l1.446.224c1.004 4.91 2.806 10.465 3.225 15.444.743 8.813 2.306 15.485 5.587 22.6l-1.35.024c-3.96-6.93-4.493-15.435-5.726-24.05-.684-4.757-2.22-9.546-3.178-14.24zm62.09.01v2.15l-7.317 4.697v-2.12zm-59.727.418l1.507.233c.97 4.736 2.78 9.79 3.206 14.398.73 7.88 2.177 15.838 5.425 23.168l-1.39.087c-3.436-7.4-4.93-14.136-5.58-22.643-.366-4.77-2.2-10.584-3.168-15.235zm39.85.024l.52 1.274-3.504.17.043-1.43zm-37.37.445l1.794.35c1.9 7.55 2.398 14.7 3.693 21.873 1.617 8.918 3.32 13.4 4.714 15.064l-1.482.045c-3.622-7.72-4.905-15.398-5.746-23.35-.494-4.693-2.034-9.317-2.97-13.99zm2.734.51l1.368.27c1.63 6.17 2.367 11.946 3.084 17.53 1.303 10.61 4.84 18.68 5.59 19.055l-1.507-.07c-3.27-4.52-4.484-12.217-6.09-23.077-.71-4.773-1.41-9.264-2.446-13.716zm2.2.44l1.534.38s1.38 5.423 2.424 12.63c.87 6.01 1.33 17.82 7.857 24.62 3.26 3.39 9 6.34 12.915 3.136 1.673-1.428 2.75-3.715 1.745-6.16-1.692-4.094-7.42-3.393-5.513.9.213 1.03-1.133 1.074-2.07.068-.986-1.075-.74-2.3-.042-3.426 1.474-2.374 5.418-2.62 7.73-.497 3.7 3.623 2.1 9.837-2.582 11.807-5.393 2.29-12.345-2.44-15.1-6.955-4.552-7.863-5.26-15.33-6.326-23.27-.54-4.287-1.585-8.788-2.57-13.24zm2.31.63l1.556.38c.003.02 1.703 7.653 2.27 12.175.694 5.587 1.464 12.172 3.86 17.256 1.485 3.16 3.65 5.82 5.84 7.37 1.882 1.334 3.57 2.176 6.075 1.63 2.892-.63 3.016-5.103.257-5.115-1.41-.005-.493-1.362.68-1.4 4.156-.138 4.276 6.416.36 7.878-4.48 1.676-9.33-1.48-12.33-5.444-5.25-8.154-5.043-15.59-6.196-22.168-.308-3.464-2.26-12.395-2.376-12.558zm31.463.23l.95 1.27-5.28-.024.024-1.21zm-29.146.42l1.49.52c.04 0 1.49 5.925 2.395 12.927 1.07 6.75 1.42 12.37 4.92 17.244 1.454 2.03 4.2 4.736 5.93 5.058 1.07.23 2.18-.005 2.453-.82.446-1.334 1.59-.72 1.615.49-.003.847-.625 1.727-1.68 2.03-5.14.89-9.84-5.56-11.264-8.83-1.933-4.76-2.76-10.08-3.598-16.7-.355-2.805-2.05-11.74-2.255-11.92zm47.684.24l-.026 2.137-7.293 4.594v-2.08zm-45.444.416l1.67.455s1.39 5.21 2.22 11.648c.84 6.53 2.65 14.11 6.026 18.035.307.374.517.64.65.86.242.534-.046 1.435-.296 1.436-6.02-3.13-7.44-15.71-7.958-19.966-.762-6.58-2.313-12.466-2.313-12.466zm23.4 1.007l5.31.15 1.265 1.247-7.03-.063c-.742-.77-.28-.68.455-1.336zm22.043 1.736v1.774l-7.316 4.635v-1.81zm-21.857.562l7.767.137 2.725 1.62-11.87-.1zm21.858 2.25v2.13l-7.314 4.586v-2zm-24.73.403l13.2.14.03 1.43-14.313-.368zm-1.72 2.45l14.927.036.04 1.58-13.575-.13zm26.453.24v2.22l-7.316 4.53v-2.103zm-23.647 2.327l11.44.055-1.244 1.324-8.63-.09zm23.645.782v2.094l-7.316 4.6V64.3zm-15.035 1.6l-1.387 1.347-5.93-.08.207-1.227zm15.036 1.47v2.243l-7.316 4.47v-1.94zm-22.434.82l4.89.104-.746 1.03-4.28.02zm-44 1.787c.74 5.648 4.838 17.033 4.835 17.03l-1.614.014c.08.11-2.93-7.172-4.013-14.032-.13-.654.317-2.86.796-3.01zm43.68.326l3.766.067-.82 1.454-3.07-.004zm22.754.343v1.962l-7.318 4.5v-1.79zM168.884 68l2.498.077-.59 1.348-1.936-.06zm22.878 1.056v2.095l-7.317 4.54v-2.02zm-67.975.446c.734 4.113 3.854 12.375 4.092 12.917l-1.39.02c-.062.18-3.243-7.41-3.582-10.66-.164-.68.197-2.03.872-2.28zm45.073.873l1.48.068-.25.772-1.2.03zm.13 1.852l.774.02-.184.732h-.48zm22.77.04v1.69l-7.314 4.632v-1.61zm-69.804.183c1.11 3.297 2.22 6.657 3.534 9.872l-1.64-.04c-1.084-2.317-1.847-4.923-2.694-7.48-.234-1.067.263-1.98.8-2.352zm-1.634 2.202l2.726 7.612H121.5c-.636-1.53-1.352-3.243-1.853-4.82-.514-1.634-.466-1.687.676-2.792zm71.44.475v2.007l-7.315 4.53V79.93zm-72.58 2.944l1.494 4.22-1.91-.05c-.56-1.32-.902-2.48-1.043-3.78-.05-.62-.165-1.25.273-1.51.863-.49.765-.084 1.187 1.127zm-2.03 1.73l.795 2.47-1.785-.04c-.524-1.17-.725-2.01-.567-3.23 1.074-1.24 1.153-.59 1.558.805zm74.61-1.45v2.1l-7.315 4.4V82.9zm-77.142 1.51l.747 2.436-1.61-.04c-.267-.57-.097-1.264-.106-1.91zm-2.11 1.248c.025 0 .045.007.055.02.23 1.077.005 1.144.02 1.134l-2.25-.013s1.823-1.16 2.176-1.14zm79.254.63v1.678l-7.317 4.564v-1.71zm-87 2.658l43.967.127 1.47 2.07s-4.28.117-18.29.03c-11.792.15-35.494-.253-35.494-.253l2.307-1.087c3.19-.074 6.09-.903 6.046-.886zm87 .248v1.847l-7.317 4.434v-1.79zM68.04 86.404c-3.536 1.568-6.836 1.954-9.3 1.754-5.31-.43-13.433 1.79-15.066 6.89-.513 1.8-.518 1.85.456 2.77.484.454.952.8 1.042.765.854-.758 1.987-2.164 3.2-2.575 1.596-.482 2.46-.548 5.077-.664 5.63-.25 6.9-.487 8.31-.858 3.08-.817 6.19-3.852 6.38-7.233.02-.388-.11-.847-.11-.847zm-.152.464c-.595 7.054-8.237 7.974-11.593 7.773-6.805-.4-9.486 1.63-10.564 2.89-.35.34-.56.26-.5-.05.79-3.9 7.1-4.05 10.28-4.01 7.79.36 9.76-3.4 9.54-3.43-.59.266-1.03.5-1.625.784-.26.107-.203-.05-.876-.44-.01.05-.78 1.797-1.774.14.025.083-.71 1.47-2.066.174.01.14-.82 1.33-2.148.114-1.247 1.07-1.84.48-2.38-.27-.39.237-1.55 1.8-2.512.118-1.03.655-1.458 1.363-2.342.935-2.06.37-3.85 2.486-4.574 4.426-.224.666-.684.77-.74.04-.244-2.024 3.087-5.53 6.43-6.5 2.6-.752 4.37-1.296 10.087-1.08 3.25.127 7.375-1.6 7.375-1.6zm83.413.534l2.07 1.396-35.87 49.452-3.165-.082zm-57.53.034h4.08v6.74h-3.52l-1.253-1.867c.325.19.7.3 1.105.3 1.207 0 2.187-.98 2.187-2.19s-.98-2.18-2.188-2.18c-1.208 0-2.19.973-2.19 2.18 0 .11.01.21.03.314l-1.312-1.95s.557-.33 1.89-.925c.344-.153 1.173-.43 1.173-.43zm12.57 0h6.91v6.74h-6.91zm15.14 0h7.15v6.783l-7.15-.05zm15.444 0h7.147v6.74h-7.147zm54.74.16l.108 2.104-7.316 4.446v-2.08zm-51.43.698c-1.276 0-2.32 1.03-2.32 2.308 0 1.277 1.04 2.313 2.32 2.313 1.276 0 2.31-1.036 2.31-2.313 0-1.277-1.036-2.308-2.312-2.308zm-30.42.12c-1.28 0-2.313 1.032-2.313 2.31 0 1.276 1.036 2.312 2.313 2.312 1.274 0 2.31-1.036 2.31-2.313 0-1.277-1.037-2.308-2.313-2.308zm15.07.045c-1.277 0-2.313 1.03-2.313 2.3s1.036 2.31 2.31 2.31c1.278 0 2.314-1.037 2.314-2.313s-1.035-2.308-2.312-2.308zm7.787.27c1.07 0 1.94.87 1.94 1.94 0 1.07-.87 1.94-1.94 1.94-1.072 0-1.94-.87-1.94-1.94 0-1.07.868-1.94 1.94-1.94zm-30.66.03c1.073 0 1.94.863 1.94 1.94 0 1.07-.867 1.94-1.94 1.94-1.07 0-1.94-.87-1.94-1.94 0-1.07.87-1.94 1.94-1.94zm45.957.063c.46 0 .88.175 1.2.46l-2.115 2.87c-.522-.31-.872-.88-.872-1.536 0-.99.8-1.794 1.79-1.794zm-30.36.01c1.07 0 1.94.87 1.94 1.94 0 1.07-.87 1.94-1.94 1.94-1.073 0-1.94-.87-1.94-1.94 0-1.07.867-1.94 1.94-1.94zm-23.42.14c.8 0 1.444.647 1.444 1.445 0 .8-.645 1.45-1.444 1.45-.8 0-1.45-.65-1.45-1.45 0-.798.65-1.445 1.45-1.445zm-4.437.08c12.32 15.69 18.87 31.6 21.75 48.936l-2.067-.097c-3.422-18.856-11.13-35.028-21.584-48.08zm50.483.012c.847 0 1.534.682 1.534 1.527s-.688 1.534-1.533 1.534c-.847 0-1.534-.687-1.534-1.53s.687-1.53 1.533-1.53zm-30.42.12c.846 0 1.53.683 1.53 1.528s-.684 1.532-1.53 1.532-1.532-.687-1.532-1.532.69-1.526 1.535-1.526zm15.07.044c.846 0 1.533.682 1.533 1.527s-.686 1.532-1.532 1.532c-.844 0-1.53-.69-1.53-1.534s.686-1.528 1.53-1.528zm38.344 1.095c.81 6.21-.792 10.22-5.528 10.87-6.04.83-6.825 1.283-6.858 7.002-.04 6.776-1.043 8.733-5.844 9.27-5.4.602-6.658 1.242-6.174 7.956.354 4.9-1.577 6.983-5.736 7.893-3.25.71-6.067 1.797-7.273 5.074l-2.97.04c.77-5.16 5.96-7.625 9.285-7.796 3.584-.85 4.333-2.052 3.75-8.335-.433-4.73 1.3-6.17 6.86-7.25 4.443-.877 5.53-2.15 5.29-5.786-.52-7.792-.006-8.964 4.42-9.912 2.257-.533 5.93-.772 7.33-2.496 1.596-1.96 1.19-3.627 1.045-6.035zm28.544.21v2.034l-7.315 4.514v-1.98zM84.226 91.75c-1.565 6.756 3.815 8.224 7.09 9.364 3.807 1.326 4.732 3.248 4.3 9.96-.328 5.076.232 6.198 3.52 7.94 5.028 2.596 6.38 6.284 4.145 11.682-1.38 3.328-.66 4.26.21 7.166l-2.44-.024c-.18.056-2.24-3.623-.48-7.583 2.08-4.693 2.023-7.048-2.62-9.16-3.59-1.633-4.692-3.174-4.915-6.536-.094-1.42-.084-2.12.247-5.2.42-3.88-.965-5.55-6.7-7.68-2.557-.95-4.293-3.16-4.816-6.67-.146-.98-.014-2.12-.014-2.12zm85.783.733l21.815 14.512-.15 3.23-23.143-15.463zm-14.056.32c1.06 0 1.91.856 1.91 1.91 0 1.056-.85 1.91-1.91 1.91-1.05 0-1.91-.854-1.91-1.91 0-1.054.86-1.91 1.91-1.91zm-68.62.834c.958 0 1.73.774 1.73 1.73 0 .96-.772 1.737-1.73 1.737s-1.735-.778-1.736-1.736c0-.957.778-1.73 1.736-1.73zm104.38.204l-.074 1.95-7.18 4.44v-1.94zM77.86 95.2c6.597 8.598 13.08 17.457 18.08 34.15l-2.132.82c-4.128-13.436-10.478-24.598-17.965-33.83zm17.23-.082h49.697l-1.276 1.716-47.48-.484zm96.672 1.615v2.13l-5.504 3.35-1.62-1.057zm-116.82.228l.974 1.28s-1.055.83-2.25 1.69c-3.254 2.33-3.677 2.595-3.893 4.11-.515 3.598 3.184 5.373 6.9 3.29 1.33-.61 4.252-2.46 4.252-2.46l.838 1.238s-4.185 3.132-6.642 3.845c-5.39 1.567-9.41-5.262-5.43-9.32.61-.62 1.9-1.45 2.92-2.112 1.05-.677 2.34-1.55 2.34-1.55zm22.182.85l45.792.27-29.243 39.97-1.3-.07c-2.266-14.95-7.89-28.01-15.25-40.162zM77.157 99.5l2.676 3.74s-1.746 1.67-4.626 3.244c-2.31 1.265-4.81-1.032-3.355-3.102 1.492-2.055 5.304-3.88 5.304-3.88zm114.604.385v1.95l-3.17 1.944-1.45-.93zm-114.94 1.5c-1.27.066-3.37 1.506-4.09 2.748-.31.534-.19.982.09 1.348.438.56.95.53 2.47-.28 3.11-1.654 3.69-2.64 2.32-3.61-.19-.135-.41-.195-.67-.2-.04 0-.07-.002-.11 0zm-.1.8c.2-.02.44.04.63.023.54.22.376.89-.19 1.047-.12-.195-1.052-.22-.99.727-.227.537-.217.496-.902.572-.452-.11-.754.204-.842.402-.47.252-1.05.174-1.16-.11-.102-.278.285-1.075.613-1.073.156.014.436-.222.725-.416-.01-.52.598-.594.775-.592.174.037.757.044 1.04-.43.08-.1.19-.14.31-.15zm115.04.464v3l-2.3-1.47zm-127.05.37c8.34 9.85 14.348 20.33 18.17 34.832l-1.672 1.153c-2.525-10.168-6.415-20.915-17.925-34.885zm97.57.164c3.78 3.206 19.25 17.77 22.2 43.62l-2.07 1.27c-1.662-13.645-7.03-29.287-21.465-43.15zm-7.46.896c1.056 0 1.91.857 1.91 1.91 0 1.056-.854 1.91-1.91 1.91s-1.91-.854-1.91-1.91c0-1.053.856-1.91 1.91-1.91zm-92.43.748s1.75 1.8 1.75 2.23c-.005.85-.68 1.33-4.71 2.8-.68.25-3.653.933-3.653.933l-.11-1.44c1.52-.545 5.595-1.52 5.894-2.39.146-.34-.58-1.2-.427-1.2zm27.785.367c.958 0 1.73.78 1.73 1.738 0 .957-.772 1.735-1.73 1.735s-1.736-.775-1.736-1.732c0-.96.78-1.74 1.736-1.74zm70.193.498c12.607 12.314 19.545 27.53 21.166 43.24-14.68 11.94-24.654 26.952-28.617 45.73-1.956-3.265-3.622-7.02-5.434-10.687 19.59-17.215 23.71-48.217 6.77-69.95zm-77.093 2.347l.88 1.367s-.185.17-2.93 1.872c-4.015 2.49-4.677 4.115-3.336 6.665 1.37 2.606 2.897 2.745 7.21.66 1.52-.74 2.816-1.515 2.816-1.515l.69 1.43s-1.93 1.57-5.65 2.935c-3.494 1.28-6.8-.904-7.42-4.943-.454-2.936.83-4.51 5.93-7.404.572-.304 1.81-1.07 1.81-1.07zm60.063.65c1.056 0 1.91.855 1.91 1.91s-.854 1.91-1.91 1.91c-1.055 0-1.91-.855-1.91-1.91s.855-1.91 1.91-1.91zm-77.9.072l1.155 1.088s-.5.732-3.342 2.442c-2.554 1.538-2.817 1.29-1.545 2.364 2.37 2.003 5.66 6.44 5.644 7.59-.018 1.102-1.007 2.12-2.904 2.973-1.04.466-5.15 1.932-5.75 2.04-1.2.13-1.54.612-.34 1.703 2.04 2.34 3.78 7.345 3.08 8.87-.79 1.72-1.732 2.01-9.284 2.357-.86.04-1.272-.202-.805.9.34.8.694 1.9 1.367 5.295.6 3.028.498 4.39-.68 5.013-.674.36-5.926.23-8.095-.195-2.485-.487-2.755-.52-2.353 1.097.52 2.233.845 8.218-.844 9.373-.702.457-1.46.345-4.543-.694-1.965-.664-3.67-1.42-3.67-1.42l.036-1.86c1.604.66 6 2.56 7.25 1.96 1.482-2.124-.576-9.57-1.363-11.167-.95-1.904.042-2.32 2.23-1.14 1.147.81 11.036 4.71 10.474 1.22-.603-3.31-1.678-7.076-3.764-9.442-1.93-2.186-.97-3.08 1.178-2.122 3.8 1.7 11.65 1.28 11.26-.48-.51-2.86-3.11-6.74-6.67-9.75-.99-.834-1.026-1.193.14-1.4 3.324-.263 12.836-1.24 11.506-3.473-1.14-1.83-2.664-3.85-3.96-4.94-2.13-1.786-4.28-2.56-5.234-2.933l.06-1.37c4.33-.36 6.583-1.663 9.773-3.897zM54.95 110.11c-1.554 16.283-8.366 29.7-22.426 39.057l-.076-1.824c12.36-9.286 18.296-22.48 19.904-35.25zm29.955 1.023c.005 0 .008.003.01.005 0 0 2.26 4.07 2.26 4.44-1.344 1.247-4.87 3.068-6.31 2.64-2.223-.71-2.57-3.08-.436-4.48 1.84-1.343 4.14-2.512 4.45-2.594l.023-.004zm-18.02-.253l1.158 1.036s-.295.45-1.96 1.78c-1.294 1-.842.605.04 1.79.785.94 2.18 2.833 2.18 2.833l-.415 2.515c-1.463-2.086-2.676-3.6-4.85-5.83-1.1-1.137-1.04-1.168.535-1.988 1.18-.653 2.14-1.446 3.317-2.14zm31.567 1.62c.957 0 1.73.775 1.73 1.732 0 .958-.773 1.736-1.73 1.736s-1.737-.775-1.737-1.733c0-.957.78-1.73 1.737-1.73zm-14.024.146c-1.65.436-3.27 1.91-4.18 2.56-.33.24-.07 1.424.248 1.833.41.523 1.16.436 2.06-.064.38-.21 1.06-.55 1.515-.76 1.27-.587 1.8-1.024 1.755-1.513-.203-.658-.722-2.104-1.396-2.056zm.093.75c.465.02.8.62.65.97-.795.43-1.24.07-1.134.67 0 0 .08.94-1.085.96-.287-.124-.78-.1-1.02.14-.815.34-1.526-.374-.64-.78.24-.11.83-.294.993-.66.086-.45.46-.81.87-.56.22.014.706.05.863-.297-.06-.39.217-.42.413-.438.03-.004.06-.006.092-.004zm-33.33-.12c.36 1.83-.743 5.04-1.37 6.85-3.7 4.834-9.06 7.31-14.16 9-1.13.372-2.65.182-2.65.182 7.053-7.256 13.102-12.576 18.182-16.03zM38.3 114.92c.05-.406-1.81-.9-1.985-.644-.343.32-.89 5.365-.533 5.727.496.505 1.864.643 1.994.042.428-1.98.324-3.457.528-5.125zm31.62-.15l1.21 1.5c-2.56 24.296-19.914 45.314-38.44 53.647l-.056-1.61c21.198-11.13 33.954-29.67 37.288-53.533zm83.86.103l2.3 3.16-3.292.102zm-116.09.585c-.02.832-.113 2.558-.433 3.52-.2.752-.78.58-1-.11-.227-.718-.038-2.757.392-3.593.46-.788.82-.656 1.04.183zm17.538.443c1.137 0 7.174 3.717 6.368 5.567-.643 1.475-5.696 1.595-8.012 1.388l.35-1.42s.706.246 3.398-.04c2.827-.19 2.62-1.16-.62-3.21-1.395-.872-1.72-1.087-1.72-1.087zm16.73 1.994c1.872 3.152 3.642 6.705 5.306 10.686-22.824 21.54-21.052 50.87-6.66 70.122l-6.2 8.37c-12.4-11.83-19.15-26.386-21.43-41.843 18.096-13.025 26.6-32.455 28.99-47.335zm84.762.954l1.36 2.604-3.27-.052zm-14.137 1.305c1.056 0 1.91.853 1.91 1.91s-.854 1.904-1.91 1.904-1.91-.85-1.91-1.905c0-1.056.856-1.91 1.91-1.91zm-53.107.512l.65 1.48c.03.183-4.62 1.65-6.115 3.54-1.38 1.74-1.25 3.56-.47 4.812 1.324 1.787 2.264 2.037 4.5 1.352 1.822-.56 3.16-1.316 4.97-2.238l.285.748c.003-.04-2.595 1.525-4.576 2.642-.746.417-1.64.593-2.417.575-4.51-.11-6.9-5.928-3.18-9.364.545-.504 2.387-1.513 3.937-2.313 1.03-.535 2.42-1.24 2.42-1.24zm59.692.915c14.886 21.47 4.695 45-4.917 53.324l-.253-2.525c16.183-18.438 10.554-39.967 3.81-49.537zm9.58.963l1.17 2.652-3.458-.364zm-60.005.87c.958 0 1.736.777 1.736 1.735 0 .957-.78 1.73-1.74 1.73-.956 0-1.73-.773-1.73-1.73 0-.96.774-1.736 1.73-1.736zm48.65.337c13.048 18.957 5.77 49.18-19.12 58.39l-.125-2.12c25.376-10.61 27.87-38.853 17.673-54.79zm-56.56.118l1.648 4.45c-2.07 1.39-2.884 1.628-5.21 2.194-1.83.42-3.26-2.75-1.85-3.96 1.607-1.385 3.336-1.983 5.417-2.68zm-42.32.015c.307-.016-.017.743-.805 2.65-1.736 4.204-1.85 4.293-6.22 4.986-2.276.36-3.97.45-5.588.294-2.44-.233-3.48-.922-1.9-1.254 4.58-1.005 9.645-3.38 12.94-5.676.86-.617 1.36-.99 1.57-1zm82.935.516c1.184 0 2.147.96 2.147 2.146 0 1.183-.962 2.142-2.147 2.142-1.185 0-2.143-.96-2.143-2.143 0-1.185.958-2.148 2.143-2.148zm-64.86.59l-.184 1.65s-2.646 1.4-3.9 1.926c-.96.387-1.023.473-.716 1.36.615 1.77 1.81 3.97 1.81 3.97l-1.107 2.506c-.672-2.253-1.383-4.634-2.624-6.733-1.178-1.643-1.398-1.847.434-2.19 2.366-.797 4.207-1.374 6.285-2.493zm23.637.535c-1.295.057-4 1.146-4.267 2.187-.152.587.016 1.41.514 1.594 1.346.5 4.048-.61 4.76-1.62.223-.317-.115-.96-.353-1.367-.18-.31-.147-.82-.65-.8zm.067.887c.023-.003.045-.003.068 0 .22-.02 1.018.99.122.906-.31-.025-.59.09-.845.35-.03.49-.727.67-1.062.507-.25-.123-.6.13-.635.28-.503.364-1.14.347-1.22.09-.17-.182.34-.926.784-.898.095.003.41-.21.703-.46.14-.51.675-.42 1.013-.397.38.153.73-.344 1.076-.38zm70.098.077l.956 2.66-3.42-.31zm-14.692 3.06c-.708.904-1.36.913-2.392.865.846 1 1.218 2.384.395 3.29-1.25 1.276-3.662-.68-3.483-.858l4.33-5.77c1.15.324 1.787 1.4 1.153 2.474zm-94.058-1.5s5.264 4.533 5.3 6.565c.016.776-.232 1.027-.852 1.23-2.067.688-7.823-1.075-7.823-1.075l.74-1.405c.902.25 5.362 1.404 5.745.836.398-.59-3.725-4.61-3.734-4.616zm26.13 1.894l.63 2.192-2.153-.534zm84.072.393l.562 3.03-3.45-.805zm-65.72.048l.514 1.78c-22.86 10.61-29.536 34.96-17.616 55.057l-1.345 1.852c-15.963-25.87.205-52.12 18.454-58.69zM75.52 132.25l.31 2.7-2.657-.155zm-31.47-.07c.45.005.537.25.535.515-.002.363-2.31 3.31-3.057 3.973-1.62.655-7.88-1.96-8.812-3.982-.185-.59.433-.33 1.82-.05 3.51 1 7.067-.373 9.514-.46zm60.924.033c.954 0 1.732.777 1.732 1.735s-.78 1.736-1.737 1.736c-.96 0-1.737-.78-1.737-1.735s.774-1.73 1.73-1.73zm-72.04 2.138c1.74 1.568 4.3 2.86 6.568 3.31 1.412.31 1.002.46-.307 1.81-1.224 1.28-1.124 1.44-2.37.81-2.08-1.054-4.344-3.452-4.25-4.76.036-.54.13-1.17.362-1.17zm129.893.297l.432 2.88-3.26-1.13zm-90.55 1.038l1.062 2.58-2.89-.083zm73.44 2.463c-.003.36-.088.97-.088.97 1.7-1.08 3.95-.195 3.883 1.552-.094 2.463-1.3 2.486-3.268 2.16 1.077 1.787-.2 3.51-2.228 2.85-1.85-.6-1.49-2.55-.63-3.704-4.357.71-5.52 6.91-.49 8.75-1.01-1.568-1.26-3.438.933-3.75 2.038-.29 2.9 1.252 2.02 3.112 1.916-.666 3.72.43 3.144 2.297-.7 2.252-2.7 2.097-3.88.724.845 2.04-1.12 3.512-2.6 2.72-2.335-1.248-1.18-3.474.384-4.066-6.01-.62-7.41 7.7-2.974 8.885-1.14-.717-1.27-3.99 1.33-3.54 2.55.51 1.944 2.88.31 3.96 1.973-.42 3.823 1.303 2.62 3.05-1.417 2.055-3.37.59-4.097-.81.23 1.88-.968 3.07-2.505 2.37-2.637-1.21-.69-4.238 1.375-4.045-4.185-2.472-9.873 2.713-6.522 7.007-.13-1.95.84-3.55 2.18-3.33 1.18.136 2.213 1.48 1.88 2.536-.307.9-1.334 1.59-2.41 1.81 3.2.353 3.47 2.616 2.146 3.732-2.25 1.89-3.296-.296-3.82-1.574-.456 3.176-4.203 2.096-4.333-.2-.128-2.516 2.775-2.464 3.312-2.323.066-.087-2.247-2.377-4.717-2.703l.016-1.46c9.74-6.102 13.085-16.763 9.996-26.87l.585-.675c1.588 1.212 3.18 3.813 6.117 2.86 0 0-.682-.48-1.02-.815-1.51-1.49-.662-3.243 1.44-3.34 1.363-.063 1.89.99 1.9 1.847zm-66.055-.006l1.01 1.478c-14.762 17.3-12.072 37.09-3.582 50.192l-1.236 1.494c-7.516-9.634-13.65-32.99 3.81-53.16zm12.582 2.39c-.02.385.008.695.008.695s.32-.398.577-.87c1.26-2.11 3.97-.897 3.53 1.524-.21 1.135-2.128 1.58-2.65 1.254.498 1.353 1.84 1.67 3.474 2.256.573.11 1.553.387 1.553.387l.04.917c-8.858 5.58-13.87 15.04-10.625 27.977l-.98 1.32c-1.786-4.296-3.415-4.202-6.353-4.37 0 0 .73.515 1.15 1.01.89 1.054.494 2.89-.74 3.08-2.856.44-2.885-1.58-2.507-2.953 0 0-.51.43-.76.592-1.135.735-2.546-.03-2.68-1.49-.123-1.374.347-2.263 1.76-2.434.476-.056 1.21.064 1.21.064s-.283-.54-.438-.844c-.68-1.33.81-2.464 2.17-2.177 2.153.515 1.984 2.372.737 3.832 3.34.25 5.09-1.93 4.843-4.1-.3-2.64-1.516-4.07-4.143-4.53 0 0 .422.665.603.986.672 1.192-.294 2.655-1.707 2.647-1.45-.01-2.377-1.336-1.82-2.647.136-.32.68-.72.596-.758-.06-.026-.805.205-1.01.237-1.74.27-2.858-1.26-2.13-2.79.52-1.087 2.072-1.378 3.2-.847.18.065.4.316.433.26.033-.053-.114-.41-.16-.66-.358-1.4.315-2.147 1.833-2.05 2.126.137 2.917 1.867 1.49 3.428-.37.403-.935 1-.935 1 .07.306 3.03.53 4.542-1.053 1.75-1.83 2.026-5.654.267-6.9l-.873-.616c.84 1.68-.702 3.612-2.06 3.25-2.72-.655-2.486-2.88-.697-3.585 0 0-1.816-.677-2.338-1.406-.74-1.03-.49-1.98.395-2.71 1.116-.894 2.702-.307 3.47.8.46-1.41 1.11-2.36 3.04-1.593 1.345.646 1.334 2.44-.15 3.42-.475.316-1.32.608-1.32.608s1.274.726 2.826.743c2.994.032 5.363-3.497 4.156-6.194-.245-.546-.857-1.252-.857-1.252s-.068.942-.254 1.304c-.69 1.342-2.28 1.37-3.22.52-.853-.77-.603-1.8.06-2.507.503-.533.956-.638 1.66-.965-.8-.27-1.687-.466-2.074-1.29-.36-.788-.106-1.755.85-2.354 1.724-.9 3.077.625 3 1.813zm-59.374-2.17c1.22.703 2.033 1.765 3.17 2.694.88.712.87.84.143 1.517-1.637 1.576-2.555-.706-3.084-1.64-.65-1.25-.72-2.525-.23-2.57zm130.726.434l.204 3.05-3.4-1.304zm-93.667.18l1.22 2.773-3.15-.017zm65.95.005c2.968 10.963-1.203 18.834-9.12 25l-.876-1.15c6.186-5.257 10.816-11.45 8.77-22.49zm-36.364.047l34.8.64-1.043 1.833-2.71.012-5.377 9.508-25.01-.005zm-50.916 7.93c-1.215 1.917-8.444-2.207-8.35-2.424l.907-.87c1.15.47 4.72 2.44 5.514 2.128.278-1.792-1.83-4.115-2.623-5.66l.883-1.11s4.584 5.935 3.67 7.943zm11.86-6.975l-1.204 2.176c-1.127.344-4.527.405-4.8.63.41 1.115.86 4.39.86 4.39l-1.34 1.713c-.36-2.11-.955-4.77-1.482-6.725-.45-1.658-.326-1.294 3.203-1.567 1.58-.09 3.213-.29 4.757-.62zm7.136 2.623l1.43 2.54-2.9.03zm-34.85.17c.157-.065 1.055.94 1.21 1.23-.067.662-1.09 1.023-1.25.787-.063-.1-.082-1.58.02-1.99.004-.018.01-.027.02-.03zm131.27.034l-.03 3.18-3.45-1.528zm27.37.717l-.05 2.06c-12.5 6.106-31.147 22.5-36.466 51.9l-1.09-1.2c5.317-28.074 23.665-44.673 37.608-52.76zm-125.74 2.836l1.556 2.344-2.808.306zm98.45.9l-.28 2.816-3.394-1.88zm-65.31.586c.014.667.07 1.15.112 1.817-7.703 4.987-10.306 12.835-9.024 22.712l-1.066 1.574c-2.51-8.953.02-19.987 9.98-26.103zm89.314.58c.786.46 3.33 1.21 3.33 1.21l-.027 1.873-5.242-1.88zM37.505 156.4c-1.128.917-3.73-.613-4.91-1.236l-.034-1.58s.904.46 1.81.823c1.866.827 1.87-.158.85-2.918-.36-.97-.715-2.1-.715-2.1l1.226-1.165s2.93 6.61 1.77 8.165zm26.315-5.93l2 2.1-2.797.64zm122.35.252c1.777.003 5.204 1.446 5.204 1.446l-.023 2.078c-1.74-.504-3.76-1.47-5.6-1.742-1.45-.2-1.363.613-1.37 2.665-.01 2.78.686 5.29 2.016 8.07 1.103 2.3.53 2.92-1.27 1.89-3.235-2.22-10.132-3.9-11.194-2.608-1.09 1.33 1.06 7.946 3.546 11.103 1.01 1.284 1.072 1.49.6 1.99-.382.404-1 .43-2.09.082-3.585-1.14-8.775-1.4-10.27-.433-1.483.96 2.38 7.59 5.62 9.73 2.103 1.5 1.698 2.246-1.7 2.322-5.55.025-9.82 1.263-9.582 2.78.402 2.575 3.996 6.106 8.12 7.98 2.526 1.032 1.47 1.442-.208 2.04-2.806.946-5.504 2.463-8.145 3.88l-1.27-1.624s2.658-1.69 5.548-3.314c.677-.38.643-.52-.306-1.315-3.077-2.58-5.336-5.46-5.81-7.4-.457-1.883.484-3.07 3.28-4.135 1.728-.658 2.364-.85 3.89-1.194 2.197-.49 2.234-.56 1.294-2.25-.42-.756-1.11-2.007-1.532-2.777-3.27-5.6-1.545-7.62 6.05-7.736 1.87-.1 2.225-.104 2.12-.747-.402-2.637-1.57-5.666-1.403-7.9.35-3.37 3.814-4.185 9.905-2.665 1.41.354 1.51.28 1.26-.856-1.178-5.132.05-9.76 3.332-9.37zm-22.352.36l-.533 3.268-3.244-2.158zm-121.31.77l8.946.588-1.42 1.668-5.407-.102-.204 4.616-1.73 1.483zm57.98.355h7.366l-.058 7.787h-7.34zm8.777 0h6.856v7.787l-6.795.073zm8.21 0h7.35l-.068 7.787h-7.28zm64.197.62c-.175 2.003.245 5.623.414 7.177-.12.463-.44.397-2.366-.04-1.336-.445-5.036-.577-5.036-.577l1.55-1.642c1.27.15 2.27.138 3.58.302-.016-1.31.04-3.814.04-3.814zm-119.028 1.54l2.055 2.07-2.635.676zm100.46.675l-.82 3.332-2.977-2.676zm28.197 1.77l.015 1.7-2.93-1.316c-.032 1.94 1.683 5.44 1.683 5.44l-1.39.655c-1.208-1.97-2.047-3.74-2.115-5.95.018-.802-.092-2.16.63-2.2 1.49-.033 2.736.47 4.11 1.68zm-129.66 1.684l2.447 1.454-2.71 1.096zm100.53.746l-1.2 3.428-2.61-2.967zM32.58 160.33l6.594 2.237L38 163.813l-5.478-1.73zm92.52.908l.542 12.146-34.843-.286 1.21-1.716 2.26-.02 5.96-10.056zm-63.917.946l2.59 1.827-2.692 1.19zm130.285 1.07l.005 1.99c-8.413 6.214-17.508 16.925-19.056 35.865l-2.27 1.94c1.11-18.5 8.81-31.25 21.32-39.8zm-30.693.074l-1.22 3.084-2.42-2.87zm23.707 4.193l-.81.91c-.23.08-3.438-1.64-5.96-2.04.826 1.635 1.217 2.85 3.045 5.44l-1.178 1.165c-.36-.08-4.93-6.83-3.72-8.355 1.96-1.323 6.72 1.45 8.62 2.89zM170.8 163.9c-.05 1.833 1.433 7.523 1.433 7.523-2.294.113-4.518-.15-6.994.545l1.16-2.08s1.08-.112 2.02-.3c1.95-.387 1.745-.152 1.292-1.848-.425-1.594-.45-1.926-.45-1.926s1.39-1.923 1.53-1.913zm-128.59 1.968c3.01 18.235 10.204 30.756 21.552 42.024l-1.154 1.507c-13.34-12.21-20.623-27.75-22.527-42.36zm18.774.766l2.453 1.34-2.52 1.47zm130.45.054l-.015 2.676-1.54-1.552c.41-.375.92-.75 1.55-1.125zm-32.34.548l-1.674 3.07-2.183-2.908zm32.16 6.945c-.343-.54-3.406-2.44-4.796-3.24-.088-.234 2.153-2.236 2.598-2.374 2.224.31 2.94 4.754 2.2 5.62zM61.02 170.84l2.773 1.353-2.515 1.777zm92.27 0l3.56.335-1.89 2.938zm32.948 1.305c.462.003.98.196 1.63.557 2.507 1.397 3.823 2.927 3.684 4.287-.063.62-.413.75-.82.29-.73-.82-3.197-1.88-5.323-2.3-1.61-.316-1.76-.454-1.28-1.2.73-1.13 1.33-1.647 2.1-1.642zm-42.887 1.29c3.86 14.598 10.64 25.833 19.15 35.08l-1.764 1.503c-6.46-7.412-13.57-16.088-19.37-34.843zm7.7.78l3.56.538-2.08 2.66zm-50.23.155c.414.014-1.225 6.23-6.884 6.658-3.583.594-3.985 1.197-4.04 6.773-.072 7.56-1.292 9.33-7.47 9.8-4.092.31-4.63 1.14-3.94 7.017.66 5.59-1.453 8.44-6.665 8.437-4.514.374-6.38 2.48-6.375 6.66 0 1.694.03 2.104.03 2.104l-2.92.23s.006-2.753.226-4.09c.89-5.413 3.21-7.58 8.093-7.556 3.773-.286 4.36-.9 4.23-6.622-.146-5.82-.224-5.78 1.295-7.305.978-.984 2.095-1.425 4.078-1.61 6.176-.584 6.664-.996 6.648-7.328-.57-5.26.884-8.483 4.226-8.748 6.76-.535 6.6-4.206 6.3-4.358l3.144-.05c.008-.003.013-.005.02-.005zm13.83 0c3.966 21.39 16.513 41.42 23.4 48.812l-1.343.713c-10.04-12.466-19.16-26.78-23.672-49.49zm-7.162.01l3.138.034-36.14 50.856-1.905-1.435zm4.385.034c3.395 12.328 6.066 24.384 16.74 40.51l-45.286-.295zm12.504.048c.264-.122 1.328 6.238-.26 9.175-1.424 3.974-.73 6.212 2.374 7.66 5.327 2.487 6.67 4.97 5.994 11.075-.472 4.275.82 6.34 4.835 7.714 4.787 1.638 6.88 4.213 6.856 8.432-.002.648-.25 1.387-.25 1.387l-2.67 1.57s.03-.573.138-1.26c.697-4.677-.19-5.945-5.71-8.15-5.216-2.084-6.51-4.492-5.62-10.498.29-1.96-.11-3.94-.922-5.43-1.363-2.43-4.38-2.407-6.55-4.626-1.79-1.9-1.99-4.55-.463-9.1.945-2.82 1.087-3.88.352-6.23-.485-1.542-.674-1.68-.674-1.68zm-62.897.68l3.073.848-2.313 2.4zm122.01.636c1.055-.03 3.094.34 4.763 1.172 3.83 1.908 4.526 3.47 1.17 2.628-1.894-.476-4.615-.368-7.24.28-2.775.687-2.716.718-1.76-.96 1.21-2.122 1.525-3.078 3.067-3.12zm-6.95 2.253l-.7 1.2c-1.52-.25-3.122-1-5.44-.812.95 1.82 2.077 2.763 3.59 4.367l-.564 1.2c-.135.16-4.416-3.41-5.274-5.81-.387-1.08-.035-1.553 1.523-1.592 2.322-.035 4.663.63 6.864 1.455zm-57.206-1.18c1.15 0 2.077.93 2.077 2.08s-.93 2.08-2.075 2.08c-1.147 0-2.075-.93-2.076-2.08 0-1.143.93-2.07 2.076-2.07zm29.248.57l3.508.63-2.336 2.62zm-65.566.027c.83-.066 2.11 1.54 2.108 1.544l-4.25 5.87c-2.022-.406-1.59-3.47.263-3.562.43.004 1.21.077 1.21.077s-.57-.31-.9-.746c-1.24-1.5-.065-3.05 1.57-3.18zm79.314-.525s3.384 6.69 3.17 6.947c-2.098.925-4.388 1.403-6.69 2.243l.44-1.946s.768-.054 3.344-1.036c1.233-.47-1.347-3.9-1.347-3.9zm-23.402 1.977c4.937.04 5 6.1 4.054 8.103-.686 1.375-1.732 2.137-4.89 3.564-2.74 1.237-3.046 1.154-3.046 1.154l-.656-1.46s1.595-.7 3.312-1.394c3.55-1.433 4.412-2.53 4.023-5.096-.55-3.635-3.36-4.2-8.79-1.765-.63.285-1.426.57-1.426.57l-.374-.732c.09-.07 4.35-2.305 6.74-2.86.376-.053.725-.08 1.055-.077zm-76.347.66l2.79.92-2.034 2.004zm124.41.78c2.47-.006 4.5.41 4.496 1.29-.003.42-.1.455-2.315.76-3.37.47-8.996 3.344-12.163 6.013-1.875 1.58-1.39 1.21-.6-1.08.786-2.28 1.96-5 2.595-5.414 1.588-1.04 5.195-1.56 7.99-1.57zm-40.355.316l2.376.52-1.546 1.498zm-7.962 1.29c.85-.012 1.27.39 1.607 1.203.72 1.76.01 2.79-2.747 3.97-1.246.56-2.36 1.344-3.727 1.594l-1.73-4.643s.545-.2 2.346-.945c2.05-.847 3.4-1.164 4.25-1.177zm-8.03.563c5.498 15.542 12.224 25.64 19.34 34.01l-1.722 1.073c-7.557-8.94-14.513-19.42-19.524-34.843zm7.625.55c-.666.02-1.664.422-2.996.936-1.936.747-2.103 1.65-1.235 2.77.38.485.77.377 2.634-.36 1.9-.754 2.72-1.09 2.836-1.766.166-.987-.38-1.605-1.237-1.58zm53.425.213c-.007.65-9.89 10.02-15.54 14.788-2.576 2.174-2.487 2.157-2.707 1.89-.14-1.615.956-7.38 1.62-8.384 3.775-3.998 9.598-7.25 15.265-8.47.89-.18 1.445-.16 1.36.177zm-53.25.31c.352.01.66.32.66.714-.005.3-.44.594-.895.59-.16 0-.552.09-.8.346-.244.35-.402.69-.843.61-.256-.05-.73-.067-.915.095-.87.757-1.73.13-1.33-.63.1-.19.45-.29.735-.285.248 0 .81-.055.893-.36.097-.36.65-.462 1.037-.45.42.057.76-.154.868-.33.16-.14.34-.28.517-.295.024 0 .05-.006.073-.005zm-74.736.166l3.147.427-1.98 2.54zm30.04-.043c1.147 0 2.08.93 2.08 2.077s-.933 2.08-2.08 2.08-2.075-.933-2.075-2.08c0-1.146.926-2.075 2.073-2.075zm32.775 1.646c1.144 0 2.073.925 2.073 2.072 0 1.148-.93 2.076-2.075 2.076-1.15 0-2.076-.93-2.076-2.075s.93-2.074 2.076-2.074zm-61.41 2.342l3.413.22-1.954 2.612zm18.02.5c1.15 0 2.077.93 2.077 2.075 0 1.146-.93 2.075-2.076 2.075s-2.074-.93-2.074-2.075.928-2.075 2.075-2.075zm85.28 1.295c1.425-.024 3.076.12 3.076.12l-.4 1.597c-1.736.165-3.966-.317-5.83.462.693 1.13 4.746 2.73 5.194 3.13.04.166-.335 1.69-.335 1.69.108.39-6.86-2.83-7.09-5.54.006-.92 3.01-1.424 5.38-1.46zm-23.956 1.657c3.958.037 5.912 5.563 4.373 8.01-.61 1.106-1.984 2.418-3.797 3.574-.87.556-3.18 1.688-3.18 1.688l-1.04-1.602s.92-.37 1.79-.843c2.18-1.23 6.605-3.856 4.466-7.43-1.2-1.933-3-2.312-6.73-.417-2.787 1.414-3.42 1.546-3.42 1.546l-.707-1.28c.183.104 5.56-3.13 8.24-3.246zm-77.28.577l3.11.006-1.33 2.802zm90.032-.37c1.89 3.656 5.122 6.42 6.005 7.08 0 0-3.22 2.07-5.143 3.388l-1.13-1.33 2.764-2.37-3.112-4.34zm30.324.88c-.35 1.807-.407 3.72-.555 5.83.68.626 1.293.937 1.83.9.6-1.9 1.033-4.052.746-6.27-.57-.444-1.315-.395-2.02-.46zm1.56 1.37c-.013 1.19.152 2.68-.357 3.83-.29.654-.95.408-.975-.48-.03-1.203.212-2.21.282-3.31.04-.62.31-.995.682-.85.387.186.355.463.364.81zm-44.877.82c2.04.156 2.827 1.86 2.075 3.087-1.845 2.356-3.73 2.783-6.15 4.146l-2.414-4.51s4.7-2.652 6.487-2.715zm-.056 1.01c-1.35.16-2.204.818-3.338 1.375-1.39.68-1.842 1.732-.9 2.686 1.04 1.158 4.67-1.603 5.27-2.27.367-.573.306-1.095-.212-1.51-.224-.176-.502-.28-.82-.28zm-74.437.19l3.04.036-1.64 2.323zm74.716.478c.516.367.47 1.025-.258 1.212-.37.093-1.007.095-1.02.587-.01.368-.57.506-.89.454-.328-.057-.88-.085-.988.325-.28.556-.49.566-.88.176-.42-.422-.225-.96.596-1.05.35-.037.654-.292.78-.56-.02-.35.225-.55.61-.47.546-.007.903-.21 1.29-.717.273-.13.57-.09.757.04zm-17.79.06c1.148 0 2.076.928 2.076 2.075 0 1.15-.93 2.08-2.076 2.08s-2.074-.93-2.074-2.08c0-1.143.926-2.072 2.073-2.072zm-44.323 3.818c1.147 0 2.08.934 2.08 2.08 0 1.147-.933 2.076-2.08 2.076s-2.075-.93-2.075-2.075c0-1.146.926-2.08 2.073-2.08zm-49.667 1.84l23.772 16.26-1.624 2.37-22.08-15.018zm119.36.53c1.547 0 2.74.89 3.893 2.685 2.29 3.565 1.14 6.375-3.603 9.247-2.205 1.333-2.22 1.346-2.22 1.346l-1.12-1.383s1.604-.944 2.268-1.362c3.9-2.463 4.997-4.643 3.283-7.1-1.65-2.363-3.384-2.174-8.2.89-.973.62-2.14 1.105-2.14 1.105l-1.055-1.435s2.726-1.4 3.655-1.99c2.134-1.364 3.877-2.005 5.242-2.004zm17.722-.614l.015 1.563c.055.07-3.23 1.513-5.153 2.39-.624.34-.38 1-.343 1.68l-.924.625s-1.28-.935-1.447-1.534c-.47-1.892 5.554-4.157 7.855-4.73zm-34.323 1.68c1.142 0 2.08.928 2.08 2.075 0 1.15-.938 2.08-2.08 2.08-1.15 0-2.08-.93-2.08-2.08 0-1.143.93-2.072 2.075-2.072zM71.01 204c1.147 0 2.075.927 2.075 2.074 0 1.146-.928 2.075-2.075 2.075-1.147 0-2.075-.93-2.075-2.08s.928-2.08 2.075-2.08zm80.92 1.656c.786-.027 1.378.487 1.7 1.27.826 2.01-.297 3.496-4.36 5.77-.34.193-1.06.583-1.06.583l-2.992-4.13s1.053-.73 2.046-1.32c2.225-1.46 3.65-2.14 4.665-2.177zm-.4.99c-.19.006-.41.08-.668.228-1.043.6-2.785 1.252-3.608 2.34-.48.666-.262 1.33.65 2.182.773.51 4.76-2.425 4.86-3.278-.34-.902-.66-1.49-1.233-1.474zm-118.706.223l.665.442-.668.525zm119.34.72c.295.36.118.965-.507 1.072-.317.054-.78.14-.93.606-.13.304-.56.566-.98.555-.49-.113-.75.183-.776.4-.24.41-.83.476-1.2.09-.28-.302.23-1.168.56-1.156.06.03.43.11.87-.483.09-.432.598-.697.96-.68.37.125.59-.285.74-.512.34-.18 1.03-.18 1.267.102zm-117.76.31l.956.647-2.536 1.8v-1.45zm1.853 1.214l1.3.868-4.735 3.39v-1.837zm2.423 1.547l1.372.91-7.23 4.88v-1.88zm2.604 1.32v1.57l-8.462 5.91v-1.59zm.955 1.13l1.82 1.248.455 53.24-11.4 7.83.01-2.33 9.57-6.92zm137.51 1.44c-2.555 2.92-5.984 3.116-8.975 3.037-8.057.112-13.06.54-14.095 10.15 3.286-2.454 6.767-2.77 10.797-2.655 5.107-.006 7.4-.34 9.477-1.376 3.334-1.665 5.44-4.64 5.04-6.73-.396-.45-1.43-2.316-2.235-2.427zm-138.47.467v1.842l-8.46 5.665v-1.874zm96.613.17c1.146 0 2.08.93 2.08 2.075 0 1.148-.934 2.076-2.08 2.076s-2.076-.928-2.076-2.075c0-1.146.93-2.074 2.077-2.074zm-55.234.212c14.95.462 46.7.283 46.7.283l1.693 2.44-49.92-.524zm97.01 1.6c-1.788 1.75-3.64 2.61-9.52 2.504-6.214-.11-8.635.87-10.24 3.637-.47.805-.46 1.118.216.51.567-.675 1.858-1.975 2.392-.744 1.05-.69 1.964-1.744 2.52-.415.3-.067 2.09-1.86 2.52-.272.85-.955 1.584-1.255 1.99.102 1.21-.576 1.86-1.668 2.55-.16.98-.7 1.72-1.577 2.292-.242.836-.243 1.686-1.776 2.17-.555.088.03 3.11-1.79 3.965-3.586.7-1.585 1.34-.533.545 1.086-2.047 3.966-5.55 5.413-13.586 5.426-4.88.005-6.897.483-8.43 1.377-2.46 1.436-1.135-2.176.59-4.37 2.173-2.76 4.65-3.576 11.44-3.33 3.71.023 6.08-.49 7.08-1.3.85-.685 1.465-1.15 1.923-1.18.457-.03.52.585-.426 1.51zm-109.84-.67c1.15 0 2.08.93 2.08 2.08 0 1.143-.93 2.07-2.08 2.07s-2.075-.927-2.075-2.074c0-1.15.93-2.08 2.075-2.08zm-28.54 1.537v1.87l-8.463 5.775V223.6zm40.907.896h6.565v6.93h-6.566zm14.71 0h7.066v6.93h-7.067zm15.726.223h6.815v6.703h-6.82zm14.77.133l4.535.154s2.52 3.204 3.58 4.682l-3.357 1.723-4.765.01zm-42.05.47c-1.278 0-2.314 1.03-2.314 2.307 0 1.28 1.035 2.315 2.312 2.315 1.272 0 2.31-1.036 2.31-2.313 0-1.274-1.038-2.306-2.314-2.306zm15.094.227c-1.277 0-2.312 1.034-2.312 2.31 0 1.277 1.035 2.313 2.312 2.313 1.278 0 2.313-1.034 2.313-2.31s-1.03-2.308-2.31-2.308zm15.44.06c-1.278 0-2.314 1.034-2.314 2.31 0 1.277 1.037 2.313 2.314 2.313 1.277 0 2.313-1.034 2.313-2.31s-1.032-2.308-2.31-2.308zm-36.848.47c.455.326.755.85.755 1.455 0 .99-.804 1.794-1.794 1.794-.35 0-.675-.1-.95-.27zm6.312.025c.84 0 1.53.682 1.53 1.527 0 .847-.69 1.535-1.53 1.535-.85 0-1.536-.69-1.536-1.534s.687-1.525 1.532-1.525zm45.9.063c-1.278 0-2.314 1.03-2.314 2.306s1.03 2.314 2.31 2.314 2.31-1.037 2.31-2.314c0-1.276-1.036-2.307-2.31-2.307zm-38.41.066c1.022 0 1.854.833 1.854 1.858 0 1.027-.832 1.86-1.857 1.86-1.03 0-1.855-.833-1.855-1.858 0-1.024.826-1.856 1.852-1.856zm30.59-.072c1.023 0 1.855.834 1.855 1.86 0 1.025-.832 1.856-1.857 1.856s-1.85-.83-1.85-1.86c0-1.024.828-1.856 1.854-1.856zm-82.15.2v1.863l-8.46 5.91v-1.83zm59.16-.03c.847 0 1.534.684 1.534 1.53s-.687 1.532-1.533 1.532c-.844 0-1.53-.687-1.53-1.532s.69-1.524 1.533-1.524zm15.44.06c.845 0 1.53.684 1.53 1.53s-.685 1.532-1.53 1.532c-.846 0-1.532-.687-1.532-1.532s.69-1.524 1.536-1.524zm-7.74.194c1.025 0 1.857.832 1.857 1.857s-.835 1.86-1.86 1.86c-1.026 0-1.858-.835-1.858-1.86s.833-1.857 1.86-1.857zm23.11.364c.846 0 1.533.68 1.533 1.526 0 .845-.687 1.532-1.532 1.532s-1.53-.688-1.53-1.533.685-1.526 1.53-1.526zm-65.806 1.604c3.94-.047 8.204 1.955 10.61 5.275 3.638 4.864 6.07 11.07 7.175 19.214.546 4.035 2.427 16.146 3.495 19.01l-1.47-.28c-.198.09-2.084-7.62-3.272-17.807-.44-3.773-1.243-8.642-3.433-13.087-2.5-5.074-6.744-10.452-12.41-10.88-3.303-.25-6.405 1.82-6.74 4.738-.474 2.303.877 4.45 2.65 5.168 1.74.708 3.82.18 4.052-2.19.04-.39 0-.782-.15-1.144.806-.13 1.42.23 1.746.91.17.02.007 3.44-2.682 4.112-3.244 1.062-6.987-2.15-7.278-5.42-.222-2.757 1.876-6.162 4.52-7.085 1.003-.35 2.08-.52 3.185-.533zm-24.16 1.062v1.9l-8.463 5.838v-1.915zm24.344 1.207c4.73-.133 9.34 5.143 11.29 8.62 2.04 3.625 3.65 9.385 4.207 14.806.946 9.22 2.713 16.76 3.085 17.1l-1.29-.28c-.27.18-2.05-8.14-3.133-17.408-.61-5.196-2.537-10.348-4.83-14.318-2.118-3.663-4.97-6.4-8.35-6.797-2.118-.214-4.296.4-4.72 2.627-.23 1.31.455 2.595 2.01 2.707.365.022.715.052.78.064.82.146-.47 1.48-1.32 1.36-3.035-.422-4.434-4.476-2.043-6.632 1.4-1.26 2.862-1.81 4.31-1.85zm10.13 1.355l53.15.537s.047.95-3.26.795c-2.813-.134-4.628.26-6.493.857L77.4 228.54zm-34.48.614v1.764l-8.46 5.92v-1.95zm24.7.746c1.02-.015 2.068.25 2.85.702 6.58 3.81 9.098 13.276 9.96 19.233 1.187 8.825 2.55 17.02 2.93 17.224l-1.432-.325c-.192.007-1.762-7.643-2.74-16.214-.79-6.93-3.16-13.89-7.86-16.816-3.016-2.05-3.608-2.26-5.004-1.06-1.203 1.034-2.43-.522-1.42-1.79.697-.65 1.7-.94 2.72-.954zm-24.7 2.39v1.45l-8.46 5.89v-1.717zm38.69.04c.108-.1 4.57 7.477 5.983 19.422.743 6.29 2.87 17.013 3.21 17.1l-1.547-.165c-1.58-6.327-2.457-12.314-3.3-17.71-.957-6.106-1.725-11.53-5.528-18.606l1.178-.04c0-.004.004-.007.006-.01zm1.013.06l1.38.02c2.366 4.5 4.88 11.49 5.748 18.5.75 6.05 1.51 12.21 3.677 18.62l-1.484-.41c-1.86-5.204-2.52-11.49-3.52-18.01-1.11-7.202-2.843-13.474-5.8-18.72zm8.53.01c2.417 6.26 3.99 9.25 5.095 16.956.858 5.982 2.07 13.463 4.825 21.387l-1.4-.06c-2.045-5.47-3.608-12.797-4.324-19.834-.975-9.56-5.267-18.48-5.307-18.425zm-2.382.024c.13-.192 4.61 8.77 5.65 18.62.69 6.556 2.225 13.04 4.33 19.304l-1.43-.033c-1.65-1.91-2.89-10.96-4.252-19.41-1.39-8.622-3.35-13.93-5.527-18.462h1.226c0-.01.003-.013.005-.016zm-3.61.01l1.27.007c3.323 7.26 4.703 11.58 5.727 18.603 1.294 8.883 2.537 16.894 3.913 18.98l-1.553-.102c-2.14-6.4-3.104-12.793-3.864-19.194-.825-6.93-2.818-12.867-5.496-18.288zm7.01.06l1.51.025c2.6 5.265 4.76 11.67 5.52 18.992.42 3.97 1.15 10.064 4.13 19.466l-1.204-.078c-2.44-6.308-3.91-13.73-4.784-20.2-.882-6.53-2.44-11.917-5.17-18.21zm9.29.045c1.426 3.65 2.6 7.277 3.37 11.01l-.852 1.663c-1.337-4.926-2.843-8.762-4.34-12.65zm-6.88.004l1.84.04c3.155 7.327 4.777 15.074 5.22 17.674 0 0 .438 2.3.466 3.055-.104 6.402 1.004 10.97 3.387 17.853l-1.09-.08c-2.77-8-3.513-13.684-4.22-19.114-.585-6.826-2.806-13.86-5.6-19.434zm4.244.055c1.88 4.696 3.313 9.224 4.62 13.756-.06 1.03-.16 2.156-.83 2.988-1.535-5.54-2.83-11.3-5.2-16.73zm3.47.04l1.454.023 2.9 8.307-1.134 1.258c-.85-2.75-1.723-5.774-3.22-9.587zm8.49.057l1.06 2.496-1.142.97s-1.17-2.336-1.475-3.437zm2.16 0l.53 1.44-.96.73-.746-2.143zm-8.33.03l1.495.01c.604 1.742 2.215 6.015 2.215 6.015l-1.073 1.13s-2.03-5.4-2.637-7.155zm2.32 0l1.33.012c.4 1.133 1.642 4.27 1.642 4.27l-.918.87zm6.95.056l1.312.064-.156.325-.82.407zm-43.098 1.85c5.503 2.9 7.02 11.59 7.617 16.37 1.04 8.335 2.21 15.12 2.46 15.3L78 264.014s-.904-4.282-1.528-8.36c-.52-3.39-.92-6.23-1.06-7.53-.09-.81-.226-1.756-.303-2.097-.77-3.427-1.016-4.21-2.008-6.296-.95-2-1.286-2.5-2.87-4.285-.606-.686-1.2-1.187-1.405-1.626-.295-.628.32-1.286.32-1.286zm-27.86.445v1.636l-8.46 5.976v-1.873zm0 2.873v1.886l-8.463 5.58v-1.673zm0 3.215v1.75l-8.463 5.896v-1.808zm14.13 1.77h.744l.05 1.226-1.15-.073zm-14.13 1.51v1.87l-8.463 5.586v-1.745zm13.255.71l1.79.02-.02 1.287-2.3-.077zm-1.04 2.06l2.94.057v1.222l-3.642-.06zm-12.217.27v1.963l-8.462 5.627v-1.977zM52 247.44l4.3.048-.023 1.023-5.134-.03zm-10.72 1.14v1.92l-8.462 5.415v-1.727zm8.926.91l5.905.083-.142.99-6.736-.03zm-8.927 2.09v1.848l-8.467 5.508v-1.775zm6.71 0l7.77.18 1.64 1.488-12.1.073zm-2.35 2.725l13.36.164.93.86-14.34.05zm-4.36.42v1.96l-8.467 5.54v-1.787zm4.37 1.723l14.81.066-1.076 1.187-13.754.04zm-4.375 1.482v1.794l-8.463 5.74v-2.06zm4.004.936l12.8.044-1.505 1.18-8.845.2zm-4.007 2.216v1.71l-8.46 6.064v-1.92zm7.75.22l7.515.035.14 1.01-6.464-.015zm2.08 2.08l5.77.06.27 1.304-5.133-.068zm-9.83.913v1.59l-8.46 5.905v-1.76zm15.997 1.303l.068 1.24-3.442.132-.97-1.3zm-.03 2.2l-.03 1.306-2.4.037-.536-1.25zm-2.132 2.324l1.89.016-.16 1.003-1.463.02zm.567 2.41h.92l-.154.787h-.47zm18.72 13.275l-.44.567h13.23l.145-.567zm17.053 0l-.232.766h5.97l.166-.765zm9.75.15l-.183.722h15.26l-.253-.728zm18.256 0l.31.877h5.133l-.34-.877zm17.712 0l-9.01.005.324.98h9.32z"/></svg>