<svg xmlns="http://www.w3.org/2000/svg" width="224.225" height="312.808"><title>Vectorized Playing Cards 1.0</title><path d="M81.73 261.567l53.415 1.14c4.73 6.494 14.23 19.737 14.23 19.737l-86.3 1.135zm-22.353 4.52c2.308-4.626 2.754-9.086 2.315-15.512-.347-4.932 2.758-8.773 5.96-7.3 2.477 1.137 1.334 5.803-1.227 4.815-.98-.377-1.84-.034-1.71 2.182.23 5.462 1.694 11.614.435 16.85-.877 5.088-7.916 2.744-5.773-1.034zm-21.626-7.134c-2.71-4.055 2.16-7.854 5.21-5.983 1.45.673 1.24 2.137-.58 1.357-2.542-1.09-5.28 2.764-3.07 4.312 1.02.71 1.41.61.63-.28-2.06-2.39 3.22-3.44 3.06-1.87-.36 1.91-.4 2.72-.58 3.092-1.07 1.67-3.14.82-4.662-.638zm7.59-17.05c-2.933-3.644.43-6.51.39-6.405.873-.94-6.997-15.52-6.003-15.615 9.94-1.05 19.985-.258 29.945.05.003.002-5.31 9.494-7.43 14.19-.852 1.894 1.14 4.122.317 5.528-2.565 2.79-.97 5.88-2.57 6.01-4.485-.57-8.917-1.31-13.89-.32-.366 0-.404-2.08-.757-3.43zm43.028-101.31c5.025 25.428-2.384 52.38-19.37 70.163-2.4-2.29-4.237-6.636-6.63-9.47-6.637-1.983-11.413.35-16.07 2.633-4.133-2.37-8.792-3.77-13.332-3.71l-.146-3.93c4.594-.1 9.447.32 13.54 2.84l6.4-2.587L32.8 175.95l.27-3.517 24.22 24.292 3.12.11c-6.856-18.115-.86-46.886 27.96-56.25zm33.773 31.895l3.5 16.605s-18.512 19.823-29.96 29.233l-8.623-.78s11.783-20.83 9.62-19.24zm69.596 22.774c-8.22 9.15-18.045 14.97-28.955 21.382-4.362-4.844-9.655-10.17-12.712-14.947 9.52-5.056 18.59-8.973 27.91-17.823-.51.572-11.887 4.41-11.85 3.97-.41 1.888-.164 3.053-2.015 3.55-2.19-3.044-4.31-5.513-7.766-6.874-1.45.13-3.373-.822-3.373-.822.97-.197.543-11.875.004-12.01 0 0 .283-.346 2.814-.295 4.525-.31 7.447-5.745 10.25-7.607 8.768-.717 16.53.14 25.168-.09-.068 10.394.534 21.17.53 31.566zm-55.662-26.326c-.22-.44-2.432-17.664-.33-28.465.387-2.53 4.4-3.39 5.17-5.28 1.28-4.1-.64-9.16.37-13.76 1.033-4.68 3.256-7.31 5.2-10.79 2.11-3.77 5.128-8.47 8.473-11.28.98-.95 4.41 2.12 6.972 7.44 7.445 4.67 16.99-1.35 16.99-1.35s3.703 3.01 12.08 4.65l-.143 3.238c-.042.94-9.422-1-11.44-2.88 0 0-7 2.33-6.998 2.756 0 1.813 18.472 18.84 18.472 18.84l.106 4.2c-2.77-3.836-24.437-22.272-24.437-22.272 4.805 28.05-6.67 45.518-30.483 54.965zm-30.996-5.49l-.416-16.518 15.79.187.65 16.69zM32.83 145.59c.423-.585-.613-30.786-.548-30.786C42.33 104.86 52.157 99.3 62.01 93.254c4.454 4.39 8.24 8.095 11.522 13.414l-13.592 8.33c.516 2.03-.825 2.762 7.938 10.667.147-.542 3.034-2.15 3.538.256-1.186 5.09.527 9.4.753 12.14-1.2 1.6-3.88-.116-3.88-.116-1.73-1.796-8.516 7.068-10.45 8.06-8.45-.315-25.49.255-25.018-.404zm95.104-53.852c.11-.107 8.593.065 8.48.368-1.546 4.123-5.382 11.442-8.892 19.886-4.046 7.197-9.657 11.437-14.448 16.153-3.83 3.77-7.244 9.713-9.86 8.17-1.598-5.107-1.967-9.637-3.728-15.297-.807-3.353 4.09-5.538 28.448-29.28zm37.118-28.317c3.108 1.32 11.837.63 13.222.04 1.776 1.2.667 2.8.443 3.69 1.822 2.298 2.82 3.11.75 6.814-.472 0 6.363 15.32 6.546 15.33 0 0-7.223-3.413-9.77-5.717l-4.983 6.595-5.788-7.446c-.02.673-11.154 8.026-11.29 7.67-.348-.35 10.168-11.62 8.08-18.235-.5-1.592.65-3.212 1.436-4.62.54-.96-.186-2.825 1.354-4.11zm-5.778-1.37c.47-.54-2.7-14.39.738-19.98 1.456-2.03 4.09-2.13 5.19-.47.84 2.318-1.665 5.54-2.168 7.11-1.63 4.39.79 10.17-.39 14.316-3.54 9.05-9.806-.89-3.37-.97zm23.553-6.15c-1.865.08-.563-5.46-.255-7.05-.008-.314 3.413-1.11 4.646 1.073 1.99 3.26-.402 7.375-4.39 5.984zm-22.24-27.97L143.02 49.2c-17.764-2.036-35.59-3.33-53.753-.56L74.66 28.343z" fill="#e2cf00"/><path d="M192.466 26.366l-162.533.503 1.784 258.01 162.163-.96zm-37.395 1.58c1.79 0 3.57.005 5.35.01L140.96 51.79l-.48.16c1.3 3.78 3.15 8.495 4.917 12.075 2.816 5.788 9.89 16.423 5.476 24.93-.432.73-.835 1.085-1.376 1.082-.75-.003-.736-.442-.29-1.295.984-1.88 1.65-6.335 1.258-8.693-.25-1.51-1.09-3.83-2.686-7.33-7.4-13.6-9.71-20.85-9.29-20.85-.1-.06-.26-.15-.53-.21l-.73-.24c2.562 8.592 6.726 15.82 10.022 22.51 2.702 6.217 2.992 8.63 1.58 13.156-.55 1.753-1.538 2.876-2.51 2.87-.73 0-.69-.15-.19-1.038 2.59-4.63 1.99-9.685-1.23-15.565-4.677-9.71-7.483-15.854-9.15-22.084-.04 0-.853-.273-1.145-.343 1.387 6.484 5.263 13.963 8.87 21.615 2.983 5.892 3.842 10.187 2.767 13.58-.353 1.47-1.478 3.66-2.9 3.724-.556-.004-.643-.293-.118-1.05 2.21-3.774 2.6-7.255-1.354-15.18-3.637-7.285-7.285-15.44-8.53-22.562-.08-.584-1.66-1.277-1.32-.308 1.95 8.412 5.84 17.027 9.97 25.427 2.323 5.213 2.563 8.55.82 11.467-.976 1.63-1.225 2.006-1.956 2.02-.862.02-.85.05-.37-.94 2.11-4.385 1.763-8.25-1.056-14.586-3.866-8.69-7.122-15.88-8.513-23.53-.25-.07-1.56-.576-1.37-.193 1.93 7.286 4.406 14.048 7.595 20.887 1.11 2.37 2.91 6.986 3.49 9.3 1.102 4.4-1.383 10.445-4.636 10.75-1.215.114-1.06-.49.29-1.74 2.323-2.16 2.774-5.6 1.985-9.59-.59-3.074-1.612-6.37-3.016-9.723-2.84-6.778-5.928-13.87-6.905-20.125.032-.56-1.268-.564-.9.022.7 4.4 2.377 9.41 4.212 14.06 2.01 5.09 5 10.794 5.977 17.04.8 5.11-2.4 9.937-6.28 10.225-4.677.345-5.598-4.268-4.473-6.43 1.835-3.23 7.164-1.385 5.58 1.916-.91 1.9-3.696 1.403-3.578-.68-.034-.19.265-.76.212-.794-.097-.056-.505.317-.636.55-.947 1.69 1.895 3.952 3.87 2.596 6.62-3.574 2.15-14.476-.736-21.137-2.795-6.207-4.844-11.814-5.73-17.557-.244-.17-1.337-.445-1.184-.248.8 3.065 1.17 5.65 1.967 8.227 1.25 4.04 3.495 8.56 5.325 13.09 1.664 4.46 3.333 8.245 2.573 12.893-.07.43-.247.946-.54 1.26-.3.31-.544.262-.632-.92-.03-.16-.24-.375-.27-.58.163-1.746.044-3.477-.41-5.12-.385-1.375-1.122-2.78-2.68-5.45-.612-.997-2.22-4.04-1.655-1.937.324 1.19 1.427 3.833 2.573 5.746.712 1.187 1.46 4.43 1.24 5.06-.235.61-.778.645-1.03.434-.23-.19-.227-1.058-.286-1.594-.24-2.204-2.503-6.05-4.07-7.56-1.13-1.253 2.653 5.334 2.93 7.09.12.744.35 1.348.095 1.713-.167.24-.507.24-.84.155-.32-.08-.306-.3-.645-1.43-.58-1.94-1.298-2.91-2.786-4.658-.51-.6-.85.15-.04 1.12 1.125 1.768 1.97 2.9 2.256 5.175-.73 1.03-1.088.83-2.61-1.78-1.007-1.725-1.61-2.168-1.875-2.155-.666.032-.036.855 1.838 3.8.97 1.572.994 2.55-.11 2.544-.373-.004-2.468-2.3-2.993-3.3-.438-.827-.978-1.46-.98-.45 0 .4 1.3 2.516 2.19 3.544 1.4 1.62 1.803 1.944 1.98 2.662.085.34.255.94.375 1.327.36 1.167.18 1.5-.55.884-.327-.864-.594-.953-1.5-1.618-.76-.56-1.816-2.014-2.51-3.038-.26-.387-.484-.877-.75-1.27-.68-1.268-1.584-1.378-.93-.1.31.593.81 1.565 1.336 2.286.88 1.25.7 1.9-.345 1.896-.45-.002-1.7-1.64-2.48-2.918-.51-.836-1.31-1.426-1.21-.6.02.206.64 1.673 1.563 2.82 1.004 1.245 1.136 1.907.16 1.902-.665-.005-1.238-.638-2.087-1.93-.805-1.225-1.31-1.657-1.536-1.52-.29.18 1.153 2.61 2.34 3.936 1.123 1.255.3 1.97-.992.854-.7-.607-2.1-2.41-2.495-3.27-.704-1.535-1.157-1.116-.703.1.5 1.34 1.283 2.805 2.226 3.757.494.5 1.514.89 2.01 1.32 1.41 1.213 2.304 2.335 2.19 2.536-4.02.228-7.32-4.05-8.224-6.636-.645-1.704-1.376-1.954-.68.45 1.96 5.97 8.07 9.072 12.292 6.396 2.55-1.618.3-5.82-1.787-4.467-.564.367-.59 1.41.13.853 1.357-1.05 2.72 1.54 1.24 2.306-2.08 1.074-4.385-1.035-2.97-3.59 1.397-2.625 6.998-1.123 5.9 3.117-.662 1.902-3.57 4.28-6.062 4.326-4.63.086-7.83-3.453-9.612-6.947-.23-.45-.64-1.335-.98-2.056-.29-.622-.523-1.084-.547-1.08.515 4.244 4.582 9.49 8.224 10.358 6.054 1.42 7.71-2.176 11.67-5.892 0 0 2.894.376 2.995.314.266-.162 5.63-.4 5.79-.25-21.668 39.15-20.02 85.627-1.388 120.906 1.233 2.58 1.448 2.09-.592 1.566-2.108-.548-4.02.294-5.732-.1-3.54-.72-4.296 1.69-7.018 2.975-3.394 1.28-2.626 3.63-3.435 5.904-.255.35-.44.64-.3.592.224-.073.948-.74 1-1.33.14-1.502.68-2.69 1.29-3.29.587-.57.996-.86 1.137-.612.11.193.027.866-.26 1.41-.825 1.55.267 6.736.335 3.045.056-2.93 1.837-6.197 4.33-7.534 1.994-.97 2.613-.87.99.626-1.847 1.96-3.1 4.246-3.175 7.09-.03 1.18.44 2.162.608 1.105-.07-5.413 5.357-11.442 11.176-8.446.29.21.536.604.45.825-5.636-.942-10.54 2.126-9.817 9.393 0 0 .505-1.425.79-2.846.89-4.45 5.94-6.394 9.48-5.174.665.28 1.19 1.217 1.095 1.343-4.334-1.356-9.088 2.724-9.364 7.145-.09 1.436-.054 2.67.684.075 2.797-9.82 11.426-5.37 10.366-4.566-6.68-.794-9.095 3.685-8.94 8.864.095.47.34.63.54 1.07.89 1.95 1.295 3.622 1.366 7.163-.068.915.69 6.72-.075 6.477-2.422-.896-4.27-1.95-8.47-.068-.38.02-.5-.19-.37-.516.175-.44.83-1.31 1.98-2.594 2.58-2.745 1.1-2.01-1.026-.107-1.37 1.23-1.072.39.22-3.808.522-1.7.196-1.908-2.057-3.05-2.318-1.172-3.922-1.352-1.955-.122.775.47 1.598.964 2.474 1.31 1.026.56.91.796.152 3.248-1.472 4.76-1.983 6.5-1.906 9.704.186 7.792 7.64 7.018 11.88 5.267l.174 5.13 15.974 22.42s-55.836-.06-85.71.43c1.708-4.08 19.766-21.37 20.84-24.463.104.015-2-6.32-3.107-9.077-5.22-13.02-12.087-18.49-8.11-27.04.855-1.695 1.004-2.266 1.654-2.26.882 0 1.165.585.172 2.243-4.27 7.134 4.84 19.442 7.916 27.293.494 1.257 2.555 7.148 2.917 9.13.037.607 1.48.814 1.078.106-1.134-4.01-2.56-8.393-3.22-9.97-2.43-5.796-4.99-9.75-7.36-15.416-1.325-3.58-2.03-7.714.025-11.426.75-1.35.964-2.102 1.457-2.173.423 0 .673.145.7.493.03.38-.206 1-.766 1.95-3.587 6.088 2.79 15.924 5.95 22.937 2.06 4.573 3.894 9.38 4.543 13.72.01.3.405 1.093 1.196.552-1.368-8.104-5.386-15.96-8.906-23.528-3.008-5.912-4.137-11.066-.12-15.934.35-.337 1.1-.28 1.15.217.03.34-.23.98-.86 2.28-3.54 7.376 1.94 13.37 4.514 20.402 2.508 5.88 4.842 10.82 5.78 17.085.71.267 1.06.603 1.136-.284-1.838-8.853-5.79-16.812-9.225-24.48-1.587-3.33-2.148-4.93-2.255-7.16-.146-3.07 1.404-6.95 2.79-7.974.364-.264.59-.312.918-.133.45.246.36.408-.533 2.09-1.704 3.21-1.85 6.82-.27 10.633 2.727 5.86 5.025 10.67 6.653 14.976 1.783 4.712 2.785 8.803 3.19 12.496 0 0 1.212.54 1.032-.266-.757-5.162-2.47-10.524-4.318-15.06-1.745-4.28-3.93-8.404-5.703-12.65-2.15-5.09-.37-10.656 4.04-13.436l2.02.043c-.12-.054-4.626 1.73-4.86 8.15-.227 6.114 2.68 9.873 4.78 15.054 2.563 6.25 4.856 11.73 5.4 18.406.2.233 1.31.28 1.293.184-.547-4.493-1.86-8.763-3.74-14.01-2-5.58-3.985-8.053-5.838-13.91-1.255-3.965-1.086-9.33 1.707-11.785 4.18-4.21 10.015-1.212 8.55 3.607-1.125 3.39-5.785 2.716-5.76-.46-.005-2.053 2.528-2.607 3.367-1.06.194.303.324 1.62.41 1.67.09.05.35-1.037.35-1.28.01-1.685-2.284-3.105-3.993-2.25-2.34 1.173-3.86 3.867-3.706 7.474.165 3.838.863 6.32 4.01 12.336 3.67 7.01 4.89 14.6 5.67 19.713.34-.14.747.04.88 0-.536-6.973-2.834-14.135-5.7-20.09-3.474-7.21-4.447-11.623-3.29-14.854.17-.472.33-.83.54-.86.39-.057.51.56.87 1.856.11.396-.03 1.02-.11 1.503-.3 2.957 1.778 9.11 3.71 11.842.568.78 1.29.75.666-.63-1.993-3.576-3.206-6.816-3.365-11.16-.046-1.28 1.446-.705 1.48-.065.108 2.076.316 4.52 1.31 6.26 2.02 3.443 3.145 3.593 1.078-.25-.46-.893-1.773-4.665-1.244-5.96.295-.265.653-.313.83-.048.585 2.13 1.393 4.242 2.823 5.883.75.857.873.47.48-.596-.66-1.236-2.72-5.36-1.77-6.29.305-.255.125-.118.96 1.235 1.16 1.88 1.79 2.62 2.35 3.17.75.733.93.24.158-1.048-1.548-2.574-2.428-4.712-1.884-5.25.538-.532.668-.286 1.89 1.785.54.922 1.33 2.28 1.6 2.6.264.32.51.4.514.14-.286-2.5-2.44-5.35-3.308-5.848-.125-.23-.08-2.204-.08-2.204 3.237 1.66 3.37 3.534 5.513 6.42.22.214.534-.048.44-.446-.075-.54-1.344-2.94-2.14-3.996-.626-.83-.654-1.304-.123-1.543.86-.383 2.056.887 3.33 3.15.594 1.056 1.385 1.666 1.387 1.11.004-.3-1.1-3.012-1.86-3.8-1.264-1.302-.64-2.215.828-1.01.667.55 1.57.96 2.498 2.96.54 1.163 1.007 1.312 1.01.382.002-1.043-1.76-3.596-2.947-4.302-.917-.548-1.44-1.16-1.18-1.566.806-1.177 4.06 1.828 5.173 4.62.33.827.904 1.248 1.045.885.25-.186-.41-2.2-1.085-3.13-1.12-2.135-3.76-4.19-5.326-3.946-.303.048-1.134-1.7-1.134-1.7 3.993-.64 7.87 4.12 8.56 5.9 1.31 3.38 1.976 2.982.83.018-2.236-5.79-9.186-9.034-13.043-6.232-2.196 1.597-.883 5.414 1.376 4.766.9-.334 1.77-1.245.19-.944-1.76.175-2.32-2.488-.53-3.022 2.88-.86 3.54 3.713 1.213 4.73-2.414 1.03-4.82-.505-4.592-3.144.43-4.99 6.587-6.43 12.666-2.397 1.71 1.133 3.814 4.834 4.537 7.18.24.77 1.046 1.043 1.144.946.23-.23-1.686-4.345-2.32-5.392-2.644-6.033-12.214-6.332-12.214-6.02 0 0-3.75 2.348-7.08 6.217l-8.55-.782c21.792-34.833 23.505-86.047 1.153-122.303.284.184 4.295 1.216 5.68.133 1.02-.487 1.31-.656 2.437-.253 1.27.456 2.606.055 3.987-1.203 1.04-.946 1.06-1.24 1.733-1.152 1.983.256 3.3-.9 3.71-3.748.16-1.12.27-2.284.11-2.114-.095.1-.325 1.067-.47 1.675-.403 1.676-.774 2.29-1.43 2.835-1.08.9-1.702.4-1.252-.965.427-.88.78-3.143.195-4.173-.102-.184-.127.517-.275 1.078-1.178 4.465-2.41 6.73-4.547 7.254-1.002.244-1.466.092-1.142-.48 3.77-3.997 3.518-8.424 3.23-8.045-.8 2.56-2.285 6.38-4.73 7.95-2.11 1.356-5.2 1.485-6.916.347-.974-.647.5-.838 2.71-.868 3.72-.05 7.2-4.998 6.62-9.167-.135-.77-.347.057-.65 1.324-1.37 4.512-3.726 7.682-9.105 6.736-.42-.074-.7-.35-.93-.51-.876-.604-.554-1.02 1.186-.792 3.89.506 7.276-3.124 7.255-7.51-.01-2.105-.313-2.08-.65-.51-.473 2.21-2.2 8.99-8.493 6.774-1.133-.614-1.75-1.396-1.347-1.51 3.67.735 7.033-.067 8.34-4.865.564-2.07.43-4.094-.145-5.79-.182-1.15-.57-2.027-.702-3.197-.35-3.135-.853-6.594-.7-10.02.3-.3.352-.236 1.41.462 2.072 1.37 3.64 1.056 5.75.243 2.712-.976 2.466-.8-.37 2.39-.59.666-1.19 1.48-1.26 1.604-.72 1.346.633.36 1.648-.91 1.41-1.765 1.706-2.17 1.984-2.17.094 1.905-.596 4.22-.954 5.783-.47 1.73-.464 2.13.644 2.576.48.19 1.407.57 1.92.814 2.32 1.1 2.108.204.258-.837-2.5-1.405-2.52-1.335-1.802-3.668.837-2.738 1.25-5.108 1.703-7.816 1.12-6.696-3.954-10.38-10.696-8.04-.386.192-.832-3.52-.77-4.504.06-.352-1.018-.274-1.902-1.354.27-.24-9.94-12.975-14.695-20.698 26.663-.032 53.443-.48 80.183-.474zm-16.57 23.93c.068.04.107.075.107.075-.044-.05-.08-.07-.104-.07zm23.1-23.324h28.597l.412 61.59-2.534.06s-4.774-8.174-6.03-12.037c-.315-.964-.865-2.292-1.078-2.813-.486-1.182-.825-1.328-.18-2.05 1.29-1.446 1.036-4.37-.22-5.78-.387-.457-.588-.302-.568-1.414.016-.956.105-1.567-.148-2.06-.424-.823-.71-.882-.104-1.79.636-.948 1.48-2.49 1.836-3.7.58-1.954.178-2.32 1.46-1.86 3.217 1.02 5.91-1.266 5.827-4.497-.07-2.72-2.623-5.14-5.593-4.4-.685.18-.82.12-1.874-.54-.302-.19-.763-.59-1.153-.732-.49-.184-.894-.17-1.097-.516-.4-.683-1.642-1.77-3.156-1.7-.923.044-2.124-.29-2.442-.454-.526-.275-2.01-.05-3.89-.33-.836-.127-1.51.197-1.916.202-1.16.014-.69-.13-.91-1.006-1.454-4.572-5.697-4.03-7.64-.59-.714 1.35-1.23 3.354-1.5 5.42l-11.426-.17zm-88.423.133c4.268 5.407 8.352 11.467 12.654 16.987 5.295 6.686 5.47 7.454 4.048 14.183-.795 3.802-1.136 4.68-2.747 4.393-1.52-.27-2.8.914-3 2.415-.39 2.816 2.333 4.55 5.07 3.14 1.446-.742 1.494-.822 1.01 1.633-.69 3.518-2.07 6.547-2.96 6.448-2.294-4.852-7.88-1.4-6.025 3.646-.58.88.18 1.997.473 2.92 0 0 .012.108-3.178 1.16-15.668 4.617-35.07 16.673-45.66 27.99l-.725-84.683zm89.888 11.554c.657-.02 1.29.19 1.812.66 1.366 1.22 1.045 2.93-.844 6.14-1.98 4.48-1.44 8.01-.986 12.71-.013 2.73-.94 5.323-2.415 6.45-2.392 1.82-5.34-.62-4.1-3.088.635-1.227 1.984-.51 2.3-1.67.115-.694.1-1.786.177-2.3-.286-2.064-.877-8.353-.88-10.536.025-1.88.644-4.24 1.5-6.01.835-1.476 2.18-2.33 3.435-2.364zm3.767 7.31c-.55.45-1.45.45-1.56-.11.004-.59.466-2.47.786-2.678 1.96-.456 1.335 2.292.77 2.78zm2.92-2.93c1.62-.07 2.687 4.06 1.28 6.47-.264.05-2.23.04-2.236.073-.034-.43.094-1.29.24-2.116.126-.705.2-1.24-.014-1.998-.53-1.89-.878-2.246.73-2.44zm3.086.05h.19c1.644.005 2.58 3.17 2.064 6.63-.075.494-.118 1.014-.3 1.13-.687-.185-2.594.493-2.628.487-.18-.18-.107-1.165.137-2.05.45-1.64.58-2.73.05-4.43-.38-1.464-.395-1.743.487-1.77zm4.095.91c1.808.3 1.926 5.29 1.184 6.91-.177.24-.858.18-1.1.27-1.537.44-1.195.665-1.017-1.77.125-1.67.154-2.97-.097-4.35-.12-.61-.17-1.03.27-1.07.254-.05.53-.04.762.01zm-9.01 1.95c.72.98.14 3.255-.41 4.1-.623.93-.875 1.01-.533 1.416.147.173.45 1.054.263 1.424-.346.685.54.808 1.34 1.225 1.304.68 1.936 1.93 2.908 4.212.34.795 1.037.544.7-.31-.29-.734-.403-1.812-.6-2.532-.21-.74.02-1.11.873-.89 1.286.326 1.108.02 1.578-.15 1.03-.57 1.727.236 1.1.682-.354.257-1.12.412-1.962.644-.717.2-.55.888.17.885.667-.004 2.576-.54 3.822-.915 3.564-1.08 3.684-1.653 3.35.373-.44 2.684-1.906 4.694-4.328 5.375-2.11.592-6.976.48-9.145-.214-2.06-.93-2.196-1.58-2.82-3.39-.85-2.48-1.354-6.674-.374-9.11.863-2.06.776-1.844 1.604-1.74.737.256 1.727-.03 1.946-.48.11-.214.393-.607.52-.6zm13.67 1.484c.205 1.102.224 2.236-.16 3.09-.22.4-1.47.38-1.954.383-.288.067-.266-3.725.04-4.137.727-1.09 1.667-.214 2.074.664zm-36.216-.655l3.534.043v.86l-4.17-.03zm12.37.147l.004 1.114-5.323.01v6.984l5.955.02.033 1.45-7.972-.025.025-9.548 7.277-.006zm27.06-.224c5.458 1.2 3.023 7.227.977 7.592-2.55.454-4.71.167-4.002-2.074.71-1.52.22-3.41.42-4.792.49-.456 1.776-.91 2.61-.727zm-41.15 2.116l5.25.052v1.153l-6-.016zm11.668 1.062c.838 0 1.518.68 1.518 1.52 0 .837-.68 1.517-1.517 1.517-.84 0-1.52-.68-1.52-1.52s.68-1.52 1.52-1.52zm14.818.603c.978.106 1.06 1.6.664 2.037-.514.508-1.47.29-1.76-.486-.264-.7.324-1.58 1.095-1.55zm-27.95.65l6.717.02v.933l-6.784.056-.18-.603zm37.82.402c.93-.022 1.503.762.92 1.43-.876.972-2.665-.518-.92-1.43zm-71.59 2.044c-1.503 1.27-.298 2.516 1.7 1.314 4.295-2.585 10.633-.537 14.764 1.616.81.416.92-.55.123-1.22-3.815-3.356-11.95-5.282-16.587-1.71zm65.106-1.766c1.05.004 1.033 1.31.36 1.78-.674.29-.79.21-1.24.035-.612-.24-.154-1.81.88-1.82zm3.716.02c1.244.06 1.105 2.562-.773 1.66-.68-.73-.24-1.666.773-1.66zm-34.727 1.29l6.53.055v1.06l-6.108-.06zm-42.198 2.5c1.78 1.414 1.23 1.5-1.73.46-1.94-.43-3.86-.157-5.07.322-1.43.565-1.767.4-1.147-.557 1.666-1.87 6.255-1.49 7.94-.228zm8.57 2.343c-.18.44-.79-.354-1.618-.2-1.18.22-.84.276.407 1.694 1.25 1.42 1.658 1.76 1.58 2.308-.11.803.116 1.245.917 1.156.386-.04.843.406 1.433.94 2.043 1.858 3.075 2.78 3.74 3.067 2.704 1.167 1.486-.15-.243-1.343-2.88-1.99-3.882-3.314-1.834-2.605 2.176.756 5.637.33 7.34-.7.84-.504 1.37-1.28 2.553-.9 1.66.53 2.296-.45 1.835-.998-.75-.482-2.473-1.06-4.11-2.16-3.494-1.772-7.17-1.72-9.62-.292-1.443.84-1.946.25-.53-.584 5.673-3.06 10.17-.13 13.8 2.07.63.384 1.07.35 1.072.08-.097-.886-1.714-1.432-2.37-1.83-5.06-3.08-10.383-4.064-14.352.31zm34.472-2.71l5.674.005v1.12l-5.257-.024zM97.19 58.27c1.573-.01 4.993 1.402 4.936 2.57-.066.444-.92.046-1.665-.408-1.433-.88-3.64-1.118-5.72-.73-1.594.3-2.1.56-2.33.37-.55-1.24 3.325-1.8 4.78-1.808zm61.363.834l.008 2.01c-3.08.226-3.71 3.65-1.733 5.555 1.62 1.56 4.298.944 5.644-1.27.234-.396.26-.63.407-.438.09.12.168.495.242.86.21 1.05-.09 1.32-.79 2.224-1.128 1.457-1.28 3.295-.574 4.663.194.377.602.915.53 1.163.396-.013-3.497 10.88-9.182 16.367-.95.635-1.64-.11-1.15-1.13 4.63-10.583-4.23-20.415-7.67-29.873l14.27-.13zm-41.173 1.83l.81.07c-.65 4.878-5.382 4.09-5.57.12l.685-.023c.922 3.7 4.086 2.186 4.076-.163zm-26.727.1s.34.546.34.85c0 1.135-.018 2.777-.047 3.274-.274 4.694-6.227 5.564-5.775 1.55.36-1.704 2.51-1.893 3.04-.35.77 1.94.91-.468.92-1.22.63-1.18 1.09-2.617 1.526-4.1zm28.687.33c.245.008.68.22 1.026.59.39.42.244.63-.67 1.1-.99.51-1.44.467-1.08-.563.22-.64.41-1.13.724-1.12zm44.537.25c.134.005.48.182.398.692-.133.85-.87 1.333-1.06 1.132.12-.45.27-1.65.663-1.827zm-51.644 1.645c-.118.34-.32.19-.84-.25-.574-.488-.544-.8.046-1.15.85-.51.9 1.08.79 1.395zm-18.027-1.27c.992 3.134 3.017 2.74 3.923.15l.86-.018c-.19 4.043-5.306 3.97-5.35.06zm-1.795.384c.31-.047.09 1 .09 1s-.84-.43-.345-.89c.06-.057.218-.102.26-.11zm7.52.267c.106-.007.3.073.515.213.497.326.41.52-.157.994-.874.73-1.27.323-.796-.656.176-.364.308-.546.44-.554zm65.35.683c.37-.026.89.14 1.99.433 3.03.804 7.08.774 10.53-.176 1.09-.3 1.897 1.61 1.31 3-.26.61-.215.69.578 1.51 1.124 1.17 1.305 3.056.45 4.77-.62 1.25-.58 1.14.157 3.27.34.977.774 1.97.85 2.24.93 3.14 3.23 6.855 4.63 9.96 1.4 2.18-2.51.02-2.51.02s1.05 1.41 2.45 2.467c1.356 1.03 4.02.333 5.24 1.585.284.394-.28 8.727-.566 8.96-12.04-.56-32.12-.12-32.12-.12l3.763 5.864c5.92 2.364 11.58 1.772 16.99-1.633-.133.49 6.587 3.775 12.105 4.133l.034 3.948c-4.094-.46-8.243-.554-12.047-2.947 0 0-3.497 1.463-7 2.56l19.616 20.29.01 3.39s-8.376-7.815-16.994-16.626l.186 43.325 16.97.333c-.53 11.274-.316 18.442-.202 31.357-8.02 8.228-19.056 16.46-29.252 21.404-4.81-4.64-8.787-9.667-12.265-15.04-.073-.116.35-.33.28-.446-.108-.166-.71-.228-.82-.39-2.12-3.16-7.048-11.914-6.268-12.12 1.51.105 8.498-.76 9.89-4.95.01-.264-.15-1.01.037-1.887.49-2.27.742-5.72-.09-7.91-1.503-3.95 3.016-2.686 3.17-2.42l-.006-14.925c-5.88 4.716-11.81 9.355-19.672 11.295-4.888-24.645 2.865-55.29 24.968-76.078l-1.212-.105c-22.71 23.497-28.664 49.336-24.79 76.55 0 0 .145.85.167 1.137.053.677-.11.936-.712 1.425-.572.377-1.093.782-1.04 1.247.097.873-.743.9-1.84.896-.508-.44-1.19.118-1.596.32-.57.085-.853-2.24-1.58-.536-.277 1.073-.8 1.154-2.016.62-.764-.224-.78.154-.05 1.04 1.014 1.09 1.87 2.72 1.705 3.205-.373 1.093-.21 2.2 1.337 2.825-.09.008-.936 3.342 1.465 3.246.765.008 2.7.4 2.7.4.126.637-.08 1-.38 1.28l-1.67-.835-.436 1.99-2.225-.16 5.415 6.687.63-5.215 6.33.802c1.016 2.635 7.41 17.3 19.634 28.212 0 0-6.68 2.906-8.554 3.82l-1.162-4.16-1.05 1.51-1.867-.48-.22 1.708-1.664.537 2.904 2.194-7.462 2.27c-21.32-34.392-30.97-82.163-4.416-132.68l6.71.085-1.31 2.24 1.91-.304.54 1.634 1.4-.66 1.406 1.764 1.604-4.715s4.753.11 5.346.05c.465-.055 10.047-8.094 9.84-8.4-.147-.22-10.434 7.295-10.78 7.01 0 0-1.032.243-.227-.72 1.44-1.73 2.46-3.04 3.93-5.523 2.42-3.3 3.51-7.32 4.08-10.04.01-.195.06-.63-.1-.95-.928-1.835-.72-3.03.94-5.19.58-.76.612-.948.45-1.41-.378-1.05-.02-1.95.75-2.655.3-.28.5-.412.783-.43zm-56.532 7.314c4.21 1.73.83 5.56-2.298 2.22-1.64-1.75-2.934-1.64-3.826-.36-.4.575.185 1.587.705 1.266.48-.297.975-.65 1.68-.004 5.323 4.9 9.146-1.96 4.56-3.67-.57-.26-1.377.315-.82.543zM91.4 70.48c.04-.005.087.016.148.054.2.125.215 1.858.015 2.586-.665 3.693-3.297 12.27-8.698 8.073-2.144-1.668-.193-5.855 2.373-4.432 2.004 1.11.65 3.76-1.52 2.24-1.052-.74-.718.79.172 1.22 1.508.79 4.238-.56 5.52-2.97.51-.96.988-2.65 1.526-5.1.27-1.23.293-1.66.466-1.67zm.456 6.39c.444 2.67-1.588 7.342-4.48 8.032-2.214.528-4.95-.914-4.755-2.25.06-.387.22.125 2.22.457 2.81.46 4.59-1.05 6.2-4.53.51-1.1.73-1.69.82-1.71zm6.97 1.275c0 .302-.146 1.097-.27 1.623-.3 1.25-.487 1.725.88 1.105.906-.417 2.23-.83 3.598-.07 1.51.836 2.952.68 4.73-.073 1.546-.514 2.3-.52 3.16-.023 1.575.904 1.035.326.83-1.956-.14-1.6-.578-1.39-1.142-.78-.37.4-1.12.486-1.954.038-.995-.533-2.38-.28-2.847.1-.46.38-1.14.43-2.05-.184-.604-.41-.94-.196-1.683.136-1.22.547-1.69.25-2.353-.26-.6-.44-.884-.303-.89.35zm-6.065 1.917c.16 0 .18.615.07 1.856-.51 4.576-4.09 7.125-8.31 4.91-1.85-1.055-1.6-1.8.22-1.14 2.9 1.053 5.83-.42 7.267-4.18.37-.964.62-1.445.76-1.447zm10.3 3.265c2.09.862 4.4.588 4.99-.177.66-.857-.35-.716-.88-.587-1.826.437-3.08.277-3.82-.052-2.163-.83-2.027.07-.285.82zM81.3 85.893c2.704 3.31 3.06 3.957 5.39 7.72 17.032 28.908 22.485 65.445 11.288 98.614-3.07 9.153-7.405 18.48-12.264 25.974l-5.832.07 2.002-2.283-2.716.2-.165-1.51-2.06.667-.99-2.277-1.867 5.213-10.81.03c25.316-24.603 30.302-54.417 25.58-78.35 0 0 2.116-1.324 2.41-2.098.072-.19.23-.987.376-1.106.94-.614 1.565-1.212 2.03-1.095.27.07.404.19.6.476.89 1.307 1.082 1.512 1.57.195.35-.944.2-1.286 1.35-1.105.67.357 1.562.347 1.48.213-.06-.1-1.012-1.22-1.464-1.855-1.07-1.503-1.375-1.775-1.277-2.433.15-1.006-.65-2.09-1.145-2.36.144-2.704-.894-2.974-3.834-3.578-.016-.466.063-.844.27-1.26l1.727 1.375.627-2.553 2.345.126-6.798-6.576c.037 1.855.125 3.73-.044 5.52-3.188-.176-6.33-1.203-6.378-1.01-4.675-11.01-11.8-20.323-19.326-27.59l7.517-3.61 2.134 4.06.524-2.3 1.864.325.315-1.48 2.06-.29-2.273-2.16zm44.76 4.75c.286.36.516.387.9.716l-.768.54c.034-.52-.01-.78-.135-1.26zM76.05 92c-.64 0-1.16.52-1.16 1.158 0 .638.52 1.153 1.16 1.153.636 0 1.152-.51 1.152-1.15 0-.63-.516-1.15-1.153-1.15zm6.27.184c-.64 0-1.158.518-1.158 1.158 0 .64.52 1.158 1.158 1.158.64 0 1.158-.52 1.158-1.158 0-.64-.52-1.158-1.158-1.158zm-20.2.846c3.72 3.093 7.14 7.124 11.29 13.428l-.085.85 1.267.47s6.903 9.086 6.54 13.124c-2.37.495-4.205-.38-8.443 3.583l-2.73-.594-2.867.7s.037.9.75 1.2c.31.14.823-1.12 1.157-1.08 1.394.16 2.798.185 2.54.62-.292.13-1.04 9.156.413 11.078.81 1.96.23 1.943-.5 2.303-.79.517-3.278-.574-3.278-.574l.573 14.335c6.567-7.49 20.435-12.486 19.45-11.943 6.96 36.766-9.587 61.29-26.908 79.27l9.075.05s-7.827 12.555-8.41 16.026c.445 1.154 1.676 3.543-.403 5.22-.703.77-.778 4.27-.778 4.27-4.775.165-8.913-1.492-14.417.437-.57.19-.695-2.997-.72-3.57-1.694-1.586-1.96-4.8-.5-6.476.54-.616.31-.29-.144-2.372-.725-3.324-3.14-7.882-4.977-10.81-.603-.957-1.207-2.077-1.353-2.423-1.313-1.56-4.766-.84-5.186-1.25-.38-.32-.63-8.82-.24-9.024 13.604 1.08 34.894-.155 34.894-.155l-5.712-7.98c-7.036-2.743-16.706 1.94-16.24 2.19.02.03-7.73-4.226-13.105-3.62l.175-4.17c4.775-.02 9.182.87 13.03 3.14l6.535-2.436-20.025-21.02.23-3.464s5.12 5.48 10.683 11.33c4.774 5.02 6.56 5.867 6.56 5.867l.017-43.59-17.225-.042-.46-8.906-.444-.778-.205-6.39.48-.65-.167-2.733-.162-.39-.214-6.53.37-.55.058-4.11c8.325-8.147 29.814-21.85 29.814-21.85zm14.712 1.24l2.007 8.796 1.34-1.67 2.07.65.14-2.026 1.883-.655zm68.447 1.462c-.64 0-1.16.518-1.16 1.157 0 .64.52 1.16 1.16 1.16.64 0 1.15-.52 1.15-1.16 0-.64-.52-1.16-1.16-1.16zm-5.42.724c-.64 0-1.16.518-1.16 1.158 0 .64.52 1.158 1.16 1.158.64 0 1.15-.52 1.15-1.158 0-.64-.518-1.158-1.158-1.158zM73.49 97.48c-.64 0-1.156.52-1.156 1.16 0 .64.517 1.16 1.156 1.16.64 0 1.158-.52 1.158-1.16 0-.64-.518-1.158-1.158-1.158zm70.525.7l-8.056 7.577 2.25-.095.404 2.21 2.02-.924 1.637 1.508zm3.43 2.546c-.64 0-1.158.518-1.158 1.158 0 .64.518 1.158 1.157 1.158.64 0 1.157-.52 1.157-1.158 0-.64-.51-1.158-1.15-1.158zm-64.075 1.492c-.64 0-1.158.517-1.158 1.156 0 .64.52 1.158 1.158 1.158.64 0 1.158-.518 1.158-1.158 0-.64-.518-1.157-1.158-1.157zm5.01.966c-.638 0-1.157.52-1.157 1.158 0 .64.52 1.158 1.158 1.158.64 0 1.16-.518 1.16-1.158 0-.64-.52-1.158-1.16-1.158zm-4.545 1.723c.222 3.095.584 6.767.665 9.868l1.527-1.504 1.766.72.626-1.9 1.92-.09zm49.61 2.58c-.64 0-1.16.52-1.16 1.16 0 .64.52 1.157 1.16 1.157.638 0 1.156-.518 1.156-1.158 0-.64-.51-1.16-1.15-1.16zm-52.93.204c-.64 0-1.16.52-1.16 1.16 0 .64.52 1.16 1.16 1.16.638 0 1.157-.52 1.157-1.16 0-.64-.52-1.16-1.158-1.16zm57.518.28c-.64 0-1.157.52-1.157 1.16 0 .64.613 1.16 1.158 1.16.546 0 1.158-.51 1.158-1.15s-.518-1.158-1.158-1.158zm-.686 2.51l-6.68 6.87 2.188.204.688 1.95 1.4-1.187 1.7 1.244zm3.668 1.474c-.64 0-1.158.517-1.158 1.156 0 .64.518 1.157 1.158 1.157.64 0 1.158-.517 1.158-1.157s-.52-1.158-1.158-1.158zm-52.663 2.14c-.64 0-1.157.52-1.157 1.158 0 .64.518 1.16 1.157 1.16.64 0 1.158-.613 1.158-1.16 0-.545-.518-1.157-1.158-1.157zm-28.37.707l-2.173 1.666.53-.08s1.312 1.53 1.312 1.636c0 .108.805-.03.805-.03zm33.846 1.01c-.64 0-1.158.52-1.158 1.16 0 .638.52 1.157 1.158 1.157.64 0 1.158-.52 1.158-1.157 0-.64-.517-1.16-1.157-1.16zm-8.294 1.65c-.64 0-1.16.52-1.16 1.158 0 .64.52 1.158 1.16 1.158.638 0 1.157-.52 1.157-1.157 0-.64-.52-1.16-1.15-1.16zm47.828 2.33c-.64 0-1.158.52-1.158 1.16s.518 1.158 1.158 1.158c.64 0 1.158-.52 1.158-1.158 0-.64-.52-1.16-1.158-1.16zm-4.57 1.7c-.64 0-1.157.52-1.157 1.16 0 .637.52 1.155 1.16 1.155.638 0 1.156-.517 1.156-1.156 0-.64-.51-1.16-1.15-1.16zm46.644.287l2.405 2.615v38.25l-2.35.05zm-93.652.27c1.96.003 4.145.286 4.84 1.476 1.082 1.336-1.22.82-3.155 1.11-1.79.22-.75.584 1.77.73 3.48.207 4.85.298 5.363 1.1.294.748.08 1.25.14 2.057l-3.95-.187c-2.05.006-3.255-.033-3.864.12-.484.126-.345.51-.18.68.086.088 1.66.11 3.497.157 4.947.13 6.04.297 6.392 1.89.264 1.458-.926 1.236-6.008.68-2.264-.183-3.48.348-3.808.51-.558.272 1.614.542 2.324.426.443-.07 3.705.284 4.905.51 1.01.152.12.124-.39.74-.336.51-.23 1.093-.758 1.38-.65.342-1.934.336-4.238.337-2.636 0-3.865.64-.248.798 2.336.1 2.47.06 2.667.738.53 1.662-.596 1.955-2.98 2.334-1.14.195-2.827.086-4.103-.005-5.04-.36-6.788-1.56-7.47-3.782-2.54-8.287.597-13.347 7.94-13.754.407-.022.847-.04 1.3-.04zm50.948.37l-5.692 8.28 2.194-.853 1.044 2.246 1.755-1.255 1.753 1.083zm-42.587 1.007c.296.36.167.63-.322.898-.41.227-1.116.06-1.58-.14-.612-.265-.673-1.36-.17-1.476.723-.145 1.62.19 2.073.72zM48.923 123l-3.112 2.98.1.115 4.1-1.613zm87.366 1.273c-.64 0-1.16.518-1.16 1.158 0 .64.52 1.16 1.16 1.16.64 0 1.15-.52 1.15-1.16 0-.64-.52-1.15-1.16-1.15zm42.38 1s2.9 2.865 4.09 4.068h-1.08l.03 2.26 3.43.04 1.88 1.847-5.24-.023v2.306l6.49.004-.036-.986 2.56 2.32.305 25.653-12.36-.036c-.047-12.63-.01-24.808-.077-37.44zm-84.8 2.782c-.18.554-.58.556-1.25.28-1.01-.41-.86-1.515-.1-1.633 1.43-.163 1.7.498 1.35 1.353zm3.89.484c-.64 0-1.16.51-1.16 1.15s.52 1.155 1.16 1.155c.64 0 1.16-.518 1.16-1.157 0-.64-.52-1.158-1.16-1.158zm-4.08.88c.452.03.902.26 1.16.51.632.64.41 1.235-.3 1.603-.794.413-1.35-.15-1.585-1.09-.156-.636.215-1.005.726-1.026zm36.345 3.033c-.64 0-1.16.52-1.16 1.163s.52 1.162 1.162 1.162 1.162-.52 1.162-1.163c0-.64-.52-1.16-1.163-1.16zm-38.26 1.41c.997.034 1.3 1.053.777 1.6-.748.74-1.91.422-2.074-.286-.053-.796.596-1.314 1.295-1.314zm34.112.47c-.64 0-1.16.52-1.16 1.157 0 .64.52 1.158 1.16 1.158.64 0 1.157-.518 1.157-1.158s-.52-1.158-1.156-1.158zm4.11.77l-5.18 8.69 2.097-.83 1.274 1.676 1.31-1.144 1.98.967zm-40.66 1.45c.93.005 1.188.733.514 1.4-.457.454-.975.47-1.504.05-.8-.64-.188-1.455.99-1.45zm44.29.11c-.64 0-1.157.516-1.157 1.156s.52 1.157 1.158 1.157c.64 0 1.16-.518 1.16-1.157 0-.64-.518-1.156-1.158-1.156zm-37.72.91c-.64 0-1.11.52-1.11 1.158 0 .64.517 1.157 1.156 1.157.64 0 1.157-.518 1.157-1.158s-.566-1.16-1.205-1.16zm85.84.257v2.458l6.53.004v-2.458zm-85.75 2.188l-2.5 9.133 2.09-1.19 1.305 1.334L98.1 147.8l2.183.57zm4.445.99c-.64 0-1.157.52-1.157 1.16 0 .637.512 1.156 1.15 1.156.64 0 1.16-.52 1.16-1.16 0-.638-.517-1.157-1.157-1.157zm-8.15.465c-.64 0-1.16.52-1.16 1.158 0 .64.52 1.16 1.16 1.16.638 0 1.156-.52 1.156-1.157 0-.64-.52-1.158-1.158-1.158zm89.455.72l.01 2.208h6.53l-.005-2.19zm-53.73 2.886c-.632 0-1.15.52-1.15 1.16 0 .64.518 1.155 1.157 1.155.64 0 1.157-.52 1.157-1.158 0-.64-.52-1.16-1.16-1.16zm53.74 1.233v2.377h6.53v-2.376zm-134.623.29l2.296.042.04 41.438-2.24-2.368zm-.96.08l-.113 37.874-4.35-4.575 1.157-.014v-2.58l-3.768-.03-1.61-1.566 5.372.005v-2.53l-6.372-.023v1.532l-3.13-3.34.05-24.73zm82.02 1.157l-3.486 9.013 2.19-1.248 1.135 1.114 1.172-1.054 1.993.972zm-91.69.434l-.033 2.424h6.435v-2.425zm95.638.488c-.64 0-1.157.52-1.157 1.158 0 .64.52 1.16 1.158 1.16.64 0 1.16-.52 1.16-1.16 0-.64-.52-1.157-1.16-1.157zm-7.88.13c-.64 0-1.157.518-1.157 1.158 0 .64.52 1.158 1.158 1.158.64 0 1.16-.52 1.16-1.16 0-.64-.52-1.16-1.16-1.16zm-27.244.43c-.64 0-1.16.52-1.16 1.158 0 .64.52 1.16 1.16 1.16.64 0 1.16-.52 1.16-1.16 0-.64-.52-1.157-1.16-1.157zm84.74.935v2.55h6.53v-2.55zm-84.89 1.44l-.967 1.49-2.214-.753 3.02 9.14 3.79-9.54-2.18 1.244zm-60.37.66v2.42h6.4v-2.42zm145.254 2.17v2.524h6.524l.004-2.522h-6.53zM36.49 156.64v2.426h6.4v-2.425zm91.607.457c-.642 0-1.162.52-1.162 1.16 0 .64.52 1.16 1.162 1.16.642 0 1.163-.52 1.163-1.163 0-.64-.527-1.16-1.17-1.16zm-34.856 1.21c-.64 0-1.16.52-1.16 1.16 0 .64.52 1.16 1.16 1.16.646 0 1.167-.52 1.167-1.163 0-.64-.52-1.16-1.163-1.16zm7.43.213c-.64 0-1.16.52-1.16 1.163 0 .64.52 1.162 1.165 1.162s1.168-.52 1.168-1.164-.52-1.16-1.16-1.16zm81.077.16v2.28h6.524l.005-2.28h-6.53zm-53.656 1.065l-1.386 1.457-1.982-.565 4.51 8.407 2.28-9.042-1.99 1.267zm-91.597.854v2.75h6.4v-2.75zm60.414 1.25c-.642 0-1.162.52-1.162 1.16 0 .64.52 1.16 1.168 1.16.642 0 1.163-.52 1.163-1.16 0-.645-.52-1.165-1.163-1.165zm-.076 2.39c-.494.35-.71.966-1.23 1.284l-2.114-.9 1.272 11.447 5.874-10.817-2.685.45zm-60.336.373v2.86h6.4v-2.86zm96.14 1.327c-.642 0-1.162.523-1.162 1.165s.52 1.162 1.164 1.162c.64 0 1.16-.52 1.16-1.163 0-.64-.52-1.162-1.166-1.162zm-7.516.135c-.642 0-1.162.52-1.162 1.162 0 .64.52 1.162 1.168 1.162.642 0 1.163-.525 1.163-1.167s-.52-1.16-1.163-1.16zM36.49 168.77v2.866h6.4v-2.867zm92.816.64c-.642 0-1.162.52-1.162 1.16 0 .643.52 1.164 1.162 1.164.642 0 1.163-.52 1.163-1.163 0-.64-.53-1.16-1.17-1.16zm16.41.09c6.226.2 7.138 2.202 7.174 9.115.03 5.52-1.614 7.676-5.63 8.74-1.465.387-6.938.03-8.49-.468-.025-.474-.8-1.57-.973-2.414.395-.114 1.644.06 4.012.285 1.92.184 2.41-.124 1.8-.502-3.61-.853-6.07-.62-9.54-1.286-.05-1.038-.89-2.247-.89-2.247.19-.073 5.35.483 8.072.397 1.2-.05.476-.613-.008-.717-3.177-.455-5.24-.383-8.598-.806.09-.86-.346-1.64-.888-2.297 0 0 1.697-.015 5.2.038 1.842.03 3.445.106 4.25.08 1.354-.003 1.23-.635.058-.72-1.43-.16-7.063-.194-7.063-.194.42-.194.965-2.715.75-2.742 0 0 1.46.03 2.386-.005 4.512-.17 5.29-.1 5.376-.267.592-.542-1.01-.754-2.677-.75-.72.002-1.768.16-1.76-.232.006-.36-.01-1.097-.377-1.857 2.77-1.06 5.315-1.23 7.8-1.15zm-53.672 1.42c-.642 0-1.162.52-1.162 1.162 0 .642.52 1.162 1.162 1.162.642 0 1.163-.52 1.163-1.162 0-.642-.52-1.163-1.163-1.163zm44.408.24c.768.005 1.01 1.385.29 1.6-1.105.33-1.71.07-1.67-.583.022-.37.883-1.018 1.38-1.016zm-36.816 1.202c-.642 0-1.162.52-1.162 1.162 0 .642.52 1.163 1.162 1.163.642 0 1.163-.52 1.163-1.163 0-.642-.53-1.162-1.17-1.162zm33.106 1.305c2.63-.024 1.27 3.553-.755 2.263-1.003-.64-.297-2.256.755-2.263zm-41.604 2.86c-.054-.004-.083.05-.076.18l.607 10.877L98 177.43l-2.516.935-1.08-1.64-1.36 1.066c-.558.44-1.615-1.23-1.906-1.25zm39.165 1.114c1.18.17 1.967 1.35 1.148 1.92-1.84.81-2.83-1.836-1.14-1.915zm-2.835 2.39c-.642 0-1.162.52-1.162 1.166 0 .642.52 1.162 1.162 1.162.642 0 1.163-.52 1.163-1.164 0-.64-.52-1.162-1.16-1.162zm4.472.987c1.005-.015 1.478 1.444.484 1.903-.212.1-.84.17-1.12-.04-1.174-.866-.566-1.773.636-1.865zm-43.527 1.793c-.642 0-1.163.52-1.163 1.162s.52 1.163 1.163 1.163c.642 0 1.162-.52 1.162-1.162 0-.64-.52-1.16-1.162-1.16zm88.798 1.46l-4.3 1.443v2.04c1.88-.6 2.958-2.128 4.31-3.486zm-40.37.98c.75.313.95 1.325.31 1.665-.503.268-1.88.226-2.21-.215-.87-1.396 1-1.79 1.906-1.45zm-40.61.402c-.64 0-1.163.52-1.163 1.163 0 .642.52 1.163 1.164 1.163s1.163-.523 1.163-1.165-.52-1.16-1.162-1.16zm-4.763 2.01c-.565 0-1.024.46-1.024 1.025 0 .566.46 1.025 1.025 1.025.567 0 1.026-.46 1.026-1.026 0-.566-.46-1.025-1.025-1.025zm48.325 1.73c-.64 0-1.16.52-1.16 1.16 0 .644.52 1.164 1.16 1.164.643 0 1.164-.52 1.164-1.162 0-.64-.52-1.16-1.163-1.16zm-52.07.06l-.056 10.275 6.85-8.408-2.377.513-1.017-2.08-1.467.952zm43.49 2.368c-.64 0-1.16.52-1.16 1.163s.52 1.165 1.162 1.165 1.164-.52 1.164-1.163c0-.64-.52-1.16-1.163-1.16zm34.29.04l-1.124 1.917 3.188-1.77zm-29.65 1.365c-.64 0-1.16.52-1.16 1.163 0 .64.52 1.16 1.16 1.16.644 0 1.165-.52 1.165-1.16 0-.645-.52-1.165-1.162-1.165zm3.918 1.254l-1.39 1.98-1.83-.59-.54 1.89-2.2-.08 7.14 6.213zm-55.66.79c-.64 0-1.162.52-1.162 1.16 0 .643.52 1.163 1.164 1.163s1.16-.52 1.16-1.162c0-.64-.52-1.16-1.16-1.16zm107.08 1.67l.58 85.18-40.602.084-16.716-22.83c-.345-3.718-.145-7.536 1.42-12.526 1.635 1.13 5.216.512 5.094-3.876-.08-2.873-4.51-4.344-6.717-2.182.112-2.777 1.24-6.952 2.864-8.183 1.116 1.01 1.362 2.51 3.884 2.092 1.79-.3 3.21-2.3 2.434-4.637-.2-.593-.305-1.313-.303-1.795 0-.48.044-1.34-.05-1.82-.124-.63-.17-1.32-.17-1.32 21.63-6.784 37.1-17.65 48.28-28.2zm-98.94 1.46c-.642 0-1.163.52-1.163 1.162s.52 1.165 1.164 1.165c.64 0 1.16-.52 1.16-1.164 0-.64-.52-1.16-1.16-1.16zm-5.482 1.135c-.64 0-1.162.52-1.162 1.162 0 .642.52 1.162 1.163 1.162s1.162-.52 1.162-1.164c0-.642-.52-1.163-1.165-1.163zm57.525.56c-.64 0-1.16.52-1.16 1.162 0 .642.52 1.162 1.16 1.162.64 0 1.163-.52 1.163-1.164 0-.642-.52-1.163-1.163-1.163zm-61.693 1.24l-1.813 10.823 7.915-8.09-2.15-.05-.43-1.846-2.01.65zm53.812 2.31c-.644 0-1.165.52-1.165 1.16 0 .643.52 1.164 1.162 1.164.64 0 1.16-.52 1.16-1.165 0-.64-.52-1.16-1.162-1.16zm5.13 1.26c-.645 0-1.165.52-1.165 1.163 0 .64.52 1.16 1.16 1.16.64 0 1.163-.52 1.163-1.164s-.52-1.163-1.164-1.163zm-63.874 1.41c-.642 0-1.163.52-1.163 1.164 0 .64.52 1.16 1.163 1.16.642 0 1.162-.52 1.162-1.16 0-.642-.52-1.162-1.163-1.162zm68.498.88l-1.893 1.437-1.74-1.062-.41 2.298-1.483.78 6.23 4.364zm4.605 3.095c-.642 0-1.163.52-1.163 1.16 0 .644.52 1.165 1.162 1.165.64 0 1.16-.52 1.16-1.16 0-.642-.52-1.162-1.163-1.162zm-65.74.39c-.64 0-1.16.52-1.16 1.165s.52 1.165 1.16 1.165c.64 0 1.16-.52 1.16-1.16 0-.64-.52-1.165-1.163-1.165zm-5.16 1.52c-.64 0-1.16.52-1.16 1.164 0 .64.52 1.16 1.16 1.16.64 0 1.16-.52 1.16-1.16 0-.645-.52-1.166-1.165-1.166zm67.92 3.075c-.64 0-1.16.52-1.16 1.16 0 .643.52 1.164 1.16 1.164.645 0 1.166-.52 1.166-1.167 0-.64-.52-1.16-1.164-1.16zm-4.87 1.04c-.642 0-1.162.52-1.162 1.162 0 .642.52 1.162 1.163 1.162.64 0 1.16-.52 1.16-1.166 0-.642-.52-1.163-1.164-1.163zm-45.005 1.654c.008 0 .015 0 .02.01.13.14.534 1.193.175 1.732-.186-.084-1.02-.862-.808-1.126.1-.123.51-.62.618-.618zm-26.38 1.82s1.125.06 1.37.165c0 .287-.27.915-.572 1.618-1.513 3.514-1.75 7.45-.21 11.247 2.42 5.15 9.25 17.34 8.74 18.454l-15.083.065.065-2.296c4.24-.167 4.908-2.76 3.85-4.903-.733-1.48-2.787-2.33-4.665-1.552-2.71 1.126-2.877 2.466-3.846 4.543l-.43-.546c.814-1.083 1.087-2.122 1.02-3.308-.066-1.163-.1-.842.306-1.48 2.36-2.537.815-5.84.815-5.84-.28-2.03 7.067-14.972 8.65-16.16zm-34.505.33c4.29 3.417 8.005 14.92 7.78 15.096-.2-.16-3.46 3.695.05 7.288 0 0-.212 2.16.46 3.27-1.55 3.217-1.82 3.46-1.953 6.103-.03-.01-.27-.032-1.708-.038-7.11-.036-7.444 9.005-.34 9.502.98.068 1.31-.153 1.9.427.596.736 1.13 1.48 2.146 1.094.24 0 .63.23 1.037.608.684.924 1.675 1.58 3.09 1.33.5.046 1.014.19 1.556.387.62.49 1.7.86 2.546.49.25-.106.735-.143 1.13.037 1.026.467 2.072.174 2.457-.12.95-.494 1.16.3 1.12 1.03-.49 1.673.58 3.242 2.2 3.857 3.41 1.056 5.133-1.043 5.87-5.21.18-.91.34-1.996.34-1.996l11.43.3L61.73 282.6l-27.94.343-.146-62.845c1.228-.072 2.154.03 3.383.028zm102.78 3.395c2.084.804 2.25 2.276.175 1.637-3.37-1.04-7 1.02-7.757 3.967-.14.54-.29.952-.375 1.056-.47.57-.45.05-.307-1.585.273-3.174 2.517-5.47 5.443-5.567.96.003 1.99.2 2.82.49zm-1.035 2.244c.873 0 1.796.254 2.486.853.78.86.55 1.43-.05 1.4-2.825-1.18-6.417.248-7.823 3.814-.863 2.188-1.02 1.015-.636-.68.705-3.065 3.04-5.33 6.024-5.387zm-19.643.843c-1.23.007-2.4.25-3 .81-1.13 1.07-.19 1.09 1.86.378 1-.344 2.92-.185 4.147.24 1.026.355 1.39.505 1.33.185-.054-.96-2.283-1.614-4.337-1.606zm23.03 3.58c.52 1.19.183 3.287-1.632 3.5-2.14.25-3.246-3.34.663-2.715-.506-1.437-2.26-1.04-3.125-.676-1.762.77-2.964 2.504-4.045 5.69-.32.943-.558 1.437-.68 1.342-.205-.158-.3-1.626.17-3.393.85-3.185 2.924-5.11 5.12-5.17 1.422-.22 3.08.39 3.53 1.42zm-30.627-1.38c-.19.04.143.71.663 1.75.288.572.484 1.32.484 1.463-.005.564.43.704 1.066.342.734-.42.85-.736 1.892-.27.98.513 1.947.84 2.842.315.485-.28.806-.27 1.745-.022 1.12.3 1.27.34 2.106-.01 1.07-.443 2.34-.14 2.61.16.258.29.108-.11.69-1.454.27-.624.655-1.383.55-1.596-.143-.29-1.117.03-2.178.307-.573.15-1.12.105-2.22-.205-2.32-.653-3.78-.465-5.234.224-.81.384-2.845-.148-4.9-.983-.05-.02-.09-.03-.12-.024zm4.56 6.21c-1.044-.018-1.993.64-2.43 1.544-.5 1.255.357 3.52 1.664 3.715 1.16.174 1.115-.536.53-.73-.888-.29-1.93-1.56-1.257-2.66.463-.76 1.864-.754 2.84.18 1.96 1.883 4.21 2.007 4.635.374.13-.653-.37-1.523-1.136-1.286-.593.184-1.964.24-3.112-.54-.595-.404-1.19-.59-1.737-.6zM136.8 241c5.01-.3 2.857 6.54-.034 4.782-1.032-.627-.575-2.932 2.17-2.89-2.692-2.096-4.527.457-3.87 3.322-.603.935-.77 2.717-1.167 3.726-.61 1.152-1.09-1.863-.48-4.777.594-2.82 1.6-4.058 3.374-4.164zm-28.33.235c-1.034.012.03 1.125.19 1.257 3.12 2.45 4.645 3.962 2.135 3.156-4.077-.972-5.127.18-8.232 1.55-.57.274-.732.104-1.42-.1-2.727-.806-2.527.905.324 2.45 4.304 2.33 7.858 2.857 11.203 1.11 2.15-1.124 2.26-.388.262.854-3.423 1.995-7.025 1.692-12.556-1.75-1.786-1.114-2.036-.37-.208.8 4.176 2.523 9.8 4.81 14.39 1.087.904-.81 1.086-1.22 1.78-.88 1.836.915 1.233-.68-.02-2.184-.44-.53-.768-.96-.74-1.323.105-1.305-.616-1.3-1.275-1.267-.788.04-.7-.224-1.666-1.284-1.41-1.55-3.13-3.207-4.166-3.484zm-41.684 6.937c-1.734.137-2.13.215-1.708 3.768.078.67.376 2.67.46 3.422 1.027 9.303.195 13.418-2.397 14.557-.93.41-1.85.26-2.53-.02-1.64-.66-2.312-2.65-1.12-5.02.32-.64.71-1.63.864-2.2.155-.57.505-1.82.773-2.78.655-2.334 1.01-5.88.624-9.27-.26-2.3-.203-2.497.37-4.05 1.26-2.294 2.074-3.47 4.726-3.497 2.964.31 3.794 4.8-.05 5.082zm63.74-.204l-.813.037c-.977-3.252-3.017-2.2-3.357.083l-.69-.007c.12-4.34 5.552-3.16 4.86-.11zm-76.19-2.43c5.536.55 6.545 1.925 6.98 8.612.04 3.236-.172 5.19-.67 5.927-.83.397-1.622-.348-2.804.402-.65.39-.526.43-.806 0-.262-.408.045-2.116.47-3.48.405-1.3-.29-2.056-2.122-3.724-.497-.45-.93-1.078-1.376-1.974-.955-2.56-1.44-1.433-.645.774.393.95.485 1.42-.71 1.01-.7-.24-1.314.046-1.855.334-1.52.388-2.83-.443-1.51-.942.8-.3 2.24-.74 2.684-.74.323 0 .48-.07.48-.22.003-.64-2.93-.57-5.164.2-2.745 1.26-2.903 1.035-2.65-.93.643-4.986 5.284-5.595 9.696-5.255zm54.15.436c1.414-.063 2.714 1.56 2.456 2.937l-.673-.04c-.32-2.59-2.77-2.7-3.42.2l-.98.03c.62-2.24 1.64-3.073 2.61-3.12zm16.46.052c.56.33.17 1.23-.425 1.41-.22.055-.93-.44-.76-.744.32-.364.81-.556 1.19-.666zm6.346.44c.39 0 .894.198.963.723.022.76-.56.61-.754.54-.38-.36-.53-1.24-.21-1.27zm-19.41.614c1.037.122 1.414 1.426.237 1.51-.53.107-.55-1.197-.24-1.51zm-6.316.142c.124.002-.068 1.072-.327 1.23-.52.31-1.17-.03-1.15-.352.06-.772.99-.883 1.47-.878zm18.112 2.6c1.976.75 4.546 1.476 6.964.63.883-.332 1.59-.728 1.587-.353 0 .39-.7.98-1.97 1.34-2.607.73-4.49.45-6.28-.9-.507-.38-.683-.73-.31-.725zm-.817 1.117c3.21 1.87 6.1 2.05 8.71.69 1.06-.37 1.09-.03 1.09.64-4.692 4.126-10.56-.157-9.79-1.34zm-78.72 2.85c-.79 1.6-1.22 5.55-2.52 6.72-8.86-.51-3.16-12.198 2.52-6.728zm54.91-1.31c-.5.26-.05 1.52.73 1.86 6.78 2.91 10.26 3.26 14.11 1.92 1.6-.56 2.47-1.86 2.55-2.5.098-.756-.933-.83-2.74-.03-5.494 2.153-8.94.473-13.38-1.196-.41-.155-.83-.208-1.26-.06zm-25.95.09l-.02 9.88-6.45-.12.077-1.46 4.83.14-.076-7.056-5.604-.05-.01-1.31 7.26-.03zm1.5.02l6.44.01.33 1.002h-6.76v-1.016zm-25.98 3.133c-.42.38-1.16.464-1.46.157-.68-.69.01-1.953 1.1-1.945 1.09.01 1.182 1.06.37 1.79zm2.97-1.606c.98.005 1.3.913.56 1.647-.5.456-.76.486-1.21.152-.57-.5-.27-1.767.656-1.8zm-6.35.245c.257-.01.48.016.647.27.593 1.21-1.35 2.05-1.755 1.15-.3-.733.456-1.396 1.11-1.42zm36.414.132l.375 1.27-7.42.034v-1.27zm-26.564.365c1.106.13.935 1.242.422 1.74-.883.813-1.74.55-1.514-.548.14-.686.586-1.182 1.09-1.195zm-5.968 3.64c-.39 1.39.44 4.205.194 4.5-.54.64-1.41.31-1.797.092-1.34-.86-1.427-5.91-.13-6.21.832.418 1.393-.33 1.774-.44.38-.11.124.58-.045 2.058zm19.615-2.074c.73 0 1.325.59 1.325 1.322 0 .73-.594 1.323-1.325 1.323-.73 0-1.322-.592-1.322-1.323 0-.73.59-1.324 1.323-1.324zm5.87.17H82.2c.454.63.408 1.06.28 1.5l-7.872.007V256.6zm-22.294.17c.345-.004.52.738.287 1.585-.418 1.53-.396 3.615-.11 4.517.194.624.384 1.05.27 1.23-.392.62-1.594.196-2.106-.622-1.245-2.31-1.05-6.628.44-6.29.56.28.88-.16 1.22-.418zm-6.693.58c-.367.587-.105 3.87-.142 4.144-.046.344-.985.167-1.51-.07-1.287-.604-.937-2.14-.686-3.38.28-.97.9-1.044 1.663-1.133.424-.046.98-.01.675.44zm10.327.18c.41-.012.468.29.374 1.507-.07.95-.11 1.763.05 2.66.33 1.91.37 2.427-.11 2.8-.568.443-1.336.31-1.93-.214-1.218-.967-1.3-5.7-.34-6.11.89.22 1.45-.485 1.96-.64zm26.22 1.435l-1.092 1.5H74.6l.005-1.493 7.56-.005zm-23.08 2.01c1.01.01.844 1.797.3 2.92-.46.675-.8.744-1.49.11-.785-.72.148-3.036 1.19-3.03zm21.19.5l-.91.834-4.745.004v-.83l5.654-.01z" fill="#131f67"/><path d="M197.306 298.544v-2.96h3.027l6.403-9.825-6.898-15.27h-2.532v-3.23h9.756v3.222h-3.138l4.822 11.923 3.513-4.62v-7.303h-2.58v-3.224h8.73v3.226h-3.04v25.092h3.033v2.96h-8.73v-2.96h2.466v-11.6l-8.17 11.604h3.084v2.96zM154.65 275.54c-7.172-2.587-10.097-11.528-6.03-20.358 5.45-11.828 13.582-19.424 19-30.583-.065 0 10.627 15.7 14.898 21.53 9.16 13.22 8.7 24.1-.173 28.39-6.372 3.08-12.905-.46-13.657-7.128-.117-1.04-.186-1.178-.67-1.18-.534-.003-.633.37-.766 1.91-.512 5.93-6.945 9.45-12.603 7.41zm44.12-23.028c2.78-6.538 6.014-10.037 9.405-16.97 2.735 5.36 7.793 11.15 9.493 16.57 1.274 4.187.283 7.595-2.45 8.61-3.178 1.18-5.56-.154-6.193-3.133-.253-1.2-.856-1.08-.888-.18-.107 2.92-3.473 4.2-6.166 3.42-1.54-.443-4.32-3.602-3.2-8.33zM48.504 225.838l-7.867-6.17c9.357-.204 18.71.012 28.067.172l-9.344 6.658c-1.914-2.09-3.044-4.9-5.76-6.254-2.02.835-3.402 3.713-5.097 5.594zm69.007-2.15c-.16-.024-.28-.037-.38-.097-.21-.13-.35-.43-.51-1.42-2.33-10.89-13.81-10.12-13.74-9.8-.08-.43 14.27-13.39 22.71-23.553 2.55 7.77 10.28 25.52 9.957 25.457 0 0-2.234.02-8.033-.125-5.277 2.384-8.95 4.704-8.776 8.064-.03 1.18-.315 1.673-.71 1.57-.055-.012-.283-.05-.507-.086zm25.78-35.055c7.47-.117 8.878-3.764 9.728-4.203 4.905-.807 7.935 2.385 10.084 5.8 2.745 1.653 2.4.127 2.97-2.447l6.834-2.002-.006 2.18c-2.11 1.14-5.24 4.05-5.24 4.05l-2.08-.12-1.193 1.59c-4.747 2.57-9.4 5.628-14.41 7.61 0 0-5.996-7.753-6.68-12.45zm-93.03.683l-.08-43.058c3.09-.218 8.777-.19 8.777-.19 2.378-4.196 5.62-6.17 8.96-8.607.47 5.31.65 10.38.543 15.69-8.85 10.8-13.765 24.1-8.31 43.96l-3.275-.36zm48.897 2.414c2.52-8.982 4.477-18.094 5.288-27.503l16.847-.25.336 5.77zm57.36-19.608l-.312-16.11c12.295-14.687 13.02-27.496 8.463-43.69 4.06.934 6.15 4.1 10.02 8.464l.002 42.01c-2.69.4-9.357.792-9.357.792-.202 1.968-5.835 6.675-8.817 8.534zm-52.056-25.39l-.75-7.104 21.89-20.907c-1.807 9.06-3.993 18.37-4.63 28.01zm-36.32-22.19c-1.562 1.025-7.32-4.96-8.263-8.982 1.446-1.95 14.12-8.16 14.12-8.16s7.407 9.507 7.104 13.472c-3.29.874-6.144 1.123-8.64 3.805-1.43.127-1.93-1.48-4.32-.134zm-9.996-8.038c1.763.284.63 2.662.36 4.404l-9.313 2.76c3.2-2.73 5.47-5.056 8.95-7.164zm30.33-21.02c1.914-.057 3.91.732 5.386.138.55-.215 1.653-.548 2.862-.32 2.783.86 3.76-2.206 5.534-2.22 2.297.007 3.57-1.6 3.586-4.818.005-1.39.12-1.548.383-1.687.783-.414 1.62.167 1.724.93 1.643 5.927 5.803 11.257 12.362 10.832-5.223 5.32-21.11 21.68-21.11 21.68-2.862-8.72-6.664-16.835-10.737-24.54zm67.586-5.106l9.57-6.945 5.725 6.97 4.954-6.636c2.91 2.085 9.53 6.733 9.53 6.733s-19.85.293-29.78-.122zm-99.79-3.545c2.013 1.424-19.177-24.29-21.62-33.382-1.83-5.35-.454-11.9 3.536-14.71 6.758-4.75 14.684-2.85 16.188 5.15.427 2.27 1.135 2 1.385.01.9-10.19 13.416-10.933 18.232-3.824 3.296 4.866 3.32 12.603-1.452 20.35-1.152 2.46-16.37 25.71-16.27 26.415zm-40.457-9.8c-2.84-5.538-7.055-11.12-9.29-16.29-1.676-4.226-.256-8.604 2.87-9.413 3.078-.798 5.313.472 5.898 3.352.2.975.588 1.048.78.145 1.158-5.446 8.84-4.268 9.367 1.436.337 3.635-.61 6.036-5.095 12.913-1.083 2.232-4.013 5.46-4.527 7.856zM17.31 42.06h3.198l-4.7-11.53-3.593 4.867.022 6.66h2.523v3.436H5.876V42.06H8.8V17.256l-2.924.006v-3h9.018v3.1h-2.49l-.055 12.09 7.87-12.19h-2.78v-3h9.59v3H24.5l-6.48 9.965 6.343 14.83h2.818l.017 3.436H17.33z" fill="#d40000"/><path d="M161.482 27.42l-87.97.564 17.095 22.832c18.162-3.697 33.972-1.295 50.38 1.57zm-2.25 1.157l-5.855 7.274c-1.62-1.46-5.236-.93-4.724 2.27-4.487-2.33-5.438 4.08-1.63 3.81-.477 1.26-4.323 1.59-5.408-.69-3.95 2.22-5.156.07-6.202-1.33 5.02 3.41 7.46-3.59 1.936-3.99 2.17-4.39-5.58-6.38-5.12-.67-5.11-1.15-3.94 6.03-.19 4.56-2.437 3.664-6.433 1.2-7.24.49-2.055 1.54-5.94 1.59-7.028-.873 5.683 1.143 5.06-6.34.014-4.617 2.69-5.748-6.26-4.974-4.085-.266-5.09-.194-3.964 6.084.507 5.016-3.974 3.743-6.95.254-7.578.18-2.354 2.594-6.485 1.172-7.05-.36 4.05 1.6 5.38-5.21.27-4.8 1.31-4.386-6.044-4.918-4.42.064-4.05-.917-4.27 5.57.265 4.56.283 1.776-3.29 3.478-5.484 1.76-1.61.88-3.372 2.255-5.47.223 3.195-.517 3.72-5.914-1.436-4.747.243-3.315-1.66-3.495-4.01-2.654l-3.765-5.1zm-60.687 8.138c-.28.617-.752 1.037-.642 1.508.09.386.487.92 1.04 1.647 4.402 5.737 13.326 5.545 16.01-.37.547-1.1.436-1.348-.223-2.283-.796-1.128.103-2.33 1.077-2.23 1.454.152 1.706 1.42 1.006 2.32-1.52 1.913 2.653 6.24 6.818 6.92 5.34.87 10.41-2.885 9.7-6.25-.04-.193-.14-.373-.18-.574-.56-2.818 3.9-1.468 2.3.327-.604.65-.93.843-.85 1.556 1.3 5.963 8.55 6.588 12 4.75-4.454 7.266-11.51 1.666-12.753-3.412-6.256 9.03-13.77 7.155-17.96-.783.495.5-8.25 14.23-18.18.15-4.2 11.33-11.862 3.67-11.34 3.21 3.52 1.96 9.915 1.25 10.53-4.81.086-.75-.482-.79-.81-1.382-1.665-2.996 3.705-3.017 2.467-.284zm-16.54.744c.795.07.928.4.796 1.21zm68.265 2.13l-1.153 1.44c-.275-.71-.283-1.36 1.153-1.45zm12.54.48c-2.736.11-4.85 3.89-4.71 8.94.066 2.44.496 8.58.663 9.49.234 1.27-.02 3-.47 3.19-1.184.48-1.63.79-1.95 1.35-.83 1.47-.144 3.127 1.61 3.87 1.25.532 2.835-.2 3.908-1.8.6-.89.74-1.286 1.27-3.52.24-1.03.22-2.74-.054-4.306-.63-3.56-.162-8 1.063-10.083 2.196-3.735 2.155-6.183-.114-6.955-.414-.14-.816-.2-1.208-.185zm-.142.57c3.185.01 3.1 3.18 1.333 4.16-.68.302-1.52.373-2.35-.17-.94-.548-.81.07.16.78 1.146.83 1.63.78 1.018 2.72-.572 1.81-.872 5.728-.56 7.953.858 6.086.134 9.12-2.43 10.177-1.26.52-2.624-.21-2.974-1.226-.55-1.586.428-2.95 2.84-2.567 0 0 .17-.506-.46-5.79-.87-7.35-.526-12.48.82-14.27.724-.958 1.655-1.778 2.61-1.774zm21.604 7.57c-.744.003-1.546.21-2.363.67 0 0-.09 3.3-.19 3.802-.54 2.796-.388 3.13.92 3.525 3.16.963 5.76-1.134 5.64-4.42-.068-1.85-1.78-3.597-4.017-3.58zm.427.44c1.72-.05 3.29 1.97 3.12 3.87-.09 2.28-2.27 3.52-4.226 3.123-.578-.088-1.176-.197-1.36-.63-.39-.605.24-.824 1.55-.818 1.44.006 1.706-.19 2.183-.997.946-1.597-.264-3.62-1.808-3.24-.527.13-.604.367.014.54 1.89.853 1.19 2.042.53 2.524-.78.576-2.07-.21-2.29-.686l.134-3.085s.625-.585 2.145-.602zm-19.49 14.29s-.72.344-1.07.665c-.766.705-.926 1.773-.55 2.823.165.465.14.543-.44 1.3-1.657 2.156-1.87 3.233-1.02 5.177.382.884.385.884.02 2.05-1.56 5.008-4.637 10.68-7.923 14.61-.51.61-.71 1.23-.71 1.23s.77-.04 1.193-.25c3.397-1.69 6.983-4.962 10.317-7.11-5.27 4.28-10.89 8.106-10.89 8.106l7.176.385c-1.8 1.85-33.26 28.503-24.907 76.313 9.82-2.44 14.39-6.49 19.624-11.18.048 3.856.132 14.224.165 14.224.1-.17-4.543-1.75-3.44 2.074.66 2.094.99 7.4-.174 10.4-.05.124.5.325.448.443-.063.137-.745.14-.745.14-1.783 3.326-6.376 4.054-8.64 3.954-.834-.08-.497 1.066-.387 1.48.42 1.712 2.398 5.38 6.08 11.268l.97.13-.56.52c.438.79 1.6 2.282 1.6 2.282l.05.506s2.02 2.818 3.108 4.14c.074.09.244-.125.318-.035.603.723 1.325 1.534 1.937 2.256.05.06-.094.26-.046.318 1.152 1.256 3.418 3.795 3.418 3.795l.45-.11 1.78 2.01c14.78-6.72 30.228-21.59 30.066-21.556l.128-31.996-17.5-.052-.074-42.387 17.484 17.28-.114-4.956c-3.967-3.77-19.9-19.85-19.9-19.85 2.32-.322 4.564-1.075 6.74-2.26 3.8 2.09 7.865 3.35 12.522 2.73l-.02-4.703c-5.285-.01-8.564-1.76-10.935-3.876l-3.266-.11c-6.03 4.585-10.293 2.46-14.88 1.556l-3.168-4.566 32.47-.16-.233-11.08-4.93.11-3.2-2.37 3.716 1.57s-.058-.61-.8-1.77c-2-3.27-4.54-8.083-6.066-12.28-.737-2.133-.735-2.045-.114-3.293.855-1.714.67-3.793-.454-4.962-.793-.823-.77-1-.51-1.612 1.056-2.43-1.49-3.324-1.5-3.17-5.435 2.1-12.73-.06-12.6-.126zm12.65.883c1.083-.01 1.2.467 1.2 1.276-.09 1.483-2.02 2.02-2.897 2.226-4.17.954-11.446.39-11.92-1.558-.347-1.43.545-2.225 3.507-1.515 4.76 1.022 7.71-.08 10.107-.433zM164.4 67.96c.433-.003.952.438 1.1 1.158.128.614-.512 2.425-1.048 2.842-1.325 1.033-2.523-.573-1.637-2.32.51-1.008 1.028-1.676 1.585-1.68zm14.235.204c.198.005.553.046.783.21 1.05.742 1.148 3.314.166 3.686-1 .378-1.93-.665-1.922-2.302.005-1.002.378-1.61.973-1.594zm-3.336.53c.21-.01.44.036.67.144.87.404 1.3 3.1.43 3.962-.677.667-2.12.63-2.548-.755-.505-1.655.284-3.292 1.44-3.35zm-7.4.077c1.28.01 1.57 2.86.32 4.04-1.05.98-2.66.02-2.15-1.93.25-.97.82-2.03 1.83-2.1zm3.64.46c1.873.32 1.714 4.92-.74 4.46-1.4-.975-1.36-4.386.74-4.454zm-8.207 4.92l2.652.25s-3.434 7.43-6.57 10.27c-1.176 1.19-1.853 1.24-.96-.03 1.967-2.43 4.877-10.485 4.877-10.485zm15.9.05c1.55 4.13 3.14 8.32 5.253 12.55-3.213-3.096-6.06-7.858-8.683-12.327zm-12.47.4l1.756.02c.585 2.676 1.596 4.38 2.785 5.847 1.03-1.74 1.68-3.65 2.31-5.684l1.396-.02c.534.32-1.64 8.38-3.772 9.363-2.258-1.833-4.16-6.786-4.476-9.524zm-.74 1.91c-.147.194 2.727 7.1 5.16 9.315 2.29-2.223 3.752-5.153 4.733-8.645l7.54 10.58-7.35-5.03c-1.468 2.438-3.026 4.764-4.897 6.7-2.017-2.182-3.763-4.77-5.594-7.232-2.837 2.1-4.826 4.346-8.508 6.306.014.08 7.212-7.764 8.913-11.995zm-.707 7.52l5.13 6.27-13.656-.196zm11.11.1l8.616 5.93-12.84.134zM107.77 87.05s.07.377.156.603c1.53 6.24 5.75 11.424 12.097 10.81L99.16 119.31s-3.444-11.69-10.423-23.674c0 0 1.27.262 2.264.455.935.14 1.64.1 2.34-.082.536-.08.94-.43 1.42-.532.805-.167 1.815.122 2.35.31 1.43.27 2.41-.53 4.204-2.117.476-.423.66-.32 1.26-.32 2.25.006 3.684-1.923 3.43-4.915l-.112-1.33-.285 1.496c-.538 2.82-.913 4.03-3.7 4.15-.678.03-.93.49-2 1.4-1.495 1.29-2.55 1.4-3.61.89-1.08-.51-1.18-.21-2.2.28-1.17.56-2.87.49-4.406.05-2.14-.61-1.88-.41-1.88-.41 12.4 22.07 16.755 43.23 16.48 62.03-.39 26.79-9.762 48.41-17.983 61.448 0 0 1.41-.143 2.668-.328.606-.17 1.072-.01 1.67.2.56.197.98.187 1.528.124.43-.05 1.474.008 2.147.104 1.523.22 1.625.02 3.286-1.596 4.715-4.58 4.408-4.41 7.824-4.3 5.126.167 9.225 3.548 10.933 9.03.217.693.5 1.666.538 1.666l-.33-1.452c-1.5-7.35-7.79-10.04-13.037-9.94l22.15-22.207c-.11.02 5.136 16.894 9.705 24.416.007.05-1.387-.6-3.935-.27-1.384.18-2.934-.004-3.805-.152-1.12-.028-1.803.302-3.198 1.45-.58.497-1.1 1.04-2.237 1.52-2.692 1.137-3.766 2.313-3.78 5.267-.002.54-.084 1.226-.075 1.49.003.07-.003.2.015.2.043 0 .106-.113.16-.19.134-.197.405-.73.614-1.97.373-2.21.838-2.982 2.93-3.96.627-.294 1.95-1.094 2.536-1.562 1.927-1.538 2.57-1.89 4.135-1.526.89.208 1.646.315 2.84.17 1.42-.172 1.505-.245 3.025.147 1.032.264 2.308.522 2.308.522-21.465-43.108-20.76-83.07.43-123.617 0 0-6.27.074-6.54.237-.1.062-.86-.006-1.692-.156-1.708-.306-1.334-.1-5.363 3.95-4.98 5.005-12.943 1.012-15.342-7.388-.126-.44-.234-.706-.423-1.017-.06-.1-.22-.265-.22-.265zm20.294 4.93c.923.098 1.61.34 1.495 1.205L100 122.126l-.46-1.865zm6.235.176c-.365.72-1.35 1.62-1.785 2.297l1.61 2-.89 1.613-2.473-2.076-4.707 4.644 3.926 4.406-3.714 3.75-1.24-1.4 1.97-2.055-3.05-2.857-5.377 5.224 4.377 4.45-3.21 3.08-1.28-1.215 1.682-1.86-2.86-2.95-5.003 5.107 3.962 4.406-3.063 3.038-1.357-1.375 1.47-1.533-2.83-2.965-5.1 5.03 4.135 4.487-3.04 2.72-1.072-1.136 1.47-1.58-2.78-2.975-3.163 2.87-.527-1.97 31.307-31.1zm1.803.46l-1.32 2.648-1.02-1.12 1.33-1.365zm-73.84.17c-.814.2-19.454 10.58-30.066 21.98L32.17 119l-.394.51.19 6.57.26.353.09 2.68-.42.708-.005 7.36.57.1.09 9.005 17.435.05-.02 43.026s-10.23-11.253-17.6-17.894l.028 5.03 19.503 20.146c-1.342.19-3.087.515-5.718 1.967-6.327-3.953-13.642-2.744-13.642-2.744l.03 5.125c4.65-.45 8.847.187 13.736 3.478 4.024-2.728 8.874-4.387 16.104-2.22 1.59 2.52 3.182 5.118 4.773 6.808l-34.53.26.043 10.38c1.533.03 5.363 0 5.363 0 1.942 3.804 5.76 9 7.344 15.533-2.176 2.612-2 4.716.115 7.347-.02 1.188-.377 2.5.958 3.82 4.393-2.146 9.354-1.193 13.045-.096 1.25.37 1.724-1.053 1.68-2.847-.11-1.025-.106-1.464.683-2.15 1.88-1.627.715-4.972.42-5.047-.11-2.934 9.294-17.63 9.3-17.36l-1.873.68-8.038.034c21.14-20.39 29.977-43.64 28.127-69.898-.413-6.615-1.443-9.646-1.443-9.646-7.447 3.31-13.567 5.715-19.51 12.08l-.396-13.683c.33.65 2.538 1.246 3.526.418.676-.44.744-.912.118-2.573-.906-2.41-1.12-7.583-.444-9.34.08-.205.15-.75.21-1.286.076-.72-.083-.76-.15-.75.173-.04.9.107.987.03 2.54-2.234 5.264-3.63 8.606-3.776l.087-1.634c-2.48-6.26-4.58-8.72-6.825-12.218 0 0-.637-.212-1.04-.13l.518-.545c-3.15-4.997-7.632-9.545-11.753-13.864.01-.014 0-.02-.025-.013zm-.14.85l2.235 2.064c-10.666 5.125-21.19 12.636-31.55 22.823l.142-3.745C44.662 103.76 53.5 98.47 62.122 93.63zm68.493 3.744l1.343 1.337-1.86 2.16 1.21 1.233-.675 1.646-3.094-3.213zm-66.58.17c.702 0 1.27.57 1.27 1.272 0 .7-.568 1.27-1.27 1.27-.703 0-1.27-.57-1.27-1.27 0-.704.57-1.273 1.27-1.273zm91.264 1.756c21.74 24.195 10.578 59.36-18.443 67.81l-.324-1.99c29.28-9.86 36.147-42.855 17.15-63.597zm-87.496.16l1.384 1.603c-12.39 5.917-24.48 14.787-36.166 27.584l-.112-3.23c10.98-11.54 22.71-19.885 34.9-25.957zm-7.996.492c.703 0 1.27.57 1.27 1.272 0 .702-.567 1.272-1.27 1.272-.702 0-1.27-.57-1.27-1.273 0-.702.57-1.272 1.27-1.272zm-3.87 2.392c.7 0 1.27.57 1.27 1.272 0 .7-.57 1.27-1.27 1.27-.704 0-1.273-.57-1.273-1.27 0-.704.57-1.273 1.275-1.273zm12.89.835c.703 0 1.27.57 1.27 1.27 0 .7-.567 1.27-1.27 1.27-.702 0-1.27-.57-1.27-1.27 0-.704.57-1.273 1.27-1.273zm55.227.877l1.275 1.342-2.018 2.02 2.87 3 2.763-2.66-1.384 3.96-24.343 24.33-.51-2.55 1.917-1.925-2.937-2.932-.518-1.955 2.89-2.706 1.21 1.244-1.69 1.95 2.72 2.676 4.937-4.546-4.075-4.475 3.366-3.255 1.163 1.134-1.606 1.656 2.832 3.07 5.068-4.854-4.16-4.4 3.344-3.296 1.262 1.21-1.687 2.02 2.88 2.786 4.966-4.9-4.08-4.29zm-71.91.853c.7 0 1.27.57 1.27 1.27 0 .704-.57 1.27-1.27 1.27-.705 0-1.274-.57-1.274-1.27 0-.7.57-1.27 1.274-1.27zm20.05.247l.97 1.608C58.407 114.22 48.2 121.685 33.1 138.84v-2.16c11.658-14.31 23.78-23.54 39.094-31.522zm-7.41.19c.7 0 1.27.57 1.27 1.27 0 .703-.57 1.273-1.27 1.273-.704 0-1.273-.57-1.273-1.276 0-.702.57-1.272 1.27-1.272zm114.167.488c2.603 2.316 8.07 4.625 11.59 4.38l.097 2.785c-6.145.58-11.51-3.35-11.51-3.35-4.735 2.88-9.55 3.245-14.574 1.994l-1.93-4.138c7.45 3.45 14.434.155 16.33-1.678zm-29.404.755c.272.5 1.19 1.082 1.19 1.082 5.732-1.492 7.52 4.416 4.845 7.79l.76 2.478c1.02.188 1.92.547 2.648 1.05 1.397.968 2.164 2.64 1.99 4.4.196 1.904-2.653 3.676-2.81 3.544l-.036 2.724c.802.665 1.77 1.31 2.382 2.256 1.37 2.3.827 4.617-1.286 6.074-1.258.85-2.62.96-2.677.872l-1.322 3.09c1.167.66 1.494 1.778 1.676 2.578.396 1.734-.82 3.992-2.348 4.826-1.93 1.05-4.558.116-4.555.117l-1.88 1.88c.48 1.628.614 2.6.36 3.554-.635 2.365-3.11 3.29-5.1 3.114-1.565-.14-2.74-1.28-2.74-1.28l-2.085.8c.055 0 .03 2.637-1.024 3.444-.33.343-1.502 1.1-1.502 1.1l-.275-1.816c.825-.594 1.338-2.034 1.17-3.09l4.5-2.2c0 .162 1.23 1.356 2.074 1.527 1.728.354 3.53-.993 3.536-2.58 0-.924-.533-1.553-.685-2.3l3.82-3.953c1.58.54 2.69.63 3.4.224 1.333-.77 1.692-2.36 1.435-3.316-.305-1.13-1.313-1.86-1.382-1.97l2.13-5.384c.995-.005 1.61-.16 2.384-.665 1.58-1.04 1.376-3.05.703-4.01-.82-1.164-2.01-1.38-2.104-1.35l.16-5.597c0 .046 2.154-1.035 2.385-2.282.34-1.836-.432-3.005-2.69-3.524-1.25-.29-1.185-.05-1.185-.05l-1.785-5.062c2.827-1.725 1.93-4.466.5-5.386-1.51-.97-3.646-.07-3.646-.07s-.973-.967-1.71-1.744zm-75.664 1.02c1.858 2.5 5.004 7.503 6.762 11.98.074.197.036 1.188.036 1.188-5.02.437-6.74 2.4-8.524 3.787-1.383-.71-1.965-1.54-4.465.024-.006.075-6.372-3.85-7.59-9.176 4.55-2.804 8.888-5.474 13.78-7.8zm-25.466.034c.704 0 1.274.57 1.274 1.27 0 .704-.57 1.273-1.272 1.273-.7 0-1.27-.57-1.27-1.275 0-.702.57-1.27 1.27-1.27zm12.06.25c.702 0 1.272.57 1.272 1.273 0 .7-.57 1.27-1.27 1.27-.7 0-1.27-.57-1.27-1.27 0-.705.57-1.275 1.27-1.275zm87.022 1.562c2.194 2.882 5.498 8.34 6.284 13.17 1.103 6.795.37 13.923-2.75 18.91-5.654 10.646-15.46 12.913-15.465 13.284l-.1-2.183c.093.49 7.494-2.625 12.532-9.663 3.11-4.77 4.878-11.587 4.276-16.907-.376-7.664-5.816-14.733-5.86-14.76zM44.458 110.5c.703 0 1.272.57 1.272 1.27 0 .702-.57 1.272-1.273 1.272s-1.27-.57-1.27-1.275c0-.702.564-1.272 1.27-1.272zm12.043.02c.704 0 1.274.57 1.274 1.27 0 .7-.57 1.27-1.272 1.27-.7 0-1.27-.57-1.27-1.27 0-.706.57-1.276 1.27-1.276zm108.576 2.142c2.822.303 6.273 5.42 9.414 8.34l.03 41.71-9.38.19c-1.22 2.93-4.055 5.83-8.57 8.694l-.004-15.63c15.39-16.492 11.2-34.54 8.504-43.308zm-124.07.472c.7 0 1.27.57 1.27 1.27 0 .704-.57 1.273-1.27 1.273-.703 0-1.273-.57-1.273-1.272 0-.702.57-1.27 1.273-1.27zm11.59.227c.703 0 1.272.57 1.272 1.278 0 .702-.57 1.272-1.27 1.272-.703 0-1.273-.57-1.273-1.275 0-.702.57-1.272 1.273-1.272zm119.094.1l19.18 19.34-.07 2.84-21.612-21.96zm-112.06 1.82l.505 2.43c-.62-.97-.644-1.33-1.718-1.5zm-10.385.71c.702 0 1.272.57 1.272 1.27 0 .7-.57 1.27-1.272 1.27-.702 0-1.272-.57-1.272-1.27 0-.7.57-1.27 1.273-1.27zm-11.488.357c.703 0 1.272.57 1.272 1.272 0 .7-.57 1.27-1.275 1.27s-1.27-.57-1.27-1.273c0-.702.564-1.272 1.27-1.272zm107.905 0l3.788 2.68-1.235 4.836-3.877-3.482zm-87.5.394l.673.4-.783 3.305-8.716 3.146c2.803-2.39 5.684-5 8.826-6.85zm1.428 1.536c.62 2.452 1.963 6.076 3.61 9.146-1.118.58-5.14 2.857-5.13 3.916.568 1.917 4.817 3.677 4.817 3.677-1.616 2.613-3.14 5.69-4.398 9.23-.728-1.235-.81-6.11.752-8.137-1.543-.608-3.653-1.998-5.257-3.435 1.033-3.66 5.443-5.843 5.636-5.87-.08.184-1.303-7.647-.04-8.52zm-14.15.617c.702 0 1.27.57 1.27 1.273 0 .702-.568 1.272-1.27 1.272-.703 0-1.272-.57-1.272-1.272 0-.702.57-1.272 1.27-1.272zm97.08.106c5.66 10.54 2.294 19.693-6.732 26.254l.21-2.486c6.226-4.52 10.26-13.413 5.712-21.894zm-107.822.3c.7 0 1.27.57 1.27 1.27 0 .7-.57 1.27-1.27 1.27-.703 0-1.273-.57-1.273-1.27 0-.7.57-1.27 1.272-1.27zm90.51.064c-4.154 15.477-4.05 22.57-4.533 26.766l-16.118.14-.63-5.58zm-64.395.427s3.497 3.246 6.634 6.08l-.374.74-3.05.41c-2.337-4.597-3.21-7.227-3.21-7.227zm-2.893 1.7l.02.006.2 2.306c-1.05-.04-12.383 4.7-21.09 12.26 1.297-2.287 3.486-4.48 5.6-6.35 4.5-4.42 15.27-8.22 15.27-8.22zm-16.112.53c.703 0 1.27.57 1.27 1.27 0 .7-.567 1.27-1.27 1.27-.702 0-1.27-.57-1.27-1.27 0-.704.57-1.274 1.27-1.274zm7.137 1.444l.647.665-3.01 1.557zm20.975.68c.04-.003.085-.002.13.004.463.056.66.28.923.5-.59-.12-1.167-.19-1.717-.16.138-.165.376-.334.664-.345zm-11.51.478l.274 1.726c-6.52 3.707-14.28 7.212-25.57 17.884v-3.55c7.086-6.56 15.35-12.066 25.296-16.055zm8.772.16c.407.1.77.11 1.14.02 0 0-.238.47-.518.48-.297.01-.622-.495-.622-.495zm2.766.1c.82-.05 1.38.7 1.212 1.67-.63 3.276-.604 6.59.07 8.91.53 1.803.663 2.44.225 2.74-3.843 2.65-5.952-9.305-2.74-12.695.434-.41.86-.6 1.232-.622zm-31.4.42c.7 0 1.27.57 1.27 1.27 0 .706-.57 1.275-1.27 1.275-.703 0-1.273-.57-1.273-1.272 0-.7.57-1.27 1.272-1.27zm110.495.296l2.393 4.01-3.33 3.73-2.027-4.333zm-82.295 2.178l-.126 1.384c-1.718.52-3.215 1.26-4.503 2.352-.25.212 3.98 2.12 4.42 1.68l-.01 1.474c-.06.482-6.99-1.72-7.46-3.36.787-1.095 5.17-3.636 7.673-3.537zm-31.546.735c.7 0 1.27.57 1.27 1.27 0 .7-.57 1.27-1.27 1.27-.703 0-1.273-.57-1.273-1.27 0-.7.57-1.27 1.27-1.27zm18.904 1.46c-.494.936-1.22 2.178-1.36 3.535-4.758 2.884-9.635 5.578-15.57 12.193l-3.197-.02-.07-.838c6.484-6.186 13.504-11.52 20.194-14.87zm12.25.4l.03 1.74c-1.104.016-1.71-.345-2.532-.762.69-.44 1.23-.874 2.5-.978zm35.78.186l.89.935-.555.52zm-48.18 3.62l1.76 1.097c-4.534 2.366-9.305 5.86-13.434 10.425H38.8c4.404-4.773 9.15-9.056 15.16-11.52zm93.91 1.258l.35 4.736-4.42 2.42.084-4.995zm-84.1.02l3.04.33.315 1.287c-2.55 1.625-4.77 3.528-6.893 5.506.815-2.54 2.086-5.062 3.54-7.12zm-7.293.507l1.306.6-.518 2.23c-3.726 1.655-6.695 3.89-9.874 6.907h-3.58c3.133-3.357 8.343-7.583 12.664-9.736zm11.318 2.09c.01 0 .017 0 .016.008l.472 14.596c-13.14 15.38-12.425 30.25-8.594 43.74l-2.51-.112c-2.912-3.615-6.785-7.3-6.785-7.3l-.01-42.46 9.06.035c2.136-4.94 8.01-8.46 8.346-8.5zM57.1 140.1l.11 1.946c-1.875 1.11-3.465 2.335-4.83 3.648h-3.41c2.353-2.188 4.688-4.392 8.125-5.594zm30.884.954l.498 2.296c-30.492 11.03-36.002 43.094-18.006 65.105l-1.224 1.366c-20.664-22.19-11.595-58.43 18.733-68.76zM57.34 143.35s.167 1.76.22 2.343h-3.42c.767-.9 1.45-1.834 3.197-2.344zm85.808.735l-1.964 4.58-5.243.08 2.39-4.58zm-33.19 3.136h4.778v4.57h-4.78zm-20.68.45l.082 2.01c-2.124 1.08-1.59 2.8-2.122 2.77-1.305.33-4.745 2.16-4.745 2.16-1.22-1.104-2.867-.825-3.63-.29-1.06.697-1.295 2.31-.993 3.68l-3.648 4.266c-1.763-.752-3.48-.705-4.338.47-.965 1.327-.6 2.973.997 4.817l-1.99 5.1c-.23-.304-3.55.67-3.6 2.648-.05 2.093 2.75 3.457 2.75 3.617l-.13 5.63c-.124-.272-2.855.84-2.485 3.538.34 2.485 3.72 2.18 3.79 2.39l1.837 5.385c-.123-.164-2.49 2.152-1.04 4.342 1.21 1.826 4.718.645 4.69.527l.97 1.37-1.076 1.162s-.466-.557-.727-.507c-2.043.39-4.325-.08-5.42-1.71-1.49-2.3.173-5.893.7-5.863l-1.26-3.104c-2.3-.046-4.25-2.1-4.35-3.82-.22-3.603 2.74-5.11 2.746-5.087l.087-3.36c-.18.203-2.92-1.742-2.855-3.974.044-1.63 1.42-3.55 3.11-4.325.49-.23 1.25-.593 1.25-.593l1.145-2.75s-1.62-2.34-1.2-4.7c.777-3.57 5.43-3.325 6.167-2.98l2.16-2.703c-1.065-2.47.77-5.334 3.172-5.8 1.066-.17 4.056.536 4.056.536l2.766-1.43c-.048-1.51 1.6-2.494 3.13-3.415zm15.73 5h4.095v4.57h-4.096zm10.91 0h4.616v4.57h-4.617zm-26.308 1.15l-.05 1.747c-26.432 12.82-15.62 39.357-11.85 42.445l-.85 1.874c-4.64-2.822-16.596-33.445 12.756-46.065zm20.35 4.623h4.97l.044 4.69H110zm-21.492 2.28l-1.576 4.274-4.855.41 1.793-4.266zm99.187 3.126l3.323.02c-6.21 7.26-12.91 12.21-19.527 14.92 0 0-.02-.646.18-1.157.16-.407-.1-1.43-.1-1.43 7.356-3.62 12.406-7.828 16.126-12.357zm-17.02.06c-.854 1.028-1.83 1.933-3.04 2.603l-.48-2.647c1.016-.01 3.52.044 3.52.044zm5.847-.056c.336.847-8.717 5.735-8.75 5.32l.024-1.627 4.886-3.623zm1.955 0h.02l2.55.016c-2.303 3.63-14.475 10.22-13.97 9.292l.49-2.656c3.926-1.724 7.487-4.07 10.91-6.65zm4.296 0l3.354.016c-5.044 6.404-10.16 8.743-15.07 11.5-.295-.044-.162-.155-1.08-.128l-1.68-1.31c.314.287 11.28-6.14 14.477-10.078zm-93.81.23l-.114 1.935c-7.06 6.07-9.89 13.823-6.22 22.824l-.874 1.92c-3.95-9.604-2.782-18.935 7.204-26.68zm32.132.303l.376 5.226-21.91 21.32c3.337-11.914 4.26-19.105 5.155-26.52zm70.155 1.23l.01 2.9c-8.637 9.514-17.342 13.778-24.863 15.5l-.17-1.115 3.48-2.144c11.225-4.89 16.14-9.81 21.545-15.14zm-26.213.08c.153 2.093-1.712 6.05-3.845 8.28l-3.653-.01-.407-1.585c3.03-1.632 5.835-3.843 7.903-6.687zm1.104.622c1.34 2.16-.67 7.745-.752 7.524-.16.383 11.48 2.843-.48 8.6.26 1.692 1.383 5.304.52 7.535-.27-.853-2.35-6.65-3.96-8.13 3.734-1.065 6.423-3.35 6.13-4.1-.605-1.07-2.277-2.387-5.09-3.35 2.395-3.32 3.107-5.818 3.635-8.08zm-85.48 1.056l.377 4.405-4.252 2.56-.327-4.836zm73.966 4.09c.33.004.643.09.796.256 2.1.85 2.25 11.096.347 12.138-1.386.87-2.36-.53-2.31-.777.916-4.713.342-7.626-.04-10.922.04-.48.652-.7 1.205-.69zm36.625.15v3.645c-12.346 12.8-25.65 22.887-39.23 28.55l-1.24-2.1c16.496-7.627 30.288-18.51 40.47-30.093zm-2.17.334c-5.717 7.96-12.684 13.16-22.23 15.516l-.18-2.257c11.888-2.7 22.72-13.26 22.41-13.26zM33.4 173.23c7.448 7.616 15.08 15.16 22.662 22.977l-3.014.158-19.74-20.48zm88.664.38l.266 1.88-2.17 2.378 3.427 3.68.176.87-2.942 3.074-1.33-1.313 1.63-1.83-2.76-2.908-5.12 4.924 4.22 4.58-3.18 3.026-1.253-1.295 1.627-1.88-2.827-2.983-5.22 5.19 3.948 4.36-2.632 2.914-1.246-1.315 1.354-1.55-2.86-2.947-5.017 4.83 4.128 4.565-3.353 3.34-1.3-1.262 1.88-2.05-3.093-2.946-2.482 2.345s.938-2.326 1.074-2.72c.2-.577 1.023-1.034 6.24-6.18 6.228-6.2 12.615-12.01 18.83-18.78zm35.72 1.254c1.82.03 4.917.47 6.42 1.263 2.79 1.472 1.912 2.63.1 3.493-2.167 1.032-3.944 1.537-6.39 1.61l.07-1.2c1.42-.345 2.895-.69 4.15-1.387.865-.478 1.088-.863 1.088-.863s-.844-.855-2.184-1.342c-.98-.357-2.382-.355-3.145-.48zm-81.46 1.585l2.29 3.43-2.714 4.55-2.605-3.926zm46.23.37c.08.64.9 3.16.47 2.67l-1.525-1.714zm35.372.33c1.266.107 2.6.145 3.525.593-1.07.832-2.29 1.02-3.5 1.224zm31.795 1.72c.77 0 1.39.62 1.39 1.384s-.62 1.385-1.386 1.385c-.766 0-1.386-.62-1.386-1.386 0-.766.62-1.386 1.385-1.386zm-71.502 2.4l1.18 1.143-1.527 1.78 2.77 2.917 3.433-3.21.455 2.04-32.14 31.625-1.784-.128 2.045-2.417-2.325-2.375.955-1.71 2.74 2.44 5.026-4.806-4.07-4.29 3.482-3.572 1.313 1.133-1.995 2.164 2.908 2.97 5.26-5.172-4.115-4.474 3.28-3.13 1.207 1.144-1.528 1.618 3 3.125 4.43-4.614-4.034-4.44 3.586-3.486 1.1 1.1-1.65 1.842 3.01 3.117 4.836-4.965-3.98-4.318zm68.29.825c.764 0 1.385.62 1.385 1.385s-.62 1.387-1.386 1.387c-.765 0-1.386-.62-1.386-1.386s.62-1.384 1.388-1.384zm-26.127.06c2.184 2.564 3.497 5.416 3.76 8.485-1.744-2.645-3.964-4.992-6.87-7.03l.497-1.286zm30.824.21v3.094c-9.74 11.03-21.56 19.346-33.694 25.134l-2.066-2.51c14.354-6.41 24.74-14.367 35.758-25.72zm-14.326 2.16l-3.946 3.065-.002-1.33 3.953-1.735zm-20.345.23c3.36 1.64 6.18 4.41 7.858 8.52-4.59 2.88-9.624 5.212-14.424 7.535-2.3-3.712-4.62-7.19-6.44-11.966 7.4-.058 9.433-4.1 9.485-4.13 1.785.672 2.16.752 3.527.04zm26.596.6c.69.014 1.38.542 1.404 1.334 0 .766-.62 1.386-1.386 1.386-.766 0-1.386-.62-1.386-1.386.15-.953.76-1.343 1.37-1.33zm-10.245.91l.01 1.34c-1.89 1.655-5.56 4.336-5.56 4.336l-1.52-.08.495-3.795c2.3-.46 4.525-1.133 6.574-1.8zm-96.69.16l3.628 2.98-1.11 4.62-3.57-2.71zm48.686.87l.338 1.34-29.783 29.44-1.695-.274zm54.948 1.14c.766 0 1.387.62 1.387 1.385s-.62 1.386-1.387 1.386-1.385-.62-1.385-1.383c0-.766.62-1.386 1.385-1.386zm11-.01c.163 0 .356-.012.356.143v2.55c-.145.05-.302.08-.465.08-.765 0-1.277-.62-1.277-1.386s.62-1.386 1.384-1.386zm-3.36 3.09c.764 0 1.384.62 1.384 1.385s-.62 1.385-1.383 1.385c-.767 0-1.388-.62-1.388-1.386 0-.768.62-1.388 1.384-1.388zm-11.644.013c.766 0 1.386.62 1.386 1.386 0 .764-.62 1.384-1.39 1.384-.765 0-1.385-.62-1.385-1.382s.62-1.387 1.386-1.387zm-10.016.427l1.423.05-2.646 1.576c.485-.607.94-1.073 1.223-1.622zm25.395.65l.02 2.85c-6.816 6.81-15.42 13.876-28.57 20.685l-1.68-1.697c10.724-5.116 20.79-12.282 30.226-21.835zm-19.347 1.555c.767 0 1.387.62 1.387 1.386 0 .763-.62 1.383-1.386 1.383s-1.385-.62-1.385-1.385c0-.768.62-1.388 1.385-1.388zm12.32.105c.766 0 1.386.62 1.386 1.385s-.62 1.386-1.385 1.386-1.385-.62-1.385-1.386.62-1.385 1.384-1.385zm-137.99 5.56c4.7-2.73 8.48-3.05 13.865-2.226l1.61 3.175c-5.244-.93-10.77-.85-15.493 2.8-4.892-3.097-8.61-3.99-12.63-3.487l-.073-3.347c5.24-.73 9.94 1.064 12.727 3.08zm121.846-3.018c.766 0 1.386.62 1.386 1.384s-.62 1.386-1.383 1.386-1.385-.62-1.385-1.387.62-1.387 1.386-1.387zm12.67.57c.765 0 1.385.62 1.385 1.384 0 .765-.62 1.385-1.385 1.385-.767 0-1.388-.62-1.388-1.38 0-.77.62-1.39 1.387-1.39zm-16.835 2.067c.765 0 1.385.62 1.385 1.386 0 .765-.62 1.385-1.387 1.385s-1.39-.62-1.39-1.38c0-.77.62-1.39 1.39-1.39zm12.917.803c.766 0 1.387.62 1.387 1.39 0 .76-.62 1.38-1.386 1.38-.763 0-1.383-.62-1.383-1.385s.62-1.386 1.386-1.386zm-17.187 1.648c.776 0 1.405.63 1.405 1.405 0 .777-.63 1.405-1.405 1.405s-1.404-.63-1.404-1.405c0-.776.628-1.405 1.403-1.405zm13.485 1.163c.766 0 1.386.62 1.386 1.39s-.62 1.386-1.384 1.386-1.387-.62-1.387-1.386c0-.767.62-1.387 1.385-1.387zm-17.59.96c.766 0 1.387.62 1.387 1.39s-.62 1.385-1.387 1.385c-.766 0-1.387-.62-1.387-1.384s.62-1.39 1.385-1.39zm-61.252 1.257l3.446 3.155-3.563 3.578-1.305-1.253 1.984-2.073-1.343-1.805zm75.02.307c.766 0 1.386.62 1.386 1.387 0 .762-.62 1.383-1.385 1.383-.766 0-1.386-.62-1.386-1.386 0-.767.62-1.387 1.385-1.387zm-3.99 2.347c.767 0 1.387.62 1.387 1.383s-.62 1.385-1.385 1.385c-.766 0-1.386-.62-1.386-1.387s.62-1.385 1.386-1.385zm-4.334 2.35c.766 0 1.386.62 1.386 1.387 0 .764-.62 1.384-1.386 1.384-.766 0-1.386-.62-1.386-1.38s.62-1.385 1.385-1.385zM89.68 214.2l1.124.918-1.766 2.124-1.348-.015zm-21.766 5.73c-3.927 1.947-5.79 3.178-8.53 5.56l-3.926-5.442zm-26.72.04l10.46.15-3.477 4.92c-2.293-2.42-4.62-4.06-6.98-5.07zm12.456.538c1.134.36 4.1 4.586 5.495 6.893 2.976-2.36 5.888-5.004 9.065-6.43-3.777 3.99-7.093 8.12-9.452 12.11-.67-1.8-2.53-6.95-4.886-9.19-3.717 3.47-5.186 7.66-5.186 7.66-2-3.41-4.406-6.82-7.19-10.016-.46-.623 3.39 1.77 7.202 5.48 1.075-2.705 3.95-6.404 4.96-6.51zm-12.56 2.655c1.796 1.427 6.68 7.692 7.24 11.46l-2.338.147c-1.245-3.87-3.335-7.74-4.903-11.61zm26.007.64c-1.768 3.628-3.962 7.332-5.537 11.346l-2.31-.1c2.53-5.53 3.452-6.546 7.847-11.248zM53.84 225.42c.022-.003.042.003.057.014 2.195 3 3.23 5.913 3.885 9.458l-1.7-.066s-1.184-3.558-1.997-4.815c-.528-.77-.95-.67-1.32-.03-.84 1.506-1.153 3.01-1.623 4.65l-1.955-.14c-.363-2.688 3.963-8.995 4.65-9.064zm-.31 10.33c.796.01 1.626.87 1.62 2.383.06.71-.49 2.28-1.087 2.36-1.108.59-2.418-1.237-2.088-2.76.28-1.3.855-1.99 1.556-1.983zm-3.846.285c1.57.14 1.908 3.66 1.272 4.38-.733.724-2.664.21-2.847-1.044-.63-1.592.52-3.32 1.57-3.33zm7.738-.02c1.71.24 1.28 4.104.395 4.672-1.376.727-2.423-.488-1.96-2.305.374-1.465.93-2.335 1.563-2.37zm3.953.64c1.958.22.826 3.622-.03 4.315-1.24.968-2.44-.48-1.845-2.207.462-1.34 1.23-2.118 1.875-2.11zm-15.804.105c1.43.228 2.25 3.45 1.4 4.37-.44.53-1.73-.24-2.31-1.124-.707-1.06-.045-3.25.917-3.245zm15.16 7.02c.17 1.69-1.1 1.69-4.78.867-1.86-.417-5.15-.154-6.832.152-2.832.51-3.232.31-3.227-.84.006-1.34 1.593-2.098 5.266-2.21 2.628-.08 9.17-.108 9.578 2.025zm5.72-.993c-4.38.412-5.54 5.9-5.06 7.93.39 3.388.22 6.938-.43 9.27-.463 1.676-.88 3.46-1.633 4.978-1.152 2.296-.855 3.998.854 4.913 1.403.75 3.13.494 4.214-.67 1.96-2.102 2.19-6.566.993-16.692-.423-3.573-.196-4.285 1.538-4.084 3.64-.03 3.494-5.638-.464-5.643zm-.52 4.612c-.98-.38-1.644.51-1.514 2.72.037.985.21 2.09.335 2.97 1.415 9.718.885 16.227-2.1 16.547-2.597.415-4.356-1.497-3.09-3.475.72-1.12 1.338-1.272 2.734-.683 1.92 1.19 1.44-.545-.29-1.823-1.107-.78-1.192-.78-.597-3.233.802-3.308 1.073-5.667.778-9.85-.412-2.96.577-6.886 4.344-7.117 3.81-.115 2.66 5.295-.6 3.937zm-26.89 12.79c1.24.597 2.445.495 3.625.01.46-2.066.49-3.785 1.88-6.594-2.316-2.32-6.213-1.41-7.31 1.02-1.1 2.43-.076 4.652 1.806 5.56zm3.715-7.17c1.405.297 1.195 1.77-.126 1.29-3.15-1.483-5.718 2.98-3.176 4.66 1.3.725 1.87.31.586-.688-.53-.608-.396-.855-.078-1.463.66-1.227 3.057-1.03 2.89-.138-.55 2.826-.91 3.642-1.758 3.648-4.89.253-5.81-8.9 1.66-7.312zM84.3 258.1s-14.57 16.47-21.586 24.908l87.95-.407-16.736-23.087c-14.356 3.313-31.224 2.356-49.626-1.41zm-.438 5.263c2.197.023 4.696 1.62 6.857 6.937.116.05 9.67-14.51 17.944.565 1.35-3.385 9.146-12.21 18.15-.883 3.2-7.583 10.58-5.018 11.27-2.374-.153-.57-7.03-2.2-10.005 2.824-.55 1.064-.58 2.073.05 2.67 1.487 1.41-.132 3.43-1.826 2.28-.66-.446-.743-1.387-.24-2.065 1.498-1.116-1.564-4.58-4.083-5.83-3.454-1.71-8.274-.956-10.592 1.5-1.244 1.32-2.006 2.508-2.19 3.457-.095.44-.036.67.226.965 1.003 1.21.34 2.87-1.02 2.67-1.78-.265-1.544-1.93-.35-2.84.363-.18.225-.396.115-.707-3.256-9.16-15.38-7.414-16.69-1.07-.05.23-.15.47-.1.71.136.606.49 1.12.354 1.595-.555 1.946-2.992 1.39-3.103-.227-.05-.735.745-.956 1.13-1.626.235-.42.34-.936.12-1.4-3.286-6.886-8.926-5.446-11.725-3.89-.06.032 2.506-3.304 5.716-3.27zm-3.644 3.99c1.203-.043 2.296.55 3.318 1.732 3.443-1.824 5.892 1.33 5.485 1.634-4.88-3.166-6.46 4.21-1.656 3.93-2.11 4.366 5.43 6.24 4.584.656 4.655 1.624 5.423-4.766.71-4.67 1.522-2.636 5.476-1.91 7.15-.26 1.965-2.4 6.793-.11 7.272 1.942-5.417-2.775-5.96 5.703-.718 3.9-1.553 5.396 6.784 4.63 4.48-.024 5.19 1.71 4.485-6.05-.62-4.48-.31-.4 4.036-4.89 7.195-.67.426-.745 5.357-3.176 8.055.643-5.846-1.98-4.74 5.89-.55 4.326-1.12 5.216 6.44 4.37 4.51-.074 5.855 1.48 3.262-7.443-.855-4.148.67-3.587 5.594-2.1 5.54-1.548 0 0 2.616-2.826 5.543-.758-4.575.384-3.02 6.553 1.303 4.797-.044 2.093 1.696 3.48 4.05 2.77l3.697 5.168-84.307.53 6.734-8.025c2.254 1.864 4.59.984 4.877-1.936 4.906 3.004 6.18-4.138 1.578-4.447.936-.637 1.808-.963 2.63-.992zm-4.71 2.32c.29.206-.105 1.2-.75.91zm65.736 2.074c.25.36.43.59.68.95.12.32-1.314-.17-.68-.95z"/></svg>