<svg xmlns="http://www.w3.org/2000/svg" width="224.225" height="312.808"><path d="M7.734 46.564v-2.737h2.66l5.665-29.27h3.22l6.24 29.27h2.144v2.737H20.35v-2.737h1.977l-.787-4.486h-7.386l-.57 4.49h1.977v2.74zm13.178-10.416l-3.21-15.67-3.006 15.67zM216.49 266.244v2.737h-2.66l-5.664 29.28h-3.223l-6.243-29.27h-2.147v-2.74h7.318v2.738h-1.97l.79 4.486h7.387l.57-4.485h-1.977v-2.737zm-13.177 10.416l3.21 15.67 3.006-15.67zM8.78 61.253c-1.583-3.473-1.757-9.406 2.97-10.208 3.563-.46 5.012 1.198 5.3 3.74.143.745.562.79.695-.057.205-2.61 2.788-4.132 4.807-3.75 5.526.946 5.204 7.03 3.398 11.156-2.73 5.48-5.6 8.937-8.245 14.452-3.038-5.74-6.507-10.405-8.925-15.333zm91.283 66.404c7.144-.474 10.868 5.628 11.595 10.437.433.764.67.548.837-.043.35-6.17 5.875-11.22 10.992-10.53 8.328.11 13.39 9.38 11.967 17.22-1.74 9.59-6.9 15.35-10.808 21.3-4.42 6.15-10.373 15.04-12.29 19.318 0 0-6.048-9.204-13.917-20.03-5.27-7.237-9.48-15.08-9.87-21.834-.45-7.716 2.72-14.632 11.49-15.83zM197.16 251.94c-1.584 3.472-1.757 9.405 2.97 10.208 3.563.458 5.012-1.198 5.3-3.742.143-.743.562-.79.695.058.205 2.61 2.787 4.133 4.807 3.75 5.526-.945 5.204-7.028 3.398-11.155-2.73-5.48-5.6-8.94-8.245-14.46-3.038 5.74-6.507 10.404-8.926 15.332z" fill="#d40000"/></svg>