<svg xmlns="http://www.w3.org/2000/svg" width="224.225" height="312.808"><title>Vectorized Playing Cards 1.0</title><path d="M193.206 24.937l-163.196.08.982 262.017 163.78-.342c-1.27-87.36-1.39-174.553-1.566-261.755zm-19.253 2.205l17.21.087v100.82s-1.07-.03-.972-.74c.14-.95-.01-2.718-.67-3.46-.28-.316-.73-.81-.91-1.168-.45-.9-1.195-1.833-1.79-2.085-.296-.125-.64-.195-.684-.4-.042-.19-.14-.818-.265-1.396-.317-1.447-.6-1.402.323-2.84 3.19-4.99 4.42-9.58 4.016-14.13-.126-1.42-.483-3.262-.65-3.515-3.084 3.09-5.316 6.91-7.414 9.73-.47-4.03-.4-7.074-.47-10.305 1.646-.47 2.642-1.343 3.35-3.585 0 0 1.765 1.383 2.846 1.186l-.71-2.604c4.72-1.45 5.366-7.61-.21-8.91l.502-3.245s-1.682.565-2.422.926c-.368.154-.46.03-.718-.5-2.6-4.047-6.64-3.186-8.42.802l-2.178-.924c.236 1.102.517 2.222.318 3.33-4.57 2.03-3.44 7.6.21 8.33l-.32 2.6 2.743-.888c.4 1.222.195 1.928 2.388 3.304-.05 5.45-.14 8.856.03 13.7-2.86-2.93-5.62-4.96-10.452-6.455 0 0-.044 1.174.237 2.957.096.587.078.5-.2.5-.63-.014-3.46-4.57-3.46-4.57s-.33.004-.618.29c-.336.334.435.952 1.52 2.56 1.27 1.884 1.145 1.804.15 2.65-5.665 4.805-13.844 23.094-12.47 24.873-3.58.214-17.53 7.055-20.067 21.16-.15.635-.45 1.46-.45 1.46l-4.034-1.002c2.433-11.55 7.925-35.042 7.925-35.042s3.864-1.1 6.12-1.34l-.02-.91-5.316 1.24.254-2.014 5.02-.987-.017-.478-5.31.714.865-3.352s-11.924 1.753-16.195 1.624c.27 13.034-.76 23.86-.205 37.908l-5.83-3.532c-.52-9.78-.675-34.48-.675-34.48l-16.098-2.53.533 3.88c-13.343-5.285-26.733-10.15-36.59-20.49 6.07-4.66 16.2-9.28 16.2-9.28l-.33-.74C54.66 98.716 45.41 107.634 32.9 118.7l-.338-91.47 67.96-.035-.226 16.682s-.09.432-.217.583c-.84 4.04 1.55 11.214 1.07 14.707.22 1.078.14 3.082.14 3.082-4.06 5.55-6.21 10.83-8.015 17.29-.7.28-1.73.85-2.456 1.04l-.207.88c1.592-.876 6.106-2.303 6.106-2.303 20.11 9.804 34.89 7.404 50.705.12-2.52 8.852 2.96 20.11 11.98 22.475 1.03.27 2.8.5 3.81.235 1.01-.29-2.273-7.802-3.727-8.084-4.36-1.888-6.15-6.323-5.69-11.41l-.72-1.213c-1.487 6.18 2.09 12.454 6.996 13.986l1.32 2.88c-8.895-2.67-12.683-11-9.722-19.235.05-5.14-3.28-7.41-4.807-9.625-7.737-2.95-9.174-10.114-7.82-15.905 3.6 1.534-2.428-5.083-2.428-5.083-2.654 5.745-3.76 13.01 2.305 20.37-3.926 5.2-8.987 9.315-14.645 12.83-8.27 4.314-14.473 1.407-18.47-8.15-2.396-5.736-3.255-11.456-3.243-17.446.013-3.71.055-3.82 1.444-3.19 1.308.59 4.14.674 5.83-.2 2.304-1.19 2.195-.465-.313 2.114-.68.7-1.41 1.334-1.41 1.47-.004.76 1.07.12 2.6-1.398.56-.555.97-1.088 1.146-1.08.2.01.183.722-.047 1.493-.09.295-.37 1.545-.63 2.773-.256 1.23-.61 2.67-.78 3.208-.68 2.13-.495 3.12 1.548 4.1 1.08.52 2.92 2.288 2.905 2.288 0 0-.44-1.938-.277-2.56.196-.75 1.086-.22 1.992.213 2.003.96 3.17.99 4.245.09 1.484-1.24 1.06-4.02-.776-4.746-1.346-.532-1.58-.04-.24.898 2.02 1.408-.255 3.58-1.97 2.23-1.336-1.05-3.66-1.17-3.92-.29-.246.83-.5.68-1.426.14-1.44-.843-1.454-.99-.247-5.635 2.286-8.795 2.062-12.025-.968-14.697-2.245-1.977-5.95-2.896-9.79-.697v-3c5.64-2.253 9.743-5.983 13.052-12.226h.645c3.3 7.135 8.624 12.26 18.645 16.017 3.915 3.867-4.963-11.1-2.13-4.973-5.316-2.06-10.056-6.05-12.664-11.044h1.45c1.526 2.207 4.62 6.234 10.13 9.015.5.42.984-.012.984-.012s-4.622-7.243-5.38-8.967l46.19-.327c-1.465 11.25-3.53 23.47 4.593 45.38-3.81-2-19.085 2.26-16.396 3.1 1.35-1.56 11.083-3.86 18.285-2.16-.596-.515-10.984-24.62-4.94-46.09zm4.94 46.087c.014.01.026.01.03 0l-.03-.01zm-35.683 43.4l.04 1.76.362-.086-.212-1.715zm-41.7-89.445h2.02c-.444.916-1.094 1.602-2.085 2.167zm3.48 0h2.18c-1.698 2.705-3.505 4.344-5.686 5.625l.04-2.12c1.26-1.104 2.46-2.246 3.465-3.505zm3.607 0h2.013c-2.73 4.197-5.535 7.015-9.125 8.8V34.27c2.216-1.724 5.36-4.26 7.112-7.084zm3.072 0h1.624c-2.8 5.332-6.7 9.014-11.81 11.062v-1.28c5.596-2.985 8.046-6.315 10.183-9.783zm4.45 0h1.95c2.683 5.33 8.256 10.373 14.375 12.584l.935 2.16c-8.067-2.895-13.41-7.12-17.265-14.745zm5.66 0h1.39c1.468 2.046 3.247 3.71 5.326 5.09l1.266 2.452c-2.807-1.89-5.94-4.18-7.99-7.543zm2.542 0l1.56.082 2.065 3.442c-1.376-.775-2.418-2.348-3.626-3.527zm-1.79 13.84c-2.14-.01-4.088.58-5.497 1.73-1.49 1.213-.394 2.535 1.75 1.54 3.65-1.693 7.84-.93 12.36 1.546 3.81 2.086 2.475-.086-1.08-2.407-2.434-1.61-5.11-2.398-7.534-2.41zm-17.204 2.73c3.07.025 6.584 1.384 6.67 3.184-2.036-1.703-6.126-2.53-10.05-.78-.3-.065-.343-1.13-.165-1.523.845-.622 2.15-.89 3.545-.88zm18.584 1.162c-1.94 0-3.715.506-4.536 1.6-.42.515-.53.57-.994.494-.902-.15-.852.37.178 1.8.5.695.42 1.484-.25 2.424-.765 1.08-.615 1.12 1.668 2.217 1.746.85 3.148 2.055 4.734 3.05 1.134.637 1.36.075.314-.77-.36-.29-1.422-1.05-2.38-1.67-1.62-1.054-2.807-2.12-1.52-1.646.59.186.743.264 1.39.375 1.67.36 3.32.56 4.72.28 1.006-.2 2.316-.868 3.39-1.8.277-.125.548.01 1.215.035 2.553.1 1.99-.65-1.674-2.645-3.625-1.98-6.47-2.34-8.79-1.253-.98.46-1.542.574-1.4.284.15-.3.42-.653.86-.91 3.75-2.242 6.763-.382 10.067 1.3 1.42.847 1.8 1.066 1.97.796.217-.347-1.58-1.624-3.99-2.83-1.415-.735-3.254-1.13-4.966-1.13zm-11.983 2.596c.635.25.35.973-.23.745-3.46-1.555-4.155-2.313-8.28-.874-1.365.476-1.905.056-.23-.66 3.644-1.526 6.29-.497 8.74.79zm-2.37 1.83c-.94 4.76-5.68 3.293-5.144.023l.87.004c.07 2.875 2.952 2.856 3.445.03zm27.57.01l1.275 2.73c-2.79 6.875 1 16.134 9.243 18.352 0 0 1.33 2.044 1.07 2.302-15.477-3.424-14.287-18.177-11.59-23.385zm-14.66.18l.433.02c1.335 3.32 3.276 1.413 3.654.01l.985.025c-.3 3.44-5.516 4.02-5.075-.058zm-11.93.094c.628-.073.84.866.666 1.04-.048.048-1.194 1.16-1.334.505-.207-.957.407-1.5.667-1.544zm-7.217.096c.05 0 .104.006.16.01.39.298.537 1.18.334 1.64-.23.236-1.16-.09-1.34-.445-.277-.52.05-1.21.842-1.204zm25.1.32c.303.014 1.143.377 1.062.78-.02.105-1.19.966-1.456.825-.51-.27.195-1.507.294-1.584.016-.013.052-.02.095-.02zm-6.84.15h.02c.09.068.836.53.2 1.39-.043.06-.89-.24-.905-.34-.07-.5.566-1.014.683-1.05zm18.75 6.03c-.187 3.95.843 7.79 5.16 10.25l-.928-1.692c-1.108-.88-3.426-3.396-3.136-6.39zM101.58 63.29l.485 2.6c-2.374 3.948-4.177 7.826-5.672 12.36l-2.245.82c1.78-5.718 3.43-10.248 7.43-15.778zm.942 4.05l.635 2.236c-1.167 2.144-2.413 4.572-3.165 7.4l-2.48.912c1.116-3.742 2.75-7.38 5.01-10.55zm7.863.926c-.036 0-.072 0-.11.01-.026.44-.02 1.66.073 3.665.02.38.39.22 1.445-.315.92-.47.825-.545 1.716-.247 2.464.845 3.585.48 4.55.23 1.47-.378 2.07-.225 2.922.286.47.28 1.11.487 1.237.533.676.242.42-.05-.044-1.88-.52-2.056-.297-2.28-1.12-1.746-.18.118-.704.407-.99.44-.717.084-1.915-.795-2.63-.516-1.73.677-1.714.5-3.32.105-.804-.2-1.57.29-2.27.43-.4.05-.905-1.007-1.46-1zm29.435 1.06c2.924 2.68 5.93 3.6 9.19 4.613-.393 1.33-1.18 2.83-1.546 4.572-16.964 8.97-34.014 8.686-50.096.545l8.344-3.19c4.56 7.897 10.403 10.005 16.974 7.42 7.343-3.414 12.78-8.166 17.134-13.964zm-36.252 1.58l.722 1.935-1.074 2.92-2.047.83c.39-1.987 1.15-3.62 2.4-5.682zM118.9 73.15c-.51.024-1.275.366-3.025.375-.947.004-1.69-.08-2.056-.007-.76.155.13.495 1.833.983 1.705.486 3.79-.25 4.05-.99.062-.18-.163-.393-.805-.362zm-14.135.953l.45.982-.766.27zm45.11.553l1.266 2.885c-2.193 4.75-3.65 17.767 11 21.817l.64 1.86c-9.97.194-19.962-12.48-12.905-26.564zm-33.547.982c-1.433-.014-2.93.342-3.897 1.108-.87.69.198 1.126 1.33.574 1.47-.715 3.927-.656 5.368.246 1.1.75 1.675.618.94-.525-.58-.895-2.117-1.382-3.74-1.4zm63.967 3.24c3.83-.062 4.228 5.42 3.48 5.89.218-.072.87-.264 1.803-.24 2.808.074 4.27 1.625 4.43 3.882.165 2.273-1.563 3.54-4.082 3.414-.934-.047-1.58-.14-1.535.024.47 1.817-.094 4.556-2.5 5.24-.278.078-.67.464-.68.602-.18 2.882.64 12.78.64 12.78s4.513-7.584 5.53-8.735c1.985-2.71 2.344-2.47 2.35 2.034-.33 6.25-1.33 7.68-5.01 12.93-1.58 2.26-5.31 1.07-4.97 2.6.07.334.68.94 1.283 1.514.388.368.79.6 1.696.57 1.59-.053 2.21-.376 1.26 1.01-.75 1.094-3.398 1.32-3.696 1.89-.692 1.325-.217 1.032-1.403 2.196-.903.996-.59.49-.175 1.307.65 1.055.38 3.16-.264 4.58-.524 1.156-.465 1.98-.465 1.98.01.097 1.472-1.51 1.914-3.367.366-1.546.796-2.32.793-1.455-.005 1.09.186 2.575 1.17 3.14.778.45.89.895.76 1.445-.133.568.475 1.07 1.075 1.545.14.14.613.33.562.63-.16.95.225 2.065.92 2.25.31.15 2.273-.018 2.6-1.124-.034-.35-.005-1.8-.787-1.885-.555-.255-.497-.407.34-.906 1.25-.748 2.16-1.283 2.776-1.398.826-.11 1.62-1.01 1.62-1.01l.16 59.667c-7.43 7.6-15.567 15.165-26.3 22.6-6.24-5.2-13.054-10.46-20.29-14.4l-2.5-1.477.895-1.143-4.34-5.72 4.884-3.93 1.233 1.564-2.31 2.246 3.466 3.83 7.792-7.6-5.133-4.91 2.67-5.004 1.71.84-1.29 3.173 3.905 2.47 4.888-9.71-6.196-2.82 1.57-6.52 1.912.2-.64 4.693 4.83.956 1.964-11.07-7.09-1.268.6-6.316 1.98.023-.29 3.49 5.01.71.946-9.65-6.95-1.15.9-7.45 1.59.226-.31 4.593 5.1.872c.56-3.116 1.02-7.028 1.85-10.084l-6.57-2.45 2.326-6.254 1.48.514-1.29 3.39 4.847 2.063 4.09-8.066-5.71-4.04c1.28-2.122 2.56-4.14 4.39-5.86l1.12.977s-.41.373-1.043 1.25c-.77 1.065-1.01 1.6-.906 1.88.106.272 3.635 2.88 3.9 2.88.314 0 1.485-1.067 2.088-1.783.646-.766.984-.84 1.652-.36.13.095.322.284.46.447.16.193.224.355.24.477.016.12-.018.2-.048.25.057-.053.18-.146.443-.293.48-.27-.93-1.507-2.08-2.15-3.447-1.932-7.498-5.574-8.435-10.13-.343-2.048 4.947.414 8.592 4.044.55.55 2.604 2.54 2.604 2.54-.3-5.265-.73-10.62-.494-15.95l-.804-.56c-1.124-.78-1.56-2.07-1.66-3.36-.07-.89.693-1.342-1.05-1.284-3.626.03-5.725-3.38-3.525-6.3.787-1.09 4.13-1.626 4.128-1.6-.853-3.49 1.713-5.36 3.604-5.538zm-1.32 40.584c-.07.064-.04.064 0 0zm4.8-34.694l-.1.034c.036 0 .07-.013.1-.033zm-120.74 11.4c10.13 8.525 16.59 14.26 37.204 20.683l.51 3.055c-11.85-2.733-24.78-8.27-40.15-22.043zM60 98.146c6.412 5.985 12.985 10.544 19.638 14.37l2.336 1.405-1.204 1.24 3.915 5.646-5.037 4.107-1.2-1.195 2.63-2.574-3.742-3.68-7.623 7.717 5.226 4.634-3.03 4.655-1.1-.497 1.6-3.248-4.854-2.65-5.427 9.974 6.91 3.144-1.56 6.12-1.613-.08.546-4.797-5.197-.92-1.75 11.21 6.684 1.05-.16 6.452-1.78-.03.126-3.646-5.277-.244-.47 9.404 6.5.844-.65 7.633-1.598-.41.177-4.952-4.95-.486-1.706 10.536 6.68 1.907-2.36 6.57-1.45-.797.95-3.39c-1.22-.53-4.642-1.954-4.642-1.954l-4.363 8.183 5.66 3.85-3.48 6.117-1.347-.9 2.403-3.57-4.7-2.95-2.677 3.655c-1.135-.988-3.18-2.358-3.957-3.275-.833-.76-1.466-.872-2.538-.62-.846.2-1.66.355-1.474.055.095-.147 1.7-1.228 4.15-2.783.69-.435 1.23-.815 1.22-1.204-.003-.29.37-.75.87-1.05.548-.33.425-.64.337-.982-.474-1.84-.175-4.71.75-6.64.62-1.294.815-1.526.41-1.53-1.194.154-2.65 4.48-2.928 5.698-.096-.096-.226-1.236-.31-1.675-.154-.79-.265-1.283-.9-1.434-.76-.18-.52-.544-.6-1.116-.124-.93-.563-1.516-1.357-1.844-.764-.317-.847-.444-.813-1.204 0-.6-.623-1.61-1.09-1.93l-2.644.932c-.21.7.068 1.605.505 1.935 1.33 1.25-.615 1.27-1.95 2.084-.36.234-.79.74-1.083.574-.846-.275-.78 2.255-1.612 1.938l.204-60.69C39.32 113.47 60 98.15 60 98.15zm107.265 10.733l1.02 1.13c-3.165 3.56-5.462 7.23-7.993 11.71-2.16 3.82-4.025 9.17-5.003 15.01-.76 3.57-.88 7.21-1.34 10.86-.48 3.933-.57 9.23-1.32 13.382-1.39 11.39-4.59 17.453-11.55 23.915-3.057 2.84-12.566 8.205-12.825 8.153l-2.253-.56c19.497-9.98 24.37-16.864 26.48-40.49.41-29.642 13.895-41.124 14.774-43.12zm1.917 1.98l1.045 1-5.692 8.038 5.61 3.954-2.225 5.196-1.7-.63 1.21-3.543-4.72-1.99-3.814 10.326 6.722 2.12-1.107 6.73-1.36-.367.01-4.585-4.99-1.018-1.45 11.535 7.35 1.02-.54 5.952-1.74-.12-.06-3.546-5.1-.27-1.166 10 7.238 1.23-1.31 7.104-1.54-.366.347-4.687-4.854-.64-2.81 9.59 6.098 3.075-3 6.15-1.285-.897 1.66-3.636-4.74-2.34-4.58 7.936 4.97 4.89-4.855 5.085-1.083-1.388 2.503-2.698-3.74-3.706-7.784 6.188 3.97 5.237-.464.66-4.104-1.648-1.96-2.6-2.35 1.03-1.855-.706c11.494-6.025 18.973-13.013 22.06-23.552 1.697-5.825 2.2-12.183 2.75-18.592.287-3.328.583-6.67 1.065-9.96.568-5.37 1.39-9.877 3.57-15.057 2.643-6.28 5.856-10.71 9.814-15.504zm-61.853 3.97l7.89 4.16-.12 2.763-7.298-3.655zm2.22.075l5.62.77.02 2.27zm-25.36.072l3.28 1.48 2.784 3.21 2.085-1.368 2.263.846c-7.15 3.674-13.5 8.072-18.44 15.66-5.508 8.455-6.12 19.525-6.825 30.21-1.176 14.737-3.7 25.09-13.5 37.037l-1.444-.91 5.287-8.4-5.962-3.85 2.718-4.964 1.37.47-1.063 2.963 4.93 2.6 3.78-10.586-6.954-2.166 1.165-6.62 1.748.154-.462 4.745 4.97.784 1.43-11.19-6.7-1.028.15-5.914 1.644.16-.01 3.59 5.284.285.41-10.21-6.57-.726.81-7.21 1.84.19-.425 4.325 5.055.72 2.4-9.333-6.57-2.966 3.544-6.304 1.592.732-1.628 3.49 4.555 2.22 4.78-7.3-5.075-4.874 4.987-5.214 1.22 1.2-2.705 3.11 3.75 3.467 7.425-6.23-3.624-5.453zm47.233.346l-.23 2.615-7.914 4.493-.005-2.56zm42.465.09l1.75 1.085L174.37 118l-1.526-.964zm-45.793.372l-4.74 2.735v-2.72zm55.88 2.552c.248.005.475.058.65.173.478.31.41 1.076-.13 1.453-.7.49-2.62.458-2.812-.048-.273-.73 1.222-1.605 2.294-1.58zm-75.63 1.078l6.8 3.67-.025 2.586-6.546-3.596zm22.152.082l-.4 3.37-7.003 3.714-.057-2.922zm-33.894.063l2.787.71c-10.32 4.6-20.522 11.28-24.49 22.934-1.24 3.49-2.076 7.37-2.62 12.34-.256 5.24-.93 10.4-1.18 14.77-.505 8.9-3.434 20.95-13.553 33.754l-.966-.76c6.207-7.65 9.434-14.586 11.427-21.913 3.157-11.66 1.59-24.526 4.96-36.263 2.053-7.14 6.32-13.524 12.71-19.046 4.444-3.453 10.925-6.524 10.925-6.524zm4.684.976c.03 0 .047 0 .05.01 2.507 8.437 5.6 23.814 5.6 23.814-6.63-3.206-17.663-2.62-17.663-2.62s-6.21-8.01-7.41-8.668c4.963-6.7 18.477-12.49 19.424-12.537zm85.357 1.33c1.525-.05 1.416 2.27-.517 3.847-.988.806-1.444.693-2.173.048-.213-.284-.834-.49-1.29-.435-1.082-.003 1.058-2.243 2.963-3.17.393-.19.733-.277 1.016-.286zm-77.5 1.887l6.062 3.11.056 2.563-5.61-3.043zm20.552.347l-.33 2.817-6.313 3.283.034-2.594zm59.08 1.05c.21-.02.37.06.523.23.86.96-.774 3.864-2.63 4.735-.71.333-1.15.28-1.74-.23-.29-.25-.716-.576-.96-.55-1.063.11-.477-1.083.38-1.15.236-.02 1.72-1.133 2.845-2.068.752-.63 1.23-.94 1.58-.97zm-6.417 1.132c1.34-.034 1.83 1.082.24 1.57-1.13.345-1.76.1-1.755-.66.235-.78.92-.873 1.514-.91zm-72.384 1.506l5.38 2.7.024 2.762-4.94-2.576zm19.25.38l-.376 2.616-5.794 2.976.013-2.162zm60.72 1.1c.368.022.476.43.473 1.155-.007 1.2-.8 2.31-1.997 2.85-.873.4-1.49.368-1.925-.1-.2-.212-.474-.384-.616-.39-1.87-.073-1.57-.556.223-1.304.63-.26 1.87-1.12 2.456-1.54.66-.47 1.103-.686 1.388-.67zm-6.866.852c.917.003 1.725.65 1.217 1.07-.392.324-1.873.48-2.165.187-.555-.56-.06-1.263.948-1.26zm-72.213 1.86l4.586 2.47-.02 2.628-4.38-2.472zm17.59.2l-.106 2.693-5.263 2.597-.033-2.565zm56.633 1.117c.89.063.78.925.06 1.343-.538.373-1.234.176-1.518-.26-.64-1.216.814-1.07 1.46-1.085zm1.787 2.76c.15.3.066.83-.226 1-.39.164-1.402-.008-1.56-.303-.127-.243-.1-.37.15-.617.415-.324 1.346-.57 1.637-.074zm-75.34.05l3.92 2.14-.027 2.58-3.597-2.09zm16.284.07l-.192 2.484-4.554 2.26.063-2.42zm-47.69 1.57c.973.01 1.73.66 1.152 1.77-.36.693-.63.95-2.19 2.052-.638.45-1.19.86-1.234.91-.04.052-.45.333-.716.52-1.4.97-.914-1.055.833-4.037.5-.854 1.393-1.232 2.152-1.223zm47.35 2.213l-.366 2.735-4.075 2.08v-2.636zm-15.32.255l3.29 1.63.05 2.663-2.99-1.57zm39.57.205c.103-.005.2.032.262.125.27.38.313 2.01.048 2.934-.46 1.09-1.355-1.65-1.254-2.35.19-.314.624-.69.942-.706zm-69.25.496c1.333-.03 2.297.88 1.846 2.23-.52 1.302-3.53 2.122-4.887 3.02-.89.44-1.104-.038-.83-.805.127-.352.224-.63-.45-.73-1.645-.24-.644-1.04 2.367-3.057.66-.442 1.347-.648 1.95-.66zm66.064.85c.472-.007 1.055.27 1.656.923 1.038 1.122 1.786 3.49 1.22 4.102-.43-.05-.645.587-.67.845-.063.745-1.423-.615-2.71-2.76-1.035-1.727-.533-3.104.507-3.115zm-55.483.4c4.06-.03 11.816.81 22.55 7.525 1.37.86 2.74 1.805 4.287 2.57 4.07 2.194 7.43 3.682 12.68 4.66l-.15 2.716c-.05.857 1.364 5.82.716 8.61-.963-.018.93.824.93.824l1.232 2.524s-6.443-.058-9.37-.63c-4.72-.77-13.33-4.77-17.493-7.916-4.323-3.172-10.853-5.808-16.45-6.83l-.078-2.335s-.557-7.997-1-9.09l-1.033-2.53c.254.1 1.334-.09 3.18-.1zm33.88 1.75l-.313 2.683-3.575 1.675v-2.296zm17.81.12c1 .003 2.515 1.174 4.244 3.51.39.53.69.985.746 1.3.05.294-.13.46-.412.426-.68-.124-.93-.37-1.12.476-.047.21.074.588-.16.52-1.212-.356-4.68-3.856-4.47-4.975.16-.84.577-1.26 1.177-1.258zm-31.82.18l2.604 1.387.115 2.642-2.316-.996zm-28 .804c.8-.026 1.295.29 1.55.91.612 1.496-.473 2.397-3.694 3.073-2.8.663-2.744.705-2.35-.334.26-.69-.608-.768-1.09-.95-.817-.31-.15-.405 2.2-1.576 1.473-.734 2.58-1.1 3.38-1.126zm-9.315.708c.08-.006.175.07.313.24 4.07 4.93 3.02 12.115-2.13 15.662-.584.387-.605.028-.54-.742l.1-1.464c.03-.29 5.92-3.91 1.56-11.955l.37-1.14c.114-.36.192-.595.325-.607zm66.48 1.532c1.608.006 6.117 4.096 4.196 4.242-.223.018-.146.31-.146.496 0 .187-.01.54-.063.675-.14.355-.664.284-1.474-.195-2.05-1.214-2.52-1.6-3.228-2.272-1.395-1.32-1-2.95.718-2.944zm-15.876.703l-.03 2.203-3.21 1.557.02-1.995zm-40.71 1.582c2.163-.073 3.38 2.08 1.22 3.213-.864.453-3.706.136-5.03.02-1.49-.13-.61-.575-.53-.708.207-.337.366-.39-.41-.853-.62-.65-.974-.81.57-1.01.75-.1 2.575-.275 3.206-.482.34-.11.666-.166.975-.177zm65.81.526c.16-.006.14.258.076.945l-.108 1.474c-.982.156-5.873 6.237-1.9 13.31l-.332 1.256c-.152.624-.2.714-.716.33-2.98-2.057-3.945-12.535 2.224-16.87.404-.265.635-.436.76-.442zm-11.617 1.23c.575.01 1.278.17 2.085.54 1.88.854 3.126 1.545 3.42 2.002.18.28-.105.517-.484.626-.46.134-.515.326-.39.864-.002.312.078.658-.313.68-.723.038-2.342-.473-3.98-1.354-2.767-1.486-2.39-3.392-.338-3.355zm-14.052.033v2.68l-2.636-1.217zm-44.235 2.306c.28.006.65.056 1.137.133.595.094 1.518.186 1.994.18 3.006-.055 4.252 2.04 1.77 3.104-.68.29-.96.26-2.817-.28-.89-.257-1.98-.527-2.424-.653-.897-.252-1.206-.534-.615-.735.553-.188.6-.57.257-1.074-.08-.504.08-.69.697-.67zm69.89 0c-.425 4.153-.773 7.39-1.4 11.455-.458-.18-3.704-7.84 1.4-11.455zm-12.655 1.99c.98.015 2.63.392 4.24 1.023 1.406.516 1.58.654.61 1.07-.584.25-.513.472-.34.856.267.286.773.86-.024.745-.947.07-3.43-.07-4.187-.203-2.268-.395-2.885-2.44-1.027-3.39.15-.074.403-.11.73-.103zm-58.23 1.05c.21 0 .595.114 1.292.334 4.07 1.284 5.72 2.84 3.726 4.348-.58.44-1.476.253-3.17-.692-1.73-.964-2.6-1.494-2.922-1.84-.32-.34-.145-.73.347-.695.676.045.574-.294.52-.862-.037-.397-.062-.586.207-.587zm10.98.377l3.122.71-7.793 34.073c-2.66.768-4.196 1.098-6.065 2.105l5.39-.93-.467 2.435-4.895.92-.11.726 5.605-1.01s-.2 2.324-.393 3.225c5.35-.43 10.634-1.92 16.013-1.96 0 0 .13-26.89.11-29.82-.02-3.17.004-6.955.004-6.955l5.393 3.044.89 33.89 16.896 2.744c-.12-.572-.58-3.192-.58-3.192 12.528 3.696 25.227 9.156 36.468 20.438-5.233 2.83-10.176 5.637-15.258 8.358l-.738 1.06c12.885-6.02 32.474-18.535 46.62-32.368l.313 89.62-67.705.27-.004-8.383.04-7.493c-.275-4.805.56-10.097-.91-14.13l-.29-4.222c4.174-4.853 6.43-10.973 8.42-17.226 0 0 2.007-.776 2.985-1.12l.34-1.23c-1.94.993-6.39 2.655-6.39 2.655.48-.375-9.473-4.564-15.62-5.547-10.14-1.623-23.783.05-34.66 5.44-.53.378-.76.37-.625-.12 2.525-9.182-2.794-18.4-12.13-21.072-1.98-.565-3.603-.562-3.603-.562l.17.805c15.258 1.72 18.837 17.84 12.96 25.33-1.536 2.47-1.77 3.192 1.46 3.11 13.065-.107 17.606 14.49 11.65 22.567.018-.064.485.94.485.94 3.71-4.9 4.7-14.213-1.88-20.757 4.864-5.423 14.2-14.102 22.277-13.594 2.94.184 5.84 3.742 7.774 6.582 4.09 6.012 5.142 14.41 5.432 19.2.07 1.253.24 2.165.24 2.825.006 1.918-.36 1.69-1.6 1.37-1.555-.403-3.69-.42-5.264.06-2.535.773-2.126.333.13-2.46 1.33-1.647 1.51-2.155.96-2.263-.17-.033-.736.532-1.47 1.666-2.226 3.42-2.05 2.015-.446-3.32 1.044-3.467.94-3.71-1.908-5.864-.943-.71-2.1-1.404-2.2-1.62-.538-1.138-.76.29-.28 1.23.47.915-.526 1.333-2.274.39-4.115-2.28-6.793 2.333-3.12 4.332.865.47 1.348.085.678-.534-2.26-2.09-.685-3.85 2.37-2 1.768 1.07 2.44.73 3.03-.61.328-.545 3.07 1.42 3.068 2.18 0 .5-.32 2.1-.63 3.176-.88 3.027-1.118 3.967-1.498 5.93-.69 3.557-.673 5.38.066 6.943 1.655 3.504 5.822 5.157 9.44 3.747.523-.205 1.53-.376 1.53-.376l.043 2.573c-7.13 2.7-12.28 11.125-12.046 11.413l-2.544.006c-3.375-6.7-9.314-11.745-16.86-14.533 0 0-.908-1.51-.097 1.245.05 1.107 1.214 2.667 2.156 3.212 3.585 1.82 8.328 5.052 10.946 10.07l-1.804.027c-2.2-3.348-5.04-5.608-7.74-7.58-.636-.134.46 6.07 3.05 7.984l-46.47.81c3.17-12.406 3.78-26.174-3.65-44.222 6.16.38 11.626-.944 16.634-3.13L64.09 237c-5.706 2.725-11.966 3.26-18.23 2.62 4.75 8.8 8.91 27.244 4.86 44.98l-17.056.09-.236-96.69s.664.61.874.82c.535.537.897 1.34 1.05 1.92.194.745.4.79 1.463 1.586.51.38.804.716.804.913-.03.22-.04.892.31 1.31.93 1.132.77 1.86.06 2.59-3.27 3.402-5.32 10.55-3.667 18.093 3.88-2.61 7.873-9.438 8-9.45l.375 9.324c-.347-.077-2.714 1.326-2.74 3.16-1.074.32-2.383-.215-3.47-.536l.784 2.748c-3.98 1.587-4.195 7.032.42 8.587 0 0-.42 2.13-.785 3.27l2.996-.456c1.74 5.195 8.42 3.532 8.39-.093 0 0 2.03.763 2.803 1.102l-.75-3.546c7.596-3.79 1.913-8.75.18-8.68.022-.99.48-1.303.893-2.457l-3.068.194c-.564-1.83-2.626-3.324-2.703-3.124l-.424-13.345c2.32 2.024 4.606 4.1 7.68 5.708 2.84 1.486 3.127 1.154 2.707-1.41-.19-1.158-.172-1.917-.172-1.917 1.065.25 3.75 3.74 3.62 5.46.983 1.28 1.873-2.163-.66-5.094 6.738-7.055 11.87-18.746 12.966-26.714l8.955-3.563.1-1.164c6.104-4.083 9.287-9.763 10.96-16.186zm7.456 2.084l2.06.92-2.34 1.16zm-19.86.567c.397.18 1 .576 1.825 1.182 1.756 1.284 2.778 2.17 2.81 2.947.02.385-.264.883-.71 1.118-1.054.56-2.07.1-4.354-2.24-.74-.757-1.233-1.162-1.46-1.498-.26-.392-.07-.762.367-.602 1.858.838.25-1.49 1.528-.91zm63.12.48c.38 0 .683.01.87.05.497.1.64.38.33.652-.473.424-.34.854.14 1.083.33.158.2.49-.2.718-.232.136-.59.28-1.074.43-2.813.88-4.885.618-5.428-.692-.623-1.506.57-2.238 4.007-2.235.51 0 .97-.007 1.355-.006zm-40.95.895l-.023 2.02-2.92 1.4.32-2.046zm-24.805.63c.26.017.68.41 1.29 1.158 2.814 3.447 3.194 4.11 2.272 5.026-1.09 1.084-2.624.036-4.275-2.986-.22-.405-.492-.926-.654-1.116-.602-.71-.34-.93.43-.87.42.03.62-.114.63-.55.01-.455.117-.67.316-.66zm67.46 1.745c.51 0 .476.175.247.77-.176.528-.464.7.28 1.03.123.06.397.4.15.545-.59.396-3.212 1.59-4.162 1.906-1.845.612-2.98-.89-1.897-2.384.453-.626 3.573-1.76 5.13-1.86.094-.005.18-.01.253-.01zm-68.93 2c1.87 2.79 2.104 4.092.87 4.906-.78.594-2.44-.26-2.82-2.06-.29-1.38-.425-2.823.024-3.97.68-1.734 1.73.834 1.924 1.123zm26.264-1.157l.014 2.18-3.55 1.782.325-2.406zm7.233.086l3.336 2.164.19 1.86-3.446-1.9zm37.23 2.15c.087 0 .134.04.134.144-.002.257-.066 1.17.433 1.253.98.164.757.47-.1 1.21-.933.824-1.783 1.8-2.906 2.403-2.89 1.07-3.8-1.99-1.06-3.578.945-.55 1.8-.93 2.44-1.11.48-.134.866-.325 1.06-.322zm-37.14 1.12l3.867 2.28.134 2.292-3.84-1.956zm-7.46.213l.015 1.992-3.775 2.16.313-2.23zm15.63 1.626c1.066.5 14.79 4.31 19.333 3.01 0 0 3.89 5.608 6.766 7.616-4.457 6.534-19.54 12.942-19.54 12.942zm30.886.14c.25-.01.31.24.308.71-.06 1.356-2.29 6.348-4.064 3.79-.487-.953.01-1.94 1.566-3.116 1.234-.932 1.87-1.37 2.19-1.38zm-74.715.79c.338.37.185 1.505-.545 1.43-.21-.02-.24-1.176-.1-1.8.21-.104.526.247.644.37zm28.248.632l-.024 2.533-4.48 2.437.48-2.815zm7.407.357l4.434 2.364.52 2.8-4.917-2.548zm-7.417 3.443v2.554l-5.03 2.58.34-2.52zm7.504.224l4.96 2.82.65 2.66-5.538-2.86zm-70.31.08c.813-.01 1.105.855.49 1.41-.404.375-1.554.3-1.655 0-.52-.5.193-1.396 1.165-1.41zm1.517 2.702c.12-.01.234 0 .332.023.58.15.95.996.59 1.48-.66.89-2.41.273-2.156-.853.066-.298.707-.614 1.227-.65zm61.203.85v2.284l-5.474 2.89.347-2.55zm7.745.32l5.65 3.033.432 2.557-6.072-3.16zm-71.63.067c.273-.015.49.06.607.265.11.18.23.647.626.875.73.425.807.513-.583 1.122-.585.255-1.735 1.04-2.137 1.31-1.23.827-1.73.55-1.82-.43-.114-1.233 2.13-3.08 3.313-3.144zm4.238 1.87c.287-.017.564.036.76.17.47.31.498.93.047 1.245-1.035.66-2.653-.246-1.792-1.036.243-.225.62-.36.988-.38zm59.64 1.24l.03 2.96-6.106 3.22.405-3.005zm-62.66.344c.4-.022.786.07 1.12.318.363.463.8.598 1.05.608 1.05.04.715.422-.384.924-1.517.69-2.58 1.57-3.67 2.58-1.136 1.054-1.218 1.28-1.59.85-1.387-1.606 1.315-5.157 3.476-5.28zm70.505.034l6.4 3.5.55 2.956-6.95-3.866zM42.51 184.67c.26-.007.504.056.695.21.46.373.197 1.09-.434 1.41-.534.277-1.416.16-1.67-.094-.603-.608.49-1.504 1.417-1.525zm-3.09 1.488c.39-.038.744.46 1.06.996.11.133.55.073.862.075 1.197.01 1.364.516.2 1.16-.34.19-1.46 1.042-2.204 1.676-2.01 1.92-3.098 1.47-2.84-.497.245-1.88 1.876-3.315 2.917-3.415zm69.39.183l7.06 3.87.69 3.187-7.75-4.175zm-7.79.06l-.03 2.933-6.646 3.517.51-2.975zm7.896 3.733l7.91 4.787.29 3.117-8.196-4.72zm-7.9.52l.016 2.876-7.35 3.727.37-2.716zm-59.66 1.903c.19-.007.37.022.515.09.86.396.637 1.08-.66 1.786-1.32.72-1.77.595-2.054-.212-.24-.68 1.19-1.642 2.206-1.666zm82.57.39c13.75 3.145 27.21 9.95 40.28 21.833l-2.73 1.93s-11.454-13.06-36.904-20.718zM109 194.313l3.813 2.25.01.57-3.825-.313zm-64.98.023c.29.016.544.184 1.907.834 5.476 3.952 7.668 6.334 9.027 10.667.814 2.598.8 2.49-1.88 1.08-2.517-1.336-5.97-3.555-8.195-6.424-.37 6.75.42 15.14.42 15.14 3.415 1.686 2.31 6.072 2.3 6.046 8.796-2.4 6.87 9.21.312 6.703 1.565 8.71-8.41 8-7.39.535-7.94-.31-6.533-8.96.057-7.766-.685-2.67.26-4.48 2.69-5.626l-.37-11.407s-6.47 9.287-7.55 9.14c-.635-.084-1.59-1.15.02-9.293.836-4.24 5.33-9.4 7.85-9.57.443-.027.63-.075.802-.065zm6.33.087l1.16.797-1.094 1.95-1.21-.875zm50.626.56l-.037 1.71-3.567.21zM61.89 214.3c-.535.017.902.35 1.81 1.168 8.386 1.3 13.516 11.556 9.636 18.984-.47.334.255 1.95.728 1.344 4.09-5.8 1.046-20.05-10.89-21.407-.706-.06-1.106-.09-1.284-.09zm3.17 3.898c-.676 1.848-.853 2.29.875 1.537 3.053 1.13 6.347 6.098 5.293 11.09-.34.582.253-.38.655 1.26 1.507-3.653.004-11.533-6.824-13.888zm38.76 9.3c8.584-.026 17.08 1.85 23.84 5.735-2.3 1.277-9.63 3.058-9.63 3.058-4.12-4.62-6.22-9.24-13.666-6.88-7.8 2.02-14.824 8.77-18.777 13.25-3.964-2.36-6.11-2.937-9.625-3.13-.202-.01-.504.886-.254-.556 1.005-1.55 1.698-3.304 2.37-5.076 7.366-4.19 16.606-6.367 25.744-6.394zm26.684 5.933c-1.71 5.53-3.916 10.98-7.66 15.78l-.463-2.394c3.52-5.407 5.19-10.323 5.95-12.48zm-3.322 1.44c.22.35-3.412 9.01-5.205 10.588l-.702-2.234c1.462-2.21 3.627-7.533 3.564-7.584zm-22.16.01c-.114.01-.154.11-.155.33-.002.795.827 1.42 2.337 1.76 2.04.46 4.897-.242 4.9-1.21 0-.556-.396-.6-1.565-.056-1.47.678-2.76.545-4.67-.467-.44-.23-.71-.37-.85-.356zm18.17 1.38c-.568 2.1-1.41 3.646-2.486 5.25l-.346-1.104c.744-1.202 1.235-2.575 1.864-3.91zm-2.134.68c-.276.73-.58 1.578-1.21 2.228l-.818-1.732zm-12.915 1.61c-1.38.027-2.75.47-2.87 1.206-.056.35.475.216 3.046-.097 1.35-.166 2 .637 3.24.553.635-.074.04-.66-.154-.83-.69-.586-2.05-.855-3.268-.83zm-5.9 1.6c-.14.03.017.38.535 1.28.282.49.35 1.48.406 2.097-.067 1.53-.062 1.483.694.598.476-.47 1.4-.366 2.865.03.944.256 1.17.348 1.826-.063.76-.477.94-.236 1.59-.105.63.128 1.2-.125 1.894-.317.845-.232 1.007-.18 1.743 0 1.126.534.96.486 1.056-1.42.092-1.876-.01-2.01-1.095-1.377-1.05.614-1.777.89-3.39.33-1.76-.613-2.008-.458-3.256-.08-1.51.453-2.195.61-3.396-.126-.79-.483-1.32-.87-1.48-.84zm-24.574 2.83l.67 1.1c6.08 2.175 10.2 7.145 7.77 15.52l.58.926c3.04-8.44-.43-15.42-9.02-17.544zm1.88 3.576l.823 1.7c4.574 2.21 4.3 8.296 4.044 8.056l.717 1.584c1.143-3.94-.94-9.756-5.59-11.34zm19.11 9.077c-.18.003-.3.064-.35.19-.12.3.233.484 2.323 1.93 1.794 1.24 3.182 2.164 3.076 2.34-.07.12-1.186-.152-1.983-.39-2.09-.62-5.17.128-6.895 1.344-.44.296-1.167-.026-1.8-.19-.254-.07-.813-.14-1.09-.068-1.305.343-.04 1.59 3.156 3.21 3.922 1.985 6.045 2.167 8.43.963 1.58-.82 2.15-.21.42.72-3.026 1.63-5.92 1.125-10.695-2.158-2.21-1.522-3.094-1.268-1.193.182 3.336 2.607 9.758 5.79 13.7 1.9.155-.055.513-.03.685-.03.82.005.854-.253 0-1.607-.515-.816-1.557-1.674-.29-2.673.96-.755.893-1.115-.27-1.462-.306-.084-.275.117-.736-.255-2.79-2.25-5.52-3.948-6.49-3.944zm1.202 4.446c1.172.032 2.352.934 2.72 2.556.034.143.063.29.083.446l-1 .04c-.827-3.307-3.32-2.21-3.57-.275l-.897-.12c.33-1.842 1.49-2.68 2.662-2.65zm20.674 2.82l-.665.1c-.433-1.218-2.4-2.854-3.34.113l-.837-.036c.582-4.02 4.23-3.396 4.843-.18zm-5.095-1.67c.274.387-.204 1.037-.48 1.334-.265.287-.855.047-1.1-.234-.217-.278-.057-.83.302-1.01.373-.19 1.007-.364 1.28-.088zm-11.68.12c.28.624-.5 1.09-.6.88-.167-.06-.374-1.088-.277-1.156.26-.006.772.078.878.28zm17.563-.1c.422.033.88.233.964.707.007.316-.36.657-.773.676-.184.005-.885-.51-.753-1.24.148-.26.32-.166.564-.146zm-24.415.197c.15.227-.13.9-.19.993-.035.046-.93.01-.91-.06.02-.066-.086-.574.132-.944.25-.157.79-.24.968.01zm16.29 2.178c.114.006.262.05.44.16 2.504 1.63 5.73 2.36 8.053 1.196.52-.26.86-.244.858.008 0 .273-.574.84-1.646 1.16-2.393.72-6.344-.23-7.71-1.697-.4-.43-.343-.83.005-.82zm-22 1.705c-.24-.007-.32.134-.27.423.155.973 6.862 4.82 9.67 5.34 2.3.427 4.09.236 5.5-.582 3.42-1.98 2.54-4.67-.81-2.643-2.247 1.36-7.946.735-11.335-1.222-1.507-.87-2.36-1.3-2.76-1.31zm30.213 1.407c.85-.356 1.213-.48 1.4-.324.862.72-.55 1.845-3.126 2.284-2.06.34-3.3.405-5.652-1.335-1.82-1.348-.963-2 .083-1.39 2.78 1.626 4.843 1.677 7.29.763zm-29.62 4.207c5.934 2.124 12.684 7.25 15.68 13.474l-1.83-.02c-2.036-3.552-6.067-8.066-12.713-11.24-.588-.483-.895-1.347-1.136-2.22zm31.164 2.913v1.945c-3.67 1.847-6.747 4.692-9.06 8.615l-2.08-.03c2.377-4.21 5.94-8.15 11.134-10.535zm0 2.966v2.387c-2.32 1.36-4.26 3.15-5.617 5.206h-2.456c1.97-3.33 4.67-5.98 8.068-7.598zm-27.17 1.834c1.764 1.015 4.69 3.723 5.752 5.807l-.945.045c-.96-1.23-2.5-2.637-3.75-3.74-.8-.947-1.06-2.11-1.06-2.11zm27.163 1.53c.03 0 .03.02 0 .058v1.9c0 .05-1.76 1.2-2.51 2.272h-1.994c1.37-2.48 4.217-4.235 4.503-4.23zm.003 3.155l-.004 1.072-1.254.004c.083-.122.78-.888 1.256-1.08zm-24.435.27c.375.195.663.9.663.9l-.336.035z" fill="#131f67"/><path d="M47.805 241.583c4.127.112 12.837-1.43 12.697-1.272 0 0 27.022 44.9 25.923 44.46-.352.558-34.616.538-34.616.538-.75.01 7.27-16.636-4.01-43.716zm12.253-31.63c13.167-10.91 26.96-10.99 41.77-12.49l.34-37.077 5.36 3.208.113 33.97c19.55 1.466 36.42 8.626 50.91 21.16.18.27-20.96 11.577-30.22 14.57-7.19-5.28-26.16-8.606-38.74-4.548-3.452 1.114-7.695 2.898-11.822 4.215 2.99-17.89-10.987-20.54-15.903-21.36-.617-.1-1.352-1.43-1.8-1.64zm-16.9 5.788c.23-3.81-.02-7.63-.304-11.53-.076-.89-7.7 11.61-8.126 8.58-1.067-7.584 2.7-17.23 8.618-18.41.59-.8 12.314 6.46 11.778 12.73-.175 2.04-10.458-6.9-10.5-6.367-.242 1.045.302 15.04.62 15.01 2.962 1.667 2.317 3.807 2.64 5.58 7.936-1.17 7.502 7.63.013 7.357.463 10.4-9.195 5.7-7.292.162-9.726-.46-4.936-9.545-.094-7.548-.29-2.292.28-4.683 2.65-5.554zm11.157-44.11c-.56-.22-20.748-1.253-20.748-1.253l1.056-49.156c10.307-23.662 49.095-12.597 42.924-7.562-18.535 12.14-21.357 34.284-23.232 57.975zm37.235-20.2l-.617-5.455c-1.584-3.39 41.274 16.398 41.757 16.82l1.247 5.825c.248 2.56-27.26-10.368-42.388-17.188zm77.96-9.64c-.63 22.06-4.033 36.998-16.85 55.02-.357.595-3.98 2.095-4.26 2.605 1.83 2.896 12.288 7.145 17.12 9.428l25.128-14.96c.29.02-.86-52.42-.86-52.42zm9.51-23.95c-3.376-.516-11.232-8.66-9.603-11.124.05-1.85 9.773 5.227 10.785 7.134-.5-.568-.57-17.285-.726-16.62-.37.196-2.97-1.666-2.293-5.15-7.455 1.65-7.046-8.036-.53-7.64-.842-8.81 9.922-5.575 7.058.326 9.22-1.697 7.63 8.642.66 6.96.6 3.92-1.02 5.004-3.28 5.787.146 1.65.76 12.61.76 12.61s6.81-10.43 7.3-9.53c1.36 3.164-1.12 19.9-10.122 17.252zm-31.562-38.48c-3.074 10.59 5.347 22.688 13.303 22.655 1.6-.252 4.67.612 3.61 1.468-12.55 10.165-41.84 12.276-41.84 11.835.308 12.48-.25 25.083-.55 37.558l-5.367-3.23c-.172-11.38-.453-23.02-.714-34.4-18.766-2.447-35.63-8.498-48.96-21.37 8.85-6.556 19.422-10.65 29.58-14.79 12.785 6.64 30.59 10.477 50.95.273zm-9.262-50.318c-.588-.26 2.023-2.198 2.023-2.198s21.8.286 32.61.14c-3.94 16.17-1.155 30.657 3.934 44.57-1.35-.317-10.305.41-12.49 1.387-.35.36-25.81-43.5-26.086-43.89z" fill="#e2cf00"/><path d="M201.535 297.15c-.35-.99-.355-1.112-.434-10.17-.08-9.156-.04-10.16.46-12.058.95-2.368-1.82-2.38-3.573-2.663v-3.75c2.058-.29 4.537.31 5.446 1.52 2.138-1.48 3.52-1.73 5-1.67 4.97.02 7.155 3.09 7.02 9.01-.022.966.153 2.202.153 2.202h2.67v3.79h-2.81s.458 9.39-.18 12.71c-1.93 7.395-11.113 7.877-13.743 1.07zm10.124-1.332c.47-1.126.4-.656.42-9.275l-.02-3.94c-3.94-.91-7.424-5.63-7.4-5.63 0 0-.05-.453-.085 8.49-.04 10.138.32 10.727 2.467 12.368 2.083 1.18 3.8-.16 4.606-2.01zm-5.51-22.796c1.2 1.684 2.69 3.408 4.46 4.798.66.52 1.59.726 1.59.726s-.05-1.14-.05-1.72c-.03-3.54-2.577-6.325-6-3.804zM87.13 284.7l-26.36-44.497 3.957-1.718 27.17 46.28zm68.876-6.17c-9.898-1.56-12.683-14-5.41-25.702 3.443-5.676 17.85-26.8 17.004-26.096-.45-.394 11.073 16.352 16.834 24.94 5.455 9.058 8.357 23.858-5.048 26.576-5.14 1.04-10.477-2.047-10.71-8.042-.037-.84-.38-1.524-.87-1.526-.41-.002-.7.586-.7 1.167-.14 5.726-5.28 9.633-11.107 8.683zm46.4-14.64c-4.405-1.47-5.193-6.753-1.91-12.796 2.69-4.8 4.1-6.036 6.577-10.807 1.017-1.97 1.13-2.01 1.894-.665 1.844 3.047 3.86 6.363 5.507 8.94 4.317 6.727 5.076 11.42 2.306 14.252-2.513 2.57-7.833 1.076-7.86-2.205-.002-.16-.076-.42-.166-.59-.203-.39-.605-.13-.61.38-.02 2.38-3.214 4.32-5.738 3.48zM40.23 225.21l3.808-3.918 3.818 3.868-3.992 3.708zm84.575-24.955l-.536-3.18c15.19 3.718 27.62 11.522 36.55 20.022l-2.13 1.557c.664-.18-21.577-16.856-33.894-18.4zm-44.11-3.133l4.814-.698-.14 2.674-4.58 1.04zm88.9-2.114l-2.625-2.114 1.89-2.238 2.548 2.008zm-89.204-21.56c6.52-3.085 11.61-15.534 10.97-16.364l3.56.842-8.205 34.106-6.18 1.118c-.03-6.525-.14-13.18-.137-19.702zm42.91 19.298c-2.21-7.18-6.56-23.42-6.56-23.42.16.53 14.14 4.505 19.13 3.057 2.13 2.915 4.47 5.476 6.94 7.823-5.174 5.064-11.603 9.293-19.51 12.54zm58.61-26.137l-2.46-2.14 2.21-2.71 2.708 2.06zm-32.18-1.43c-2-3.61-2.14-7.68 1.58-11.7zm-76.51-6.99c-.16-.37.846-8.92 1.08-9.298.417-.665 1.228 1.732 1.61 3.563.48 2.296-2.105 7.094-2.69 5.73zm56.27-2.658s5.418-25.087 7.76-34.917l6.61-1.667-.893 20.6c-5.43 4.852-9.942 16.416-9.942 16.416zm-87.024-4.17l-2.616-2.443 2.21-2.42 2.306 2.36zm46.83-9.78l-7.18-8.4c4.45-6.19 11.836-9.77 19.66-12.58l5.3 23.572c-5.99-1.806-12.45-3.76-17.78-2.594zm-36.704-21.01l1.84-2.293 2.414 1.9-1.835 2.532zm86.468-7.085l4.622-.66-.35 3.172-4.893.777zM63.77 95.672l2.844-1.77c9.99 8.967 21.023 15.153 33.056 18.67l.81 3.874c-13.57-4.182-26.39-10.52-36.71-20.774zm116.73-3.577l-3.7-3.648 3.33-3.703 3.958 3.418c-1.306 1.97-3.588 3.933-3.588 3.933zM56.33 85.348c-4.586-7.08-9.867-14.598-14.02-20.792-6.892-10.304-8.755-17.29-6.585-23.61 3.556-10.357 18.73-9.812 19.835.713.225 2.15 1.24 1.96 1.52-.25 1.464-11.71 19.263-10.18 20.332 2.29 1.125 10.59-6.196 18.81-10.238 24.412-3.59 5.71-7.765 11.15-10.844 17.227zM12.474 68.574C9.47 63.554 1.26 52.212 9.13 48.717c2.796-1.24 6.367.973 6.358 3.337-.004 1.07.587 1.13.725.02.578-4.64 7.082-4.973 9.163-.486 1.78 5.34-1.432 10.207-5.935 17.064-1.03 1.574-3.41 5.856-3.41 5.856zM160 74.344L132.31 27.11l4-.033 27.252 45.498zM8.84 33.108H6.01v-3.793h2.83s.023-2.037.104-5.64c.172-7.678.372-8.873 2.632-10.984 4.47-4.17 11.96-.77 11.87 5.51-.13 8.86-.034 17.31-.3 18.51-.466 2.11-.512 2.23-.32 2.61.387.78 3.772 1.11 3.772.9v3.732c-2.585.2-3.657-.04-5.724-1.49-1.29 1.226-5.22 2.45-8.34 1.008-2.377-1.095-4.18-3.933-3.694-10.352zm9.572 6.617c-1.404-1.995-3.764-4.71-5.99-5.672-.136 2.285.06 4.206.882 5.24 1.306 1.642 3.412 2.02 5.108.432zm1.164-21.892c-1.04-2.9-3.717-3.88-5.67-2.072-1.225 1.14-1.42 2.32-1.445 8.77l-.01 5.647c3.81 1.21 7.367 5.566 7.33 5.51l.096-12.023c.07-1.946-.025-3.9-.292-5.823z" fill="#d40000"/><path d="M132.056 26.314l-6.617.024 37.55 75.53s-1.02.17-3.01-.35c-9.02-2.368-14.58-11.896-12.54-21.244.205-.726.26-1.348.26-1.348-23.256 10.524-37.65 6.648-51.078-.053L90.9 81.07c.38-3.46 4.66-16.448 11.058-22.56l-.01-6.55-.154-3.09-.505-5.61c-9.52 8.96-20.63 23.07-22.02 43.1 0 0-8.67 4.452-16.07 9.376.41-.054 11.523 13.59 38.22 21.252l-1.173-4.353c3.97 1.114 9.614 1.995 15.23 2.706l.75 34.2 6.376 3.778.217-37.863c.194.157 10.168-.35 15.54-1.63l-.757 3.65 5.306-1.045v2.665l-5.82 1.374-8.284 35.39 4.823 1.07c1.412-7.128 4.98-12.894 10.147-16.43l-.052-1.36c3.312-2.38 10.2-4.27 10.246-4.223 2.35-11.48 7.82-19.43 13.634-27l-2.77-3.76 10.62-3.894-14.74-25.075c5.67-3.915 16.915-2.457 16.915-2.457-4.82-13.01-9.058-26.433-4.297-46.13l-41 .035zm13.45.816c-.01 3.29-4.308 2.95-4.832-.017zm26.342-.103c-2.61 15.08-1.744 29.772 4.305 43.73 0 0-.88.052-.992.03-.08-.016.11-.753.06-.948-.12-.53-.99-.28-1.72.21-.31.21-.68.45-.91.57-.75.37-4.55.34-4.55.34 1.24-.84 2.988-3.203 1.97-4.58-.23-.295-.37-.165-.59.232-1.08 1.917-1.61 2.217-3.06 2.2-2.26-.03-3.88-1.43-3.692-3.545.177-2.055 3.2-3.14 2.755-1.146-.122 1.776 1.64 2.12 1.965.35.12-.66.024-.354.168-1.13 3.524-1.87 1.58-5.675-1.71-4.88-.772.206-.87.278-1.415-.003-1.013-.522-1.855-.36-2.24.376-.336.647.178 1.164.93 1.167.78.004.933.38.93.848-.004 1.09-1.884 1.613-3.13.98-3.29-1.68-2.07-6.04 1.75-6.027 1.16.007 1.644.08 1.694-.17.14-.703-1.633-1.92-2.633-1.74-.846.165-1.36.39-.912-.74.276-1.166.268-1.694.034-2.57-.61-1.25-.595-.61-.973.407-1.26 2.086-3.156 2.547-4.79 1.406-1.515-1.06-1.47-3.07-.03-4.503 1-.993 2.075-.315 1.474.8-.25.46-.054 1.03.393 1.144.904.23 1.465-.3 1.47-1.395-.02-.606-.188-.74.9-1.36 2.812-1.61.71-5.998-2.467-4.587-.698.31-.86.613-1.176.468-1.326-1.252-3.23.33-2.104 1.17.488.24 1.083.33 1.24.344.274.156.183.546-.217 1.035-1.316 1.55-4.3.785-5.005-1.4-.814-2.533 1.774-5.194 3.758-3.72.588.44 1.096.483 1.1-.16.002-1.01-1.264-2.16-2.88-2.05-1.64.117-1.463.33-.57-1.154.66-1.32.57-2.61-.004-3.386-.444-.6-.9-.725-.853-.092.36 1.964-1.935 3.83-3.82 3.006-1.81-.81-2.71-2.84-1.82-4.6.82-1.623 2.81-1.79 2.48-.06-.156 1.108.685 1.69 1.5 1.038.293-.236.362-.445.383-1.16.02-.794-.3-1.026.21-1.492 1.344-.178 1.427-3.03 1.224-3.15l21.58-.1zm-24.055.096c.853 0 1.56.29 1.56 1.14 0 .853-.688 1.542-1.54 1.542-.853 0-1.546-.69-1.546-1.54 0-.853.674-1.142 1.526-1.142zm-15.122.11h3.43l27.09 45.148-3.2 1.56zm5.64 1.578c1.64.94 3.16 1.71 5.22 1.91-.603 1.23-1.15 2.56-1.25 4.85zm5.52 9.1c1.67.6 3.12 1.508 5.877.59-1.47 1.3-2.3 2.855-2.92 4.49zm14.095 5.456c.79 0 1.43.64 1.43 1.43 0 .79-.64 1.426-1.43 1.426-.79 0-1.43-.636-1.43-1.426s.64-1.43 1.43-1.43zm-8.776 3.564c1.21.445 2.474.74 3.88.675-.696.954-.93 2.41-.977 4.07zm4.147 7.116c1.12.545 2.444 1.34 4.79 1.085-1.553 2.64-1.22 3.367-1.38 4.52zm13.58 5.24c.826 0 1.496.67 1.496 1.498s-.67 1.5-1.495 1.5c-.828 0-1.5-.67-1.5-1.5 0-.826.67-1.496 1.5-1.496zm-8.416 3.364c1.023.58 3.046.91 3.068.752-.13-.096-.58 1.95-.66 3.238zm4.714 7.69c1.455.86 3.066.777 4.013.88-1.012.2-1.966.454-3.053.88zm17.167 8.443c-3.505.227-4.32 2.916-3.903 5.64-2.672-.427-5.665 2.107-4.83 5.207.795 2.94 3.528 3.04 5.414 2.844-.144.713-.542 3.114 2.36 5.145l.387 15.26s-1.28-1.178-2.114-2.01c-3.642-3.63-9.125-6.26-8.782-4.214.05.3.17 1.063.257 1.694.58 3.454 5.22 7.19 8.384 9.067 1.13.63 1.83 1.305 1.83 1.305-5.917 6.33-9.1 13.08-9.89 19.78-.736 6.226-1.33 11.83-1.917 17.55-2.416 28.672-14.72 35.883-15.306 37.29l-.23 3.82-3.435-.255-3.96 3.424c12.968 6.7 20.53 14.786 20.426 14.94 10.35-6.78 19.29-14.31 27.724-22.105l-.165-63.842s-.7.257-.88.256c-.643 0-.724.286-.946 1.507-.12.654-.51 1.256-.814 1.686-.58.815-.37.402.358.697 1.66.673-.495 3.72-2.855 4.09-1.7.267-2.65.58-2.94.973-3.58 3.13-7.145 3.624-9.84 2.474-1.327-.565-2.768-1.393-3.256-2.773-1.108-3.133 1.2-7.65 2.55-10.257 2.48-4.783 6.604-8.375 6.604-8.375l-.675-.733s.81.01.963-.046c3.554-1.29 3.774-1.31 4.43-2.25.652-.944 2.302-3.633 2.642-4.518 1.825-4.755 2.07-5.063 2.07-8.182-.005-2.527-.17-4.215-.66-4.35-2.8 2.15-5.63 7.167-7.288 10.124-.575-4.38-.745-12.028-.745-12.028.592-.657 3.957-.29 3.21-5.776 2.96 1.337 6.083-.707 5.953-3.56-.202-4.44-3.623-4.31-6.41-3.75 1.328-2.682-1.194-5.916-3.73-5.752zm-.052.374c3.66.115 4.386 4.16 2.143 6.448 0 0-1.453-1.118-2.223-1.755-.733.573-.944 1.07-1.75 1.663-.952-.703-1.527-1.95-1.536-3.15.046-1.876 1.938-3.25 3.368-3.206zm-83.61.127c14.81 8.277 33.38 8.87 50.376.434l-.207 1.4-1.864 1.05 1.055 1.93.584-.28.016 1.276c-14.012 7.57-37.483 9.135-55.858-3.433l1.6-.74s.36.255.707.47c.67.414 1.775 1.08 2.504 1.405l1.114-1.604s-1.7-1.034-1.532-1.102l1.51-.805zm1.304 2.54l-.845 1.926 2.123 1.134.81-1.94zm-8.054.216c22.807 14.317 44.035 10.056 56.783 4.2l.164 1.53c-16.454 7-38.09 8.88-58.685-4.967zm53.68.92l-2.025.81.804 1.86 2.085-.89zm-56.405.35c18.533 11.95 38.41 14.29 59.83 5.532l.82 2.29c-20.863 8.375-42.88 7.41-62.995-6.83zm14.24.066l-.83 2.004 2.298.87.67-1.963zm38.974.83l-2.008.65.625 1.915 2.08-.703zm-35.463.547l-.496 2.013 2.346.66.41-2.02zm84.874 3.314c.317 3.424-4.76 5.076-6.66 1.88l1.676-2.032-1.5-1.396c2.03-3.217 6.184-1.67 6.48 1.544zM84.334 84.85l5.527 3.8-4.01 6.24-5.954-3.997zm95.817.173l3.51 3.043-3.22 3.77-3.29-3.322zm-2.18 1.032L176 88.35l2.136 2.27c-2.532 2.694-6.313 1.032-6.276-2.264.03-2.517 3.88-4.966 6.115-2.3zm-40.93-.883l-2.11.63.487 1.85 2.182-.568zm-28.45.583l-.39 1.99 2.426.52.41-1.98zm24.97.337l-2.24.486.384 1.98 2.245-.473zm46.83.467l-1.85 1.81 1.85 1.912 1.865-1.917zm-67.91.05l-.284 2 2.54.34.2-2.026zm17.09.272l-2.282.26.23 1.965 2.37-.3zm-13.474.23l-.024 2.058 2.225.177.005-2.037zm9.82.194l-2.235.082.016 1.99 2.28-.147-.06-1.923zm-40.77.02c-1.315 0-2.38 1.064-2.38 2.38 0 1.313 1.065 2.38 2.38 2.38 1.314 0 2.38-1.067 2.38-2.38 0-1.316-1.066-2.38-2.38-2.38zm37.023.067l-2.197.02.01 2.012 2.263.01-.078-2.043zm58.226.01l.963.962-.964.95-.987-.95zm-95.256.76c.863 0 1.56.7 1.56 1.56 0 .863-.697 1.566-1.56 1.566-.86 0-1.564-.703-1.564-1.566 0-.86.7-1.56 1.566-1.56zm-8.46.116l3.164 2.576c-1.01 1.926-4.196 5.995-4.196 5.995L69.8 92.17l3.057-1.73c-.165.322-.26.683-.26 1.07 0 1.29 1.05 2.335 2.34 2.335 1.294 0 2.343-1.045 2.343-2.337 0-1.24-.968-2.25-2.187-2.33zm-1.77 1.66c.867 0 1.57.703 1.57 1.57 0 .866-.703 1.564-1.57 1.564-.866 0-1.57-.7-1.57-1.567 0-.865.704-1.57 1.57-1.57zm107.537.74s.86.327 1.072.65c1.695 2.606-.07 5.703-2.917 5.64-3.322-.07-4.2-4.234-1.91-5.933l1.856 1.755zm-86.382 1.06l6.55 2.514-2.486 7.116-7.16-2.933zm-26.92.742c26.72 24.074 64.68 25.805 92.27 9.824l1.68-.033.89.915c-31.43 18.583-70.504 14.54-96.882-9.38zm73.575 1.435l2.11 7.037-7.247 1.907-1.62-7.126zm-76.318.256c8.11 7.815 19.575 14.662 33.04 18.546l.333 2.883c-14.293-4.292-25.09-10.025-35.606-19.975zm31.394.11c-1.292 0-2.34 1.05-2.34 2.342 0 1.29 1.048 2.333 2.34 2.333 1.29 0 2.34-1.047 2.34-2.338 0-1.293-1.05-2.342-2.34-2.342zm-11.65.526l6.757 3.572-3.37 6.738-7.173-3.843zm11.62.245c.867 0 1.57.7 1.57 1.57 0 .864-.703 1.563-1.57 1.563-.866 0-1.57-.7-1.57-1.568 0-.868.704-1.57 1.57-1.57zm11.188.956l6.49.945-.297 7.196-7.577-.91c.29-2.532 1.385-7.23 1.385-7.23zm31.355.18c-1.296 0-2.34 1.05-2.34 2.34 0 1.29 1.044 2.335 2.34 2.335 1.29 0 2.34-1.043 2.34-2.334 0-1.29-1.05-2.34-2.34-2.34zm-.03.77c.863 0 1.57.703 1.57 1.57 0 .866-.707 1.565-1.57 1.565-.87 0-1.57-.698-1.57-1.564 0-.866.7-1.57 1.57-1.57zm-52.78.1c-1.29 0-2.34 1.05-2.34 2.34 0 1.293 1.05 2.337 2.34 2.337 1.29 0 2.34-1.044 2.34-2.336 0-1.29-1.05-2.34-2.34-2.34zm41.5.01l.93 7.23-7.09.35-.42-7.21zm50.805.646h1.006c.094 6.22.586 13.42 1.306 18.746.11.793.155 1.027.074 1.17-.695 1.232-1.504-.32-1.82-3.858-.086-.976-.197-2.396-.317-3.328-.364-2.82-.25-12.733-.25-12.733zm-119.81.11c-10.66 6.65-28.39 22.533-28.284 22.903l.073 61.034 1.387.067 1.146-2.243c-1.773-.443-1.277-3.775 2.12-4.444.58-.116 2.35-.71 2.783-1.04 2.58-1.967 6.766-3.127 9.704-2.35 4.287 1.094 5.166 4.244 3.104 9.72-1.628 4.32-4.848 9.84-7.87 11.414-.248.13-.78.39-.78.39s.7.64.96.805c8.326-4.815 12.53-22.08 12.306-32.82.338-11.003 2.235-22.045 6.677-30.075 7.34-13.272 17.048-18.607 17-18.656 0 0-13.09-7.946-20.323-14.707zm27.473.004c.867 0 1.57.71 1.57 1.57 0 .87-.703 1.57-1.57 1.57-.866 0-1.57-.7-1.57-1.565s.704-1.57 1.57-1.57zm64.75.25l2.53 6.72-7.03 2.88-2.535-7.06zm-40.415.04c-1.29 0-2.34 1.05-2.34 2.34s1.05 2.336 2.34 2.336c1.294 0 2.34-1.044 2.34-2.336 0-1.29-1.046-2.34-2.34-2.34zm14.285.582c-1.292 0-2.34 1.05-2.34 2.34 0 1.293 1.048 2.337 2.34 2.337 1.29 0 2.34-1.047 2.34-2.338 0-1.29-1.05-2.34-2.34-2.34zm-14.312.19c.866 0 1.57.704 1.57 1.57 0 .866-.704 1.565-1.57 1.565-.867 0-1.57-.7-1.57-1.565s.703-1.57 1.57-1.57zm14.283.583c.865 0 1.57.704 1.57 1.57 0 .867-.705 1.566-1.57 1.566-.87 0-1.57-.7-1.57-1.565s.7-1.57 1.57-1.57zm23.894.8c-1.29 0-2.34 1.05-2.34 2.34 0 1.29 1.05 2.336 2.34 2.336 1.293 0 2.34-1.044 2.34-2.335 0-1.292-1.047-2.34-2.34-2.34zm-.028.77c.866 0 1.57.704 1.57 1.57 0 .867-.704 1.566-1.57 1.566-.866 0-1.57-.7-1.57-1.565s.704-1.57 1.57-1.57zm-49.626.12l7.02 1.797-1.63 7.363-7.92-2.105zm88.823-.19c1.15 3.598-.96 8.21-1.065 8.513-1.278 3.618-2.814 6.575-3.37 6.746-.478.18-.69.067-.687-.38.006-.68 1.57-5.315 2.806-8.296.303-.73 1.002-2.936 1.004-3.307 0-.56-.54.35-1.123 1.74-1.13 2.78-2.777 5.76-3.134 8.46-.257 2.208-.676 1.896-.983-.73-.427-3.644.37-5.52 4.47-10.594.98-1.213 1.985-2.46 2.084-2.15zm-51.582 1.87l2.036 7.21-8.288 1.417-1.29-7.31zm-34.7.73c-1.29 0-2.34 1.05-2.34 2.34 0 1.292 1.05 2.336 2.34 2.336 1.29 0 2.34-1.045 2.34-2.34s-1.05-2.34-2.34-2.34zm12.39.467l7.51.43.066 7.49-8.15-.35zm-12.42.3c.87 0 1.57.703 1.57 1.57 0 .866-.7 1.564-1.57 1.564-.864 0-1.57-.698-1.57-1.565s.706-1.57 1.57-1.57zm31.51.664c-1.29 0-2.34 1.05-2.34 2.34 0 1.292 1.05 2.336 2.34 2.336 1.29 0 2.34-1.042 2.34-2.334 0-1.29-1.05-2.34-2.34-2.34zm-15.562.602c-1.292 0-2.34 1.05-2.34 2.34 0 1.29 1.048 2.335 2.34 2.335 1.29 0 2.34-1.04 2.34-2.333 0-1.29-1.05-2.34-2.34-2.34zm15.535.167c.87 0 1.57.704 1.57 1.57 0 .867-.7 1.566-1.57 1.566-.863 0-1.57-.7-1.57-1.57 0-.863.707-1.57 1.57-1.57zm-15.56.602c.866 0 1.57.703 1.57 1.57 0 .866-.704 1.565-1.57 1.565-.866 0-1.57-.7-1.57-1.564 0-.867.704-1.57 1.57-1.57zm51.196.447c.122-.003.285.02.394.02 1.676-.02 7.33 4.042 8.78 6.5 1.2 2.172.58 3.034-.805 1.094-1.91-2.125-5.437-5.28-5.886-5.282-.484-.004.18.684 2.425 2.873 2.225 2.17 4.575 5 4.573 5.504 0 .33-.444.29-1.08-.103-1.39-.853-2.595-1.72-3.21-2.3-.374-.35-1.08-.992-1.586-1.433-2.077-1.82-4.444-6.018-3.776-6.824.03-.033.09-.044.163-.046zm-104.753.597c1.447-.043 3.08.877 3.146 2.56.043 1.19.124 1.28 1.2 1.3 1.026.02 3.992.37 3.992.37l.02 3.33s-1.433-.01-3.083-.084c-2.81-.132-2.8-.136-3.156 1.1-.146.5-.347.745-.907 1.113-2.525 1.654-4.958-1.35-3.39-4.19.536-.978.57-1.31.195-1.896-.754-1.694.25-3.52 1.976-3.606zm.617 1.704c-.31 0-.65.133-.962.442-.415.413-.42 1.59-.004 2.273.396.652.386.83-.077 1.26-.815.76-.84 2.266-.043 2.833.725.52 1.494-.164 1.498-1.21.008-1.144.81-1.124.81-1.124l5.28.09.016-.86-3.83-.192c-.53 0-1.09-.05-1.5-.33-.435-.3-.932-.823-.46-1.46.667-.89.075-1.73-.72-1.724zm-11.44 1.97l2.503 4.256 2.92.105.254 2.59 3.55 2.285-3.635 2.126-.18 2.607-2.75.348-2.556 3.206-2.45-3.196-2.705.012-.04-2.67-3.72-2.394 4.07-2.286-.043-3.052 2.885-.195 1.9-3.736zm88.455 1.935l.12 2.57-4.1.73.534-2.62zm-26.267 2.59l5.52.17-.32 36.09-1.295-.01-.024-1.408-1.765.06-1.8-1.086zm-62.19.913l-3.245 4.105 3.925 3.43 3.456-4.014zm63.843.55v1.66h2.317v-1.66zm-63.775 1.42l2.284 1.67-1.74 2.3-2.2-1.91zm88.5.945l-.072 19.753c-7.59 5.956-9.954 16.44-9.954 16.44l-3.086-.183 7.845-34.8zm-41.14.437c-6.83 3.25-13.713 5.71-20.487 13.46 2.62 2.36 5.393 4.767 7.86 8.79 5.64-.84 11.91.168 18.755 2.86zm16.416.443v1.72h2.318v-1.72zm-76.767 2.48c.17.527.22 1.09.22 1.09 5.01-.42 3.73 5.39.54 5.59-.375.05.31 1.03 1.054 1.345 1.897.797 3.26.285 4.503-1.373.953-1.27 1.01-1.454 1.01-1.454l3.093 1.637s.087-.044-.46 1.374c-.993 2.58.456 5.744 1.575 3.438.598-1.226 2.35-1.926 3.566-1.42 1.42.597 1.91 3.13.918 4.727-.3.482-.31.583-.125 1.03.28.673.45 2.403.16 2.962-.38.724-.816.89-1.668.3-1.165-.81-1.82-1.147-3.85-1.71-3.56-.672-4.26-1.925-5.675-4.855-4.22 1.26-10.536-1.385-9.695-7.65.383-1.384.488-4.04-.216-4.58-1.384-1.066.132-2.6 2.21-2.848 1.704-.17 2.525 1.445 2.84 2.4zm59.7-1.81l5.49 22.99c-6.028-2.204-11.94-3.927-17.175-2.646-2.394-3.825-4.44-5.707-7.095-8.192 5.18-6.243 11.76-9.737 18.78-12.15zm-62.12 1.13c-.355-.004-.757.15-1.176.52 0 0 .37.31.575.732.32.673.32.672-.04 2.166-1.678 5.99 2.293 9.95 7.942 8.22 1.388-.43 1.335-.38 1.735 1.244.66 2.68 2.555 4.066 6.324 4.575.23.03.617.107.923.294 1.656 1.054.976-.35.523-.9-.322-.43-.914-.854-.914-.854s.505-.328.74-.453c1.064-.563 1.46-2.77.583-3.245-.8-.434-2.166.22-2.17 1.04-.007 1.496-1.897 1.655-3.55.41-2.124-1.6-.243-5.626-.23-5.62l-1.197-.527c.16.14-2.52 3.95-5.818 2.62-2.304-.925-3.927-3.592-2.86-4.353.778-.21 1.71.22 2.3-.238 1.18-.927.23-2.547-1.453-2.488-.353.013-1.155.17-1.155.17.09-.756.28-1.287.19-2.014-.1-.73-.604-1.307-1.28-1.314zm79.2 1.748v1.416l2.292.014v-1.415zm-.025 2.918v1.46h2.32v-1.46zm0 3.146v1.494h2.32v-1.492zm0 2.934v1.58h2.32v-1.58zm0 2.943v1.474h2.32v-1.47zm0 3v1.49h2.32v-1.49zm-75.306 1.455l1.95 3.293 2.315.1.09 2.265 3.94 3.01-3.443 2.46-.25 2.444-2.73.087-2.212 3.73-2.72-3.27-2.187-.35-.25-2.976-3.364-2.518 3.163-2.53.26-2.644 2.573.227zm128.18 1.574c.21.004.44.062.69.187.816.415 1.074.463 3.2.57 2.467.125 3.34.345 4.56 1.16.738.493.78.49 1.57-.03 3.464-2.297 7.418-.21 7.706 4.062.077 1.125.19 1.577.63 2.52.304.653.617 1.168.435 1.584-.56 1.272-3.225 1.353-4.68-.535-.26-.285-.523-.408-.885-.41-.72.268-2.568-1.185-2.547-1.247-.173 1.01-.26 1.813-.44 3.282l-3.23-.05s-.073-.59-.223-2.66c-.17-2.373-.76-3.07-1.52-1.785-1.308 2.21-4.78 1.235-4.98-1.395-.07-.89-.12-1.006-.608-1.38-1.635-1.257-1.16-3.906.317-3.876zm-52.873.13v1.32h2.318v-1.32zm53.244 1.41c-.645.047-.28 1.185.78 1.787.604.344.606.34.527 1.39-.144 1.897 1.685 2.83 2.498 1.27.14-.27.203-.61.146-.84-.34-1.38 2.644-1.005 3.36.422.167.33.35 1.2.44 2.08.085.835.106 1.802.106 1.802h.955s-.012-.577.043-1.128c.237-2.36 1.28-3.85 2.687-3.845.6.002.62.11.2.885-.71 1.315-.026 2.267 1.63 2.278 1.054.008 1.05.01 1.44.757.43.82.757 1.08 1.158.93.285-.108.29.05-.08-2.75-.55-4.174-2.98-5.298-6.332-2.933-.947.67-1.155.65-1.997-.164-1.265-1.22-2.06-1.498-4.53-1.59-1.175-.044-2.333-.16-2.57-.255-.19-.075-.344-.103-.46-.094zm-79.58 1.195c-.55.008-1.19.124-1.74.17.613 3.226.9 6.45 1.18 9.677 2.823-.49 6.48-.034 11.306 2.214 2.96 1.38 6.577 3.74 10.368 6.4 4.105 2.884 8.915 4.585 13.01 5.474 4.99 1.082 8.998.99 8.89.754-.22.036-1.8-7.913-1.59-9.612-6.9-.635-13.566-3.19-18.66-6.65-6.74-4.585-14.537-8.57-22.764-8.43zm26.334.27v1.337h2.317v-1.34zm-76.012.264l-3.662 3.817 3.986 3.78 3.388-3.847zm-.1 1.732l2.077 1.99-1.677 2.122-2.335-2.014zm51.674.312c.49.003.968.346 2.584 1.25 1.355.936 2.437 1.52 2.04.054.31-.42 1.81.95 3.58 1.818 2.133 1.71 2.14 1.296 2.418.45.287-.623.68-.203 2.385 1.375 2.238 2.073 2.037 2.076 2.485 1.56.51-.968.68-.958 2.505 1.137 1.897 2.114 2.298 2.565 2.703 1.66.624-.468.946-.013 3.52 2.403 1.266 1.263 1.563 1.067 1.8.217.246-.875.315-.678 2.452 1.016 2.47 1.98 2.72 2.124 2.82 1.44.163-1.09.93-.705 3.476 1.125 1.545 1.105 2.128 1.41 2.457 1.138.338-.59-.836-1.733 1.653-.66l.682 3.615-.86-.245c-.53-.15-1.69-.545-1.25.58.25.65-.377.574-2.31-.577-2.77-1.65-3.28-2.03-3.487-1.69-.364 1.233-.32 1.312-2.185-.15-2.173-1.65-2.61-2.104-2.914-1.54-.04 1.242-.645.99-2.67-.758-1.713-1.498-2.078-2.28-2.846-1.135-.21.4-.42.3-.705.09-1-.735-3-2.85-3.57-3.457-.443-.485-.7-.328-1.062.072-.34.375-.37.26-1.475-.756-2.64-2.42-3.134-3.028-3.5-2.696-.304.57-.016 1.34-2.045-.26-2.545-1.832-3.65-2.645-3.48-1.444-.435.54-.13.645-2.676-.764-2.42-1.34-2.73-1.74-3.08-1.28-.237.727-1.05.466-1.05.424l-.49-3.678.87.01s.84-.34 1.224-.342zm-19.42.307c-.193.57-1.53 3.846-1.544 12.19.16.196 3.308-3.014 3.46-6.006.146-2.834-1.91-6.19-1.916-6.183zm43.858.23v1.52h2.317v-1.52zm-43.69 1.206c2.943 4.668-.3 9.07-1.11 9.38 0-3.51.516-6.806 1.11-9.38zm77.27 3.92c-4.84 3.05-4.054 11.305-1.68 13.42.176 0 1.7-8.916 1.68-13.42zm-.662 1.017l-1.305 10.623c-1.69-1.876-1.99-7.46 1.305-10.625zm30.523 1.793l2.556 3.215 2.274.17.505 2.323 3.317 2.7-3.322 2.256-.29 2.572-2.47.25-2.447 3.85-2.393-3.77-2.29-.247-.075-2.475-3.603-2.657 3.44-2.07.067-2.796 2.693.01zm-90.56 1.004c-1.626 7.725-5.506 13.01-10.98 16.566l.03.78-9.224 3.697c-2.02 9.424-5.652 18.618-13.267 27.243l2.124 4.314-10.3 3.54 14.75 25.29c1.015 0-7.144 3.862-16.995 2.856 6.234 15.262 7.52 31.064 4.07 44.902l48.268-.203-36.89-72.388-.6-1.18c-.513-.947 19.61 2.83 15.337 21.492-.06.432.09.486.333.308 3.912-3.36 29.89-12.673 50.637-.37l6.164-2.553c-2.933 10.27-6.27 17.333-11.89 23.524l.954 14.616c9.948-8.145 20.743-23.1 22.19-42.975 4.48-2.185 8.378-4.664 12.55-7l.555.18 2.7-1.622c-8.665-9.48-26.356-18.54-37.693-20.92l.67 3.21c-6.25-1.68-10.93-2.044-15.8-2.566l-.742-34.01-6.3-3.713-.197 37.517c-4.71.06-15.54 1.918-15.54 1.918l.485-3.208-4.96 1.02-.087-3.126 5.606-1.607 8.13-34.46zm.68.765l2.59.523-8.048 33.79s-4.513 1.245-4.79 1.072C81.135 186.45 81 173.54 81 173.54c7.94-6.62 9.184-11.31 10.742-16.14zm-55.234 2.48c1.214-.017 2.52.865 2.6 1.66.208.49.38.7.71.745 2.03.28 2.093.818 2.15 1.99-.286 2.243 1.217.36 1.64-1.87.047-.232.02-1.935.02-1.935l2.487-.023s.082 1.78.12 2.062c.217 1.72.952 3.12 1.462 2.203 1.746-3.14 5.75-1.536 5.12 1.49-.16.718-.15.764.34 1.307.794.89 1.09 1.827.83 2.645-.26.8-.818.92-2.02.44-.566-.224-1.25-.305-3.08-.36-2.594-.075-2.755-.124-3.764-1.102l-.633-.616-1.098.644c-1.83 1.078-3.49 1.12-5.424.13-1.257-.65-1.99-2.19-2.185-4.6-.04-1.28-.4-2.21-1.19-2.517-.43-.402.048-1.204.78-1.935.335-.24.727-.347 1.13-.352zm144.9.364l-3.413 4.26 4.06 3.63 3.78-4.445zm-79.09.614l4.73 2.704.608 33.526-5.346-.15.01-36.084zm-65.68.465c-.36.037-.133.614.13 1.495.237.79.296 1.28.22 1.826-.5 3.675 3.71 5.543 6.75 2.996.81-.925.94-.865 1.62.127.836 1.047 2.05 1.387 4.596 1.234 1.163-.07 1.933.55 2.437.14.365-.263.01-.964-.693-1.37-.43-.25-.448-.29-.36-1.15.214-2.176-1.58-2.75-2.853-.916-1.052 1.518-2.638.516-3.15-1.99-.303-1.923-.546-1.893-.775-.214-.246 2.04-2.936 4.256-4.01 3.25-.293-.296-.29-.222.01-1.247.39-1.316.08-1.807-1.356-2.148-.234-.056-.504-.253-.596-.434-.76-1.174-.727-1.59-1.965-1.59zm145.11.78l2.17 1.87-1.887 2.23-2.306-1.77zm-77.943 1.2v1.585h2.023v-1.59zm0 3.192v1.664h2.023v-1.66zm12.184 1.915c2.268 8.418 4.553 16.83 6.83 25.244 2.157-.86 14.61-6.39 20.486-13.462-.224.018-5.34-4.985-7.133-8.23-5.875.968-12.623-.263-20.183-3.55zm-12.19 1.008v1.553h2.024v-1.553zm13.46.42c5.355 1.597 12.213 3.8 18.528 2.678 1.63 2.926 3.986 5.334 6.646 7.556-4.78 5.198-11.69 9.164-18.84 12.217zm50.817.607c.27 0 .54.103.803.336.842.755 1.5 1.016 3.23 1.298 2.79.452 4.912 2.193 5.52 4.515.25.974.39 1.027 1.78.678 5.26-1.322 9.32 3.04 8.064 8.86-.437 2.036-.572 2.28.038 3.085 1.34 1.443 1.63 1.46.165 2.73-1.333 1.2-3.98.62-4.54-1.323-.538-1.064-.53-1.144-1.41-1.285-3.436-.55-3.294-5.3-.06-5.85.27-.047.47.01.607-.054.918-.415-1-2.587-2.586-2.254-1.945.41-2.914 1.655-3.68 3.61l-3.06-1.75c.766-1.59 1.33-3.635.662-4.9-.54-1.07-1.22-1.11-1.43-.09-.49 2.408-3.48 3.126-5.442 1.168-1.095-1.093-1.223-2.267-.42-3.85.524-1.026.537-1.1.315-1.53-.77-1.506.273-3.4 1.44-3.396zM103.8 172.4v1.624l2.027-.01-.004-1.613H103.8zm64.65.136c-.622.004-.62.61-.043 1.348.513.518.61.756-.095 1.204-.886.82-1.08 2.057-.467 3 .92 1.414 3.042.626 2.8-1.04-.17-1.17.747-1.693 2.21-1.253 2.125.64 3.137 3.014 2.3 5.408-.156.45-.47 1.503-.47 1.503l.63.38s.743-1.188 1.034-1.55c2.41-2.966 8.12-1.463 7.48 2.25-.1 1.165-.096 1.322-1.366.957-.844-.434-1.66.467-1.633 1.594.04 1.016.924 1.83 2.144 1.667.968-.18 1.21-.148 1.14 1.156.1.905.438 1.506 1.032 1.814 1.44.594 2.18-.226 1.03-1.432-.7-.73-.658-1.86-.22-2.918.525-1.266.25-4.05-.553-5.62-1.16-2.262-4.404-3.21-7.12-2.08-1.24.663-1.376.816-1.497-.347-.68-2.886-2.85-5.067-5.556-5.26-1.04-.074-2.124-.64-2.79-.785zm-64.65 2.946v1.5h2.027v-1.5zm0 2.93v1.65h2.022v-1.65zm0 3.22v1.654s1.106-.03 2.022 0v-1.652zm66.052 2.65l2.213 3.275 2.45.163.29 2.644 3.717 2.317-3.22 2.02-.024 2.56-3.073.26-2.715 3.604-2.312-3.18-2.31.01-.545-2.836-4.093-2.075 4.2-2.394-.116-2.98 2.856-.02 2.682-3.36zm-66.055.39v1.696h2.024v-1.695zm0 3.107v1.67h2.024v-1.675zm64.81 1.242l-3.172 4.224 4.276 3.532 3.4-4.27zm-64.81 1.69v1.835h2.024v-1.835zm65.14.222l2.205 1.704-1.576 2-2.19-1.67zm-65.14 3.17v1.534h2.024v-1.535zm-60.195.195c-3.9.02-7.59 6.333-8.47 9.324-1.047 3.83-1.2 10.76-.21 10.954 3.496-2.514 5.15-6.777 7.778-9.968.407 3.69.342 10.808.342 10.808s-1.554.82-2.392 2.11c-.604 1.075-.797 2.358-.282 3.554-1.942-.63-5.462.082-5.662 3.67.125 5.05 5.642 4.34 5.662 4.27-.117-.03-1.086 5.375 3.81 5.948 1.756.207 4.847-1.074 3.93-5.99 3.09.51 5.754-1.19 5.788-4.165.04-2.04-1.51-3.79-4.176-3.8-.555-.003-1.73.25-1.73.25.04-.294 1.07-3.456-2.517-5.75l-.563-14.626s1.237 1.35 1.79 1.86c2.384 2.193 3.94 3.3 6.69 4.75 2.677 1.41 2.346 1.06 1.883-1.62-1.265-4.028-3.91-7.07-9.502-10.876-.72-.49-1.442-.707-2.17-.704zm.384.313l.784 20.685h-1.16l-1-20.665zm114.75.683c.102-.006.207 0 .316.01 2.524.21 3.17 3.03 2.038 4.284-.45.496-.604.6-.372.906 1.083 1.37.48 3.54-.592 3.87-3.403 1.06-3.92-.804-3.91-2.995l-5.26-.194.036-3.064 5.8.117c-.44-1.39.4-2.876 1.943-2.935zm-117.188.032h.063c.55.045-.01 1.502-1.53 3.72-1.03 1.5-2.46 4.148-2.885 5.216-.935 2.338-1.566 6.53-.94 5.76.568-1.752.623-2.482 1.11-3.74.64-1.644 3.63-7.045 4.223-7.576.506-.453.638-.174.626 1.345-.027 3.423-1.65 7.022-5.514 11.236-.647.704-1.506 1.47-1.567 1.47-.376 0-.366-.776-.36-2.403.025-6.464 2.425-12.235 6.116-14.718.29-.196.506-.297.66-.31zm3.915.3c1.696.494 4.74 3.22 5.996 4.616 1.45 1.57 3.4 5.91 3.05 6.58-.112.292-.36.246-1.21-.23-5.395-3.04-9.26-6.785-8.246-7.996.28-.34 1.44.36 2.993 1.8 1.057.94 2.137 1.89 3.1 2.84 1.52 1.494 1.86 1.713.946.053-.823-1.49-3.15-3.99-5.964-6.114-1.145-.86-1.405-1.56-.675-1.544zm113.604.87c-.07 0-.137.012-.187.033-1.063.45-.63 1.826-.733 2.88l-5.836-.2-.03.81 5.48.3c.096.826-.334 2.61.37 2.91 1.533.636 2.37-1.34 1.07-2.525-.463-.41-.965-.594.323-1.176.847-.724.98-2.14.254-2.77-.2-.17-.487-.26-.703-.26zm-73.844.24l-.293 2.162-3.385.853-.088-2.315zm39.928.766c12.5 3.367 26.398 11.01 35.42 19.644l-1.807 1.187c-9.373-8.66-21.74-15.234-33.102-18.5zm-21.53.333c20.582-.057 39.345 7.944 54.486 20.867l-2.476 1.56c-13.81-11.418-29.11-19.03-49.7-19.94-13.457-.594-28.81 2.857-43.945 11.18l-1.125-2.045c14.695-8.014 29.124-11.587 42.76-11.625zm-1.618 3.1l8.097.237-.5 7.516-7.36-.24zm-8.706.536l1.143 7.25-7.047 1.315-2-7.272zm25.626.956l8.04 2.142-2.654 7.39-7.06-2.014zm-12.88.105c-1.28 0-2.31 1.033-2.31 2.31 0 1.276 1.03 2.31 2.31 2.31 1.272 0 2.31-1.034 2.31-2.31 0-1.277-1.037-2.31-2.31-2.31zm0 .8c.85 0 1.54.673 1.54 1.51s-.69 1.517-1.54 1.517c-.856 0-1.54-.68-1.54-1.515 0-.837.69-1.513 1.54-1.512zm-15.97.012c-1.28 0-2.31 1.035-2.31 2.312 0 1.274 1.03 2.31 2.31 2.31s2.31-1.036 2.31-2.31c0-1.28-1.036-2.314-2.31-2.314zm0 .8c.85 0 1.54.675 1.54 1.512 0 .834-.69 1.515-1.54 1.515-.85 0-1.54-.68-1.54-1.517 0-.836.69-1.512 1.54-1.512zm31.834.93c-1.278 0-2.312 1.034-2.313 2.31 0 1.277 1.037 2.312 2.31 2.312 1.28 0 2.31-1.037 2.31-2.314 0-1.276-1.03-2.31-2.31-2.31zm-44.817.27l2.383 7.073-6.822 2.76-2.554-6.987zm44.815.528c.85 0 1.54.677 1.54 1.513 0 .838-.69 1.518-1.54 1.518-.85 0-1.54-.68-1.54-1.516s.69-1.512 1.54-1.512zm13.368 1.696l7.24 3.82-3.74 6.76-6.746-3.512zm-60.6.61c-1.275 0-2.31 1.035-2.31 2.31 0 1.278 1.037 2.31 2.314 2.31s2.31-1.032 2.31-2.31c0-1.275-1.034-2.31-2.31-2.31zm27.346.22l.337 7.14-6.41.456-1.165-7.096zm7.69.377l7.306 1.01-1.72 6.878-6.61-1.064 1.025-6.822zm-35.034.202c.85 0 1.54.673 1.54 1.51 0 .836-.69 1.517-1.54 1.516-.85 0-1.54-.68-1.54-1.516 0-.837.69-1.513 1.54-1.513zm23.935.922c-1.275 0-2.31 1.035-2.31 2.31 0 1.278 1.035 2.313 2.31 2.313 1.28 0 2.314-1.035 2.314-2.31 0-1.278-1.035-2.313-2.312-2.313zm-11.67.29l1.89 6.95-7.045 2.017-2.163-6.686zm25.575.11c-1.28 0-2.31 1.036-2.31 2.312 0 1.275 1.03 2.31 2.31 2.31 1.276 0 2.31-1.035 2.31-2.31 0-1.278-1.034-2.31-2.31-2.31zm-13.904.4c.85 0 1.54.676 1.54 1.513s-.69 1.518-1.54 1.518c-.85 0-1.54-.68-1.54-1.515s.69-1.51 1.54-1.51zm13.904.4c.85 0 1.54.675 1.54 1.512s-.69 1.515-1.54 1.515c-.85 0-1.54-.68-1.54-1.52 0-.836.69-1.51 1.54-1.51zm24.723.015c-1.276 0-2.31 1.035-2.31 2.31 0 1.278 1.034 2.313 2.31 2.313 1.278 0 2.313-1.035 2.313-2.31 0-1.278-1.036-2.31-2.313-2.31zm-12.505.674l7.06 2.413-2.817 6.597-6.752-2.574zm12.507.125c.85 0 1.54.675 1.54 1.512s-.69 1.516-1.54 1.516c-.85 0-1.54-.68-1.54-1.516 0-.837.69-1.512 1.54-1.512zm-53.11.246c-1.277 0-2.312 1.038-2.312 2.31 0 1.28 1.036 2.316 2.31 2.316 1.28 0 2.314-1.033 2.314-2.31 0-1.276-1.034-2.31-2.31-2.31zm0 .8c.85 0 1.54.677 1.54 1.51 0 .84-.69 1.52-1.54 1.52-.852 0-1.542-.68-1.542-1.515 0-.838.69-1.513 1.54-1.513zm42.773 1.35c-1.28 0-2.315 1.035-2.315 2.31s1.035 2.31 2.312 2.31c1.278 0 2.31-1.033 2.31-2.31 0-1.276-1.032-2.31-2.31-2.31zm0 .8c.85 0 1.54.675 1.54 1.51s-.69 1.518-1.54 1.518c-.85 0-1.54-.68-1.54-1.517s.69-1.513 1.54-1.513zm-82.7.804c1.847.076 3.233 1.735 3.317 3.462.066 1.31-1.61 3.03-1.61 3.03l-1.95-1.805-1.87 1.72c-.313.107-1.766-2.363-1.322-3.64.578-1.667 1.768-2.84 3.437-2.77zm104.964 0l5.59 4.573s-2.454 1.492-2.91 1.758c.057-.2.083-.41.083-.625 0-1.278-1.035-2.313-2.312-2.313-1.273 0-2.31 1.035-2.31 2.312 0 1.09.767 2.01 1.788 2.25-.574.33-1.338.757-1.338.757l-2.954-2.477zm-8.85 12.225l-2.476 1.013c-15.224-10-36.052-15.473-59.86-5.403l-.82-1.973c17.676-7.36 39.975-9.655 63.154 6.36zm-1.355-9.994l5.99 3.673-3.805 5.84-5.85-3.74zm-1.81 11.325l-2.515.945c-18.584-11.94-38.39-11.305-56.09-4.147l-.273-1.678c20.84-9.022 41.756-6.15 58.877 4.88zm12.466-9.365c.854 0 1.54.674 1.54 1.51s-.686 1.518-1.54 1.518c-.85 0-1.54-.68-1.54-1.516 0-.837.69-1.512 1.54-1.512zm-108.13 2.737l-2.063 2.085 1.885 2.12s-.6.51-1.033.747c-2.47 1.345-5.18-.78-5.05-3.077.19-3.345 4.22-4.94 6.264-1.872zm98.337-1.597c-1.278 0-2.31 1.03-2.31 2.31 0 1.274 1.032 2.31 2.31 2.31 1.276 0 2.31-1.036 2.31-2.31 0-1.28-1.036-2.31-2.313-2.31zm-89.97.09c1.84.012 3.27 1.424 3.445 3.05.14 1.294-.534 2.54-1.987 3.42-1.97 1.194-4.26-.74-4.22-.86l1.66-1.64-2-2.046c-.055-.04 1.32-1.94 3.1-1.928zm-5.753.395l3.403 3.394-3.603 3.356-3.336-3.35zm89.79 9.033l-1.914.877-2.604-1.57-.77 1.477 1.45.92-1.508.565c-17.364-9.756-36.983-6.93-50.025-.457 0 0 .11-1.003.12-1.003l1.42-.723-.53-1.796-.76.22-.06-1.987c18.62-8.387 39.75-6.467 55.18 3.474zm5.93-8.726c.85 0 1.54.677 1.54 1.514s-.69 1.517-1.54 1.517c-.85 0-1.54-.68-1.54-1.515 0-.837.69-1.513 1.54-1.513zm-95.79 1.218l-1.813 1.807 1.804 1.93 1.762-1.864zm56.84.4l-2.38.107.123 1.94 2.32-.057zm1.62.01l.04 1.94 2.156-.01-.01-1.915-2.19-.016zm3.824.034l-.106 1.93 2.142.097.156-1.92zm-9.246.246l-2.438.27.27 1.95 2.31-.27zm13.24.03l-.176 1.996 2.2.25.298-1.907zm-66.27.01l1.06 1.13-1.057 1.05-1.12-1.1zm48.92.59l-2.35.37.25 2.01 2.294-.45zm21.32 0l-.39 1.86 2.187.528.354-1.896zm-25.17.818l-1.974.526.428 1.956 2.085-.51zm28.924.078l-.414 1.888 2.23.608.45-1.81zm-32.184.94l-2.066.73.535 1.812 2.1-.708zm36.022.207l-.69 1.815 1.933.774.852-1.647zm-39.43 1.064l-1.96.803.808 1.798 1.86-.848zm-40.4.055l1.984 1.98 2.356-2.128c2.057 1.818 2.024 6.072-1.617 6.782-3.18.62-6.09-4.14-2.726-6.637zm83.37.38l-.756 1.666 2.132.94.735-1.606zm-60.852 10.7l26.92 45.756-4.257-.08L61.17 240.28zm-4.42 1.745l1.49 2.313c-2.916-2.32-7.2-.368-7.02 2.557.143 1.306 1.248 2.1 1.253.843-.133-1.315 1.73-2.46 3.082-2.398 2.495.032 4.018 3.238 2.297 4.835-1.133 1.042-2.665.996-2.148-.434.08-.49.04-.67-.193-.88-.71-.65-2.03.2-1.71 1.13.21.618.278.77-.46 1.27-2.852 2.01-.863 5.96 2.59 4.16.71-.255.997-.292 1.318-.17 1.44.555 2.42-.694 1.056-1.342-.792-.376-.813-1.02-.05-1.53 1.634-1.09 4.176.613 4.167 2.793-.006 1.54-2.04 2.68-3.992 2.233-1.16-.267-1.297.52-.235 1.333 2.06 1.58 5.14.27 6.06-2.572.29-.89.25-1.08.25-1.08l2.747 4.537s-.854-.402-1.37-.56c-2.585-.79-5.485.888-5.494 3.18-.004 1.08.635 1.497.993.65.83-1.97 2.642-2.738 4.5-1.907 1.72.77 2.51 2.51 1.84 4.065-.703 1.627-3.063 2.106-2.797.568.127-.732-.32-1.18-1.11-1.107-.296.027-.68.893-.576 1.31.095.39.027.483-.983 1.27-2.4 1.87-.554 4.926 2.44 4.04.505-.15.69-.134 1.143.083 1.083.52 2.22.194 2.225-.64 0-.57-.256-.79-.934-.792-1.03-.004-.807-1.166.33-1.734 2.85-1.424 5.76 2.172 4.027 4.975-.747 1.207-1.218 1.33-3.883 1.038-.43-.046-.627.248-.37.598.786 1.117 3.13 1.47 4.5.853 1.472-.668 2.37-2.35 2.474-4.15l3.01 5.26c-2.343-2.448-6.385-1.51-7.034 1.996 0 .89.81 1.352 1.09.62 1.22-3.165 5.85-2.194 5.84 1.224 0 .55-.11.86-.463 1.34-.85 1.64-3.02 2.046-2.63.575.18-.455-.17-.95-.77-1.093-.586-.14-.96.35-.95 1.25l.02.875c-1.085.457-1.776 1.35-2.017 2.675l-21.087.046c2.507-14.618 1.92-27.816-2.875-40.296-.415-1.08-1.01-2.652-1.01-2.652l3.72.1c.9.78 4.29.477 5.617-.726zm3.58 5.74l2.18 3.912c-.903-.516-1.82-.86-3.223-.978.732-1.09.79-2.06 1.044-2.94zM58 250.468c.792 0 1.434.64 1.434 1.435 0 .793-.642 1.435-1.435 1.435-.8 0-1.44-.642-1.44-1.435 0-.794.64-1.435 1.44-1.435zm15.014 11.686l2.098 3.733c-1.02-.434-1.882-.86-3.477-.9.58-.678 1.082-1.816 1.38-2.833zm-6.048 4c.752 0 1.363.61 1.363 1.36 0 .754-.62 1.36-1.37 1.36s-1.36-.606-1.36-1.36c0-.75.605-1.36 1.36-1.36zm15.197 11.635l3.096 5.49c-1.22-.7-2.53-1.58-4.18-1.41.78-1.68 1.21-2.59 1.08-4.08zm-4.12 6.85l-3.322.01c.67-2.91 3.35-2.15 3.33-.01zm3.143-1.4c1.13.06 2.104.44 2.714 1.43l-4.18.01s.03-1.45 1.466-1.44z"/></svg>