<svg xmlns="http://www.w3.org/2000/svg" width="224.218" height="312.801"><path d="M12.837 47.005c2.133-11.09 4.41-19.41 10.38-28.447H11.083v3.89H7.857v-7.33H25.61l2.19 3.44c-6.342 6.797-12.148 28.768-11.12 28.447zm198.543 218.79c-2.13 11.09-4.408 19.41-10.38 28.448h12.136v-3.89h3.225v7.33h-17.75l-2.18-3.44c6.34-6.797 12.146-28.768 11.117-28.447zM9.323 62.455c-1.583-3.47-1.757-9.404 2.97-10.207 3.563-.458 5.013 1.198 5.3 3.742.143.74.563.787.696-.06.2-2.61 2.78-4.133 4.8-3.75 5.523.945 5.2 7.03 3.4 11.155-2.73 5.48-5.6 8.938-8.25 14.452-3.04-5.74-6.51-10.405-8.927-15.333zm34.36-32.152c7.143-.474 10.867 5.628 11.594 10.437.434.762.67.546.837-.045.35-6.174 5.875-11.22 10.993-10.53 8.328.11 13.39 9.376 11.966 17.22-1.738 9.58-6.9 15.35-10.808 21.292-4.42 6.152-10.372 15.04-12.29 19.317 0 0-6.048-9.205-13.917-20.03-5.262-7.238-9.473-15.082-9.865-21.835-.448-7.72 2.72-14.64 11.49-15.83zm111.532 0c7.144-.474 10.868 5.628 11.595 10.437.433.762.67.546.837-.045.35-6.174 5.875-11.22 10.993-10.53 8.328.11 13.39 9.376 11.966 17.22-1.74 9.58-6.9 15.35-10.808 21.292-4.42 6.152-10.373 15.04-12.29 19.317 0 0-6.048-9.205-13.917-20.03-5.26-7.238-9.47-15.082-9.86-21.835-.45-7.72 2.72-14.64 11.49-15.83zm-55.1 50.124c7.145-.474 10.87 5.628 11.596 10.437.44.764.68.55.84-.042.35-6.172 5.88-11.22 11-10.53 8.33.11 13.39 9.377 11.967 17.22-1.74 9.58-6.9 15.35-10.81 21.293-4.42 6.153-10.37 15.04-12.29 19.317 0 0-6.05-9.205-13.916-20.03-5.262-7.24-9.473-15.083-9.865-21.836-.45-7.715 2.72-14.632 11.49-15.827zM43.683 130.55c7.144-.474 10.868 5.628 11.595 10.437.434.764.67.55.837-.042.35-6.174 5.875-11.22 10.993-10.53 8.328.108 13.39 9.375 11.966 17.218-1.738 9.582-6.9 15.352-10.808 21.294-4.42 6.152-10.372 15.04-12.29 19.316 0 0-6.048-9.204-13.917-20.03-5.27-7.238-9.48-15.082-9.87-21.835-.45-7.715 2.72-14.63 11.49-15.827zm111.533 0c7.144-.474 10.868 5.628 11.595 10.437.44.764.67.55.84-.042.35-6.174 5.88-11.22 10.998-10.53 8.33.108 13.39 9.375 11.967 17.218-1.74 9.582-6.9 15.352-10.81 21.294-4.42 6.152-10.372 15.04-12.29 19.316 0 0-6.05-9.204-13.916-20.03-5.26-7.238-9.47-15.082-9.864-21.835-.45-7.715 2.72-14.63 11.49-15.827zm42.923 122.763c-1.59 3.472-1.76 9.405 2.97 10.208 3.56.46 5.01-1.19 5.3-3.74.14-.74.56-.79.69.06.202 2.61 2.785 4.14 4.804 3.75 5.527-.94 5.204-7.03 3.4-11.15-2.73-5.48-5.6-8.94-8.246-14.45-3.038 5.74-6.507 10.405-8.926 15.333zm-42.93 33.33c7.143.474 10.87-5.628 11.594-10.437.433-.764.67-.548.837.043.35 6.17 5.876 11.22 10.994 10.53 8.33-.11 13.39-9.38 11.968-17.22-1.74-9.59-6.9-15.35-10.808-21.3-4.42-6.155-10.374-15.04-12.29-19.32 0 0-6.05 9.205-13.918 20.03-5.26 7.238-9.47 15.08-9.864 21.835-.45 7.715 2.72 14.632 11.49 15.83zm-111.534 0c7.144.474 10.87-5.628 11.595-10.437.435-.764.67-.548.838.043.35 6.17 5.874 11.22 10.992 10.53 8.328-.11 13.39-9.38 11.966-17.22-1.738-9.59-6.9-15.35-10.808-21.3-4.42-6.155-10.372-15.04-12.29-19.32 0 0-6.048 9.205-13.917 20.03-5.262 7.238-9.473 15.08-9.865 21.835-.447 7.715 2.72 14.632 11.49 15.83z" fill="#d40000"/></svg>