<svg xmlns="http://www.w3.org/2000/svg" width="224.225" height="312.808"><path d="M18.334 46.872V44.06h2.585v-4.637H7.99v-3.27l13.985-21.1 2.284.01v21.09h3.95v3.27h-3.95l-.078 4.636h2.167v2.81zm2.585-24.097l-8.88 13.377h8.88zm184.97 243.16v2.814h-2.59v4.63h12.922v3.27l-13.984 21.1-2.285-.01v-21.09H196v-3.27h3.952l.076-4.64h-2.166v-2.814zm-2.59 24.098l8.88-13.377h-8.88zM9.25 61.493c-1.58-3.472-1.754-9.405 2.97-10.208 3.566-.458 5.01 1.198 5.3 3.742.146.743.56.79.698-.058.206-2.61 2.788-4.14 4.808-3.75 5.526.94 5.204 7.02 3.398 11.15-2.73 5.48-5.6 8.94-8.245 14.45-3.037-5.74-6.506-10.408-8.925-15.336zm36.24-34.93c7.15-.475 10.88 5.627 11.6 10.437.434.763.672.548.838-.043.35-6.174 5.875-11.22 10.992-10.53 8.328.108 13.39 9.375 11.967 17.218-1.74 9.582-6.9 15.35-10.808 21.293-4.43 6.153-10.38 15.04-12.29 19.317 0 0-6.05-9.204-13.92-20.03-5.26-7.238-9.48-15.082-9.87-21.835-.45-7.715 2.72-14.63 11.49-15.827zm109.536 0c7.143-.475 10.87 5.627 11.595 10.436.434.76.67.54.838-.05.35-6.176 5.88-11.22 11-10.53 8.327.11 13.39 9.373 11.966 17.22-1.74 9.58-6.9 15.35-10.807 21.29-4.423 6.153-10.374 15.04-12.29 19.317 0 0-6.05-9.203-13.92-20.03-5.26-7.237-9.473-15.08-9.865-21.834-.45-7.716 2.72-14.63 11.488-15.828zm-109.53 256.34c7.143.474 10.867-5.627 11.594-10.436.44-.764.68-.55.84.042.35 6.17 5.88 11.22 10.99 10.53 8.33-.11 13.39-9.38 11.97-17.22-1.74-9.58-6.9-15.35-10.81-21.3-4.42-6.15-10.37-15.04-12.29-19.32 0 0-6.05 9.205-13.912 20.03-5.262 7.238-9.473 15.08-9.865 21.835-.45 7.716 2.72 14.632 11.49 15.83zm109.53 0c7.145.474 10.87-5.627 11.597-10.436.433-.764.67-.55.837.042.35 6.17 5.88 11.22 11 10.53 8.328-.11 13.39-9.38 11.967-17.22-1.74-9.58-6.9-15.35-10.807-21.3-4.423-6.15-10.374-15.04-12.29-19.32 0 0-6.05 9.205-13.92 20.03-5.26 7.238-9.473 15.08-9.865 21.835-.45 7.716 2.72 14.632 11.488 15.83zm41.446-31.297c-1.583 3.472-1.757 9.405 2.97 10.208 3.563.458 5.013-1.2 5.3-3.742.143-.743.563-.79.696.058.2 2.61 2.78 4.133 4.8 3.75 5.525-.945 5.202-7.028 3.4-11.155-2.73-5.48-5.6-8.938-8.248-14.452-3.04 5.74-6.51 10.405-8.927 15.333z" fill="#d40000"/></svg>