<svg xmlns="http://www.w3.org/2000/svg" width="224.225" height="312.808"><path d="M7.342 38.05c.16-4.377 1.77-6.02 4.944-8.31-2.53-1.796-3.598-4.437-3.382-6.688.52-5.447 4.81-8.172 9.485-8.053 4.67.11 8.7 3.76 9.01 7.72.272 3.44-.77 5.1-3.26 6.91 2.953 2.44 4.84 4.05 4.77 8.36-.073 4.31-3.807 9.44-10.316 9.594-6.51.16-11.42-5.17-11.26-9.544zm18.173.013c.28-3.962-3.29-6.635-7.314-6.677-3.92-.04-7.43 3.247-7.43 6.804 0 3.82 4.57 5.897 7.51 5.908 3.59.013 7-2.622 7.24-6.035zM24.227 23.89c.078-3.338-3.057-5.73-6.29-5.633-2.874.085-5.92 2.24-5.92 5.03-.004 3.49 3.46 5.233 6.415 5.3 2.68.058 5.736-2.176 5.795-4.697zm192.656 250.87c-.16 4.374-1.77 6.018-4.944 8.31 2.53 1.794 3.59 4.435 3.38 6.686-.52 5.447-4.81 8.172-9.49 8.053-4.678-.12-8.707-3.77-9.02-7.73-.275-3.445.77-5.1 3.256-6.917-2.953-2.44-4.84-4.05-4.77-8.36.073-4.31 3.807-9.44 10.316-9.597 6.51-.158 11.422 5.17 11.262 9.544zm-18.173-.015c-.28 3.962 3.29 6.635 7.314 6.677 3.922.04 7.43-3.247 7.43-6.804 0-3.82-4.562-5.897-7.51-5.908-3.582-.013-6.993 2.622-7.234 6.035zm1.288 14.173c-.078 3.338 3.057 5.73 6.29 5.633 2.874-.08 5.92-2.24 5.922-5.03.003-3.49-3.463-5.23-6.417-5.29-2.68-.06-5.736 2.176-5.795 4.697zM10.08 63.408c-1.583-3.472-1.756-9.405 2.97-10.208 3.563-.458 5.013 1.2 5.3 3.742.143.743.563.79.696-.058.204-2.61 2.787-4.133 4.806-3.75 5.527.945 5.204 7.028 3.4 11.156-2.732 5.48-5.602 8.937-8.246 14.45C15.968 73 12.5 68.337 10.08 63.41zm34.98-35.273c7.143-.474 10.867 5.628 11.594 10.437.433.764.67.548.837-.042.35-6.175 5.88-11.22 11-10.53 8.33.108 13.39 9.375 11.97 17.218-1.74 9.582-6.9 15.35-10.808 21.293-4.42 6.16-10.373 15.04-12.29 19.32 0 0-6.05-9.2-13.917-20.03-5.262-7.24-9.473-15.08-9.865-21.83-.447-7.713 2.72-14.63 11.49-15.83zm109.53 0c7.145-.474 10.87 5.628 11.597 10.437.433.764.67.548.837-.042.35-6.175 5.874-11.22 10.992-10.53 8.328.108 13.39 9.375 11.967 17.218-1.74 9.582-6.9 15.35-10.808 21.293-4.422 6.16-10.373 15.04-12.29 19.32 0 0-6.05-9.2-13.918-20.03-5.26-7.24-9.473-15.08-9.865-21.83-.448-7.713 2.72-14.63 11.49-15.83zM99.242 78.26c7.144-.475 10.868 5.627 11.595 10.436.433.764.67.55.837-.042.35-6.174 5.875-11.22 10.993-10.53 8.328.108 13.39 9.375 11.966 17.218-1.74 9.582-6.9 15.35-10.808 21.293-4.42 6.153-10.373 15.04-12.29 19.317 0 0-6.048-9.204-13.917-20.03-5.262-7.238-9.473-15.082-9.865-21.835-.448-7.715 2.72-14.63 11.49-15.827zM45.06 128.384c7.143-.475 10.867 5.627 11.594 10.436.433.764.67.55.837-.042.35-6.174 5.88-11.22 11-10.53 8.33.108 13.39 9.375 11.97 17.22-1.74 9.58-6.9 15.35-10.808 21.292-4.42 6.152-10.373 15.04-12.29 19.316 0 0-6.05-9.204-13.917-20.03-5.262-7.238-9.473-15.08-9.865-21.835-.447-7.71 2.72-14.63 11.49-15.82zm109.53 0c7.145-.475 10.87 5.627 11.597 10.436.433.764.67.55.837-.042.35-6.174 5.874-11.22 10.992-10.53 8.328.108 13.39 9.375 11.967 17.22-1.74 9.58-6.9 15.35-10.808 21.292-4.422 6.152-10.373 15.04-12.29 19.316 0 0-6.05-9.204-13.918-20.03-5.26-7.238-9.473-15.08-9.865-21.835-.448-7.71 2.72-14.63 11.49-15.82zm0 156.092c7.145.474 10.87-5.628 11.597-10.437.433-.77.67-.55.837.04.35 6.17 5.874 11.22 10.992 10.53 8.328-.11 13.39-9.38 11.967-17.22-1.74-9.58-6.9-15.35-10.808-21.29-4.422-6.16-10.373-15.04-12.29-19.32 0 0-6.05 9.2-13.918 20.03-5.26 7.24-9.473 15.08-9.865 21.83-.448 7.715 2.72 14.63 11.49 15.83zm-55.348-49.3c7.144.475 10.868-5.627 11.595-10.436.433-.764.67-.55.837.042.35 6.174 5.875 11.22 10.993 10.53 8.328-.108 13.39-9.375 11.966-17.218-1.74-9.582-6.9-15.35-10.808-21.293-4.42-6.15-10.373-15.04-12.29-19.31 0 0-6.048 9.207-13.917 20.03-5.262 7.24-9.473 15.08-9.865 21.838-.448 7.715 2.72 14.63 11.49 15.827zm-54.182 49.3c7.143.474 10.867-5.628 11.594-10.437.433-.77.67-.55.837.04.35 6.17 5.88 11.22 11 10.53 8.33-.11 13.39-9.38 11.97-17.22-1.74-9.58-6.9-15.35-10.808-21.29-4.42-6.16-10.373-15.04-12.29-19.32 0 0-6.05 9.2-13.917 20.03-5.262 7.24-9.473 15.08-9.865 21.83-.447 7.715 2.72 14.63 11.49 15.83zm153.835-30.21c-1.583 3.472-1.756 9.406 2.972 10.208 3.562.46 5.01-1.198 5.3-3.742.142-.743.56-.788.694.06.21 2.608 2.79 4.13 4.81 3.75 5.53-.947 5.21-7.03 3.4-11.157-2.73-5.48-5.6-8.938-8.24-14.452-3.037 5.74-6.506 10.405-8.925 15.333z" fill="#d40000"/></svg>