<svg xmlns="http://www.w3.org/2000/svg" height="312.808" width="224.225"><path d="M9.578 60.73c-1.583-3.472-1.757-9.405 2.97-10.208 3.563-.46 5.013 1.198 5.3 3.742.143.743.563.788.696-.06.204-2.608 2.787-4.13 4.806-3.75 5.527.947 5.204 7.03 3.4 11.157-2.732 5.48-5.602 8.94-8.246 14.46-3.038-5.74-6.507-10.403-8.926-15.33zm187.724 191.272c-1.583 3.472-1.757 9.405 2.97 10.208 3.563.458 5.013-1.2 5.3-3.742.143-.743.563-.79.696.058.204 2.61 2.787 4.133 4.806 3.75 5.527-.945 5.204-7.028 3.4-11.156-2.732-5.48-5.602-8.937-8.246-14.45-3.04 5.74-6.508 10.404-8.926 15.332zM8.672 47.135l.165-2.018c.51-6.24 1.874-8.347 9.622-14.856 3.76-3.15 4.99-4.71 5.16-6.52.49-4.26-3.35-5.59-5.857-5.61-3.24-.03-6.91 1.913-5.16 6.415L8.97 25.607c-.734-4.2.017-8.142 3.426-9.892 4.544-2.28 10.38-1.385 13.32 2.207 1.98 2.417 2.43 5.75 1.37 8.36-3.1 6.67-13.62 9.604-14.49 17.32h11.63v-4.3h3.426v7.906zM215.28 265.673l-.164 2.018c-.51 6.24-1.875 8.35-9.622 14.86-3.76 3.16-4.994 4.72-5.168 6.53-.49 4.26 3.35 5.59 5.855 5.616 3.25.03 6.91-1.912 5.17-6.414l3.638-1.07c.734 4.2-.017 8.144-3.426 9.894-4.546 2.28-10.38 1.383-13.323-2.21-1.978-2.412-2.428-5.744-1.368-8.353 3.1-6.672 13.62-9.607 14.49-17.32h-11.63v4.295h-3.43v-7.906zM100.028 28.463c7.144-.473 10.868 5.628 11.595 10.437.433.764.67.55.837-.042.35-6.174 5.875-11.22 10.992-10.53 8.328.108 13.39 9.375 11.967 17.22-1.74 9.58-6.9 15.35-10.81 21.292-4.42 6.152-10.38 15.04-12.29 19.317 0 0-6.05-9.205-13.92-20.03-5.26-7.238-9.48-15.082-9.87-21.835-.448-7.716 2.72-14.632 11.49-15.828zm0 256.302c7.144.475 10.868-5.627 11.595-10.436.433-.77.67-.55.837.04.35 6.17 5.875 11.22 10.992 10.53 8.328-.11 13.39-9.38 11.967-17.22-1.74-9.58-6.9-15.35-10.81-21.3-4.42-6.153-10.38-15.04-12.29-19.317 0 0-6.05 9.203-13.92 20.03-5.26 7.237-9.48 15.08-9.87 21.834-.448 7.715 2.72 14.63 11.49 15.827z" fill="#d40000"/></svg>