<svg xmlns="http://www.w3.org/2000/svg" width="224.225" height="312.808"><path d="M7.734 46.564v-2.737h2.66l5.665-29.27h3.22l6.242 29.27h2.147v2.737h-7.317v-2.737h1.976l-.787-4.486h-7.386l-.57 4.49h1.977v2.737zm13.178-10.416l-3.21-15.67-3.006 15.67zM216.49 266.244v2.737h-2.66l-5.664 29.275h-3.223l-6.242-29.27h-2.144v-2.738h7.318v2.737h-1.976l.787 4.486h7.387l.57-4.486h-1.976v-2.736zm-13.177 10.416l3.21 15.67 3.006-15.67zm-92.49-108.91c.016-2.026-1.586-2.064-1.57-.586-.132 7.43-6.414 11.087-10.98 10.22-7.034-1.34-9.28-8.323-9.213-12.436.207-12.697 12.988-22.06 24.52-38.335 8.45 14.69 22.398 26.23 23.223 37.586 1.098 15.094-18.01 20.725-20.737 3.13-.176-1.245-1.64-1.8-1.526-.067.415 4.823-.175 6.832 5.266 18.72h-14.222c3.15-5.555 5.026-12.375 5.24-18.236zm-92.8-97.44c.01-.873-.897-.466-1.02-.192-1.162 1.986-2.864 2.448-4.547 1.732-1.667-.71-2.604-2.28-2.454-4.522.31-3.438 3.035-7.2 4.355-9.326 1.252-1.93 2.628-4.222 4.077-7.154 1.697 3.363 2.558 4.32 4.405 7.39 1.622 2.706 3.89 5.354 4.063 8.624 0 2.484-1.046 4.83-3.4 5.26-1.33.24-2.578-.443-3.503-2.038-.28-.406-.85-.195-.84.362.167 2.093.957 3.983 2.83 6.212h-6.886c1.41-1.576 2.85-3.704 2.916-6.35zm188.38 172.574c.01.87-.897.464-1.02.19-1.162-1.986-2.864-2.448-4.547-1.732-1.667.71-2.604 2.28-2.454 4.522.31 3.438 3.035 7.2 4.355 9.327 1.252 1.93 2.628 4.226 4.077 7.158 1.697-3.363 2.558-4.32 4.405-7.392 1.622-2.704 3.89-5.353 4.063-8.622 0-2.484-1.046-4.83-3.4-5.258-1.33-.242-2.578.44-3.503 2.036-.28.408-.85.196-.84-.36.167-2.094.957-3.984 2.83-6.21h-6.886c1.41 1.574 2.85 3.7 2.916 6.347z"/></svg>