<svg xmlns="http://www.w3.org/2000/svg" width="224.225" height="312.808"><path d="M18.334 46.872V44.06h2.585v-4.637H7.99v-3.27l13.985-21.1 2.284.01v21.09h3.95v3.27h-3.95l-.078 4.636h2.167v2.81zm2.585-24.097l-8.88 13.377h8.88zm184.97 243.16v2.814h-2.59v4.63h12.922v3.27l-13.984 21.1-2.285-.01v-21.09H196v-3.27h3.952l.076-4.64h-2.166v-2.814zm-2.59 24.098l8.88-13.377h-8.88zM55.4 66.76c.018-2.026-1.584-2.064-1.57-.586-.13 7.43-6.412 11.087-10.98 10.22-7.032-1.34-9.28-8.323-9.21-12.437.21-12.697 12.99-22.057 24.52-38.334 8.45 14.69 22.4 26.23 23.226 37.586 1.097 15.09-18.01 20.72-20.738 3.13-.175-1.25-1.64-1.8-1.525-.07.417 4.82-.173 6.83 5.268 18.72H50.168c3.15-5.558 5.025-12.378 5.24-18.24zm111.536 0c.014-2.026-1.588-2.064-1.57-.586-.134 7.43-6.416 11.087-10.98 10.22-7.037-1.34-9.28-8.323-9.215-12.437.208-12.696 12.99-22.058 24.52-38.334 8.45 14.69 22.398 26.23 23.224 37.586 1.098 15.09-18.01 20.72-20.737 3.13-.176-1.25-1.64-1.8-1.526-.07.415 4.82-.174 6.83 5.267 18.72H161.7c3.15-5.558 5.024-12.378 5.24-18.24zM55.416 242.73c.014 2.027-1.588 2.066-1.57.587-.134-7.43-6.416-11.086-10.98-10.22-7.037 1.34-9.28 8.323-9.215 12.437.21 12.696 12.99 22.058 24.52 38.334 8.45-14.69 22.4-26.23 23.225-37.585 1.098-15.098-18.01-20.73-20.737-3.133-.176 1.243-1.64 1.8-1.526.065.415-4.823-.174-6.832 5.267-18.72H50.18c3.15 5.555 5.023 12.375 5.24 18.236zm111.53 0c.016 2.027-1.585 2.066-1.567.587-.136-7.43-6.42-11.086-10.98-10.22-7.04 1.34-9.285 8.323-9.217 12.437.207 12.696 12.987 22.058 24.52 38.334 8.45-14.69 22.397-26.23 23.223-37.585 1.097-15.098-18.01-20.73-20.737-3.133-.17 1.243-1.64 1.8-1.52.065.415-4.823-.174-6.832 5.266-18.72h-14.22c3.15 5.555 5.025 12.375 5.24 18.236zM17.5 70.55c.01-.872-.896-.465-1.018-.19-1.163 1.985-2.865 2.447-4.548 1.73-1.667-.708-2.604-2.28-2.454-4.52.31-3.44 3.035-7.2 4.355-9.328 1.252-1.93 2.628-4.222 4.077-7.154 1.697 3.363 2.558 4.32 4.405 7.392 1.626 2.704 3.892 5.353 4.067 8.622 0 2.485-1.046 4.832-3.4 5.26-1.33.24-2.578-.442-3.503-2.037-.28-.407-.84-.195-.83.362.166 2.093.956 3.983 2.83 6.21h-6.89c1.41-1.575 2.85-3.702 2.917-6.348zm187.218 172c.01.87-.895.464-1.017.19-1.16-1.986-2.86-2.448-4.54-1.732-1.67.71-2.603 2.28-2.452 4.522.31 3.438 3.035 7.2 4.355 9.327 1.25 1.93 2.628 4.222 4.076 7.154 1.7-3.36 2.56-4.32 4.406-7.39 1.627-2.7 3.893-5.35 4.068-8.62 0-2.48-1.045-4.83-3.4-5.26-1.33-.24-2.577.44-3.502 2.04-.28.41-.85.198-.84-.36.168-2.092.958-3.982 2.83-6.21h-6.885c1.41 1.576 2.85 3.7 2.916 6.35z"/></svg>