<svg xmlns="http://www.w3.org/2000/svg" width="224.224" height="312.806"><title>Vectorized Playing Cards 1.0</title><path d="M29.482 23.066l-.04 265.884 164.638.357.098-266.05zm52.29 1.555l74.595.28s-8.546 11.06-10.313 16.09c-1.373 1.76-1.995 1.44-4.26.98-6.063-1.58-16.28-1.55-21.355-1.65-9.59-.43-18.19 2.54-27.79 3.03-3.316-5.54-8.12-12.5-10.887-18.722zm-50.227.49l47.973.14 11.247 20.52c.408.578.02 1.75-.225 2.418-1.388 3.908-2.615 6.174-5.423 10.832-2.66 4.41-3.614 8.452-2.67 11.17.142.332.264.84.215 1.265-.155 1.355-1.292 2.923-2.84 3.996-1.053.17-3.24.304-4.505 1.556-1.084 1.074-1.973 2.643-1.834 5.51.066 1.028.196 1.68.196 1.68-14.31 5.95-24.56 12.923-24.22 13.18-.14-.063-12.58-5.788-17.75-7.205zm127.482.36l32.887.03.195 93.84-12.63-8.18c1.034-.72 1.673-1.15 2.762-1.89.193-.05.56-.06.797-.11 2.2-.49 3.73-2.135 2.97-3.84-.52-1.156.19-1.085.826-2.03.716-1.06.567-2.006.11-2.9-.225-.442-.1-.62.28-1.44 1.007-1.25.28-3.36-1.022-4.042-.136-.2.142-.512.205-.802.37-1.69-.306-3.176-1.77-3.553-.75-.195-1.003-.325-.74-1 .474-1.192-.147-1.636-1.127-2.023-1.65-.653-1.184-.758.854-1.674 4.17-1.874 5.152-7.45 2.283-12.508-.36-.643-1.34-2.152-2-3.164-.77-1.18-1.52-2.2-1.52-2.2l5.52-7.696s-3.84-4.553-5.21-7.07c.324-1.244 4.17-5.146 4.67-8.935.784-5.94-3.727-9.743-7.994-9.296-2.96.31-6.6 2.2-6.33 7.7.086 1.71.753 3.474 1.96 5.61.847 1.6 1.94 3.29 2.99 4.915l-5.555 7.594 5.617 7.11s-.075.114-.197.307c-.56.89-2.185 3.5-2.888 5.034-2.07 4.094-2.803 8.588 1.448 11.756.743.456 1.316.844 1.633 1.16.417.412.157.726-.514.883-.79.167-1.597.156-2.428.484-2.668.97-5.34 2.54-7.24 4.08-1.066.86-2.785 3.59-3.834 5.806-1.14 2.41-1.458 2.944-1.458 2.944l-19.528-12.5s-.498-.39-.63-.54c-.367-.408-.236-.645.016-1.096.213-.38.22-1.506.127-2.36-.027-1.637-.015-1.643.93-3.15.33-.53.47-1.057.278-1.875-.307-.92-.336-.63.25-1.26.227-.28.502-.42.547-.722.06-.408.02-1.12.03-2.446.012-2.66-.024-2.44 1.47-3.61 1.855-1.45 2.546-2.137 2.84-2.79.42-.944 0-1.654-1.043-3.534-.48-.86-1.216-2.02-1.57-2.668-.67-1.164-1.63-2.697-2.09-4.16-.696-1.127-.59-3.077.052-4.22.807-1.44 1.03-2.308 1.003-5.215-.027-2.695-.222-2.444.464-3.346 5.13-6.79 13.278-19.414 13.278-19.414zm20.9 9.93c.11 0 .223.01.333.01 1.616.08 3.22.6 4.71 2.04 2.026 2.03 1.888 4.96 1.222 8.01-.307.885-.535 1.785-1.16 2.71-.346.514-.63.99-.63 1.056 0 .063-.5.867-1.11 1.79-.596.9-1.28 2.155-1.28 2.155s.953 1.71 2.645 3.854c1.276 1.895 2.103 3.548 2.2 3.45 0 0-.323.82-.768 1.405-1.35 1.76-3.82 5.44-3.92 5.823-.025.09-.28.186-.276.278.02.34.51.747 1.247 1.76 4.46 6.124 5.09 11.293 1.74 14.33-1.665 1.51-3.31 1.984-5.075 1.794-3.233-.346-6.217-3.105-5.868-7.13.157-1.847.06-2.4 1.15-4.547.49-1.21 1.602-3.28 2.34-4.325.646-.75 1.335-1.82 1.335-1.82s-1.588-2.44-4.505-5.875c-.525-.627-.85-1.476-.85-1.476l4.998-7.402s-.58-1.435-1.555-2.89c-2-2.98-3.287-6.15-3.275-7.932.03-4.444 2.937-7.048 6.342-7.055zm12.446 105.77c-2.95 1.57-5.824 6.93-.21 3.19l.142 3.09c-2.92 4.145-8.632 1.106-7.18-3.186-3.942.51-4.557-3.49-4.357-5.396-5.186-1.13-3.394-6.62-3.394-6.62-2.997-2.505-3.522-5.13-1.095-7.894-2.46-1.528-3.15-2.506-5.85-3.614 2.07 18.39 11.99 27.942 22.44 36.455 0 0 .23 5.922-.96 4.83-14.92-11.145-24.51-23.89-26.16-44.507-.127.324-7.07-5.377-8.22-5.074-2.41 33.386 24.17 55.33 35.22 59.65 0 0 .156 4.65-.034 4.67-16.75-7.305-35.375-28.75-38.963-54.265l-9.88 15.31-3.702-1.587 15.98-25.18-10.805-6.773-17.597 27.88s-.468 2.326.806 2.29c24.7 2.643 61.43 32.316 49.12 80.61-1.063-.42-2.762-1.25-2.85-1.213 1.93-4.16 7.32-31.122-8.882-52.9-7.424-9.98-18.935-20.598-37.406-23.733 1.527 3.15.86 10.294.86 10.294l4.305.87c-1.45-1.534-2.665-2.8-3.24-4.463-.806-2.59.375-4.13 3.247-2.584 1.14.64 1.43.617 2.54-.21 2.31-1.72 4.95.05 4.34 2.91-.09.42.024.69 1.12.788 2.49.248 4.996 1.48 6.62 3.414.795 1.02.975.87 1.682.255 1.737-1.506 4.61.583 4.1 2.916-.294 1.334-.13 1.654.484 1.913 3.392 1.426 4.225 2.325 5.28 5.296.388 1.09.706 1.447.906 1.385.14-.044.7-.23 1.19-.416 2.534-.96 4.016 2.103 2.22 4.504-.366.493-.094.965.56 1.32 2.11 1.15 3.54 3.898 3.79 6.78.096 1.095.21 1.096 1.306 1.05 2.804-.117 4.14 3.67 1.858 5.062-.794.485-.646 1.11-.03 1.843 1.636 1.94 2.018 3.34 1.874 5.55-.19 2.94-.004 2.883.934 3.24 2.724 1.04 2.216 5.393-.456 5.38 1.926 4.48-.61 9.95-.525 10.05 5.136 2.89.5 5.955-.99 5.42 0 0-.76 2.01.102 3.05-4.503 5.96-10.4 6.945-16.93 9.905l-.205-20.98c2.716 2.186 5.41 4.226 8.1 6.26 0 0 .68-.206.06-.78-1.197-1.107-4.207-3.053-5.05-3.83-1.817-1.38-8.478-7.75-9.663-9.256-.53-1.006-1.33-.424-1.31-.364.797 1.378 1.39 2.983 2.422 4.41 2.225 3.09 4.39 6.52 4.162 9.917-.005 1.9-.76 3.864-1.182 4.818-.312 1.303-2.39-.223-1.87-1.32.927-3.01 1.69-5.475-1.61-10.31-1.61-2.356-3.697-6.635-3.697-6.635l-1.337.322.05 27.37c-1.12.047-3.96.783-3.375.803 8.85-1.77 11.56 10.89 3.014 11.303-1.62.058-3.3 2.85-3.47 4.367.072 3.677.61 7.555-2.08 11.087-.707.927-1.033 2.4-1.687 3.56-3.284 5.815-4.75 9.15-4.416 10.65.09.386.17.895.17.895-10.464 2.612-18.31 3.283-28.85 3.53-.102-.166 3.54-10.408 6.196-15.66 1.965-3.88 2.977-6.534 2.426-7.335-8.357.42-6.754-11.833 1.243-11.402 0 0 2.006-7.06 4.25-10.244 2.126-1.18 6.404.43 8.802-1.16 5.65-1.73 9.35 4.95 9.35 4.95l1.52-6.354-49.967-.24s-5.15 1.93-7.78.84c-1.682-.696-3.612-2.667-3.614-2.666 0 0 19.093-30.67 21.9-35.094.226-.36-.5-1.13-.5-1.14-.106-1.003-22.228 33.48-22.138 35 0 0-.59.837-1.654.1-12.512-8.633-42.413-27.194-42.413-27.194l-.04-13.75c10.4-6.554 9.46-9.232-.164-2.09-.135.116-.206-5.162-.206-5.162 7.336-6.556 1.235-4.5-.214-2.23.035-1.636-.344-3.855.7-4.83 3.207-2.958 6.985-.245 7.175 4.124 4.18.82 3.665 4.495 4.74 5.972 4.266 2.406 2.02 6.06 3.08 7.3 4.49 2.832 1.36 7.385.41 7.28.564.38 6.145 4.123 6.624 3.986C53.1 171.918 31.5 153.19 30.9 154.176l.46-4.23s26.996 17.265 26.76 44.973l8.606 5.11c-.764-28.43-13.46-47.618-35.165-59.825l-.46-5.355c18.22 8.483 35.12 25.646 39.06 53.78l10.087-15.657 3.555 1.72-16.196 25.99 10.115 6.652c7.845-10.33 14.388-22.998 18.376-29.024-.104-.55-.322-1.34-.322-1.34-38.57-6.37-60.294-42.51-49.94-80.273l2.68 1.18c-8.04 27.967 5.074 68.225 47.02 76.457-.084-2.975-.61-10.29-.61-10.29s-5.51-1.657-4.7-.993c1.35 1.156 4.386 6.13 3.1 7.9-.92.13-2.46-.386-4.15-1.623-.634-.465-.652-.366-1.37.397-1.98 2.116-4.86.903-4.89-2.006-.01-1.23-.054-1.49-1.8-1.5-2.64-.02-3.83-.474-5.41-2.594-1.124-1.502-1.02-1.51-2.342-1.055-2.533 1.205-4.554-1.327-3.76-3.414.39-.977-.025-1.29-1.18-1.48-2.242-.37-4.78-3.188-5.246-5.488-.096-.47-.33-.588-1.653-.543-2.594.09-4.03-1.482-3.007-3.686.552-1.19.71-1.67-.33-2.478-1.27-.99-1.988-1.674-2.55-2.873-.45-.95-.516-1.56-.824-3.585-.108-.703-.34-.82-1.26-.94-2.685-.35-3.743-3.093-1.773-4.873.603-.545.6-.53-.31-1.713-1.755-2.27-2.41-5.238-1.648-7.213.205-.535.003-1.19-.62-1.345-2.45-.61-2.49-3.32-.15-4.845.68-.44.715-.735.2-1.627-.9-1.565-.854-5.66.016-7.62.564-1.267.56-1.297-.31-1.854-1.86-1.187-1.33-4.454.87-4.99 1.067-.264 1.14-.403.85-1.7-.51-2.31-.6-2.91.763-3.823 3.75-2.434 13.353-7.09 13.353-7.09l3.174-1.51s.318 19.387.113 21.68c-.124.987.762 1.584 1.794 2.61 2.13 2.098 3.3 4.63 6.145 6.39 0 0 1.77-.984 2.87-1.69l.105-27.623c.227-.627.384-.696 1.11-.782.608-.117 2.13-.287 2.638-.436 1.225-.36 1.418-.855-.19-.69-.486.05-1.213.255-2.025.42-5.03 1.51-8.75-6.32-4.92-10.27.735-.66 3.48-1.805 4.73-1.884.36.003 1.432-1.318 2.165-2.538.74-1.226 1.044-2.137.62-3.365-.885-2.585-.04-6.553 2.614-10.886 2.87-4.09 5.09-8.654 6.252-13.51 10.177-1.23 18.81-3.76 28.01-3.2.36 3.11-10.058 21.44-7.883 22.514 8.2 1.963 5.4 11.68-.83 11.36-.93-.005-1.022.078-1.62 2.14-1.13 3.016-1.86 5.315-3.072 8.12-.003.72-.507.65-3.916.625-3.114-.46-5.263 1.236-7.53 1.334-2.89.13-5.354-1.254-6.357-3.55-.447-1.024-.862-.35-.875 2.08-.01 1.93-.09 3.06-.09 3.06s11.945.034 25.55.057c27.51.05 24.77.47 26.95-.62 1.278-.636 2.118-1.326 4.32.114 3.53 2.308 3.417 1.994 2.388 3.48-6.916 10.25-22.198 34.923-22.198 34.923l1.07 1.047s15.434-24.39 22.465-35.816c.32-.37 1.79.1 1.79.1l42.103 27.385c-.353 4.14.06 13.413.06 13.413-11.834 6.284-8.22 9.486-.07 1.874zm-71.45-98.53s12.214.1 18.338 1.08c5.37.86 5.09.7 5.07 4.596-.01 2.765-.02 2.703-.73 4.03-1.31 2.444-1.08 4.854.99 8.23 2.007 3.275 3.477 5.694 3.477 6.16-.003.724-.125 1.607-1.865 2.82-2.052 1.436-2.444 2.44-2.415 3.895.02 1.18-.2 1.564-.907 1.56-.282-.002-1.28.46-2.352.968-1.884.89-1.89.89-3.646.875-.884-.006-1.31-.34-1.557-.243-.476.22-.906 1.805-.89 2.27.05.16.3.062.82-.116 2.92-1 7.26-.55 7.38-.115.59.53.59 1.354-.3 2.21-.576.903-.837 1.37-.596 2.77.325 1.905.08 2.66-.89 3.318-2.968 2.005-6.93 2.26-13.264 1.04-6.674-1.283-11.24-3.83-15.036-8.386-1.697-2.036-2.116-2.75-1.277-2.89 1.037-.16 2.18-.375 3.24-.83 4.69-2.02 4.61-10.61-1.71-11.51-2.58-.09 5.326-12.246 8.125-21.74zm6.026 5.917c-2.27 1.27-3.46 2.82-3.46 3.664 0 .344.07.28 1.16-.43 3.14-2.07 11.43-5.056 14.38-3.33 2.13 1.28 2.96.86 1.722-.86-2.897-4.04-10.71-.73-13.81.958zm8.1 1.356c-.34 0-.69.04-1.03.11-2.19.49-4.6 2.29-6.59 3.88-.99.783-2.38 2.333-2.59 2.738-.5.92.59 1.93 2.07 1.12.86-.47.93-.363 1.76-.25 1.91.577 4.085 1.468 7.45 1.185.315.074.292.148.182.44-.2.54-1.393 1.57-2.95 2.72-.802.595-1.504 1.08-1.56 1.17-.247.396.825.427 2-.24 1.668-.945 3.59-3.037 4.764-4.72.112-.16.267-.29.32-.463.112-.387-.59-.226-.966-.33-.16-.046-.127-.453-.17-.64-.11-.494.08-1.31.17-2.01.074-.57.68-1.02 1.08-1.434 1.76-1.83 1.62-2.66-.74-1.252-.4.238-.715.38-1.103.41-3.49.11-5.504-.023-8.414 2.427-1.293 1.043-2.07 1.145-.92.035 1.757-1.42 3.958-3.445 6.393-3.98 1.47-.366 2.865.76 3.51.47.003-.805-1.22-1.392-2.676-1.38zm-.51 5.055c.4.26.79 1.628.75 2.088-.043.536-.963.314-1.09.06l-.5-1.516c-.216-.51.445-.8.835-.63zm-1.78.308c.425.423.523 1.336.77 2.09-.158.543-3.59-.19-4.02-.8.51-.67 2.28-1.47 3.25-1.29zm6.023 9.79c-.26-.016-.6.11-.91.427-1.546 1.58-1.048 4.28.812 5.152.906.427 2.28.113 4.297-.51.965-.294 1.66-.43 1.84-.43.79.006 1.22-1.217.666-1.78-.64-.646-2.157-.55-3.79.71-.826.64-1.416.948-2.083.94-1.632-.02-2.426-1.702-.757-3.467.558-.59.36-1.015-.07-1.044zm-11.44 11.605c1.925 1.555 5.582.74 8.04-.887 2.197-1.453 3.11-1.883 4.87-1.58 2.16.373 2.08-.476 1.144-1.544-1.06-1.21-3.68-.838-5.87.615-4.86 3.22-6.62 3.76-8.03 2.015-1.515-1.876.29-4.28 2.073-2.968 1.468.997 1.44.248.84-.435-3.524-2.97-6.07 2.353-3.062 4.78zm-17.086 1.53c2.455 3.11 4.804 5.68 8.33 7.574l.04.588-11.404-.02c.796-1.39 3.06-8.047 3.036-8.14zm-38.61 8.1c-.24 4.688.6 7.442 3.347 10.72 2.918 3.483 2.7 8.913.824 12.268-.833 1.485-2.523-.34-1.726-1.29 1.132-1.425 1.2-4.903.665-7.076-1.205-3.594-3.93-5.353-5.035-9.15-.372-1.62-.254-4.534-.254-4.534zm3.57.396c.2-.03.52.175.99.582 1.612 1.396 1.337 5.393-.51 7.957-.567.78-1.035.558-1.576-.164-.73-.72-.47-.79.14-2.052.64-1.32.85-2.807.718-4.543-.09-1.17-.047-1.724.244-1.77zm104.607 1.37c1.424-.022 3.203.28 3.365.797.15.625-.188 1.13-.98 1.464-2.085.88-4.84-.35-4.14-1.854.17-.267.9-.397 1.753-.41zm-3.61.342c.41-.01.728.09.98.205.682.35-.39 2.753 3.007 2.706.818.12 1.418-.07 1.3.3-.162.55-1.62 1.38-3.2 1.61-4.735.7-4.53.465-4.315 3.81.14 2.185 0 2.92-.295 4.245-.515 2.295-.718 4.513-.373 3.783.463-.973 1.642-4.055 1.635-5.81-.01-2.58.91-3.093 1.28-1.22.16 1.24-.397 1.94.435 3.203.474.71.69.7.374 1.8-.28.973-.084 1.258.255 1.75.343.498.687.613.397 1.307-.624 1.5.355 2.915 1.775 3.035.658.055.84.34.64.59-.345.43-1.037.637-1.612.763l-15.036-9.61s1.115-2.24 1.447-2.838c2.16-4.736 3.874-6.894 10.192-9.374.435-.19.81-.265 1.13-.27zm7.992 3.11c.414-.016.722.202 1.07.65.924 1.187.118 2.67-2.15 3.947-1.94 1.106-2.505 1.238-2.925-.496-.09-.32-.35-.7-.52-.85-.45-.418-.35-.76.225-1.06.275-.15 1.147-.507 1.845-.968 1.212-.8 1.926-1.206 2.46-1.226zm-6.4 3.443c.473.01.963.128 1.324.36.603.39.61 1.377 0 1.768-1.206.49-3.113-.17-2.952-1.28.082-.563.837-.86 1.63-.845zm7.735 1.218c.43-.014.75.186 1.02.6.71 1.093-.123 2.19-2.51 3.36-1.57.77-3.573 1.1-3.44.65.106-.365-.455-2.16-.705-2.446-.095-.304.03-.03 2.01-.655.72-.228 1.586-.6 1.987-.85.68-.43 1.213-.65 1.64-.66zm-112.81 2.83c-1.1 2.652-1.273 3.823-.75 6.61.44 2.322.946 3.486 3.328 6.916 1.812 2.61 2.393 3.626 1.956 4.45-.31.444-1 .86-1.435.43-.886-1.156-1.418-2.563-2.28-3.853-3.33-4.884-3.56-6.126-3.987-9.982-.195-1.762.82-5.513 1.684-6.074.97-.38 1.784.895 1.484 1.504zm76.918-1.223c-.08.01-.162.056-.244.14-.457.45-1.75 2.56-1.706 2.88.098.7.67.24 2.17-1.96.36-.53.116-1.1-.224-1.06zm28.652 1.2c1.33.04 1.803 1.236 1.206 1.86-.87.91-2.435.22-2.435-1.052 0-.54.25-.817 1.23-.806zm7.39 1.703c.76.033.863.792.457 1.893-.507 1.02-1.117 1.194-2.95 1.765-2.19.686-2.55.587-2.88-1.43-.125-.775-.063-.603 1.957-1.14.868-.23 1.88-.64 2.42-.865.41-.167.74-.23.995-.22zm-129.51.904l.54 4.073.874-3.05zm122.383 1.37c1.075.004 1.653.97 1.11 1.55-.31.323-1.086.33-1.46.14-.86-.63-.7-1.7.35-1.693zm-32.96 2.127l2.1 1.295-17.08 26.97-2.06-.048-.197-.43zm38.755.26c1.26-.02 1.37 1.17-.156 2.263-.626.4-1.33.5-1.873.524-.76.036-1.274-.16-1.33-.69-.33-1.284-.52-1.604.652-1.53.234.018.87-.02 1.384-.24.524-.22.967-.32 1.32-.325zm-5.222 1.177c.872.008 1.426.95.84 1.416-.722.573-1.623.22-1.618-.644.003-.554.153-.77.778-.77zm-122.91 1.91l-4.647 4.115c1.7 2.013 3.13 4.026 4.605 6.14zm93.97.26c2.016-.08 2.677.897 1.72 1.55-1.3.87-2.412.83-3.887.628-1.954-.363-.4-1.926 1.74-2.147.145-.015.29-.023.424-.03zm-2.142 2.936c.41-.01 1.01.105 1.787.368 1.32.45 2.96 1.83 2.886 2.6-.124 1.242-2.46.6-4.34-1.178-1.18-1.115-1.224-1.76-.328-1.786zm-1.783.02c1.145.11 2.286 3.98 1.4 5.17-.87 1.166-2.4-1.344-2.123-3.316.11-.78.31-1.81.61-1.85.04-.004.08-.01.117-.004zm-74.692.85c.645.156 1.47 1.047 1.29 1.723-.13.27-.4.192-.693.12-.53-.223-.94-.96-.838-1.573.05-.168.12-.26.24-.27zm86.674.667l3.36 2.28-3.36.13zm-13.922 4.61c2.578.016 3.123.85 1.2 1.865-.8.42-2.75.5-3.757.15-1.6-.554.32-2.03 2.558-2.014zm20.852 1.738l.174 2.337-6.47.568-.33-2.434zm-22.37 1.163c.45-.026 1.163.18 2.1.66 1.76.908 2.76 2.427 1.852 2.907-.826.434-2.29-.082-3.328-1.17-1.37-1.44-1.48-2.342-.623-2.396zm-2.2.007c1.175.07 2.192 3.29 1.42 4.884-.426.87-.963.68-1.733-.753-.746-1.388-.787-3.836.072-4.104.08-.026.163-.036.24-.03zm-84.15.908l-2.83 5.69 5.126 4.474zm109.514 4.384l.457 2.25-6.21 1.53-.604-2.45zm-27.12.44c.76.012 1.47.19 1.88.55.566.5.442.723-.896 1.267-2.382.97-5.317.383-3.614-1.066.6-.51 1.654-.77 2.63-.75zm40.345-.134c-2.373 1.59-.09 2.466 1.606 1.264-.123-.41-1.11-1.256-1.604-1.263zm-42.087 3.19c1.696.055 5.025 2.38 4.313 3.496-.387.61-2.613.09-3.497-.76-1.16-1.11-1.778-2.6-1.135-2.72.096-.014.204-.02.317-.016zm-2.14.107c.873-.164 2.273 3.917 1.215 4.963-.395.39-.505.367-1.17-.22-1.324-1.176-1.096-3.34-.302-4.55.076-.115.164-.18.255-.195zm52.13 2.15c-.23-.43-.52-.633-.837-.87-8.246 3.17-6.132 6.187.836.87zm-19.54.28l.82 2.28-6.252 2.48-.92-2.496zM60.58 136.32l-2.116 5.575c2.302.013 4.378 1.1 6.48 2.068zm109.06 1.638l1.327 2.24-5.885 3.183-1.173-2.36zM32.97 142.32l2.41 1.702-3.54 4.4-.32-.62.04-3.655zm139.885 1.384l1.423 2.056-5.663 3.936-1.39-2.233zm-133.81 2.64l2.6 2.008-4.11 4.963-2.49-1.9zm28.627 1.23l-.122 5.97 6.122.236zm70.765 2.69l6.957 4.008-1.048-6.116c-1.82.355-4.15 1.54-5.91 2.11zm38.22-1.252l1.624 2.02-5.23 4.396-1.67-2.103zm-132.303 1.77l2.425 2.254-4.28 4.618-2.247-2.12zm136.773 3.276l1.884 1.912-4.76 4.96-1.883-1.913zm-131.26 2.43l1.877 2.192-4.88 3.878-1.81-2.2zm28.12.514l1.37 5.85c-.1-.426 6.075-1.745 6.88-1.302zm71.893.495l5.828 6.154.656-5.93zm36.043.967l2.108 1.647-3.91 5.58-2.38-1.872zM54.07 162.176l1.736 2.51-5.116 3.045-1.452-2.21zm137.38.592l.322.32-.005 3.98-1.624 2.386-2.215-1.305zm-32.973 4.47l5.156 9.37 1.454-6.99c-1.907-.027-4.924-1.25-6.61-2.382zm-100.33 1.25l1.228 2.702-5.403 2.465-1.233-2.69zm2.92 6.453l.988 2.72-5.746 1.907-.91-2.615zm-25.687 4.92l1.79 1.26c9.32-4.9 6.415-6.346-1.79-1.254zm52.686-3.11c.352-.036.758.45 1.086 1.527.495 1.63.232 3.645-.87 3.617-.744-.09-1.02-1.995-1.023-2.547-.01-1.63.35-2.546.8-2.593zm5.11.974l2.22.24-.01.626-17.682 28.073-2.142-1.36zm-9.52.65c.704.007 1.735.49 2.65 1.463.534.58 1.107 1.406 1.247 2.248-.016.28-.49.174-.95.11-1.173-.167-2.9-.98-3.452-1.98-.67-1.23-.29-1.843.51-1.836zm81.292 1l2.358 11.498c.73-2.877 2.273-4.537 3.415-6.797-3-1.385-4.23-3.025-5.77-4.7zm-101.598 2.32l.554 2.974-5.957 1.38-.616-2.886zm22.217 1.033c.084-.002.17 0 .25.01 2.178.243 2.486.727 1.022 1.71-.89.597-3.3.68-3.69.045-.42-.67 1.15-1.75 2.41-1.76zm-43.22 1.745l1.85 1.088c3.166-2.29-.292-2.747-1.85-1.08zm40.086 1.01c.665.008 1.066 1.197 1.3 2.288.227 1.057.305 2.012-.102 2.543-.5.65-.98.764-1.38.12-1.16-1.885-1.12-4.97.19-4.953zm-4.91 1.726c.31-.01.702.068 1.16.24 1.544.584 3.593 2.95 2.727 3.277-1.278.485-4.07-.92-4.596-2.335-.265-.716.025-1.156.71-1.18zM64.78 189.11l.14 2.94-6.265.253-.185-2.923zm15.343 2.475c.617-.018 1.234.063 1.73.278.898.39.245 1.09-1.294 1.625-1.02.352-2.47.443-2.98.04-1.19-.938.684-1.89 2.54-1.942zm-48.442.342c4.29 2.606 13.14 8.41 13.14 8.41-.42.084-.863.413-1.28.735-.32.262-.663.506-.97.63-.47.194-.91.22-1.31.307-2.76.6-4.12 2.16-3.253 4.11.34.76.428.64-.16 1.28-1.65 1.575-1.45 2.046-.862 4.06.01.285-1.962 2.705-.22 4.528.966.84 1.01.315.66 2.225-.12 1.15.193 2.09 1.865 2.42.93.426.917.28.587 1.066-.225 1.13.098 1.6.89 2.01.72.45 1.013.573.504.97-5.566 2.85-7.28 7.81-2.03 15.12.62.86 2.18 3.293 2.18 3.293-1.77 2.627-3.46 4.79-5.266 7.137l5.254 7.35c-.852 1.336-2.842 4.048-4.065 6.724-1.84 4.02-.624 9.655 4.66 11.34 2.266.723 5.26.137 7.144-2.053 1.53-1.775 2.363-5.305.967-8.982-1.766-4.117-3.884-6.137-4.57-7.31l5.628-7.06s-3.876-5.578-5.422-7.6c10.55-12.92 1.93-16.53.278-17.637-.256-.17-.195-.993-.195-.993 9.478-1.085 12.715-6.293 15.503-12.885 5.65 3.64 13.745 8.54 19.416 12.37.546.505.905.82.82 1.1-.07.23-.29 1.275-.3 2.35.26 1.71.138 2.487-.553 3.143-.65.617-.52.898-.417 1.565.18 1.16.358 1.273-.16 1.857-.64.72-.852 1.055-.734 2.8.07 1.037.203 1.814-.068 2.426-.354.798-1.32 1.2-2.588 2.197-2.22 1.743-1.92 2.276 1.144 8.602 2.61 5.39 2.91 6.623 1.908 8.537-.834 1.593-1.148 2.824-1.047 5.125.026.587.076 1.22.073 1.53-.006.745.004.66-.425 1.126-.335.36-.89 1.08-1.233 1.594-3.64 5.465-13.225 19.37-13.225 19.37l-32.23-.054zm45.2 2.543c.38-.027.84.65 1.35 2.015.3.788.27 2.158-.21 2.684-.96 1.05-2.28-1.41-1.86-3.36.19-.88.435-1.326.73-1.347zm90.65-1.477c.01 4.98-.1 11.443-1.81 16.208l1.944.88c-.627-4.89.15-8.9 4.638-11.02-2.04-1.38-3.6-3.73-4.765-6.06zm-95.472 3.14c.157-.004.337.035.535.098.727.2 1.613.63 2.15 1.18.923.94 1.875 2.07 1.635 2.18-1.527.67-5.394-1.377-4.888-2.975.11-.34.307-.47.567-.475zm-6.776.21l.04 2.44-3.747-2.395zm85.544 1.174c.607.054 1.545.847 1.4 1.4-.26.596-.58.54-1-.086-.52-.78-.733-1.27-.4-1.31zm-75.9 3.018c.91-.024 1.695.177 1.78.65-.002.45-.693 1.03-1.545 1.292-2.13.656-3.725.233-3.142-.812.365-.69 1.74-1.098 2.91-1.13zm74.174 2.768c-.9 1.614-1.01 6.775.578 8.88 2.47 2.727 4.75 6.276 4.486 11l-2.37 1.06c.13-3.884-.023-6.41-3.055-9.76-3.61-3.925-2.763-10.725-1.517-12.725 1.07-1.974 2.61.82 1.88 1.545zm-103.91-2.146c.76-.045 1.685.403 3.364 1.51 4.29 3.04 6.617 4.212 10.873 7.22.623.582.592.498.484.957-1.62 6.228-6.35 11.17-13.35 12.074-.81.105-.39-.403-.88-1.38-.5-1.004-1.43-1.442-2.46-1.45-2.89-.028-.42-1.65 3.11-2.114 1.168-.18 2.574-.34 3.317-1.043.16.08-.613-4.87.18-6.61.406-1.56.023-2.32-.415-1.36-.274.61-.66 2.2-.865 3.82-.176 1.38-.465 1.56-.79.9-.146-.3-.143-1.022.09-1.59.263-1.296-1.37-2.27-1.042-3.458.438-.99-.016-2.084-.566-2.446-.3-.642-.264-1.106-.224-1.555.093-1.05-.606-2.06-1.71-2.5-.49-.25-.343-.515.165-.77.24-.117.47-.184.725-.2zm-3.51 1.775c.276-.006.552.024.815.092.57.346 1.026 2.314.39 2.39-.232.03-.962.118-1.53.285-1.92.56-2.83.48-2.79-.62.037-1.13 1.613-2.13 3.114-2.15zm2.55.2c.756.003 1.366.89.89 1.36-.49.485-1.436.13-1.432-.573.002-.38.174-.79.543-.79zm.514 3.065c.215-.008.455.038.712.157.703.325 1.107 1.533.66 1.976-.34.336-1.313.218-1.834-.225-.93-.79-.48-1.87.46-1.907zm-2.383.176c.44.01.75.15.83.45.078.26-.04.498.07.866.19.58.55 1.02.23 1.25-1.47-.09-4.53 1.76-5.41 1.67-.735-.1-.82-.776-.18-1.877.74-1.273 3.16-2.395 4.466-2.368zm.89 3.575c.32-.02.38.157.25.626-.09.334-.014 1.128.21 1.64.245.55.686.875.457 1.09-.376.11-1.64.36-2.703.76-1.372.757-5.224 3.043-4.255-.613.31-1.22 1.726-2.07 4.2-2.93.94-.324 1.53-.542 1.85-.563zm2.02.044c.6-.044 1.28.242 1.58.982.898 1.78-1.67 2.034-2.49.554-.48-.877.15-1.48.91-1.536zm.49 4.14c1.33.008 2.37 1.66 1.4 2.285-.72.43-1.602.35-2.423.147-1.233-.54-.664-2.44 1.027-2.43zm127.52.035c5.07 2.653 11.96 5.1 18.644 6.915l-.225 65.733-45.467.03-12.51-21.718s-.414-.706-.547-1.017c-.25-.592-.16-1.074.01-1.687.416-1.48 1.67-4.383 2.828-6.444 3.023-5.55 7.314-11.63 4.99-16.96-.266-.61 2.4-3.92 2.4-3.92 4.11.335 7.504-2.34 6.29-8.66 8.57-3.507 15.634-6.356 23.59-12.277zm-129.88.323c.116-.004-.233 1.438.494 2.323.454.698.38.675-1.16 1.28-.574.314-1.15.788-1.476 1.078-2.202 1.97-4.382-.6-2.253-2.67 1.72-1.54 3.515-1.88 4.366-1.99.01-.01.02-.02.03-.02zm104.75 1.36c.74.13 1.697 1.114 1.39 1.65-1.042 1.746-1.09 2.685-1.182 4.492-.103 2.015.24 2.313-.527 1.965-.5-.235-1.44-.637-1.65-1.15-.482-1.182.756-7.175 1.97-6.96zm-105.47 5.06c.82-.013 1.68.254 2.163.876.404.52.446.962.045 1.174-.952.504-4.11.242-4.267-.406-.244-.998.868-1.62 2.064-1.642zm47.818 1.282c3.857.015 8.356.835 11.84 2.356 4.944 1.865 9.3 6.618 10.284 8.65.3.62-.31.62-.84.676-5.89.973-7.85 8.22-2.88 11.682 1.56.974 2.82.87 2.82.87 1.26-.107-5.6 13.06-8.333 21.263-8.453-.35-14.84.95-23.1-1.89-.89-1.48-.68-4.738-.03-6.42.592-1.53 1.374-2.708.996-4.466-.657-3.064-3.45-7.053-4.38-9.58-.82-1.93-.77-2.65.66-3.757 1.68-1.303 2.095-1.577 2.556-2.235.43-.617.245-.758.253-2.14.01-1.677-.03-1.417 1.352-1.663.482-.088 1.622-.45 2.493-.91 1.81-.954 3.068-.92 4.13-.33.46.123.417-.355.61-.99.085-.275.28-.727.265-.864-.032-.286-.642-.204-1.315-.11-2.696.377-4.82.46-5.913.054-.947-.35-.95-.99-.396-2.05.494-.94.84-.925.64-2.89-.25-2.47.09-2.99 1.243-3.8 1.437-1.01 4.047-1.484 7.047-1.47zm13.938 2.175h12.532c-1.23 1.985-2.598 5.045-3.374 7.947-.114.226-.247.448-.538.156-1.69-2.42-3.615-5.01-8.62-8.103zm-10.393 8.827c-1.497.043-3.37.763-5.726 2.113-1.6.917-2.907 1.486-4.606 1.173-.97-.18-1.095-.04-1.222.274-.57 1.418 1.55 2.94 3.693 1.942.624-.26 5.4-2.738 5.664-2.95.288-.23 2.266-.813 2.79-.806 1.58.02 2.554 1.262 2.36 2.694-.257 1.914-2.97 2.01-3.15.308-.135-1.31-.682-.728-.732-.083 0 .55.417 1.8.87 2.08 2.293 1.432 5.317-1.355 3.87-4.225-.89-1.756-2.103-2.576-3.8-2.528zm-10.284 6.67c-1.556.297-2.568.903-4.245 1.042-1.383.305-1.28 1.407-.415 1.98.66.44 1.5.175 3.92-1.364 2.38-1.51 4.413 1.637 2.51 3.25-1.197 1.014-.375 1.28.444.67 2.106-1.572.898-6.17-2.22-5.577zm7.36 8.103c-.183-.013-.47.053-.856.23-1.78.816-3.15 1.676-4.004 2.822-.15.25-.07.67-.14.99-.06.26-.265.586-.228.762.032.152.535.316.61.46.31.582.11 2.065-.067 3.14-.086.512-.85.67-1.154.98-1.003 1.02-.75 1.33.318.933.747-.278.43-.793 2.28-.435 2.393.465 4.29-.185 6.175-1.23 2.09-1.16 2.85-1.807 2.933-1.668.14.23.03.35-1.464 1.59-3.737 3.107-6.52 3.83-8.615 2.665-.627-.425-1.13-.6-.654.315.06.1.57.495.925.655 2.153.973 4.855.15 8.293-2.566.755-.595 1.42-1.263 2.294-1.994 2.855-2.388 2.104-3.48-1.12-2.32-1.013.368-1.3-.027-2.673-.56-1.844-.717-2.45-.785-4.572-.82-1.847-.035-2.124.14-2.122-.174.003-.394 1.245-1.79 2.64-2.4 1.364-.593 1.746-1.34 1.2-1.38zm3.4 5.893c.342.348-.15.57-1.483 1.203-.755.36-1.45.654-1.546.65-.117.217-1.374-2.617-1.03-2.756.146-.06 3.224.202 4.06.905zm-4.838-.298c.31.642.548 1.315.67 1.936.027.19.163.467-.138.465-.236.036-.626.056-.767-.165-.3-.473-.635-2.083-.522-2.396.23-.314.64-.095.764.16zm10.968 5.095c-.114.002-.323.084-.653.28-5.3 3.13-11.66 4.762-15.75 3.217-1.38-.52-1.63-.338-1.13.606.348.655 1.04 1.423 2.088 1.712 3.34.92 8.723-.42 12.863-3.135 1.684-1.105 3.064-2.683 2.58-2.68zm31.207 8.392s9.37 19.31 11.194 20.22l-76.246-.14 12.846-18.36c.113 1.02 30.987 5.26 52.207-1.725z" fill="#131f67"/><path d="M67.275 286.942l12.313-18.184c18.212 3.46 34.596 1.632 52.543-1.57l11.96 20.16zm96.557-67.77l-.08-10.795 3.762 1.4c-1.305-5.023 1.99-10.27 4.992-10.478-9.59-7.24-1.624-14.98-1.79-15.14-10.49-5.42-5.226-13.73-5.953-14.47-12.78-3.32-7.79-13.46-8.756-12.42-7.44 2.236-11.537-4-11.663-9.068-6.438 3.65-16.385-1.52-13.268-7.33 0 0 3.41 1.62 4.013 1.29 5.25-3.82 4.84 1.665 5.93 2.856 3.92-.568 6.23 2.433 7.21 3.89 5.78.006 5.543-1.38 5.593 4.23 4.357 1.105 4.184 3.46 6.71 6.68 5.49.06 4.566 1.85 3.323 4.89 3.96 3.15 4.28 5.62 4.933 8.484 4.32 1.564 5.094 2.202 2.275 5.843 3.81 5.713 1.976 9.022 2.556 9.334 4.75 3.43 2.376 4.67.3 5.986.72 4.558 1.3 5.228-.377 9.867 5.462 3.877-.868 5.626-1.19 5.545l-.016 3.84zM31.545 191.026l-.11-13.377 46.315 29.92-5.858 9.183zm61.527 19.688l10.946-22.92-3.933-25 31.375.685c3.527 8.01 5.655 14.83 14.693 28.11l-9.55 2.97.333 16.07zm26.833-6.028c-.32-.663-.498-1.116-.44-1.412.12-.382.41-.364.784-.16 1.33.648 2.66 1.207 3.65-.02.49-.64.36-1.554-.06-2.082-.757-1.53-3.12-.422-3.92-.367-.74.017-1.024-.605-.416-1.49.362-.385.59-.81.65-1.31.414-3.504-5.557-2.258-3.486 1.14.942 1.26.393 2.015-.99 1.22-1.523-.876-3.64-.06-3.57 1.782.053 1.395 1.805 2.257 3.28 1.415.34-.194.605-.405.847-.51.685-.298 1.177-.052.95.72-.613.964-1.333 2.35-.73 3.26.602 1.33 2.68 1.205 3.39.38.492-.57.63-1.497.05-2.565zm72.377-70.257l-46.404-30.08 1.604-2.54c2.078-1.16 2.934-2.61 2.863-4.62l1.26-2.778 40.725 26.13zm-72.552-10.17l4.752 24.28-32.396.46c-1.78-8.15-12.907-26.61-12.877-26.28l8.63-21.23 42.99-.05zm-12.158-9.04c.82-.75.766-1.9-.14-3.19-.876-1.26-.485-2.16.92-1.31.777.52 2.012.63 2.847.36 1.05-.36 1.49-1.206 1.34-2.273-.19-1.29-1.62-1.646-3.15-1.08-.44.092-.71.453-1.1.625-.825.36-1.15-.63-.4-1.916.836-1.423-.032-2.95-1.57-3.085-1.642-.144-2.62 1.725-1.95 2.75.96 1.47.264 2.497-1.115 1.513-1.985-1.417-4.577.38-3.503 2.485.52 1.02 2.226 1.29 3.754.642 1.277-.542 1.656.08.882 1.39-1.59 2.688 1.02 5.052 3.173 3.08zM60.57 91.38l-.344 12.938c-4.846-2.964-4.126-3-4.304-2.956 1.425 3.89-.24 8.695-4.35 11.057 7.41 6.95 3.406 11.83 2.19 15.13 9.464 5.49 4.662 14.99 4.7 14.5 9.332.05 9.144 8.21 9.413 11.61 11.538-.725 9.99 8.495 11.513 9.288 5.593-2.504 12.126-1.645 13.86 5.873 1.12 4.267-2.993.157-4.785.336-6.377 3.97-5.15-2.09-5.51-2.934-5.28.5-5.992-2.02-8.306-3.805-5.705 1.1-5.235-.78-4.9-4.244-4.475-.908-5.448-3.7-7.232-6.435-6.18.2-3.658-4.164-3.635-5.022-.75-.67-4.3-4.164-4.473-8.16-6.344-1.794-2.36-4.995-2.132-6.093-2.4-2.99-3.03-5.194-2.226-8.96-5.64-2.633-.93-5.094-.53-6.59-1.84-4.91-.5-6.377.22-9.033-3.628-4.248-1.46-4.012 1.19-6.59.335-.465-.59-2.6-.54-3.854zm32.537-47.954l-10.155-18.18h72.538s-7.894 10.94-10.955 16.444c-18.09-2.856-35.018-1.5-51.428 1.736z" fill="#d40000"/><path d="M42.474 275.134c-6.362-1.445-7.443-9.442-1.47-16.093.483-.53.812-1.37.812-1.37s-1.063-1.74-3.85-5.6c-.52-.72-1.274-1.87-1.274-1.87 1.526-2.2 3.128-4.022 4.837-6.41.22-.322.65-.683.59-.98-.09-.423-.71-.845-1.45-1.937-4.31-6.347-4.785-8.863-2.598-12.637 2.055-3.55 6.966-3.96 9.955-.83 3.23 3.38 3.08 6.45-1.116 12.7-.92 1.373-1.585 2.61-1.585 2.61s-.04.437 1.48 2.398c2.106 2.72 3.653 5.058 3.653 5.058s-.96 1.224-1.87 2.29c-2.43 2.858-3.525 4.828-3.525 4.828s.165.57.53.98c6.664 7.556 6.14 16.23-1.4 16.97-.387.037-1.33-.02-1.733-.095zm53.62-96.394c-.174-.286-23.99 38.254-23.99 38.254l2.72 1.744 22.78-35.627c.345.27.68.58.61 1.01 0 0-18.763 30.58-21.89 35.47-.083.133 4.654 2.94 4.813 2.947 6.977-3.44 36.083-.462 55.41-1.646.075.06-.298 6.79-.298 6.79s-4.41-5.097-5.3-5.13c-4.4-.152-9.02 1.72-12.33 1.51-2.116.646-4.53 8.35-5 10.282-3.85-.446-7.56 3.58-6.676 7.327 1.257 4.162 3.42 3.85 5.755 3.917-.217 4.715-8.54 17.14-8.576 23.263 8.802-.696 18.327-.856 27.406-3.594 0 0 3.41-9.81 7.716-16.273 1.42-2.475 2.1-6.19 1.527-8.527-.364-2.562.74-3.21 1.727-5.003.6-1.12 2.82-1.077 3.103-1.16 5.775-1.672 3.712-9.14 1.255-10.47-3.067-1.656-7.4.91-9.066-2.45-1.762-3.554-1.192-10.91-1.192-10.91l-43.6.21s12.32-23.41 12.006-23.583c-3.368-1.85-8.87-8.278-8.912-8.345zM66.93 200.05c.204-2.368.583-40.842-35.772-59.968l.194-5.058c.223-.26 33.07 14.827 38.704 54.016l10.136-15.885 3.73 1.463c-5.51 8.28-16.47 28.373-16.992 25.432zm-22.076-13.86c1.498-4.442-.96-2.086-3.198-2.268-1.53-.833-3.035-1.91-4.456-2.844 10.623-5.63 4.297-5.358-1.893-1.405-1.605-.87-3.634-2.776-3.762-2.615 11.99-7.712 7.492-7.867-.18-2.284.264-5.237.077-3.27.18-5.032 6.54-7.007.45-3.2 0-3.116-1.61-6.992 6.09-5.528 6.797-.242 1.355 1.008 4.02 2.255 4.804 6.59 3.698 2.356 3.31 4.307 3.14 7.128 1.445 1.43 5.178 4.444.824 7.23zm-13.79-31.903l.246-3.868c.502-1.58 28.54 18.42 26.518 44.12.33-.18-3.103-1.795-4.088-2.678.015-18.914-22.242-38.524-22.675-37.584zm160.807 21.697c-18.7-8.574-36.47-29.12-37.4-55.844l-10.57 17.698-3.75-1.588c.35.29 8.36-14.57 16.6-24.843 2.33 33.718 15.55 49.398 35.58 60.787zm-97.97-12.33c-18.12-2.25-44.33-26.93-36.5-60.385 1.11-3.4 18.6 15.42 18.6 15.42.11-.858 15.726 24.3 15.288 29.22 13.18 3.75 38.91.19 38.91.19 21.39 4.778 43.76 27.857 35.683 60.657 0 0-5.686-3.734-10.44-8.08-14.437-13.954-19.017-25.42-24.133-38.07-18.484-1.675-35.813 1.64-37.4 1.04zm98.15-27.862c.32 1.667.11 5.12.178 5.112-4.82 5.246-5.32 5.34.72 3.655-.747 5.03-4.466 5.85-6.676 4.14-.814-.63-.82-4.1-.82-4.1-3.664-.92-4.922-2.02-4.402-5.96-4.217-.506-4.05-2.56-3.704-6.846-3.84-2.16-2.883-5.6-.61-7.07l1.9 1.31c-.61.544-.313 3.96 3.054 1.42 0 0 2.69 2.235 3.986 3.102-9.74 6.263-3.837 4.886 2.163.77 1.124.77 2.66 2.025 3.46 2.567-7.903 5.67-10.497 10.41.755 1.89zm.477 21.297l-.322 4.51c-19.23-11.77-24.436-27.29-25.866-43.818 0 0 2.58 1.9 3.76 2.69 1.717 21.322 21.242 35.72 22.43 36.61zm-105.37-55.96l46.12.293-12.23 23.394 6.455 7.63s16.02-24.97 24.076-38.05l-2.787-1.667-22.994 36.14-.914-1.014 22.67-36.11c-1.36-.89-3.932-2.32-3.932-2.32s-39.278.63-56.35.562c.554-2.358.674-6.534.674-6.534 2.52 3.615 5.22 6.843 11.09 3.29 0 0 6.94.235 7.195-.096.85-1.374 2.355-5.694 4.11-10.574 6.697-.447 6.03-3.685 6.79-4.747-.51-9.518-5.85-4.393-5.39-7.853 1.51-6.164 9.22-20.123 8.246-21.35-1.99-1.32-21.716 2.567-27.457 3.274-.53-.203-3.334 8.96-6.29 12.876-3.216 4.26-4.36 8.83-2.72 13.14-1.7 4.735-4.96 4.25-7.58 5.59-2.973 3.22-2.154 8.147.68 10.053 1.97 1.326 4.996 1.257 8.08-1.248zm91.65-33.09l-5.398-7.25 5.23-7.625c-2.065-3.274-5.47-8.285-4.86-12.256 1.33-7.876 11.95-6.72 12.874.812.503 3.496-2.045 7.784-4.633 11.433 1.71 3.115 2.445 3.623 4.93 7.194-1.48 2.605-5.07 7.703-5.07 7.703 2.24 3.77 5.36 7.924 5.13 11.76-.237 3.293-3.826 6.63-7.175 5.93-10.416-2.18-4.6-13.32-1.038-17.708z" fill="#e2cf00"/><path d="M16.083 8.49v3.48h3.442s.082 3.357.113 10.485c.03 6.917.17 10.35-.274 12.318-1.21 4.543-7.91 4.565-9.242 1.3-.776-1.9-.566-3.375-.607-5.285H5.813s.02.962.025 2.137c.02 5.11 1.744 7.548 5.775 8.514 4.145 1.09 8.985-.58 10.71-4.06 1.028-1.98.91-2.117.934-14.098.016-7.996.14-11.32.14-11.32h3.17V8.49zM81.23 24.415c2.86 5.373 10.983 19.87 10.983 19.87 19.317-4.008 35.562-5.027 52.633-1.287l12.196-18.496zm2.518 1.09h3.492l6.85 14.1 11.82-2.363-2.015-11.707 3.345.02 1.692 11.257 17.365-.44 2.25-10.867 3.203.04-2.298 11.042 13.75 1.853 6.73-12.934h4.62l-10.23 15.972c-18.2-3.547-36.278-2.356-51.41 1.37zm6.587 0h10.196l2.45 9.517c-1.25.653-5.922 1.77-7.49 1.614-1.87-3.273-3.8-8.005-5.15-11.13zm19.663 0h15.517l-1.325 8.103-13.013.415zm24.598 0h11.956l-4.72 9.84-9.016-1.228zM58.158 27.97c-2.4 5.164-5.78 10.2-8.612 13.923-8.396 10.977-10.2 14.1-11.86 20.564-2.596 10.116 6.358 18.29 14.124 12.792 1.83-1.3 3.855-4.87 3.863-6.41.006-1.11.765-1.71 1.38-1.09.123.124.155.62.117 1.33-.43 4.583-2.27 12.036-5.83 16.713h14.226c-4.306-5.706-5.746-11.46-5.666-16.87.01-2.327 1.385-2.098 1.694.283 1.518 11.672 16.575 9.48 17.277-2.2.42-6.107-3.44-12.613-8.46-19.824-4.1-5.887-9.08-12.24-12.25-19.22zm121.96 7.385c-.7-.004-1.344.057-1.936.18-3.1.65-4.727 3.034-4.753 6.926-.02 1.79 1.3 4.94 3.3 7.92.97 1.46 1.62 2.79 1.62 2.79l-5.21 7.65 5.536 7.24s-.86 1.01-1.374 1.737c-2.54 3.59-3.713 6.948-3.55 9.7.175 2.975 1.91 5.245 5.16 6.334 1.782.597 4.324-.133 6.033-1.682 1.38-1.25 2.073-2.873 2.103-4.78.04-2.726-1.275-6.028-3.9-9.63-.712-.977-1.06-1.745-1.06-1.745s3.67-5.23 5.056-7.62l-5.015-7.207c3.99-5.995 4.794-7.324 4.905-11.008-.18-3.65-2.83-6.77-6.925-6.794zm-.498.44c.172-.002.346.002.518.015 4.556.35 6.962 3.737 6.357 8.084-.618 4.144-4.354 8.006-4.953 9.34 1.796 2.92 5.183 7.07 5.183 7.07-1.437 2.614-5.15 7.68-5.15 7.68s.215.417.45.752c3.877 5.492 4.942 8.087 4.676 11.38-.21 2.596-2.26 4.913-4.81 5.383-4.05.74-7.37-2.13-7.78-6.01-.25-3.4 1.94-6.7 3.646-9.28.72-1.08 1.34-2.11 1.34-2.11l-5.516-7.25s.395-.624.65-.994c.97-1.408 2.224-3.15 2.866-3.986 1.16-1.51 1.848-2.552 1.848-2.552s-.82-1.324-1.583-2.53c-3.023-4.777-3.87-7.226-3.402-9.867.573-3.246 3.09-5.09 5.674-5.133zm.41 2.45c-1.683.045-3.29 1.287-3.93 3.08-.926 3.367 2.616 8.462 4.23 9.83 3.02-3.473 4.944-7.37 3.828-10.098-.735-1.65-2.444-2.856-4.127-2.812zm.416 1.09c3.05.064 4.193 3.686 1.84 7.806-.814 1.41-2.01 2.88-2.01 2.88s-1.12-1.39-1.79-2.44c-2.727-4.267-2.024-7.6 1.324-8.195.22-.03.433-.043.636-.04zm-60.71 1.884c-7.987.04-18.658 1.37-28.037 3.5-.82 5.03-3.34 10.07-6.1 14.08-2.65 4.33-3.61 8.1-2.727 10.69.83 2.42-1.436 6.03-3.926 6.26-3.095.28-5.066 2.43-5.028 5.5-.09 4.916 3.305 7.93 7.912 6.26.463-.06.772.243.772.243l-.27 28.143c-2.59.407-4.323.97-6.528 2.142l-.93-1c-.51-.547-1.157-1.25-1.438-1.563-.285-.312-.79-.75-1.13-.97-.34-.213-.8-.682-1.025-1.04-.545-.87-2.85-3.085-4.11-3.945-.215-.147-.76-.608-1.21-1.023l-.82-.753.005-9.343c.003-5.14-.05-9.4-.117-9.467-.07-.07-1.12.38-2.342.993-4.197 1.836-8.21 4.37-11.286 6.424-1.364.913-1.5 1.42-.99 3.73.29 1.3.22 1.437-.85 1.7-2.198.536-2.886 4.04-1.027 5.226.872.56.876.588.313 1.855-.87 1.96-.837 5.71.064 7.275.515.89.48 1.18-.2 1.62-2.34 1.524-2.182 4.785.264 5.394.628.154.79.422.584.96-.764 1.97-.068 4.972 1.688 7.244.914 1.18.91 1.166.31 1.71-1.97 1.78-.902 4.97 1.78 5.32.92.12.926.122 1.03.826.31 2.026.45 2.59.897 3.54.564 1.2 1.242 2.01 2.513 3 1.04.806 1.04.818.485 2.01-1.02 2.203.606 4.39 3.2 4.3 1.323-.048 1.323-.05 1.418.42.47 2.3 3.2 4.997 5.447 5.37 1.152.19 1.334.463.943 1.44-.63 1.574-.222 2.59 1.37 3.404 1.066.548 1.378.568 2.547.167 1.322-.453 1.336-.446 2.46 1.058 1.584 2.12 2.634 2.65 5.276 2.67 1.745.01 1.81.054 1.82 1.283.03 2.91 3.105 4.12 5.087 2.006.713-.764.71-.76 1.35-.295 2.786 2.045 5.26 2.573 5.03.66-.54-4.473-3.775-7.202-3.775-7.202l4.044 1.057c.174 4.724.343 10.42 1.33 14.358L77.79 207.17s-1.094-.667-2.246-1.46c-1.696-1.17-3.77-2.544-5.044-3.34-.65-.41-1.482-.907-2.137-1.458-.628-.523.387-1.213.6-1.766 4.15-7.41 10.647-16.32 15.376-24.98l-4.58-1.77c-3.5 5.513-6.08 9.95-9.34 15.033-3.25-23.82-19.87-44.73-39.987-53.54l.07 6.23c21.112 10.8 36.18 33.09 35.78 59.38-.083.1-1.768-.91-4.044-2.422-1.2-.8-3.615-2.38-3.915-2.533.976-29.117-27.9-46.333-27.95-45.52l-.264 5.506c12.305 8.246 21.97 23.244 22.95 36.59.01.11-5.774-3.61-5.774-3.61 3.443-1.713 2.495-6.155.014-7.36-.773-.346-.82-.515-.432-1.563.794-2.15-.66-5.39-2.664-5.933-.876-.236-1.022-.466-1.064-1.7-.08-2.255-1.327-3.73-3.576-4.225-.62-.138-.625-.144-.66-.92-.19-4.37-4.46-6.15-7.667-3.194-.358.33-.733.956-.733.956l-.025 4.74c1.092-.605 2.753-2.664 3.435-2.58.753.087.388.594-1.306 2.057-1.1.95-2.166 1.952-2.166 1.952l.07 6.24c1.826-1.186 3.654-2.526 5.365-3.717 1.475-1.03 2.23-1.364 2.41-1.067.204.332-.125.77-.963 1.27-2.246 1.497-4.86 3.254-6.752 4.733l-.004 4.3.363.533.108 3.763-.337.085.005 4.747L75.12 219l22.598-35.65.372.38-22.604 35.496s.93.8 1.81 1.26c.896.503 2.017 1.173 2.977 1.81.453.74 1.245 1.394 2.094 1.3.777-.85 4.172-1.746 4.5-2.14 12.64-.184 48.934.063 48.934.063l.21 5.8c-1.63-5.63-6.892-6.79-11.027-4.27l-6.792.01c-.052 0-4.02 7.23-4.6 11-2.856-.39-6.655 2.393-6.847 5.22-.466 4.02 2.174 6.945 5.625 6.375.063.025-.54 3.98-2.494 7.07-2.59 5.456-3.92 8.507-5.502 13.16-1.07 2.924-.705 3.444-.523 3.516 10.132-.145 19.454-1.127 29.07-4.23 0 0-.18-.684-.264-1.07-.347-1.557.96-4.743 4.66-11.325 2.858-5.082 3.676-7.022 3.96-9.422.147-1.214.12-1.53-.3-3.794-.028-.21-.193-.517-.148-.745.3-1.528 2.624-4.21 2.677-4.144 0 0 .84-.155 1.18-.185 5.24-.366 6.86-7.487 2.44-10.7-2.157-1.32-3.426-1.42-5.71-.82l-.04-27.615 3.186.12 3.5-1.726c5.625 4.802 9.293 9.71 15.347 13.408l-.1.247-4.5-3.086.01 18.095c5.21-2.71 10.065-5.21 14.746-9.005l-.945-.816.04-2.585c4.4.348 4.823-5.253 1.208-5.92 0 0 .08-.453.43-1.165 1.11-2.275 1.247-4.42.44-6.79-.493-1.44-.472-1.804.11-1.8 2.67.01 2.428-4.73-.3-5.77-.935-.353-.87-.06-.68-3 .147-2.21-.392-3.71-2.03-5.65-.614-.73-.56-1.08.23-1.57 2.285-1.39.63-5.41-2.173-5.292-1.094.046-1.092.045-1.187-1.05-.25-2.88-1.858-5.63-3.966-6.78-.653-.355-.75-.646-.38-1.14 1.794-2.4.115-5.68-2.417-4.722-.49.187-1.01.373-1.15.417-.2.063-.36-.217-.747-1.305-1.053-2.963-1.987-3.89-5.34-5.3-.66-.28-.7-.474-.4-1.826.513-2.333-2.7-4.505-4.436-3-.707.615-.73.61-1.526-.41-1.585-1.823-4.164-3.094-6.46-3.334-1.097-.1-1.263-.186-1.173-.608.61-2.86-2.17-4.72-4.48-3.003-1.11.825-1.398.85-2.538.21-2.396-1.345-3.447-1.396-3.696-.18-.077 1.01.146 2.208.39 2.953.584 2.01 1.34 2.752 2.994 4.165 0 0-2.746-.76-3.44-.9.07-.073-.2-9.53-2-14.886l17.552-27.936 10.053 6.63-16.08 25.434 4.68 1.903s6.25-10.38 9.522-15.47c2.14 25.28 21.685 47.45 39.39 54.03-.06.03.056-3.637.13-5.41-18.677-8.227-36.444-31.21-35.325-58.79l7.5 4.8c2.18 22.11 11.81 35.063 27.86 46.017v-6.77c-11.053-8.18-20.24-18.868-22.674-35.967 0 0 3.75 2.37 5.43 3.494 0 0-.477.27-.72.474-2.01 1.67-1.405 5.092 1.24 7.03.43.314.435.315.03 1.393-.8 2.14.435 4.725 2.524 5.266 1.197.31 1.19.297 1.212 1.67.04 2.663 1.114 3.89 3.96 4.53.39.085.402.125.396 1.32-.016 2.942 2.812 4.923 5.276 3.69.77-.386 3.196-2.416 3.196-2.416v-4.74s-1.1.9-1.893 1.638c-1.39 1.296-1.827 1.457-1.823.666.004-.576.643-1.33 1.976-2.32.693-.515 1.74-1.615 1.74-1.615v-5.52s-.62-.987-.58-2.165c.02-.64.2-1.614.2-1.614l.666.017-.01-6.393-.807-.63.034-4.233-43.91-28.41-22.87 36.373-.574-.67 22.897-36.14-6.082-3.89-3.673 1.81s-25.414-.4-50.2-.084c0 0-.06-.684-.05-2.616.013-2.43.125-2.77.572-1.744 1.004 2.298 3.493 3.68 6.38 3.55 1.634-.073 1.86-.14 3.675-1.12.675-.362.8-.373 3.977-.35 3.41.024 4.02-.1 4.025-.822 1.19-2.7 2.357-5.83 3.034-8.186.324-1.14.47-1.64.74-1.874.204-.18.37-.14.862-.17 2.18-.14 2.786-.282 4.356-1.815 3.15-3.164 1.34-9.6-3.22-9.624-1.21-.01-.38-3.22 2.17-8.438 2.64-5.397 3.01-6.224 4.38-9.84.89-2.365 1.317-4.06 1.426-5.09h-.767zm-.24 1.56c.63.53-.947 4.42-3.79 10.32-2.348 4.87-3.398 7.3-3.898 9.06-.145.51-.35 1.24-.46 1.63-.154.542-.356.81-.895 1.196-.383.274-.917.677-1.188.895-.77.616-.95.42-.763-.822.35-2.307 1.264-4.793 3.374-9.12 1.673-3.445 3.31-7.137 4.582-10.9.286-.88.42-1.774.895-2.1.684-.384 1.408-.31 2.142-.17zm-3.424.22c.435.3-1.63 5.632-5.203 13.04-4.46 9.246-4.7 15.72-.69 17.307 3.16 1.25 6.35-2.236 4.39-4.778-.94-1.224-2.96-1.327-3.662-.06-.383.69.15 1.487.826.52.987-1.413 2.962.216 2.484 1.885-.325 1.145-1.93 2.066-2.922 1.87-4.38-.877-3.554-7.057.99-7.396 4.35-.327 6.327 5.512 3.17 8.855-1.002 1.083-2.174 1.62-4.216 1.62-2.83-.004-5.474-2.34-5.207-4.508.375-1.984.432-3.587-.24-5.15-.215-.502-.478-1-.464-1.633.04-1.76 1.49-4.487 4.715-11.225 1.157-2.415 2.576-6.6 3.277-9.243.248-.772.126-.99.417-1.096.72-.16 1.75-.38 2.33-.02zm-3.73.09c.66.03-.863 4.89-2.784 9.03-1.458 3.17-3.448 7.244-4.93 11.01-.473.8-.79.862-1.76.344-1.07-.57-.752-1.48 1.77-6.5 1.903-3.81 3.73-8.123 5.013-12.465.12-.52.3-.973.73-1.223.66-.29 1.3-.23 1.97-.2zm-3.55.55c.352.463-1.96 7.02-5.537 14.41-.764 1.57-1.28 3-2.05 4.61-.368.37-1.79.56-2.503.7-.734-.1-.038-1.476 2.054-5.708 1.705-3.45 2.19-4.426 3.086-6.524.652-1.537 1.603-4.176 2.494-6.64.07-.2.14-.64.332-.744.664-.28 1.473-.396 2.123-.11zm-3.493.41c.05.16-.08.48-.13.73-.565 2.64-1.85 5.093-2.79 7.614-.113.343-1.143 2.49-2.29 4.77-1.146 2.275-2.198 4.45-2.337 4.834-.14.383-.52 1.4-.846 2.26-2.058 4.414.155 7.894 2.88 8.137 4.252.352 4.654-5.608 1.654-6.18-1.13-.19-2.375.43-2.38 1.73-.08.68.755 1.47.743.493-.044-1.774 2.437-1.692 2.743-.184.595 2.94-2.745 4.377-4.735 2.07-.82-.95-.81-2.036-.66-3.01.415-2.63 3.447-4.532 6.256-2.546 3.848 2.716 2.52 8.724-2.45 9.702-1.695.442-3.84-.124-5.175-1.502-.853-.876-1.413-2.17-1.63-3.774-.117-.894-.164-1.945-.027-2.93.4-3.085 2.65-7.59 4.624-11.404 1.525-3.165 2.72-7.346 4.11-10.71.39-.286 2.494-.55 2.435-.102zm-3.76.42c.225.07-.936 3.722-2.59 7.67-1.825 4.005-4.19 8.59-5.53 12.53-.425.966-.73.937-1.93-.18-.637-.59-.28-1.47 1.943-6.01 3.42-6.984 4.69-9.96 5.202-11.625.24-.78.433-1.74.95-2.045.654-.31 1.3-.54 1.953-.342zm-3.42.873c-.362 1.175-1.547 4.66-3.575 8.787-1.27 2.607-2.514 5.494-3.77 8.183-.7 1.66-.72 1.656-1.917 1.906-2.015.42-2.016.4-.235-3.214.53-1.074 1.545-3.045 2.262-4.378 1.323-2.457 3.367-7.24 4.108-9.625.2-.64.476-1.24.798-1.566.208-.114 1.795-.587 2.33-.1zm-4.406.44c.36-.013.684.05.836.25.09.82-2.125 6.063-3.487 8.494-.417.745-.83 1.71-1.297 2.572-1.735 2.76-3.82 8.062-4.358 10.263-.856 3.5 3.14 6.143 5.214 3.6 1.317-1.54-.052-4.307-1.95-3.534-.66.27-.39.564.514.64 1.492.126 1.605 2.427.023 2.933-1.758.537-3.05-.988-3.047-2.55.015-3.2 3.52-4.378 5.71-2.63 2.187 1.823 2.535 6.152-.777 7.83-3.23 1.636-7.206-.582-8.005-4.46-.61-2.96.05-5.672 2.9-10.235 1.638-2.626 4.18-7.16 5.483-11.14.253-.674.48-1.233.712-1.516.215-.254.924-.5 1.524-.52zm-77.827.802s-1.288 2.47-3.066 5.432C10.655 55.682 7.46 59.3 6.99 63.4c-.126 1.165.068 2.336.304 3.055.99 3.014 5.31 3.47 6.817.93.455-.765.608-.907 1.05-.667.19.102.27.4.26.816-.374 2.706-1.417 4.192-2.914 6.226h7.203c-1.516-1.67-2.8-3.973-2.958-6.304-.044-.956.54-1.036 1.41.01 2.81 3.882 7.23-.48 6.87-4.104-.402-4.03-4.62-9.246-5.78-11.295-1.76-2.6-3.35-5.48-3.35-5.48zm164.41 8.516l-4.337 5.517c1.25 1.807 4.226 5.363 4.226 5.363l4.11-5.31zm.04 3.086l1.794 2.33-2.053 2.427-1.92-2.265zm.16 11.99s-5.243 5.75-4.038 10.01c1.075 3.8 6.79 4.726 8.18-.83.1-.445.02-1.04-.04-1.787-.12-2.26-4.102-7.39-4.102-7.39zm0 1.14s1.507 2.182 2.57 4.116c1.19 1.84 1.5 6.982-2.72 6.822-2.286.235-4.47-2.78-2.65-6.466.495-1.123 2.802-4.474 2.802-4.474zm-86.555.923c.29-.044.583.585.767 1.04.25.625-.465 2.416-1.22 3.31-.143.15-1.107.23-2.54.962-.002-.67.408-2.142.677-2.793.98-.966 1.81-2.115 2.19-2.457.047-.035.08-.056.128-.062zm-10.45.324c.643.73 1.276 1.362 1.25 1.814-.038.66-.815 1.476-1.403 2.06-.74.73-2.21.292-2.206-.65 0-.35 2.104-3.228 2.357-3.226zm22.195.948c.628.334 1.26 1.47 1.34 1.986-.913 4.912-4.29 10.92-4.176 10.693 0 0-2.07.37-2.95-.08 2.278-3.154 3.8-7.172 4.835-10.462.443-1.42.645-2.132.958-2.136zm-1.912.69c.348-.02.483.26.19 1.022-1.336 5.434-4.34 11.146-6.704 12.186-3.1 1.37-6.184.236-7.51-2.1-1.433-2.526-1.18-6.514 3.6-7.39 2.81-.286 5.69 1.93 4.19 5.494-1.67 2.645-6.155 1.17-4.84-2.24.994-1.248 3.076-.164 2.396 1.248-.347.718-.01 1.158.5.66 1.633-1.592-1.058-4.325-2.874-2.957-2.96 2.23.696 7.136 4.142 5.032 1.05-.64 2.95-4.24 3.662-6.86.308-1.13.585-2.2 1.31-2.886.69-.65 1.49-1.174 1.938-1.2zm-7.85.215c.17.007.37.09.642.225.344.17.75.48.703.88-.052.463-.316 1.468-.85 1.956-.32-.11-1.205-.465-1.81-.628-.38-.102.127-.918.36-1.37.375-.726.58-1.03.887-1.06.023-.002.05-.006.073-.005zm-9.764.186c.448-.01 1.154.486 1.62.552.09.675-.77 2.12-2.166 3.825-1.146 1.4-1.14 1.405-1.902-.133-.495-1.002-.51-.974.905-2.734.76-.944 1.126-1.38 1.457-1.494.027-.01.058-.01.088-.01zm4.437.494c.02.36-.165 1.154-.32 1.616-1.585 4.735-5.288 9.425-8.34 10.578-3.99 1.304-7.64-.796-7.734-5.64.1-5.702 6.893-7.283 8.944-2.08.927 2.35-1.598 5.88-3.78 5.29-2.2-.593-3.12-4.03-1.305-4.88 1.19-.556 2.42.38 2.16 1.64-.09.437-.064.497.192.45 1.13-.21.534-2.485-.802-3.05-2.525-1.074-4.433 2.33-2.73 4.863 2.04 3.036 5.25 2.454 7.097-1.29.313-.638.912-1.553 1.324-2.03 1.12-1.295 1.475-1.804 2.465-3.516.545-.944.837-1.54 1.115-1.85.443-.03.746.093 1.71-.102zm8.942.25c.48 0 .846.312.835.975-.01.555-.804 2.893-1.174 3.453-.14.213-.472.965-.52.8-.47-1.556-1.3-2.037-1.42-2.445-.14-.48.28-.94.47-1.37.4-.914 1.193-1.42 1.81-1.416zm8.43.736c.58-.005 1.396.26 1.565.69.527.925-3.045 9.548-3.175 9.574l-2.663-.117c1.6-3.44 3.013-6.844 4.04-10.126.07-.012.146-.02.23-.02zm35.757 13.648l3.39 2.016-22.34 35.493-3.246-2.486zM88 90.47c20.864.077 49.6.04 49.6.04l-1.212 2.302s-31.386-.306-48.388-.274zM59.83 91.92l-.044 11.668s-.157-.07-2.147-1.394c-2.39-1.59-5.01-3.23-5.86-3.658-1.247-.632-1.08-.937 1.31-2.46 2.35-1.413 6.73-4.156 6.73-4.156zm89.34 1.16l2.097 1.324-23.473 37.36-1.306-2.56zM88 93.596h3.267v3.692H88zm7.482 0h3.966v3.692h-3.966zm8.666.04h4.078v3.69h-4.078zm8.504.014h4.122v3.693h-4.122zm8.567.025h4.07v3.693h-4.07zm8.57.08h4.16v2.6l-.63 1.09h-3.53zm22.43 1.202l39.81 25.756-.028 3.555-41.444-26.783zm-2.61 3.012l.34.24-1.69 2.58-.348-.2zm-61.5.38h44.69l-1.35 2.26-43.34-.068zM51.43 99.5c.3-.02.885.245 1.797.758 2.198 1.234 3.58 3.834 2.63 4.773-.843.84-2.82-.95-4.048-3.51-.65-1.35-.82-1.99-.38-2.02zm79.067 2.23l-14.416 23.042c-3.26-4.466-6.91-8.325-14.89-5.712-4.16-3.216-8.552-3.712-13.232-.983l.053-16.27zm-74.213.01l1.125.972c-.338.635-.49 1.553-.7 2.372-.02-1.125-.12-2.24-.43-3.347zm91.392.24l44.418 29.223v2.71L146.127 104.3zm-97.285.664c.58-.013 1.14.232 1.56.74.678.81.4 2.288-.542 2.92-1.877 1.26-4.13-1.177-2.64-2.855.466-.53 1.054-.8 1.628-.81zm7.36.345l2.426 1.94c-4.21 24.01 7.82 48.25 33.724 55.51l.292 3.078c.05.146-11.005-3.283-15.834-6.895-6.6-4.467-12.18-10.756-16.025-18.07-2.627-4.717-4.066-9.91-4.996-14.11-1.1-7.2-1.067-14.33.41-21.457zM55 106.242c.93.037 1.03.707.283 1.994-.96 1.655-2.4 2.807-4.733 3.79-1.286.54-1.62.295-1.472-1.076.225-2.06 1.66-3.57 4.143-4.366.596-.165 1.2-.346 1.78-.34zm7.14.26c.38.32.498.42.963.815-.796.272-1.37 1.023-1.37 1.91 0 1.12.907 2.025 2.025 2.025 1.003 0 1.83-.725 1.99-1.68.364.31.704.6.97.832-.47 1.176-1.616 2.01-2.96 2.01-1.756 0-3.182-1.428-3.182-3.185 0-1.165.63-2.175 1.56-2.73zm1.618 1.592c.11 0 .218.02.32.05l.703.6c.07.15.112.31.112.484 0 .627-.51 1.135-1.135 1.135s-1.133-.51-1.133-1.135.51-1.132 1.136-1.132zm-7.642.733c-.267 3.095-.184 6.333-.086 9.574-.597-2.567-1.93-4.49-4.15-5.804 1.533-1.06 3.137-2.35 4.235-3.77zm11.67 2.43l2.156 1.862c-1.855 25.416 20.42 35.06 21.017 34.637l.94 2.875c-15.38-5.233-26.013-21.13-24.113-39.373zm124.07 60.94l-.114 3.2c-17.455-6.773-37.346-31.76-37.093-55.7-4.48 6.87-7 11.456-10.847 17.645l-3.064-1.46c5.037-7.502 9.823-15.526 14.874-22.896.575-.833 1.046-1.215 1.072.605-.003 8.238 2.552 42.126 35.167 58.604zm-141.92-58.943c.563-.036 1.366.236 2.378.914 1.597 1.07 3.387 4.376 2.768 5.114-.556.664-2.923-.126-4.097-1.37-2.328-2.463-2.48-4.568-1.047-4.66zm13.61.332c1.757 0 3.184 1.422 3.184 3.18 0 1.756-1.428 3.182-3.184 3.182-1.757 0-3.184-1.427-3.184-3.184s1.427-3.18 3.184-3.18zm7.126.303l2.08 2.44c.405 21.33 17.243 27.91 17.085 27.96l.51 2.3c-.94.13-20.833-8.925-19.674-32.69zm-7.124.86c-1.118 0-2.025.907-2.025 2.025 0 1.118.91 2.024 2.03 2.024s2.027-.907 2.027-2.025-.904-2.025-2.02-2.025zm0 .89c.626 0 1.134.508 1.134 1.135 0 .626-.506 1.134-1.132 1.134-.627 0-1.135-.51-1.135-1.135 0-.627.508-1.135 1.135-1.135zm10.758 1.93c.256 0 1.457 1.747 1.457 1.747s-1.32.463-1.88-.112c-.564-.57-.26-1.636.43-1.632zm92.194.788l3.12 2.133c1.455 14.39 9.7 27.52 22.13 36.628l-.077 3.566c-15.14-10.232-23.55-24.134-25.17-42.325zm-116.896.246c.05-.003.102 0 .15 0 1.91.03 2.72 2.964.676 3.804-1.283.53-2.68-.234-2.816-1.54-.095-.92.588-1.904 1.516-2.176.165-.047.322-.08.475-.087zm26.035 1.92c.5 0 1.043.29 1.56.87 1.367 1.545 1.355 1.994-.09 2.58-2.03.823-3.717-.32-3.04-2.064.354-.917.926-1.386 1.57-1.385zm-20.79.075c.166-.004.32.02.46.072 1.498.585-1.747 6.53-3.892 7.13-1.364.384-1.65-.15-1.204-2.234.5-2.32 3.05-4.937 4.64-4.97zm9.547.136c1.757 0 3.183 1.423 3.183 3.18 0 1.756-1.425 3.183-3.182 3.183s-3.184-1.43-3.184-3.185c0-1.757 1.43-3.18 3.19-3.18zm0 1.155c-1.118 0-2.025.908-2.025 2.027 0 1.118.9 2.024 2.02 2.024s2.02-.906 2.02-2.024c0-1.12-.904-2.024-2.022-2.024zm-7.957.17c.284 2.947.762 5.67 2.07 9.294-1.226-1.96-2.975-2.936-4.65-4.046 1.174-1.75 2.534-3.5 2.58-5.248zm7.958.72c.626 0 1.134.51 1.134 1.137 0 .626-.51 1.134-1.14 1.134s-1.137-.51-1.137-1.134.507-1.134 1.134-1.134zm18.015.35c3.32-.073 5.667 2.66 5.52 5.28.098 3.04.208 4.99-.043 8.77l-2.695-4.937c-.038-1.4.2-2.456.093-3.85-.305-3.74-3.972-3.22-4.146-2.85l-1.16-1.88c.85-.35 1.66-.517 2.43-.534zm11.692.375c3.11-.003 4.913 1.75 5.008 4.866.182 5.97-.137 19.595-.137 19.595l-6.73.006-3.67-9.102s-.147-.876-.12-1.51c.235-2.92.09-6.17.187-8.808.388-2.796 2.685-5.04 5.462-5.042zm-15.57.945c.433-.006.834.126 1.14.435 1.56 1.576 1.552 2.61-.03 3.323-2.092.942-3.18.763-3.892-.636-.7-1.37 1.236-3.104 2.782-3.123zm98.097.43l1.7 1.1s-.36.56-.556.895c-.97 1.665.68 2.643 2.96 1.76.41-.16.76-.388.76-.388l1.41.96s-1.016.547-2.123 1.09c-2.845 1.392-4.89.8-5.58-1.61-.27-.957 0-2.155.535-2.856.272-.36.885-.953.885-.953zm-72.18.2c2.6-.09 5.14 1.946 5.74 4.68.25 1.28-.08 18.21-.08 18.21l-10.33-.004.18-17.76c-.07-1.123 0-2.234.6-3.032 1.138-1.414 2.52-2.046 3.885-2.093zm-10.73.778c-2.09.096-3.27 3.477-1.13 5.07.894.667.913.792.432 3.043-.548 2.568.02 6.086 1.3 8.065.983 1.64.782.8.28-.66-.648-2.74-.33-4.753 1.25-7.936 1.414-2.68 2.784-6.806-1.71-7.55-.147-.025-.29-.036-.43-.03zm85.75.773l.932.63s-.14.118-.343.314c-.374.36-1.117.42-1.345.14-.38-.46.752-1.086.752-1.086zm-74.44 1.31c-2.243-.074-3.72 4.086-.85 5.09.65.42.76.974.356 1.75-.544 1.048-1.087 3.53-1.003 4.57.12 1.49.502 3.43.8 4.108.754 1.86.604 1.117.407-1.03-.072-2.4.41-4.133 1.808-6.427 1.66-2.75 3.942-7.225-1.296-8.04-.074-.01-.148-.017-.22-.02zm-38.593.016c1.756 0 3.183 1.42 3.183 3.18 0 1.756-1.426 3.183-3.182 3.183-1.755 0-3.182-1.427-3.182-3.184s1.426-3.18 3.183-3.18zm14.753.324c.55-.01.963.356 1.463 1.102 1.374 2.05 1.216 2.47-1.433 3.93-2.808 1.544-4.685-2.34-2-4.138.81-.542 1.386-.843 1.858-.89l.114-.003zm-29.134.15c2.96.03 7.585 4.256 5.33 4.87-.32.086-.73.146-.9.136-3.72-.226-7.98-5.043-4.43-5.007zm14.38.68c-1.12 0-2.024.904-2.024 2.022 0 1.12.905 2.027 2.024 2.027 1.12 0 2.025-.908 2.025-2.027 0-1.117-.902-2.023-2.02-2.023zm117.267.594l1.475 1.002s-.903.415-1.966.983c-2.888 1.54-3.727 2.672-2.73 3.68.357.36.78.516 1.537.23 2.002-.778 3.87-2.147 5.74-3.228l1.11.762c-.028-.052-4.417 3.12-6.81 4.454-3.767 1.932-5.917-2.02-3.82-4.656 1.612-1.606 3.342-2.133 5.464-3.233zm-117.268.293c.625 0 1.133.508 1.133 1.134 0 .628-.506 1.136-1.132 1.136-.626 0-1.134-.51-1.134-1.135 0-.627.51-1.135 1.135-1.135zm119.573 1.06l.81.544s-.088.04-2.554 1.458c-2.684 1.542-2.8 1.57-2.95 1.326-.13-.074.052-.703.876-1.257 1.443-.97 3.997-2.15 3.82-2.07zm-69.795.08c1.827-.036 3.69.832 4.753 2.69.543 1.41.59 2.72.583 4.2l-.046 9.94H111.1s-.482-6.775 0-12.415c.473-2.83 2.766-4.37 5.116-4.414zm-32.32 1.47c.66-.047 1.15.6 1.776 2.006.62 1.39.153 2.177-1.8 3.02-.248.108-.53.187-.627.177-1.975-.19-2.783-2.466-1.363-3.85.88-.86 1.5-1.32 2.016-1.356zm105.765 1.018l.904.565s-.464.42-3.824 2.87c-2.714 1.98-3.105 2.52-2.538 3.63.455.895 1.45.78 2.82-.275 1.9-1.462 4.894-3.937 4.894-3.937l.097 1.69c-1.97 1.583-4.345 4.283-6.24 5.31-3.65 1.8-6.27-3.14-2.932-5.575 2.875-2.1 6.815-4.28 6.815-4.28zm-73.05.007c-2.72-.02-3.732 4.017-.807 4.87.844.454.77.686.21 2.697-.34 1.22-.45 2.72-.262 3.672.216 1.217.486 1.19.374-.116.004-.714.74-2.62 1.473-3.815 2.71-3.782 2-7.27-.99-7.307zm-63.377.05c1.796.01 2.8 2.51 1.244 3.59-1.103.764-3.41-.17-3.403-1.374.005-1.03.814-2.006 1.794-2.18.126-.023.247-.036.367-.035zm5.166.21c.565 0 .89.828.885 2.466-.006 2.35-.84 4.398-2.28 5.594-2.08 1.734-2.545-2.988-.6-6.11.81-1.3 1.496-1.947 1.995-1.948zm133.17.62c.512-.005.432.387-.162.8-.46.32-1.244.964-3.668 3.01-.44.37-1.07.856-1.398 1.076-.81.54-1.495.4-1.104-.226.385-.617 5.867-4.65 6.33-4.657zm-121.952.11c1.757 0 3.184 1.424 3.184 3.18 0 1.758-1.43 3.184-3.187 3.184s-3.18-1.425-3.18-3.182 1.427-3.18 3.184-3.18zm0 1.156c-1.118 0-2.024.906-2.024 2.024 0 1.117.906 2.023 2.024 2.023 1.118 0 2.025-.905 2.025-2.023s-.91-2.024-2.027-2.024zm-38.07.06c21.53 10.884 34.953 31.25 38.266 54.45l10.46-16.59 2.826 1.064-15.24 24.84-.66-.208c-.064-24.27-12.16-47.23-35.7-59.827zm38.07.83c.627 0 1.135.51 1.135 1.134 0 .625-.51 1.133-1.136 1.133-.626 0-1.134-.507-1.134-1.133s.51-1.134 1.134-1.134zm-8.885.13c.94 2.083 2.086 4.268 3.857 6.764-1.795-1.687-3.757-1.614-5.7-1.87zm25.6.45c.333-.015.666.126.93.485.88 1.21 1.04 2.336.43 2.94-.84.83-2.176.504-2.78-.68-.63-1.23.415-2.692 1.418-2.74zm105.587 1.683l.036 1.88s-.4.485-.825.88c-1.2 1.125-2.84 2.915-2.958 3.37-.38 1.486 1.086 2.03 2.532.94.5-.376 1.22-.95 1.22-.95v2.32c-1.22 1.037-2.44 2.057-4.105 1.72-.97-.295-1.82-1.06-2-2.033-.694-2.92 2.135-4.55 4.33-6.505.71-.63 1.775-1.623 1.775-1.623zm-117.82 1.64h.164c1.76 0 3.184 1.424 3.184 3.18 0 1.758-1.426 3.185-3.183 3.185-1.754 0-3.18-1.426-3.18-3.183 0-1.7 1.34-3.092 3.02-3.177zm63.927.716c1.735-.008 2.653 2.33 1.257 3.65-.55.52-1.787.89-2.49.4-1.933-1.345-.51-3.963 1.234-4.052zm-3.46 1.852c1.002 1.065 1.762 4.158 1.17 4.743-1.31 1.35-5.11-3.142-4.882-6.08.403-1.76 3.338.94 3.71 1.336zM88.04 141.45c.727.004.864.656.7 1.04-.157.368-.726.398-1.18.212-.768-.317-.408-1.258.48-1.253zm-13.775.274c-1.118 0-2.025.905-2.025 2.023 0 1.12.907 2.026 2.025 2.026 1.12 0 2.026-.91 2.026-2.028s-.902-2.022-2.02-2.022zm-15.155.89c3.84.003 7.89 3.027 4.367 3.627-2.616.45-4.31-.07-6.348-1.93-1.04-.942-.67-1.444 1.213-1.654.25-.028.506-.04.762-.04zm15.155 0c.628 0 1.136.507 1.136 1.133 0 .627-.504 1.136-1.13 1.136-.627 0-1.135-.51-1.135-1.138s.507-1.132 1.134-1.132zm5.317 2.88c.054-.004.112 0 .167 0 1.754 0 3.18 1.42 3.18 3.177 0 1.76-1.426 3.19-3.183 3.19s-3.184-1.426-3.184-3.183c0-1.7 1.336-3.093 3.017-3.178zm62.56.16c.91-.015 1.706.156 2.167.577.56.52-.286 1.51-2.01 2.35-2.02.986-5.54.85-5.53-.213.004-1.415 3.05-2.67 5.37-2.71zm-76.638.836c1.762.01 2.24 5.482.71 8.103-.798 1.36-1.87.45-2.634-2.237-.628-2.203.576-5.876 1.922-5.87zm14.243.157c-1.12 0-2.026.908-2.026 2.025 0 1.12.91 2.025 2.028 2.025s2.023-.906 2.023-2.025c0-1.117-.906-2.024-2.024-2.024zm65.962.358c.15.005.34.08.59.2 1.923.95 3.324 5.365 2.32 7.33-1.056 2.077-3.433-1.914-3.413-5.73.005-1.245.09-1.75.434-1.792.02-.003.04-.006.063-.005zm-85.21.287c.04-.002.08-.002.12 0 1.74.042 3.01 2.45 1.37 3.687-.72.54-1.82.62-2.5.19-1.34-.85-1.266-2.917.124-3.64.298-.155.595-.234.88-.245zm19.243.25c.625 0 1.133.507 1.133 1.133s-.51 1.133-1.136 1.133c-.626 0-1.135-.508-1.135-1.135s.51-1.135 1.135-1.135zm-11.894.38c.954 1.42 4.816 5.164 5.35 5.487-1.706-.558-3.46-.32-5.217-.09.197-1.297.406-3.424-.133-5.405zm62.06.323c26.18 6.125 42.16 33.903 35.84 59.96 0 0-2.2-1.23-2.55-1.82.925-4.506 1.496-11.65.337-18.83-1.967-12.18-11.84-30.055-33.474-36.186-.24-.79-.15-3.13-.15-3.13zm14.11.19c.293 1.78.58 3.58 1.02 5.18-1.847-1.325-3.936-2.464-6.075-3.383 1.53-.32 2.924-.592 5.053-1.798zm7.545.57c1.04-.025 2.1.718 2.08 2-.01.567-.614 1.58-1.08 1.82-1.74.89-3.527-.802-2.76-2.61.344-.81 1.05-1.19 1.76-1.21zm-65.767.69c1.754 0 3.18 1.42 3.18 3.18 0 1.757-1.43 3.184-3.185 3.184-1.757 0-3.184-1.43-3.184-3.19s1.43-3.18 3.185-3.18zm0 1.156c-1.12 0-2.028.91-2.028 2.03 0 1.117.91 2.024 2.027 2.024s2.023-.905 2.023-2.023c0-1.115-.906-2.02-2.024-2.02zm-54.17.308c13.005 7.675 24.673 24 25.54 42.464l-3.15-2.06c-1.355-12.436-7.72-25.966-22.493-37.056 0 0 .037-1.197.1-3.35zm72.03 0h16.81v3.62l5.04-2.594v8.016l-5.044-3.05v3.496h-16.81v-3.678l-5.15 2.49.06-7.977 5.09 2.86zm-17.86.585c.623 0 1.13.508 1.13 1.134s-.506 1.134-1.132 1.134c-.628 0-1.136-.506-1.136-1.133 0-.624.507-1.132 1.134-1.132zm6.61.635h.062l.2 1.155c-.03 0-.062-.005-.095-.005-1.12 0-2.026.907-2.026 2.025 0 1.12.905 2.027 2.024 2.027.27 0 .528-.05.763-.147l.195 1.16c-.3.097-.623.148-.957.148-1.757 0-3.184-1.426-3.184-3.183 0-1.7 1.336-3.087 3.017-3.172zm37.975.4h.168c1.76 0 3.186 1.424 3.186 3.18 0 1.51-1.056 2.77-2.466 3.096l-.19-1.143c.86-.23 1.495-1.014 1.495-1.95 0-1.12-.907-2.024-2.025-2.024-.046 0-.09.004-.137.007l-.197-1.145c.054-.007.11-.013.166-.016zm22.325 1.078c3.927.02 5.556 2.274 2.338 3.232-1.49.443-3.44.208-5.37-.646-1.607-.71.606-2.6 3.032-2.586zm-82.06.214c.95-.005 1.87.14 2.547.463 1.64.78 1.605 1.307-.15 2.32-2.447 1.41-8.21-.02-6.47-1.605.82-.746 2.49-1.173 4.074-1.18zm21.927.346c.09 0 .174.01.256.03l.35 2.06c-.174.11-.38.177-.604.177-.627 0-1.135-.51-1.135-1.135s.51-1.132 1.136-1.132zm37.988.403c.623.004 1.126.51 1.126 1.133 0 .494-.316.91-.757 1.066zm6.926.81c1.76 0 3.184 1.42 3.184 3.18 0 1.755-1.428 3.18-3.185 3.18s-3.185-1.426-3.185-3.183 1.427-3.18 3.184-3.18zm-61.97.8c.19-.01.4.077.63.264 1.91 1.56 2.86 4.86 2.11 7.317-.717 2.34-3.69-1.816-3.67-5.134.01-1.53.37-2.41.93-2.442zm82.422.28c.26 0 .54.2.815.66 1.183 1.97 1.13 6.046-.1 7.315-.697.72-.956.586-1.68-.883-1.24-2.51-.306-7.1.962-7.09zm-20.45.07c-1.12 0-2.027.91-2.027 2.027 0 1.118.908 2.024 2.026 2.024 1.12 0 2.025-.905 2.025-2.023s-.908-2.025-2.026-2.025zm-59.447.545c2.404 1.52 4.865 2.903 7.424 4.056-2.395-.565-4.165.24-5.99 1.32.35-2-.33-3.63-1.43-5.373zm72.23.43c1.79.254 3.564.547 5.642.156-.386 1.76-.52 3.557-.35 5.39-1.547-2-3.27-3.875-5.295-5.544zm-12.784-.08c.627 0 1.135.51 1.135 1.135s-.51 1.133-1.136 1.133c-.627 0-1.136-.51-1.136-1.135 0-.627.51-1.135 1.135-1.135zm-65.635.783c.352.006.73.106 1.12.3 1.47.72 1.514 2.507.08 3.44-1.8 1.17-4.15-.89-3.026-2.657.43-.68 1.01-1.044 1.67-1.08.05-.003.1-.006.153-.005zm72.02 1.33c1.757 0 3.184 1.42 3.184 3.18 0 1.755-1.428 3.182-3.185 3.182-1.758 0-3.184-1.427-3.184-3.184 0-1.757 1.427-3.18 3.184-3.18zm18.622.533c.306-.003.625.066.943.23 1.134.596 1.37 2.098.47 2.976-.995.974-2.355.806-3.026-.37-.766-1.342.284-2.806 1.613-2.83zm-30.706.47c15.67 5.336 26.16 22.767 23.634 39.55l-1.955-1.848c1.49-9.51-3.734-27.683-21.185-35.14zm12.083.15c-1.12 0-2.025.91-2.025 2.028s.905 2.023 2.023 2.023 2.026-.905 2.026-2.024c0-1.12-.91-2.024-2.027-2.024zm0 .89c.626 0 1.134.51 1.134 1.138 0 .625-.51 1.133-1.137 1.133s-1.134-.51-1.134-1.134.508-1.134 1.134-1.134zm-59.578.2c.8.075 2.15-.07 2.465.68.357.957-1.6 2.605-4.077 2.928-1.01.06-3.174.315-3.63-.41-.427-.91 2.49-3.168 5.242-3.196zm-49.742.56c2.12-.09 4.506 2.74 2.363 5.05-1.717 1.78-5.23 4.2-5.23 4.2v-1.555s3.44-2.517 3.496-3.65c.01-1.314-1.074-2.056-2.282-1.265-.24.158-1.183.926-1.183.926l.08-2.606c.64-.7 1.77-1.053 2.756-1.096zm54.11.667c1.57.06 5.21 5.673 4.284 6.822-.735.91-3.69-1.11-4.803-3.278-.596-1.164-.417-3.24.303-3.51.066-.026.137-.04.214-.035zm24.216.68s.162 13.06-.57 14.294c-2.945 5.33-9.3 2.557-9.84-1.436-.39-2.408-.157-12.832-.157-12.832zm.93 0h10.152s-.045 18.384-.454 19.44c-.334.856-1.81 2.34-2.735 2.742-2.98 1.3-6.17-.547-6.96-4.036-.57-2.517-.004-18.148-.004-18.148zm11.003 0h6.74s.23.974.496 1.775c.467 1.397 2.056 5.403 2.24 5.648.823 1.1.863 13.117.05 14.486-2.974 4.455-7.92 3.16-9.728-1.776-.453-1.58.2-20.133.2-20.133zm7.86.454c12.083 5.74 21.332 17.915 20.174 33.534l-2.22-2.215c.81-10.78-7.398-24.256-16.975-28.26zm16.64.37c1.755 0 3.182 1.42 3.182 3.18s-1.427 3.183-3.184 3.183c-1.757 0-3.183-1.424-3.183-3.18s1.426-3.18 3.183-3.18zm11.92.322c1.183.016 2.627.424 3.707 1.314 1.29 1.063 1.47 1.905.47 2.214-1.934.594-4.26.02-5.716-1.42-1.356-1.336-.188-2.138 1.54-2.113zm-11.922.83c-1.12 0-2.024.907-2.024 2.025 0 1.12.904 2.026 2.022 2.026s2.023-.904 2.023-2.022c0-1.116-.904-2.023-2.022-2.023zm-63.68.255c1.696.01 2.474 2.398 1.174 3.606-.532.497-1.987.6-2.62.19-1.74-1.13-.72-3.804 1.447-3.792zm22.41.608c-.56 1.614-1.46 3.435-2.21 4.68-2 3.337-1.74 5.574.37 6.704 3.106 1.66 5.36-2.795 2.3-4.543-1.07-.612-1.07-.62-.683-2.274.484-2.06.57-4.52.225-4.564zm41.27.03c.627 0 1.135.507 1.135 1.134 0 .626-.508 1.134-1.135 1.134s-1.133-.51-1.133-1.135c0-.627.506-1.135 1.132-1.135zm-30.387.655c-.142-.01-.034.82-.044 2.293-.02 2.378-.218 3.1-1.738 6.29-1.94 4.07-1.68 6.852.724 7.755 1.87.7 3.686-.73 3.697-2.91.008-1.04-.455-1.853-1.166-2.064-.644-.04-1.356-.34-1.306-.65.395-2.43 2.5-7.01-.165-10.714zm40.148.327c1.573.99 3.19 1.925 5.528 2.043-.998 2.39-.896 4.135-1.06 6.04-1-2.566-2.547-5.404-4.467-8.084zm-119.866.37c.127 0 .253.008.378.025 1.503.232 2.77 2.155 2.368 3.59-.35 1.25-.46 1.46-5.294 4.69-2.682 1.79-2.963 1.865-2.963 1.865l-1.44-.97s1.217-.81 3.145-2.105c3.71-2.494 4.253-3.087 3.872-4.2-.415-1.212-1.8-.957-3.996.73-3.244 2.5-3.582 2.668-3.582 2.668v-1.492s1.424-1.13 2.04-1.66c1.505-1.07 3.584-3.12 5.477-3.14zm96.05.65c.366-.002.646.337.52.66-.06.157-.275.257-.558.256-.583-.003-.614-.83-.035-.91.025-.003.05-.005.073-.005zm32.594 1.736c.683 2.354-.79 6.277-1.697 6.78-.96.95-1.564.042-1.772-2.422.006-1.995 2.295-8.242 3.468-4.355zm-38.65-1.32c.295 3.39.4 6.207-1.188 8.96-2.064 3.57-1.53 6.63.677 7.306 2.2.67 4.14-.9 3.75-3.04-.118-.655-1.016-1.724-1.564-1.864-.674-.176-.755-.595-.37-1.94.745-2.604.495-5.9-.63-8.284-.104-.354-.517-1.156-.675-1.143zm7.394 1.13c1.855.01 2.73 2.42 1.34 3.693-.77.71-1.263.386-2.072-1.35-.75-1.61-.518-2.35.734-2.34zm17.264.495c1.754 0 3.18 1.42 3.18 3.18s-1.426 3.185-3.183 3.185c-1.758 0-3.184-1.43-3.184-3.186s1.423-3.177 3.18-3.177zm0 1.156c-1.12 0-2.027.906-2.027 2.024 0 1.12.902 2.025 2.02 2.025s2.025-.908 2.025-2.026c0-1.12-.908-2.025-2.026-2.025zm0 .89c.624 0 1.132.508 1.132 1.134 0 .626-.508 1.135-1.135 1.135s-1.135-.51-1.135-1.136c0-.627.507-1.135 1.133-1.135zm-13.66.836c.26-.01.512.033.75.147 1.674.81 1.49 3.13-.36 4.516-1.17.88-1.666.575-2.758-1.69-.592-1.23.963-2.914 2.367-2.972zM43 173.99c.17.006.33.03.484.075 1.73.475 2.824 2.492 2.39 4.024-.952 2.36-4.18 3.154-6.63 4.143l-1.27-.93s1.795-1.02 3.54-1.824c1.633-.75 1.896-1.05 1.774-2-.236-1.853-1.13-1.786-5.19.4-1.654.89-2.868 1.68-2.868 1.68l-.9-.74c1.345-.884 2.15-1.374 3.62-2.376 2.45-1.68 3.85-2.4 4.876-2.45.06-.004.12-.008.178-.006zm129.126 1.374c.59 1.796-.616 3.37-2.43 2.665-.987-.387-1.686-1.647-1.074-2.81.816-1.28 3.106-1.06 3.502.14zm-36.44-.625l2.86 5.14s.04 1.43.065 2.22c.11 3.338.83 4.44 2.78 4.118.14-.023.84-.225.84-.225l1.243 2.09s-1.344.588-1.692.66c-2.3.484-5.484-1.244-5.98-3.554-.48-2.235-.11-10.455-.11-10.455zm-93.715 2.11c.87.063.5.722.1.94-1.68.854-3.27 1.785-5.02 2.796l-1.172-.73s.907-.505 1.53-.89c1.924-1.18 3.88-2.09 4.57-2.116zm114.97.66c1.76 0 3.187 1.42 3.187 3.18s-1.428 3.183-3.185 3.183c-1.76 0-3.185-1.427-3.185-3.184 0-1.756 1.427-3.177 3.184-3.177zm-13.47.435c.74-.02 1.35.295 1.747.955.85 1.41-.05 3.136-2.114 4.056-1.15.512-1.342.406-2.57-1.415-.83-1.23-.826-1.45.09-2.233 1.03-.88 2.024-1.335 2.85-1.36zm-111.72.28l45.59 29.52-1.3 2.21-44.2-28.933zm135.47.38c2.77.054 6.387 3.26 5.106 4.53-.136.135-.4.236-.587.225-3.956-.23-8.32-4.823-4.52-4.75zm-10.274.06c-1.12 0-2.025.906-2.025 2.024 0 1.12.907 2.026 2.025 2.026 1.116 0 2.022-.907 2.022-2.026 0-1.115-.908-2.02-2.026-2.02zm-60.89.56l1.21 3.14-22.69 36.125-2.23-1.43zm60.89.33c.626 0 1.134.508 1.134 1.134 0 .63-.51 1.136-1.135 1.136-.628 0-1.137-.51-1.137-1.136 0-.623.51-1.13 1.132-1.13zm8.333.376c1.11 2.067 2.96 3.333 5.065 4.22-1.988 1.64-2.988 3.768-2.91 5.99-.504-3.336-.94-6.656-2.157-10.21zm-119.95 1.09c.484.006.923.107 1.27.344 4.252 2.913.347 5.795-.015 5.57l-1.45-.915c.5-.826 1.63-1.945-.19-2.988-1.03-.45-2.18.09-3.183.786l-1.52-1.04s2.98-1.774 5.087-1.758zm100.276 1.65c.16-.005.315.005.467.034 2.4.463 2.235 3.01-.273 4.19-1.428.672-1.68.535-2.926-1.604-.585-1.002 1.18-2.57 2.73-2.62zm-101.05.935c.255.008.582.23.62.44.125.67-1.114 1.34-1.114 1.34l-1.422-.943c.606-.335 1.242-.79 1.915-.836zm127.873.61c.35-.025.602.14.704.555.487 1.98-1.712 5.65-3.74 6.247-1.185.346-1.528-.21-1.14-1.85.545-2.303 2.935-4.85 4.176-4.95zm-73.538.154l3.694 2.68-22.153 35.013-3.833-2.28zm60.28.283c1.76 0 3.186 1.422 3.186 3.18 0 1.756-1.426 3.183-3.183 3.183-1.76 0-3.186-1.427-3.186-3.184 0-1.756 1.426-3.178 3.183-3.178zm0 1.155c-1.115 0-2.022.904-2.022 2.022 0 1.12.904 2.026 2.022 2.026 1.115 0 2.02-.908 2.02-2.026 0-1.117-.905-2.023-2.023-2.023zm0 .89c.63 0 1.137.506 1.137 1.132 0 .627-.508 1.136-1.134 1.136-.63 0-1.137-.51-1.137-1.136s.507-1.133 1.134-1.133zm-50.9.115c2.404 2.71 5.106 8.77 14.535 5.91 3.213 2.616 7.65 4.106 13.116 1.202l.04 16.33-41.865.044zm-76.462.413l41.23 27.135-1.295 2.28-39.977-25.55zm115.743.024c.04 0 .073.002.103.01 2.106.514 2.344 2.62.385 3.427-1.05.43-1.262.324-2.263-1.15-.4-.587-.626-1.075-.57-1.22.14-.36 1.754-1.074 2.344-1.067zm26.456 2.23c.736.004 1.47.394 1.813 1.163.514 1.154.216 2.12-.848 2.763-1.762 1.06-3.73-.887-2.817-2.787.367-.764 1.112-1.145 1.85-1.14zm-25.82 2.214c.97.003 1.79.93 1.314 1.495-.312.374-.715.267-1.23-.327-.606-.696-.64-1.17-.084-1.17zm11.82.404c1.755 0 3.18 1.42 3.18 3.18 0 1.755-1.425 3.18-3.182 3.18s-3.185-1.425-3.185-3.182 1.426-3.18 3.183-3.18zm8.97.175c2.396.014 5.72 4.022 5.156 6.22-.185.72-1.53.33-3.13-.898-2.16-1.664-3.56-5.33-2.03-5.32zm-8.97.98c-1.12 0-2.027.906-2.027 2.024 0 1.12.905 2.025 2.023 2.025 1.117 0 2.024-.908 2.024-2.026 0-1.12-.906-2.026-2.024-2.026zm7.71.41c.662 1.94 1.34 3.96 4.332 5.364-4.643 2.164-5.53 5.806-4.83 10.476l-1.088-.666c.997-4.183 1.75-8.95 1.587-15.173zm-7.71.48c.624 0 1.132.507 1.132 1.134s-.51 1.135-1.135 1.135-1.134-.51-1.134-1.136c0-.628.51-1.136 1.136-1.136zm-.594 5.11c1.757 0 3.184 1.42 3.184 3.18 0 1.11-.57 2.09-1.433 2.66l-1.03-.77c.76-.29 1.3-1.03 1.3-1.89 0-1.12-.904-2.027-2.022-2.027-1.062 0-1.93.824-2.01 1.87l-1.033-.774c.4-1.303 1.614-2.25 3.047-2.25zm14.485.405c1.516.01-.84 4.21-3.002 5.356-1.647.873-3.154.94-3.15.143.01-2.09 3.84-5.51 6.152-5.498zm-14.484 1.64c.627 0 1.135.51 1.135 1.134s-.507 1.133-1.134 1.133c-.622-.07-1.127-.558-1.134-1.136 0-.627.507-1.136 1.133-1.136zm13.996 3.83c.745.01 1.484.332 1.8.962.405.814.25 1.542-.495 2.28-1.83 1.81-4.32-.05-3.124-2.334.326-.62 1.074-.92 1.82-.91zm-5.855 1.705c2.55.08 4.48 3.25 4.02 5.046-.403.475-3.212-1.655-3.515-1.873-.36-.636-.38-1.664-.506-3.174zm-3.476 1.965l7.99 4.803-7.97 5.12zm-71.152 2.378l42.924.157.005 1.805-44.1.022 1.174-1.986zm-1.75 2.82h2.887v3.518h-3.96v-1.942zm41.246.085h3.472v3.517h-3.472zm-34.07.026h3.95v3.518h-3.95zm8.22.03h4.27v3.517h-4.27zm8.734 0h4.107v3.517h-4.11zm8.772.06H128v3.516h-3.912zm-35.73 4.33l47.605.112v2.108l-48.965-.113zm40.617 4.44c4.847-.054 7.67 5.356 3.883 9.154-3.48 3.492-9.29-.967-6.39-4.895 1.62-2.197 5.6-.43 4.61 1.91-.657 1.54-2.8.82-2.736-.848.003-.67-.49-.214-.548.5-.074.9.852 1.9 1.93 1.9 2.812.006 3.234-3.72.523-5.09-2.425-1.224-4.975.336-5.56 3.432-.067.336-.466 1.18-.77 1.78-.897 1.8-1.186 2.835-1.63 4.89-.21.255-.84.665-1.276.884-1.38.69-1.323.4-.806-1.85 1.49-6.473 3.925-10.643 6.9-11.49.65-.185 1.273-.28 1.87-.284zm14.333.337c2.995-.065 5.25 2.4 5.64 4.305 1.72 5.794-5.97 9.343-8.65 4.093-1.5-3 1.602-6.58 4.445-5.185 2.328 1.14 2.177 4.69-.2 4.68-1.29.06-2.077-1.1-1.365-2.03.37-.37.814-.08 1-.7.08-.256-.287-.46-1.168-.282-1.46.297-1.31 3.24.383 3.825 2.52.87 4.677-1.788 3.477-4.418-1.445-3.162-5.35-3.175-7.136.132-.26.48-.666 1.164-.89 1.47-2.665 3.615-2.875 4.156-3.668 6.17-.08.2-.22.35-.46.323-.735 0-1.455.16-1.947.353-.33-.09.11-1.357.147-1.453 1.815-5.603 6.477-11.153 10.4-11.29zm-23.19 1.574c-.63 1.1-2.53 4.68-3.845 9.96-.347-.21-1.28-.6-1.956-.84-.26-.09-.05-.38-.067-.83.48-2.38 2.02-6.55 3.716-8.67.36-.26 2.68-.35 2.154.38zm2.72 1.06c-1.628 2.076-3.326 7.59-3.68 10.436-.054.43-.13.906-.176 1.056-.254.85-1.846-.978-1.84-2.11.014-1.92 2.143-7.773 3.664-10.01.53-.78.594-.907 1.727-.95 1.82-.043 1.02.66.303 1.577zm-79.49-1.37c-.4.01-.8.063-1.196.157-2.354.585-5.16 3.08-5.433 5.728-.13.08-.45 1.93-.24 2.87.776 3.554 2.85 5.964 5.39 9.488 0 0-3.19 4.944-5.38 7.226l5.177 7.486c-1.43 2.825-3.918 4.963-4.543 8.45-.975 4.59 1.43 9.065 6.544 9.477 3.815.115 6.32-2.464 6.79-6.37.195-2.6-.874-5.856-4.717-11.005-.19-.256-.562-.784-.562-.784s.43-.504.66-.843c1.35-1.83 4.875-6.3 4.875-6.3l-5.267-7.447s.23-.503.636-1.058c4.3-5.864 5.1-8.845 4.34-11.757-.3-1.15-1.013-2.03-1.98-3.013-1.563-1.586-3.35-2.345-5.09-2.303zm-.125.72c1.68-.025 3.413.65 4.817 2.117 3.23 3.38 2.945 6.24-1.25 12.49-.92 1.373-1.825 2.88-1.825 2.88l5.293 7.317s-.86 1.286-1.75 2.334c-2.42 2.845-3.775 4.89-3.775 4.89.916 1.41 2.408 2.914 3.344 4.607 1.13 1.918 1.802 3.83 2.002 5.58.42 3.68-1.972 7.6-6.065 7.697-3.97.026-6.996-3.285-6.91-7.44.04-1.853.805-3.565 1.737-5.233.95-1.698 3.182-4.998 3.182-4.998l-5.124-7.47 5.428-7.25s-3.947-4.833-5.16-8.32c-.982-3.955.86-6.21 1.107-6.556 1.205-1.693 3.04-2.618 4.946-2.645zm114.264.41c3.05 3.474 4.693 8.444 5.4 12.715.286 1.753.338 4.746.09 5.07-.48.625-1.563.29-1.495-.464.55-6.022-5.933-10.336-11.545-7.726-4.33 2.012-6.64 6.692-5.56 12.513 2.04 10.974 11.248 19.02 17.478 30.03 2.204 3.73 2.726 5.826 2.712 5.753 0 0 .815-2.176 2.67-5.274 4.44-8.154 10.47-13.414 14.953-21.57 2.106-3.83 3.445-7.617 3.67-11.038.04-7.96-7.73-13.96-13.8-9.78-2.404 1.475-4.435 4.33-4.755 6.68-.137 1.003-.314 1.302-.76 1.3-1.04-.006-1.054-.398-.22-5.12 1.268-4.69 2.78-9.14 5.53-13.09zM39.86 235.78c.788 2.053 2.07 3.58 3.52 5.04 1.346-1.573 2.847-3.642 3.67-5.615 3.968-9.503-11.353-10.278-7.19.575zm3.463 4.105c-1.944-2.26-3.317-4.142-3.45-7.124-.213-5.91 7.51-5.24 7.126.04-.43 2.88-1.95 4.7-3.68 7.09zm95.718-9.288c.15.832.96 2.24.89 2.573-.37.872-.92 1.307-1.68 2.743-.16.307-.082.37-.51.294-.402-.056-1.11-.278-1.486-.386-.216-.06-.464-.18-.362-.45.734-1.68 1.554-3.69 3.16-4.77zm-12.8 2.543l-.91 2.356c-.08.254-.09.296-.36.24-.51-.065-.97-.106-1.48-.067-1.126-.14.996-4.35 1.315-4.99.46.07 1.143 1.87 1.444 2.46zm.86.543h.06c.46.06 1.15.31 1.66.534.28.116.29.124.17.474-.26.52-.58 2.02-.924 2.54-.01.08-1.605-.95-2.06-1.14-.02-.283.506-2.32 1.097-2.4zm13.53.28c.53.018 1.18.498 1.54.772.17.332.015.665-.57 1.678-.52.896-1.064 1.864-1.195 1.76-.395-.31-1.126-.71-1.487-1.208-.27-.37.243-1.32.59-1.838.55-.82.816-1.115 1.127-1.164zm-8.603-.12c.488.11-.286 2.623-.43 2.937-.462.69-1.18 1.6-1.75 1.965-.293.187-1.19-.35-1.17-.978.014-.446.87-2.698 1.153-3.296.04-.08 1.65-.61 2.196-.62zm-19.91.96c.11-.002.22 0 .33.006 1.917-.06 3.888.89 5.13 3 .587 1 .594 1.04.46 1.97-.318 2.193-.208 3.67.37 5.01.66 1.53.56 2.057-1.05 5.463-1.618 3.427-3.58 7.603-5.07 11.475-.663 1.66-1.27 3.54-1.65 5.076-.25.967-1.43.676-2.606.63-.6.132.863-3.893 3.027-8.704 1.733-3.85 4.09-8.188 5.03-12.497.766-3.51.52-4.956.1-6.43-1.622-4.29-7.265-3.24-7.252.713.124 2.56 3.087 3.933 4.174 1.42.18-1.153-.39-.48-.87.08-1.022 1.2-2.774-.135-2.5-1.907.363-2.33 3.37-3.096 4.823-1.254 1.59 2.017 1.243 4.097-1.056 5.66-2.37 1.74-4.527.75-5.71-1.06-2.524-4.057.93-8.56 4.32-8.665zm11.714 1.703c2.35.048 4.903 2.018 5.316 3.578.22 1.06-.12 2.305.257 3.328.314.82.616 1.29.39 2.02-1.935 6.225-6.5 12.865-8.76 20.235-.26.513-.496.577-1.08.743-.9.257-1.253.23-1.35-.24-.09-.448.214-1.3.74-2.894.63-1.912 2.028-5.185 2.847-6.724 1.906-3.585 2.97-6.038 4.355-9.1.26-.573.332-.913.738-1.737 1.75-3.54-.224-7.03-3.84-7.05-2.868-.016-4.15 4.472-1.64 5.784 2.453 1.28 4.284-2.09 2.102-3.28-.522-.29-.66-.02-.235.49.97 1.16.1 2.73-1.252 2.11-2.092-.97-1.014-4.537 1.43-4.33 3.77.316 4.26 5.802.414 7.192-5.29 1.91-8.06-6.603-3.086-9.468.826-.477 1.745-.68 2.656-.666zm11.14.17c1.39-.034 2.853.462 4.054 1.615 2.958 2.84 2.17 7.23-2.826 15.7-1.635 2.84-3.23 6.25-4.102 8.75-.214.62-.396.935-.89 1.207-.864.478-1.846.537-1.973.2-.325-.86 2.15-6.215 6.557-14.626 1.155-2.24 2.62-4.843 2.544-7.51-.29-2.12-2.053-3.642-4.41-2.95-1.59.467-2.238 2.706-1.068 3.834.49.473 1.09.72 1.475.68.73.025 1.56-.7.148-.776-1.497-.01-2.008-1.89-.744-2.74 1.816-1.22 3.902.22 3.755 2.594-.306 4.775-7.275 4.06-7.46-.854-.115-3.04 2.277-5.043 4.934-5.11zm69.093 2.065c1.726 1.23 2.97 3.46 3.26 5.59.09.66.177 1.33-.11 1.48-.35.19-.593-.08-1.313-1.03-1.68-2.21-4.998-1.27-6.11 1.768-1.06 2.89.034 6.137 4.49 12.594 1.6 2.388 3.005 4.368 4.33 6.71.936-2.33 2.527-4.836 3.885-6.906 5.087-7.702 6.02-11.705 3.252-14.283-1.778-1.62-4.592-1.67-5.545.4-.646.853-1.032 1.264-1.304.75-.12-.225-.106-.906-.03-1.41.483-2.446 1.28-4.05 3.042-5.652zm-88.787 5.58c1.054-.08-.76 5.6-3.926 11.96-1.73 3.53-3.04 7.32-4.38 11.01-.368.497-2.55.587-2.546.077 3.87-12.41 6.606-14.546 7.93-19.272.23-.816.4-1.996.43-2.097.98-.28 1.803-1.456 2.49-1.67zm-71.69.84l-4.102 5.35 4.007 5.687 4.163-5.433zm88.846 1.657c-.004.64-1.233 3.726-2.152 5.58-4.02 8.11-5.018 10.298-5.712 12.46-.123.39-.326.65-.58.743-.5.185-1.893.453-2.01.263.85-4.74 7.355-15.526 8.617-20.25.506-.023 1.797.746 1.84 1.2zm3.217-.494c.27-.02.38.09.303.455-.127.59-.83 1.97-2.05 4.373-3.385 6.654-5.16 10.596-5.726 12.62-.13.476-.213.85-.44.97-.465.248-2.092.904-2.17.195.51-3.005 2.49-4.962 7.614-17.504.24-.41.45-.612.676-.65.63-.102 1.177-.402 1.795-.454zm-13.89 2.06c-.13.774-1.017 2.397-2.484 5.393-2.44 4.985-4.02 8.7-4.977 11.996-.156.536-.37 1.098-.578 1.243-.397.275-2.176.19-2.176.19-.27-1.36 1.875-6.444 4.267-11.79 1.3-2.906 2.81-5.803 3.82-8.41.695.104 2.03.77 2.126 1.38zm3.62-1.284c.725-.006.16 1.21-1.572 4.64-1.407 2.78-3.65 6.68-5.1 11.163-.378.986-.823 2.212-.988 2.73-.214.662-.41.99-.687 1.126-.52.26-1.784.247-2.01-.024-.35-.43 1.52-5.475 3.348-9.35 1.61-3.256 2.748-5.87 4.14-8.88.38-.6.397-.64.784-.717.803-.065 1.636-.604 2.09-.69zm-81.726.65l2.11 2.825-2.48 3.088-2.06-3.002zm-.32 12.19s-.896 1.033-1.82 2.67c-2.7 4.493-2.77 7.81.41 9.78 1.347.684 3.098.534 4.2-.43 3.61-3.146.93-7.467-1.4-10.397-.62-.86-1.39-1.625-1.39-1.625zm.134 1.15c1.352 1.594 2.34 2.79 3.242 4.796 1.035 2.693.37 4.81-1.634 5.805-3.17 1.574-6.05-1.956-4.546-5.725 1.112-2.79 2.94-4.873 2.94-4.873zm88.742 5.32c.296.566-30.164 7.612-52.634 1.564L65.9 287.747l78.936-.136zm-1.155 1.403s7.34 12.7 10.94 18.92h-5.06l-7.213-15.445c-3.86 1.076-7.663 1.854-11.522 2.343l2.568 13.1h-3.79l-2.142-12.52c-5.53.428-11.16.59-16.91.427l-2.48 12.092H91.48l2.543-12.01c-4.365-.59-8.71-1.145-13.144-1.874l-7.44 13.88h-5.6L79.51 269.3c17.427 3.496 33.497 2.673 51.544-1.497zm78.85 2.91c-3.45.01-7.09 1.862-8.122 5.836-.363 1.263-.364 1.266-.376 12.514-.01 9.3-.085 11.54-.085 11.54h-3.18v3.718h10.35v-3.713h-3.434s-.05-11.57-.05-18.86c-.14-1.893.03-3.558.534-4.716 1.83-4.22 8.27-3.295 9.045.302.463 2.146.204 2.708.235 4.56h3.585s.093-3.255-.256-5.154c-.473-4.24-4.13-6.125-7.914-6.02-.11-.003-.22-.005-.33-.004zm-81.606 3.905l5.72 12.104h-10.84l-1.996-10.8zm-46.396.88l9.47 1.228-2.445 9.997H76.14zm30.923 1.49l1.3 9.734h-16.32l1.814-9.54z"/></svg>