<svg xmlns="http://www.w3.org/2000/svg" width="224.225" height="312.808"><title>Vectorized Playing Cards 1.0</title><path d="M102.63 285.11l23.213-42.373c-.003.01 5.62 2.153 12.192 3.86-6.308 16.437-.045 38.12-.045 38.12s-35.376.356-35.36.392zm-63.79-72.414c-1.32-18.008-1.363-35.406 1.603-49.818.055-.23-8.292-5.052-7.428-5.606 1.32-.847 17.765-9.42 17.765-9.42s1.11.633 2.07.536c.748-.077 1.45-.756 1.16-1.483-.688-1.718-1.914-5.992-1.18-10.295.424-2.472 1.764-5.193 3.155-6.86 3.1-3.712 10.172-1.75 12.23-1.812 1.306-.04 5.252-13.842-1.033-16.403-1.732-.706-5.707 8.717-2.945 10.83.416.32-5.555-3.142-10.128-5.207-.43-.192-2.3-1.63-2.72-3.527-.526-2.36 7.01-6.92 5.53-9.59-2.157-3.88-7.72-9.7-10.105-8.1-2.25 2.037-7.62 6.19-7.587 9.036 1.68 5.098 5.943 5.453 8.184 10.276.56 1.043 4.68 5.424 4.68 5.424-1.547 2.363.957 6.5 1.074 5.865l-19.52-8.507s4.47 33.67-.255 38.656c-.5.526 4.183-1.32 4.26-1.035 1.425 1.8 17.194 11.825 21.708 15.428 8.016-11.177 10.944-16.095 21.275-26.01 2.263-1.875 7.32-5.298 10.21-9.41 2.32-3.304 3.284-7.025 2.87-9.913-.54-3.736-.87-6.29-3.18-9.27-5.326-6.877-13.8-13.436-13.65-13.556l2.895-2.353s10.45 8.64 14.875 14.995c2.98 4.28 1.645 9.183 4.215 10.062.618.21 4.84-.14 6.226.125.17.033 30.743 21.606 25.2 22.85-7.67 1.723-19.91.6-19.91.6-8.736-8.526-12.953-11.33-18.16-8.66 0 0-13.194 11.54-20.81 20.574-4.34 5.15-7.96 11.593-10.865 15.738-1.118 1.6-15.13-11.86-14.987-10.245 2.08 14.65 3.27 32.3 1.655 44.264-1.105 10.16-2.62 21.08-3.295 30.45 0 0 2.353-.68 4.145-.044.97.344 1.675 1.242 1.76 2.24.523 4.463-5.225 3.427-5.358 3.04.006-.003 3.208 6.885 3.208 6.885s-4.98 8.587-4.84 8.21c.086-.23-4.524-7.62-4.524-7.62s3.496-6.174 3.936-7.46c.264-.77-5.047 2.555-5.457-2.263-.414-4.858 5.796-3.556 5.52-2.958-.75-9.964-2.423-20.26-3.48-28.656zm74.855 22.41c.138-.104-13.212-5.356-25.475-4.86-4.32-1.682-11.367-3.442-16.07-.308-5.29-3.58-9.856-7.52-14.495-11.425 1.3-.017 6.166-31.31 9.35-42.213-1.42-13.54 11.63-13.532 12.764-2.685 14.06 14.532 31.27 29.563 49.02 44.35-2.83 5.854-13.02 10.316-15.1 17.14zm30.74-95.796c-16.03-16.336-49.576-45.54-49.576-45.54l15.7-15.32c8.24 2.456 16.71 4.508 26.29 4.605.03.037 10.49 4.755 16.06-.013l14.495 11.48s-6.01 31.61-9.543 42.642c.074 4.37-1.58 9.693-5.898 10.483-3.688.675-6.524-4.55-7.54-8.337zm32.398-37.84c1.673-10.277 2.017-17.757 3.178-29.745-7.23 2.117-7.13-7.624-.03-5.062l-3.29-7.25 4.88-8.17L186.04 59l-3.854 6.878c8.01.394 6.077 7.825-.82 6.03 1.3 11.485 4.164 23.087 4.025 34.44 2.48 18.21-3.05 43.546-2.13 44.147l7.81 5.37-1.33 39.616-12.333-5.4-3.67 2.48c1.177 2.33 2.676 4.567 3.183 7.1 0 0 8.493 6.984 7.314 9.16.55.32-6.044 9.04-7.98 8.824-3.692-.415-8.012-5.18-9.194-8.57-1.043-3.414 7.626-6.76 6.532-9.255-1.31-2.986-4.61-4.42-7.537-5.3-4.035-1.21-5.88-4.403-6.067-4.403 0 0-1.57 12.663-3.08 11.65-6.07-4.072-1.92-16.992-.79-16.632 0 0 2.653.61 5.787.904 11.04 1.156 10.292-12.41 8.152-18.98-.537-1.557.302-1.57.243-1.59-.513-.175 1.785-.047 3.735-.62 5.362-1.58 13.576-7.03 13.576-7.03-8.63-4.786-16.245-10.244-23.08-15.42 0 0-6.343 10.82-13.863 18.325-5.474 5.462-6.364 7.322-15.526 14.36-.18.134-6.942 8.22-3.72 17.655 2.755 8.075 16.004 16.82 15.907 17.403l-2.61 2.49c.106.143-18.754-11.695-18.315-24.427-.02-.482-8.57-.65-8.57-.65L92.97 164.53l21.053-.09 10.81 8.825 6.753.35c.44.39.686-1.783 6.635-6.217 11.37-8.472 25.45-30.228 25.45-30.228s14.89 10.465 14.91 10.467c-.746-15.718-3.28-32.622-1.74-46.17zM122.62 27.185s-15.47 29.045-23.955 42.73l-12.02-3.446c5.038-13.36.216-38.82-1.052-39.46z" fill="#e2cf00"/><path d="M30.315 25.496l.913 261.56 162.41-.105-.468-261.45zM143.193 215.04c7.704-7.155 15.325-13.062 22.45-17.356 2.764-1.665 3.603-1.908 4.688-.92 1.78 1.61 2.88 3.01 2.3 4.138-.13.254-.542.676-.542.676l-4.257-1.618 1.38 4.827c-3.83 1.56-3.76 5.7-.065 7.896l-2.543 5.85 5.914-2.6c.225 1.275 4.44 4.36 7.064 0l5.34 2.606-1.84-6.54c1.754-1.67 2.776-4.34.02-6.8l1.27-5.12-4.823 1.57c-1.21-1.65-1.91-1.54-2.19-1.99-.08-.617-.095-2.05-.9-3.37-.66-1.09-1.42-2.25-2.13-3.067-.373-.635-.073-.69 1.85-1.73.907-.49 1.655-.984 1.655-.984s9.49 4.76 13.36 6.57l.22 87.64-52.05-.15c-5.855-17.47-1.65-32.568-.098-38.92-2.73-.23-16.804-4.79-17.226-6.357 5.576-8.86 13.144-16.907 21.167-24.26zM41.91 240.54c-6.79-2.192-6.86 5.98-3.39 6.614.9.165 1.84.3 3.245-.154.35.072-4.067 6.852-4.067 6.852s3.536 6.42 5.23 9.148l5.345-9.482-3.495-6.563c5.473 2.79 8.306-5.515 2.56-6.6-1.39-.19-2.923.504-2.923.504l3.022-28.41c2.436 1.65 6.88 4.97 6.88 4.97 1.01 15.647.27 28.69 9.02 51.457l.09 15.84H33.384l-.117-82.706 5.258 3.76c.112.47-.838.157-.326 5.91.46 5.2 2.04 14.218 3.71 28.85zM149.78 27.923c.24.34.222.86.43 1.548 1.215 4.05 5.442 8.92 8.81 10.2 1.18.45 1.64 1.13.958 1.81-.86.86-4.412-1.49-7.033-4.543-2.38-2.772-3.97-5.065-4.32-6.806-.21-1.033-.313-1.696-.16-2.234.436-.605.977-.437 1.315.032zm4.2-.438c.447-.002 1.046.523 1.405 1.477.865 2.293 2.22 4.008 4.342 5.49.562.394.786.984.5 1.328-.106.13-.245.19-.4.235-1.654.462-6.01-4.576-6.356-7.703-.07-.68.17-.824.51-.826zm5.42.063c.88-.005 1.302 1.83.792 2.79-.332.304-1.06-.163-1.71-1.368-.555-1.036-.333-1.418.918-1.423zm-2.947.028c.197-.007.604-.11.81.175.34 1.9 1.77 3.27 2.91 4.37.193.36.282 1.12-.137 1.31-1 .44-4.01-2.98-4.03-4.96-.007-.59.175-.88.447-.89zm-3.82 1.202c1.055 3.462 3.61 6.286 5.9 7.75 1.634 1.042 2.266 1.634 1.507 2.165-.188.132-.378.233-.423.226-3.83-1.46-8.54-7.01-8.698-10.94.83-1.07 1.57.13 1.71.79zm-13.253 15.03c-2.015 0-4.482.46-6.485 1.37-2.788 1.264-3.487 2.104-3.08 2.41.292.214 2.087-.556 2.987-.673 4.854-1.2 8.194-1.496 11.357-.117 2.44 1.066 2.46.576.81-1.2-1.19-1.286-3.317-1.794-5.6-1.79zm17.11 2.66c1.606-.017 3.246.36 3.828 1.107.454 2.424-.756 1.316-1.73.833-1.41-.65-3.024-1.212-4.53-.98-.97.148-.996.1-.447-.21.83-.504 2-.738 2.88-.75zm-19.027.943c-4.592.36-6.182 2.68-9.146 5.08-1.217.928-.94 1.645.544 1.4 1.84-.3 2.57-.23 5.07.626 2.73.93 4.69 1.318 6.18.74 2.84-1.09 2.6-.91-1.46 3.017-2.17 1.74-1.29 1.65.91.14 1.625-1.295 2.74-2.122 3.08-2.832.165-.345.18-1.582.486-1.582 1.03.003.5-1.284-.44-1.83-.614-.44-.476-.897.32-1.74 1.25-1.316.827-1.91-.532-1.09-.24.13-.356-.274-1.185-.774-1.31-.79-2.416-1.16-3.814-1.144zm3.31 1.73c1.11.937.634 1.19-1.788 1.17-2.046-.02-3.788.198-6.22 1-2.76.92-2.93.94-1.307-.44 2.23-1.9 6.76-3.81 9.314-1.73zm14.34-.803c1.114-.024 2.054.134 2.902.6 2.313 1.276 2.827 2.38.253 1.48-1.615-.565-3.797-.486-5.304-.07-1.557.434-1.825.585-1.615-.255.25-1.03 1.9-1.715 3.76-1.755zm-18.187 3.76c.548 2.748 2.632 1.85 2.838.19l.76.005c-.323 2.206-3.326 4.05-4.494-.194.247-.006 1.337.07.896 0zm16.62.047l.566-.02c.372 2.107 2.33 2.796 3.18.16l.684.016c-.523 4.393-5.173 2.252-4.43-.158zm-18.215.206c.38.132.55 1.162.49 1.434-.13.564-1.97-.035-2.36-.586.388-.407 1.29-1.052 1.88-.846zm25.03.467v.77c-.85.204-1.2.68-1.996.525.045-.492-.04-1.167.423-1.74.58-.306 1.268.068 1.58.446zm-18.53.89c-.384.304-.913.338-.913.338-.083-.735-.207-1.563.71-1.57.604.176.56.92.204 1.235zm10.6-1.22c.323.02.702.826.746 1.293-.095.77-1.986.46-1.986-.303 0-.322.79-.99 1.24-.99zm-17.31 29.09c-1.46-.73-12.535-7.457-15.37-19.356l-.565 1.22c1.203 2.85 2.976 7.478 2.976 7.478-.073-.4.454 3.1 1.58 9.04-.596.006-1.26-.164-1.91-.338-1.46-5.44-1.805-9.7-3.03-15.02l-.535 1.483s1.54 9.55 2.587 13.28c-.595-.057-1.695-.303-1.695-.303-.87-4.03-1.546-6.73-2.366-10.77l-.753.976c1.08 3.313 1.504 6.277 2.05 9.452-.745-.11-1.49-.184-2.2-.578 0 0-1.12-5.794-1.267-5.878-.427.43-.6.98-.6.98-.047-.05.967 3.21.894 4.556-.713-.118-1.946-.474-2.816-.766-.454.303-.69.807-1.04 1.26.43 1.843 25.835 5.833 24.31 4.31-.008.16 11.204 4.906 17.46.872 0 0 10.883 8.07 15.134 11.295 0 .364 1.474 2.074 3.006 3.162l4.31 3.318c1.25.973 1.75.27 1.94-1.562.21-2.04 1.695-15.785 2.04-18.715 1.295-9.875 1.29-9.77-.206-9.316-2.294.694-4.358-.208-4.358-2.554 0-1.433.662-2.62 2.19-3.176.434-.15 1-.16 1.65-.15.295.057.845.09.903.1.73-.04-2.828-6.48-2.828-6.48s3.4-6.055 5.032-8.312l4.4 7.972-3.6 7.033c7.016-.526 6.33 8.294-.54 5.34 0 0-.04 2.62-.028 2.43.066-.75.056-1.39.293-1.53 6.655 2.52 8.012-7.184.84-6.737 1.18-2.057 2.495-4.184 3.72-6.45l-5.184-9.453-5.86 9.745 2.95 6.083c-.662-.17-1.195-.064-1.904.01-4.34.89-3.41 7.873 1.552 6.913.567-.11 1.42-.54 1.42-.54l-3.204 28.54s-.317.257-1.6-.67c-1.487-1.07-4.596-3.392-4.794-3.63 1.11-18.245-3.45-37.44-8.66-49.457-.33-.92-.133-19.02-.133-19.02l29.545.077.11 84.057c-1.547-.978-3.217-2.265-4.805-3.385-.48-.385-.775-.842-.57-1.577-.524 1.117-.21 1.597-.21 1.597l6.525 5.21-.258 82.724s-10.536-5.428-17.02-8.047c-2.926-1.198-3.057-.85-3.057-.85.01-.01 2.07 4.64 1.48 5.473 1.395 1.34 3.738 4.144 3.85 6.89 1.25 1.08 1.6 1.214 2.537 2.77l3.914-1.415-.886 4.077c4.16 2.914.154 6.833-.617 6.472 0 0 1.833 3.94 2.252 5.732-.658-.044-3.954-1.83-4.87-2.254-2.39 4.7-6.42.755-6.455.06l-4.474 1.99 1.584-5.09c-2.88-1.752-4.826-4.4-.17-7.253l-1.075-3.97 3.83 1.503s.714-1.15 1.26-1.985c-1.435-6.24-10.856-5.06-13.883-10.67 0 0-.742 7.005-1.504 9.54-.3 6.7-4.993-.08-4.993-7.165 0-1.6 2.012-6.988 2.693-7.25.71-.1 7.435 3.152 11.95-.078 2.057-2.14 5.604-8.154 2.197-17.572-1.127-2.175 2.144-2.45 3.206-1.716 0 0 9.83-5.14 14.265-7.616-7.442-4.09-22.92-14.97-22.91-15.49-2.062 3.28-4.43 6.03-7.752 10.66-5.39 6.35-9.6 12.38-16.44 17.45-9.62 7-11.878 14.05-9.196 22.326 1.087 3.577 3.27 7.205 6.85 8.46 1.82 1.84 9.14 8.767 9.14 8.767-12.214 11.12-20.6 20.265-26.48 30.37 4.964 2.61 16.935 6.39 16.935 6.39-4.446 14.78-2.422 26.516.507 38.298 0 0-34.75.046-52.78-.52-.154.152-2.105.05-2.13-.076-.07-1.317 3.247-4.94 4.24-4.433.5-.492 1.556-.743 1.366-1.347-2.487-.297-6.262 4-6.41 5.78h-1.48c-.304-.266 2.693-7.262 8.7-7.82-.064.252.805-.543.153-.884-7 .83-10.26 8.597-10.054 8.703h-1.09c2.38-7.64 8.58-10.05 12.165-10.385.035-.016 1.164-.41.86-1.078-7.927 1.376-11.88 4.807-13.785 11.46h-1.43c1.034-6.75 7.974-12.66 15.818-12.466.246-.155.546-.34.418-1.106-8.703.98-13.045 3.885-16.62 11.362-3.2-8.305-12.09-12.244-12.198-12.28 0 0-.214-2.323.283-2.227 7.587 2.744 10.48-3.84 10.165-7.668-.177-2.13-.058-3.304-.77-6.373-.635-2.737-1.105-4.58-1.054-5.77.05-1.175.42-1.413 1.287-1.806 1.625-.74 2.644-3.41 2.282-3.736-.837 1.94-3.045 2.276-4.06 3.58-.814 1.075-.457 2.786.99 8.725.88 3.62-.164 1.955-2.22.822l-1.374-.777c.92.947 1.892 1.84 2.83 2.768.84.767.37 1.243-.834.798-1.736-.862-5.08-.5-6.36.59-.5.357-.68.32-.804-.01-.56-9.223.41-14.896 3.466-21.83 1.975-4.71 4.916-8.24 8.84-8.49 3.95-.33 9.634 1.058 14.795 4.56 6.06 4.12 11.97 10.38 12.596 18.06.023.09.465-.656.666-1.05.276-.913-.736-3.655-2.315-6.834-.29-2.39-1.115-6.584-1.76-9.42.49-.224 1.537-.098 1.83.26 1.11 4.688 1.9 8.34 2.853 14.623.013.61.8-.91.803-1.315-.136-.937-2.754-13.23-2.7-12.95.015-.418 2.483.132 2.144.52 0 0 1.876 10.31 2.01 9.992l.634-.877s-1.79-7.53-1.566-8.983c.154-.22 1.54.23 1.98.468.554.74.908 3.427 1.14 5.26.64.488.766-.92.718-1.293-.46-.73-.946-3.45-.58-3.59.29-.11 1.88.52 2.184.794.36.32 1.745-1.6 1.393-1.933-7.507-2.874-16.976-4.552-24.1-4.665-1.657.006-2.314-.228-4.853-1.145-6.466-2.334-11.813-.01-12.597.73-7.898-5.486-16.71-13.15-23.73-18.04-.33-.217-1.117-.347-1.203-.347-1.113 8.51-1.89 18.36-2.84 26.214-.386 3.11-.432 3.352-.29 3.44.124.077.368-.048.464-.097 2.31-.85 4.396-.297 5.5 1.788.557 2.984-2.052 4.947-4.803 3.53-1.023-.525-1.17-.422-.703.573.804 1.79 3.125 6.504 3.125 6.504.002 0-3.14 6.4-4.725 8.14-1.545-2.497-3.52-5.022-4.375-7.75 1.217-2.38 3.51-5.44 4.238-7.785-.103-.076-.73-.01-1.163.215-4.014 1.9-4.658-1.677-4.605-2.96.11-2.615 2.384-3.17 5.69-1.953-3.574-23.73-4.336-37.255-3.424-35.79 0 0-4.315-3.086-6.46-5.18L32.5 27.58l51.625.076c5.262 14.107 3.813 31.074.668 39.91 5.587 1.02 11.23 2.34 17.607 6-10.773 15.792-27.683 32.86-46 43.787-1.04.468-4.45-1.66-4.85-3.76-.092-.488.18-1.45.728-1.433 1.345.437 2.65 1.037 3.96 1.572 0 0-1.83-4.593-.944-5.29.573-.378 1.044-.693 1.412-1.08 1.314-1.7 1.21-3.627-.183-5.107-.56-.588-1.216-.994-1.543-1.143 0 0 1.29-3.582 1.937-5.27l-5.08 1.68c-1.644-2.28-4.67-4.056-6.906-.66-.425.906-.34.767-3.483-.625-1.787-.79-2.886-1.193-2.886-1.193.67 1.99 1.545 3.86 2.31 6.165-3.5 2.23-2.705 5.995.243 7.12l-1.552 5.083s3.31-1.233 5.107-1.712c0 0 1.575 1.58 2.04 3.085.8 2.574 2.62 4.442 3.77 5.506-1.915 1.404-2.86 1.877-5.02 2.913l7.446 3.007c-.462-1.574-1.448-2.742-1.548-4.733-.088-1.703-.185-1.734-1.287-2.89-1.804-1.553-2.075-3.634-3.09-5.333-.704-.427-1.27-1.282-1.794-2.25-1.133.11-3.692 1.38-4.177.926-.595-.634 1.03-3.882.85-4.206-1.307-.113-4.968-2.965-.608-6.143l-1.39-5.17s3.32 1.454 4.91 2.266c1.104-5.163 6.142-2.686 6.957-.46 0 0 3.993-1.313 3.746-.247-.113.953-.76 3.34-.76 3.34 3.59 3.18 2.847 4.74-.07 6.826-.045 1.687.662 4.307.662 4.307s-2.033-.902-3.37-1.28c-.537.535-1.145 1.503-1.044 2 .91 4.02 5.867 5.14 13.21 9.246.25-2.597 2.044-6.146 2.247-9.26.127-2.274.205-2.31 1.804-1.584 4.208 3.04 2.924 11.39 1.39 14.814-.91 1.94-1.057 1.89-2.822 1.33-2.444-.78-6.767-.465-9.145.34-3.29 1.35-4.84 8.683-4.877 10.91-.06 2.12.106 4.22 1.217 6.835.46 1.673-.386 2.963-1.895 2.515-.34-.1-1.144-.41-1.144-.41l-14.193 7.35 2.674 1.572s-1.972-1.18-.75-1.817l12.17-6.35c2.27.883 1.964 1.064 3.435-.468.88-.906 1.31-.924 2.49-.81 7.174.687 10.353-.357 11.593-3.364.186-.45.115-.437.848-.807 1.36-.525 1.997-1.48 2.066-2.68.046-.784.387-.892.985-1.44 1.118-1.026 1.344-2.31.64-3.63-.33-.623-.583-.818-.446-1.463.23-1.08-.17-2.204-1.206-3.394-1.194-1.37-1.186-1.14 1.063-3.237 4.42-4.2 8.318-7.417 12.616-11.218 2.94-2.6 2.623-2.413 3.768-1.223 4.21 4.38 5.863 11.21 3.966 17.213-.09.28-.13.25.09 0 1.19-1.35 1.224-8.147.206-11.16-1.24-3.704-2.445-5.632-6.55-9.26-2.563-2.313-9.537-8.992-9.537-8.992 10.143-8.8 21.072-19.735 27.2-29.79-3.145-3.372-17.72-6.482-17.72-6.482 1.81-3.763 5.4-20.675-.745-39.427l52.376.604 1.865.126s.28-.11.43-.147c.502-.13.752.22.63.782-.385 1.432-2.485 4.783-3.967 4.506-.66-.258-.476 1.012-.77 1.54 2.334-.303 5.073-3.263 5.76-6.196.375-.618.62-.72.995-.6.43.135.322.546-.145 1.964-1.463 3.55-4.43 6.846-7.877 6.516l-.446 1.21c4.652-.075 8.25-4.437 9.31-7.7.744-1.94.773-2.2 1.52-2.014.615.572.234 1.392.024 2.067-2.34 7.47-8.76 9.468-11.96 9.14-.385-.045-.452.316-.336.93 6.87.455 12.343-5.465 13.117-10.544.38-1.41 1.03-1.893 1.41-1.25.21.57.14 1.15.035 1.69-1.88 8.02-10.426 12.573-15.65 11.273-.24-.226-.635.88-.066 1.28 10.54-.4 13.8-5.84 16.2-10.646 2.87 4.326 5.214 8.79 12.088 11.41 0 0 .683 1.51.142 1.85-.286.177-.72.094-1.352-.008-8.38-1.353-11.15 6.478-7.582 18.177.974 3.202.54 2.71-1.55 4.716-.995.953-1.47 2.65-1.208 2.686.358-.2.476-.75 1.347-1.472.38-.313 1.156-.613 1.73-1.01 1.55-.897 1.536-1.512.98-3.637-.414-1.58-1.468-6.385-1.47-6.873-.003-.92.215-.823 1.367.002 1.607 1.19 2.52 1.105.573-.42-.753-.594-1.243-1.055-1.47-1.387-.31-.45-.117-.746.51-.55 2.887.907 5.366.84 8.17-.864.32 7.718-.743 19.427-7.21 27.8-4.96 5.57-14.456 1.354-17.97-.405zm7.597-17.732c-.192.01-.884.154-1.312.4-1.903 1.09-1.45 4.96.63 5.473.836.206 1.595.32 3-.35.836-.4 2.008-.71 2.337-.575.69.288.91-.322 1.056-1.01.33-1.537-2.193-1.574-4.2.016-2.533 2.005-4.474-.955-2.088-3.184.794-.513.77-.78.58-.77zm-19.673 8.28l2.128 2.46 1.338 5.857c-.81.14-1.793-.31-1.793-.31-.663-2.65-1.31-5.304-1.67-8.006zm28.97 1.474c-.023 0-.048.01-.073.02-.09.04-.485.215-1.033.28-.315.03-.793-.19-1.134-.17-.93.055-1.8.33-2.035.425-.287.12-.57.168-.813.024-.696-.41-2.72-.294-3.334.07-.73.31-1.547.31-2.144 0-.258-.132-.522-.47-.568-.422-.095.09-.484 1.75-.6 2.39.002.227-.157.6-.063.64.12.05.5-.3.97-.54.968-.49 2.048-.453 3.945.01 2.34.575 3.25.41 4.633-.297 1.1-.56 1.77-.696 2.5-.495.18.05.66.3.727.236.13-.125-.226-.82-.53-1.505-.22-.494-.3-.69-.45-.67zm-25.267 2.64c2.057 1.946 1.902 1.78 3.2 2.743l-.062 1.877s-1.59.037-2.37-.206c-.246-.73-1.316-4.397-.767-4.416zm16.917 1.26c.14.095.34.196.62.29 3.273 1.23-.15.92-.478 2.09 0 .104.15.12.31.057 1.127-.445 3.87-.73 5.12-.49 1.62.548 1.72.17.164-.643-1.14-.45.242-.755.71-1.148.964-.624.3-.88-.93-.29-1.233.59-3.426.58-4.425.02-.444-.223-.874-.43-1.078-.445-.42-.02-.197.42-.012.55zm-12.892 2.1l1.913 1.497-1.96-.19zm-43.4 37.64c-.39 0-.705.314-.705.7 0 .387.315.7.702.7.385 0 .7-.32.7-.704 0-.387-.315-.702-.7-.702zm2.555.707l-8.79 4.173 2.324.778-.02 2.405 2.14-.683.906 2.243zm.39 1.965c-.387 0-.703.315-.703.702 0 .387.32.702.707.702.387 0 .7-.315.7-.702 0-.387-.315-.702-.702-.702zm-11.143 4.27c-.383 0-.7.31-.7.697 0 .383.318.7.705.7.386 0 .7-.318.7-.705 0-.387-.315-.697-.702-.697zm2.7 1.306l-9.86 4.53 2.923.89-.77 3.01 2.38-1 1.33 2.02zm.296 2.156c-.387 0-.702.32-.702.706 0 .39.316.7.703.7.387 0 .697-.31.697-.7 0-.385-.31-.7-.696-.7zm-19.575.455c3.71-.005 7.87 1.407 9.29 4.583.38 1.588-1.183 2.534-4.515 1.62-5.51-1.51-6.537-1.68-5.622-.744.12.12.365.423 1.19.704 2.075.708 6.09 1.526 7.175 1.414 1.48-.196 2.505.493 2.136 1.73-.42 1.4-2.34 1.972-5.23 1.565-2.995-.42-4.64-.766-5.638-1.067-1.278-.386-1.32-.353-.717.543.313.47.344.84.81.93 1.975-.11 4.08.267 5.894.44 3.256.29 3.766 1.215 1.374 2.625-1.134.67-4.526.487-6.45-.207-1.38-.496-4.54-1.205-3.32-.244.29.23.19.798.7.977 1.67.23 6.393.56 7.13 1.23.477.43-.594 1.52-2.8 2.09-3.317.63-8.28.367-9.59-.53-2.426-4.94-1.12-13.03 2.68-16.19 1.215-.95 3.28-1.462 5.5-1.465zm21.753 2.577c-.386 0-.696.315-.696.7 0 .39.31.7.697.7.387 0 .702-.31.702-.7 0-.385-.315-.7-.702-.7zm2.93.75l-10.182 5.07 2.58.767-.61 2.963 2.385-.98 1.448 1.993zm.08 2.482c-.386 0-.7.313-.7.7 0 .39.315.703.702.703.387 0 .702-.315.702-.702 0-.385-.315-.7-.702-.7zm5.925 5.98c-4.517 4.397-9.607 7.88-14.26 12.15l1.01-.04 2.534-2.286 71.36-.224-1.663 2.436.7.3s2.14-3.163 1.997-3.31c-15.68.045-27.78.01-44.98.128-3.132-3.105-6.444-6.014-9.72-8.964zm-21.69 2.82c-.387 0-.702.315-.702.7 0 .39.316.704.703.704.387 0 .697-.315.697-.702 0-.387-.31-.702-.696-.702zm93.16.536c6.166 4.574 13.47 10.185 19.53 13.515 2.428 1.055 2.193 1.414-.274 2.58-2.425 1.507-6.46 3.448-9.825 5.145-1.46.55-2.1-.168-3.13.023-.75.19-.96.33-1.408.916-.73.968-.53.934-4.43.758-3.93-.178-5.552-.09-6.4.34-.81.414-2.205 1.83-2.205 2.418 0 .567-.445 1.29-1.255 1.535-.943.23-2.032.977-1.985 2.136-.253.875-.786 1.26-1.26 1.74-1.12 1.13-1.01 2.02-.685 3.07.15.47.377.36.26 1.753-.266 3.185-.485 2.916 2.925 5.275l-17.423 15.18c-.404.32-.523.287-.89.035-2.125-1.58-3.603-4.186-4.455-6.794-2.943-8.11.65-14.77 5.426-18.844 1.654-1.41 3.878-3.094 4.496-3.52 8.994-7.67 16.816-18.53 22.982-27.26zm-90.56.593l-9.96 4.702 3.208.54-.612 2.77 2.325-.88 1.23 2.336zm.61 2.2c-.388 0-.703.315-.703.702 0 .388.316.698.703.698.387 0 .698-.31.698-.695 0-.387-.31-.702-.696-.702zm91.26 3.083l-1.133-2.675s-3.145 7.745-3.81 10.37c2.666-1.373 10.473-5.35 10.473-5.35l-3.34-.62.377-3.032zm-113.77.476c-.384 0-.7.314-.7.7 0 .388.316.704.7.704.39 0 .705-.316.705-.703 0-.386-.315-.7-.702-.7zm3.05.64s-7.41 3.48-10.753 4.98l3.123.65-.55 3.038 2.82-1.1 1.135 3zm.4 2.293c-.388 0-.703.314-.703.7 0 .387.315.697.702.697.382 0 .7-.31.7-.693 0-.388-.32-.703-.706-.703zm104.87.504c-.387 0-.702.31-.702.697 0 .387.316.7.703.7.384 0 .695-.314.695-.7 0-.388-.31-.698-.698-.698zm12.117.634l-3.527 9.803 9.536-4.802-2.59-.706.013-2.425-2.13.62zm-112.736 2.35c-.382 0-.7.317-.7.704 0 .387.318.702.7.702.39 0 .707-.315.707-.702 0-.387-.314-.702-.7-.702zm104.34.18c-.385 0-.695.315-.695.7 0 .39.31.7.697.7.388 0 .703-.31.703-.698 0-.383-.315-.7-.702-.7zm-101.41.718l-10.11 4.93 3.14.73-.345 3.157 2.55-1.45 1.386 2.88zm.63 2.08c-.385 0-.66.315-.66.702 0 .387.314.698.7.698.387 0 .697-.31.697-.697 0-.386-.344-.7-.73-.7zm105.116.62c-.39 0-.706.315-.706.702 0 .387.314.697.7.697.386 0 .7-.31.7-.693 0-.388-.314-.703-.7-.703zm-13.93 3.224l-.94-2.64-3.74 9.678 10.055-4.606-3.19-.75.055-2.527zm-10.22-2.083c-.116-.006-.217.026-.217.1 0 .225-2.57 2.736-2.57 2.736l-29.685.27c.06.004 2.47.67 2.47.67 3.896 3.112 9.998 8.63 9.998 8.63l7.37-.293c4.08-4.008 10.21-7.054 12.946-12.003-.068-.065-.2-.11-.314-.114zm27.823 1.995c-.387 0-.703.314-.703.7 0 .388.317.698.703.698.386 0 .697-.31.697-.698 0-.387-.31-.702-.697-.702zm-22.914 3.377c-.387 0-.698.31-.698.698 0 .388.31.703.697.703.39 0 .703-.315.703-.702 0-.385-.315-.696-.702-.696zm15.07 1.014c2.13-.01 4.176.062 4.71.467 3.286 2.77 1.73 15.71-2.418 17.346-4.55 1.023-7.696 1.213-11.644-1.39-1.12-.547-3.34-2.197-2.906-3.56.59-1.673 2.216-1.55 6.88-.1 1.702.53 2.64.423 3.073.092.406-.31-.125-.656-.995-.66-.35 0-1.857-.372-3.115-.76-1.776-.545-2.286-.705-3.434-.773-1.93-.115-2.49-.19-2.49-1.37 0-2.206 3.064-2.497 8.706-1.203.677.16 1.9.33 2.2.32.218.085-.43-.73-.54-1.215-.202-.172-.567-.255-1.53-.287-3.63-.356-6.64-.602-6.705-1.077-.32-2.335 4.375-2.97 9.24-1.098 1.25.48 1.277.28 1.267-.08-.02-.674-2.11-1.848-5.196-1.816-3.002.03-2.583-1.495-.116-2.64.846-.39 2.89-.184 5.016-.194zm-11.607 2.5c-.388 0-.698.316-.698.703 0 .387.31.702.697.702.385 0 .7-.315.7-.702 0-.385-.316-.7-.703-.7zm-10.816 4.844l-.636-2.614-4.082 10.17 10.316-5.25-3.4-.64.298-2.14zm-5.257 4.087c-.387 0-.702.316-.702.703 0 .388.317.703.704.703.385 0 .696-.315.696-.702 0-.384-.31-.7-.696-.7zm10.276 2.887l-.87-2.472-3.467 8.857 8.8-3.93-2.6-.71.37-2.68zm-7.007.026c-.387 0-.7.317-.7.703 0 .387.314.703.7.703.388 0 .698-.317.698-.704 0-.386-.31-.702-.695-.702zm2.253 3.385c-.388 0-.703.31-.703.697 0 .387.315.702.702.702.384 0 .695-.315.695-.702 0-.387-.31-.697-.698-.697zm-4.424 2.074l-2.97 8.39 8.27-4.005-2.417-.797s.133-1.89-.095-1.8c-.144.054-1.7.49-1.7.49zm7.36 1.002c-.386 0-.7.31-.7.697 0 .39.314.703.7.703.39 0 .704-.315.704-.702 0-.385-.314-.695-.7-.695zm-10.963 4.036c-.384 0-.7.31-.7.7 0 .386.316.7.7.7.39 0 .705-.314.705-.7 0-.387-.318-.7-.705-.7zm3.164 3.243c-.385 0-.7.31-.7.698 0 .39.317.704.704.704.39 0 .705-.315.705-.702 0-.384-.317-.694-.704-.694zm-43.63 38.64c-.38.057-1.362-.843-1.554-1.266.562-.142 1.14-.037 1.455.226.26.248.45.88.1 1.04zm2.995-.606c-.133 1.025.502 2.878.38 3.318-.324.16-1.97-1.605-2.374-2.034-.08-.588.01-1.33.04-1.667.57-.1 1.57-.06 1.96.38zm2.963.51c.35 2.27 1.35 5.923 1.194 7.154-.148-.12-1.417-1.37-2.353-2.697-.33-.79-.84-3.56-.8-4.88.63-.08 1.48.02 1.954.43zm-19.848-.256c-1.01.514-2.162.886-3.606.88-1.158-.005-3.152-.606-2.95-.458.527.943 1.904.45 1.93 1.064-.342.61-1.257.55-1.712 1.134-.096.156.135.287.78.22 1.955-.888 4.51-.87 6.85-.104.49.103.168-.368 0-.493-.303-.22-.805-.45-1.227-.5-2.043-.363-1.146-.57.22-1.18 1.004-.366 1.256-1.27-.285-.557zm4.426 2.884c-.27.02-.952.367-1.697.668-1.26.51-2.42.39-4.12-.08-1.47-.41-2.007-.297-3.47.44-.97.623-2.036.797-2.806.362-.998-.567-.99-.373-.497 1.03.123.35-.12 1.408.314 1.653.33.185.71-.434.967-.52.257-.086 1.86.633 2.757-.16 1.596-.578 2.075.36 3.182.27 1.794-.633 2.92-1.293 4.46-.07.09-.458.45-2.958 1.024-3.55-.014-.035-.057-.05-.12-.044zm-3.27 7.2c-1.294.014-1.993.808-3.66.656-1.33-.092-1.786 1.088-1.223 1.948.397.605.93.717 2.743-.115.747-.34 1.784-1.09 2.39-1.03 1.775.18 2.204 1.89.726 3.34-.72.43-.725.88-.506.89.584.028 1.767-.67 2.036-1.49.735-2.22-.587-4.24-2.507-4.2zm5.797 10.264c-1.682.353-4.105 2.283-4.93 3.533-.77 1.21-1.508 2.59-.97 3.27.442.555 1.06 1.1 1.113 1.4.046.263-.314.525-.652.903-1.477 1.65-1.125 1.74.945.67 1.05-.545 1.54-.763 2.22-.584 1.994.52 4.48.15 6.17-.47.76-.283 1.51-.663 1.565-.47-3.08 3.394-6.926 2.54-8.3 2.333-.24-.063-.42-.048-.42.033 0 .164.396.522 1.244.9 1.416.627 4.82-.04 6.95-1.593 4.21-2.753 6.53-5.383 3.21-4.284-1.52.505-2.09.417-3.937-.417-2.77-1.25-4.89-1.62-7.185-.82-2.906 1.015-.678-1.38 2.59-3.456.71-.45.797-.964.383-.957zM71.24 261.02l-.97.016c-.69-2.333-2.366-2.328-3.09.015l-.807-.05c.793-2.91 3.788-3.51 4.87.028zm17.235.194l-.727.032c-.442-1.413-1.998-2.657-3.094-.34l-.505-.104c.9-3.7 4.47-1.642 4.33.41zm-4.853-2.127c.453 0 .568.515.052 1.35-.362.59-.793.537-1.226.093-.39-.39-.367-.46.058-.847.452-.413.844-.597 1.116-.597zm5.36.015c.198-.006.573.156.993.298 1.105.373 1.356.682.903 1.135-.445.444-1.29.58-1.678.326-.018-.55-.57-.98-.588-1.54.002-.15.174-.21.37-.212zm-17.305.02c.763-.036 1.79.417 1.715.86-.082.483-.837.8-1.46.85-.417.056-.4-.113-.51-.41-.097-.264-.223-.6-.294-.865-.17-.507.155-.42.547-.435zm-5.24.167s-.43 1.27-.62 1.71c-1.605-.09-1.45-.798-.696-1.308.41-.31.82-.315 1.32-.41zm-1.245 3.03c.29.002.65.252 1.154.42 1.42.453 3.777.4 5.616-.02.88-.207 1.298-.48 1.49-.34.346.25-.01 1.12-1.283 1.677-1.66.61-4.19.943-6.1-.034-1.64-.833-1.82-1.722-.88-1.706zm-.438 1.824c1.5.99 3.003 1.303 4.86 1.13 2.78-.102 3.276-.445.934.796-2.164 1.15-5.502.937-6.145-.306-.368-.713-.13-1.56.35-1.62zm13.473 1.662c-.01 0-.016 0-.023.004.223 1.5 2.743 2.876 3.952 3.2 2.563 1.138 6.64.01 9.71-1.313 2.243-.966 3.05-2.425.38-1.595-4.295 1.335-9.69 1.436-12.39.4-.88-.416-1.48-.7-1.63-.693zm-14.14 5.62c5.38 1.21 11.878 9.503 11.854 13.13h-1.73c-2.64-9.224-9.51-11.22-10.18-11.77-.31-1.133.08-1.39.07-1.36zm-.083 2.334c6.39 2.8 8.662 7.794 9.62 10.796h-1.87c-1.39-4.13-3.893-7.078-7.765-8.91-.27-.577.01-1.886.01-1.886zM64 276.6c3.274.967 6.16 5.277 6.982 7.97l-1.635-.01c-1.16-3.004-2.8-4.93-5.41-6.04-.108-.566-.086-1.206.063-1.92zm-.053 2.93c1.537.31 4.14 2.7 4.515 5.04h-1.5c-.53-1.578-2.165-3.02-3.003-3.608-.01-.286-.02-1.432-.02-1.432zm.158 2.498c.165-.103 2.46 1.964 2.073 2.54H64.11c-.023-.64-.038-2.546-.005-2.54z" fill="#131f67"/><path d="M122.66 27.587c-3.897 7.548-23.892 41.542-24.095 42.725l5.12 2.265 24.86-44.817s-5.15-.167-5.885-.173zm58.7 28.39l-2.324 3.265 1.976 3.583 2.006-3.544zM90.02 90.085s-7.17 7.123-9.97 10.446c6.022 6.01 17.535 13.56 17.62 25.17l7.937.03 25.692 22.98s23.26.17 23.69.07c.47-.11 8.734-11.94 8.734-11.94l14.743 10.75s-.707-11.574-1.264-18.67c-.183-4.742-.34-7.66 3.13-9.76-4.767-2.27-4.465-6.446-.96-9.513-1.157-1.6-2.885-1.893-3.145-7.56-.73-.782-1.42-1.24-2.33-1.904l-.954.85c-3.06 2.748-5.142 5.55-5.485 7.373-.654 3.47 2.87 5.85 4.91 3.313.574-.715 1.086-.514 1.086.42 0 1.89-2.38 2.96-4.396 1.975-.47-.23-.885-.382-.927-.34-.076.072 1.995 5.146 2.555 6.265.93 1.86 1.42 3.73 1.49 5.69.077 2.086.035 2.354-.94 5.964-.92 3.4-.488 5.423 1.16 5.423.925 0 .896.89-.04 1.216-1.99.69-3.224-.774-3.294-3.906-.042-1.9-.075-1.95-1.052-1.49-3.404 1.6-7.1-1.26-5.498-4.25.337-.63.734-.43.943.467.39 1.685 1.274 2.427 2.867 2.42 3.67-.013 5.21-5.2 3.09-10.424-.424-1.05-.64-.99-1.197.336-.873 2.08-2.34 2.694-3.55 1.48-.406-.402-.6-1.06-.327-1.093.064-.007.468-.025.895-.038 2.14-.07 2.877-2.145 1.875-5.267-.882-2.743-1.017-3.24-1.28-4.727-.405-2.3-.122-4.042 1.015-6.27.202-.395 1.456-1.8 3.016-3.372 1.595-1.607 2.965-2.84 2.965-2.84s-.805-.695-1.897-1.516c-2.3-1.73-2.71-2.025-2.71-2.025s-10.932 30.02-10.157 41.716c-1.386 15.41-12.716 11.15-13.55.476zm-.487 4.5c3.737-.06 6.2 4.88 7.608 15.133.47 3.398 2.54 8.157 4.04 9.28 3.79 2.84 9.73.652 9.73-3.586.01-5.276-7.4-6.058-7.51-.794-.026 1.24-.663 1.306-1.274.125-.544-1.053-.054-3.02 1.005-4.015.68-.637.626-.757-.67-1.47-4.505-2.49-6.423-6.2-4.014-7.777 1.054-.69 2.494.19 1.83 1.12-1.03 1.45-1.042 1.68-.18 2.886.98 1.37 2.143 2.053 4.9 2.866 2.315.683 2.696.81 3.765 1.298 3.13 1.428 4.56 4.57 3.466 7.618-.256.72-.507 1.43-.556 1.58-.116.334.07.336 2.27.043 3.507-.467 7.4.785 9.32 2.996 1.03 1.188 1.86 3.858 1.885 6.087.007.43.14 1.4.3 2.157.16.755.375 2.033.47 2.837.92 7.627 7.27 11.528 10.013 6.15 1.726-3.385-2.267-6.77-4.3-3.645-.714 1.096-1.45.59-1.04-.714.8-2.536 3.966-2.967 6.12-.833 1.167 1.154 1.726 3.772 1.16 5.433-.3.87-.266.927.38.7 1.45-.503 3.95-.02 4.85.945 2.12 2.267 1.694 4.987-.91 5.868-1.187.4-2.53-.014-2.97-1.402-.192-.99.49-1.275 1.016-.423.986 1.595 3.133.31 2.626-1.573-.575-2.14-2.405-2.596-5.784-1.434-5.37 1.85-7.105 1.695-9.676-.86-1.834-1.823-2.524-3.4-3.02-6.876-.544-3.84-.596-3.94-1.55-3.13-4.542 3.866-10.545-1.978-6.695-5.82 1.19-1.19 2.066-.153.994 1.18-1.566 1.942.473 4.65 3.03 4.02 4.65-1.15 3.7-7.956-1.334-9.546-1.535-.485-5.75-.284-8.993.428-9.053 1.987-13.053-1.877-14.916-14.397-.217-1.463-.47-2.544-1.33-5.694-1.02-3.736-4.49-5.765-6.38-3.73-1.51 1.62-.718 3.8 1.382 3.807 2.092.004 1.45 1.44-.73 1.634-3.79.34-4.45-5.97-.816-7.774.887-.44 1.715-.67 2.49-.682zm-49.44 2.328l1.176 4.487 4.68 1.323-1.49-4.27zm12.01 1.34l-1.257 4.06 3.55-.87 1.156-4.235zM90.61 104.9c.744 0 1.347.603 1.347 1.347 0 .743-.603 1.346-1.347 1.346-.743 0-1.346-.603-1.346-1.346 0-.744.603-1.347 1.346-1.347zm-45.126 2.423l-3.69 1.29-.712 3.22 3.863-.995zm8.806 1.017l-3.015-.52.848 3.324 3.194 1.305zm130.91-.254l-1.94 1.51c5.654 4.912-.448 9.647-.638 9.326 4.087 2.705 3.36 6.97 2.83 10.877-.97 6.96-1.345 13.56-2.4 20.7 0 0 4.923 3.39 8.198 4.71.062 0 .02-41.9.02-41.9zm-69.758 6.31c.744 0 1.347.604 1.347 1.348 0 .743-.61 1.346-1.35 1.346-.75 0-1.35-.603-1.35-1.346 0-.744.6-1.347 1.343-1.347zm-82.652 3.447l.17 39.108 8.094-14.47-5.57-6.42 4.815-5.14zm78.824 5.96c.744 0 1.347.603 1.347 1.346 0 .74-.6 1.34-1.34 1.34s-1.343-.606-1.343-1.35.603-1.347 1.346-1.347zm18.38 4c.743 0 1.345.603 1.345 1.347s-.61 1.346-1.35 1.346-1.35-.602-1.35-1.346c0-.744.6-1.346 1.344-1.346zm52.643 43.566l5.947 6.1-4.645 5.78 7.31 12.41-.12-38.4zM32.715 158.52l.283 42.062 6.358 4.638 1.613-1.522c-4.11-4.38-1.66-7.64 1.44-9.527-5.46-1.27-3.8-8.502-3.48-11.86-.137-6.223 2.15-13.33 1.442-19.32zm36.62 5.846l-9.112 12.697s-10.013-7.58-15.063-11.003c.54 5.48 1.033 12.47 1.703 18.363 1.638 8.605-2.625 8.754-2.665 9.578 6.776 5.15 1.09 9.95.07 9.71 3.608 1.97 3.31 7.94 3.31 7.94l1.712.97s.557-.34.793-.466c1.83-.985 4.814-4.494 5.497-6.81 1.158-3.925-2.25-7.186-4.395-4.202-1.054 1.467-1.897.487-1.034-1.2.79-1.54 2.85-2.314 4.22-1.58.797.424.62-.68-.61-3.77-.41-1.038-.75-2.17-1.33-4.464-.56-2.22-.34-4.893.63-7.615 1.406-3.924.908-6.386-1.34-6.6-1.2-.116-1.33-.49-.35-1.045 2.18-1.235 4.3.524 4.21 3.506-.05 1.614-.03 1.64.82 1.3 4.308-1.73 7.71 2.74 4.7 6.17-.92 1.047-1.5.38-.894-1.025.936-2.177.045-3.727-2.144-3.74-3.18-.027-4.937 4.36-3.686 9.186.39 1.506.45 1.525 1.505.52.936-.893 1.636-1.18 2.36-.962 1.504.45 1.9 2.05.46 1.852-2.48-.34-3.13 2.252-1.73 6.866 1.86 6.12-.02 11.106-5.52 14.654-.28.18-.72.524-.72.524 2.12 1.89 3.477 2.963 6.28 4.67l10-40.426s-.166-2.296-.412-3.378c-.01-10.85 10.115-11.89 13.283-2.038.306.944 1.916 3.36 1.916 3.36l52.702 46.77s9.84-9.51 9.705-9.76c-7.476-7.534-17.57-12.86-17.94-24.815-1.79-.055-7.78.06-7.78.06L92.86 164.65c-8.044.05-15.177-.524-23.524-.278zm14.36.88c1.408-.043 2.828.69 2.828 1.862 0 1.013-.678 1.245-1.24.423-.786-1.143-1.698-1.24-2.626-.26-2.572 2.704 1.425 5.176 6.02 3.72 2.815-.89 4.178-1.13 5.208-.922 4.342.87 6.44 3.8 6.81 9.507.187 2.9.182 2.89 1.437 1.74 3.054-2.798 7.468-1.24 8.155 2.88.295 1.77-1.61 3.997-3.42 3.997-.708 0-.596-.74.17-1.107 1.84-.88 1.913-3.78.125-4.917-2.374-1.506-5.502.842-5.463 4.1.04 3.92 2.97 5.724 8.75 5.392.84-.05 2.97-.15 4.71-.22 2.76-.12 5.726-.64 8.54 1.484 2.945 2.345 4.9 7 5.736 13.73 1.317 8.28 2.335 10.5 5.116 10.7 1.65.12 3.05-1.286 3.05-2.92 0-1.15-1.524-2.164-2.68-1.783-1.395.46-1.677-1.05-.3-1.624 1.9-.793 4.226.74 4.744 3.13.3 1.397-1.27 4.073-2.922 4.74-4.304 1.74-7.366-1.816-8.375-9.777-.618-3.65-.958-6.114-2.096-9.235-2.09-5.743-5.525-8.113-9.264-6.395-4.232 1.945-3.39 8.284 1.094 8.237 2.463.198 2.98-1.612 3.03-3.55.06-1.43 1.68-.09 1.817.896.136 1.194-.934 2.67-1.88 3.37-1.526 1.02-.983.958.58 1.37 4.2.773 7.32 6.33 4.81 8.215-1.308.794-2.69-.377-1.79-1.527 1.44-1.826-.995-4.713-5.424-5.684-5.8-1.27-8.11-5.59-6.02-10.026.69-1.468.75-1.434-2.077-1.274-6.226.35-8.437-.51-10.526-4.116-.633-1.09-.91-2.545-1.046-5.44-.24-5.18-.71-8.386-1.365-9.29-3.234-4.47-9.96-3.132-9.12 1.814.443 2.597 3.127 3.43 4.96 1.54 1.383-1.43 2.03-.102.677 1.393-3.25 3.596-8.91-.604-7.23-5.368.388-1.09.44-1.06-1.65-1.12-4.636-.133-6.844-4.103-3.853-6.93.525-.494 1.254-.73 1.99-.754zM94.89 182.29c.744 0 1.347.604 1.347 1.347 0 .744-.603 1.347-1.347 1.347-.743 0-1.346-.603-1.346-1.347 0-.74.603-1.343 1.346-1.343zm18.653 4.78c.743 0 1.346.603 1.346 1.347s-.61 1.346-1.35 1.346c-.75 0-1.35-.602-1.35-1.346 0-.74.6-1.343 1.344-1.343zm-4.006 8.786c.744 0 1.347.6 1.347 1.344 0 .744-.603 1.347-1.347 1.347-.743 0-1.346-.603-1.346-1.347 0-.743.61-1.346 1.35-1.346zm59.276 5.234l.854 3.983 3.09.812-.483-3.413zm10.81 1.38l-.067 2.36 2.75.324.972-4.07zm-46.15 3.564c.745 0 1.348.602 1.348 1.345s-.6 1.342-1.34 1.342-1.343-.603-1.343-1.347c0-.743.603-1.346 1.346-1.346zm39.478 5.484l-3.23.896-1.55 4.49 4.14-1.5zm6.33.404l.396 3.324 3.98 1.8-1.345-4.74zm-58.676 28.34L95.88 284.95l6.754-.094 23.326-42.13zM42.87 251.08l-2.183 2.94 2.072 3.41 2.38-3.426z" fill="#d40000"/><path d="M15.998 11.804c-3.044.014-6.1 2.063-6.958 6.05-.192.89-.267 2.43-.332 6.736-.096 6.383-.16 5.867-.16 5.867l-2.735-.068.145 3.55 2.918.02c-.014.015-.063.21.03 2.215.23 5.004 1.01 6.782 3.846 8.126 1.918.91 5.463.905 7.07-.355.97-.615 1.068-.61 2.22.1 2.453 1.517 4.472.695 4.472.695l-.067-3.634c-3.864-.06-4.378-.976-3.366-3.488.08-.176.08-.504.12-.933.285-4.047.17-17.69-.28-19.316-1.01-3.66-4.06-5.584-6.92-5.57zm-.332 3.578c1.39.007 2.81.947 3.453 2.697.68 1.85.67 1.69.87 13.09.09 5.61-.14 5.59-.14 5.59-2.16-2.86-4.88-4.96-7.87-5.95 0 0 .053.26 0-5.27-.06-5.716.01-6.94.86-8.436.674-1.18 1.736-1.737 2.82-1.73zM84.862 26.47c4.55 13.795 4.973 27.392 1.024 40.455 2.25.115 12.066 2.632 17.47 5.966-1 2.58-16.32 21.41-26.717 29.91 2.95 2.928 6.2 5.855 9.62 9.08 5.17 4.907 6.994 8.285 7.34 14.653-.05 3.075-1.15 6.87-3.11 9.555-1.48 2.03-3.05 3.59-6.203 5.68-2.908 1.926-7.158 6.07-12.503 12.18-2.038 2.33-5.477 6.57-8.324 10.618-1.08 1.47-4.25 6.06-4.25 6.06-10.58-8.64-21.915-15.3-22.205-15.25 0 0 11.433-6.093 13.84-7.335 1.846 1.187 4.355.173 3.15-2.436-2.315-5.937-.7-12.05 2.142-16.315.68-1.03 2.32-1.63 4.97-1.81 1.152-.077 2.37-.04 3.587-.055.44 0 1.626.17 2.276.525 2.16 1.18 2.595-.34 3.943-5.45 1.34-5.086-.82-11.516-3.898-11.537-.723-.006-1.13.26-.98 2.07.112 1.366-.217 2.073-.568 2.935-.77 1.877-1.178 3.716-1.42 6.167.45.09-2.86-3.29-8.07-4.63-3.386-.4-5.105-4.616-4.96-4.625 0 0 .505-1.14.95-1.584 1.157.553 2.293 1.203 3.664 1.606 0 0-.313-1.693-.435-2.15-.63-2.354-.596-2.71.312-3.2 2.25-1.213 2.487-3.38.73-5.353-.444-.507-.818-.83-1.414-1.084l1.11-4.422s-1.017.22-1.83.468c-2.356.717-2.18.74-3.184-.402-2.188-2.49-5.525-2.016-6.02.855-.06.316-.206.82-.206.82l-5.022-2.44c.148 1.18 1.45 5.17 1.45 5.17-4.393 3.415-.68 6.44.52 6.758 0 0-1.026 3.267-1.38 4.625l4.958-1.417c.414.947.93 1.664 1.96 2.325.27 2.79 2.416 5.04 3.9 6.39 0 0 .21 1.02.082 1.674-.32 1.62 1.328 4.19 1.607 4.34-6.804-2.783-13.895-6.12-20.74-9.4l.426 84.144s1.595 1.43 4.757 3.693c1.52 1.087 1.52 1.09 1.204 2.346-.416 1.654-.313 2.916 1.098 13.8.747 5.757 1.56 11.727 2.288 17.08.29 1.95.33 3.202.33 3.202-1.51-.7-3.71-.77-4.85.505-1.96 2.233-.39 5.83 2.517 5.754.66-.04 1.11-.234 1.677-.62.396-.21.8-.03.8-.03l-4.336 7.623 4.996 8.407 4.982-8.99-3.623-7.113s.353-.04.844.208c.486.244 1.14.43 1.595.457 2.53.02 3.05-1.13 3.314-3.204 0-2.67-2.126-3.88-5.05-2.873-.46.16-.966.203-.966.203L47.1 211.7l1.644 1.207.54-.293-1.44-1.226c.312-4.7-1.24-6.367-2.914-7.505 5.606-3.188 3.177-8.226-.55-9.777 0 0 2.42-1.416 2.907-2.9.412-1.327.26-3.43-.21-7.16-.35-5.754-1.587-17.64-1.587-17.64 4.894 3.69 9.92 7.64 14.646 11.372l9.472-13.166 22.83.16s17.352 15.753 26.086 23.786l7.54.068s.083.808.158 1.34c.717 7.78 5.936 13.125 10.687 16.87 1.935 1.74 6.72 6.31 6.72 6.31l-8.872 8.945-54.33-48.525s-.26-.707-.366-1.14c-1.255-5.138-4.66-7.29-7.757-6.928-3.245.38-6.02 3.58-5.88 9.026.025.843.33 2.328.33 2.328l-9.925 41.34s-3.97-3.03-6.11-4.486l-.473.27 5.81 4.368.432-.19 1.65 1.29.125.88c5.082 3.46 13.7 9.91 13.7 9.91 4.068-3.02 8.344-2.01 12.627-.873 0 0 3.115 1.04 4.77 1.032 8.418.188 15.87 1.823 23.694 4.65l-28.513 50.55 54.32.11c-2.678-10.58-5.52-21.327-.438-39.373-5.358-1.08-17.27-5.848-17.27-5.848s-.057-.27.447-.89c2.2-3.15 7.77-11.683 12.99-16.618.634-.457 9.73-9.28 9.82-9.56.05-.16.266-.754.623-.988.836-.56 3.065-2.665 3.065-2.665l-11.388-9.87s-.5-.05-.662-.14c-1.59-.887-4.457-5.845-5.163-9.164-1.626-7.634 1.375-13.67 9.842-19.87 8.264-5.66 23.94-27.632 23.992-28.12 8.453 6.998 15.052 10.62 22.49 15.21-4.493 2.58-8.157 4.3-11.3 6.006-2.04 1.16-2.32 1.405-4.044.917-1.953.015-2.62.767-2.126 2.45 2.957 4.67 1.688 15.544-2.31 17.64-3.47 1.82-6.84 1.327-9.63.295-2.15-.69-2.122-.696-3.08 1.255-2.11 4.493-2.247 8.28-.3 12.59 1.6 3.46 3.974 5.036 4.267.37.173-2.74 1.38-5.94 1.34-8.884 2.425 2.673 4.03 3.895 8.01 4.985 2.666.42 5.5 3.76 5.412 5.128-.734.74-.957 1.688-1.075 1.62-1.3-.424-4.114-1.62-4.114-1.62l1.197 4.23s-.197.193-.774.487c-2.645 1.35-2.474 5 .305 6.462.567.296.608.436.367 1.215-.347 1.738-1.106 2.9-1.516 4.62 0 0 .377.017 3.55-1.45l1.243-.576.75.804c1.643 1.756 3.616 1.746 5.338-.03l.79-.81 2.2 1.114c2.08 1.053 2.625 1.27 2.625 1.27s-1.196-4.642-1.42-5.173c-.12-.286-.363-.58-.54-.644-.296-.11-.25-.18.54-.804 1.994-1.58 2.195-3.764.493-5.423-.65-.635-.73-.767-.73-.767l1.033-4.304-4.29 1.42c-.675-1.44-1.75-2.096-2.43-2.39-.072-1.94-.316-3.937-3.653-6.973 1.123-1.027-.214-3.502-1.315-4.987 1.877.63 6.572 2.62 6.572 2.62l.708-.03 2.243 1.074.263.4s7.053 3.33 10.29 4.886c-.007-.175-.032-3.658-.042-42.004-.006-22.862.032-41.666-.014-41.787-.044-.12-.82-.717-1.624-1.324-1.485-1.12-1.79-1.34-3.674-2.595-1.513-1.01-1.41-1-1.097-2.164.36-1.335.35-3.172-.127-6.612-.352-2.538-1.632-11.468-2.523-18.675-.626-5.057-.774-6.18-.93-6.993-.246-2.046.02-2.94-.025-2.97 7.086 3.07 7.64-7.102.54-5.73 1.36-2.74 2.508-4.01 3.67-6.936-1.48-3.19-4.76-8.58-4.76-8.58l-5.19 9.035 3.06 6.25c-3.513-.63-5.377 1.927-4.727 4.22.707 2.028 2.65 2.596 4.367 1.78 1.32-.52 1.32-.654.15 9.255-.348 2.93-1.887 16.632-2.1 18.67-.142 1.37-.23 1.75-.79 1.45-.754-.326-1.19-.8-1.946-1.3l-.425.395c.676.546 1.475 1.253 2.29 2.003-.184 3.63-.11 5.73 2.91 7.5-5.475 3.434-2.274 8.714.94 9.477-1.915.496-3.805 2.96-3.347 7.86l1.554 20.193-14.843-11.03-8.712 12.47-22.956.03-25.894-23.364s-5.68-.08-8.007-.136c.263-.12-.49-7.22-4.237-11.856-4.073-4.842-13.345-12.835-13.34-12.84l9.74-9.884 54.67 49.205s.263 1.393.402 1.985c1.826 7.77 10.664 8.24 12.544.33.302-1.28.67-4.253.532-4.606-.043-.113.23-1.41.61-2.885 2.94-11.527 5.443-21.47 8.334-32.536.398-1.523.82-3.22.937-3.77.475-2.245.404-2.23 2.754-.46 1.44 1.08 2.036 1.47 2.036 1.47l.457-.476c-1.615-1.25-4.378-3.24-4.378-3.24l.03-.847c-8.878-6.352-10.706-8.04-15.96-12.21-4.074 3.59-9.898 2.138-13.547.87-.94-.37-3.25-.97-3.25-.97-9.09.01-17.076-1.744-24.62-4.21l29.083-51.79H129.4l-.393.44h-5.844l-.02-.44zm107.25 170.326c.003.032.006 0 .006 0zm-74.1-169.157l3.977.07L98.45 69.7l-2.5-.976s.23-.122.227-1.89c-.004-1.9-.414-2.712-1.27-3.834-.716-.97-1.02-1.023 1.077-.734 4.29.59 7.34-4.076 5.635-7.718-.66-1.406-.57-1.49 1.17-1.665 4.784-.478 6.65-6.55 3.26-9.575-.7-.633-.39-1.036.92-.754 4.14.893 7.345-3.698 5.7-7.295-.536-1-.054-1.17.702-1.27 3.544-.83 4.75-3.618 4.63-6.36zm-31.717 0h18.422c-2.48 3.79 1.898 6.035 2.452 5.77-3.98 2.17-2.89 5.225-.83 6.276 2 1.02 4.995.102 4.196-4.31l.986-.428c.96 1.082 1.91 7.8-5.4 6.865-1.3-.167-2.008 1.05-.92 1.72 5.777 6.64-3.265 9.576-3.66 8.474l-.03-1.126c2.447.45 5.576-2.7 2.83-5.5-1.56-1.592-6.082-.816-5.307 4.016-2.673-3.994-5.59-2.79-6.376-.68-.61 1.634.166 3.872 2.83 4.253-2.976 2.49-1.53 5.273.516 5.89 2.26.675 4.568-.245 3.945-4.348.037-.39.825-.264.89-.286 2.336 5.825-3.246 7.966-6.26 6.764-1.116-.433-1.7 1.29-.514 2.166 1.8 1.33 1.245 5.16 1.034 5.2-3.345-1.27-8.14-2.21-7.962-2.14 3.2-12.645 2.99-25.505-.844-38.59zm29.37 0l1.665.003c.022 2.382-1.013 5.314-5.078 5.766.018-.64-.028-1.245-.192-1.92 1.524-.345 3.547.08 3.606-3.85zm7.267.13l5.313.023-25 44.373-3.996-2.053zm-13.108 3.365c.94 0 1.702.76 1.702 1.7s-.763 1.7-1.702 1.7c-.94 0-1.698-.763-1.698-1.7 0-.94.76-1.7 1.698-1.7zm-52.116.78C53.703 42.3 46 48.585 40.398 59.022c-5.853 10.613-3.174 19.753 5.09 21.448 4.36.897 9.452-3.35 10.104-7.96.156-1.1.348-1.414.866-1.414.757 0 .67 1.922.192 4.525-1.152 6.908-3.523 11.108-5.328 13.68l14.354-.12c-2.917-3.502-5.155-8.23-5.636-14.07-.353-3.17-.093-4.57.923-4.02.335.18.42.493.568 2.134.52 5.69 6.49 8.79 11.3 6.29 6.65-3.52 6.47-10.093 4.94-14.884-4.593-12.54-14.74-20.787-20.06-32.707zm-43.865 3.93c1.725 1.462 3.435 3.113 4.612 4.576-1.653 1.184-3.392 1.256-4.46.667-1.2-.665-1.72-2.204-1.833-4.79-.063-1.435.442-1.5 1.68-.454zm2.073 13.72c.05-.01-2.597 5.405-4.54 8.32-1.384 2.56-4.8 7.022-3.884 10.592 1.058 3.712 5.025 4.66 7.136 1.802.99-1.34 1.2-1.18 1.173.316-.02 2.862-1.54 4.49-2.65 5.895l7.25.05c-1.53-1.846-2.92-3.38-3.08-5.886.01-.944.29-1.63.95-.61.75.73 1.38 2.066 3.43 1.69 2.117-.376 3.964-3.124 3.54-5.79-.57-3.094-2.504-6.136-4.448-8.745-1.624-2.18-4.927-7.53-4.867-7.64zm83.252.923c.87 0 1.572.703 1.572 1.573s-.703 1.578-1.572 1.578c-.87 0-1.573-.705-1.573-1.574 0-.87.704-1.573 1.573-1.573zm82.3 1.255l4.23 7.363-4.827 8.55-4.03-8.196zm-.078 2.51l-2.976 4.91 2.702 5.035 3.073-4.78zm.058 2.103l1.54 2.97-1.872 3.014-1.553-3.188zm-4.102 9.98c.32 0 .662.07 1.015.217 2.85 1.19 1.95 5.523-1.1 5.254-.4-.043-.93-.247-1.31-.505-2.11-1.733-.84-4.975 1.4-4.97zm6.968.082c2.493.044 3.995 3.512 1.37 5.135-1.266.704-3.16.276-3.904-.978-.64-1.077-.363-2.87 1.067-3.8.51-.26 1.005-.37 1.467-.36zm-3.462 4.947c.248.02.52 1.23.77 3.332.09.76.332 2.664.538 4.23.392 3.35.797 6.467 1.144 9.694.07.636.24 1.986.38 3 1.442 10.485 1.77 13.834 1.428 14.726-.91 3.126-5.175 3.365-6.958 1.55-1.347-1.375-1.545-2.88-1.015-6.81.3-2.27.43-3.41 1.33-12.08.21-2.03.51-4.73.68-6 .35-3.393.77-6.57 1.24-9.917.13-1.197.29-1.74.46-1.727zm-69.865 7.79s13.664 4.503 24.058 4.3c1.526 0 1.774-.016 3.674.605 1.12.367 2.89.865 3.93 1.105 3.203.62 6.02.446 8.514-.57.392-.16.97-.644 1.55-.47.354.108.87.814.87.814-9.1 2.416-30.394 1.97-43.648-3.616zm70.196 1.433c-.056.01-.116.088-.182.193-.22.354-.03 2.66.79 10 1.58 14.02 1.58 14.32-.34 15.792-.94.724-1.08 1.015-.63 1.28.34.195.31.194.998.004 1.61-.446 2.278-1.724 2.264-4.336-.01-1.99-.033-2.23-.654-7.12-.216-1.693-.51-4.082-.656-5.31-1.04-8.73-1.278-10.547-1.584-10.496zm-71.57 1.468c13.6 4.87 27.814 6.25 44.945 3.62 0 0 1.647 1.07 2.477 1.593l-.577.135.26 2.364 2.908-.467s1.574 1.25 2.746 2.02c-15.275 4.663-39.945 3.86-55.164-2.906-.58-.335-.92-.603-.92-.603.33-.806.727-1.286 1.13-1.736l2.78.795.804-2.534-2.126-.774zm3.562 3.035l-.89 2.496 3.886 1.156.67-2.55zm5.944 1.543l-.52 2.84 3.9.723.48-2.765zm6.45 1.33l-.31 2.74 4.13.44.254-2.775zm28.42.045l-3.52.385.22 2.414 3.56-.42zm-6.21.7l-3.49.23.12 2.53 3.51-.22zm-15.73.05l-.005 2.69 3.58.134.042-2.746zm9.84.338l-3.3.016-.015 2.558 3.332.014zm-38.25.45c.356-.01 1.17.78 1.505 1.67.662 1.745.36 3.68-.678 4.32-1.41.87-3.067-.494-2.097-1.727.17-.218.447-.437.615-.49.727-.23.897-1.37.5-3.347-.056-.292.017-.42.156-.424zm5.275.67c14.724 4.82 31.432 6.44 48.644 2.915 0 0-8.156 33.313-8.333 33.33zm-7.217.1c.775 0 .915 1.317.216 2.017-.893.893-2.596.177-2.24-.942.102-.323 1.512-1.07 2.024-1.07zm4.23.776c.162-.012.466.307.95.957 1.653 2.226 1.782 4.714.302 5.847-1.737 1.33-3.006-.733-1.56-2.534.375-.466.43-1.328.207-3.236-.08-.68-.06-1.02.1-1.033zm57.094.803c.19-.008.527.14 1.202.47 1.054.516 1.42 1.272.913 1.884-.74.89-2.763-.87-2.38-2.07.056-.184.115-.28.263-.285zm-1.587 1.16c.267.023.69.51 1.18 1.492.316.632.5.813 1.03 1.004 1.26.455 1.493 1.76.385 2.145-1.203.42-2.1-.442-2.65-2.555-.363-1.394-.282-2.12.058-2.087zm-52.67.93c.186-.01.536.397 1.09 1.215 1.647 2.43 1.08 7.092-.994 8.18-.913.48-1.55.377-2.283-.356-1.07-1.074-.808-1.92.783-2.507 1.356-.5 1.794-2.04 1.376-4.848-.167-1.12-.174-1.676.033-1.688zm7.84.77c10.057 8.29 19.134 17.18 30.834 27.556 2.78-8.546 6.83-26.295 6.843-26.354-.444.366-19.656 3.09-37.678-1.2zm37.677 1.2c.007-.007.01-.013.003-.02l-.005.02zm6.235-1.178c.167 0 .652 1.246.93 2.384.25 1.03 1.245 2.758 1.63 2.823 1.98.333 2.824 1.44 1.845 2.42-.72.715-2.275.31-3.025-.79-1.41-2.07-2.37-6.84-1.38-6.84zM48.33 95.93c1.196.01 2.345.76 2.635 2.315.338 1.81-.684 3.123-1.55 2.913-.94-.35-1.26-1.84-1.26-1.84s-.223 1.214-.61 1.827c-.842 1.286-2.615-.625-2.297-2.477.31-1.81 1.723-2.752 3.08-2.74zm71.567.474c10.95 1.644 20.37 2.07 33.434.653l-6.153 23.9zm-8.27.037c.16.01.494.306 1.013.85 1.708 1.8 2.2 4.3 1.09 5.54-.67.754-1.123.84-1.84.35-.912-.625-.98-1.566-.143-2 .77-.4.84-1.273.23-2.933-.454-1.24-.582-1.82-.345-1.805zm-71.438.62l4 1.66 1.432 3.38-3.99-1.03zm15.126.447l-1.188 3.364-3.078 1.15 1.197-3.64zm104.36.705c.15-.002.37.424.636 1.304.66 2.175.94 2.725 1.544 3.013.982.47 1.053 1.66.125 2.08-.59.27-.782.216-1.2-.334-.65-.857-1.174-2.497-1.27-3.968-.09-1.38-.017-2.095.173-2.098zm-44.536 1.52c.117-.01.287.16.54.46 1.554 1.85 1.723 4.683.33 5.53-1.347.824-3.232-.872-2.057-1.85.106-.09.35-.284.544-.432.327-.25.355-.396.384-2 .024-1.193.07-1.694.26-1.708zm11.81.197l19.153 17.404 4.397-17.218c-7.56.68-15.463.477-23.55-.188zm-47.05.874c6.05 6.39 13.967 11.554 15.85 17.907 3.37 8.746.897 18.89-6.994 24.697C84.4 146.7 80.13 150.17 76.58 154.36c-5.828 6.203-9.717 12.98-13.61 17.9-.66.824-2.4 3.426-2.4 3.426s-.85.976-3.697-1.412c-7.552-6.71-15.478-11.58-23.545-16.22l3.412-1.91c6.735 3.84 15.108 9.307 22.64 15.677 0 0 5.988-8.744 7.9-11.25 2.77-3.596 4.718-5.913 7.3-8.694 6.59-8.14 13.397-10.83 16.228-14.95 4.15-6.04 4.327-13.194.915-19.3-3.37-5.83-9.91-9.828-14.258-14.655zm57.433.47h7.487s-1.1.918-1.94 1.482c-.53.354-1.144.305-2.31-.183-1.13-.473-3.23-1.297-3.23-1.297zm8.573 0l1.744.054c-1.303 1.64-2.64 2.695-4.393 4.152-.228.1-.354.14-.88-.03-3.58-1.184-6.864-2.69-10.35-4.11l3.107-.016s1.495.48 3.74 1.41c2.577 1.07 3.244 1.398 4.238.746.96-.638 1.75-1.597 2.794-2.203zm3.533 0l-.627 2.295c-1.046 1.304-3.157 2.807-4.92 4.29-.414.215-.4.254-2.208-.45-6.655-2.584-9.872-4.265-9.872-4.265l-1.35-1.208s1.734.497 2.88.948c.78.307 2.11.812 2.957 1.125.847.31 2.72 1.11 3.968 1.6 2.88 1.14 2.72 1.17 5.48-1.262 2.99-2.64 3.69-3.072 3.69-3.072zm-100.824.212l2.905 3.328-3.87 3.255-2.924-3.443zm110.2.004c.67 1.25 1.118 2.73 2.2 3.78.818.78 1.02 1.38.537 1.82-1.263.78-1.48-.48-1.872-1.305-.69-1.45-1.53-3.414-.862-4.294zm-105.025.334h.227c3.096.047 3.83 4.623.912 5.722-1.045.394-2.248.215-2.895-.432-.63-.628-.72-1.16-.29-1.49.672-.476 2.27-.51 2.27-.51s-1.45-.49-2.098-.854c-1.273-.724-.17-2.353 1.87-2.434zm63.768.005c.18.01.48.362.907 1.07 1.563 2.58 1.48 7.49-.15 8.73-.845.647-1.9.554-2.61-.23-.934-1.034-.646-2.08.74-2.693 1.34-.59 1.614-1.916 1.07-5.19-.19-1.14-.178-1.704.047-1.69zm-75.15.08c.924-.035 1.815.33 2.26 1.055.327.54.17.935-.45 1.204-.754.3-2.18.57-2.18.57s1.383.226 2.22.566c1.05.463.966 1.31-.568 2.04-2.953 1.405-5.744-2.43-3.307-4.632.567-.512 1.305-.777 2.024-.802zm77.677 1.85c.023-.005.047 0 .073 0 .27.032.77.425 1.276 1.09 1.76 2.333 2.066 5.84.567 6.52-1.582.723-2.72-.766-1.58-2.067.808-.92.707-2.27-.365-4.937-.157-.388-.12-.58.033-.606zm38.033.11c.14-.01.39.55.8 1.683.894 2.494 1.66 3.54 2.58 3.54 1.157 0 1.764 1.586.85 2.226-1.805 1.263-4.17-1.834-4.34-5.694-.054-1.16-.03-1.745.11-1.756zm-9.54 1.245l-.534 2.034s-1.23 1.2-2.11 1.96c-1.4 1.206-1.743 1.446-2.847 1.07-1.7-.587-3.38-1.118-5.15-1.655l-4.094-3.385 9.338 3.646s.81.237 1.094-.044c1.22-1.22 2.564-2.17 4.3-3.622zm8.81 1.904c.117-.025.235.125.317.497.423 1.916 1.037 3.304 1.553 3.52.656.274.907.84.63 1.42-.794 1.665-2.884-1.278-2.884-4.064 0-.79.19-1.324.386-1.37zm-33.704.137c.114-.007.298.163.587.452 1.29 1.29 1.68 4.855.646 5.892-1.5 1.5-3.1-.728-1.646-2.288.384-.412.385-.44.29-2.27-.06-1.272-.07-1.777.12-1.788zm-78.226.356l-1.01 3.348-3.226.83.756-2.752zm3.867.34c.256-.01.546.09.85.31 1.315.95 1.423 2.58.81 3.78-.59 1.173-1.79 1.51-2.954 1.39-1.51-.17-2.647-1.22-2.57-2.827.03-.806.38-1.7.926-2.082.383-.267.7-.157 1.03.395.31.54.84 1.76.84 1.76s.017-1.254.195-1.9c.148-.514.467-.807.876-.824zm2.462.296l2.333.8.924 3.17-2.617-1.016zm133.242.59s.67.282 3.862 2.816c.798.633 2.144 1.846 2.144 1.846l-.08 41.417s-6.29-3.4-7.107-4.206c-.435-.466-.226-1.766-.073-4.128.74-6.202 1.04-10.955 1.84-16.695.557-6.396 1.786-8.233-2.497-10.946 4.61-2.894 3.31-7.398.416-9.273zm-37.584.156l-.425 1.895c-1.516 2.597-2.875 2.464-5.197 1.26l-2.79-2.37c1.804.377 2.774.956 4.54 1.51.874.243 1.195.09 1.81-.465.71-.645 1.24-1.127 2.06-1.828zm-20.68.996c.946 1.03 1.19 2.05 1.11 4.56-.18 1.784-.1 3.114-1.567 4.115-.716.47-1.953.47-2.506 0-1.33-.89-.598-2.664 1.14-2.75 1.096-.02 1.547-3.604.925-5.843-.098-.348-.073-.576.1-.59.172-.02.493.175.793.503zm29.636-.135c.213-.005.59.54.812 1.43.32 1.29.78 2.01 1.49 2.375.912.467 1.21 1.36.623 1.89-1.16 1.05-2.35-.21-2.73-2.9-.02-.305-.552-2.77-.197-2.8zm24.947.44c2.59.04 4.057 1.853 4.053 4.05-.03 1.586-.896 3.2-2.49 3.866-3.808 1.12-5.885-1.427-5.85-3.906.03-2 1.69-4.053 4.283-4.01zm-52.32 1.436c2.18 2.18 2.28 6.843.145 6.843-2.56-.85-.563-2.36-.514-2.75.2-1.61-.167-2.64-.543-4.14-.164-.886.675-.215.915.044zm52.458-.21c-.455-.015-.422.445.416 1.167 1.52 1.31.772 3.726-1.15 3.737-.89.003-1.108.6-.33.912 2.985 1.2 5.03-3.345 2.35-5.237-.56-.397-1.01-.575-1.287-.583zm-114.326.61c2.405.82 3.235 5.403 3.326 7.02.107 2.814-1.203 7.414-2.37 8.333-3.027 2.38-4.446-6.037-1.858-11.45.227-.446.51-1.046.404-2.15-.108-1.1.08-1.75.494-1.757zm79.5.44s-.304 1.376-.626 2.127c-.37.87-.644.897-1.51.154-.487-.412-1.287-1.27-1.287-1.27.753.12 1.43.51 2.07.194.685-.34 1.237-.975 1.35-1.203zm9.13.074c.172.005.39.484.68 1.432.79 2.595 1.484 3.572 2.533 3.572 1.72 0 2.094 2.07.47 2.6-.6.2-.803.197-1.57-.008-1.16-.31-2.743-4.217-2.516-6.205.107-.936.233-1.4.404-1.396zM49.91 114.07c.63-.016.88.295 1.25 1.062.423.873 1.53 1.983 2.467 2.466 2.26 1.11 4.64 1.978 6.872 3.092 2.89 1.455 5.48 5.907 3.71 6.372-.65.148-1.39.156-2.05.096-.217-.113-.637-.6-.93-1.087-1.32-2.16-3.79-4.27-7.6-5.26-2.686-.7-5.09-4-5.608-5.56-.135-.4-.14-.712.22-.82.764-.22 1.28-.35 1.66-.352zm81.63.268c.12-.02.298.134.564.42 1.598 1.707 1.796 4.843.36 5.73-1.556.962-2.92-.628-1.697-1.98.54-.597.54-.596.54-2.386 0-1.233.035-1.75.234-1.784zm23.265 1.99c.192.01.48.54.827 1.583.494 1.49.56 1.6 1.126 1.89.954.5 1.11 1.24.408 1.94-1.306 1.31-2.62-.793-2.625-4.19 0-.816.1-1.22.27-1.21zm-20.89.236c.12.01.45.272.71.578 1.956 2.32 1.563 7.758-.622 8.573-.728.273-.95.288-1.403.092-1.628-.705-1.43-2.424.577-3.515 1.5-.817.43-5.707.74-5.728zm-100.1 1.712l8.084 4.01s2.21 4.666 3.23 6.416c.7 1.213 2.1 2.383.65 3.192-2.432 1.65-3.81 2.588-3.79 3.612.02.828 1.05 1.672 2.434 3.303 1.992 2.34 1.972 1.8.165 5.37-1.385 2.502-2.563 8.18-2.563 8.18l-8.166 4.203c2.43-5.803 5.29-10.74 8.498-14.27-2.38-1.77-4.385-3.61-6.474-6.056 1.542-2.063 3.576-3.73 5.454-5.525-3.812-4.31-6.2-8.445-7.53-12.445zm102.232.073c.013-.01.03-.01.043 0 .34.02 1.113.86 1.794 2.21.88 1.743.964 3.942.183 4.723-1.347 1.347-3.1-.384-1.842-1.817.888-.646.646-2.25-.053-3.92-.323-.8-.318-1.175-.125-1.206zm-103.126.78c2.11 4.47 4.46 8.1 6.87 11.54l-5.26 5.52c1.62 1.88 3.58 3.9 6.34 6.24-3.38 3.76-5.6 9.03-7.82 14zm120.99.09c.18.012.44.554.71 1.643.336 1.374.566 1.725 1.367 2.07 1.27.544 1.3 1.774.053 2.216-.46.162-1.316-.298-1.67-.9-.467-.86-.707-2.014-.7-3.07-.076-1.31.037-1.974.243-1.958zm29.17.826c1.99.557 2.708 2.55 2.32 6.24-.52 4.94-1.13 10.43-1.625 14.966-.572 5.23-.902 7.95-1.03 8.154-.403.655-.47-1.803-.177-4.54.444-3.904.69-7.326 1.067-11.23.843-8.686.64-11.432-.935-12.233-1.216-.62-1.74-.256-.84.59 1.71 1.32 1.654 1.87-.175 23.26-.19 2.212-.265 3.78-.265 3.78l-2.323-1.444s-.17-1.834-.39-4.6c-.522-5.214-.83-10.77-1.176-15.77-.37-5.33.63-7.2 3.937-7.33.53-.02 1.117.025 1.616.16zm-42.674 3.1c.254.705 1.407 5.965-1.544 4.455-.787-.443-.83-1.14-.25-1.813.65-.755.8-1.84.476-3.39-.2-.943-.436-1.725-.436-1.725.57.21 1.69 2.29 1.753 2.473zM52.65 121.5c2.496.475 5.24 1.93 7.006 3.75 1.097 1.168 1.042 2.106-.673 2.216-1.65.242-1.686.51-2.474-.17-.36-.28-1.048-.96-1.83-1.08-2.49-.386-3.76-5.044-2.03-4.715zm100.77 1.378c.262.424.29 1.255.51 1.85.37 1.67 1.515 2.9 2.542 2.747.69-.083 1.642.126 1.744.952.2.7-.166 1.36-.924 1.663-.854.342-1.82.132-2.55-.553-1.535-1.442-2.473-6.154-1.325-6.66zm-12.01.065c.895.344 2.038 3.21 2.16 5.484-.004 1.63-.255 3.676-1.66 4.452-.89.46-1.813.23-2.216-.55-.494-.96-.126-1.948.895-2.408 1.25-.562 1.652-3.1.89-5.572-.044-.412-.67-1.58-.074-1.41zm-95.364 1.19l6.588 3.337c-.96 1.31-1.71 2.523-2.23 3.905-2.094-2.375-3.192-4.796-4.357-7.242zm97.84 1.143c.113-.004.492.36.823.68 1.64 1.59 2.35 4.482 1.36 5.54-.797.843-2.18.784-2.418-.1-.084-.438.378-1.25.582-1.64.304-.584.358-2.246-.1-3.46-.207-.544-.398-1.018-.253-1.02zm-45.767.655l7.44.26 24.94 22.46-2.346-.05-22.913-20.88-7.13.02zm-42.89 4.05c-2.846 4.52-3.62 10.21-1.876 15.27 1.325 3.59-1.568 3.81-2.755 1.44-.91-1.763-1.436-4.84-1.158-8.12.39-5.3 2.834-10.62 4.793-11.26 1.988-.65 1.552 1.95.993 2.67zm102.18 10.87c-.76 3.54-2.16 5.29-4.147 6.03-8.142 3.008-11.69-13.412-4.136-17.34 7.2-2.392 9.28 6.65 8.28 11.316zM97.66 130.13l7.02.144c6.4 5.82 13.28 11.25 20.13 18.33h-3.31s-.97-.92-1.198-1.14c-6.19-5.53-10.777-10.043-16.744-15.18l-6.266-.174zm53.563 1.083c-3.796.153-4.105 5.296-3.992 7.244.278 2.81 1.397 6.957 4.96 6.63 2.615-.26 3.825-3.357 3.586-7.075-.23-3.5-1.657-6.8-4.557-6.798zm-54.203 1.706l6.16.14c5.426 4.732 11.166 9.873 16.87 15.546h-2.69s-.702-.67-.913-.885c-4.613-4.174-9.31-8.824-13.78-12.575l-6.39-.25zm54.304.202c1.077.4 1.257 3.024.316 4.112-.644.743-2.127-.668-2.26-2.446-.08-1.083.973-2.027 1.943-1.668zm-101.81.327c-.496 1.7-.822 3.61-1.024 5.67l-2.578-3.272zm103.765 3.16c.63 0 1.14.51 1.14 1.14 0 .63-.51 1.14-1.14 1.14-.63 0-1.14-.51-1.14-1.14 0-.63.51-1.14 1.14-1.14zm-51.755.57l12.27 11.545-3.495.036-10.07-9.125-6.39-.24 1.25-2.18zm47.74.2c.63 0 1.14.51 1.14 1.14 0 .63-.51 1.14-1.14 1.14-.63 0-1.14-.51-1.14-1.14 0-.63.51-1.14 1.14-1.14zm14.613.027c6.92 5.38 16.69 12.515 26.837 18.3 0-.02-1.67 1.316-3.21 1.738-7.898-4.354-17.295-10.495-23.115-15.474-5.495 8.085-16.05 22.8-25.433 29.594-5.92 4.236-8.905 9.457-8.887 15.56.017 6.314 2.247 10.424 8.458 15.595 4.007 3.337 8.387 7.594 8.387 7.594l-2.3 1.985c-.385-.05-6.723-5.51-13.135-11.947-3.523-3.538-5.09-11.302-4.49-15.493.815-5.698 2.714-9.78 8.116-14.18 2.076-1.606 4.17-2.853 6-4.68 16.782-17.95 22.78-28.596 22.78-28.596zm-11.233 2.934c.636 1.3.984 3.012-1.004 3.13-1.18.065-1.853-1.896-.832-3.64.775-1.378 1.46-.208 1.84.51zm-59.145-.35l6.626.198s6.536 5.696 9.835 8.85h22.197c12.21 0 22.24.05 22.3.108.152.152-1.577 2.472-1.577 2.472l-73.207.04c.015-.01 4.52-4.026 6.135-5.15 2.86-1.995 5.48-3.85 7.695-6.52zm-44.86 2.756c.48 1.766.88 3.57 1.708 5.197l-5.08 2.697c.934-2.69 2.003-5.28 3.375-7.895zm141.147 14.69c-1.01 2.75-3.65 8.364-6.844 12.618-.633.816-1.067 1.453-1.067 1.453l6.23 5.97-5.407 5.746c3.035 3.16 5.602 7.997 6.952 11.85-2.45-.97-3.828-1.555-6.852-3.238-.855-2.146-1.727-4.418-2.688-6.377-2.206-4.47-2.176-4.032-.375-5.347 2.638-1.924 3.423-2.37 2.738-3.34-.49-.683-3.6-4.376-3.78-4.49-.29-.18-.16-.725.37-1.6 1.8-3.234 3.28-6.8 4.2-9.97zm1.18.226l.16 37.574c-2.23-4.49-4.55-9.075-7.136-11.94-.096-.195 5.64-5.8 5.64-5.8-2.1-1.948-3.33-3.112-6.27-5.818 2.86-4.123 5.127-9.513 7.604-14.017zM33.05 158.96l7.14 4.145c-.38 5.3-.855 12.258-1.587 19.316-.613 5.51-.866 8.05.11 9.58.827 1.12 3.057 2.33 3.057 2.33-3.755 1.52-5.203 6.004-.993 9.358 0 0-1.023.805-1.476 1.29l-5.85-4.38zm111.747 1.9c-1.78 1.994-4.572 4.952-6.713 6.366-2.857 1.887-6.867 5.51-6.675 5.564 0 0-4.21-.02-7.05-.135l-9.82-8.76s.35-.13-13.01-.02c-17.28.142-31.27-.05-31.27-.05l1.96-2.754zm35.002 1.72c-.97 3.107-2.47 5.98-4.37 8.67-.44-1.91-.68-3.936-1.6-5.558zm-138.71.996l.85.61s-.51 6.485-.68 8.383c-.3 3.5-.45 6.66-.753 10.23-.615 7.09-.51 8.136.88 9.232 1.07.8 1.8.437.85-.577-.624-.805-.62-.79-.81-1.97-.133-.82-.113-2.05.075-5.377 1.06-18.738 1.28-19.368 1.304-19.374l2.134 1.38c-.12.29 1.955 18.886 1.745 23.51-.25 5.405-7.526 4.212-7.87.2-.144-.923 1.24-16.103 1.24-16.103zm59.35 1.092l2.854.082 17.62 16.195 6.005.13-.524 2.044-5.804-.02zm10.923 0h2.765l10.084 9.14 6.21.097-1.185 1.76-6.175-.178zm-3.443.01l14.907 13.44 5.082.264-.785 1.837-6.027-.17-16.75-15.34zm-14.373.048h3.097l23.304 20.98 6.107.11-.09 1.89-7.35-.034zm78.42.596c1.23.308 1.834 1.5 2.7 5.92 1.012 5.153-1.178 13.52-3.92 15.09-1.42 1.116-2.966-.07-1.96-1.526 3.27-4.755 3.703-12.536 1.77-16.887-.618-1.4.015-2.85 1.41-2.6zm-98.866.774c7.448.09 9.37 15.38 2.048 17.525-4.756.71-7.21-3.6-7.9-7.49-.81-4.83 1.317-10.09 5.856-10.03zm-4.09 9.174c.444 3.064 2.345 6.574 5.11 6.274 3.632-.394 4.09-5.246 3.73-7.687-.437-2.948-2.06-5.62-4.657-5.766-3.87-.22-4.528 4.82-4.185 7.18zm3.99-5.952c1.037-.017 1.802 1.37 1.518 3.092-.182 1.114-.606 2.486-1.86 1.554-.583-.532-1.106-2.094-.966-3.26.094-.768.472-1.365 1.31-1.386zm102.672 3.534l3.494 4.044-3.973 2.784c.558-2.128.743-4.39.476-6.828zm-100.14.366c.63 0 1.14.514 1.14 1.144 0 .63-.51 1.14-1.14 1.14-.63 0-1.14-.51-1.14-1.14 0-.63.51-1.144 1.14-1.144zm-4.08.702c.63 0 1.14.51 1.14 1.14 0 .63-.51 1.14-1.14 1.14-.63 0-1.143-.51-1.143-1.14 0-.63.514-1.14 1.144-1.14zm2.31 1.47c.572.175.94.7 1.245 1.158.763 1.135.86 2.56.32 3.154-1.095 1.302-2.805-.09-2.6-2.1.15-1.472.543-2.36 1.034-2.21zm9.76 4.464c1.636 0 2.097 1.928.69 2.87-.917.613-1.12 2.607-.554 5.367.46 2 .22 2.3-.97.51-2.033-3.26-1.508-8.74.836-8.74zm-3.822 1.048c1.433-.055 1.894 1.04 1.057 1.88-.49.544-.44 1.98.107 3.16.774 1.708.592 2.224-.856.58-2-2.138-1.97-5.557-.306-5.62zm94.796.832c1.625 2.163 3.067 4.985 4.384 8.184l-7.055-3.24zM71.42 190.43c-.5-.577-.74-2.45-1.15-3.25-.32-.96-.596-1.517-1.114-1.485-2.98.253-2.854-2.597-1.143-3.136 3.54-1.12 4.832 7.43 3.406 7.87zm14.79-2.876c-.508 1.494-.14 2.387-.035 3.983.088.724.125.915-.47.36-1.414-1.235-2.166-5.444-.892-6.224 1.712-1.05 2.23.722 1.394 1.88zm70.672-1.997c.69-.033 1.476.505 1.865 1.494.56 1.43.51 4.92.227 6.77-.432 2.85-1.118 5.46-1.4 7.41-.997 1.19-3.456-3.01-3.687-6.32-.387-2.62.518-8.08 2.54-9.23.143-.07.296-.11.456-.115zm9.523.446c.618-.028.477.18.934.66.69.725.97.902 1.95 1.21 2.023.637 4.25 3.457 3.39 4.314-.677.537-2.52-.477-3.15-.693-.677-.233-1.523-.524-1.88-.644-1.696-.572-4.135-3.698-3.376-4.328.406-.337 1.643-.497 2.123-.52zm-4.932.52c1.253.012 1.596.324 2.313 1.673 1.064 1.997 3.038 3.408 5.906 4.22 3.66 1.118 6.82 3.24 6.665 7.17-.872.01-1.746.067-2.62.333-1.013-2.85-3.534-4.49-5.703-4.98-5.005-1.14-9.65-6.22-8.33-8.23.58-.3 1.198-.2 1.77-.19zm-86.33.25l43.235 37.65c-18.245-6.768-34.984-6.623-51.168-4.12zm18.44 2.492c-.082 1.172-1.69 1.423-2.023 1.712-.81.703-.7 2.733-.356 5.1.264 1.42-.09 1.358-.837.245-1.323-1.97-1.297-5.39-.42-7.404 1.13-2.593 3.748-1.294 3.634.348zM68.72 187.42c1.657.174 2.114 2.43 2.183 3.925 0 2.06-.585 1.984-.914 0-.16-.88-.43-1.22-1.14-1.433-1.62-.483-1.72-2.49-.13-2.49zm20.09 2.305c-.425.467-.435 2.652-.048 4.12.213.813-.182.876-.73.23-1.79-2.096-1.954-5.654-.295-6.34 1.352-.352 1.703 1.297 1.073 1.99zm-18.706 4.207c.04 2.094-.438 2.287-1.068.28-.162-.467-.448-.937-.654-1.078-1.177-.805-1.384-1.434-.702-2.116 1.675-1.366 2.4 2.292 2.423 2.915zm6.318-1.846l-5.862 25c14.427-1.21 20.982-1.465 36.397 1.547zm17.48.412c.88.22 1.186 1.373.158 2.462-.338.432-.652 1.098-.24 2.865.563 2.417-.386 1.644-1.54-.64-.74-1.462-.4-5.194 1.62-4.688zm-27.597.077c1.568 0 3.02 2.543 3.044 5.327.01 2.25-.31 2.087-1.14-.062-.59-1.422-1.07-1.937-2.13-2.31-1.98-.687-1.81-2.956.22-2.956zm10.594.72l27.15 23.726c-11.12-1.77-22.04-1.91-32.64-.58zm22.59.895c2.13 0 2.964 2.63.353 3.55-1.557.55-.893 3.697-.607 5.567.11.705-.115.754-.563.125-1.64-2.42-2.556-8.526.815-9.242zm-2.88 2.957c-.386.61-.43 1.263-.164 2.443.69 2.538.87 3.007-.57 1.717-1.518-1.605-2.18-4.782-.91-5.723 1.43-1.058 2.715.115 1.645 1.562zm-53.65-1.958c2.52-.02 4.35 1.61 4.255 3.88-.107 2.504-1.677 4.085-3.98 4.216-2.575.13-4.164-1.923-4.22-4.05-.05-1.878 1.144-4.036 3.944-4.056zm-.043 1c-2.883-.01-3.964 3.79-1.576 5.55 1.024.75 1.833.54.99-.26-1.584-1.51-.947-4 1.14-4.46 1.033-.228.633-.83-.552-.83zm35.12.64l-3.47 16.84c7.1-1.103 15.692-.767 22.324-.144zm-11.695.64c1.727-.09 2.232 2.51 2.245 3.544 0 1.337-.155 2.033-.402 1.32-.58-1.687-1.154-2.61-1.78-2.61-.337-.09-.626-.226-.9-.53-.613-.81-.018-1.69.84-1.72zm12.017.673l2.29 1.942c-1.474-.647-2.728 1.023-2.728 1.023zm23.557 3.18c-.662.833-.66 2.596-.142 4.65.144.572-.393.146-.933-.536-1.024-1.29-1.504-2.804-1.32-4.045.207-3.137 4.186-2.526 2.398-.07zm-36.21-1.503c1.484.17 2.04 3.26 2.008 4.2-.048.98-.27 1.642-.466 1.046-.38-1.294-1.17-3.15-1.85-3.576-1.17-.73-.84-1.563.31-1.67zm113.42 3.467c.054 1.092-.4 2.21-1.072 2.57-.687.37-1.106-.13-1.516-1.39-.3-.923-.408-1.28-.408-1.28s-.254 1.158-.335 1.4c-.537 1.605-2.28 1.62-3.01-.173-.778-2.09 1.393-4.235 3.062-4.158 1.85.083 3.18 1.277 3.28 3.03zm-98.94-2.335c.52 0 2.54.904 2.54.904l2.01 1.78s-1.85-.806-2.5-1.036c-1.555-.55-1.522-.556-2.78.47-1.292 1.058-2.354 1.833-2.354 1.833l.4-2.285s1.893-1.67 2.688-1.67zM67 206.568c.297 2.414-.377 2.618-1.033.313-.56-1.97-1.114-2.69-2.068-2.69-1.76.26-2.35-2.34-.77-2.863 2.98-.835 3.74 4.295 3.87 5.247zm102.04-5.294l2.745 1.273.58 2.842-2.53-.63zm-61.54.26c2.643-.732 2.97 2.557.944 3.043-1.236.297-1.23 2.212-.877 4.995.08.635.25 1.405.212 1.51-.19.504-.82-.265-1.67-2.048-1.263-3.252-.87-6.874 1.387-7.5zm75.537-.04l-.764 3.29-2.323-.16-.084-2.014zm-78.25 2.14c-1.27 1.84-.128 3.54.154 4.983.05.84-1.03.02-1.65-1.204-1.3-2.547-1.373-4.603-.205-5.52 1.637-.96 2.39.755 1.71 1.74zm-23.827-.45c.45.002 1.06.246 2.34.74.97.37 3.212 1.282 3.212 1.282l2.968 2.62s-2.605-.96-4.42-1.725c-4.084-1.72-3.497-1.78-6.726.68-.932.71-1.904 1.52-1.904 1.52l.394-2.1s1.22-1.214 2.74-2.31c.656-.473.95-.707 1.4-.7zm-37.996.993c2.09-.058 3.464 1.605 3.967 3.462.29 1.07.04 2.07-.02 3.1-1.44 11.05-2.07 21.31-3.4 31.55-.162.49-.34.306-.552-.57-1.536-9.28-2.536-19.47-3.828-28.67-.296-3.436-1.183-7.927 3.163-8.806.23-.044.457-.066.673-.072zm-.126 1.226c-.923.036-2.013.67-2.4 1.485-.79 1.666-.584 5.058.92 15.224.123.847.297 2.26.383 3.14.27 2.7.628 4.843.88 5.242.498.758.56-.057.208-2.698-.18-1.35-.425-3.41-.543-4.58-.676-4.82-.822-8.252-1.24-12.65-.21-2.164.66-3.758 2.293-4.19.884-.233.93-.63.106-.9-.184-.06-.39-.084-.6-.076zm138.247.135c3.053.007 4.176 4.28 1.188 5.79-1.11.56-2.97.294-3.43-.6-.224-.694.026-1.1.58-1.394.674-.358 1.663-.666 1.663-.666s-1.618-.314-2.074-1.08c-.98-1.65.82-2.02 2.073-2.05zm-114.878 4.61c-.035.806-.446.474-.55 0-.33-1.072-1.015-2.234-1.59-2.697-.696-.56-.86-1.31-.39-1.79 1.773-1.56 2.52 3.99 2.53 4.49zm103.59-4.622c.78-.024 1.844.242 2.516.914.87.868.822 1.194-.632 1.724-.7.263-1.19.467-1.19.467s.66.26 1.147.4c1.396.465 1.32 1.274.04 2.23-1.742 1.3-4.543-.426-4.51-2.717.025-1.82 1.145-2.97 2.637-3.013zm6.445-.014l2.79 3.072-3.26 3.375-3.07-3.37zm-94.777.287h.12c.865.01 2.244.6 5.626 1.96 1.86.75 4.01 1.6 4.01 1.6l3.044 2.69s-4.17-1.31-5.62-2.043c-.317-.16-1.01-.455-1.54-.654-.53-.2-1.85-.714-2.93-1.148-2.32-.937-2.346-.94-3.124-.286-.335.28-1.15.92-1.815 1.42l-2.15 1.637c-.616.467-1.39 1.173-1.39 1.173l.49-2.596s.44-.43 1.22-1.03l2.403-1.84c.7-.538 1.062-.864 1.66-.89zm29.934 2.28c.08.54.03.64-.59 1.28-.787.8-.89 2.11-.32 3.812.16.468.353 1.025.31 1.068-.83.83-3.01-4.407-2.49-5.97.623-1.865 2.673-1.892 3.087-.195zm-47.87.22c.57-.027 1.23.406 1.57 1.308.9 2.52.35 5.613-.58 2.73-.238-.61-.65-1.26-.965-1.594-.324-.345-1.05-.743-1.034-1.304.07-.734.503-1.116 1.007-1.14zm18.66.07c.363.014.85.196 1.73.555.79.324 3.023 1.07 4.292 1.56 1.97.76 4.03 1.764 4.03 1.764L87.78 212s-1.515-.504-2.417-.875c-3.27-1.344-3.087-1.337-4.714-.1-.58.44-1.315 1.152-1.315 1.152l-2.27.125s1.066-1.14 2.605-2.28c.504-.373 1.19-.906 1.525-1.183.382-.32.623-.48.99-.468zm34.91.88c1.24-.233 1.92.95 1.843 1.69-.087.81-.84 1.617-1.997 1.842-.244.904-.938 2.97-.533 6.053.327 1.444-.284 1.476-.91.09-1.01-2.245-2.48-8.903 1.595-9.675zm-3.546 2.47c-.527 1.13-.71 2.036-.42 3.456.325 1.577.393 1.966-.504.98-1.734-2.315-1.987-6-.387-6.424 1.543-.407 1.882 1.27 1.31 1.99zM61.494 210c2.71.43 3.51 5.047 3.13 7.02-.716 2.39-.68.777-.93-.22-.668-2.405-1.44-3.714-2.266-3.85-2.225-.37-1.913-3.26.066-2.947zm20.775.91c.045-.003.085.003.13.01.89.15 3.28.886 2.25 1.134l-3.527.02c-.682.025.448-1.115 1.147-1.164zm94.91.755c.342-.03.81.37 1.356.928 1.254 1.28.704 3.293-.99 4.286-2.66 1.56-5.688-1.38-4.227-4.08.803-1.48 1.766-1.217 2.587.873.15.254 0-.26.28-.897.28-.636.655-1.08.997-1.11zm-4.46.15l-.798 3.21-3.24 1.56 1.182-3.958zm6.742.547l2.582.207 1.433 4.172-3.724-1.586zm-61.017 2.36c1.88.077 2.07 1.85.99 2.627-.602.58-.81 1.414-.685 2.753.058.594.176 1.323.17 1.41-.015.283-.252.24-.575-.113-1.984-2.16-1.72-6.755.105-6.68zm-56.812.694c1.192 0 2.542 3.41 1.877 4.713-.416.764-.82.575-.973-.31-.115-.65-.485-1.53-1.445-1.69-1.394-.45-.94-2.71.544-2.71zm60.248 2.062c.91.47.996 1.515.175 2.1-.64.454-.807.84-.905 2.07.21 2.797-1.363 1.02-1.51-1.527-.08-1.382.67-3.44 2.242-2.64zm-61.246.86c.854 0 1.87 1.533 1.644 2.43-.12.71-.49.583-1.014.055-.2-.16-.655-.32-.867-.386-1.278-.388-1.063-2.103.237-2.103zm24.28 1.177c11.546-.05 23.556 1.78 33.54 5.768l-.823 1.475-2.62-.9-.9 2.377 2.16.82-1.015 2.193c-11.78-3.875-24.49-6.76-45.604-3.635-1.047-.73-2.942-2.17-2.942-2.17l1.69-.37-.22-2.347-4.267.76-1.245-1.303c6.666-1.71 14.35-2.633 22.25-2.67zm38.727.517c1.107.003 1.793 1.244.98 1.775-.566.37-1.826.473-2.08.17-.523-.633.22-1.946 1.1-1.945zm-40.35 1.458l-.05 2.434 3.48-.11.074-2.307zm6.082.054l.015 2.39 3.38.112.16-2.342zm-8.842.165l-3.42.22.106 2.23 3.39-.15zm15.286.37l-.086 2.3 3.438.38.25-2.34zm-21.648.11l-3.438.44.293 2.29 3.343-.37zm28.294.74l-.337 2.404 3.207.476.414-2.282zm56.275.7c1.548 2.164 3.03 4.01 4.058 6.432 1.322 3.11 2.21 7.175 2.207 10.525 0 2.002-1.397 1.6-1.683-.486-1.21-8.78-11.77-10.1-15.92-1.99-1.08 2.323-1.29 5.19-.72 8.39 2.01 11.32 16.274 22.254 20.75 34.13 8.4-17.21 15.77-19.886 19.593-33.9 3.08-10.77-7.405-18.782-15.008-11.804-1.388 1.28-2.67 3.66-2.818 5.227-.316 2.523-1.437 2.147-1.544.067-.04-2.19.9-6.395 2.225-10.14.705-1.976 1.756-4.408 3.18-6.453zm-49.918.65l-.32 2.43 3.26.69.43-2.256zm-23.08 2.8c10.82-.016 20.69 1.85 29 5.01 0 0-1.08 2.32-1.46 2.57-5.966-2.38-16.127-4.593-22.99-4.713-2.52-.093-3.077-.16-4-.48-5.237-1.72-9.857-2.465-14.117.077l-1.74-1.23c5.26-.84 10.38-1.23 15.3-1.238zm118.38 9.05s.61.826.99 1.28c1.67 2.02 2.7 5.63 1.59 5.63-.275 0-.408-.252-.814-.643-1.5-2.22-4.503-1.44-5.665.2-1.193 1.684-1.322 4.412-.4 6.412 3.007 6.197 8.77 13.273 8.667 14.083 3.08-6.877 5.61-8.816 7.89-13.85.82-2.493.83-3.95.194-5.866-.87-2.612-5.08-3.805-6.573-1.08-.49.83-.88 1.07-1.215.737-.682-.68.5-4.415 1.885-5.947.246-.27.704-.954.704-.954zm-164.1 4.824c2.47.03 3.65 3.824 1.03 5.42-.7.396-1.623.343-2.364.01-2.12-1.01-2.278-4.163.192-5.195.4-.168.78-.24 1.134-.237zm80.91.124c.88.543 4.16 1.99 4.16 1.99l-22.99 41.57-5.57.043zm-74.16.1c1.377-.154 2.355 1.03 2.71 2.017.485 1.35-.385 3.746-2.813 3.608-2.786-.157-4.034-5.162.102-5.623zm79.06 2.16c.62.34 2.85.71 3.045 1.14.085.216-.084.64-.134 1.19-.12 1.32.21 2.783 1.01 3.956 1.31 1.82-.11.984-1.417.97-2.958-.754-6.72 3.27-5.29 7.416.33.917.264.99-1.32 1.47-3.593 1.095-5.16 4.91-3.434 8.317.9 1.772.926 1.682-.658 1.814-4.4.365-6.954 4.267-5.107 8.256.286.62.105.787-.855.967-3.002.55-4.35 3.063-4.726 5.82l-3.972.04zm3.81 1.47l7.63 2.08c-3.168 10.774-3.606 23.292.21 37.77l-17.548.015c2.438-2.188 1.475-5.21-1.373-5.875 2.765-1.586 2.767-5.81-.546-6.32-2.912-.443-4.416 2.326-3.123 5.1l-1.242.34s-.56-.7-.687-1.074c-1.097-3.203 1.203-6.382 5.123-6.37 2.417.005 2.918-.68 1.582-2.165-2.39-2.657-1.64-6.39 1.48-7.86 1.435-.676 2.282-.23 2.282-.23l.072 1.76s-.58.06-1.035.13c-3.445.55-2.806 6.04.695 5.995 1.927-.026 3.306-1.488 3.306-3.587 0-.59.003-1.46.003-1.46 1.77 3.03 4.81 3.245 6.103.782 1.52-2.9-1.24-4.72-4.016-4.42 0 0 .58-.38.95-.568 2.95-1.514 1.935-5.85-1.33-5.85-2.24 0-3.546 2.08-2.824 4.29.116.35.39.92.39.92l-1.33.34s-.305-.236-.44-.447c-2.286-3.57 1.385-7.507 6.01-6.615 1.694.53 1.64-.64.69-1.698-1.024-1.526-1.787-3.253-1.035-4.983zm-86.24 1.56l4.006 7.06-4.49 8.13-4.447-7.62zm-.394 3.67l-2.78 3.83 2.72 4.394 2.582-4.448zm-.12 1.44l1.806 2.422-1.822 2.978-1.78-2.792zm82.773 7.625c.842 0 1.53.683 1.53 1.525 0 .843-.688 1.525-1.53 1.525-.84 0-1.524-.682-1.524-1.525 0-.84.68-1.523 1.523-1.523zM208.9 267.5c-1.172.03-2.442.37-3.76 1.054-1.42.735-1.42.733-1.977.366-1.354-.896-1.77-1.106-3.296-1.106-.95 0-1.603.052-1.603.052l.13 3.653c3.285-.09 4.185 1.03 3.496 3.007-.717.896-.555 13.793-.328 18.767-.054 2.444 1.032 4.768 2.534 6.18 2.346 2.078 6.5 1.923 8.91.187 1.61-1.16 2.377-3.1 2.72-5.07.162-4.044.07-8.1.07-12.15l2.6.03-.03-3.664-2.537-.15s.026.105-.082-2.61c.18-5.683-2.74-8.39-6.62-8.546h-.23zm-.207 3.685c2.14.163 3.01 1.013 3.506 2.842.355 1.3.487 2.84.19 3.323-.48.787-2.332-.585-4.76-3.545-.816-.997-1.18-1.51-1.18-1.51.47-.838 1.465-1.174 2.244-1.115zm-3.898 4.92c2.228 1.915 2.543 3.86 7.798 5.706 0 0 .15-.202.06 6.206-.097 7.07-.52 8.517-2.653 9.103-1.847.51-3.588-.35-4.356-2.14-.784-1.84-.974-6.16-.946-14.38.01-2.984.1-4.49.1-4.49zm-89.923 2.14c.872 0 1.58.703 1.58 1.576 0 .874-.71 1.584-1.58 1.584-.873 0-1.578-.71-1.578-1.583s.704-1.577 1.576-1.577zm-2.39 1.074c-.146.06.002 1.435.347 2-2.277.14-2.88 1.885-3.102 3.356l-2.04-.006c.34-4.977 4.65-5.09 4.79-5.35z"/></svg>