<svg xmlns="http://www.w3.org/2000/svg" height="312.808" width="224.225"><path d="M8.808 47.135l.165-2.02c.51-6.237 1.875-8.345 9.622-14.854 3.76-3.15 4.994-4.71 5.168-6.52.49-4.26-3.35-5.59-5.855-5.61-3.242-.03-6.91 1.913-5.16 6.415l-3.638 1.06c-.734-4.2.017-8.14 3.426-9.89 4.546-2.28 10.38-1.383 13.323 2.21 1.97 2.413 2.42 5.745 1.36 8.355-3.1 6.67-13.62 9.605-14.49 17.32h11.63v-4.3h3.424v7.906zm206.61 218.537l-.166 2.02c-.51 6.238-1.874 8.346-9.622 14.854-3.76 3.16-4.994 4.718-5.168 6.527-.49 4.26 3.35 5.59 5.855 5.614 3.242.03 6.91-1.912 5.16-6.414l3.638-1.068c.734 4.2-.017 8.142-3.426 9.892-4.55 2.28-10.38 1.385-13.33-2.207-1.98-2.414-2.43-5.746-1.37-8.355 3.1-6.672 13.62-9.607 14.49-17.32h-11.63v4.295h-3.427v-7.907zM111.07 68.66c.015-2.024-1.587-2.063-1.57-.585-.133 7.43-6.416 11.087-10.98 10.22-7.036-1.338-9.28-8.323-9.214-12.436.207-12.7 12.987-22.06 24.52-38.34 8.45 14.69 22.397 26.23 23.223 37.58 1.09 15.098-18.01 20.73-20.74 3.133-.18-1.244-1.64-1.8-1.53-.066.41 4.822-.178 6.83 5.262 18.72h-14.22c3.15-5.556 5.024-12.375 5.24-18.237zm.01 175.934c.015 2.025-1.586 2.064-1.568.585-.135-7.43-6.417-11.09-10.98-10.22-7.037 1.33-9.283 8.32-9.216 12.43.208 12.693 12.988 22.06 24.52 38.332 8.45-14.69 22.398-26.23 23.224-37.586 1.097-15.098-18.01-20.73-20.737-3.133-.176 1.243-1.64 1.8-1.526.065.414-4.823-.175-6.83 5.265-18.72h-14.22c3.148 5.555 5.024 12.374 5.238 18.236zM18.956 69.786c.01-.872-.895-.465-1.018-.19-1.163 1.985-2.864 2.447-4.547 1.73-1.66-.708-2.6-2.28-2.45-4.52.31-3.44 3.04-7.2 4.36-9.327 1.25-1.93 2.63-4.23 4.077-7.16 1.698 3.36 2.56 4.32 4.405 7.39 1.626 2.702 3.893 5.35 4.068 8.62 0 2.484-1.045 4.83-3.398 5.26-1.334.24-2.58-.44-3.506-2.038-.28-.406-.85-.194-.84.362.167 2.093.957 3.983 2.83 6.21h-6.89c1.41-1.575 2.85-3.703 2.917-6.35zm187.724 173.16c.01.87-.895.464-1.018.19-1.163-1.986-2.864-2.448-4.548-1.73-1.667.707-2.604 2.28-2.453 4.52.31 3.44 3.04 7.2 4.36 9.326 1.25 1.93 2.63 4.223 4.08 7.154 1.698-3.363 2.56-4.32 4.406-7.39 1.626-2.705 3.893-5.354 4.068-8.623 0-2.485-1.045-4.832-3.4-5.26-1.33-.242-2.577.442-3.502 2.037-.28.407-.85.195-.84-.362.167-2.093.957-3.983 2.83-6.21h-6.886c1.41 1.574 2.85 3.702 2.916 6.347z"/></svg>