<svg xmlns="http://www.w3.org/2000/svg" width="224.225" height="312.808"><title>Vectorized Playing Cards 1.0</title><path d="M30.158 26.284H193.69l.3 261.366-163.967-.436s-.006-170.555.135-260.93zM146.315 285.77c-6.09-10.988-15.715-28.885-16-29.027-3.56 1.886-39.846 6.72-57.3 2.04-5.97 8.923-11.83 17.76-17.028 26.607zm-55.73-32.862c-.914.02-1.932.574-1.744.092.11-.28.37-3.096.48-4.104.28-.448.66.727.62 1.818-.023.627.28.18 2.346.287 2.235.12 4.067.54 4.825.7 2.644.57 7.758.16 9.95-1.42 1.186-.86 1.635.07.41.99-5.522 4.16-9.9 2.576-14.7 1.88-.715-.104-1.44-.25-2.18-.23zm2.347-3.948c-.343-.222-.57-.246-1.008-.042-1.695.787-1.252-.34-.03-1.478.557-.52.54-.783.117-1.33-.21-.275-.57-.31-.48-.723.37-1.783 2.888-4.48 5.7-5.685 1.17-.502 1.36.046-.12.91-2.277 1.332-3.014 2.467-1.726 2.005 2.497-.896 4.775-.264 7.97 1.32.913.453 1.33.542 2.108.46.574-.474 1.088.095 1.444.392.223.17.27.26.526.2 1.82-.43.73.73-1.757 2.53-4.45 3.122-9.31 4.6-12.735 1.43zm6.848.77c1.82-.546 4.038-1.684 5.398-2.87 1.654-1.444.72-1.224-1.182-.315-2.75 1.316-4.676 1.697-7.77 1.626-2.59-.05-2.51-.16-2.603.16-.33 1.13 3.233 2.28 6.157 1.4zm-5.025-4.397c.148-.485.26-1.13.13-1.34-.24-.38-.756-.1-1.41.72-.406.51-.35.58.046.98.2.135.36.236.48.305.556.234.64-.276.76-.665zm1.132.664c.797-2.693 2.58-2.64 3.852-.063l.89.005c-1.847-5.02-5.418-2.48-5.538.01.42.14.786.04.786.04zm6.662-.453c.84-.467.71-.784-.36-1.333-.76-.39-1.17-.47-1.308-.21.01.558.033 1.35.357 1.79.335.206.8.006 1.3-.24zm-11.81-7.67c-.155-.254-.128-.717.46-.986 3.61-1.66.98-5.165-1.81-2.536-.884.72-2.2 1.055-3.214.626-.956-.413-.974-1.573.295-1.82.416-.082 1.484-.307 1.88-.58 4.845-2.574 7.42 3.026 3.98 4.89-.706.41-1.456.638-1.592.405zm-13.58-5.086c-1.967-.885-2.237-3.958-.393-5.154 1.173-.797 2.373-1.014 5.605.574 2.283 1.12 3.59-.086 3.53 1.22-.035.793-.08 1.593-1.41 1.784-2.157.31-3.63-2.596-6.4-2.322-2 .198-1.747 2.573-.3 3.055 1.923.643.755 1.405-.63.843zm36.168.447c-.36.168-.53-.617-.375-1.035.983-2.315 1.887-4.155 2.78-6.324.71-1.728 1.186-2.47 1.505-2.47.327.003.478.256-.07 1.32-.822 2.146-3.836 8.692-3.84 8.51zm-16.15-.6c-.87-.616-.723-1.528.267-.837 1.272.888 3.36-.737 2.933-2.27-.512-1.855-2.993-2.304-5.07-.644-3.275 2.62-6.87 2.752-6.87.705.006-.59-.076-.72 1.287-.81 1.585-.11 3.373-.83 4.262-1.37 3.983-2.41 8.223-.75 7.345 3.273-.395 1.9-2.74 2.82-4.153 1.943zm-14.614-5.94c-.323-.01-.915.314-1.084.188-.333-.246-.285-.96-.558-1.724-.486-1.36-.014-.94.84-.57 1.156.44 2.252.36 3.23.02 1.005-.35 2.326-.27 4.44.002 1.7.22 2.658.156 4.2-.28 1.677-.523 1.234-.336.954.69-.185.674-.414 1.577-.627 1.794-1.16-.644-2.04-.395-2.8.044-1.25.546-2.138.64-3.16.335-.966-.546-1.538-.5-2.31-.03-1.336.64-1.928-.42-3.13-.48zm24.986-2.82c.234-.41.575-.973.896-1.606 2.59-5.11 2.763-6.53.936-8.25-2.453-2.31-4.546-1.31-6.9 3.3-.57 1.12-.912 1.962-1.142 2.31-.265.4-.576.09-.73-.065-.29-.293 2.322-5.194 3.345-6.264 2.68-2.8 7.655-.56 7.34 3.25-.16 1.92-.527 2.97-2.29 6.486-.44.87-.82 1.61-1.05 1.964-.83.55-.64-.71-.4-1.13zm-24.4-.203c.407-1.82 6.28-2.66 7.825-.276.15.233.062.224-.6.043-2.986-.98-3.58-.93-6.438.19-.43.16-.737.23-.79.033zm22.396-.346c0-.17.22-.843.55-1.494 1.956-3.842 2.495-4.77 1.9-5.487-1.165-1.4-2.727-.184-4.16 3.83-.54 1.5-.906 1.18-1.167.942-.5-.454 1.72-5.122 2.79-5.818 2.426-1.54 4.336.24 3.263 3.37-.834 1.412-1.525 3.59-2.306 4.74-.37.51-.87.36-.87-.09zm-8.78-6.24c-.12-.194.11-.455.95-2.244 1.157-2.46 1.516-3.372 1.046-4.777-.835-2.502-3.99-3.116-5.91-1.473-.624.53-1.05 1.263-1.345 1.922-.693 1.526-1.27 3.498-1.68 3.912-.36.36-.86.433-.827-.194.456-1.328.67-2.358 1.75-4.305 2.685-5.796 10.426-3.112 8.614 2.99-.673 2.215-1.448 3.893-1.907 4.437-.254.304-.677.04-.687-.27zm-1.797-1.065c.002-.19.292-.73.6-1.49 1.31-3.21 1.32-4.2-.59-4.24-1.14.15-1.31.61-2.313 3.15-.326.827-.505 1.41-.7 1.665-.206.27-.595.11-.755-.052-.41-.413 1.375-4.575 2.32-5.36 2.17-1.88 4.985.79 3.667 3.183-.62 1.67-1.15 2.806-1.514 3.324-.32.456-.72.392-.72-.17zm-46.23-37.5l-6.595-.45c1.17 7.02 1.227 14.74.047 20.21-1.01 4.68-1.02 8.13-.72 12.19.35 4.72 2.36 8.73 2.87 13.74.366 3.63-.442 7.424-1.164 11.034-1.208 6.035-.96 6.665-.78 13.745.164 6.565-.45 6.33-.83 5.946-.058-.06-.11-1.22-.103-2.6.01-1.38-.076-4.756-.155-7.1-.157-4.682.366-8.82.746-10.524.773-3.464 1.64-7.015 1.106-10.85-1.085-4.843-2.615-9.678-3.152-14.345-.663-5.755.964-11.53 1.503-15.708.52-4.036-.03-11.017-1.096-13.92-.18-.968-1.05-2.23-1.05-2.23-.995-.14-1.993-.28-3.39-.27-.076 27.71 0 55.434.023 83.15l6.15 5.68 6.32-5.98zm.445 31.79s9.385 5.38 19.733 10.66c-.984-6.04 2.14-6.95 5.075-7.66-.703-11.68 10.05-9.28 11.7.87l1.06.005c1.86-5.06 3.703-8.55 7.945-9.383 3.29-.646 6.53 1.426 7.355 6.306-.144-.343 10.9-6.452 11.206 6.453 5.015-3.1 8.595-.42 10.04 3.513 2.12-3.21 7.42-3.35 9.115-3.585.59-.68 1.634-1.066 3.526-1.054 1.624-.082 3.8-1.29 4.925.18 1.704.268 3.004-.04 4.46 1.08 1.16.88 2.457 2.836 4.388 1.487 3.68-1.764 7.82-2.56 11.11-4.687 0 0-.873-1.12-.62-.96.095.057.505.585 1.12.83.224.09 2.247-1.116 2.247-1.116-13.714-15.723-24.995-46.417-17.546-74.816.205-.483-.623-.67-1.03-.84.125-.22 2.14.074 1.284 1.88-.862 5.44-1.837 11.337-2.054 15.848-.005.55.045 1.04.045 1.04 30.75 14.116 26.98 44.687 19.08 55.328l1.242 1.65c.55.37 24.19-13.35 23.41-13.91l4.473-2.217-.724-59.95-17.69-1.345s.19-.5.414-.632c.162-3.66-.167-9.072.01-13.603.068-12.948.2-17.35.03-17.71-5.456-3.574-13.592-8.803-20.44-11.338.282.08-.11 5.365-.32 5.667-6.405 2.032-3.432 4.632-5.8 7.425-1.59 1.74-5.313 2.07-7.11-.014-2.148-2.07-3.155-6.812-3.155-6.812-3.39 3.605-2.694 7.962-7.23 9.602-7.296 3.6-9.61-7.165-9.188-6.915-2.795 2.68-10.64 4.864-11.486-6.46-3.524 3.23-7.48 1.627-9.154-2.35-2.153.077-4.567 1.755-6.746 2.66-2.022.893-4.61 1.416-6.53 1.377-2.4.288-4.38.278-6.542-.364-1.016.33-3.31-.655-4.016-2.06-1.08-1.268-2.025-1.34-3.053-1.113-3.505 1.835-7.262 2.28-11.4 4.202-.257.18.365.516.156.45-.09-.03-2.172 1.02-2.172 1.02 20.955 27.42 22.095 55.1 17.705 74.72-.176.68-.27 1.172.182 1.71-.665-.117-.676.076-.8-.348l2.18-16.467c.063-1.99.313-1.844-1.443-2.586-1.625-.686-3.16-1.347-4.5-2.167-5.11-3.77-10.885-8.407-13.7-14.193-8.03-12.437-5.38-27.278.635-39.036l-1.498-1.55c-17.56 8.76-27.93 18.2-27.93 18.2l.074 58.826 18.047 2.072zm-8.708-39.28c-.577-.632-2.05-.75-2.665-.26-.14.12-.443.744-.532.72-.815-.21-1.38-.377-1.49-1.064l.868-1.305c.687-1.032 1.677-1.4 3.345-1.787.593-.137 1.486-.263 1.802-.396 1.253-.54 1.69-1.706.42-1.183-.928.254-2.224.17-2.396-.674-.14-.69-.735-.964-1.397-.88-1.22.29-2.34.925-3.42 1.565-.48.287-1.39.94-1.39.94-.144.223-.674-1.41-.18-1.89.613.074 1.14.08 1.74-.157 1.49-.59 2.93-1.306 4.433-1.88.96-.374 1.048-.34.796-1.02-.126-.25-.236-1.08-.07-1.513.174-.46.155-.693-.143-.89-.678-.45-2.303-.03-4.588 1.06-.697.334-1.156.468-1.596.82.283-.72.12-.85.11-1.605.934.116 1.774-.25 2.52-.643.613-.32 1.302-.636 2.99-.85.462-.06.252-1.74-.273-2.227-.497-.46-1.54-.47-2.804-.1-1.13.26-2.53.52-3.308 1.727-.98.922.023-1.53 1.81-2.507.78-.018 2.506-.387 2.913-.476.687-.15.8-1.76-.203-2.45-.625-.543 2.28-.557 2.223-.39-.036.094-.063.78.16.957 1.25.38 1.24 1.397 1.35 1.82 1.436 2.35 2.143.88 3.132.07-.21 5.11 1.587 5.69 1.824 6.017-2.465 4.58-.605 4.69 1.707 5.742 0 0-.88.355-1.464.32-.92-.057-2.68 1.03-3.45 1.67-.427.35-.44.057-2.14.01-1.6-.048-1.716.07-2.446.392-1.44.636-1.432 1.235-.026 1 1.498-.253 2.966.653 3.14 1.886.117.233.01.645-.012.632-.314-.06-1.02.057-1.01-.09.01-.15 0-.708-.276-1.1zm2.188-6.19c.407-.26.477-.992.123-1.29-.32-.27-1.69-.125-2.075.22-.872.685.724 1.83 1.955 1.07zm.876-3.075c.5-.39.564-1.33.13-1.873-.74-.924-2.67-.37-2.775.795-.114 1.24 1.59 1.896 2.642 1.08zm-.63-4.22c.09-1.02-.92-1.665-1.854-1.18-1.16.6-.455 1.87 1 1.795.806-.04.806-.04.857-.615zm-3.4-4.135c-.54.265-.57.9-.054 1.31 2.04 1.12 1.42-1.88.057-1.31zm142.28 6.09c-.892-3.28-3.36-.03-3.36.017-.09-3.362.55-4.86-1.98-6.006 2.54-3.83 2.01-4.36-.685-5.83.247.023 3.575-.72 4.145-2.613.126.09 5.224 1.34 5.86-1.43-1.54.697-4.564.8-4.6-2.177.288-.087 1.005.06.945.155-.4 1.91 3.093 2.384 3.665.875 0 0 1.175.78 1.69.902.06.038-1.59 2.313-3.09 2.656-2.71.89-3.643 1.132-3.646 1.67-.003.206.44.24 1.245.403 1.68.117 1.643.477 1.864 1.03.197.49.387.59.947.54 1.92-.635 2.884-.97 4.22-2.3.165-.03.355 1.4.458 1.45.015-.23-1.36.17-3.47 1.4-1.725 1.003-2.4 1.15-2.618 1.42-.163.2.256.835.3 1.523.037.58-.354.86-.066 1.04.334.21.848.17 1.524-.004 1.49-.36 2.587-.94 3.926-1.767-.284.535.193 1.896.193 1.896s-.664-.464-1.208-.224c-1.05.457-2.743 1.08-3.2 1.19-.444.103-.636.16-.81.306-.214.18-.18.61-.183 1.25 0 .443-.13.855.15.99.628.2 1.89.136 3.176-.31.55-.24 1.71-.87 1.71-.87l-.362 1.88c-.49-.546-1.89-.143-2.825.225-.473.148-.615.444-.735.855-.21.702.24 1.186.754 1.416.345.154.875.09.875.09-2.43.92-1.947 1.26-3.364.562-.614-.66-1.214-1.36-1.448-2.216zm2.544 0c-.404-.463-1.106-.73-1.514-.545-.362.19-.232.596-.115.9.308.85 2.44.58 1.63-.354zm-1.418-2.344c.57-.742-.056-1.742-1.108-1.75-.73-.003-1.12.45-1.115 1.02.015 1.08 1.746 1.35 2.22.73zm-1.168-2.83c1.052-.287 1.376-1.305.65-2.043-.52-.526-2.148-.59-2.58-.117-1.114 1.21.13 2.644 1.93 2.157zm.875-3.725c.62-.314.74-.84.19-1.44-.992-.84-2.725-.182-2.165 1.045.275.6 1.22.78 1.976.398zM55.69 122.33c.933-.34 1.605-1.06 2.585-1.61.66-.36.46-.303-.385-.796-.665-.305-2-1.65-2.124-1.33-.3.573-.26 3.706-.076 3.733zm23.55 32.82c.04-.64.116-1.603.1-2.31.125-1.347-.118-.954-.85-.514-.54.35-1.41.877-1.75 1.046-1.344.667-1.183.7.707 1.608 1.588.706 1.767.637 1.795.17zM77.398 152c1.284-.806 1.71-1.22 1.773-2.125.01-1.04-.11-1.417-1.03-.697-3.12 2.455-6.34-2.363-3.48-5.04.59-.545 1.33-1.4 1.33-1.616.05-1.553-1.702-.045-3.14 2.087-1.583 1.94-2.573 4.363-1.18 6.692 1.117 1.704 3.598 2.04 5.737.7zm-7.095-3.137c-.06-.76.156-1.61.255-1.86.35-.89.337-1-1.254-.26-.634.21-1.392.38-1.683.38-1.3-.007-.97.4.89 1.946 1.876 1.553 1.938 1.694 1.798-.2zm4.424-7.44c.2-.47-.215-.65-.61-.56-.03.01-.712.516-1.513 1.14-2.427 1.906-4.208 2.13-5.412.68-1.22-1.47-.71-3.214 2.02-5.21 1.204-.88 1.493-.94.914-1.325-.44-.293-.47-.25-2.2.918-3.487 2.35-4.532 3.957-4.182 6.297.07.96.576 1.463 1.065 1.84 3.32 2.93 7.94-1.114 9.91-3.778zm3.52 1.39l-.21-3.236c-3.547-3.044-6.91-8.243-8.07-12.55-1.187-3.83-.243-11.815-.065-11.222l-1.915-3.612c-1.667 3.835-2.395 9.682-.58 15.64 1.54 5.056 4.623 11.18 10.842 14.982zm-14.937-1.89c1.126-2.152 1.16-1.92-1.016-1.94-2.484-.02-2.206-.32-.806 1.79 1.125 1.698.936 1.846 1.82.15zm1.492-2.95c1.43-.457 1.104-.352 3.003-1.58 2.18-1.413 2.27-2.185.082-1.097-2.81 1.398-5.278 1.04-6.193-.78-.817-1.625.886-3.65 3.692-4.443.957-.27 1.462-.5 1.465-.918.01-1.275-4.76.424-6.73 2.35-3.8 3.71-.475 8.116 4.68 6.47zm-6.14-5.78c.127-.194.468-.66.783-1.14 1.344-1.556.214-1.09-.98-1.516-.63-.23-1.278-.46-1.648-.404-.715.106.24 1.48.47 2.366.643 1.974.57 1.913 1.373.693zm5.084-3.56c2.406-.233 2.652-.465 2.655-.96.01-.494-.29-.4-1.5-.233-3.2.444-5.32-.367-5.78-2.065-.47-1.755 1.7-3.415 4.59-3.317 1.562.052 2.604-.486 1.652-1.004-.496-.27-4.805-.21-5.78.07-2.864.83-4.03 2.416-3.77 4.61.397 2.71 1.884 3.488 5.508 3.296.695-.037 1.58-.315 2.43-.398zm1.862-8.827c0-.42-.686-.483-2.958-.82-3.027-.445-4.38-3.233-2.555-4.91.69-.636 2.34-.91 3.256-.742 2 .363 3.22.77 3.24.097.004-.6-.575-.64-4.32-1.43-5.66-1.19-8.765 4.34-4.24 7.04 1.72 1.03 7.574 1.61 7.58.77zm1.4-7.91c.003-.21-.18-.373-.61-.54-.622-.243-1.04-.287-2.445-1.23-1.868-1.252-2.434-3.696-1.188-5.06 1.21-1.27-.968-2.773-2.703-1.34-1.802 1.49-1.65 3.83.425 5.684 1.91 1.706 6.515 3.48 6.52 2.484zm-9.167-.33c1.97-.92 3.38-.39 1.88-1.66-.843-.78-1.564-2.99-2.15-1.112-.45 1.12-.78 3.096-.793 3.29.132.134.102-.095 1.07-.516zm69.57-4.77c-2.24-.552-3.77-3.14-3.2-5.63.324-1.406 1.65-4.72 1.914-4.925.99-.78.853.26-.054 2.06-.83 1.843-1.475 3.323-1.22 4.418.366 1.56 1 2.75 2.628 3.143 1.144.28 2.222-.196 2.953-.71.97-.68 1.884-2.422 2.976-4.835.35-.68.82-2.763 1.4-1.49.28.657-2.05 5.035-2.92 6.145-1.096 1.4-2.95 2.218-4.474 1.83zm13.506-1.462c1.09 1.04 2.935 1.565 4.14 1.19 2.954-1.034 4.296-3.812 3.178-8.28-.566-2.502-1.05-4.06-1.54-4.37-.24-.15-.5.13-.73.48-.206.31.11.75.445 1.927 1.412 4.967 1.042 7.21-.68 8.16-2.5 1.376-4.643-.21-5.368-3.75-.117-.547-.46-1.663-.46-1.663-.19-.49-1.74-.383-1.177 1.265.17 1.276 1.35 4.32 2.19 5.048zm12.674-13c-.04-1.744-3.73-9.32-3.98-8.517 0 0-.018 1.77.127 2.467.056.262.247.505.405.786 3.21 5.69 2.714 9.7-.07 10.58-.944.428-1.15.85-.73 1.29.86.928 3.01-.906 3.428-1.572 1.053-1.493.907-4.217.823-5.033zm-53.697-1.29c1.21-1.34 3.86-5.98 4.677-8.41 2.514-7.24 5.156-15.563 5.886-23.26.08-.97.132-2.45.18-2.575-.197-.21-1.444-.1-1.862.11-.2.26-.063.84-.134 1.59-1.125 8.65-3.202 16.536-6.28 24.56-1.348 3.485-2.6 5.78-4.222 8.204-.282.423-.642.86-.784 1.105-.41.59-.11.974.365.724.84-.474 1.57-1.387 2.175-2.043zm-4.12 2.107c3.855-5.28 6.596-11.62 8.726-19.103 1.344-4.85 2.53-9.75 3.24-14.74.145-1.07.262-1.78.053-2.1-.52-.14-1.49-.056-1.83.202-.204.31-.066.932-.257 2.37-.493 3.716-1.232 7.45-2.478 12.333-3.29 10.812-6.316 16.866-10.288 22.163-.32.446-.606.736-.577.925.04.277.423.255 1.06-.14.82-.644 1.763-1.21 2.35-1.92zm-5.873 2.8c1.887-1.065 5.207-5.703 7.554-10.697 2.632-5.896 4.835-12.556 6.278-18.324.625-2.53 1.515-8.84 1.388-9.26-.15-.498-1.994-.08-1.738.26 0 0-1.83 10.14-3.802 15.74-3.658 10.38-6.82 17.422-10.226 20.81-.446.443-1.325 1.31-1.325 1.31s.02.387.3.447c.68.125 1.13-.07 1.57-.295zm-2.886-.413c4.256-2.372 9.24-13.45 13.31-27.357.695-2.38 1.967-10.347 1.967-10.347s-1.69.063-2.02.418c-.33.49-.27 1.71-.75 4.62-1.83 8.8-4.59 16.83-8.73 24.76-1.794 3.515-4.775 6.825-6.656 7.767-1.053.527-1.36 1.108-.59 1.15 1.297.046 1.413.317 2.355-.19zm58.315 123.88c-3.19-.01-5.91 3.042-8.32 6.878-5.14 7.86-8.59 20.997-9.43 27.978l1.93-.364c-.29.13 3.623-18.59 9.586-26.6 3.224-5.06 3.09-5.13 4.897-5.6 2.287-.587 4.123 1.88 2.987 3.368-.41.504-.86.134-.733-.583.407-2.29-2.942-2.73-3.88-.48-1.074 2.586 1.787 4.893 4.58 3.876 2.5-.88 3.548-4.36 1.794-6.934-.9-.87-2.203-1.64-3.42-1.546zm-16.8-.32c-3.83 4.785-5.72 9.702-8.06 16.415-2.35 6.707-4.03 13.268-4.76 20.796l2.06-.265c-.08-4.84 5.24-27.883 12.72-36.515.41-.546.75-1 .72-1.127-.42-1.16-2.19.24-2.68.7zm8.44-1.786c-4.96 4.05-8.91 12.89-11.52 21.06-2.82 8.84-4.09 16.93-3.87 16.93l1.96-.29c-.147-.51 5.53-31.64 16.06-37.3.912-.452 1.104-.91.334-1.11-1.185-.164-2.14.224-2.97.72zm5.54.02c-10.816 1.42-17.88 34.51-18.12 37.26-.004.045-.04.258-.04.258l2.154-.44.027-.16c1.484-8.453 2.93-14.38 6.3-22.02 2.627-5.663 6.25-12.903 11.667-13.605.44-.057.856.12.702-.392-.33-.81-1.95-.914-2.693-.89zm-64.45-10.42c-3.91 1.01-4.037 5.68-1.434 11.65.197.45.162.7.36.87.446.39.795-.15.845-.51.075-.54-.16-1.27-.57-2.33-1.61-4.133-1.22-6.514.37-7.567 4.09-2.1 5.19 2.216 5.81 4.2.15.485.205 1.15.47 1.186.817.112 1.206-.177 1.194-.177 0 0-1.083-3.716-1.743-5.11-1.07-2.26-3.61-2.734-5.295-2.2zm-28.36 4.42l-.04 49.256-7.483 7.014c-3.21-2.748-7.43-7.05-7.43-7.05l.133-83.267-2.407-.192c-.59 35.777-.17 72.086-.2 107.93l22.125.164 18.31-28.54s.23-.34.305-.52c.224-.55.2-1.372.09-4.407-.047-1.235.092-2.18-.09-2.47-.185-.294-.576-.085-.94.08-.37.165-.59.106-.393-.33.114-.25.48-.79.797-1.31 1.027-1.685 1.28-2.224.93-4.09-.084-.46-.506-.85-.874-1.39-3.08-4.54-4.336-11.27-2.806-16.2.49-2.18.318-2.62-.74-4.32zm96.848-52.96c-2.01-1.03-1.97-1.008-1.98.943.01 1.46.04 1.813.585 1.616.794-.404 1.763-.773 2.495-1.084 1.4-.48-.378-1.092-1.098-1.476zm7.968 5.073c-1.56-1.244-.985-1.1-1.427 1.704-.267 1.696-.61 1.74 1.144 1.18.996-.345 3.045-.128 2.126-1.296.007.02-1.537-1.326-1.843-1.586zM91.79 206.5c-2.394 1.448-4.84 8.46-4.84 8.46-8.37.994-11.872 9.213-12.246 16.067-.296 5.41-.663 11.727-.117 12.28 5.49-2.463 7.603.38 8.123-.386.237-.33-1.217-1.44-3.044-2.44-.425-.23-1.083-.64-1.33-.85-.668-.55 1.33-.072 2.59.78 1.61 1.1 1.88.87 1.18-2.33-.758-3.47-.882-3.9 1.792-5.28 1.07-.55 1.68-1.02 2.445-1.87.613-.687.77-.855.544.154-.39 1.747-1.946 2.51-3.347 3.218-.697.36-.985 1.077-.99 1.693-.003.63.72 4.023 1.055 5.11.31 1.03.424 2.063.664 3.114.62 2.726.67 3.26.35 5.24-.19 1.16-.28 1.823-.22 2.524l.143 1.504c.004-.03-1.494-1.534-4.77-.245-2.363.925-4.23-.04-5.554-.73-.304 1.074-.235 2.24-.198 3.473 13.622 2.49 25.26 2.156 35.054 1.132.253-2.894 1.49-12.094 4.083-20.39 1.08-3.453 2.3-7.092 3.676-9.52.936-1.656 1.894-2.772 2.233-2.965.104-.064.114-.097.11-.14 0-.094.003-.17-.002-.26-.038-.54-.168-1.37-.63-1.74-1.13-.9-2.937.26-3.53 2.27-.52 1.2-2.89 6.41-3.06 6.32-.14-.087-.47-.094-.35-.496.91-2.11 2.156-4.34 2.86-6.235.97-2.73 3.08-4.17 4.654-2.45.54.59.757 1.133 1.005 1.32.19.14.44.045.594-.19.596-.894-.782-2.925-2.26-3.333-2.135-.59-3.725.964-6.146 6.01-1.396 2.91-1.646 3.64-1.867 3.416-.05.02-.42.02-.284-.545.29-1.213 2.144-4.736 3.487-6.97 1.99-3.31 5.68-3.577 7.23-.706.24.39.25.903.515 1.252.477.615 1.26.492 1.454-.518-.21-.67-1.51-3.088-2.41-3.51-2.077-1.425-4.596-1.145-6.717.746-.48.43-.984 1.3-2.39 4.154-2.07 4.574-2.127 4.59-2.693 3.855.834-2.225 3.025-5.84 3.91-8.06.168-.33.2-.684.19-1.026-.05-1.61.212-4.463-3.2-6.488-2.91-1.568-6.756.08-8.064 3.166-1.004 2.36-1.736 3.985-2.24 4.32-.71.47-.578-.185-.508-.423 1.01-2.14 2.43-4.3 2.654-6.45.148-5.824-5.76-7.977-9.6-5.038zM61.3 97.378c4.61-2.14 7.766-3.22 12.463-4.603.636-.278.737-.34.064-1.674-2.976-5.88 5.19-10.58 7.965-4.8.37.77.455 1.2.82.83.682-.89 1.493-2.16 2.336-3.61 3.122-4.84 4.537-10.36 6.202-15.23.69-2.86 1.658-5.852 1.93-8.92-6.196-10.785-10.513-21.16-17.092-30.76l-43.382-.03-.163 86.677C44.57 105.137 52.827 101.48 61.3 97.38zm48.833-3.184c.528-.555.983-1.477 2.87-5.346.337-.69.874-1.76 1.093-2.26.283-.91 1.343-1.48.827.15-.118.353-.32.828-.64 1.46-.628 1.127-1.224 2.508-1.67 3.41-2.413 4.832-2.3 7.648.397 9.745 2.013 1.924 6.24 2.14 8.492-.966.335-.5.635-1.144.732-1.38.978-2.372 1.7-3.558 1.885-3.793 1-1.27 1.16.303-.34 2.726-1.716 2.773-1.746 5.782-.26 7.9 2.193 3.135 6.364 3.225 8.982.71 1.36-1.596 2.442-3.624 3.313-6.217.19-.574.39-1 .53-1.338.22-.52.533-.712 1.346-.868 5.573-1.066 10.25-6.783 10.913-13.024.085-.844.325-2.338.413-3.225.176-1.77.18-10.93.005-11.477-.095-.29-.26-.45-.624-.44-.277.005-.67.1-1.237.305-1.837.654-2.69.82-4.457.19-.582-.21-.985-.28-1.225-.26-.777.068.26 1.184 2.53 2.417.97.53 1.74 1.24.95 1.188-.23-.015-2.967-1.43-3.346-1.662-1.247-.763-.922.2-.28 2.733.864 3.4.367 4.357-2.32 5.69-.502.25-1.167.767-1.506 1.1-1.425 2.105-1.057.555-.34-.565 1.225-1.282.473-1.72-2.04-.83-2.867 1.014-4.162.273-4.964-1.32-.91-1.8.8-4.117 2.22-4.072.46.017.377.18-.3.645-.82.56-1.21 1.1-1.295 2.056-.174 1.95 1.22 2.776 3.17 1.47.92-.617 1.643-1.043 2.34-1.202.69-.156 1.73.1 1.724.65-.002.23-.034.788.015.91.183.618 1.17-.255 1.6-.565 1.467-1.095 1.42-1.31 1.02-3.09-.657-2.49-.988-4.764-1.61-7.287-.336-1.324-.39-2.817-.19-4.164.1-.675.365-2.063.42-3.013.052-.95-.007-2.307.03-2.307 1.455 1.114 2.047 1.31 3.47.77 2.2-.9 3.59-.81 5.443.08.686.326 1.31.557 1.31.557l.085-2.857s-1.717-.354-4.888-.77c-9.548-1.255-29.14-1.52-29.87-.367-.184.29-.37 2.332-.89 5.17-1.155 5.894-2.45 11.77-4.182 17.524-.356 1.17-.696 1.644-.514 1.68.075.013.43-.44.594-.63.93-1.07.22 1.472-1.183 4.536-.125.28-.23.58-.23.675 0 .186-.882 2.32-1.49 3.613-.377.802-.69 1.044-.686.53.425-1.764 1.55-4.048 1.713-5.62-.984 1.424-2.42 3.775-3.51 5.178-.2.38.01.496.188.963.652 1.744 2.235 1.9 3.15.32.51-.88 2.094-4.198 2.645-5.65.568-1.494.967-2.28 1.155-2.38.38-.2.45.65-.22 2.064-2.04 4.287-2.916 6.69-3.915 7.577-.774.69-2.116.648-2.86-.58-1.264-2.072-2.34-1.39-1.183.74 1.195 2.2 3.932 2.408 5.36.428.47-.657 2.69-4.89 3.39-6.614.39-.962.807-1.71.946-1.764.746-.286-.104 1.91-2.245 6.305-.693 1.696-1.807 3.477-3.315 4.03-3.665.8-4.16-1.137-5.436-3.344-.62-.55-1.18.33-.946 1.3.385 1.576 1.105 2.19 2.215 2.98 2.318 1.477 5.54.46 6.71-1.22zm16.348 9.196c-.33-.737-.28-1.483-.11-2.18.388-1.57 1.02-3.09 1.767-4.416 1.204-.57.285 1.694.134 2.03-1.452 3.024-1.59 4.194-.235 4.543 1.16.3 1.784-.41 2.88-3.12.564-1.393.79-2.01.99-2.09.42-.168.625.002.6.426-.726 1.78-1.294 3.652-2.485 5.13-1.168.976-2.925.98-3.535-.325zm-10.88-2.325c-.5-.1-1.37-.75-1.97-1.3-2.05-1.877-1.71-4.47.83-9.347.2-.38.94-1.854 1.178-2.338.426-.868.845-.528.84.046 0 .16-.635 1.508-1.276 2.757-2.81 5.485-2.712 7.722.017 9.027 2.663 1.273 3.856.54 5.98-3.646 1.227-3.143 1.833-3.195 1.766-2-.002.445-1.49 3.46-2.45 4.86-1.39 2.03-2.593 2.39-4.91 1.94zm.2-2.647c-1.04-.647-1.47-2.255-.85-3.57.564-1.087 2-5.247 2.68-5.482 1.088-.037.508.873-.84 3.432-1.595 3.39-1.54 4.295-.31 4.814 1.14.48 1.68-.504 3.36-4.468.265-.622.63-1.27.85-1.133.266-.02.73.18-.153 1.98-.21.43-.565 1.33-.958 2.17-1.15 2.45-2.454 3.08-3.776 2.26zm18.87-7.195c-.46-.237-2.61-1.083-2.29-1.784.037-.07.163-.02.227.03 1.976 1.32 4.43 1.65 6.99-.18.43-.38.755-.13.514.35-.776 1.533-4.227 2.19-5.435 1.58zm-6.34-2.23c.06-.146.24-.585.4-1.176.234-.888.18-1.542.39-1.428.893.48 2.493.49 3.276.01.86-.527 2.6-.686 3.235-.27.908.59 1.37.312 2.005-.18.716-.56.73-.32 2.024.13.956.33 1.332.56 1.74.48.155-.027.47-.38.572-.363.31.057.347.94.63 1.945.255.89.11 1.105-.69.572-.593-.398-2.3-.585-4.08-.04-1.313.402-1.62.24-2.582.077-2.406-.406-4.142-.72-5.936.318-.957.554-1.305.84-.98-.083zm-5.99-4.397c-1.16-2.337 1.52-5.43 3.88-4.338.784.362 1.48 1.734.32 1.105-5.36-1.08-4.02 6.762 1.737 2.62 3.826-2.538 6.534-2.93 6.76-.476-.107.9-.91.757-1.517.84-1.587.22-2.173.478-4.01 1.264-2.798.88-5.53 1.6-7.164-1.01zm20.99 1.08c-1.307-.336-2.444-.852-3.81-1.1-1.35-.234-1.96-.938-1.715-1.886.253-.985 1.606-1.09 3.64.15 2.254 1.375 3.89 1.708 4.713 1.19 1.667-1.05.767-2.755-.824-3.19-1.197-.334-.317-.797.967-.415 2.073.785 2.117 4.526-.014 5.302-.713.26-1.97.19-2.96-.052zm-18.27-12.384c1.524-.94 2.994-1.78 3.518-2.34.275-.294 1.04-1.282.446-.98-3.106 1.862-6.71.315-9.32-.96-1.257-.586-.948-.326-1.91-.262-.654.043-1.18.18-1.296-.286-.05-.206-.417-.12-.65-.143-.965-.09-.356-1.37 1.672-2.77 2.39-1.66 4.47-2.74 6.54-3.184 2.15-.464 4.343-.202 5.952 1.344.618.593.563.99 1.128.625 1.29-.835 1.3.27.215 1.293-.748.702-.475.893.44 1.56.434.32.077.624-.166 1.088-.096.287-.02.6-.067.81-.205 1-4.757 4.53-6.405 5.13-1.13.215-.537-.64-.104-.92zm3.16-6.484l-.754.01c-.86 2.623-2.447 3.517-3.77.373l-.6.06c-.028 2.67 4.56 4.34 5.127-.44zm-4.97 2.46c-.31-.522-.66-1.72-.987-1.738-.887-.038-2.114.122-1.823.67.45.87 3.17 1.674 2.81 1.068zm6.084-.468c.82-.49.992-.83.46-1.37-.69-.7-1.05-.343-1.267.772-.186.958-.052 1.114.806.598zm-11.093-1.844c5.48-2.476 7.56-2.796 9.786-2.183.517.142.974.43 1.262.412 1.066-.063.386-1.256-1.527-1.94-2.185-.78-3.57-.424-7.773 1.763-2.46 1.28-4.457 3.174-1.744 1.948zm15.884-3.005c-.078-.14-.41-1.13-.505-1.49-.095-.36-.18-.73-.28-.73-2.545.41-4.78-.07-5.38-.21-3.847-.914-7.563-.73-10.337.356-.68.265-1.52.694-1.6.77-.22.204-.543-.03-.54-.284 0-.3 1.703-1.646 2.776-2.176 3.263-1.617 6.707-1.89 10.49-.877 2.463.942 4.05.79 5.626.1.773-.34.225.498-.02 1.608-.17.768.017 1.425.05 1.86.095 1.05-.024 1.574-.285 1.078zm57.288 221.44v-86.85c-14.41 10.62-41.68 21.7-41.68 21.7 3.433 6.987-4.13 12.965-8.47 5.87-4.466 5.006-10.618 22.537-10.836 28.36 0 0 11.878 20.706 17.673 30.927zM112 256.79c.396-4.36 1.33-11.75 4.238-20.354 1.22-3.608 2.694-7.75 4.773-11.456.83-1.298.89-1.8.007-1.333-.556.293-3.097 3.154-3.443 3.877-3.897 8.212-5.7 18.078-7.13 25.61-.322 1.694-.42 3.8-.42 3.8zm2.852-.355c.926-10.593 4.83-24.895 10.696-34.217.55-.888 1.23-1.658 1.204-1.966-.077-.905-2.335.66-4.088 3.335-1.957 3.872-3.917 8.003-5.417 12.577-2.117 6.458-3.662 12.42-4.264 20.516zm5.635-.885c.59-6.106 2.488-11.706 4.08-17.316 1.945-6.86 4.54-11.91 7.57-16.455.97-1.46 2.114-2.83 3.202-4.22.14-.167.28-.468.243-.594-.7-.12-1.255.096-1.796.4-.757.42-1.818 1.485-2.438 2.274-4.31 5.49-6.63 11.896-8.783 18.37-2.064 6.217-3.553 12.196-3.844 17.825zm-38.712-4.68c.867-.068 1.426.095 1.677-.135.25-.23.17-.844.246-1.63.17-1.68-.005-1.587-1.056-.502-1.74 1.798-4.918 2.49-6.807 1.405-.954-.548-1.617-.928-1.707-.472-.104.53.04.938.45 1.222 2.288 1.042 4.46.326 7.197.112zm-2.046-1.287c1.202-.4 2.43-1.042 3.12-2.023.652-.937.64-1.07.143-.89-2.45 1.2-4.06 1.812-6.25 1.48-2.965-.45-3.088-.073-1.128 1.152 1.28.802 2.345.825 4.11.28zm-4.357-3.753c.46-.34.577-1.716.207-1.795-.373-.08-.92.605-1.053 1.16-.15.74.4.93.847.634zm4.59-.06l.79-.07c-.404-3.455-4.16-3.604-4.853.344l.597.088c.774-3.147 3.045-3.06 3.47-.363zm2.477-.557c1.15-.64.754-1.43-.796-1.733-1.018-.24-.96.59-.435 1.717.26.56.445.455 1.23.017zm-8.843-4.23c-.01-.386-.17-1.006-.35-1.38-1.326-2.708-2.057-5.906-1.907-9.88.11-2.85.144-3.73-.45-3.735-.83.398-1.32 5.7-.262 10.114.744 3.113 3.024 6.98 2.97 4.88zm-.034-4.316c-.08-1.488.247-4.825.083-5.553-.215-.956-.78-1.82-1.103-2.05-.496-.357-.62.328-.45 2.116.405 4.195 1.08 7.373 1.47 5.487zm.42-7.638c.326-.59.2-1.22-.523-2.62-2.84-5.53-3.207-9.31-.24-10.68.332-.157.54-.186.763-.308.936-.518.58-1.457-.82-1.07-3.862 1.07-4.624 4.68-1.367 11.358 1.66 3.333 1.916 3.8 2.188 3.31zm.702-3.14c.05-.23.15-1.137.19-1.32.037-.188-.353-.72-.77-1.78-1.093-2.787-1.116-3.94.072-4.75.386-.224.783-.235.843-.495.095-.403.088-1.067-.155-1.26-1.705.013-2.49 1.005-2.79 1.95-.45 1.49.02 3.676 1.356 6.384.65.846.99 2.39 1.258 1.27zm1.3-3.6c.91-1.84.046-4.217-1.21-3.406-.812.527-.853 1.084-.354 2.612.61 1.86.97 1.99 1.565.79zm3.195-4.91c.366-.36.04-.88-.632-2.91-.576-1.736-.312-2.923.788-3.266 1.577-.387 2.135 2.187 2.467 3.273.17.84.723 1.07 1.213.486.137-.165.176-.3-.057-1.215-1.018-3.99-2.35-5.26-4.495-4.266-1.988.92-1.727 2.982-.286 7.317.195.58.324 1.01.46 1.07.117.05.34-.295.545-.495zm1.76-1.36c.473-.465.445-.254-.094-1.92-.616-1.9-.94-2.294-1.6-1.64-.405.4-.2.84.263 2.395.535 1.806.68 1.91 1.43 1.17zm82.42-6.5c3.14-2.16 1.845-6.032-2.284-7.47-.49-.17-1.026-.373-1.194-.454-1.896-.91-3.373-1.193-3.377-.48-.004.417.566.63 2.385 1.512 2.69 1.307 3.3 2.817 1.97 4.722-.956 1.372.837 2.944 2.5 2.168zm2.85-4.714c.273-1.11.68-2.06.872-2.705.266-1.01-.077-.775-.748-.617-1.73.893-2.968.407-2.128 1.64.933 1.635 1.704 2.9 2.003 1.68zm-.214-3.873c2.155-1.288 2.633-4.64.627-6.24-.48-.383-1.31-.887-2.314-1.192-2.04-.62-4.987-.903-6.067-.577-.23.273-.24.702-.01.827.303.11.846.185 1.63.264 3 .305 4.48 1.195 4.336 3.318-.146 2.19-1.9 3.03-5.066 2.34-1.702-.373-2.495-.194-1.812.204.813.472 2.56 1.09 4.28 1.43 1.473.257 3.15.356 4.4-.37zm-10.345-.55c2.428-5.43 3.706-19.67-10.16-29.966l.46 2.85c8.17 7.135 10.13 16.222 8.44 24.56zm12.378-9.736c-.866.56-1.592 1.144-2.706 1.64-.664.3-.68.37.22.863.44.24 1.16.678 1.44.975.48.514 1.047.712 1.26.525-.026-.81.25-3.48-.21-4.005zm-4.1 1.03c2.806-.885 4.31-2.23 3.99-4.485-.47-3.307-3.244-4.006-8.437-2.714-2.497.622-2.72 1.79-.35 1.19 2.995-.76 5.345.39 5.027 2.575-.186 1.884-1.707 2.982-4.376 2.982-1.41 0-1.842.124-1.652.63.13.344 4.642.184 5.8-.18zm-4.637-7.853c4.59-1.57 6.725-4.008 5.676-6.74-1.234-3.215-5.24-3.25-9.265-.254-1.88 1.37-1.59 1.88.23 1.18 2.365-1.08 3.88-1.247 4.85-.387 1.75 1.552.57 4.26-2.08 5.232-1.28.53-1.693.825-1.695 1.208-.004.61.23.46 2.29-.24zm7.743-.05c.12-.954-.96-4.255-1.426-3.495-.125.2-.553 1.13-1.095 1.615-1.58 1.41-1.28.876.29 1.31.87.24 2.1.85 2.23.566zm-12.14-7.056c4.64-2.68 6.412-6.507 4.008-9.05-2.16-2.287-5.742-.956-9.07 3.2-1.527 1.907-.38 1.667 1.676-.145 2.398-2.11 5.446-1.09 5.43 1.543-.008 1.125-1.606 3.02-3.117 3.9-.47.27-.538.69-.37.962.177.293.553.104 1.446-.412zm8.135-2.797c-.243-.72-1.99-3.812-2.364-3.706-.395.794-.424 1.837-.9 2.678-.645 1.265-.563 1.067 1.497 1.06 1.537-.004 1.72.21 1.77-.03zm-13.64-3.495c3.9-4.033 4.244-8.755.59-9.84-2.022-.6-5.257.855-5.266 2.36-.003.938.17 1.108.99.77 3.448-1.275 6.178 2.026 3.01 5.82-.77 1.1-.87 1.376-.65 1.603.267.267.48.167 1.33-.71zm41.99-34.485V29.062H168.56L150.44 57.28l-.027 6.985c0 .24.41.39.678.088 1.03-.794.64.04-.55 1.837-1.19 1.82-.83 3.318.48 5.258 2.78 4.112 4.227 11.66 3.04 15.65-.44 1.507-.54 2.115-.25 2.958.33.964.537 1.48 1.5 2.1.837.582 7.73 3.26 18.83 10.377l-.053-50.216 6.996-6.683 7.39 7.048.26 82.907c0 .87 1.72 1.27 2.65.36zm-4.002-83.036l-6.188-5.745-6.116 5.66c-.03 27.003.158 82.427.158 82.427l6.077.434s.447-1.262-.122-4.53c-.853-4.904-.8-10.895.57-20.005.857-5.59.008-10.436-1.29-15.54-1.124-3.4-1.164-6.547-.96-9.59.43-4.85 1.77-8.513 1.936-15.492.09-3.98-.1-7.876.045-12.784.06-.657.34-.575.388.103.188 4.443.36 8.66.4 13-.132 5.64-1.515 11.445-1.67 16.61-.11 3.575-.17 4.812 1.346 9.17 2.38 6.84.81 17.355.783 17.542-1.01 6.735-1.746 15.353 1.66 21.8l3.3.293zM144.8 103.86c1.826-.837 2.187-2.313 1.204-5.87-.175-.634-.375-1.388-.444-1.676-.21-.877-.607-.974-1.135-.276-.315.417-.024.514.46 2.47.733 2.955.307 3.932-.795 3.925-.977 0-1.737-.804-2.016-2.72-.096-.656-.235-1.1-.393-1.364-.26-.44-.58-.36-.84.12-.33.63.3 3.214 1.13 4.467.906 1.264 1.53 1.524 2.84.924zm-.497-2.654c.388-.728-.093-2.52-.345-3.692-.23-.655-.495-.815-.93-.71-.646.16-.615.865-.38 2.027.476 2.36.734 2.66 1.655 2.37zm5.55-4.27c2.088-1.186 2.287-3.233.884-6.957-.575-1.53-1.292-2.6-1.687-2.617-.155.97-.298 1.488-.125 1.87.163.353.438.895.634 1.348 1.18 2.747.86 4.33-.28 5.19-1.08.806-.4 1.48.57 1.17zm-68.36-1.43c4.9-1.045 9.317-8.893 12.1-15.893 2.535-7.05 5.23-14.794 5.657-21.26 0 0-1.853.09-2.08.47-.21.378-.302 1.19-.5 2.34-1.276 5.947-2.29 10.46-4.52 16.047-1.546 3.878-3.234 8.268-7.423 14.164-1.376 1.648-2.95 2.67-4.928 2.945-.51.07-1.36-.03-1.57.12-.38.265-.04.864.93 1.106.87.215 1.75.074 2.33-.04zm67.5-.918c.747-.792.82-1.733-.018-3.723-.235-.558-.343-.874-.622-.797-.59.165-1.28 1.713-.872 3.023.54 1.708.85 2.207 1.52 1.497zm-69.21-1.246c1.436-.19 3.254-1.328 4.567-3.112 2.7-3.52 4.562-7.524 5.943-10.637 1.106-2.504 3.103-7.92 3.646-9.88 1.15-4.166 1.78-6.854 2.3-9.836.05-.273.092-.71.01-.852-.57-.154-1.815-.062-2.197.32-.688 4.783-2.287 9.58-3.456 13.57-1.97 6.783-7.59 17.636-10.653 18.15-1.647.273-3.534-1.154-3.23-2.62.185-.9.31-1.24.75-1.466 1.07-.378 1.69.35.52.82-1.358 1.175 1.085 2.973 2.585 1.72 2.54-2.13-1.195-6.21-4.254-4.335-3.39 2.076-2.518 5.673-.388 7.382 1.074.86 2.32.983 3.843.78zm23.994-4.87c2.094-2.142 3.666-4.914 4.81-8.38 2.478-7.784 4.533-16.707 5.278-23.697 0 0-1.788-.184-2.186.192-.29.266-.02.52-.78 5.628-1.28 7.446-3.14 14.842-5.83 21.244-1.108 2.59-1.42 2.9-2.2 4.25-1.088 1.9-.685 2.38.9.76zm46.445-16.228c-.194-.1-.178-.034-.26.023-.286.196-.1 1.19.55 2.726 1.705 2.75 1.905 8.078 1.793 10.08-.034.6-.096.947.087 1.48.18.526.5 1.136 1.01.114.562-3.944.12-8.074-1.396-11.42-.535-1.19-1.06-2.35-1.784-2.997zm1.314 11.634c.3-1.062-.254-5.27-.94-6.75-.275-.597-.774-.643-.714.035.005 1.46-.153 4.237.005 5.058.745 1.72 1.326 2.81 1.65 1.667zm-3.864-17.006h-.806c.028 2.754-2.422 3.52-3.325.213l-.72.168c.97 4.67 5.32 2.53 4.86-.38zm-4.897 2.076c-.418-1.222-.245-1.668-1.307-1.12-.81.42-1.298.867-.155 1.415 1.016.43 1.727.48 1.462-.29zm6.135-.704c.337-.677.297-1.29-.21-1.292-.39-.002-.5.308-.61.966-.2 1.174.292 1.39.82.326zm.427-4.574c.31-.098.222-.534.138-1.088-1.327-1.84-4.61-1.277-5.79-.91-1.363.44-1.704.275-2.63-.148-.768-.142-.875.044-1.062.408-.164.322-.193.932-.246 1.995-.045.9-.013 1.316.3 1.036 1.217-1.084 2.624-2.443 4.677-2.53 2.49-.1 4.614 1.28 4.613 1.24zm-9.04 2.49c-.004.37.314.14 1.124-.367 2.95-1.74 4.66-1.493 7.18-.66.56.184.91-.4.3-.9-2.99-2.455-6.68-.89-8.6 1.932zm10.678-11.306l15.988-26.357-89.072-.066 15.13 27.98c12.338-2.842 32.64-6.48 57.96-1.56z" fill="#131f67"/><path d="M71.98 261.036c1.888-2.806 11.23 2.194 11.724 4.174 5.53-4.34 12.244-4.655 17.647.777 5.56-6.055 11.51-5.64 17.69-2.134-.69-1.368 7.92-7.41 13.14-3.57l14.14 25.107-90.58.29c5.35-8.008 10.09-17.572 16.24-24.644zm-39.564-130.95c-.492-1.36-2.48-15.307 2.562-15.655 8.15 3.61 18.554 16.49 23.375 24.37 5.974 9.76 12.01 32.2 8.677 31.22-.482-.14 10.287 10.61 11.03 11.66 1.22 1.728-18.154 33.9-21.355 32.745-.967-.35-7.42-4.19-7.42-4.19l.186-10.734s10.14-19.96 10.71-26.63c.214-2.52-6.975-6.832-7.304-7.703-.82-2.17-.722-10.23-4.91-13.75-2.31-1.4-4.49-.953-6.832-.655-9.507-1.58-4.58-17.56-8.708-20.67zm158.99 7.164l.058 3.96c-6.258 1.36-17.32-3.926-20.67 4.59.416 9.198 2.482 13.322 3.925 16.1 1.08 2.495 8.69-.35 11.37 2.165 7.69 9.44 5.873 22.01 5.94 33.336l-3.34 1.69c-23.06-13.56-40.764-55.69-43.22-67.683-.154-7.7 21.158-32.446 21.158-32.446.05-.053 7.765 4.685 7.765 4.685.185.074-.165 32.476-.164 32.326 6.093.31 12 .906 17.166 1.287zm-46.846-29.615c-11.83 16.917-15.832 42.2-15.072 59.836 1.534 26.33 20.35 49.81 19.09 52.03-.213-.15-.71.11-.9-.06-4.332-3.84-7.36-3.17-9.575-3.202-4.237-.067-5.408 1.193-7.838 1.433-6.206.614-5.702.77-10.966-1.207-6.65-5.402-15.55-9.544-22.63-11.723-5.678.51-14.33 3.182-17.607 1.02 22.77-41.91 19.36-68.736-4.213-112.66 1.954.573 2.258 2.393 3.72 2.84 4.85 1.868 11.527 1.16 15.527-.58 4.346-1.95 8.447.906 8.39.81 8.556 6.025 18.907 9.91 24.295 12.596 1.593.82 3.605-.472 5.363-.827 3.6-.73 6.69-2.266 9.373-1.366.862.29 2.15.64 3.033 1.067zm-53.156-54.84C90.244 50.645 78.39 28.15 78.39 28.15l88.19.53-13.233 21.703c-1.248 1.178-7.464 4.46-13.803-2.974-.12 1.07-9.407 7.67-17.39-.28-4.806 4.35-9.707 6.87-17.79 1.97-.18 1.363-6.486 7.5-12.96 3.69z" fill="#e2cf00"/><path d="M101.053 265.484c-8.545-7.99-17.44-.778-17.236-.322-3.382-3.43-6.69-6.237-11.147-4.858 0 0 0-1.203.034-1.23 13.29 2.428 33.647 3.057 57.443-1.913l1.222 2.55c-6.39-2.26-9.68.79-12.5 4.36-10.25-6.38-12.75-.78-17.82 1.42zm19.93-92.926l6.045-.117c1.138 17.56 15.826 44.43 16.18 44.43-1.024-1.42-10.72-.3-10.65-.12-5.33-14.202-11.185-28.4-11.576-44.19zm-35.257 41.654s-1.945-5.034-3.11-7.187C88.964 196.2 94.17 184.997 96.84 172.54l4.323.038c-1.28 17.2-15.064 43.32-15.437 41.634zm77.766-2.303c9.52-17.16 7.878-41.89-19.133-55.56 0 0 .7-18.13 2.71-18.17.45.14 12.22-.15 12.22-.15 3.083-7.56 8.046-16.71 14.982-22.88l.173 20.26c-5.13.504-8.263 2.14-9.817 6.15l-7.11 1.58c.52 20.356 8.19 39.164 30.936 56.056-5.437 4.666-24.015 14.137-23.944 13.97zm-113.97-12.79l.203-21.1c3.45-.75 6.168.25 9.016-5.92 0 0 4.78 2.26 6.37 3.1-4.46 7.98-8.32 16.51-15.58 23.92zm45.284-37.36l.234-10.71 10.184.29c-.865 3.63-1.135 7.26.02 10.89zm23.233-.13c.69-3.51 1.19-7.03-.25-10.75l11.02.18-.26 10.67zm-20.97-20.95c-1.84-21.01-16.25-44.798-16.46-44.29 1.7.27 4.69 1.11 6.335.33 1.994.33 3.72.106 3.814-.08.133-.732 13.4 30.51 11.63 43.986-.21.455-4.895.486-5.327.05zm25.48.18c1.553-9.708 5.57-27.46 15.06-41.86 1.08 2.555 1.98 5.184 3.46 7.573-7.15 10.394-11.56 22.274-14.235 34.4zm-65.938-5.23c-4.34-8.847-22.397-22.77-21.474-21.36 7.475-6.696 15.81-10.946 24.132-15.24 0 0 1.478 1.402 1.254 1.755-5.116 8.05-7.597 25.114-2.644 34.893 4.76 10.445 13.204 16.62 21.812 21.47-.668 6.53-.994 11.25-2.6 17.743 0 0-5.41-2.842-9.844-4.67-.702-12.333-3.26-23.364-10.64-34.596zm47.823-86.66c6.363 3.872 12.063 3.464 17.59-1.796 6.936 6.287 14.437 3.36 17.61.524 2.93 3.3 6.753 5.133 12.342 4.042l-1.38 2.907c.33-1.545-38.548-4.06-57.358 1.2 0 0-1.1-2.19-.98-2.21 1.64-.1 7.087 1.917 12.178-4.67z" fill="#d40000"/><path d="M6.044 11.496v2.956l2.84-.153v25.52l-3.07.01v3.03h8.524v-3.03H12.11v-7.34l3.72-4.838 4.883 12.178H17.64v3.04h9.332v-3.04h-2.587L17.87 24.24l6.668-9.94h2.088v-2.804H17.64V14.3h2.823L12.11 26.485V14.3h2.228v-2.804zm71.05 15.957L92.81 56.698s.46-.085.69-.13c21.782-4.253 39.034-4.835 57.562-1.58l16.473-27.225c-29.98-.34-90.44-.31-90.44-.31zm1.752 1.246l87.39.09-4.916 8.05c-2.944-.908-4.584.44-4.997 3.26 0 0-.364-.158-1.046-.23-4.307-.466-4.85 5.204-.83 5.89 1.026.174 1.2-.03 1.2-.03-3.587 3.01-5.623.98-7.31-.014-.047.35-3.215 2.73-6.203-.115 4.28.427 4.945-3.856 2.9-5.486-.428-.42-.864-.75-.864-.75 1.006-.876 1.226-2.04.58-3.374-1.297-2.68-5.364-2.524-5.985.404-.242 1.14-.25 1.34-.25 1.34-3.284.214-3.95 3.31-2.822 5.03.64.98 2.052 1.19 3.355 1.124-1.756 2.484-5.775 1.64-7.565-.41-2.844 3.34-6.086 2.934-7.704 1.143 1.09-.012 1.85-.03 2.86-.96 1.72-1.594.873-4.42-1.56-5.213-.477-.154-.818-.186-.84-.188.013-.026.06-.18.17-1.034.6-4.93-6.79-4.444-6.07.407.08.564.23.865.23.865s-.785-.046-1.235.16c-4.104 1.893-1.276 7.1 1.897 5.76.3-.126 1.12-.527 1.24-.522-3.93 4.87-7.23 1.42-8.1.89-2.653 3.933-7.263 1.25-7.357.974.29.08 1.155-.1 1.976-.52 2.6-1.35 1.864-4.833-.162-5.59-.62-.217-1.37-.24-2.21-.174 0 0 .063-.877-.02-1.186-1.277-4.74-7.178-2.372-5.726 1.634.127.35.47.704.47.704s-.8.486-1.157.807c-2.818 2.532.05 6.71 3.34 4.973.425-.225.837-.696.955-.667-1.547 2.828-3.896 3.815-7.247 1.475-2.066 3.273-5.438 1.913-6.39.273 3.152.29 5.198-5.746-.858-5.943-.47-1.635-.447-4.132-4.286-3.702zm-20.448 3.51C55.11 40.93 45.83 48.813 40.455 58.63c-6.072 9.94-4.165 20.1 4.1 21.857 4.332.924 9.983-3.24 10.488-7.725.103-.916.44-1.4 1.056-1.324.48.06.43 1.24.25 2.66-.67 4.66-3.19 12.06-6.46 15.47l15.2.01c-.61-.345-6.29-7.44-5.737-16.042.01-1.54.01-2.05.69-2.047.55.003.554.26.716 1.77 1.024 9.55 12.897 10.582 16.626 1.45 1.88-4.61-.09-12.81-5.055-19.824-3.77-6.17-10.187-13.348-13.945-22.67zm6.7 57.36c.034.02.056.02.058 0zm56.425-50.527c.694 0 1.253.564 1.253 1.257s-.56 1.258-1.253 1.258c-.694 0-1.258-.565-1.258-1.26 0-.693.564-1.257 1.258-1.257zm19.527.15c.734 0 1.33.6 1.33 1.334s-.596 1.33-1.33 1.33c-.735 0-1.33-.596-1.33-1.33 0-.736.595-1.336 1.33-1.336zm-38.276 1.454c.71 0 1.282.572 1.282 1.28 0 .71-.573 1.287-1.282 1.287-.708 0-1.286-.578-1.286-1.287 0-.707.578-1.28 1.286-1.28zm54.83 1.58l-1.113 1.976c-1.22-1.077-.38-2.49 1.12-1.978zm-70.117 2.73L86.38 42.91c1.98.134 1.397 1.553 1.106 2.046zm33.874-1.115c7.5 8.545 14.23 6.017 18.63.336 1.89 4.842 6.09 8.19 13.328 4.934-.44.775-1.536 2.14-1.536 2.14-6.394 1.723-9.567-1.285-12.034-4.15-6.506 5.4-12.63 4.09-17.685-.673-4.314 5.43-11.3 6.6-17.765 2.165-2.955 4.362-7.195 6.124-12.527 3.94 0 0-1.13-1.777-1.23-1.89.774.648 10.594 4.724 12.99-5.08 3.42 5.802 14.626 6.11 17.838-1.722zm.76 3.514c8.44 7.887 17.29 1.066 17.518.584.13.44 4.947 6.19 11.89 4.028l-1.13 1.936c-13.062-2.21-25.08-3.63-52.597.416 0 0 4.39-1.3 6.614-4.804 1.237.8 10.784 6.13 17.707-2.16zm-106.66 2.24c-.767 1.86-2.022 3.783-3.07 5.5-4.94 7.66-5.22 8.396-5.613 11.1-1.098 5.29 5.15 7.432 7.143 3.82.89-1.527 1.452-.533 1.053.912-.255 2.537-2.838 5.48-2.847 5.423l7.57.058s-3.247-3.3-3.197-5.96c.003-1.21.65-1.25 1.44-.16 2.26 3.12 6.47.61 6.5-3.82.015-2.72-.81-4.24-5.73-11.56-1.07-1.6-2.25-3.614-3.25-5.31zm77.09 4.3s3.67.432 3.96.505c.32.25-3.093 1.188-3.106 1.12zm7.444 37.638c-.22.008-.5.257-.96.71-.995.98-1.22 1.11-2.19 1.25-.727.103-2.266.99-3.2 1.842-.252.23-.734.423-1.31.523-.5.09-1.19.21-1.53.27-.34.06-.713.167-.827.236-.49.3-1.288.346-2.184.13-.863-.206-1.002-.2-1.953.09-1.39.43-2.297.43-2.98 0-.684-.425-1.77-.585-2.455-.363-1.017.33-3.65-1.247-3.643-2.18 0-.21-1.494-1.33-1.87-1.333-1.334-.2-13.06 4.43-13 4.7 14.398 17.78 26.517 44.87 17.388 78.02l-1.612-.773c1.354-6.027 1.89-12.09 2.31-18.25-27.023-11.667-29.35-38.795-18.86-55.92l-1.78-1.897c-6.358 3.39-12.816 5.315-28.524 18.493l.046 21.33c.04 19.282.03 38.072.03 38.072 5.684.63 11.944 1.143 18.12 1.675 0 0-.08 19.07-.222 26.53-.12 6.31.116 5.91.116 5.91l20.445 10.784c-1.44-5.68 2.11-7.934 5.08-7.698-1.316-5.475 1.94-7.98 5.66-7.278 2.51.474 3.39 1.86 4.827 6.436.233.744.554 1.74.554 1.74l1.434-.054c1.794-3.855 2.992-8.756 7.213-9.39 5.524-.834 7.58 2.962 7.58 6.757 5.35-4.718 11.763-1.067 11.346 5.98 2.696-1.733 7.26-3.298 10.13 3.38 1.085-.23 1.636-1.434 3.156-1.81.566-.12 1.856-.813 1.856-.813l.013-.23s1.194-.414 2.796-.677c1.375.512.974.494 1.715-.42.828-.422 2.166-.7 3.2-.608 1.08.093 1.562.17 2.196-.1.987-.436 1.91-.546 2.495.11.42.464 1.03.24 1.68.212 1.307-.053 3.045.483 3.588 1.656.797.815 2.547 1.64 2.547 1.64l1.416-.325.165-.525 11.582-4.42c-23.62-25.86-23.004-60.17-17.44-77.534l2.136 1.026c-1.136 5.148-2.42 10.434-2.25 18.107 21.264 9.48 31.845 33.99 18.95 55.385l1.366 1.76c5.364-2.255 18.857-9.83 23.52-13.947l.994.08s2.83-1.83 4.076-2.808l.166-56.773-.988.26-.178-3.32-17.54-1.395c.223-.167.39-.234.442-.566l-.1-31.43c-.654-.997-15.34-9.6-20.8-11.61-.22-.004-.07.366.01 1.265.266 3.084-1.815 5.83-4.226 5.833-.868 0-1.018.37-.974 2.14.06 2.516-.85 4.21-3.5 5.164-3.14 1.133-5.27-.51-7.015-6.975-.46-1.7-1.357-1.275-2.217 1.045-.43 1.15-1.81 3.947-2.638 5.42-.638 1.13-1.644 1.635-3.01 2.238-1.068.526-3.376.435-4.706-.24-2.41-1.227-3.348-2.697-4.04-6.34-.094-.48-.407-.437-1.19.15-4.257 3.21-10.245-.107-10.21-5.653.01-1.627-.056-1.692-1.013-.91-2.887 2.356-6.81 1.16-8.38-2.555-.368-.87-.564-1.26-.85-1.25zm-24.47 1.968c.3-.013 1.24 1.234 1.24 1.234.863.956 2.025 1.44 3.234 2.15.113-.168 14.096 18.598 16.474 44.473l6.507.04c-1.21-25.14-8.144-37.226-11.325-44.98l2.334-.74c5.23 10.02 11.606 30.364 11.394 48.173H94.63c-1.516-17.837-8.452-35.23-18.153-48.423-.676-1.012-1.205-1.72-1.008-1.9.01-.012.03-.02.05-.02zM71.41 96.16l1.09 3.41s.13-.796.464-1.1c2.127-1.91 4.158.607 3.2 4.025-.22 1.05-.642 3.123-.642 3.123s-2.133-1.093-3.207-1.444c-2.96-1.26-3.946-3.738-1.685-4.02.38-.046 1.157-.08 1.157-.08-.94-.74-3.012-2.43-3.012-2.43zm9.935.38c.894.505 3.2 1.053 4.526.555 1.07-.404 1.89-.183 3-.088.64.054 1.91-.226 1.91-.226 6.36 13.38 10.74 29.258 11.467 43.77l-5 .03c-1.89-15.42-7.855-31.09-15.43-42.71-.335-.502-.78-1.31-.465-1.33zm20.895.23c1.936.02 3.962 1.952 5.064 5.11.617 1.76.856 1.653 1.68 1.37 2.112-.725 4.36 1.595 1.53 1.982-2.78.46-1.193 5.895-1.43 6.374-1.127.196-3.243-4.425-3.188-5.8.136-3.37-3.03-6.187-4.996-4.77-.933.67-.83 1.143-1.12.902-.884-.745-1.063-2.795-.028-3.956.75-.84 1.61-1.225 2.492-1.215zm57.533 1.16s.11 4.43-.057 5.41c-.33 2.953-4.188 3.264-4.34.902-.63.944-1.063 2.118-1.314 3.173l-2.737-1.883c1.04-.746 2.03-1.4 2.798-2.323-2.027.15-3.16-1.6-1.804-3.1 1.502-1.713 5.672-1.897 7.45-2.185zm-100.6 1.4l1.21 1.365c-10.78 19.11-6.98 43.536 19.043 56.37-.172 5.863-.923 11.793-2.323 17.295l-9.6-4.655c.06-21.607-12.17-42.205-31.7-55.744 7.083-5.69 14.923-10.69 23.37-14.63zm78.607.165c.458 2.52 2.847 7.09 3.02 6.83-.026-.15-9.942 12.7-14.252 34.194l-3.682.01c2.414-14.322 7.23-27.837 14.914-41.04zm30.562.6l1.957 1.184c-10.28 8.6-17.047 19.51-22.018 31.27l-2.597-1.23c7.706-17.063 15.32-24.64 22.65-31.23zm2.74 1.904c.537.03 1.175.71 2.164 1.26.968.53.727.81-1.094 2.202-2.157 1.65-2.36 1.578-2.34-.777.01-1.56.405-2.604 1.16-2.683.035-.004.07-.007.106-.005zm-2.367 2.43c.113-.01.205.03.264.12.153.622.14 2.05-.11 3.46-.21.927-2.97 3.26-3.95 4.18-.4.26-.58.165-.65-.297.03-.73.1-1.706.112-2.698.003-.306-.06-.626.216-.86 1.35-1.597 3.32-3.87 4.11-3.91zm5.13.753c.018 0 .03.003.04.01.255.153.213 3.355.033 3.566-.8.207-2.955-.13-3.508-.427-.12-.37 2.92-3.17 3.436-3.15zm-96.252 1.04l.75 3.137s.215-.42.27-.503c1.487-2.274 3.297-.94 3.27 2.22-.01 1-.92 4.987-.92 4.987s-5.584-2.684-6.023-3.86c-.432-1.16.18-2.178 1.21-2.27.384-.045.787-.077 1.228 0l-2.4-2.454zm63.947.416l2.535.936c-5.284 8.596-10.74 17.09-14.71 36.455H118.74c1.485-11.837 4.496-23.472 9.87-34.796 0 0 2.084-.64 3.262-1.024 0 0-8.78 20.09-9.803 33.008l5.13.11c2.732-12.585 7.86-25.63 14.33-34.69zm-20.112.312c1.428-.055 2.48.95 2.4 2.73-.018 1.627-.167 1.864-1.32 1.213-1.513-.855-2.71-.87-4.065.095-.75.535-1.48.976-1.48.976s.652-2.83 1.654-3.72c.96-.854 1.952-1.264 2.808-1.296zm-5.448 4.183c-.103.96-.385 1.395-.638 2.212 0 0 .83-.324 1.23-.51 1.885-.88 3.852.75 3.823 2.66.085 1.273-1.3 2.8-2.947 2.812-.575.003-1.184-.178-1.77-.616.425 2.335.51 3.414-1.196 4.585-1.43.95-4.44-.138-4.27-2.748l.104-1.61-1.445.19c-4.03.164-4.102-4.803-.85-5.584 1.3-.307 2.717.76 2.717.76-.62-1.22-.63-3.315.2-4.28 2.05-2.385 5.293-.22 5.04 2.123zm35.237-3.1c.222 1.86.96 3.885.75 5.62-.314 2.22-2.2 3.53-3.682 2.092-.18-.178-.51-.548-.51-.548-.67.844-1.085 3.24-1.085 3.24l-2.616-1.615s1.817-1.275 2.318-2c.14-.204.207-.587.207-.587-1.46.453-2.697-1.036-2.3-2.35.79-2.15 4.702-2.95 6.915-3.86zm18.285 1.343c.98-.03 2.494.246 3.69.373.92.16.41.68-1.65 2.69-1.895 1.844-1.835 1.67-3.294 1.645-3.408-.058-4.005.02-2.02-2.12 1.038-1.124 1.946-2.137 2.692-2.51.158-.048.355-.07.58-.08zm-6.145.39c.044 0 .08.02.11.05.227.21.15 1.17.126 2.59-.025 1.51-.01 1.512-.642 2.303-.802 1.01-1.472 2.04-2.32 3.015-.723.79-.7.706-1.14-1.195-.42-1.846-.19-2.42 2.19-5.094.808-1.03 1.38-1.684 1.68-1.67zM174 110.82l.03 3.74c-7.033 6.874-11.81 14.607-15.06 23.13l-2.448-.974c4.24-10.89 10.59-19.38 17.474-25.896zm-60.95 2.26c-1.164 0-2.104.94-2.104 2.103 0 1.163.94 2.108 2.1 2.108 1.164 0 2.11-.94 2.11-2.103 0-1.16-.946-2.1-2.11-2.1zm-.016.663c.805 0 1.457.653 1.457 1.455 0 .804-.65 1.456-1.45 1.456-.8 0-1.45-.652-1.45-1.455 0-.8.65-1.456 1.45-1.456zm-78.113.89c21.938 14.07 31.77 35.884 31.73 54.623l-1.24-.557c-1.28-26.48-15.675-42.76-31.233-53.297zm129.85.2c.5.002 1.17.08 2.15.192 1.82.096 2.04.21.79 1.646-.34.39-1 1.217-1.463 1.83-.463.62-1.03 1.27-1.286 1.36-.383.13-3.57-.02-4.48-.145-.297-.04.094-.344 1.647-2.562 1.19-1.7 1.318-2.263 2.444-2.314.064-.004.13-.006.2-.006zm9.14.72s.435 12.07.12 19.767c-5.003-.185-7.94 1.714-9.163 5.31l-5.255-2.603c3.857-9.905 9.014-16.797 14.3-22.474zm-15.485.28c.285.003.448.59.53 1.75.33 2.075.294 2.317-.572 3.65-.43.662-1.02 1.598-1.31 2.082-.5.843-.86 1.095-.983.686-.686-2.24-.9-3.622-.66-4.074.4-.743 2.266-3.395 2.53-3.74.18-.24.336-.357.465-.355zm-125.112.224c17.63 10.916 30.53 29.56 31.06 52.08 0 0-3.755-1.763-6.074-3.05l-.12-2.19 1.223-.04.392 2.468 2.69-.088-.715-6.16-4.216.4-.85-3.49 1.277-.274.706 2.25 2.74-.724-1.458-5.49-4.234 1.154-1.35-3.706 1.408-.506 1.14 2.217 2.577-.898-2.433-5.5-3.893 1.836-1.976-3.59 1.52-.814 1.225 2.137 2.41-1.246-2.98-5.06-3.696 2.065-1.858-2.784 1.145-.8 1.268 1.464 2.116-1.496-3.246-4.364-3.535 2.77-2.618-3.03 1.203-1.02 1.8 1.61 2.01-1.754-3.853-4.205-3.37 3.075-2.51-2.18 1.23-1.357 1.563 1.195 1.66-1.96-4.196-3.455-3.145 3.11-3.012-1.992v-1.483c.978.38 2.013.82 2.94 1.31l1.56-2.366-4.5-3.038zm49.1.932l.668 3.85c.635-1.05 1.14-1.77 2.508-1.368 1.647.67 1.67 3.144.276 6.934-.256.7-.574 1.31-.574 1.31s-.72-.3-1.2-.63c-1.007-.687-2.7-1.466-3.567-2.83-.91-1.43-.93-3.43.74-3.26.33.002.98.16.98.16l-2.5-3.19zm-50.07 1.143l3.055 1.97-.632 1.152-2.42-1.09zm76.538.907c.887 1.238-2.226 4.88 1.846 6.337 0 0 .1.84-.75 1.35-1.994 1.446-4.855-1.198-3.967-3.92.567-1.74 2.207-3.757 2.87-3.767zm8.45.116s1.228.897 1.474 1.133c2.268 2.173 2.29 5.29.236 6.38-1.366.723-2.91.14-3.446-.914-.25-.487.16-.997.68-.993.98.005 1.727-1.87 1.438-3.84-.116-.783-.38-1.768-.38-1.768zm26.746.725s.27 2.666.655 3.847c1.19 3.312-.33 5.328-2.553 4.22-.314-.16-.875-.88-.875-.88l-.22 3.807-3.164-.92c.686-1.1 1.67-1.885 2.407-3.12 0 0-.473-.02-.887-.02-1.89.063-2.588-2.03-.606-3.755 1.474-1.275 5.244-3.18 5.244-3.18zm16.533.885c.382 0 .86.03 1.516.03 2.008 0 2.523-.27 1.638.98-.345.49-1.186 1.846-1.435 2.307-.506.938-.607 1.233-1.45 1.417-1.22.242-2.603.075-3.998.14-.302-.015.32-1.054.668-1.7.85-1.58 1.37-2.667 2.102-3 .287-.13.577-.165.96-.168zm-6.2 1.227c.24-.012.42.423.65 1.32.54 2.098.68 2.15-.19 3.87l-1.494 2.947c-.79 1.56-.832 1.545-1.33.15-.952-2.68-1.034-2.406.54-5.416.98-1.88 1.47-2.854 1.823-2.87zm-115.693.736l2.84 2.276-.806.782-1.57-1.158-2.32 2.48 3.81 3.475 3.228-3.177 2.766 2.89-.844.713-1.623-1.566-2.43 2.073 3.625 4.282 3.652-2.785 2.29 3-.935.588-1.498-1.45-2.377 1.644 2.956 4.167 3.725-2.138 2.115 3.48-1.175.565-1.2-1.91-2.672 1.54 2.526 4.87 4.022-1.68 1.617 3.72-1.23.5-1.03-2.236-2.708 1.07 1.814 5.117 4.08-1.17.99 3.8-1.26.35-.618-2.106-2.6.624 1.087 5.135 4.15-.265.493 4.153-1.29.06-.32-2.476-2.646.034c.015.873.116 2.655.116 2.655l-1.6-.74c-2.373-15.787-10.843-28.945-23.46-38.106l-.07-1.888 3.07 1.95s2.82-2.51 3.304-3.15zm121.2 3.68c.88-.004.49.678-.58 2.72-1.2 2.276-1.41 2.323-3.65 2.87-2.725.664-2.646.812-1.17-2.328.565-1.21.98-2.27 1.5-2.674.68-.53 2.004-.33 3.44-.543.18-.027.33-.042.456-.043zm-127.424.674c13.103 8.455 21.386 25.94 22.415 36.544 0 0-.353-.24-1.07-.568-.992-.455-1.236-.754-1.525-2.2-2.595-12.962-9.913-23.964-19.76-31.73zm118.17 2.166c.554-.114 1.564 3.866 1.26 4.7-.216.6-2.165-.816-2.874-1.12-.355-.15 1.24-3.5 1.613-3.58zm-63.193.184l-.06 4.13s.495-.59.75-.776c.974-.71 2.463.274 2.52 1.493.077 1.69-.18 2.374-1.53 4.72-.42.723-1.053 1.65-1.053 1.65s-1.598-1.14-3.346-2.88c-1.885-1.88-1.524-4.395.128-4.4.494-.007.935.16 1.367.3-.358-1.217-1.686-3.577-1.686-3.577zm51.22 3.09s.857 1.13 1.84 4.09c.94 2.83-.506 4.96-2.467 3.895-.35-.19-.72-.605-.72-.605-.136 1.374.108 3.84.14 3.86l-3.162-.55s1.74-2.76 1.864-3.442c0 0-.197.155-1.067.155-3.18 0-2.52-3.78 1.15-5.88.553-.313 2.425-1.515 2.425-1.515zm18.222.05c.686-.03.36.636-.4 2.19-.84 1.72-.63 1.57-2.41.664-2.487-1.215-2.34-1.405.812-2.256.995-.37 1.635-.58 1.995-.595zm-45.11.505c2.49.015 4.326 2.473 3.96 5.966-.635 6-.27 5.63.382 6.23 1.19 1.09-.42 1.743-1.84.703-.987-.72-1.308-1.435-1.26-4.745.05-3.803-.154-4.77-1.514-4.44-.85.21-1.117.93-1.024 3.496.133 3.6-.105 4.51-1.472 5.66-1.473 1.14-3.064.124-1.72-.63.618-.69.734-1.57.497-3.748-.26-1.853-1.34-8.518 3.99-8.486zm61.587 3.024c.312-.007.63-.004.944.01 4.794.18 16.916 1.165 16.916 1.165l.103 3.58c-.54.333-9.587-1.047-16.242-.92-1.552.027-2.653.714-3.78.137 1.08.45.98 5.85-3.78 4.54-4.03-1.45-2.065-6.906 3.095-8.283.888-.12 1.806-.21 2.746-.23zm-26.675 2.4l10.36 5.106c1.45 19.446 8.163 39.992 31.027 55.565-3.702 2.65-12.994 9.16-23.614 13.62l-.87-.93c12.61-21.444 3.084-45.046-18.998-55.73.06-5.95.806-11.822 2.096-17.63zm36.438 3.26c1.988-.08 2.504.15 2.675 1.05.16.85.79 1.05 1.54.78 1.822-.67 2.934 2.57 1.424 4-.938.893-.773 1.236-.005 1.24 1.904.01 1.85 2.504-.086 3.917-.802.587-.79.853.05 1.268 1.406.694 1.123 2.066-.663 3.196-.97.62-1.003.77-.2.988 2.02.55-.04 3.43-2.25 2.92-.91-.21-1.77-.016-2.637.55-2.37.986-2.764 1.18-5.32.864-2.243-.41-3.245-1.15-3.824-3.12-1.318-4.004-2.737-8.44-2.75-12.814-.2-2.685 4.3-5.113 6.432-5.218 1.735-.26 3.726.367 5.613.384zm-141.682.065c2.38 0 4.31 1.93 4.31 4.31s-1.93 4.31-4.31 4.31-4.31-1.93-4.31-4.31 1.93-4.31 4.31-4.31zm47.906 1.266l-.39 3.77s.635-.49.784-.616c1.12-.937 2.893.11 2.49 1.57-.13 1.286-2.35 5.107-3.235 5.91 0 0-3.56-3.88-3.94-4.638-.847-1.686.31-3.443 1.85-2.698.22.105.852.575.852.575l-1.128-3.576zm-47.616.306c-1.524.052-2.97.987-2.775 2.232.13.53.942-.237 1.742-.74.613-.386 1.35-.447 2.05-.144.62.22.885.79 1.243 1.233.305.37.64.677.826.494.16-.195.095-.442.053-.665-.33-1.697-1.736-2.452-3.14-2.41zm116.08.585l1.54.79c2.073 27.48 15.97 43.64 30.57 53.26l-1.16.7c-17.92-11.48-30.36-32.044-30.95-54.75zm2.33 1.13s3.868 1.98 5.894 2.896l.077 2.485-1.35.05-.46-2.337-2.815.202.877 5.75 4.538-.557.635 3.476-1.536.322-.79-2.137-2.6.632 1.683 5.59 4.09-1.32 1.284 3.655-1.372.5-.88-2.14-2.69.94 2.083 5.452 4.26-1.37 1.718 3.413-1.29.57-1.234-2.114-2.553 1.304 2.993 5.095 3.845-2.018 1.795 2.722-1.41.942-1.284-1.666-2.07 1.363 3.312 4.52 3.31-2.48 2.476 2.853-1.092.97-1.69-1.713-2 1.786 3.946 4.33 3.43-2.976 2.434 2.27-.72.76-1.638-1.025-2.17 2.303 4.144 3.605 3.288-3.604 2.79 2.056v1.517l-2.49-1.262-1.67 2.516 4.16 3.15-.03 1.238c-23.756-14.174-30.01-36.157-31.22-52.508zm-48.64.275c1.028-.03 2.11.935 3.9 3.01 5.01 5.8 3.67 14.77-2.872 19.45-.954.68-1.337.62-2.5-.38-6.714-5.768-7.102-13.48-1.124-20.256 1.033-1.17 1.8-1.8 2.597-1.826zm23.996.797c1.236 1.896 2.794 3.84 2.97 6.14-.086 2.276-1.62 2.69-3.204 1.37-.2 1.196.48 3.52.48 3.52l-2.87-.31s1.125-1.963 1.17-3.193c-1.992 1.386-3.515-.425-3.244-1.884.57-2.48 2.61-4.155 4.7-5.64zm-23.91 1.487c-.233.02-.48.18-.852.48-1.75 1.4-3.12 3.145-3.834 4.96-1.507 3.82-.524 8.13 2.87 11.473 1.723 1.7 2.33 1.58 4.972-1.93 2.212-2.94 2.672-6.74 1.31-10.04-.666-1.61-1.87-3.183-3.318-4.32-.555-.44-.844-.65-1.147-.626zm55.22.704l2.23 1.094c2.84 18.74 12.052 30.175 22.373 38.06l-.02 1.737-2.77-2.144-3.32 3.47-2.69-2.203 1.01-.98 1.53.975 1.957-2.194-3.855-3.436-3.36 2.91-2.8-2.88.85-.71 1.933 1.69 2.166-1.92-3.743-4.2-3.35 2.54-2.34-3.1 1.016-.605 1.226 1.68 2.582-1.607-2.73-4.2-3.893 1.997-1.99-3.59 1.13-.543 1.29 2.014 2.425-1.167-2.44-4.953-3.977 1.315-1.467-3.9 1.14-.42 1.004 2.305 2.69-.865-1.83-5.33-4.113 1.16-1.02-3.92 1.27-.275.67 2.117 2.827-.564-1.036-5.08-4.21.533c-.14-.86-.76-3.184-.75-4.062l1.3-.105.405 2.238 2.833-.097zm-55.07.408c1.544.21 3.43 3.182 3.855 4.26.815 2.13.88 4.605.14 6.52-.61 1.57-2.422 4.35-3.574 5.133-.93.504-1.71.13-3.04-1.675-2.623-3.57-3.13-7.86-1.06-10.8 1.584-2.246 2.758-3.444 3.683-3.44zm58.057.925l1.12.528c1.372 10.86 7.81 25.768 20.476 34.68v1.368c-9.85-7.07-18.898-19.265-21.598-36.57zm-58.253.74c-4.41 3.325-3.706 8.53-.365 12.037 3.6-2.383 4.872-8.817.363-12.038zm-67.32.22c2.487-.057 4.065.81 4.823 2.535 1.18 2.68 1.34 3.187 1.58 4.593.14.808.35 2.02.47 2.697 1.29 7.28.34 10.023-4.08 11.16-1.32.34-3.16.45-4.444.14-.34-.083-1.575-.09-2.547-.12-1.927-.064-2.517-.27-3.484-1.053-.35-.284-.686-.51-1.105-.577-2.204-.35-2.863-2.37-1.19-3.86.955-.85 1.05-.965.96-1.11-.05-.08-.456-.15-.906-.153-2.224-.013-2.2-2.3.04-3.935 1.064-.777 1.543-1.51.84-1.33-2.028.48-2.744-2.485-.624-3.405 1.13-.632 1.94-1.16.85-1.218-.914.08-1.658-.597-1.378-1.39.335-.966 2.19-1.843 3.26-1.515.84.256 1.654.49 2.177.115 1.27-.913 1.836-1.324 2.93-1.47.63-.085 1.294-.103 1.827-.1zm73.953.557l10.226.196-.305 10.026-9.63-.182s2.113-4.48-.29-10.042zm-22.91.23l9.79.12c-1.61 3.78-1.01 7.66-.414 9.85l-9.59-.15zm16.355.014c2.63 1.532 3.353 7.114-.3 9.984-3.48-3.575-2.784-7.927.3-9.985zm-24.16 4.357l2.625.247-.936 3.758s.422-.446.56-.49c3.373-1.583 3.616 2.006.183 5.247-.76.716-1.98 1.696-1.98 1.696s-.954-1.444-1.712-2.75c-.862-1.313-1.45-2.72-1.3-3.465.214-1.084 1.517-1.8 2.347-1.138.41.326.884.82.884.82zm46.88 2.757s1.1 1.13 1.77 1.863c2.316 2.54 2.714 4.91 1.54 5.63-1.01.464-1.637.15-2.45-.51.17 1.57 1.418 3.89 1.388 3.896l-3.46.557s.853-3.15.78-4.34c0 0-.71.546-1.026.68-2.26.824-3.38-1.743-1.522-4.3 1.56-2.15 2.977-3.477 2.977-3.477zm47.272 4.752c2.32 0 4.204 1.882 4.204 4.204s-1.883 4.204-4.205 4.204-4.208-1.883-4.208-4.205 1.88-4.206 4.203-4.206zm2.073 1.924c-.18.04-.33.457-.35 1.377-.21 1.887-1.78 2.646-3.495 1.77-.693-.35-1.283-.875-1.285-.473 0 .214.555 1.338.95 1.72 1.454 1.31 4.996 1 4.915-2.05-.038-1.432-.432-2.413-.734-2.345zm-76.345 1.58c.458-.033 1.037.157 1.408.54 1.15.784 1.367 1.787 1.44 5.57.064 3.34-.005 3.42.547 3.827 1.35.993 2.16-.52 1.776-3.9-.37-3.258.8-5.625 2.77-5.61.97.004 1.15.572.41 1.3-.78.765-.965 1.7-.72 3.584.62 4.824.083 7.193-1.946 8.173-2.117 1.02-4.838-.15-5.314-2.822-.304-1.78-.3-3.89-.09-5.882.04-2.092-.01-2.33-.74-3.532-.514-.805-.13-1.208.458-1.248zM54.16 168.4c1.17-.004 2.384.674 3.11 2.173 1.752 3.617-2.043 6.592-5.525 6.825-6.043.09-13.226-.782-19.29-1.59l.095-3.417c5.566.33 11.843.78 18.605 1.09-.77-3.17 1.055-5.08 3.005-5.08zm31.785.7l3.365.743-2.14 3.5c.635-.276 1.073-.468 1.708-.236 1.37.495 1.39 2.23.384 3.855-.794 1.178-3.03 2.586-4.555 3.45-.857-1.84-2.75-5.06-1.997-6.82.4-.935 1.508-1.39 2.54-.88.34.206.993.54.993.54zm7.954.095l10.25.12c-1.49 10.366-4.41 24.208-10.15 35.492l-2.42.624c5.07-11.21 8.44-21.72 10.01-33.48h-5.12c-2.95 12.62-7.312 24.31-14.02 34.47l-2.982-.97c7.168-11.362 12.85-24.05 14.43-36.25zm23.38.182h11.43c2.1 21.107 9.23 35.513 19.845 49.762 0 0-.67.15-1.066-.02-1.1-1.38-2.108-2.22-3.757-2.64-8.92-12.846-14.907-30.8-16.35-44.538h-6.797c.777 17.252 5.556 31.397 11.917 45.097l-3.45.633c-5.108-12.26-10.708-22.927-11.77-48.3zm17.782 2.607c.94.727 1.956 1.442 2.913 2.136 2.574 1.806 2.54 5.22.04 5.204-.267-.002-.884-.038-.884-.038s1.02 2.237 1.665 3.37c-1.04.277-3.22.686-3.22.686s.31-2.197.25-4.018c0 0-.42.467-.76.63-1.66.692-3.063-.756-2.856-2.468.28-2.31 2.857-5.5 2.857-5.5zm-76.355.413l5.625 2.793c-3.833 8.728-8.223 16.898-14.572 23.11l.164-20.166c3.465-.1 7.02-.133 8.783-5.736zm38.467.316h3.46c-1.536 16.1-12.173 37.877-14.17 40.503l-.657.495c.04-.02-1.36-4.93-2.954-6.7 6-8.092 12.29-23.65 14.323-34.29zm24.335 0h5.227c1.63 12.828 5.597 26.686 15.646 43.518 0 0-1.007.1-1.786-.36-1.71-1.06-2.9.348-3.926.29-1.6-.083-1.862-.18-3.513.21-8.29-17.49-10.645-31.26-11.644-43.65zm-56.463 2.88l1.87.88c-4.014 9.285-7.61 16.664-17.12 25.722l-.034-2.697c6.68-6.472 11.182-15 15.287-23.905zm2.72 1.297c.885.333 1.89.88 2.723 1.33.28.112.204.362.206.624-.354.882-1.91 1.27-2.5 1.44-.71.203-1.415.345-1.54.375-.816.19-.558-.63.324-2.41.4-.81.555-1.34.788-1.36zm3.73 1.97c.56-.036 2.817 1.21 3.3 1.66.17.528-.316 1.362-1.03 2.903-1.094 2.37-1.31 2.423-1.64.476-.057-.34-.383-1.45-.58-2.18-.46-1.71-.5-2.69-.05-2.86zm4.086 1.914s1.31.637 1.737.917c-5.856 17.54-21.453 32.04-21.37 31.71l-2.433-1.43c10.38-9.38 17.985-20.45 22.064-31.19zm-6.193.25c.567.01.074.708-.69 2.395-.725 1.65-.963 2.23-1.642 2.5-.97.35-2.37.36-3.61.58-.53.09-.306-.32.51-1.98.96-1.948 1.01-2.35 2.516-2.757.87-.135 2.04-.756 2.92-.75zm2.055 3.484c.605 2.172.59 2.6.188 3.355-.756 1.415-1.746 3.067-2.02 3.514-.682 1.118-.876.885-1.28-1.834-.252-1.686-.473-2.444-.286-3.18.34-.83 1.353-2.788 1.93-3.934.82-2.45 1.26 1.86 1.47 2.07zm10.78-1.896l3.074 1.008-2.41 2.91s1.01-.183 1.13-.135c2.42.16 2.016 2.563.144 4.017-.776.71-4.6 2.448-4.6 2.448-.408-2.15-1.252-3.524-1.05-5.73.142-1.19.248-2.262 1.704-2.295.764-.04 1.074.742 1.572 1.372zm55.69 2.607s1.853.95 3.57 2.27c2.236 1.72 2.62 3.74.383 4.52-.26.09-.993.053-.993.053.615 1.07 2.077 2.67 2.077 2.67-.732.51-1.767.912-2.913 1.27 0 0-.28-2.67-.554-3.7 0 0-.296.582-.662.81-2.155 1.34-3.846-1.186-2.688-4.38.703-1.943 1.785-3.525 1.785-3.525zm-23.686.44c5.38-.13 2.23 8.68-.46 8.11-.046-.08 2.22-5.21-.83-6.03-1.4-.375-.19-2.1 1.29-2.08zm-8.82.62c1.67-.01 2.89 1.17 1.29 1.91-2.514 1.167-1.017 3.964-.96 5.55.035.97-2.24-.846-2.72-2.814-.626-2.544-.337-4.428 2.39-4.646zm-39.8.925c.37 0 .65.03.745.1.16.417-.593 1.716-1.69 3.38-.582.886-.832 1.135-1.19 1.344-.847.476-2.037.352-3.03.422-1.477.02-1.217-.01.42-2.56.73-1.138 1.192-2.07 1.626-2.366.09-.054 2.01-.316 3.12-.32zm1.94 1.84c0 3.186 1.083 4.23.29 5.236-.97 1.566-2.215 3.28-2.665 3.82-.76.914-.675.74-.874-1.645-.142-1.73-.3-2.885-.075-3.425.65-1.56 1.422-2.31 2.226-3.97.63-1.337 1.1-1.114 1.1-.013zm42.47 1.597c1.564.02 2.53 1.68 2.46 3.206l-.068 1.46c2.02-.776 4.526-.02 4.637 1.96.19 3.355-2.286 2.97-4.38 2.824.21.08.52 3.035-.723 4.166-1.954 2.188-5.596-.046-4.68-3.253.19-.665.23-1.083.23-1.083s-1.307.472-1.767.452c-3.96-.17-3.655-5.77.325-5.113.813.135 1.363.33 1.363.33s-.085-.352-.22-.852c-.58-2.156.637-4.124 2.827-4.094zm79.255 1l2.136 1.226v2.38l-3.04-2.246zm-128.04 1.59c.84-.007 1.502.06 1.372.26-.006.425-1.847 2.987-2.936 4.157-.93 1-1.06.856-3.33.744-.892-.045-1.475-.05-1.45-.29 1.045-1.37 2.487-3.137 3.484-4.612.39-.12 1.772-.248 2.854-.26zm2.077 1.12c.157-.003.206.338.202 1.08-.004.56.076 2.29.157 3.043.15 1.368.15 1.366-.435 2.18-.712.767-1.44 1.897-2.36 2.776-1.382 1.53-1.24 1.62-1.22-1.655.017-2.56-.176-2.558.34-3.16.286-.33 1.165-1.404 1.744-2.245.88-1.277 1.345-2.013 1.574-2.016zm13.172.45l2.84 1.518-2.846 2.885s.71-.004.95.043c1.83.353 1.69 2.29-.15 3.737-1.13.715-5.01 2.127-5.01 2.127-.135-1.63-.48-3.128-.415-4.877.03-.804.103-1.68.72-2.38.43-.472 1.144-.75 2.147-.1.527.47.802 1 .802 1zm33.532.985c-1.114 0-2.016.9-2.016 2.015 0 1.112.904 2.015 2.018 2.015 1.112 0 2.015-.902 2.015-2.015s-.904-2.016-2.017-2.016zm31.766.474s3.72 1.4 5.394 2.935c1.565 1.305.83 3.455-.724 3.5-.113 0-.773-.097-.773-.097.53.8 2.29 2.764 2.29 2.764l-2.874 1.166s-.46-2.212-.815-3.455c-1 2.316-3.47.81-3.634-.63-.4-2.114.5-4.178 1.142-6.178zm-31.767.18c.775 0 1.4.628 1.4 1.4 0 .776-.625 1.404-1.4 1.404-.774 0-1.4-.626-1.4-1.4 0-.772.627-1.4 1.402-1.4zm-54.893 2.866c1.002-.01 2.252.036 2.812.07.426.33-.466 1.346-2.19 3.155-1.38 1.45-1.585 1.25-3.26 1.263-2.807.023-2.877.04-1.59-1.425 1.415-1.61 2.24-2.645 2.89-2.98.22-.056.735-.08 1.336-.086zm3.422 1.41c.296-.06.215.7.167 2.415l-.08 2.91-2.18 2.1c-2.53 2.264-2.227 2.406-2.21.29.014-1.68-.004-2.863.36-3.61 1.104-1.33 2.254-2.507 3.51-3.777.197-.196.337-.307.436-.327zm55.52.725c.61-.05 2.16 2.605 2.55 4.83.887 5.08 3.93 7.49 6.07 5.45.873-1.2.97.11.928.73-.448 6.437-7.742 3.76-8.572-2.634-2.56 1.663-4.946-1.693-3.42-1.64 3.608-1.147 2.62-4.46 2.448-6.735zm-8.447.05c.353 2.226-3.66 6.04-5.918 3.364-1.148-1.36-.1-4.166 1.36-2.438 1.613 1.194 3.18-.192 4.554-.927zm-55.147 3.05c.826-.016 2.02.14 2.54.07.737.072.21.43-1.382 1.88-1.37 1.25-1.763 1.81-1.92 1.26-.077-.844-.043-1.85-.04-3.042.127-.118.43-.16.803-.17zm18.71 1.48l2.45 1.786-2.426 2.238c2.178-.108 2.372 1.934 1.545 3.072-.54.798-2.6 1.638-4.67 1.973-1.24.2-2.254.35-2.254.35s-.047-.96-.08-2.55c-.07-3.256.15-4.537 1.4-5.17.895-.455 2.41.26 2.784 1.09.123.273.446.752.446.752zm-15.752.178c.01-.005.016 0 .02.002.137.187-.36 5.483-.36 5.483l-3.55-1.993s3.59-3.428 3.887-3.49zm93.88.62c2.525 1.19 4.42.96 6.12 2.435 1.48.774 1.04 2.91-.04 3.384-.488.15-1.295.066-1.295.066.894 1.103 2.85 2.496 2.85 2.496l-3.11 1.3s-.424-2.097-.82-3.24c-.565 1.7-2.483 1.66-3.576.86-.774-.593-1.094-2.58-.725-4.3.098-.455.596-3 .596-3zm11.365 17.257c3.21 4.515 5 8.314 5.497 13.98.296 3.496.196 4.148-.632 4.14-.53 0-.76-.263-.76-.86.06-9.49-11.63-11.72-15.98-3.523-2.55 4.807-1.295 11.177 4.19 19.854 5.043 8.218 11.54 14.46 15.24 23.3 3.663-8.776 11.016-16.162 16.27-24.623 7.59-10.88 4.96-22.35-4.406-23.555-4.296-.552-9.005 3.754-9.55 8.21-.122.993-.333 1.285-.88 1.204-.73-.11-.456-2.07-.138-4.69.866-5.006 2.634-9.18 5.5-13.436zm45.347 12.54c.086-.02 2.383 3.18 2.71 4.378.264.976.47 1.985.3 2.41-.2.51-.68.12-1.276-.673-1.637-2.175-4.86-1.48-6.172 1.35-.945 2.04-.42 4.666 1.34 7.646 2.104 3.89 7.248 10.88 7.402 11.517.138-.546 3.414-6.483 6.053-10.42 1.39-2.375 2.43-4.386 2.494-7.526-.32-3.91-4.996-5.52-7.083-2.486-.674.98-1.076 1.28-1.3.48-.15-.54.32-1.704.57-2.95.21-1.04 2.233-3.745 2.28-3.72zm-73.322 19.5c-30.67 7.268-55.585 2.774-58.057 1.915l-1.952 2.914c-.24.49-.39 1.97-1.71 2.37l-1.99 2.967.39.414-1.766 1.536.427.512-1.28 1.863-.505-.05-2.968 4.508.45.505-6.81 10.66 92.145.03c-5.356-10.104-11.087-20.01-16.383-30.145zm-.557 1.31l.548 1.522c-1.53-.19-3.31-.28-5.12-.36 1.59-.33 3.183-.73 4.566-1.163zm-5.35 1.325c-2.93 1.345-4.688 2.96-6.035 4.666-1.676-1.3-3.81-2.22-6.355-2.8zm-51.784.74l1.306.148s-.437.34-.75.27c-.237-.055-.555-.42-.555-.42zm58.7.758l.83 1.64c-1.996-1.057-10.533-3.48-12.955 5.008-2.55-3.44-13.06-8.44-18.39 2.18-1.515-2.872-10.34-11.15-18.39-.6-3.17-6.557-5.82-7.107-11.643-6.21 4.138-3.98 9.96.16 12.428 3.546 6.944-5.76 12.75-4.027 17.822.66 6.545-7.127 13.073-5.41 17.664-1.834 3.227-4.746 6.378-6.177 12.635-4.382zm-53.612.043c4.127.56 8.253.81 12.38 1.015-2.39.876-4.838 1.63-6.783 3.393-1.473-2.057-3.52-3.252-5.597-4.406zm29.77.66c-2.252 1.06-4.68 2.655-6.624 4.33-2.1-1.71-4.26-3.188-6.61-3.93 4.32.21 9.105.02 13.24-.4zm100.46 2.31c-.003.016-.003.023 0 .03.005-.008.003-.016 0-.03zm-74.04 1.06s-.833.14-1.1.21c-3.643.97-2.85 6.102.898 6.102.357 0 1.244-.14 1.244-.14-.07 3.476.985 4.325 4.536 4.13l6.018 10.76-89.04-.384 5.654-9.044c2.844.33 4.632-1.25 4-3.66 0 0 1.75.53 2.24.53 3.22.02 4.05-4.92.965-5.773-.35-.094-1.21-.19-1.31-.22 1.41-3.525 5.28-1.444 6.39.02 2.5-2.054 5.262-1.135 6.447 1.527 0 0-.467-.26-.61-.367-2.927-2.14-5.65 2.296-2.784 4.34.28.2.878.376.878.376s-.346.283-.665.82c-1.49 2.502.908 5.55 3.8 4.766 2.223-.87 2.255-2.54 2.253-4.377 0 0 .767.06 1.454.066 2.666.034 3.43-3.38 1.8-4.97-.88-.855-2.036-.79-2.606-.9 3.072-3.015 5.155-.933 7.324.458.327-.01 3.762-4.136 7.847-.084-1.982-.52-4.012.766-4.04 2.83.04 1.327.99 2.5 3.043 2.595-.22.664-.37 1.163-.38 1.81-.04 2.168 1.643 3.516 3.782 3.183 1.785-.23 3.106-2.274 2.47-3.97-.287-.77-.68-1.05-.68-1.05 4.81.6 4.73-5.494.985-5.863-.887-.088-1.57.297-2.465 1.116 2.2-4.5 6.227-3.598 7.735-1.758 2.067-1.503 4.918-3.554 8.328.1-.56-.12-1.352-.146-2.04.036-2.7.72-2.71 4.15-.57 5.196.6.294 1.34.465 2.136.435-.71 2.883 2.49 4.944 4.76 3.563 1.623-.99 2.05-3.328.29-5.46 2.96-.133 3.25-3.82 1.54-5.113-1.34-1.012-2.915-.53-4.06.808-.367-1.058 2.557-4.738 6.688-2.088 2.188-1.836 4.358-2.4 6.84-.568zm1.29 2.88l1.158 2.102c-.77.077-1.872-.748-1.156-2.102zm-14.927 2.136c.723 0 1.31.587 1.31 1.31 0 .724-.587 1.31-1.31 1.31-.724 0-1.31-.586-1.31-1.31 0-.723.586-1.31 1.31-1.31zm-54.044.077c.176.703.252 1.405-1.026 1.54zm130.903.61v2.932h2.4l6.778 15.61-6.504 10.13h-2.67v2.603h9.31v-2.6h-2.72l8.28-12.633V298.7H210v2.607h8.42v-2.605h-3.074V272.96h3.072v-2.933h-8.42v2.93h2.377c.056 2.526.07 4.7 0 7.225-1.185 1.58-2.412 3.506-3.712 4.992l-5.23-12.217h3.39v-2.932zm-115.85.657c.664 0 1.2.538 1.2 1.2 0 .664-.536 1.2-1.2 1.2-.662 0-1.2-.536-1.2-1.2 0-.662.538-1.2 1.2-1.2zm19.974.375c.71 0 1.28.57 1.28 1.273s-.57 1.278-1.275 1.278-1.27-.57-1.27-1.272c0-.7.57-1.27 1.27-1.27z"/></svg>