<svg xmlns="http://www.w3.org/2000/svg" width="224.225" height="312.808"><path d="M216.098 266.965v31.507h-3.11v-31.507zm-12.328 31.507c2.993 0 5.4-2.687 5.4-6.023v-19.47c0-3.338-2.407-6.025-5.4-6.025h-1.746c-2.994 0-5.406 2.687-5.406 6.023v19.46c0 3.336 2.412 6.023 5.406 6.023h1.745zm-.902-2.978c-1.77 0-3.192-1.337-3.192-3.002V272.77c0-1.665 1.423-3.007 3.192-3.007 1.768 0 3.19 1.342 3.19 3.006v19.72c0 1.66-1.422 3-3.19 3zM8.128 45.844v-31.51h3.11v31.508zm12.33-31.508c-2.996 0-5.4 2.687-5.4 6.023v19.46c0 3.33 2.404 6.02 5.4 6.02H22.2c2.995 0 5.407-2.69 5.407-6.03V20.36c0-3.337-2.412-6.024-5.406-6.024h-1.74zm.9 2.978c1.77 0 3.19 1.337 3.19 3.002v19.722c0 1.665-1.424 3.007-3.193 3.007-1.768 0-3.19-1.342-3.19-3.007V20.316c0-1.665 1.422-3.002 3.19-3.002zM53.433 69.02c.015-2.027-1.587-2.066-1.568-.587-.135 7.43-6.417 11.086-10.98 10.22-7.037-1.34-9.283-8.323-9.216-12.437.2-12.696 12.98-22.058 24.52-38.334 8.45 14.69 22.39 26.23 23.22 37.585 1.1 15.098-18.01 20.73-20.74 3.133-.176-1.243-1.64-1.8-1.527-.065.414 4.823-.175 6.83 5.265 18.72H48.19c3.15-5.555 5.026-12.375 5.24-18.236zm55.716 32.664c.01-2.026-1.59-2.064-1.57-.586-.14 7.43-6.42 11.087-10.98 10.22-7.04-1.34-9.28-8.323-9.22-12.436.206-12.697 12.99-22.06 24.52-38.335 8.45 14.69 22.396 26.23 23.222 37.586 1.095 15.098-18.01 20.73-20.74 3.132-.176-1.243-1.64-1.8-1.526-.065.415 4.823-.175 6.832 5.266 18.72h-14.22c3.15-5.555 5.025-12.375 5.24-18.236zm55.81-32.664c.014-2.027-1.588-2.066-1.57-.587-.134 7.43-6.416 11.086-10.98 10.22-7.036-1.34-9.28-8.323-9.215-12.437.207-12.696 12.99-22.058 24.52-38.334 8.45 14.69 22.4 26.23 23.223 37.585 1.1 15.098-18.01 20.73-20.737 3.133-.18-1.243-1.64-1.8-1.53-.065.417 4.823-.173 6.83 5.268 18.72h-14.22c3.15-5.555 5.027-12.375 5.24-18.236zm0 65.33c.014-2.026-1.588-2.065-1.57-.587-.134 7.43-6.416 11.087-10.98 10.22-7.036-1.338-9.28-8.323-9.215-12.436.207-12.697 12.99-22.06 24.52-38.335 8.45 14.69 22.4 26.23 23.223 37.586 1.1 15.098-18.01 20.73-20.737 3.133-.18-1.24-1.64-1.8-1.53-.06.417 4.82-.173 6.83 5.268 18.72h-14.22c3.15-5.55 5.027-12.37 5.24-18.232zm-111.534 0c.015-2.026-1.587-2.065-1.568-.587-.136 7.43-6.418 11.087-10.98 10.22-7.038-1.338-9.284-8.323-9.217-12.436.208-12.697 12.988-22.06 24.52-38.335 8.45 14.69 22.398 26.23 23.223 37.586 1.096 15.098-18.01 20.73-20.738 3.133-.176-1.24-1.64-1.8-1.527-.06.414 4.82-.175 6.83 5.265 18.72H48.19c3.15-5.55 5.026-12.37 5.24-18.232zm111.544 44.134c.016 2.025-1.586 2.064-1.57.585-.132-7.43-6.414-11.09-10.98-10.22-7.034 1.33-9.28 8.32-9.213 12.43.21 12.693 12.99 22.06 24.52 38.332 8.45-14.69 22.4-26.23 23.225-37.586 1.098-15.098-18.01-20.73-20.737-3.133-.177 1.243-1.64 1.8-1.527.065.418-4.823-.172-6.83 5.27-18.72h-14.224c3.15 5.555 5.025 12.374 5.24 18.236zm0 65.33c.016 2.026-1.586 2.065-1.57.586-.132-7.43-6.414-11.086-10.98-10.22-7.034 1.34-9.28 8.323-9.213 12.437.21 12.696 12.99 22.058 24.52 38.334 8.45-14.69 22.4-26.22 23.225-37.58 1.098-15.1-18.01-20.73-20.737-3.13-.177 1.245-1.64 1.8-1.527.067.418-4.823-.172-6.832 5.27-18.72h-14.224c3.15 5.555 5.025 12.375 5.24 18.236zm-55.35-32.664c.016 2.025-1.586 2.063-1.567.585-.136-7.43-6.418-11.087-10.98-10.22-7.038 1.34-9.284 8.323-9.217 12.436.21 12.7 12.99 22.06 24.52 38.34 8.45-14.69 22.4-26.23 23.223-37.58 1.096-15.098-18.01-20.73-20.738-3.13-.173 1.24-1.64 1.8-1.524.063.414-4.823-.175-6.832 5.265-18.72h-14.22c3.15 5.555 5.024 12.375 5.24 18.236zm-56.18-32.666c.016 2.025-1.586 2.064-1.57.585-.132-7.43-6.414-11.09-10.98-10.22-7.034 1.33-9.28 8.32-9.213 12.43.21 12.693 12.99 22.06 24.52 38.332 8.45-14.69 22.4-26.23 23.225-37.586 1.098-15.098-18.01-20.73-20.737-3.133-.178 1.243-1.64 1.8-1.528.065.416-4.823-.174-6.83 5.267-18.72h-14.22c3.15 5.555 5.025 12.374 5.24 18.236zm0 65.33c.016 2.026-1.586 2.065-1.57.586-.132-7.43-6.414-11.086-10.98-10.22-7.034 1.34-9.28 8.323-9.213 12.437.21 12.696 12.99 22.058 24.52 38.334 8.45-14.69 22.4-26.22 23.225-37.58 1.098-15.1-18.01-20.73-20.737-3.13-.178 1.245-1.64 1.8-1.528.067.416-4.823-.174-6.832 5.267-18.72h-14.22c3.15 5.555 5.025 12.375 5.24 18.236zM17.29 70.368c.01-.87-.896-.464-1.018-.19-1.163 1.986-2.865 2.448-4.548 1.732-1.667-.71-2.604-2.28-2.454-4.522.31-3.438 3.035-7.2 4.355-9.327 1.252-1.93 2.628-4.22 4.077-7.15 1.697 3.37 2.558 4.32 4.405 7.39 1.626 2.71 3.892 5.36 4.067 8.62 0 2.49-1.046 4.84-3.4 5.26-1.33.25-2.578-.44-3.503-2.03-.29-.405-.85-.193-.84.36.16 2.096.95 3.986 2.83 6.21h-6.89c1.41-1.572 2.85-3.7 2.91-6.35zm188.815 172.746c.01.87-.895.465-1.018.19-1.163-1.985-2.865-2.447-4.548-1.732-1.67.71-2.606 2.28-2.456 4.523.31 3.437 3.036 7.2 4.355 9.326 1.25 1.93 2.627 4.23 4.076 7.16 1.697-3.36 2.56-4.32 4.405-7.39 1.627-2.702 3.894-5.35 4.07-8.62 0-2.484-1.047-4.83-3.4-5.26-1.33-.24-2.58.44-3.505 2.037-.28.408-.848.196-.84-.36.166-2.094.957-3.984 2.83-6.212h-6.886c1.41 1.577 2.847 3.705 2.914 6.35z"/></svg>