<svg xmlns="http://www.w3.org/2000/svg" width="224.218" height="312.801"><path d="M12.837 47.005c2.133-11.09 4.41-19.41 10.38-28.447H11.084v3.89H7.857v-7.33H25.61l2.19 3.44c-6.342 6.797-12.148 28.768-11.12 28.447zm198.543 218.79c-2.13 11.09-4.408 19.41-10.38 28.448h12.136v-3.89h3.225v7.33h-17.75l-2.18-3.44c6.34-6.797 12.146-28.768 11.117-28.447zM53.59 70.5c.016-2.026-1.586-2.065-1.567-.586-.135 7.428-6.417 11.086-10.98 10.22-7.037-1.34-9.283-8.324-9.216-12.437C32.035 55 44.815 45.64 56.347 29.363c8.45 14.69 22.398 26.23 23.223 37.585 1.098 15.098-18.008 20.73-20.736 3.133-.176-1.24-1.64-1.8-1.527-.06.415 4.828-.174 6.83 5.266 18.72H48.35c3.15-5.56 5.028-12.38 5.24-18.24zm111.534 0c.015-2.026-1.587-2.065-1.57-.586-.133 7.428-6.415 11.086-10.98 10.22-7.035-1.34-9.28-8.324-9.214-12.437.207-12.696 12.988-22.058 24.52-38.334 8.45 14.69 22.398 26.23 23.223 37.585 1.098 15.098-18.01 20.73-20.737 3.133-.176-1.24-1.64-1.8-1.526-.06.415 4.828-.175 6.83 5.266 18.72h-14.222c3.15-5.55 5.026-12.37 5.24-18.23zm-55.1 50.124c.016-2.026-1.586-2.065-1.567-.586-.135 7.43-6.417 11.086-10.98 10.22-7.037-1.34-9.283-8.323-9.216-12.437.21-12.69 12.99-22.05 24.52-38.33 8.46 14.69 22.4 26.23 23.23 37.59 1.1 15.1-18.01 20.73-20.734 3.134-.176-1.243-1.64-1.8-1.526-.065.415 4.823-.175 6.832 5.266 18.72H104.79c3.15-5.555 5.026-12.375 5.24-18.236zm55.1 50.124c.015-2.026-1.587-2.064-1.57-.586-.133 7.43-6.415 11.087-10.98 10.22-7.035-1.34-9.28-8.323-9.214-12.437.207-12.696 12.988-22.058 24.52-38.334 8.45 14.7 22.398 26.23 23.223 37.59 1.098 15.1-18.01 20.73-20.737 3.13-.176-1.24-1.64-1.8-1.526-.06.415 4.825-.175 6.83 5.266 18.72h-14.222c3.15-5.553 5.026-12.373 5.24-18.234zm-111.534 0c.016-2.026-1.586-2.064-1.567-.586-.135 7.43-6.417 11.087-10.98 10.22-7.037-1.34-9.283-8.323-9.216-12.437.208-12.696 12.988-22.058 24.52-38.334 8.45 14.7 22.398 26.23 23.223 37.59 1.098 15.1-18.008 20.73-20.736 3.13-.176-1.24-1.64-1.8-1.527-.06.415 4.825-.174 6.83 5.266 18.72H48.35c3.15-5.553 5.027-12.373 5.24-18.234zm111.545 75.722c.015 2.027-1.587 2.065-1.57.587-.133-7.43-6.415-11.087-10.98-10.22-7.035 1.34-9.28 8.323-9.214 12.436.21 12.697 12.99 22.06 24.52 38.335 8.45-14.69 22.4-26.23 23.23-37.586 1.1-15.098-18.01-20.73-20.734-3.133-.176 1.24-1.64 1.8-1.526.06.415-4.82-.175-6.83 5.266-18.72H159.9c3.15 5.55 5.025 12.37 5.24 18.232zm-111.533 0c.015 2.027-1.587 2.065-1.57.587-.133-7.43-6.415-11.087-10.98-10.22-7.035 1.34-9.28 8.323-9.214 12.436.207 12.697 12.988 22.06 24.52 38.335 8.45-14.69 22.398-26.23 23.223-37.586 1.1-15.098-18-20.73-20.73-3.133-.173 1.24-1.64 1.8-1.523.06.415-4.82-.175-6.83 5.266-18.72H48.36c3.15 5.55 5.026 12.37 5.24 18.232zM17.568 71.51c.01-.87-.895-.463-1.018-.19-1.163 1.987-2.864 2.45-4.547 1.733-1.668-.71-2.605-2.28-2.454-4.522.31-3.43 3.03-7.2 4.35-9.32 1.25-1.93 2.63-4.22 4.07-7.15 1.698 3.363 2.56 4.32 4.406 7.392 1.626 2.704 3.892 5.353 4.067 8.62 0 2.486-1.047 4.83-3.4 5.26-1.33.24-2.58-.44-3.504-2.036-.283-.406-.85-.194-.84.363.165 2.09.955 3.98 2.83 6.21h-6.88c1.41-1.577 2.85-3.704 2.914-6.35zm188.816 172.747c.01.87-.896.464-1.018.19-1.163-1.986-2.865-2.448-4.548-1.732-1.667.71-2.604 2.28-2.454 4.522.31 3.438 3.035 7.2 4.355 9.327 1.25 1.93 2.62 4.222 4.07 7.154 1.694-3.363 2.56-4.32 4.402-7.392 1.626-2.704 3.892-5.353 4.067-8.622 0-2.485-1.046-4.832-3.4-5.26-1.33-.24-2.578.442-3.503 2.037-.28.41-.85.2-.84-.36.166-2.09.956-3.98 2.83-6.21h-6.887c1.41 1.58 2.85 3.71 2.918 6.35z"/></svg>