<svg xmlns="http://www.w3.org/2000/svg" width="224.225" height="312.808"><path d="M8.774 39.85l3.027-.943c1.15 2.995 3.45 3.88 5.9 3.69 4.38-.342 5.838-5.15 6.166-9.4-1.707 1.774-4.274 2.675-6.46 2.587-6.98-.37-8.77-5.854-8.834-11.6-.194-4.847 1.848-8.357 5.35-9.964 1.85-.817 6.093-.817 7.958.148 4.283 2.216 5.868 6.05 5.58 15.19.005 7.525-1.624 16.288-9.837 16.476-4.75.644-8.352-2.98-8.84-6.185zm11.887-8.245c1.43-.885 2.23-1.716 2.87-2.962.53-1.022.7-1.553.55-3.67-.38-5.456-3.29-8.548-7.52-7.934-2.35.34-3.64 1.63-4.38 4.04-1.363 4.45.368 9.66 3.61 10.855 1.46.54 3.716.385 4.88-.34zM214.81 272.96l-3.027.94c-1.14-2.995-3.45-3.878-5.89-3.688-4.383.34-5.838 5.148-6.166 9.4 1.707-1.775 4.274-2.676 6.46-2.588 6.982.37 8.77 5.854 8.834 11.6.2 4.847-1.84 8.357-5.34 9.964-1.85.817-6.093.817-7.96-.148-4.28-2.217-5.865-6.05-5.58-15.19-.003-7.525 1.626-16.29 9.84-16.476 4.75-.644 8.352 2.98 8.84 6.185zm-11.887 8.243c-1.425.885-2.23 1.716-2.868 2.962-.524 1.022-.702 1.553-.552 3.67.385 5.455 3.3 8.548 7.524 7.933 2.357-.342 3.644-1.638 4.383-4.047 1.366-4.45-.365-9.65-3.61-10.85-1.46-.54-3.713-.382-4.877.34zM53.26 69.37c.014-2.025-1.587-2.063-1.57-.585-.134 7.43-6.416 11.087-10.98 10.22-7.036-1.34-9.282-8.323-9.215-12.436.208-12.7 12.988-22.06 24.52-38.34 8.45 14.69 22.398 26.23 23.224 37.58 1.09 15.098-18.01 20.73-20.74 3.133-.18-1.244-1.64-1.803-1.53-.066.41 4.822-.178 6.83 5.262 18.72H48.02c3.15-5.556 5.025-12.376 5.24-18.237zm111.532 0c.015-2.025-1.587-2.063-1.568-.585-.135 7.43-6.417 11.087-10.98 10.22-7.037-1.34-9.283-8.323-9.216-12.436.207-12.7 12.988-22.06 24.52-38.34 8.45 14.69 22.398 26.23 23.223 37.58 1.1 15.098-18 20.73-20.73 3.133-.173-1.244-1.64-1.803-1.523-.066.415 4.822-.175 6.83 5.266 18.72H159.56c3.15-5.556 5.026-12.376 5.24-18.237zm0 65.332c.015-2.026-1.587-2.065-1.568-.586-.135 7.43-6.417 11.086-10.98 10.22-7.037-1.34-9.283-8.323-9.216-12.437.207-12.7 12.988-22.06 24.52-38.34 8.45 14.69 22.398 26.23 23.223 37.58 1.1 15.098-18 20.73-20.73 3.133-.173-1.244-1.64-1.8-1.523-.066.415 4.823-.175 6.832 5.266 18.72H159.56c3.15-5.555 5.026-12.375 5.24-18.236zm-111.532 0c.014-2.026-1.587-2.065-1.57-.586-.134 7.43-6.416 11.086-10.98 10.22-7.036-1.34-9.282-8.323-9.215-12.437.208-12.7 12.988-22.06 24.52-38.34 8.45 14.69 22.398 26.23 23.224 37.58 1.09 15.098-18.01 20.73-20.74 3.133-.18-1.244-1.64-1.8-1.53-.066.41 4.823-.178 6.832 5.262 18.72H48.02c3.15-5.555 5.025-12.375 5.24-18.236zm111.543 109.126c.015 2.026-1.587 2.065-1.57.586-.133-7.43-6.415-11.086-10.98-10.22-7.035 1.34-9.28 8.323-9.214 12.437.2 12.7 12.98 22.06 24.52 38.34 8.45-14.69 22.39-26.23 23.22-37.58 1.1-15.098-18.01-20.73-20.74-3.133-.18 1.244-1.64 1.8-1.53.066.414-4.823-.176-6.83 5.265-18.72h-14.22c3.15 5.555 5.026 12.375 5.24 18.236zm0-65.105c.015 2.026-1.587 2.064-1.57.586-.133-7.43-6.415-11.09-10.98-10.22-7.035 1.33-9.28 8.32-9.214 12.43.2 12.693 12.98 22.06 24.52 38.33 8.45-14.69 22.39-26.23 23.22-37.586 1.1-15.098-18.01-20.73-20.74-3.13-.18 1.242-1.64 1.8-1.53.064.414-4.823-.176-6.83 5.265-18.72h-14.22c3.15 5.555 5.026 12.375 5.24 18.236zm-55.088-33.76c.015 2.026-1.587 2.065-1.57.586-.133-7.43-6.416-11.09-10.98-10.22-7.036 1.33-9.28 8.32-9.214 12.43.21 12.693 12.99 22.06 24.52 38.33 8.45-14.69 22.4-26.23 23.23-37.585 1.1-15.1-18.01-20.73-20.734-3.133-.176 1.243-1.64 1.8-1.526.065.414-4.824-.175-6.833 5.265-18.72h-14.22c3.146 5.554 5.022 12.374 5.24 18.235zm-56.445 33.76c.015 2.026-1.587 2.064-1.568.586-.135-7.43-6.417-11.09-10.98-10.22-7.037 1.33-9.283 8.32-9.216 12.43.207 12.693 12.988 22.06 24.52 38.33 8.45-14.69 22.398-26.23 23.223-37.586 1.09-15.098-18.01-20.73-20.74-3.13-.18 1.242-1.64 1.8-1.53.064.412-4.823-.178-6.83 5.263-18.72H48.03c3.15 5.555 5.026 12.375 5.24 18.236zm0 65.105c.015 2.026-1.587 2.065-1.568.586-.135-7.43-6.417-11.086-10.98-10.22-7.037 1.34-9.283 8.323-9.216 12.437.207 12.7 12.988 22.06 24.52 38.34 8.45-14.69 22.398-26.23 23.223-37.58 1.09-15.098-18.01-20.73-20.74-3.133-.18 1.244-1.64 1.8-1.53.066.412-4.823-.178-6.83 5.263-18.72H48.03c3.15 5.555 5.026 12.375 5.24 18.236zM17.327 67.88c.01-.872-.895-.465-1.018-.19-1.17 1.985-2.87 2.447-4.55 1.73-1.67-.708-2.61-2.28-2.46-4.52.31-3.44 3.034-7.2 4.353-9.327 1.252-1.93 2.63-4.223 4.077-7.155 1.697 3.364 2.56 4.32 4.405 7.392 1.626 2.704 3.893 5.353 4.07 8.622 0 2.485-1.048 4.832-3.4 5.26-1.33.242-2.58-.442-3.505-2.037-.282-.407-.85-.195-.84.362.165 2.093.956 3.983 2.83 6.21h-6.88c1.41-1.575 2.848-3.702 2.915-6.348zm188.815 172.745c.01.87-.895.465-1.018.19-1.163-1.985-2.864-2.447-4.547-1.732-1.668.71-2.605 2.28-2.454 4.523.31 3.437 3.035 7.2 4.355 9.326 1.252 1.93 2.628 4.222 4.076 7.154 1.698-3.363 2.56-4.32 4.405-7.392 1.62-2.704 3.89-5.353 4.06-8.622 0-2.485-1.048-4.832-3.4-5.26-1.33-.24-2.58.442-3.505 2.038-.28.406-.85.194-.84-.362.166-2.094.956-3.984 2.83-6.212h-6.887c1.41 1.576 2.85 3.704 2.915 6.35z"/></svg>