<svg xmlns="http://www.w3.org/2000/svg" width="224.225" height="312.808"><path d="M8.738 36.5c-.408-2.748-.402-9.846-.066-11.944 1.03-6.428 3.532-9.368 7.723-10.332 4.068-.936 9.79.106 11.044 5.482l-3.41.063c-1.84-3.64-6.5-2.67-9.12-1.09-2.096 1.26-3.04 6.52-2.636 6.84-.003 0 3.957-2.877 7.075-2.665 6.67.682 9.42 6.356 9.186 11.72-.21 6.45-2.295 11.6-9.36 11.945-6.72-.253-9.8-3.85-10.445-10.03zm16.57-1.706c.038-4.476-2.033-7.823-5.95-8.193-3.915-.36-7.862 3.39-7.59 7.95.275 4.58 2.08 8.43 6.827 8.41 5.106-.02 6.687-4.973 6.714-8.16zm190.18 241.516c.407 2.746.4 9.844.065 11.94-1.03 6.43-3.532 9.37-7.723 10.334-4.068.936-9.79-.106-11.044-5.482l3.407-.063c1.84 3.63 6.495 2.66 9.115 1.08 2.094-1.26 3.04-6.52 2.634-6.85.003 0-3.957 2.876-7.075 2.664-6.67-.68-9.418-6.356-9.186-11.72.22-6.448 2.3-11.6 9.37-11.945 6.72.253 9.8 3.85 10.446 10.03zm-16.57 1.704c-.04 4.475 2.032 7.823 5.95 8.192 3.914.37 7.86-3.38 7.59-7.942-.276-4.577-2.08-8.432-6.828-8.41-5.106.022-6.687 4.976-6.714 8.16zM54.345 69.06c.015-2.027-1.587-2.066-1.57-.587-.133 7.428-6.415 11.086-10.98 10.22-7.035-1.34-9.28-8.324-9.214-12.437.21-12.696 12.99-22.058 24.52-38.334 8.45 14.69 22.4 26.23 23.23 37.585 1.1 15.098-18.01 20.73-20.736 3.133-.176-1.243-1.64-1.8-1.526-.065.416 4.823-.174 6.83 5.267 18.72H49.11c3.15-5.555 5.023-12.375 5.24-18.236zm111.534 0c.01-2.027-1.59-2.066-1.57-.587-.14 7.428-6.42 11.086-10.98 10.22-7.04-1.34-9.29-8.324-9.22-12.437.204-12.696 12.99-22.058 24.52-38.334 8.45 14.69 22.394 26.23 23.22 37.585 1.1 15.098-18.01 20.73-20.737 3.133-.175-1.243-1.64-1.8-1.525-.065.414 4.823-.175 6.83 5.266 18.72h-14.22c3.15-5.555 5.024-12.375 5.24-18.236zM54.35 145.076c.015 2.026-1.587 2.065-1.57.586-.133-7.428-6.415-11.086-10.98-10.22-7.036 1.34-9.28 8.324-9.214 12.437.207 12.69 12.99 22.05 24.52 38.33 8.45-14.69 22.397-26.23 23.223-37.59 1.1-15.1-18.01-20.73-20.738-3.134-.18 1.243-1.64 1.8-1.53.065.415-4.823-.174-6.83 5.267-18.72H49.11c3.15 5.556 5.025 12.375 5.24 18.236zm111.533 0c.013 2.026-1.588 2.065-1.57.586-.134-7.428-6.417-11.086-10.98-10.22-7.037 1.34-9.283 8.324-9.215 12.437.208 12.69 12.988 22.05 24.52 38.33 8.45-14.69 22.398-26.23 23.224-37.59 1.094-15.1-18.01-20.73-20.74-3.134-.176 1.243-1.64 1.8-1.526.065.413-4.823-.176-6.83 5.264-18.72h-14.22c3.15 5.556 5.024 12.375 5.24 18.236zm0 98.6c.013 2.025-1.588 2.063-1.57.585-.134-7.42-6.417-11.08-10.98-10.21-7.037 1.34-9.283 8.32-9.215 12.437.208 12.696 12.988 22.058 24.52 38.334 8.45-14.69 22.398-26.23 23.224-37.586 1.094-15.097-18.01-20.73-20.74-3.13-.176 1.242-1.64 1.8-1.526.064.413-4.823-.176-6.832 5.264-18.72h-14.22c3.15 5.555 5.024 12.375 5.24 18.236zm-111.534 0c.014 2.025-1.588 2.063-1.57.585-.134-7.42-6.416-11.08-10.98-10.21-7.037 1.34-9.28 8.32-9.215 12.437.206 12.696 12.987 22.058 24.52 38.334 8.45-14.69 22.396-26.23 23.222-37.586 1.097-15.097-18.01-20.73-20.738-3.13-.18 1.242-1.64 1.8-1.53.064.414-4.823-.175-6.832 5.266-18.72H49.11c3.15 5.555 5.024 12.375 5.24 18.236zM17.39 68.926c.01-.87-.894-.463-1.017-.19-1.163 1.987-2.865 2.45-4.548 1.733-1.667-.71-2.604-2.28-2.454-4.53.31-3.438 3.04-7.2 4.358-9.327 1.25-1.928 2.623-4.22 4.072-7.153 1.695 3.365 2.56 4.32 4.403 7.393 1.626 2.702 3.893 5.35 4.07 8.62 0 2.485-1.048 4.832-3.4 5.26-1.333.242-2.58-.44-3.506-2.037-.28-.408-.848-.196-.84.36.166 2.094.957 3.984 2.83 6.21h-6.88c1.41-1.574 2.846-3.7 2.913-6.347zm188.817 172.75c.01.87-.897.464-1.02.19-1.163-1.986-2.864-2.448-4.548-1.733-1.67.71-2.607 2.28-2.456 4.523.31 3.437 3.034 7.2 4.354 9.326 1.252 1.93 2.627 4.225 4.076 7.157 1.7-3.37 2.56-4.32 4.41-7.4 1.626-2.703 3.893-5.352 4.068-8.62 0-2.484-1.046-4.83-3.4-5.258-1.33-.242-2.578.44-3.503 2.036-.28.41-.848.195-.84-.36.167-2.095.957-3.985 2.83-6.21h-6.88c1.41 1.574 2.85 3.702 2.913 6.35z"/></svg>