<svg xmlns="http://www.w3.org/2000/svg" width="224.225" height="312.808"><title>Vectorized Playing Cards 1.0</title><path d="M119.75 283.073c.537-7.928.075-16.44.437-22.893-.246-.455.638-1.707.684-1.707-.52-.96-.7-3.415-.03-5.594 5.19-19.78 14.59-35.16 24.27-49.51 7.87 23.71-16.845 40.35-22.043 61.07-1.734 7.17-1.474 12.18-2.14 18.66zm-41.097.302L49.248 237.95l6.386-3.107 30.224 48.373zm38.035-84.15c.26 1.305 1.285 2.005 2.374 1.408 1.067-.584 1.19-.623.526.405-1.465 2.27 1.503 4.467 3.408 2.52.677-.693.79-1.82.175-2.392-.69-.646-.84-.98.18-.49 2.58 1.043 3.99-2.68 1.5-3.93-.64-.323-1.89-.037-2.36.454-.57.594-.65.385-.5-.075.09-.272.155-.714.37-1.24.168-.414.29-.977.29-.977l-2.63.027s.21.603.427 1.11c.203.476.28.833.378 1.03.355.716-.07.45-.78-.077-1.004-.747-2.263-.537-2.98.445-.262.578-.483 1.18-.37 1.783zm3.796-36.955l5.652-.168 6.216 17.154c-4.975 8.26-6.316 17.575-.528 27.017l-17.925.03c4.2-14.23 4.85-29.32 6.58-44.033zm5.91 22.32c.76-.68.856-1.91.165-2.73-.87-1.03-.67-1.083.49-.41 1.68.972 3.29-1.13 2.3-2.99-.63-1.18-2.67-1.44-3.45-.39-.65.874-.58.072-.08-1.09.18-.428.445-1.23.445-1.23l-2.74.055s.355.776.543 1.274c.5 1.32.52 1.73-.25.89-1.67-1.41-3.633-.39-3.65 1.63.016 1.55 1.422 2.54 2.653 1.82.748-.44 1.083-.55.24.46-.58.962-.372 2.19.395 2.77 1.05.633 2.178.6 2.93-.07zm-37.867 5.345c.22-.162.302-.056.167.163-.115.186-.41.45-.662.73-1.28 1.423.375 3.23 2.436 2.95 1.403-.19 2.226-2.396 1.19-3.267-.336-.22-.6-.26-.854-.57-.02-.12.037-.2.16-.15.184.077.558.38.746.43 1.304.354 2.288-.185 2.62-1.105.208-1.064.007-2.21-.863-2.805-.808-.543-2.004-.387-2.7.54-.714.945-.812.044-.23-1.26.22-.49.37-1.19.37-1.19l-2.518.134s.13.54.35 1.165c.56 1.42.96 1.83.24 1.093-3.076-1.81-4.097.65-4.15 1.63-.093 1.844 2.59 2.89 3.687 1.52zm12.315-27.82l4.544.015c-3.426 18.217-10.447 33.477-22.26 43.98l-22.232-.07-10.712-7.49 4.137-5.372c28.22 2.907 40.24-11.086 46.52-31.064zm-20.453 42.23c1.33-.586 1.88-2.092 1-3.103-.8-.914-.88-1.2.34-.487 1.634.952 3.215-.95 2.413-2.81-.5-1.158-2.07-1.516-3.204-.73-.995.743-.976.412-.456-.76.26-.58.457-1.51.457-1.51l-2.784.04s.2.66.404 1.116c.467 1.05.635 1.52.42 1.53-.105 0-.45-.314-.65-.5-.555-.51-2.07-.605-2.634-.07-1.67 1.59-.73 4.37 1.39 3.86 1.37-.33 1.685-.85.55.437-1.4 1.587.77 3.87 2.75 2.997zm-17.57-.552c1.15-.543 1.53-1.87.89-2.728-.65-.864-.97-1.42.18-.642 1.53.772 2.872-.254 2.853-2-.02-1.827-2.073-2.68-3.583-1.58-.256.187-.57.354-.626.355-.182.002.15-.987.52-1.634.16-.28.44-.853.44-.853l-2.785-.1s.155.76.374 1.346c.443 1.186.55 1.58-.227.908-2.095-1.957-4.33.536-3.448 2.69.466 1.21 1.895 1.21 2.74.605.764-.594.373.193-.15.82-1.433 1.706.665 3.827 2.81 2.824zm127.2-45.675l.143 3.37-35.996 29.997-1.51-2.312zm-133.886 6.31c5.183-3.69 10.95-10.31 16.64-13.76 4.156 9.553-5.595 18.92-16.64 13.76zm95.117-2.42c-5.213-17.895 19.41-16.704 16.318-12.903zM34.248 150.32l35.634-29.05 1.62 2.442-37.59 30.798zm97.614-29.304c.1.304 1.18 1.462 1.18 1.567-.3-.23-2.13-1.255-3.03-.258-.31.365-.71 1.238-.66 2.142.374 1.618 2.216 2.19 3.524 1.08.377-.318.7-.705.777-.57.067.12-.14.675-.307 1.116-.195.452-.91 1.403-.39 1.402l2.53-.005s-.095-.593-.398-1.25c-.565-1.224-.54-1.89.14-1.007 1.33 1.72 3.908.286 3.638-1.775-.195-1.488-1.702-2.34-2.81-1.63-.12.077-.477.43-.527.432-.136.006.235-.56.48-1.032.817-1.566-.4-3.015-2.266-2.86-.605.052-1.264.43-1.268.485-.7.565-.81 1.54-.605 2.164zm30.77-14.573c3.568 3.28 7.13 5.684 10.698 7.784l-3.363 5.31c-22.8-2.11-39.382 6.905-46.3 31.344l-3.76.73c1.414-15.242 6.523-30.36 21.627-45.133zm-21.85 3.65c.007.72 1.335 1.58 1.04 1.78-.136.072-.927-.616-1.29-.654-2.633-.28-3.178 3.81-.57 4.27.514.09 1.573-.23 1.887-.49.42-.347.71-.63.796-.598.16.057-.204.787-.49 1.33-.266.5-.637 1.484-.637 1.484 1.043.19 2.05.232 2.99.014 0 0-.27-.855-.54-1.507-.343-.833-.416-1.36-.185-1.305.1.024.213.284.423.464 1.295 1.112 3.2.637 3.7-1.1.466-1.636-1.49-3.32-2.85-2.405-.478.32-.48.08-.004-.636.433-.654.326-1.645-.067-2.235-1.43-1.517-4.267-.43-4.202 1.578zm21.49 4.846c-.07-.37.02-.26.405.14 1.2 1.24 3.265 1.05 3.79-.61.526-1.65-1.08-3.544-2.476-2.894-.728.34-.74.22-.325-.32 1.07-1.396-.11-3.234-1.95-3.21-1.68.015-2.67 1.633-1.854 3.023.335.57.227.69-.363.404-1.72-.836-3.323 1.885-2.063 3.5.74.95 2.455 1.05 3.435.106.52-.5.516-.26.137.777-.33.9-.696 1.632-.696 1.632l2.975.024s-.793-1.51-1.017-2.584zm-63.71 36.55s-4.415-12.29-5.93-18.185c3.275-7.84 7.754-15.435.224-26.72l18.3-.05c-5.65 12.816-5.77 45.166-7.1 45.245zm1.606-14.388s-.903-1.243-.96-2.25c-.108-.646.06-.685.395-.027 1.63 1.802 3.833.062 3.843-1.534.188-1.46-1.52-2.71-2.617-1.982-.768.51-.977.363-.292-.587.966-1.34-.086-3.08-1.813-3.06-2.242.025-3.102 2.123-1.493 3.62 1.19 1.107.08.453-.863.06-1.84-.77-3.045 1.1-2.22 2.99.57 1.304 2.24 1.644 3.22.59.538-.58 1.035-.92.743-.045-.152.71-.974 2.21-.974 2.21zm2.833-19.7s-1.085-1.36-1.27-2.38c-.065-.378.202-.28.817.246 1.97 1.69 4.674-1.34 2.84-3.193-.632-.634-1.273-.82-2.01-.434-.918.48-.845.248-.386-.25.67-.727.62-2.055-.1-2.7-2.006-1.784-5.17.874-3.31 2.78.81.83.42.723-.47.19-1.684-1.01-3.55 1.755-2.284 3.377 1.5 1.27 2.626.644 3.664-.153.224-.12.42-.172.42-.074.003.182-1.036 2.627-1.036 2.627zm-24-7.66c-1.12-.074-1.917-10.506-.55-13.81C81.357 82 90.237 71.85 95.763 63.312c8.867-12.71 7.765-33.82 8.142-32.98l1.257.15s-.972 12.38-.422 17.97c.57 4.92.45 5.225.1 5.71-.093.46.045 1.8-.055 2.26-3.947 18.205-13.366 36.924-23.09 51.056zm91.17-31.792l-29.946-47.22 7.196-.648c2.67 4.23 28.685 44.576 28.685 44.576z" fill="#d40000"/><path d="M46.866 284.218c3.406-12.484-5.82-41.52-11.586-45.312 6.762-.285 14.895-.163 14.638-.796 0 0 28.754 45.224 28.52 45.464-.222.226-31.572.644-31.572.644zm116.54-70.826c-6.97-.99-4.22-6.775.26-7.375-.584.097.48-2.876 4.093-4.078.82-1.49 1.46-4.03 2.21-5.21-2.17.7-4.8 2.53-14.64 1.09.854-4.67 10.27-5.46 13.66-4.74 1.96.45 3.894 3.37 4.49 3.432 6.042-1.007 13.73 4.46 11.403 10.007-.36.79-1.28-.94-3.313-1.677-6.573-2.38-7.033-5.94-8.545-7.532-.55-.102-3.456 5.65-3.456 5.65l.906 3.908c1.577-.145 8.584 4.184-.14 7.12-2.41 8.312-6.954 2.445-6.94-.6zm16.51-37.12c-.37-.38.295-2.968 1.18-4.456.477-.804 1.58-1.344 2.23-1.23 1.152.202.972 1.88-.556 6.79-.064.707-1.624.782-2.853-1.105zM41.15 141.89c-1.912-.007-.197-5.206.98-6.857.385-.513 1.91.58 1.99 1.333.14 1.35-1.932 6.06-2.97 5.524zm-1.356-35.356c2.333.563 6.017 2.912 7.778 4.2 2.19 1.635 1.59 4.842 3.342 5.127 1.183-.58 3.353-5.83 3.353-5.83s.544-2.7-1-3.53c-3.837-2.064-3.77-4.3-3.525-4.5 1.14-2.95 3.405-2.423 4.63-2.59.026-1.613-.028-5.023 3.316-4.67 2.924.276 3.212 4.455 1.983 4.493-.02-.07 5.53-.797 5.48 2.867-.03 1.986-3.32 4.527-4.35 3.604 0 0 .55 3.96-4.42 5.318-1.16 1.184-2.11 6.217-2.11 5.77 3-2.708 7.7-3.343 15.114-2.37-4.594 8.515-17.295 4.53-18.29 2.882-6.39-1.93-12.383-4.44-11.29-10.76zm54.708-20.41c6.76.613 14.154-1.508 19.775-.385.64.08 1.336 1.03 1.72 1.24 2.907 1.58 5.948 1.09 10.624-.68 1.16-.44 22.59-.27 22.59-.27 4.88 7.21 13.56 20.774 13.75 20.314 0 0-11.88-.134-17.35.19-3.85.23-1.583.752-4.26.87-18.73 14.064-22.29 44.46-22.29 44.46s5.95-1.568 7.508.075c7.363-21.536 21.34-31.37 40.833-29.445 9.007.89 19.755 9.75 19.755 9.75L167.88 147.93c-14.932-7.532-21.33 14.67-16.8 14.726l38.817-31.73s.665 2.594.598 2.68c-2.766 3.63-49.042 41.19-49.042 41.19l-2.03-2.243s-1.277 1.133-1.95 1.887c-.065 1.23.368 2.276 1.3 3.238-9.166 7.356-9.47 20.854-2.71 28.22 0 0-2.998.215-3.313.27-3.81.65-7.75-18.128-.2-26.867-3.81-7.465-6.155-17.63-6.63-18.1.1 1.2-6.01.8-6.01.8-.47 15.18-2.05 30.06-5.7 44.4l28.084.606-11.954 20.748s-13.414-.335-19.194-.74c-6.033-3.51-9.512-.84-15.176.46-8.06.235-19.922-.14-19.922-.03-4.023-7.99-8.347-13.867-14.224-20.717-.746-1.244 23.857-.475 23.857-.475s12.3-18.6 14.54-23.854c1.75-4.1 5.67-19.03 5.67-19.03.18.78-2.23-3.882-7.855-3.776-4.65 30.913-41.385 41.326-63.49 21.43l-.206-3.595 48.71-39.516 2.162 2.5c-.465-.37-29.905 24.128-29.415 23.97 8.722 4.57 18.82.87 17.644-14.12 6.91-4.995 13.033-10.82 19.05-16.76.13-.23 6.717 14.78 6.555 17.668 3.79-1.275 6.03 1.393 5.96.94-1.36-8.68 6.24-41.59 6.385-45.376-4.223-.34-9.82-.183-18.6-.53 7.052 13.65 4.602 22.895-5.255 31.303l-2.06-2.59c.837.466 14.398-11.27 3.48-28.802-.5.043-5.756-.473-5.756-.473s10.77-17.096 11.32-19.515zm52.34-56.41s30.744-.74 30.755.16c-.982 16.52 2.868 31.585 12.16 45.52 0 0-13.618-.482-13.37-.31z" fill="#e2cf00"/><path d="M191.563 28.64l-159.83-.195.993 256.527H192.36zm-14.62 1.018c-.012-.014-2.06 27.137 12.108 44.92-8.65-1.31-13.6.015-18.64 3.575l.69.71c6.94-4.263 12.82-3.142 18.845-2.478l-.164 34.932c-.043 1.696-7.04.94-11.466-2.388-2.1-1.25-4.81-3.85-6.028-5.8-.37-.6-.757-1.19-.864-1.31-.406-.47-2.93-5.17-7.563-14.07-2.355-4.53-5.47-10.7-7.998-15.49-1.638-3.1-4.68-8.95-4.897-9.42-.447-.973-3.762-7.438-5.05-9.79-3.41-6.215-8.91-17.06-10.873-20.945-.435-1.008-1.095-1.473.086-1.44.263.006.525.022.675.06.208.103.46-.358.46-.358zM34.627 176.546l-.1-2.747 46.447-38.31 1.482 1.9zm44.878-67.1c-.186.068-.39.138-.614.21-1.19-5.32-.51-12.427.9-17.77 2.05-7.418 5.878-13.367 10.137-19.345 9.737-13.65 14.05-23.94 13.875-42.28l1.39.15c-.057 2.9-.44 5.08-.552 8.93-.174 4.13-.105 7.27.335 11.3.216 1.99.346 3.27.01 3.53-.157.13-.3.818-.155 1.07-.022.55-.1 1.65-.1 1.65-2.233 10.915-14.188 38.91-25.218 52.56zm5.81 24.82l-2.462-3.02s-1.893-1.526-.192-3.25c4.92-4.987 4.95-11.326.2-17.026-.32-.724 1.48-4.38 1.48-4.38l3.745.062c5.837 7.102 7.43 19.65-2.763 27.614zm3.438-28.185c.117-.48-5.546-.29-5.546-.29 3.517-5.24 6.51-10.634 9.448-16.042 4.56-8.184 10.884-22.524 12.866-32.917 1.48 12.156 3.63 30.2 14.03 30.91 3.41.234 7.36-2.103 8.01-1.716l21.61-.17c4.433 8.985 9.195 14.774 14.833 20.92 4.05 2.31 8.994 4.14 13.77 5.327 2.71.674 2.973.225 8.324.988 1.414.204 3.566-.393 3.544-.393-4.273 3.374-9.206 2.418-14.64.974-.302-.083-.62-.177-.94-.29l-4.1 6.17c-9.13-2.162-38.442-.63-46.17 31.238 0 0 .795.404.61.185 6.137-27.66 32.06-33.176 44.418-30.42l-1.06 1.622c-20.507-2.51-37.203 10.316-41.18 28.504l.396.36c7.696-27.5 40.043-37.673 60.098-18.613l3.68-2.606-.12 3.527-49.305 41.31-1.97-2.04s-.346.263-.74.59c-1.272 1.06-1.774 1.32-1.42 1.91.36.59 1.74 1.922 1.8 2.07-8.175 6.665-10.77 19.516-3 28.517.868.95.71 1.21.55.134-6.97-7.585-6.086-21.002 2.605-27.36l1.75 2.296c-3.826 8.4-5.867 21.505 4.195 22.64 3.604 9.66-.543 21.106-5.173 28.78-4.907 8.84-10.85 16.185-14.564 25.813-1.804 4.017-4.674 15.932-4.523 25.038l-1.08-.01c0-3.715.247-8.12.278-10.94.15-13.73.13-12.914.44-13.263.103-.113.39-.234.42-.33.04-.145-.224-.43-.33-.764-.106-.345-.29-.95-.27-1.46.02-.51.496-1.25.405-1.417-2.163-7.577-2.34-21.195-9.33-27.45-3.424-2.94-7.974-3.06-13.87-.647-13.003.024-11.075.69-21.58.093-4.343-7.956-9.612-15.703-15.313-21.448-2.665-2.973-6.37-4.6-9.854-6.755 1.398-2.65 2.983-4.59 4.715-5.847.36-.516.603-1.07 1.07-1.5C91.935 194.7 99.615 160.4 98 161.27l-.313.272c-9.68 35.338-44.137 34.05-61.46 18.773 0 0-2.445 2.126-2.453-.207-.007-2.12.767-2.733.767-2.733l48.618-39.643c.89.566 1.846 2.45 2.245 2.24.896-.477 2.216-1.433 2.175-2.003-.03-.44-1.777-3.19-1.777-3.19 13.007-13.465 7.14-19.48 2.966-28.706zm18.43-75.67c.233 0 .454.11.618.37.3.47-.88 3.2-1.61 3.68-.69.46-.74-.07-.24-2.71.15-.772.72-1.33 1.24-1.33zm71.328.05h11.27l.084 43.25c-8.415-11.826-12.677-25.45-11.345-43.244zm-68.3.11c.28-.012.53.066.61.27.29.73-1.36 3.88-3.403 6.49-1.06 1.355-1.595 1.747-1.926 1.424-.28-.616-.27-1.333.705-2.46.805-.93 2.175-3.1 2.74-4.315.243-.713.486-1.358 1.276-1.41zm11.56.155c.33.003.668-.002.76.153 1.968 4.01 5.67 7.628 9.458 9.56.554.314.293 1.1.48 1.653-4.256-.632-9.84-6.66-11.334-11.06-.01-.32.31-.307.64-.305zm6.657-.003c.846.86 2.178 1.9 2.478 2.88.186.603.32 1.294.19 1.62-.74.46-4.412-3.8-4.27-4.3.467-.306 1.054-.37 1.604-.2zm-15.93-.06c.36.013.91-.01.992.264.46 1.86-3.785 9.1-6.88 11.153-1.1.73-1.17.537-1.084-.687.06-.82.138-.755 1.267-1.834 1.61-1.54 3.373-3.914 4.34-6.02 1.243-2.7.94-2.87 1.363-2.876zm2.88.027c.403 0 .78.137.884.316.14.243-.05.638-.18 1.126-1.4 3.956-4.875 9.652-8.96 12.89-1.586 1.222-1.856 1.214-1.97-.05-.07-.735.27-.95 1.016-1.466 3.462-2.4 6.575-6.57 7.892-10.825.257-.83.16-1.574.61-1.826.21-.118.463-.167.705-.167zm21.497 6.86c.166.282 1.355 2.14.384 1.44-.4-.326-1.122-1.15-2.275-2.46-2.726-3.095-2.81-2.903-2.754-3.673.027-1-.69-2.65.86-2.22 1.524 1.79 2.482 4.678 3.786 6.913zm-12.41-6.8c.308-.005.673.053.978.114 1.796 3.373 6.178 6.336 6.16 6.32 0 0 .11 1.47-.05 1.73-.09.45-6.96-4.767-7.722-7.89.075-.2.327-.27.636-.275zm-4.89.06c1.613 2.965 4.94 9.688 12.76 12.404.56.12 1.16 1.72.73 2.16-4.287-1.242-12.064-5.44-14.705-14.523.26-.24.942-.205 1.216-.04zm-2.1.578c-.267.004 3.693 11.432 14.973 14.84.974.305 1.545.728 1.483 1.305-.08.73-.055.82-1.14.275-3.078-1.607-7.464-2.36-11.128-.5-.57.29-1.15 1.084-.69 1.58.26.257.91.068 1.733-.253 4.265-1.66 10.79-.684 11.94 1.924.82 1.852.96 3.217.51 3.444-.34.17-.92-.45-1.934-1.345-3.244-2.846-7.123-3.638-10.21-.903-.664.595-1.325.49-1.56.736-.224.236.045.77.23 1.287.2.54.21.69.01 1.15-.27.626-.28 1.43-.25 2.027.075 1.46 1.04 2.714 3.815 4.637 2.16 1.497 3.85 2.34 1.22.21-4.54-3.68-5.367-5.18-2.423-3.904 2.94 1.18 7.014-.004 9.9-2.206.98-.017 1.567-.19 2.084.19 2.154 5.05 3.914 11.775 6.775 18.294-3.417 3.86-15.314 13.314-23.797 12.977-7.324-.29-9.91-12.28-11.53-18.904-.545-2.802-1.167-5.655-1.092-9.615 0 0 .134-.107.32-.07 1.23.23 3.343.39 4.416.14 1.95-.455 2.34-.8 2.455-.515.135.337-.677 1.1-2.095 2.07-.617.423-2.412 1.288-2.223 1.415.43.29 2.6-.87 2.966-1.18.57-.48.96-.51 1.23-.242.32.31.385-.02-.665 2.587-1.16 2.872-1.046 3.133 1.21 4.903.787.614 1.504 1.23 1.676 1.5.213.35.36.77.46.9.382.51.15-.31-.08-1.62-.263-.965-1.21-1.925-1.88-2.392-1.234-.854-1.04-1.694-.02-4.613 3.01-8.606 2.24-12.446-1.074-14.316-1.496-.843-5.68-.62-7 .484-.65.543-.56-.523-.46-.594 7.95-5.467 9.816-10.68 11.844-15.706zm15.345 4.218c2.26 2.24 5.066 5.28 6.757 7.445.93 1.15 1.418 2.335 2.157 3.546.14.22.28.47.18.574-.04.04-.36-.148-.54-.28-1.656-1.25-8.48-9.02-8.48-9.02-.318-1.28-.537-1.715-.076-2.266zm1.35 5.278s5.916 6.46 9.305 9.636c.668 1.4 1.944 3.414 1.91 3.754-.012.15-.722-.397-.722-.397-3.744-3.45-7.203-7.326-10.8-11 .036.02-.282-1.52-.286-2.144.083-.304.44.032.597.15zM147 57.438c.795 1.295 1.376 2.455 1.76 3.216.63 1.205.42 1.24-.138.794-4.23-3.464-7.775-7.682-11.762-11.546-.518-.533-1.55-1.717-1.55-1.717.035.045-1.3-2.783-.462-2.73.657.26 1.088.97 1.51 1.425 2.09 2.238 6.075 6.085 10.644 10.558zM110.073 48.2c1.746-.052 3.466.4 4.333 1.47.79.974 1.108 2.515.67 2.962-.273.28-1.242-.507-1.242-.507-4.11-2.306-5.526-1.195-7.756-.518-.32.096-.66-.76-.25-1.61.82-1.41 2.89-1.755 4.242-1.796zm25.87 2.184c4.397 4.408 8.864 9.306 13.622 13.097.667.57 1.124.94 1.428 1.24.628 1.25 2.073 4.21 2.073 4.21-5.1-3.56-16.586-15.86-16.46-15.77.116.06-.96-2.25-.664-2.77zm-8.608.73c.803-.008 1.684.244 2.378.52 2.215.88 3.61 1.815 1.315 1.503-3.198-.435-4.29-.458-5.46-.27-2.17.35-2.34.59-2.53.246-.497-.905 1.884-1.976 4.293-2zm-18.127.258c.8-.004 1.67.172 2.52.544 2.71 1.185 3.182 1.956.88 1.585-1.2-.19-3.39-.17-4.96.23-.5.13-1.05.42-1.18.46-.56.18-.71-.24-.477-.93.415-1.206 1.687-1.872 3.215-1.882zm19.61 3.456l.553.04c-.695 3.957-4.65 3.57-5.71.173l.56-.01c2.08 3.25 3.637 1.34 4.595-.2zm2.2.206c1.82-.02 1.703 1.076-.2 1.81-1.455.565-1.62.463-1.086-.628.514-1.05.46-1.173 1.282-1.182zm-18.81.142c.172 3.564-4.79 4.218-5.1.33l.474-.023c1.628 3.057 3.507 1.21 4.094-.307zm2.203.487c.565.383.216.91-1.005 1.655-1.1.685-1.385-.143-.478-1.292.38-.37 1.006-.677 1.484-.363zm8.616-.005c.216-.07.73.895.293 1.126-.26.138-.65-.257-.69-.55-.036-.23.11-.485.395-.575zm14.87.222c3.315 3.65 6.65 7.317 16.41 15.264 0 0 1.38 2.453 1.68 3.41-.24.294-.363.26-1.047-.08-6.365-4.912-12.28-10.887-16.916-16.44-.22-.785-.71-1.54-.128-2.153zm-31.596.364c.377-.01.91.83.616 1.335-.242.19-.62-.11-.78-.34-.163-.23-.16-.65-.06-.84.06-.11.138-.16.225-.16zm32.983 5.058c-.026-.127 15.413 15.52 17.393 15.22.92.544 3.216 4.99 3.216 4.99.067.142.057.403-.316.22-2.61-1.292-13.52-10.346-19.1-17.086-.41-.98-.9-2.228-1.194-3.343zm-18.35 2.298c2.692 1.3 1.533 3.968-1.308 2.27-2.24-1.36-4.015-1.483-4-.306.003.496.613 1.136 1.204 1.13 1.106.07 2.11.475 3.196.713 1.698.365 2.967-.086 3.39-1.116.723-1.74-.99-3.65-2.12-3.55-1.13.1-.846.64-.363.86zm21.316 4.277c-.19-.165 7.675 8.452 18.4 15.57.414.48 1.45 2.967 1.616 3.303-.043.234-.28.004-.28.004-5.415-3.13-12.563-9.34-19.336-16.386 0 0-.65-1.562-.85-2.577.148-.06.308.02.45.09zm-17.867 3.103c-.245.033-.57.402-.975.624-.825.453-1.086.574-3.113-.034-1.1-.33-1.277-.307-1.934.18-.573.424-.89.495-1.53.208-1.15-.517-1.685-.14-2.75.23-1.018.37-1.367-.08-2.28-.287-.12 0-.175 3.69-.054 3.81.042.04.95-.55 1.466-.82.888-.45.76-.38 2.054-.32 1.91.33 3.8.22 5.08-.283 1.592-.45 2.836-.365 3.936.536.667.55 1.553.46 1.036-.547-.18-.35-.585-1.63-.536-2.105.074-.71-.084-1.167-.35-1.18-.015 0-.03-.003-.046 0zm20.396 2.875c3.62 3.473 8.085 8.77 18.585 14.91.547.96 1.287 2.233 1.755 3.226.046.28-.022.52-.29.43-6.49-4.11-10.097-6.11-19.09-14.97-.56-.9-1.156-2.43-1.62-3.675.097-.35.513 0 .66.09zm-1.527 1.326l4.016 7.54-13.523-.03c3.435-2.04 6.716-4.77 9.506-7.51zm-22.416.17c-2.22.89-2.558 1.07-4.76.53-1.283-.31-.93.43-.275.74 1.662.78 4.07.23 4.96-.38.59-.38.993-1.247.073-.882zm-2.28 2.33c-2.327.038-4.52.85-4.684 1.79-.032.187.158.39.52.17 1.576-.944 5.488-1.254 8.448-.19.48.178.563-.12.067-.53-1.107-.913-2.76-1.256-4.35-1.234zm29.514 3.22c4.378 4.04 8.603 7.76 18.024 13.17.677 1.48 1.66 3.25 1.83 3.404-8.83-4.286-18.452-12.743-18.452-12.743s-1.514-2.7-1.862-3.855c-.03-.39.338-.07.46.03zm3.015 6.3s8.06 6.817 17.25 11.444c.37.36 1.296 2.55 1.597 2.787.305.237-.364.236-1.026-.105-4.81-2.214-15.12-9.303-15.12-9.303-.99-1.62-2.408-3.31-2.7-4.82zM54.63 115.68c.737-1.577 1.49-3.33 1.977-4.76 2.194.02 3.273-.8 4.05-1.79 1.113-.03 1.964-.028 3.478-.07-.05-1.5.02-3.618.02-3.618 1.535-1.58 2.576-3.405.196-6.2 0 0-.09-1.3-.13-3.52-1.09-.176-3.55-.063-3.55-.063-1.987-2.8-5.513-2.09-6.582 0 0 0-1.584.08-2.67.09-.024.59-.21 3.21-.21 3.21s-4.636 3.16.172 6.884l-.067 3.13c.9.072 1.544.012 2.72.237 0 0-1.84 4.27-3.05 6.3-.414.11-.316-.13-.816-1.545-.602-1.67-1.962-3.494-3.116-4.393-1.563-1.207-3.704-1.58-5.2-2.63-1.436-1.01-2.453-2.314-2.91-2.07-.15.506-.314 3.422.228 5.296.763 3.083 5.198 5.05 8.902 6.523.283.184.537.46.54.563.003.51-.49.35-1.705.23-1.834-.184-2.594.32-3.24 1.887-.19.388-.65 1.054-1.02 1.495-.37.442-.76.872-.813 1.06-.053.188-.435 1.14-.813 1.935-.234.49-.62 1.002-.65 1.726-.088 2.21-.12 5.176.21 7.05.245 1.373 1.98 2.162 2.58 2.274.917.17 1.084 1.102.94 1.864-.707 3.755-2.87 6.053-3.56 4.82-.184-.325-.376-1.86-.427-1.84-.034.012-.364 1.305-.238 1.83.135.566.858.982 1.57.724 1.057-.383 1.89-1.43 2.545-3.813.27-.973.523-1.517.98-1.588.835.057 2.137 1.78 2.137 1.78C42.77 142.3 34.42 148.86 34.42 148.86l-.31-118.4 68.727.13c.383 9.388-.757 17.285-4.127 25.648-3.994 9.007-10.194 15.7-14.936 23.99-5.725 10.01-7.56 20.39-5.61 30.835-5.85 7.66-10.78 11.336-15.46 14.894 0 0-3.51-3.69-5.456-5.753 0 0 .822-.068 1.784-.107 4.448-.497 9.26-1.127 11.118-5.755.265-.514.153-.742-.16-.813-3.482.484-6.506-.006-8.48.134-4.828.34-6.868 2.013-6.868 2.013zm.53 3.407s-5.586-2.654-6-2.73c-2.435-.44-8.307-3.5-9.3-5.58-.13-.272-.453-4.067-.557-4.844.035-.248.134-.24.378-.062.63.44 3.06 2.02 3.96 2.46 3.71 1.8 5.15 3.088 6.06 5.8.23.68.467 1.387.6 1.53.298.32.424.297.796.01 1.59-2.055 2.335-3.77 3.07-5.98.096-.242.303-.494.18-.85-.29-.975-1.002-2.238-.273-3.19-2.324.104-4.55-1.594-4.265-3.296.62-3.152 1.96-2.584 4.465-3.043-.29-7.29 6.535-5.52 6.52-.443 7.495.63 3.953 7.566-.403 6.505 1.727 3.94-3.46 5.418-4.19 4.748-.294 1.273-2.27 5.373-2.69 6.592 5.554-3.94 14.493-2.19 15.79-2.445-3.23 6.75-13.78 5.107-14.13 4.825zm100.034-24.85c1.412 1.085 13.374 8.566 15.58 8.735 0 0 1.058 1.187 1.93 2.267.814 1 1.114 1.16 1.207 1.36.1.2-.3.19-.37.185-5.38-2.34-10.86-4.8-15.51-8.69-.63-.53-.77-.775-1.08-1.18-.41-.544-1.623-2.48-1.75-2.68zm3.965 6.033c5.47 3.074 10.12 6.055 15.1 7.66.71.265 1.074.283 1.43.533.353.25 1.872 1.19 2.23 1.4 2.276 1.334 2.51 1.27 1.945 1.494-.624.25-4.62-.917-7.993-2.165-5.988-2.213-8.105-3.47-10.27-5.42-.488-.506-2.763-3.226-2.45-3.502zM50.08 117.41c.46-.01 1.198.276 1.967.865.822.63 2.842 1.95 3.675 2.308.427.183.56.23.56.23l5.38 6.108-13.852 11.27s-1.125-1.15-1.483-1.533c-.338-.364-.24-.667.18-1.08.34-.33.365-1.047.31-1.4-.086-.52-.072-1.11.59-1.6.534-.392.617-1.08.59-1.27-.02-.154.29-.657.753-.994.972-.71 1.265-1.572.937-2.59-.138-.423-.212-.534.345-.906.99-.66 1.236-1.285 1.31-2.25.012-.15-.03-.31-.052-.432-.195-1.024.71-.765 1.452.52.405.7.52 1.85.724 3.16.24 1.543.403 1.963.487 1.746.48-1.245-.086-5.92-1.51-6.555-2.078-.93-3.816-2.82-3.295-3.564.18-.256.212-.17 1.48.417.742.344 1.43.62 1.533.626 1.47.045.58-.583.1-.65-.57-.08-2.29-1.123-2.49-1.49-.33-.61-.15-.916.31-.926zm-3.543.804c1.353-.015 1.613.347 1.627 1.513.008.688.265 1.217 1.343 2.588.44.558.733.987.705 1.206-.048.37-.178-.01-1.67-.18-.53-.062-.8-.07-.984.204-.513.76-1.6-.032-2.27-1.154-1.596-2.676-1.033-4.14 1.25-4.167zm25.79 1.613l14.728 18.024-1.66 1.29-14.784-17.78zm-2.462 1.106l1.578 2.664s-4.564 3.9-5.764 5c-9.7 7.85-31.59 25.673-31.59 25.673l-.296-3.585zm-26.583.483c.288.007.617.37 1.083 1.083.405.61 1.27 1.85 2.195 2.7 1.795 1.65 1.968 1.5.51 1.66-.578.06-.767-.01-1.12.87-1.07 1.333-4.226-3.442-3.486-5.27.29-.713.53-1.06.818-1.054zm5.137 2.578c.26-.013.61.087 1.02.336.78.32.83.507.7 1.253-.123.714-.667.9-1.736-.043-.81-.765-.675-1.514.005-1.546zm23.5.44l1.73 2.235-39.28 31.76.01-3.66c.96.12 26.143-21.76 37.536-30.34zm-30.46.364c.102-.022.27.338.702.993.887 1.34 1.7 2.22 2.63 2.92.877.66.976 1.03.373 1.04-.257.003-.61.274-.794.59-.372.64-.405.49-.98.15-.82-.48-1.644-1.203-1.972-2.155-.31-.896-.343-2.26-.09-3.254.044-.174.08-.265.13-.275zm6.2 2.535c1-.035 1.72 1.13 1.06 2.072-.37.36-.7.53-1.436.1-.967-.57-1.14-1.448-.35-1.94.247-.153.493-.224.724-.232zm-6.44 2.52c.21-.008.59.295 1.222.947.487.5 1.334.927 1.673 1.117.76.424.796.572.382.912-.177.14-.756.15-.914.61-.45 1.312-2.357-.218-2.54-2.1-.09-.957-.1-1.483.17-1.496zm4.793.157c1.253.053 1.845 1.514.847 2.233-.543.392-1.915-.3-2.052-1.017-.09-.462.73-1.235 1.207-1.216zm29.29 1.087c.724 0 1.312.588 1.313 1.315 0 .726-.59 1.315-1.315 1.315-.73 0-1.316-.59-1.316-1.315 0-.727.59-1.315 1.313-1.315zm-3.933.544c.727 0 1.316.59 1.316 1.32 0 .73-.59 1.32-1.317 1.32s-1.316-.59-1.316-1.314c0-.727.587-1.315 1.314-1.315zm-26.34 1.76h.25c1.207.06 1.27 1.21.554 1.83-.427.37-.815.488-1.37.04-.99-.79-.624-1.8.568-1.87zm29.27 1.93c.727 0 1.316.59 1.316 1.317 0 .726-.587 1.315-1.313 1.315-.727 0-1.32-.59-1.32-1.314 0-.727.593-1.315 1.32-1.315zm115.448.08l.06 3.325-46.44 38.63-1.57-2.05zm-118.118.284l-3.43 7.71-1.03-1.99H64.6l.788-2.3-1.51-1.84zm73.08 32.066l6.112-4.9c-2.633-13.27 7.87-18.553 17.84-14.697l6.205-5.29c-11.513-9.695-38.586-3.12-30.158 24.885zm-82.67-25.94c.725 0 1.314.59 1.314 1.313 0 .726-.587 1.314-1.313 1.314s-1.31-.59-1.31-1.316c0-.724.59-1.313 1.314-1.313zm-3.994.32c.726 0 1.273.547 1.273 1.273s-.55 1.36-1.277 1.36-1.315-.59-1.315-1.32c0-.725.586-1.313 1.312-1.313zM79.3 144.8l-6.057 4.85c1.566 12.71-4.616 19.18-17.907 14.824l-6.428 5.1C66.273 181.514 89 166.117 79.3 144.797zm-18.644 1.147c.727 0 1.315.59 1.315 1.315 0 .727-.58 1.315-1.31 1.315s-1.31-.588-1.31-1.315c0-.726.59-1.315 1.315-1.315zm127.447.333c.727 0 1.32.59 1.32 1.315 0 .727-.593 1.315-1.32 1.315-.726 0-1.314-.588-1.315-1.315 0-.726.59-1.315 1.315-1.315zm-130.168.315l-3.873 7.662-.964-2.307-2.6.036.84-2.675-1.627-1.37zm124.966.806l1.21 2.03 2.546.06-.957 1.93 1.837 1.9-8.284 2.036zm-134.2 5.57c.728 0 1.32.59 1.32 1.318 0 .726-.592 1.315-1.32 1.315-.725 0-1.313-.59-1.313-1.313 0-.73.588-1.318 1.315-1.318zm-3.782.15c.726 0 1.32.59 1.32 1.315 0 .726-.594 1.314-1.32 1.314-.727 0-1.315-.588-1.315-1.315s.588-1.316 1.315-1.316zm131.586.782c.725 0 1.314.59 1.314 1.315 0 .728-.59 1.316-1.315 1.316-.73 0-1.316-.587-1.316-1.314 0-.726.585-1.315 1.312-1.315zm13.3.204l.058 2.92c-12.116 10.695-37.596 31.336-37.596 31.336l-1.584-2.04s25.925-21.184 39.127-32.22zM47.548 156.95c.726 0 1.314.588 1.314 1.315 0 .726-.59 1.32-1.313 1.32-.73 0-1.32-.594-1.32-1.32 0-.728.588-1.316 1.315-1.316zm131.642.316c.725 0 1.313.59 1.313 1.316 0 .724-.586 1.32-1.313 1.32s-1.315-.596-1.315-1.32c0-.73.59-1.317 1.316-1.317zm-3.724.237c.726 0 1.315.59 1.315 1.316 0 .723-.59 1.32-1.312 1.32s-1.32-.597-1.32-1.32c0-.73.593-1.32 1.32-1.32zm14.7.467l-.11 3.717c-11.743 10.01-35.76 29.893-35.676 29.905l-1.815-2.506s26.327-22.677 37.6-31.118zm-145.036-.55l-3.623 8.172-1.564-2.2-2.286-.157.544-2.21-2.1-1.428zm125.606 3.228l2.313-.44-.41 2.368 1.62 1.706-8.52 1.87 4.12-7.636zm12.73 39.813c1.726 2.59 1.617 5.41.894 5.84-.763-.43-1.425-1.17-2.213-1.51-3.97-1.71-7.14-3.114-7.706-5.632-2.16-5.696 7.59-.837 9.03 1.31zm-20.863-15.13l13.355-10.87s2.047 1.06 2.434 1.538c.138.53-.23.69-.775 1.18-.25.32-.407.63-.42 1.323-.016.745.23 1.08-.07 1.41-.505-.03-.907.63-.885 1.16.016.407-.515.857-.827 1.16-.552.545-.714.658-1.07 2.498-.034.184-.022.663-.28.91-.773.07-1.333 1.96-1.685 2.08-.564-.036-1.46-.725-1.678-1.742-.142-.66-.104-1.945.053-2.773.186-.983.27-1.875.208-2.112-.144-.547-.507-.21-.502.56.01.313-.11 1.25-.31 2.134-.2.884-.74 2.06-.492 2.76.36 1.04 1.695 1.48 2.296 2.03 1.58 1.45 1.925 2.157 2.105 2.48 1.264 2.31 1.27 2.704.95 4.443-.18 1-1.157.83-1.744.422 0 0-3.753-2.735-5.39-4.09-2.473-2.06-4.21-4.16-5.26-6.497zm5.068 7.47c1.44.58 5.17 3.29 5.17 3.29l-3.395 7.07c.618 1.106.867 3.854.867 3.854 4.296-.33 6.623 6.91-.07 6.243.765 4.477-6.445 7.984-6.25-.037-7.51.58-4.986-7.927-.36-6.33-.14-3.606 2.266-4.07 3.96-4.958 1.39-1.573 2.244-5.132 2.244-5.132l-.34-1.085c-1.422 2.49-7.49 3.2-14.15 1.884 1.804-4.277 7.277-4.156 12.334-4.794zm-13.25 5.38c-.22.85-.23.84.8.74.52-.05 2.61-.05 4.07.01 2.68.21 6.902.23 9.02-1.38.41-.39.634-.366.71-.15.18 1.04-1.875 4.466-1.875 4.466l-3.393 1.876s-1.39.065-3.11.023l-.03 3.053c-1.35.798-3.66 4.214.057 6.83l-.125 3.327 3.276.06c2.175 2.08 3.946 2.072 5.943.11l3.78.003-.02-3.59c1.868-1.498 2.13-4.04.23-6.07l-.05-3.643-2.91.017s-.6-.467-.617-.838c-.002-.24 2.124-4.332 2.53-4.92.53-.76.386-.322 1.23 1.43 1.21 2.51 2.408 3.538 5.475 5.02 2.737 1.324 3.715 1.94 4.508 2.7.632.6 1.005.41 1.25-.49.527-2.002.364-4.006-.738-5.84-2.33-3.87-6.385-4.046-7.03-4.94-.087-.215.74-.46 1.626-.858 1.534-.933 3.78-3.754 4.07-4.886-.054-.547.307-2.265.572-2.646.306-.676.34-.992.327-2.806-.275-1.035-.025-2.383.104-2.847.14-.94-.36-2.05-1.07-3.41-.268-1.266-.206-.937.612-3.786.133-.46 1.053-4.43-.124-4.7.013.034.12.156.154.22.2.4.308 2.113.13 2.598-.07.19-.205.69-.298 1.107-.713 3.186-1.135 3.986-1.78 3.29-.153-.167-.74-.404-1.195-.705-.856-.566-.783-.845-.573-1.91.052-.16.39-1.623.355-1.58-.186.504-.31 1.8-.895 2.106-.312.073-.745-.206-1.56-.91-.31-.27-.98-.735-.98-.735s9.654-8.122 13.24-10.815l-.03 120.31-68.22.03c-.852-7.455 1.39-17.314 5.1-27.19 2.293-6.104 5.587-10.63 9.3-16.095 7.124-10.416 12.51-20.994 10.434-34.404-.27-1.99-.542-2.942-.45-3.48.867-1.622 4.3-6.546 6.81-8.6 3.685-3.005 8.81-7.5 9.22-7.234 1.224 2.36 2.67 4.27 4.59 5.71.337.364.346.69-.433.85-5.084-.047-10.318 1.07-12.016 5.57zM35.96 164c.727 0 1.316.588 1.316 1.315s-.59 1.316-1.315 1.316-1.31-.59-1.31-1.31c0-.723.59-1.31 1.317-1.31zm127.53.298c.728 0 1.316.588 1.316 1.315 0 .725-.588 1.314-1.315 1.314s-1.31-.59-1.31-1.315c0-.73.59-1.317 1.317-1.317zm2.866 3.607c.727 0 1.315.59 1.315 1.316 0 .73-.59 1.32-1.31 1.32-.724 0-1.313-.584-1.313-1.31s.588-1.317 1.314-1.317zm-4.255.56c.73 0 1.32.59 1.32 1.316 0 .73-.59 1.32-1.313 1.32-.73 0-1.316-.584-1.316-1.31 0-.73.588-1.317 1.315-1.317zm-4.7 2.998l2.38-.118c-.3.854-.46 1.736-.63 2.62l1.94 1.424-8.38 1.42 3.61-7.427zm-5.71 21.652l-14.11-18.22 1.7-1.375 14.227 18.02zm-1.72-17.7c.727 0 1.316.588 1.316 1.314 0 .72-.59 1.31-1.315 1.31-.726 0-1.314-.59-1.314-1.318s.59-1.316 1.316-1.316zm29.636 2.04c1.144.89 0 2.137-1.093 1.645-.95-.4-.877-1.363-.13-1.748.466-.22.82-.168 1.223.102zm1.52.848c1.175.02 2.47 2.8 2.23 3.618-.35.95-.67.99-2.323-.41-1.636-1.38-1.66-1.44-1-2.19.368-.423.544-.983 1.09-1.01zm-27.91.508c.73 0 1.318.59 1.318 1.32s-.587 1.32-1.314 1.32c-.726 0-1.315-.59-1.315-1.32 0-.723.59-1.31 1.315-1.31zm-4.074.51c.726 0 1.315.59 1.315 1.32 0 .724-.59 1.313-1.315 1.313-.73 0-1.317-.59-1.317-1.315 0-.727.585-1.315 1.312-1.315zm28.883.94c1.298.19 1.638 1.17 1.04 1.9-.81.99-2.63.09-2.2-1.08.196-.533.67-.81 1.16-.82zm2.328 1.48c.51-.04 1.275.66 2.113 1.826.94 1.31 1.016 1.73.75 2.53-.39 1.165-.63 1.378-1.477.243-.32-.43-1.06-1.43-1.587-1.985-1.13-1.18-1.305-.88-.63-1.782.31-.416.524-.805.83-.83zm-3.05 1.378c1.166.603 1.278 1.387.59 1.94-.81.444-2.242-.08-2.52-.884-.405-1.173.84-1.77 1.93-1.054zm1.976 1.735c.66-.042 1.203.64 2.01 1.94 1.373 2.218 1.45 2.965.277 4.427-.84 1.05-.927 1.106-1.75-.57-.675-1.37-1.955-2.975-3.14-3.937-.497-.4-.67-.964-.314-1.002.104-.01.543-.03.974-.045.634-.023.864-.11 1.21-.45.23-.224.477-.347.734-.363zm-4.733 1.73c.614-.03 1.407.303 1.997.99.67.7.59 1.345-.723 1.474-.59.23-2.2-.824-2.21-1.532-.006-.593.396-.904.938-.93zm3.095 2.57h.095c.55.027.837.56 1.457 1.8.955 1.91.68 2.95-.964 3.795-1.114.573-1.966.744-2.11.09-.04-.19-.042-.74-.134-1.276-.122-.712-.285-1.453-.915-2.402-1.006-1.515-1.184-2.052-.08-1.606.583.235 1.22.207 1.886-.143.296-.155.546-.25.77-.26zm-5.577 3.07c-.383-.01-.63.227-.526.85.346.17.895.014 1.31.16.56.2.903 1.11 1.5.96.06-.762-1.444-1.952-2.286-1.97zM58.21 205.528c-3.075-1.463-10.69-4.852-14.36-4.9-6.8-1.91-7.26-1.043-9.643-1.654 12.626-3.275 21.317 3.02 24.5 6.08 1.443 1.44.657 1.026-.498.475zm8.04 29.766c7.224 12.533 13.96 26.67 25.256 47.602l-1.085.34-43.08.077c2.138-23.125-10.36-45.16-11.21-44.294 9.76.18 17.86-1.704 19.57-5.3l-1.39-.4c-5.68 4.9-13.91 5.127-19.58 3.61.13-12.05-.55-24.775-.173-36.82 6.71-.5 11.958 1.96 15.677 6.863 6.253 8.244 10.493 18.726 16.024 28.32zm-19.76-33.39c1.728-.133 11.158 3.747 15.377 6.645 1.172 1.21 2.883 3.316 2.885 3.522.007.56-.825-.13-4.9-2.453-3.084-1.737-6.283-3.12-9.398-4.45l-.428-.19s-.23-.263-.626-.57c-1.11-.857-3.265-2.38-2.91-2.51zm4.584 4.394c-.093-.018 9.353 3.403 16.87 9.39 1 .795 2.226 3.764 2.226 3.764-.67-1.26-12.543-8.36-16.71-9.99l-2.386-3.16zm3.33 4.542c.516-.31 14.33 7.84 16.356 9.95.917.7 3.067 4.11 3.074 4.79.007.61-.664.086-1.9-1.06-6.363-5.94-15.555-10.415-15.63-10.32zm2.564 4.732c6.488 2.745 14.636 9.344 18.75 13.273 1.027 1.016 1.76 2.49 1.9 3.177.087.426-.128.397-.213.625-5.33-6.12-17.043-13.1-18.597-13.648.012.382-1.288-2.37-1.84-3.43zm21.54 19.062c.746.76 1.93 3.43 1.664 3.755-.13.16-.117.072-.43-.14-1.705-1.7-10.466-9.47-17.775-13.83-.687-.348-2.988-3.97-2.5-4.04 3.82 1.24 14.75 9.97 19.04 14.26zm-15.808-8.67c.126.01.355.17.747.387 6.722 3.71 16.466 13.05 18.313 15.29.42.69 1.082 1.96 1.033 2.74-.084.61-.328.09-3.046-2.58-4.367-4.275-9.39-8.414-14.715-11.89-1.024-.704-.828-.794-1.57-2.087-.746-1.295-1.04-1.873-.762-1.853zm42.99.14c4.8.138 6.677 3.77 9.633 10.47 2.42 6.6 3.423 12.644 3.534 17.457.007.33-.58.05-.847-.02-1.285-.34-2.885-.67-4.74-.2-1.362.35-2.656.31-1.258-.61.45-.29 1.673-1.42 2.323-1.83 1.316-.82.516-.81-.79-.16-.99.486-1.65 1.103-2.058 1.2-.252.06-.095-.768.147-1.36 1.396-3.435 1.818-5.467-.26-6.104-.563-.17-1.32-.692-1.68-1.04-.285-.277-.53-1.39-.62-1.433-.095-.047-.162 1.01-.16 1.173.006.55.714 1.67 1.566 2.28 1.446 1.035 1.73 1.322.946 3.78-1.1 3.44-1.336 4.28-1.538 5.08-.116.46-.34 1.24-.454 1.743-.436 1.95-.383 3.652-.302 5.273.475 3.62 4.378 5.405 9.617 3.394.49-.193.7-.02.7-.02-4.18 4.245-8.86 6.958-11.59 15.532-3.51-7.075-8.48-12.617-16.75-14.84l-.12-1.477c2.88 1.38 8.47 3.26 12.02 1.15 1.9-1.3 1.32-2.137-.988-1.24-2.745 1.063-7.703.94-10.18-.457-.503-.284-1.017-.038-1.162.01-.13-.832-1.32-3.965-1.146-5.144-.103-.166.753-.174.92.045.684.914 4.162 3.637 7.775 3.424 1.796-.106 3.273-.65 4.834-2.3.13-.114.766-.2.853-.295.14-.156.04-.39.032-.473-.04-.124-.274-.47-.427-.855-.2-.337-.242-.69-.21-.962.007-.226.157-.346.274-.504.136-.3.1-.685.024-.89-.32-.217-.28-.62-.11-.81.49-.552-4.206-4.84-5.126-4.83-.33.006-.135.617.54 1.066 2.387 1.585 4.127 3.655 3.732 3.926-.306.21-1.375-.246-2.46-.503-2.188-.513-4.81-.84-7.655 1.213-1.067.874-3.88 1.006-3.88 1.006-.036-1.534-6.51-18.645-6.524-17.9 2.357-2.747 9.76-9.25 17.177-12.053 2.28-.748 4.733-1.13 6.378-.91zm-28.12 3.83l13.464.21c-3.385 1.702-9.536 7.815-9.536 7.815-1.76-3.54-2.297-5.31-3.928-8.03zm-11.64 1.776c1.004.008 11.69 8.716 13.21 10.773.184.247 1.267 1.39 2.41 2.535 2.763 2.77 3.903 4.372 3.915 5.515.006.54-.487.19-1.225-.624-5.535-6.15-9.137-9.49-15.978-14.21-.776-.414-3.188-3.624-2.37-3.98.01 0 .022-.01.038-.01zm36.557 1.606c-.3-.01-.252.278-.088.544 1.69 1.493 6.17 1.43 7.71.22 1.4-1.1-.44-.52-1.01-.278-1.34.573-2.774.51-4.637.014-1.086-.29-1.686-.496-1.986-.506zm4.13 2.44c-1.567.015-3.204.485-2.84 1.06.134.21.562.603 1.586.047 1.477-.73 4.512.228 4.602.25.31.082-1.01-.868-1.452-1.063-.488-.22-1.185-.3-1.897-.3zm-37.73 1.628c5.743 3.513 12.74 10.545 16.938 15.566.7.86 1.204 1.923 1.21 2.55.01.9-.182.4-3.996-3.46-3-3.06-7.51-7.23-10.5-9.47-1.8-1.31-2.12-1.48-2.96-3.03-.8-1.46-1.08-2.18-.7-2.16zm35.78 1.173c-1.08.513-2.512.403-3.907-.076-1.263-.43-.967-.06-.487 1.32.218.626.353 1.514.355 1.645.004.31.003.33.894-.17.776-.43.94-.58 2.597-.193 1.68.39 1.71.247 2.5-.165.69-.36.83-.575 1.3-.385.92.37 1.97.53 3.15-.095.91-.476 1.2-.154 1.62.058.57.286.79.104.566-.464-.088-.227-.255-1.2-.26-1.505-.01-.584-.15-1.108-.397-.985-.906.454-1.64.94-2.505.922-1.584-.028-2.97-.98-5.44.1zm-69.988 1.198c14.31 17.833 11.78 43.54 11.3 43.332l-11.22.05zm37.24 3.604c5.713 4.01 12.52 10.994 16.29 15.83.64.83.12 1.094.44 2.1.12.375-.516-.177-2.33-2.127-2.265-2.43-5.986-6.086-8.435-8.207-2.684-2.325-3.46-2.91-4.03-3.695-.45-.655-2.29-3.813-1.938-3.905zM104.1 245c-.06 0-.12 0-.18.004-2.037.095-3.07 2.376-1.327 3.987.655.61 1.696.968 1.693.64 0-.08-.33-.403-.558-.58-1.454-1.116-1.305-2.86.35-2.875.572 0 .61.2 1.933 1.15 1.56 1.12 3.4 1.12 3.38 0-.015-.826-.323-1.673-1.715-1.54-.366.04-.854.078-1.282-.03-.41-.104-.76-.355-.922-.426-.485-.215-.95-.315-1.37-.32zm-28.465 5.25c4.374 2.936 10.386 9.577 13.46 13.493.703.918.75 1.933.465 2.48-.066.107-.604-.227-.604-.227-3.55-4.184-7.58-7.987-11.535-11.85 0 0-2.35-3.778-1.78-3.897zm42.406 6.352l-.94.47c-1.43-2.14-2.74-2.17-3.84.337l-.7-.18c-.527-.58 1.882-6.03 5.484-.626zm-.21-1.83c.397.02 1.087.23 1.247.63.18.37-.024.79-.565.77-.08 0-.604-.64-.864-1.032-.192-.24-.11-.37.185-.363zm-16.06 2.63l-1.06.05c-2.012-2.646-3.52-.87-4.42.235l-1.136-.153c.18-2.907 5.32-3.92 6.615-.13zm10.29-2.26c.16.005.316.035.46.09-.414.634-.485 1.16-.58 1.73-.41.17-.994.528-1.43.074-.81-.737.437-1.914 1.55-1.893zm-16.522.3c.5 0 .35-.03.133.246-.22.284-.52.787-.68 1.236-.066.314-.12.427-.41.437-.56.02-1.69-.18-1.68-.17-.43-.406 1.35-1.7 2.64-1.744zm6.398.37c.334-.04.255.435.15.622-.212.25-.296.33-.414.02-.055-.15-.142-.267-.214-.356-.164-.21-.145-.222.058-.26.092-.014.305-.024.422-.026zm17.285 2.112c1.23-.03.41 2.06-1.306 2.564-1.892.96-4.063.73-6.272-.53-1.26-.72-1.64-1.475-.542-1.172 4.134 1.14 5.14.93 7.635-.685.15-.122.307-.153.486-.17zm-39.796-.452c4.118 3.49 7.218 7.44 10.51 11.08.657.813.964 1.595.838 2.125-.156.66-1.51-.914-1.51-.914.037.015-8.035-8.6-8.035-8.6s-2.05-3.673-1.8-3.692zm12.306 1.205c.286.01.853.14 1.77.377 3.96 1.2 5.16 1.156 7.435.11 1.45-.666 2.05-.57 1.43.432-1.144 1.842-5.18 2.046-8.21 1.017-.8-.273-1.506-.75-2.28-1.33-.413-.43-.513-.62-.145-.61zM110 259.89c.237-.015.68.257 1.217.562 3.318 1.883 5.767 1.537 7.812.275.37-.337.57-.175.62.152.17 1.14.22 1.97-.3 2.52-.31.32-.83.46-1.61.73-3.215 1.08-7.125.3-7.87-2.11-.247-1.24-.4-2.1.12-2.137zm-26.33 5.17c.012 0 .024-.003.038 0 .232.034.768.503 1.613 1.46 4.42 5.01 6.86 7.89 6.42 9.338-.04 0-.07.312-.254.15-2.43-2.096-4.412-4.39-5.89-6.786-1.617-2.626-2.282-4.13-1.92-4.162zm35.605 3.524c-3.727 2.85-8.248 9.632-8.653 12.974-.078.638-.01 1.117-.246 1.348-.188.183-.61.2-1.173.09-.345-.064-.262-.102-.344-.492-.32-1.53 1.14-5.378 4.17-9.915 1.59-2.38 5.2-5.6 6.21-5.62.673.28.02 1.64.027 1.61zm-27.597-1.548c.263-.007.67.13 1.24.374 3.345 1.434 4.593 1.956 6.758 3.722 4.036 3.29 8.52 11.103 7.204 11.834-.578.32-.988.12-1.223-.607-.043-.14-.466-1.23-.97-2.16-2.706-4.97-6.224-8.39-11.183-10.81-1.832-.896-2.018-.798-2.157-1.54-.105-.56-.007-.81.33-.82zm27.543 2.87c.34-.027.42.585.3 1.816-.09 1.004-.15.984-1.27 2.16-1.79 1.447-3.9 4.848-4.88 8.31 0 .12-.09.385-.26.53-.46.395-1.04.202-1.44.194-.28-.152-.2-.778-.15-1.13.82-3.144 2.83-7.005 5.99-10.397.89-.96 1.42-1.46 1.718-1.48zm-26.85.09c1.78-.04 8.07 4.664 10.62 8.78 1.67 2.69 2.12 3.795 1.73 4.186-.2.21-1.092.242-1.56.058-.425-.167-.59-.815-1.385-2.313-2.08-3.907-5.076-6.74-8.32-8.235-.604-.278-.927-.454-1.122-.67-.216-.448-.495-1.71.05-1.804zm.96 3.497c.55.103 2.07 1.09 3.35 2.024 2.25 1.652 5.675 6.7 4.967 7.422-.227.23-1.013.24-1.417.08-2.41-4.29-5.537-6.33-6.807-7.52-.385-.65-1.284-2.18-.087-2.01zm-5 .757c.106-.028.527.387 1.29 1.19 2.26 2.374 3.696 5.005 3.365 6.334-.28 1.124-.61.51-3.2-4.427-1.09-2.078-1.61-3.06-1.456-3.098zm30.93.065c.05 1.365-.06 1.702-.202 2.426-.1.5-.425.73-.733 1.11-.77.96-1.642 2.62-2.082 3.95-.37 1.08-.194 1.34-1.522 1.19-.616-.08-.466-.24-.224-.96.834-2.34 2.84-6.13 4.766-7.71zm-25.694 2.573c.028-.7 6.066 5.377 5.236 6.06-.785.138-1.254.167-1.582-.113-.644-1.446-3.52-4.187-3.52-4.187zm25.36 1.916c.013-.003.025-.003.037 0 .27.055.12 3.792-.104 4.1-.43.218-1.244.237-1.68 0-.265-.143-.345-.41-.245-.7.25-.723 1.56-3.31 1.99-3.4zm-22.79 4.11c-.19.297-1.365.35-1.81.014-.14-.107-.28-1.96-.113-2.297.45-.29 2.073 1.89 1.924 2.29z" fill="#131f67"/><path d="M17.77 13.917c-4.694.09-7.022 4.02-7.045 7.953l.004 10.32H7.92v3.423h2.802s.047 1.566.04 2.503c-.04 4.636 1.598 7.448 4.795 8.225 3.07.56 4.667-.1 7-1.31.85.36 1.442 1.08 2.35 1.18 1.003.1 3.095.055 3.095.055l-.057-3.514-1.047-.152c-1.997-.034-2.865-.733-2.65-1.982.426-.813.487-1.404.528-2.39V20.768c-.062-4.28-3.56-6.81-7.014-6.848zm-.147 3.4c2.24-.034 4.103 2.575 4.053 5.246l.034 13.483c.074.85-.063 1.677-.436 2.26-.293-.862-4.928-5.598-7.246-5.38 0 0-.095.24-.16-5.684-.03-2.91-.794-7.253 1.82-9.215.653-.48 1.307-.7 1.935-.71zM139.076 29l.757.995-4.422.024c.73.61 17.11 33.58 38.07 71.68 3.47 6.68 10.087 9.092 17.768 9.39l-20.35-32.77c2.17-1.18 6.47-4.34 9.075-3.76.16.8.934.482.945-.228l.94.017.33.515h3.955l.32-.468 3.41.49c-9.11-11.23-13.915-28.53-12.355-45.423l-30.21.067-.4-.53zm-3.665 1.02c-.01-.015-.02-.02-.02 0zM100.68 52c-3.436 11.09-11.93 20.217-16.973 29.406-5.407 10.026-6.677 18.75-5.157 28.294l.99.086c11.525-15.723 20.45-34.507 25.447-52.98.11-.402-.078-1.113.014-1.52-.21-.49-.02-1.017.11-1.16.29-.304.19-1.503-.03-3.485-.54-5.88-.43-10.5.06-15.84.38-4.09.358-4.74.358-4.74l-1.973-.03c.364 6.97-.557 15.57-2.84 21.97zm47.445-21.5l3.242.067c.5 9.91 8.845 11.196 10.136 11.052-2.13 6.7 1.396 14.05 9.89 15.09-1.948 6.21 1.5 14.4 8.296 14.176l.71.454c-.44.896-.53 2.735-.506 2.764-1.51.11-2.33.33-3.31.524-8.784-13.24-28.467-44.136-28.467-44.136zm28.815 0c-.98 11.07 1.24 26.27 6.44 35.254 0 0-.166.602-.275.766-.496.746-.74.1-1.04-.5-1.108-2.047-3.2-2.365-4.116-1.227-2.03 2.758.17 3.846 1.87 5.403-6.96-.425-9.28-8.084-7.67-11.873-.04.722.35 1.813.86 2.587 1.952 2.966 4.81.464 3.99-1.883-.34-.97-1.587-2.59-1.587-2.59s1.694-.25 2.387-.67c.647-.4 1.056-1.11.89-2.085-.133-.78-.168-1.123-.586-1.826-.516-.64-1.435-1.086-2.17-1.036-1.438.095-1.613 1.084-2.553 1.76-.232-1.78-1.372-3.134-3.234-2.797-1.415.256-2.435 1.762-1.57 3.648.44.97 1.056 1.26 1.676 2.09-10-1.12-8.91-12.99-7.803-12.78 0 0 .3-.05.21.4-.57 2.91 3.04 4.64 4.62 2.53 1.01-1.71-1.156-4.41-1.156-4.41s1.44-.31 2.094-.688c2.61-1.507-.17-5.833-2.6-4.77-.855.387-1.07 1.18-1.904 1.6-.556-.62-.59-1.297-1.59-1.854-2.74-1.525-4.455 2.087-2.938 3.676.622.646 1.72 1.23 1.505 1.31-8.5-1.072-8.42-9.97-8.224-9.91zm-73.075.075h1.17c-.346 5.278-1.096 12.242-.605 17.39.57 4.916.597 5.613.245 6.1-.483.543-.228.798-.133 1.24.127.808.14.816.024 1.276-1.03 4.13-2.348 8.41-4.02 12.73-5.47 15.09-14.397 31.54-21.397 40.16-.01-.03-.32.03-.33 0C76.91 97.43 81 87.4 83.14 83.28c4.33-8.346 11.135-15.472 15.175-24.22 3.44-7.44 5.976-16.384 5.548-28.48zm43.07-.05l28.512 44.34-5.203 2.548-29.18-46.728zm-85.87 4.64c-10.11.15-15.04 12.868-6.575 18.976 1.52 1.1 1.99 1.74 1.574 2.17-.348.357-.817.19-1.575-.562-6.6-6.47-16.77-2.932-17.72 6.037-1.577 14.864 16.92 18.76 21.66 4.61 1.36-4.056 1.94.34.62 4.655-1.1 3.98-3.01 8.06-5.24 11.46-.376.557-.92 1.267-.92 1.267h16.25s-.517-.692-1.25-1.546c-2.955-4.4-4.556-9.334-5.075-14.49-.12-1.465-.07-2.58.218-2.762.492-.316.775.08 1.3 1.826 1.082 3.594 3.123 6.53 5.403 7.644 5.508 2.286 10.008 1.593 13.772-3.424 8.144-10.855-5.173-24.26-14.69-15.5-.875.795-1.42.882-1.505.225-.04-.32.205-.623 1.395-1.74 8.18-6.5 4.08-17.635-6.12-18.766-.522-.055-1.03-.082-1.528-.075zm-41.1 6.782c.206.415-.554.826-1.367 1.052-2.295.64-4.545-.79-4.617-4.08-.02-1.01-.08-2.08.27-2.24 1.058-.476 5.1 4.005 5.72 5.26zm143.68-2.763c.74 0 1.334.6 1.334 1.34 0 .737-.6 1.337-1.34 1.337-.74 0-1.34-.6-1.34-1.33 0-.74.6-1.34 1.34-1.34zM17.315 50.89c-4.624.01-7.046 6.3-2.644 10.03.78.653 1.07 1.248 1.02 1.39-.12.322-.23.05-1.18-.61-4.13-2.91-9.1-.305-8.67 3.88.63 5.97 7.35 7.386 9.74 1.862.42-.976.628-1.28.85-1.282.21-.002.24.4.14 1.036-.434 2.602-1.7 5.34-3.115 7.535h7.507c-1.54-2.32-2.18-4.62-2.59-7.49-.03-.75.077-1.25.37-1.26.198 0 .31.27.634 1.55 1.2 4.73 8.504 4.48 9.72-.3 1.365-5.36-3.696-9.17-7.85-5.78-.59.48-1.252.83-1.37.49-.03-.09.34-.79 1.005-1.37 4.24-4.14 1.404-9.683-3.56-9.67zM173.1 53.97c.747 0 1.352.607 1.352 1.354 0 .747-.605 1.353-1.352 1.353-.747 0-1.353-.606-1.353-1.353s.606-1.353 1.353-1.353zm-67.937 2.642c.487 1.932-9.05 30.93-22.6 49.385l5.916.123.18.653c8.29 12.24 3.1 23.067-3.59 28.096l2.32 3.08-2.09 1.69-2.09-2.486c-16.96 12.73-50.064 40.895-50.064 40.895l.183 4.516 2.583-2.034C52.703 196.79 88.31 195.9 97.65 162.35l2.502.057C94.51 187 71.528 196.625 54.18 192.547l-4.062 5.837 1.088.582c-.2-.31-.384-.42-.09-.705l3.453-4.44c25.95 3.33 41.62-11.36 46.7-31.26l3.31.06c-2.84 16.718-10.68 31.43-21.85 42.95-8.066-.033-22.24-.218-22.24-.218 5.16 5 15.02 20.267 15.412 21.815 0 0 10.142.324 21.02.058 3.988-1.793 9.324-2.513 11.816-1.257 4.38 2.206 8.495 10.394 10.345 23.53.477 3.384.91 4.818 1.04 5.5.024.124.32.213.365.19.17-.09-.264.598-.282 1.107-.018.51 0 1.275.24 1.54.31.336.27.56.23.704-.028.094-.62.642-.62.642-.09 7.65-.045 14.6-.463 24.013l1.502.01c-.01-15.146 4.56-29.16 11.602-38.81 4.28-6.33 8.81-13.155 11.32-19.652 2.82-7.313 3.205-15 1.694-21.483l-1.03.056c-6.196-4.245-8.72-13.31-1.09-19.784l-2.7-3.517c-7.62 5.89-9.37 16.76-1.476 25.754l-3.09-.01c-7.703-9.614-5.997-20.653 2.904-28.53l-1.99-2.53 2.165-1.91 1.955 2.137 49.69-41.515-.035-4.543-3.808 3.09c-22.29-20.61-55.346-6.15-60.193 18.673l-3.03.034c6.353-26.71 29.76-34.26 46.693-30.708l4.18-6.32c-3.075-.868-6.073-2.908-8.903-5.32-1.192-1.014-1.945-1.636-2.812-2.653-8.02-8.476-13.462-20.245-13.72-20.265l-21.804-.055c-3.2 1.582-8.678 3.38-11.684.954-6.454-5.212-8.62-15.73-9.51-22.495-.267-2.11-.495-5.77-.693-6.99-.125-.22-.363-.235-.58-.196zm77.312 11.696c.73 0 1.32.595 1.32 1.324 0 .73-.59 1.32-1.32 1.32-.73 0-1.32-.59-1.32-1.32 0-.73.59-1.324 1.32-1.324zm2.838 1.556c1.075 1.393 2.03 2.83 2.563 4.347-.5-.01-.972.14-1.53-.29-.128-1.53-.76-2.45-1.554-3.47zm-3.988 1.954c.44.216.79 1.88.483 2.166-.53.113-.893.075-1.072-.11-.267-.44.238-1.97.59-2.056zM94.6 86.282l20.244.024c3.523 2.7 6.965 2.342 11.963.178h22.51l1.272 2.31H93.5c.318-.86 1.098-2.512 1.098-2.512zm-1.67 3.61h58.26l1.47 2.37H91.488zm5.624 3.443h6.537l-2.42 4.11h-6.74zm14.512 0h6.24l-2.778 4.105h-6.182zm20.178 0l-2.625 4.105h-6.35l2.73-4.068zm7.824 0h6.248l-2.336 4.105h-6.47zm-83.93.638c-4.05-.046-3.3 5.327-2.917 5.16-2.54-.584-4.42.624-4.73 2.79-.25 1.72 1.43 4.172 4.37 3.83-.39.45.01 3.05.4 3.287 0 0 .05.377-1.5 3.612-1.84 3.84-2.215 4.022-3.05 1.5-.9-2.713-2.284-4.088-5.9-5.842-.96-.467-2.322-1.282-3.025-1.812-1.613-1.215-1.632-1.196-1.556 1.273.1 3.21 1.07 4.62 4.494 6.51 1.675.93 4.88 2.238 5.463 2.23.41-.003 1.91.67 4.136 1.856.436.23 1.923 1.05 3.828 1.234 2.02.143 6.575-.334 9.215-1.86 1.48-.855 2.054-1.62 3.146-3.81 0 0-3.74.196-5.45-.253-3.55-.21-5.313-.003-8.006 1.395-2.252 1.17-2.38 1.38-1.44-.55.43-.887.83-1.93 1.194-2.97.392-1.034.495-1.12 1.48-1.22 2.16-.22 3.39-1.467 3.59-3.63.054-.58-.033-1.19-.033-1.19 1.47.216 4.48-.513 4.386-3.56-.082-2.737-2.035-3.367-4.44-3.556.31-1.402-.714-4.38-3.64-4.412zm.05.85c3.55.025 3.467 3.283 1.92 5.132L57.22 98.4l-1.523 1.406c-1.658-1.06-1.65-5.005 1.49-4.983zm97.124.04l1.745 2.577h-3.604zM88.04 98.565h6.683l-2.682 3.77h-6.32s1.42-2.407 2.32-3.77zm21.067 0l-2.526 3.916h-5.84l2.34-3.83zm7.828 0h6.04l-2.388 4.177h-5.97zm14.214 0h6.11l-2.49 4.177h-6.03zm13.85 0h6.3l-2.6 4.177h-6.08zm-87.73.776l3 3.03-2.928 2.93-3.018-2.88zm7.61 2.95c-.532 3.52-3.92 3.33-4.883 1.61l1.38-1.572-1.69-1.66c1.642-2.637 5.596-1.025 5.194 1.63zm-10.08-1.68l-1.623 1.83 1.782 1.71c-1.15 1.594-5.56 1.468-4.68-2.37.56-2.44 3.04-2.886 4.515-1.173zm102.95-.448l1.86 2.554-3.486.03zm-72.492 3.136l74.74.24 2 2.447c-26.096.45-51.65-.42-78.307-.44zm-26.278 1.59c2.96 1.816.774 5.644-2.405 4.993-2.368-1.04-2.853-3.5-.72-4.92l1.67 1.376zm25.63 1.466l-2.04.01-1.987 2.324c7.51 7.91 7.233 14.773.236 20.755l2.81 3.15c7.85-6.715 9.59-17.265.974-26.24zm7.713.304c4.21 6.578 7.85 19.036-4.693 30.448l-1.514-1.834c10.92-10.666 8.355-19.634 3.463-28.532zm1.168.16l16.97.067c-3.63 13.848-6.18 22-6.56 43.66l-4.904.03c.533-.5-2.54-13.08-6.126-17.44 7.52-12.768 3.467-19.97.624-26.314zm-53.38.02c.29-.002.895.377 2.07 1.083 1.06.64 2.43 1.44 3.05 1.79 2.335 1.307 3.49 2.54 4.157 4.423.496 1.41.187 1.437-1.24.11-1.06-.99-2.19-1.84-5.018-3.776-.997-.68-1.31-.57-.734.26.416.6 1.31 1.28 3.126 2.385 1.315.804 3.127 2.41 2.984 2.647-.13.213-.354.194-.99-.08-.29-.13-1.238-.52-2.1-.868-3.695-1.5-5.273-3.34-5.495-6.405-.08-1.066-.144-1.56.19-1.56zm77.45.066s.51.674.578.955c.142.6-.454 1.16-2.33 2-.646.28-1.183.44-1.165.82.087.88 1.778 2.23 1.57 3.43-.39.92-2.737 1.82-3.324 2.91.004.742 1.527 1.89 1.31 2.9-.12.302-.61.612-1.34 1.243-1.49 1.293-1.582 1.49-1.035 2.498 1.27 2.34 1.32 2.166-.415 3.827-1.747 1.674-1.715 1.653-.88 3.11.9 1.566.86 1.495-.35 2.5-1.185.985-1.136 1.185-.5 2.41.612 1.18.752 1.2-.28 2.112-1.207 1.07-1.434 1.18-.583 2.525.88 1.39.946 1.33-.046 2.47-.94 1.074-1.046 1.124-.536 1.856.64.92.76 1.165.09 2.177-.726 1.093-.72 1.015-.058 2.034.56.858.463 1.81.463 1.81l-2.1-.002s-.017-1.206-.26-1.65c-.597-1.076-.58-1.41.126-2.364.726-.98.605-1.065-.07-2.045-.685-.99-.587-.98.302-2.11.814-1.033.855-1.52.39-2.113-1.097-1.404-1.095-1.994.01-2.92.844-.708.92-1.02.194-2.234-.712-1.186-.8-1.295.507-2.475 1.336-1.207 1.322-1.18.425-2.55-.87-1.327-.823-1.415.573-2.71 1.41-1.31 1.43-1.313.506-2.966-.866-1.55-.873-1.523.82-3.03 1.68-1.402 2.255-1.58.575-3.594-.938-1.596-.27-1.753 1.266-2.55 2.696-1.645 1.468-1.543.336-3.986-.95-1.64-.408-1.65 1.242-2.47.41-.176.862-.38 1.33-.64 1.1-.614.504-1.176.504-1.176zm3.525.037l8.104.11c-9.39 11.994-13.91 27.33-15.535 43.513l-3.06-.047c-.193-12.636 3.782-28.423 10.49-43.57zm41.606.28c4.633 3.9 8.07 6.14 10.51 7.02 0 0-3.267 5.424-3.52 5.226-18.796-3.62-41.15 7.34-46.206 30.967l-2.96.02c1.09-9.273 3.53-17.016 8.025-25.094 4.46-7.844 8.565-12.427 14.76-18.204zm-32.34-.2l3.993.07s.75.9 1.09 1.23c1.723 1.954 1.87 1.565-1.925 3.708-2.398 1.355-3.46 1.983-3.6 2.55-.108.57 1.046 1.706 1.182 2.47 0 .085-3.26 2.268-3.85 2.577-.826.398-.867.74-.05 2.16.94 1.633.86 1.576-1.166 2.99-1.976 1.38-2.364 1.244-1.522 2.616 1.17 1.907.62 2.337-2.132 3.82-.693.377-.71.754-.225 2.055.676 1.81.85 1.628-.572 2.607-1.68 1.16-1.973 1.19-1.6 1.9 1.08 2.06 1.51 2.56.065 3.23-1.102.513-1.125.803-.516 2.162.61 1.367.77 1.31-.32 2.08-1.005.716-1.6.557-.62 1.724.78.92.71 1.65.078 2.216-.544.23-.797 1.263-.64 1.285l-1.4.037c-1.097-1.477.197-2.323.39-2.47.18-.34-.04-.58-.48-1.38-.61-1.1-.59-1.233.29-1.877.884-.65.91-.482.32-1.92-.686-1.673-.654-1.864.426-2.64 1.062-.763 1.076-.933.354-2.398-.763-1.545-.764-1.546 1.124-2.8 1.33-.882 1.347-.83.644-2.465-.486-1.13-.143-1.52 1.665-2.757 1.03-.707 1.11-.847.624-1.69-1.34-2.32-1.327-2.39.983-3.887 1.89-1.225 1.87-1.33 1.143-2.96-.79-1.77-.86-1.633 1.73-3.185 2.134-1.28 2.25-1.206 1.37-2.745-1.09-1.916-1.02-1.603 3.247-4.04 1.54-1.055 2.928-.69 1.397-2.484-.674-.86-1.5-1.79-1.5-1.79zm-75.36 3.15c.298-.01.528.36.51 1.03-.05.95-.5 1.89-.93 2.836-.9 1.92-1.8 3.343-2.274 3.348-1.116.014-1.085-.236.397-3.135.677-1.324 1.375-2.835 1.485-3.127.24-.634.554-.937.815-.946zm13.72 4.35c.02 4.07-12.74 6.12-13.406 4.07 2.224-1.74 8.8-.97 10.195-2.526-1.68-.1-3.956.18-5.516.207-1.945.035-5.087.866-5.12 1.21-.203-1.07 3.34-3.08 6.148-3.207 2.628-.116 5.478.195 7.7.25zm1.09 6.21s-24.88 20.59-37.18 30.55l.075 4.45 39.362-32.23zm-.08 1.02l1.59 1.93-36.954 30.11-.133-3.155zm116.8 10.566l-1.33 1.42c-36.09-26.853-69.324 13.92-51 43.085-.164.376-1.44 1.307-1.44 1.307-20.424-33.86 18.658-73.48 53.77-45.81zm-19.86-5.88c2.05.017 5.82 1.42 7.41 3.34 1.855 2.23 1.316 3.227-1.04 1.12-2.53-1.84-4.622-2.265-1.106-.093.776.48 1.474 1.414 1.51 1.518.128.374-.52-.017-3.47-1.092-1.75-.64-3.97-2.363-4.55-3.54-.43-.88.173-1.26 1.246-1.25zm-7.596.06c.64-.003 1.21.047 1.614.16 2.58.744 3.393 1.13 4.355 1.88.657.51.446.88-.318.554-.89-.38-3.71-1.22-4.213-1.17-.73.075.007.555 1.06.818 2.333.584 3.49 1.186 1.825 1.21-.867.13-4.67.142-5.703.02-1.73-.204-4.32-1.78-3.724-2.346.644-.61 3.19-1.11 5.11-1.124zm-7.402 2.43c3.06.034 4.72 1.177 1.378 1.407-5.752.91-6.856 2.16-.483.67 1.483-.346 1.456.19.43.69-.838.41-1.885.61-2.757 1.03-1.572.657-5.174.8-6.58.268-2.073-.79 4.436-4.11 8.018-4.067zm24.63.52c1.55.04 4.85 2.28 6.32 4.383.96 1.373.48 2.36-.97 1.257-.29-.22-2.374-1.99-2.49-2.033-.195-.07 1.73 1.757 2.01 2.27.24.438.797 1.438-.24 1.458-1.62-.2-5.43-4.454-5.454-6.554-.005-.563.313-.795.828-.78zm-19.19 1.195c.65-.02.32.32-.91 1.18-2.2 1.556-1.05 1.244 1.53-.084.785-.4 1.73-.72 2.06-.78.33-.06.73-.15.88-.2.695-.21.16.646-.97 1.55-2.372 1.905-5.053 3.4-6.904 3.857-2.36.585-2.86.66-1.986-.813 1.385-2.34 3.403-4.21 5.33-4.575.434-.083.76-.126.975-.133zm7.94.038c.98-.02 2.2.183 4.11.596 1.348.42.996.51-.62.685-3.03.33-1.77.685 1.18.633 4.02-.03-2.014 1.45-3.972 1.745-1.527.068-1.976.014-5.307-.61-1.27-.238-.51-1.168 1.897-2.318.983-.47 1.732-.716 2.715-.735zm24.86.544l.11 2.59-48.698 40.718-1.657-1.83zm-16.57 2.228c1.942-.025 4.747 1.32 4.446 2.134-.11.303-.33.29-1.81-.104-.97-.26-2.714-.533-2.482-.317.08.074 1.44.594 1.957.72 1.716.41 3.77 1.38 3.316 1.668-.794.485-1.52.107-2.463.006-2.355-.325-6.222-1.514-6.86-2.11-.72-.67 1.81-1.97 3.9-1.994zm-22.714.152c.35.017.48.343.15.79-.508.67-.74 1.23-1.197 2.052-1.627 2.515-2.653 3.51-4.22 4.485-1.563.973-1.787.806-1.65-1.22.177-2.107 1.684-4.32 3.813-5.36.984-.14 1.548-.4.517.836-1.83 2.19-.578 1.97 1.13-.52.543-.79 1.112-1.084 1.462-1.065zm-6.322.292c1.053-.004 1.407.37.055 1.004-1.29.607-3.85 2.398-3.912 2.595-.105.334.855-.19 2.447-1.06 2.13-1.16 2.314-1.134 1.284.195-1.164 1.5-3.965 3.385-6.163 4.08-3.076.844-3 .255-1.282-2.03 1.64-2.48 3.03-3.664 5.127-4.34.92-.298 1.808-.438 2.44-.44zm-52.165.38c11.16 19.244 4.964 38.797-7.982 48.77-13.533 10.424-34.59 9.805-47.02-2.706l1.727-1.625c-.01.01 19.585 19.966 44.266 2.25 12.526-8.99 17.7-30.22 7.367-45.02zm-49.987.042c-.037 0-.065.005-.085.02-.377.24-1.793 4.4-2.078 6.123-.084.504.04 1 .453 1.404.29.284.763.1.91.042.94-.43 1.46-1.084 2.29-3.157.55-1.136.627-2.493.52-2.967-.047-.19-.35-.64-.735-.893-.425-.282-1.024-.58-1.277-.577zm.217.865c.447-.006 1.33.72 1.44 1.24.006.9-.51 2.4-.896 2.18-.643-.8-1.385-.297-1.51-.59-.08-.89.49-2.05.88-2.823.028-.007.057-.01.087-.01zm120.522.72c4.96 0 9.895 1.45 13.52 4.66l-1.937 1.773c-8.498-6.058-18.39-4.285-24.25-.2-5.806 4.045-10.94 13-5.91 25.61l-1.816 1.647c-5.64-10.146-2.615-23.55 7.362-29.89 3.52-2.238 8.026-3.518 12.546-3.6.16-.005.32-.006.48-.006zm-73.378 1.48c.15 0 .38.49.353 1.095-.03.728-.336 1.675-.827 1.876-.554.227-.904-1.423-.904-1.423.34-.535.804-1.083 1.377-1.544zm88.84.566c.2-.01.4 0 .566.02.554.07.56.565.038 1.04-.563.515-.856.54-1.424.13-.506-.37-.533-.64-.094-.957.23-.147.576-.216.913-.23zm-95.3.115l1.643 2.03-5.704 4.59-.68.05-43.67 36.16-.01-3.21zm91.24 4.897l-5.95 4.91c-11.888-6.177-21.42 4.83-18.057 14.824l-5.143 4.463c-9.2-25.246 17.706-33.885 29.147-24.197zm-31.14-3.853c.016-.004.032-.004.05 0 .04.01.08.038.117.076.208.2-.206 3.55-.516 4.17-.11.226-.2.52-.197.65.004.272-1.094 2.57-1.953 4.084-.324.57-.67 1.32-.766 1.67-.69 3.312-2.175-2.017-1.65-5.11.247-1.454 2.31-4.456 2.91-4.234.305.114.283.344-.25 1.505-1.49 3.24-1.865 4.912-.3 1.78 1.806-3.615 2.276-4.544 2.556-4.595zm-101.03.066c.22.01.395.133.49.39.066.22.137.676.013.9-.304.686-.936 1.14-1.575 1.097-.28-.016-.586-.263-.624-.566-.033-.273.034-.74.38-1.092.454-.463.946-.75 1.314-.726zm45.274.206c.705.037 1.447 1.93.975 2.798-.385.708-.46.576-1.133-.795-.356-.72-.63-1.498-.63-1.498l.578-.454c.047-.026.098-.04.146-.048.023-.002.044-.005.066-.004zm-1.187.8s.74 1.344.92 2.414c.11.654.094.53-.623.26-.565-.352-.69-.556-1.04-.997-.232-.408-.464-.71-.464-.71zm4.455.29c.375-.013.777.366 1.145 1.29 1.38 3.478 1.253 7.38-.3 9.22-.26.305-.32.32-.63.128-.253-.156-.277-1.807-.034-2.275.077-.15.305-1.147.32-1.71.043-1.337-.324-1.505-.5-.267-.202 1.43-.423 2.43-.813 1.57-.196-.44-.296-.876-.445-1.34-.777-3.007.13-6.585 1.254-6.62zm-6.02.89s1.33 1.717 1.877 2.33c.196.333.188.418-.12.536-.527.2-2.287-.97-2.985-1.334-.376-.3-.212-.53-.212-.53.483-.36.964-.716 1.444-1zm52.465.06c.71-.007.71.24-.05 1.33-4.23 6.087-3.378 5.183-.687 1.854 1.497-1.85 1.757-2.026 1.92-1.612.125.31-1.655 3.914-2.576 5.22-.477.674-2.103 1.802-2.925 2.22-2.013 1.017-1.79.607-1.046-1.918.95-3.914 3.33-7.065 5.36-7.09zm-54.95 2.106c11.6 28.842-20.16 41.5-34.49 28.162l1.666-1.33c19.935 13.52 39.61-8.138 30.605-25.087 0 0 .817-.676 2.22-1.743zm2.685.7c1.91.195 4.73 3.688 4.872 5.633.3 1.38-.09 1.617-.767.646-1.145-2.11-1.008-.77-.035 1.327.516 1.06.636 2.33.1 2.4-.736-.15-2.325-2.684-2.81-3.728-1.16-2.29-1.244-1.9-1.88-5.29-.118-.638.048-.98.517-.986zm-5.77.946c8.834 16.945-10.172 37.3-29.502 24.144l5.794-4.597c10.088 4.84 21.344-1.164 18.12-15.075zm88.135 3.16l-15.94 13.28c-3.28-11.01 8.76-17.295 15.936-13.28zm-29.6-.03c.52-.105.96 3.23 1.057 7.907.095 4.577.212 5.03-1.21 3.344-.597-.686-1.33-1.34-1.656-1.957-.942-1.786-.642-3.658-.38-6.272.243-2.44 1.116-2.055.974.5-.09 1.643-.073 3.687.185 3.684.09 0 .12-.16.06-.384-.124-.47.44-5.765.67-6.39.1-.27.2-.406.3-.426zm-43.926 2.02c1.15.45 1.48 4.29.23 8.006-.535 1.595-1.36 2.64-2.586 3.282-.878.457-1.08.31-.688-.49.728-1.305 1.116-2.657 1.41-4.342.118-1.645-.75-.325-.676.378-.68 3.067-1.572 3.53-1.457.3.084-2.38.396-3.403 1.52-5.04.56-.82 1.165-1.946 2.244-2.1zm39.974.386c.473.003.59.64.165 1.877-.295.86-1.297 3.64-1.18 3.63.073-.004 1.148-2.504 1.367-2.912.36-.67.494-.797.81-.767.308 1.237-.01 2.78-.16 4.056-.65 3.33-2.92 6.77-3.79 5.746-1.416-1.665-.753-8.42 1.126-10.474.708-.773 1.293-1.152 1.66-1.15zm-60.7.51c1.71 11.782-8.01 16.812-16.41 13.26.18-.046 16.41-13.26 16.41-13.26zm39.74.217l1.694 2.225 3.1.16-1.59 2.343 1.58 3-3.46.064-1.992 2.29-1.73-2.066-3.027-.16 1.765-2.815-1.423-2.69 3.27-.155zm-26.04 1.015c.39.013 2.304 2.528 2.494 3.457.577 2.25.363 6.505-.446 6.358-.876-3.063-.535-4.645-.85-4.293-.545.563.338 5.26.047 6.418-.137.295-.607-.06-1.134-.818-1.41-2.024-1.22-9.943-.145-11.11.01-.006.02-.01.032-.01zm103.622 4.774l-38.293 31.723 2.21 2.84 36.152-29.85zm-55.307.55c.166-.037.55.23 1.267 1.02 1.254 1.69 2.58 4.015 3.066 5.802.182.698.477 1.62.656 2.05.27.648.29.827.132 1.02-.665.82-3.44-1.24-4.334-3.21-1.258-2.766-1.29-5.26-.03-2.83.46.883 1.028 2.17 1.02 1.66 0-.146-.556-2-.982-2.83-.264-.52-1.227-2.594-.8-2.68zm54.9.77l.08 2.623-35.663 29.827-1.4-1.703s33.593-27.94 36.985-30.75zm-55.68 1.62c.166.02.252.26.202.79-.164 1.735-.59 5.51-.502 5.843.053.2.564-2.5.68-2.98.61-2.502 1.54 3.48.98 6.158-.09.425-.267 1.105-.36 1.52-.092.42-.39 1.13-.51 1.32-1.01 1.59-3.385-4.736-2.985-7.96.25-2.006 1.894-4.75 2.493-4.69zm-41.26 1.387c.465-.025.555.433.476 1.396-.27 3.3-2.467 6.764-4.87 7.686-2.394.915-2.616.73-1.197-.98 1.077-1.3 1.73-2.664 1.548-2.84-.1-.098-.34.447-1.21 1.565-1.09 1.4-1.27.215-.28-1.844.86-1.78 1.66-2.71 3.276-3.8 1.136-.766 1.843-1.164 2.254-1.186zm21.686 1.003c-.486 14.21-4.028 29.65-10.868 43.07l-6.39.014c7.824-11.525 12.818-25.795 14.208-43.018zm2.81.016s.955.995 1.344 1.665c.43.74.55 1.388-.23 1.94-.908.77-1.287.484.192 2.386.78 1.003.526 1.167-.44 2.01-.998.872-1.055.92-.128 2.096.99 1.26 1.17 1.455-.12 2.428-1.166.875-1.18 1.08-.27 2.506.84 1.31 1.092 1.3-.516 2.658-1.374 1.16-1.406.84-.08 2.975.487.784.453.835-.44 1.625-2.196 1.94-2.082 1.82-1.77 2.33 2.406 3.45 1.318 3.35-1.036 4.996-.474.404-.35.863.71 2.585.903 1.467.772 1.78-1.343 3.238-2.203 1.515-2.274 1.72-1.173 3.264 1.084 1.522 1.108 1.42-.653 2.99-.795.71-1.45 1.362-1.45 1.362h-3.9s.824-.754 1.386-1.17c3.205-2.373 3.192-2.12 1.84-3.833-1.196-1.512-1.08-1.612.132-2.477.87-.623 2.045-1.265 2.926-1.9.476-.34.125-.62-.666-2.116-.886-1.677-.934-1.483.715-2.84 1.805-1.484 1.835-1.43.857-3.31-.98-1.887-.998-1.723.24-2.734 1.843-1.502 1.93-1.422.96-3.163-.772-1.39-.78-1.35.526-2.654 1.316-1.315 1.152-1.232.373-2.436-.793-1.224-.75-1.39.292-2.318 1.126-1 .967-.94.034-2.22-.92-1.26-.904-1.167.214-2.144.59-.513 1.18-1.036 1.145-1.277-.087-.624-.68-1.508-1.254-2.357-.217-.325.22-.424.92-1.15.71-.738.68-.553.14-1.532-.29-.53-.84-1.423-.84-1.423zm-10.46.033l1.11.03s.19.25.45.512c.713.73.744 1.157.027 1.548-.69.377-.426.9.15 1.747.61.898.605.795-.27 1.676-.9.733-1.37.94-.374 2.33.567.645.497 1.31-.382 1.888-.674.445-1.796.814-.614 2.5.577 1.206.623 1.13-.58 1.98-1.604 1.14-1.905.94-1.17 2.6.82 1.844.9 1.87-.78 3.11-1.953 1.432-2.02 1.55-1.206 3.27.82 1.732.84 1.292-1.224 2.9-1.516 1.18-1.86 1.245-1.41 2.22.84 1.83 1.194 2.32-1.255 3.574-2.83 1.45-2.97 1.556-1.61 3.712 1.104 1.753.86 1.504-.965 2.554-2.637 1.52-3.8 2.18-3.884 2.65-.053.534 2.058 2.12 2.058 2.12l-3.68.1s-1.546-1.257-2.147-1.84c-1.665-1.62-1.683-1.09 3.85-3.775 3.053-1.482 2.797-1.146 2.3-2.01-1.474-2.554-1.525-2.82 1.24-4.21 2.4-1.21 1.986-1.295 1.403-3.122-.508-1.59-.427-1.445.838-2.383 3.06-2.27 2.977-2.035 2.5-3.147-.47-1.093-.83-1.602-.477-2.14 1.104-1.582 3.448-1.918 2.49-3.8-.45-1.214-.607-1.485.74-2.535 1.22-1.012 1.226-.89.447-2.227-.95-1.224-.81-1.43.58-2.39.99-.905.976-.88.42-1.765-.765-1.218-.73-1.256.365-2.214.89-.78 1.047-.822.48-1.683-.753-1.14-.63-1.392.364-1.953.61-.343.604-.483.55-1.064-.01-.115-.325-.76-.325-.76zm13.8.065l5.123.015c1.637 9.5 4.494 13.397 6.145 16.405-6.477 10.4-5.004 19.035-1.05 26.678l-16.224-.062c4.16-14.23 6.304-28.545 6.007-43.032zm-35.16.034c.186-.013.32.29.64.833 1.023 1.75.3 4.23-1.205 6.83-1.124 1.944-1.327.46-.813-2.34.324-1.768-.566.88-.99 3.01-.228 1.157-.782 2.09-1.385 2.035-.568-.097-.393-1.718-.374-2.077.127-2.552 1.078-4.36 2.926-6.896.7-.96.984-1.384 1.197-1.4zm52.294 4.995c.242-.01.582.09 1 .33.328.19.915.545 1.32.77 1.422.78 1.537 1.02.862 1.806-.835.974-1.37.604-2.814-1.015-.975-1.093-.992-1.86-.37-1.888zm-.474 2.14c.23.005.71.252 1.17.78.935 1.07.82 1.975-.214 1.717-.422-.62-.64-1.56-1.044-2.256-.09-.158-.042-.244.096-.24zm45.76.136c-.902.004-2.42 1.2-2.71 2.42-.882 3.715-.88 3.555-.09 4.096.23.16.405.275.52.346.463.366 1.094.93 1.177.82.754.004 1.898-4.756 1.86-5.737.048-1.035.084-1.16-.175-1.63-.116-.215-.322-.31-.576-.31zm-46.45.083c.06-.012.137.02.228.094.595.59.834 1.65 1.136 2.407 0 .163-.067.433-.152.595-.51.985-1.31.03-1.393-1.67-.048-.956 0-1.394.182-1.43zm46.31.733h.115c.61.028.516.658-.33 1.57-.444.48-1.36.71-1.664.413-.44-.43.47-1.617 1.46-1.903.164-.045.304-.072.42-.08zm-102.892.52h.1c.317.02.584.165.793.408.406.502.235 1.277.04 1.925-.48 1.7-3.662 4.986-4.804 5-.68-.12 2.163-3.73 2.252-4.34-.212-.206-1.973 1.828-2.8 3.24-.375.64-.8 1.43-1.027 1.566-.594.07-1.28.447-1.283.047.098-1.804 3.63-5.736 4.834-6.83.74-.695 1.38-1.007 1.895-1.017zm8.518.17c2.73-.03-2.644 5.943-6.12 6.803-1.083.267-3.08.34-3.222.113-.14-.224.02-.407.466-.524.716-.19 4.27-2.45 4.265-2.716-.002-.334-1.47.22-2.723 1.032-.812.525-1.193.416-.752-.218 2.04-2.94 4.77-4.45 8.088-4.49zm47.24.01c.154.014.31.32.406 1.01.495 1.28.52 1.63.05 2.004-.8.65-.997.47-.987-1.012.007-1.22.27-2.016.53-1.995zM46 173.18s.995.372.58.846c-.29.33-1.513.05-1.514-.047zm137.1.037c.325-.02.333.28.16 1.037-.09.4-.484 2.49-1.18 3.07-.083.056-1.09-.545-1.365-.822-.126-.13-.52-.422-.573-.615-.17-.633.014-1.455.493-1.865.187-.16.563-.248.766-.25.16-.002.63-.156 1.05-.34.29-.13.508-.204.656-.214zM46.35 174.66c.654-.004 1.46.066 2.142.3 2.012.584 5.704 2.237 6.272 2.78.827.79-1.33 1.63-3.926 1.66-1.376.016-1.635-.27-3.538-1.41-.245-.16-1.353-.89-1.03-1.153.35-.36 1.414.103 2.737.775.433.22 1.484.156 1.482-.04-.01-.227-2.65-1.21-4.63-1.84-1.3-.412-1.27-.83-.47-1.006.23-.034.562-.064.96-.066zm-2.6.904s.546.486 1.256 1.018c.77.577 1.666 1.29 2.29 2.237.9 1.1 2.324 3.83 2.166 4.33-.365 1.13-4.17-.86-7.28-3.97-1.01-1.01-1.604-1.77-1.604-1.77l1.188-1.075s1.042.872 2.246 1.935c2.26 1.994 2.244 1.31-.028-.79-.643-.593-1.234-1.125-1.234-1.125.03-.38.39-.717.998-.795zm92.93.096s1.213 1.26 1.664 1.84c-7.403 7.237-10.23 17.347-3.084 28.115l-3.43-.013c-6.422-12.64-3.377-22.156 4.85-29.94zm-62.613.298c.462-.02.042.52-.774 1.91-1.525 2.596-1.827 3.252-4.304 3.898-.64.165-1.55.034-1.92.08-1.07.134-.59 0 1.04-1.06 2.26-1.465.34-.71-1.75.365-1.21.63-2.48.6-2.59.27-.07-.17.49-.64.84-.96 3.182-2.844 4.16-2.724 7.12-3.753 1.293-.45 2.017-.727 2.33-.74zm-13.31 2.597c1.153.008 2.228.123 3.184.336.64.15 1.67.27.8 1.06-.983.93-3.642 2.19-5.61 2.28-.275.01-4.33-.276-3.46-1.145.172-.097.722-.07 1.196-.16 2.244-.426 1.637-.787-1.125-.64-3.46.185-3.62-.173-1-.89 1.917-.523 3.8-.792 5.525-.827.17 0 .333-.003.498-.002zm18.486.265c1.54-.014 2.738.26 2.744.848.01.952-2.907 3.04-4.82 3.453l-1.424.32c-.668.15-4.365.02-4.726-.11-1.73-.63-.527-.874 2.65-1.243 1.38-.16 2.04-.52 2.038-.784-.002-.126-1.02-.162-2.535.03-1.694.214-1.36-.284.747-1.377 1.392-.72 3.58-1.11 5.326-1.126zm-28.5 1.32c.218.007.738.185 1.6.545 1.845.537 4.378 1.143 6.11 3.037 1.403 1.356 1.744 1.793 1.45 2.27-.357.578-4.703.14-6.532-.643-1.21-.52-2.65-1.63-3.3-2.59-1.59-2.32-.92-2.93 1.104-1.31 2.44 1.953 2.803 2.154 3.236 2.065.172-.036-.258-.437-1.076-1.045-2.055-1.526-3.057-2.35-2.583-2.336zm15.04 2.494c2.043.002 2.485.155 4.47 1.063 2.483.875 1.88 1.654-2.527 2.753-2.207.52-4.428.156-6.04-.836-3.552-2.186-3.318-2.623.648-1.646 1.304.32 2.603.38 2.683.137.06-.186-1.515-.587-2.796-1.01-1.38-.46-.19-.42 2.58-.45.37-.004.69-.01.99-.01zm102.213 9.442s-.454.214-.655.324c-.15.09-1.38.242-2.73.342-2.64.197-4.43.622-6.03 1.267-2.423.97-4.05 3.98-4.05 3.98 1.816-.13 12.08 1.73 14.927-1.97.597-.775-1.53 5.843-2.62 6.136-2.706-.326-3.844 3.92-3.573 3.74-2.73 1.057-4.844 1.68-4.15 4.844.3 1.38 1.7 3.02 4.667 2.61-.807 5.49 5.91 6.91 6.653.292 0 0 1.31-.25 1.81-.31 3.065-.724 3.808-5.2-.69-6.62-1.25-.37-1.32-.605-1.32-.605.235-1.01.18-2.07-.55-3.245.993-2.364 3.462-6.922 3.462-6.922zm.474 1.366c.618.825-2.606 2.192-6.04 2.487-.77.06-2.462.22-2.506.29-.37.65 6.64.177 8.823-1.045.748-.42.815-.05.49.595-2.534 3.26-8.652 2.457-13.436 1.884-.27-.275-.04-.61 1.03-1.48 1.97-1.596 3.39-2.128 6.49-2.447.87-.026 4.768-.76 5.158-.29zm3.79 3.372c-.44 1.4-2.743 5.68-2.743 5.68-.284.283-1.293.483-1.217-.6.012-1.163 2.19-5.953 2.777-6.045.702-.06 1.218.46 1.182.96zm1.46.326c.676 4.91 4.402 6.078 7.977 7.626.94.43 1.738 1.198 2.68 1.693 1.768-2.41-.223-7.09-3.334-8.62-2.31-1.08-4.417-1.938-5.718-1.84-.754.055-1.594.54-1.605 1.134zm1.913-.292c.4-.005.973.11 3.06.667 3.152.84 5.375 3.163 5.955 6.225.024.123.186 2.496-.357 2.412-.82-.237-1.26-1.063-2.58-1.613-1.64-.69-3.95-1.6-5.36-2.88-1.14-1.04-1.77-2.16-1.903-3.11-.14-1 .19-1.1 1.027-.3 1.87 1.49 3.713 1.997 5.56 3.434.515.4 2.358 1.422 1.1.15-.853-.86-3.365-2.365-4.7-3.006-1.853-.89-2.86-1.974-1.797-1.986zm-141.95 4.9l21.13 33.03c-5.2 2.743-7.764 3.944-16.4 3.268l.034.436-3.67-.214c6.338 9.893 14.16 22.798 11.94 45.313l25.738-.02s.402.385.44.41c.377.255.942-.45.942-.45l11.61-.06.314.376 5.42-.037s-24.75-46.32-37.184-69.32c-5.107-9.227-10.426-13.326-20.306-12.725zm133.237 1.093c1.388-.03 2.767.92 2.777 2.78.004.964-.81 2.31-.81 2.31l-1.887-1.8-1.8 1.804c-.888-.733-1.414-2.13-1.124-2.924.554-1.36 1.763-2.14 2.842-2.165zm-21.853.66c1.788 6.97 3.72 16.58-11.788 38.79-9.18 13.138-12.18 25.53-12.54 40.65l-.93.007c.44-8.3.492-23.347.492-23.347l.865-.77s-.394-.64-.568-1.393c-.293-1.264-.047-.842.71-4.242 3.17-16.415 23.75-49.69 23.75-49.69zm-82.805 3.2l78.59.36-1.046 2.06-76.05-.54zm104.756.6l2.918 2.84-2.852 3.205-3.004-3.14zm-2.394 1.208l-1.592 1.694 1.38 1.45c-1.42 2.98-5.202.656-5.076-1.576.15-2.61 3.2-3.68 5.288-1.57zm5.043 3.366l1.27-1.612-1.434-1.57c2.348-2.32 4.567-.277 4.78 1.657.23 2.06-2.984 4.385-4.614 1.523zM76.59 209.9l6.433.062-2.393 4.48-6.527-.03zm14.34.033h5.91l-2.5 4.54h-5.98zm13.96 0h6.27l-2.545 4.54h-6.443zm14.04 0h6.42l-2.34 4.54h-6.66zm14.3 0h6.185l-2.507 4.54h-6.366zm-68.32.025h4.155l-1.7 2.99zm103.67 2.866c2.38 1.91.725 5.05-1.755 5.105-1.707.034-4.186-2.85-1.504-5.21l1.79 1.634zm-87.45 2.41h6.044l-2.274 4.08h-5.92zm13.44.03h6.63l-2.34 4.088h-6.307zm14.2 0h6.6l-2.158 4.088h-6.664zm14.144 0h6.546l-2.037 4.088h-6.92zm-53.99.157H73.1l-1.78 3.277zm3.146 4.74l61.26.547-1.04 1.99-58.662.01zm2.154 3.56l57.404.14-1.32 2.748-19.835-.09c-3.87-2.886-8.293-1.55-13.34.09 0 0-15.182.16-21.152 0zm80.557 7.014c3.19 4.074 5.47 9.75 6.4 14.23.917 4.58-.08 6.824-1.25 2.815-1.94-10.025-13.824-11.49-19.127-3.724-7.365 10.783 5.54 23.872 14.79 15.105.79-.747 1.23-.93 1.498-.614.31.368.096.694-1.55 2.35-6.428 6.48-4.04 15.8 4.663 17.968 12.35 3.076 19.82-12.023 9.022-19.152-1.122-.852-1.24-1.07-.83-1.53.364-.413.68-.365 1.68.54 9.255 8.37 21.896-2.567 16.04-13.88-4.51-8.712-17.06-7.113-20.063 2.57-.56 1.804-.6 1.908-.91 2.11-1.287.048-.38-4.207-.185-5.332 1.455-4.966 3.064-9.614 6.14-13.456zm-99.643 4.63l30.277 47.786-6.69-.076-28.75-44.955zm148.71 2.79c.2.15 3.02 7.91 2.47 8.62-.17.56-.648.367-.833-.336-1.76-6.7-10.05-5.57-9.973 1.36.047 4.29 4.454 6.145 8.287 3.48.57-.394.83-.4.833-.023 0 .113-.44.7-.986 1.305-3.08 3.43-1.92 8.17 2.238 9.14 5.59 1.307 8.295-4.98 4.09-9.504-.61-.658-1.11-1.263-1.11-1.344 0-.34.47-.28 1.015.125 3.874 2.877 8.595.936 8.54-3.51-.07-5.868-7.364-7.414-9.37-1.986-.498 1.35-.742 1.71-.997 1.467-.98-.514 2.628-8.882 2.727-8.882zm-154.78.32L77.65 283.13c-1.313-.03-2.53.05-3.84.03.53-8.34-6.183-12.253-10.127-12.45 2.367-9.757-4.745-13.86-9.49-14.636 1.924-12.677-8.57-14.475-8.723-14.347.05-1.04-.145-1.79-.285-2.66l3.882-.6zm-4.63.71c-.06.267.54 2.793-.59 2.33l-.08-2.326zm-6.017.064c.41 1.68 1.27 2.014 2.443 3.14 0 0-1.5.255-1.845.015-.623-.43-1.925-3.166-1.925-3.166zm4.47 2.84c.725 0 1.31.59 1.31 1.318 0 .726-.585 1.31-1.31 1.31-.725 0-1.31-.584-1.31-1.31 0-.724.585-1.314 1.31-1.314zm2.597 1.01c3.76-.244 9.212 3.79 7.774 11.335-.25-.526-.55-1.685-1.16-2.51-2.59-3.493-5.64 1.297-3.582 3.25 1.008.96 1.48 1.338 1.37 1.425-2.316-.44-4.072 1.613-3.107 3.89 1.61 2.948 3.84 1.386 5.135-.362 0 0 .797 2.638 1.588 2.973 1.212.513 2.883-.138 3.452-1.6.847-2.18-1.212-2.737-1.665-3.95 4.35.143 9.89 6.5 7.37 12.01.33-1.255-1.02-4.07-3.638-3.343-1.31.458-1.765 2.363-.71 4.324.338.63.52.86.52.86s-1.132.15-1.43.337c-3.397 2.093.984 7.8 3.512 4.233.258-.425.68-.91.68-.91.42.795.546 1.914 1.308 2.297 3.13 1.577 4.526-1.75 3.21-3.38-.74-.92-1.576-1.98-1.576-1.98-.13-.585 9.38 1.91 8.223 11.164l-25.22-.032c2.34-14.218-3.32-30.483-6.21-35.44l1.25-1.65c.315.613.836 2.158 1.756 2.455 2.925.94 3.816-1.103 3.424-3.205-.21-1.12-1.773-2.02-2.27-2.18zm6.68 13.38c.686 0 1.243.56 1.243 1.25 0 .688-.56 1.245-1.247 1.245s-1.25-.556-1.25-1.243.563-1.25 1.25-1.25zm149.815 11.5c-1.68-1.565-3.534-1.522-5.21-1.34l-.09 3.526s4.15-.207 3.6 1.945c-.15.423-.35 1.84-.35 1.84l-.055 18.07c.674 7.944 10.9 9.533 13.42 1.996.487-1.287.407-2.456.407-3.86v-9.53l2.91-.057-.11-3.39-2.663.04c.195-4.76-.63-9.34-3.97-10.43-3.674-1.107-5.98-.17-7.89 1.185zm8.67 8.133c-1.69.307-4.05-2.883-5.995-5.17.89-1.712 3.6-1.403 4.612-.35 1.462 1.524 1.36 4.343 1.383 5.52zM61.63 271.28c.695 0 1.26.564 1.26 1.26 0 .694-.565 1.257-1.26 1.257-.694 0-1.258-.56-1.258-1.256 0-.692.562-1.255 1.256-1.255zm141.66 3.04c1.784 3.483 7.266 6.156 7.348 5.623l.03 9.584c.278 3.84-1.07 5.71-3.504 5.96-4.265.05-4.22-5.25-4.22-8.2l-.055-9.46c.026-1.14-.11-2.56.4-3.504z"/></svg>