<svg xmlns="http://www.w3.org/2000/svg" width="224.218" height="312.801"><path d="M12.543 47.005c2.133-11.09 4.41-19.41 10.38-28.447H10.79v3.89H7.562v-7.33h17.754l2.19 3.44c-6.343 6.797-12.15 28.768-11.12 28.447zm198.544 218.79c-2.132 11.09-4.41 19.41-10.38 28.448h12.135v-3.89h3.225v7.33h-17.754l-2.188-3.44c6.34-6.797 12.148-28.768 11.12-28.447zM155.62 87.62c2.88-5.776 4.976-11.702 5.348-18.038.34-2.332-1.075-2.37-1.288-.728-4.077 15.592-25.763 11.37-25.017-3.297.605-11.895 12.42-14.454 18.582-10.564 2.433 1.432 2.296.574.968-.912-9.155-10.21-3.61-23.36 8.76-23.6 13.38.8 16.852 14.87 8.645 23.15-1.02 1-3.283 4.19.123 1.96 8.29-5.89 19.79.445 19.56 9.52-.43 16.74-20.84 17.99-25.2 4.008-.42-1.55-1.63-2.33-1.294.305.605 4.766 1.856 11.953 5.437 18.205zm0 100.248c2.88-5.776 4.976-11.7 5.348-18.037.34-2.33-1.075-2.37-1.288-.72-4.077 15.594-25.763 11.37-25.017-3.296.605-11.894 12.42-14.453 18.582-10.564 2.433 1.433 2.296.575.968-.91-9.155-10.213-3.61-23.364 8.76-23.604 13.38.793 16.852 14.87 8.645 23.148-1.02.996-3.283 4.19.123 1.957 8.29-5.885 19.79.446 19.56 9.524-.43 16.74-20.84 17.986-25.2 4.005-.42-1.55-1.63-2.33-1.294.305.605 4.768 1.856 11.955 5.437 18.207zm-101.533 0c2.88-5.776 4.976-11.7 5.348-18.037.342-2.33-1.075-2.37-1.288-.72-4.077 15.594-25.763 11.37-25.017-3.296.605-11.894 12.42-14.453 18.582-10.564 2.434 1.433 2.296.575.968-.91-9.155-10.213-3.61-23.364 8.76-23.604 13.38.793 16.852 14.87 8.645 23.148-1.02.996-3.283 4.19.123 1.957 8.287-5.885 19.788.446 19.553 9.524-.43 16.74-20.83 17.986-25.2 4.005-.42-1.55-1.63-2.33-1.29.305.607 4.768 1.858 11.955 5.44 18.207zm50.433-50.124c2.88-5.776 4.977-11.7 5.35-18.038.34-2.33-1.076-2.37-1.29-.728-4.076 15.593-25.762 11.37-25.016-3.297.605-11.89 12.42-14.45 18.582-10.56 2.434 1.44 2.296.58.968-.91-9.155-10.21-3.61-23.36 8.76-23.6 13.38.795 16.852 14.87 8.645 23.15-1.02.995-3.29 4.19.12 1.957 8.28-5.89 19.79.443 19.55 9.52-.437 16.74-20.84 17.988-25.207 4.007-.42-1.55-1.63-2.33-1.295.304.605 4.768 1.856 11.954 5.437 18.207zM54.087 87.62c2.88-5.776 4.976-11.702 5.348-18.038.342-2.332-1.075-2.37-1.288-.728-4.077 15.592-25.763 11.37-25.017-3.297.605-11.895 12.42-14.454 18.582-10.564 2.434 1.432 2.296.574.968-.912-9.155-10.21-3.61-23.36 8.76-23.6 13.38.8 16.852 14.87 8.645 23.15-1.02 1-3.283 4.19.123 1.96 8.287-5.89 19.788.445 19.553 9.52-.43 16.74-20.83 17.99-25.2 4.008-.42-1.55-1.63-2.33-1.29.305.607 4.766 1.858 11.953 5.44 18.205zm116.235 141.705c-2.88 5.776-4.976 11.7-5.348 18.038-.342 2.33 1.074 2.37 1.288.728 4.076-15.59 25.762-11.37 25.017 3.3-.61 11.9-12.42 14.46-18.59 10.57-2.436-1.432-2.3-.573-.97.91 9.153 10.21 3.61 23.36-8.763 23.605-13.38-.794-16.85-14.87-8.644-23.15 1.02-.993 3.284-4.19-.123-1.955-8.286 5.887-19.786-.444-19.552-9.52.435-16.74 20.84-17.99 25.206-4.008.42 1.55 1.63 2.33 1.294-.303-.606-4.768-1.858-11.954-5.44-18.207zm-101.532 0c-2.88 5.776-4.977 11.7-5.35 18.038-.34 2.33 1.075 2.37 1.29.728 4.075-15.59 25.762-11.37 25.016 3.3-.605 11.9-12.42 14.46-18.582 10.57-2.434-1.432-2.296-.573-.968.91 9.155 10.21 3.61 23.36-8.76 23.605-13.38-.794-16.853-14.87-8.646-23.15 1.02-.993 3.284-4.19-.123-1.955-8.286 5.887-19.787-.444-19.552-9.52.432-16.74 20.84-17.99 25.203-4.008.42 1.55 1.63 2.33 1.295-.303-.605-4.768-1.857-11.954-5.438-18.207zM13.657 76.882c1.192-2.445 2.352-4.72 2.984-7.4.42-2.528-.43-1.59-.92.068-.72 2.297-2.72 3.343-4.58 3.37-3.37.044-5.05-2.606-4.95-5.455-.37-3 2.67-5.12 4.96-4.957 1.73.123 3.23 1.052 4.14 1.775.597.315 1.235.455.346-.358-1.68-1.833-3.08-2.965-3.047-5.71.03-2.58 2.232-5.27 5.154-5.185 3.653.105 5.313 2.89 5.304 5.48-.01 1.89-.95 3.627-2.41 4.703-.943.766-.68 1.34.4.615 1.034-.892 2.266-1.283 3.543-1.31 3.49-.055 4.856 2.962 4.657 5.764-.19 2.626-2.426 5.33-5.37 5.023-2.63-.302-4.015-2.51-4.808-4.777-.263-.695-.677-.883-.665.153.608 5.06 2.49 8.21 2.505 8.21zM210.56 238.886c-1.19 2.445-2.35 4.72-2.983 7.4-.42 2.528.438 1.59.925-.068.722-2.297 2.723-3.343 4.58-3.37 3.37-.044 5.053 2.606 4.948 5.455.368 3-2.67 5.12-4.96 4.957-1.724-.123-3.225-1.052-4.134-1.775-.597-.315-1.234-.455-.345.358 1.68 1.833 3.08 2.965 3.05 5.71-.03 2.58-2.23 5.27-5.15 5.185-3.65-.105-5.31-2.89-5.302-5.48.01-1.89.955-3.627 2.41-4.703.947-.766.68-1.34-.395-.615-1.035.892-2.267 1.283-3.545 1.31-3.49.055-4.856-2.962-4.656-5.764.187-2.626 2.423-5.33 5.37-5.023 2.63.302 4.01 2.51 4.804 4.777.263.695.677.883.665-.153-.607-5.057-2.49-8.204-2.505-8.2z"/></svg>