<svg xmlns="http://www.w3.org/2000/svg" width="224.225" height="312.808"><title>Vectorized Playing Cards 1.0</title><path d="M63.06 279.597c-.836 1.193-4.457-7.136-6.78-13.45-1.142-3.1-2.67-5.657-2.04-6.472 1.657-1.674 5.943-.176 9.06 2.214 3.33 2.55 5.68 6.31 5.68 6.31zm-29.214-6.175l-.1-4.648c2.868-2.58 6.962-6.308 11.132-11.124l-10.82.067-.85-4.04-.114-176.6S44.956 89.357 45.26 89.36c.178.002.02 73.32.087 122.348.098.23-6.252.087-6.67 3.295-.274 2.12 6.888 1.827 7.002 1.968-.02 22.04-.32 37.86-.17 37.86 5.44 0 6.58.22 6.58.22-6.14 6.34-12.51 11.52-18.25 18.38zm38.658-22.688c-.957-1.903-2.48-9.216-3.645-9.04-5.35 1.77-7.08-6.116-1.54-6.52 2.09-.155 4.44 2.573 5.75 5.968.63 1.78-.02 10.303-.57 9.592zm1.206-10.968c-1.578-2.574-3.088-11.978-5.964-11.445-2.625.6-4.306-1.7-4.05-3.71 1.347-5.65 10.966-.28 13.49 1.02-1.25 2.84-3.017 9.92-3.476 14.14zM53.535 213.97c-.687-.28 1.07-3.12 1.087-6.388.02-3.705-1.67-7.797-1.47-8.392 6.296-4.933 14.855-10.248 16.41-7.423 1.602 12.022.775 18.705-1.022 27.68l-1.185.62s-1.99-.374-3.466-1.134l-7.76-3.896zm101.258-90.743c-1.166-9.26-.32-23.67 1.334-29.373.635-1.93 12.624 6.054 13.58 6.65.897.556 1.33.472.787 2.908-.626 2.814-.528 6.123.358 9.89.33 1.408.588 1.955-.295 2.57-.918.642-15.46 8.29-15.764 7.355zm-5.688-38.434c.248-.594 1.238-7.526 1.544-7.552 1-.08 2.47 6.79 5.03 9.06 4.835-.55 5.402 2.72 4.456 4.3.234.697-1.56 2.206-3.238 2.06-4.17-1.624-9.793-3.063-7.803-7.86zM84.43 79.148c-1.363-.96 1.223-7.87 8.585-6.283 3.167-5.962 3.34-19.405 4.87-20.238 2.305-.85 25.796-7.368 25.097-1.686-.752 6.1-1.964 35.49-10.81 42.71-.888 1.06 13.998 11.12 13.998 11.12s15.7-9.77 14.804-9.622c-.387.104-.693 8.313-.923 21.586-.22 12.81 1.66 21.98 5.56 35.533-.49 1.64 2.99 9.836 6.89 17.96 4.42 9.218 10.4 18.52 10.4 18.52-10.276-3.46-19.72-2.112-31.243-6.07l-.563 45.54s5.964 3.114 7.115 4.546c.56.7.626 1.673.69 2.556.25 3.44-2.66 7.53-8.19 6.18-1.734 6.066-4.22 20.33-4.317 20.326-8.443 1.137-17 2.358-25.553 1.9 0 0 1.28-4.58 1.77-11.47.18-2.51.304-5.21.6-8.083 1.08-10.587 4.196-22.147 9.226-22.89-.993.393-12.764-9.755-14.37-10.48-6.618 3.45-15.314 9.24-15.314 9.24s1.145-8.386 1.197-17.18c.053-9.42-.61-19.84-.91-22.55-2.28-15.53-8.63-29.66-13.755-40.232-2.06-4.25-5.14-11.047-5.14-11.047 7.56-.87 16.12-.458 29.475 3.53 0 0-.75-45.96-.756-45.706.12.41-3.433-1.46-6.69-3.53-1.743-1.106-1.564-4.05-1.734-4.17zm66.664-10.304c.055-.467.27-5.66.27-5.66 2.09 2.452 3.777 9.636 4.193 9.514 0 0 2.685-.42 3.52.467 2.725 2.898.046 6.32-2.676 5.68-2.7-.696-5.68-5.325-5.3-10zm27.776 155.828s-.712-81.11-.698-121.965c2.913-.476 5.93 1.46 8.657-2.682-1.45-2.99-5.57-2.078-8.67-2.682l-.03-37.668s-5.17-.09-5.173-.43c-.005-.31 2.663-2.82 7.712-8.096.606-.64 1.636-1.74 2.287-2.45 2.55-2.78 6.596-7.4 6.788-7.22 1.587 1.346 1.422 3.535-5.95 10.38-5.374 4.99-5.58 4.656.363 4.573 5.67-.105 6.39-.576 5.595 1.464.012.833.66 1.483.507 1.613-.163.143.038 177.208.038 177.208zM161.556 35.754c.038.104.782.386 1.582 1.27 3.266 5.35 4.962 12.128 7.53 16.803-5.318 2.362-12.693-2.88-14.472-7.464-2.16-5.77 4.162-13.79 5.36-10.61z" fill="#e2cf00"/><path d="M31.685 28.245l.207 257.113 160.805.24-.692-257.648zm53.247 54.057c.217.414.574 1.012.574 1.012s-.388.1-.66.277c-18.607 6.89-38.73 22.22-39.08 22.67l.357-16.97-12.48-12.963.05-45.993h48.39L96.276 54.06c-.853 6.21-3.063 18.24-3.063 18.24-1.303-.314-5.698-.727-8.072 2.676-1.13 1.624-1.73 3.837-.2 7.327zm90.723 52.933l1.838-2.328-3.24.148 2.225-2.412-3.585-.083 2.795-2.374-3.773-.043 2.804-2.335-4.13.186 2.95-2.54-4.084.018 3.045-2.556-3.994-.054 2.597-2.295-3.486-.042 3.94-2.766c1.687.73 3.945 1.15 6.216 1.2l.048 18.62zm2.827-32.302c9.215.03 11.184-4.89.048-5.674 0 0-.87-24.43-.62-34.54 0-1.24.117-2.62.117-2.62l-6.066-.16s16.27-17.55 17.8-18.98c1.39 59 1.33 195.98 1.33 195.98l-12.423-12.43-.137-38.734c-4.16-4.214-6.54-10.358-9.018-14.338l-6.795-3.3 1.598-5.46-.683-1.554-2.12 7.724 7.432 3.534.788 1.598-1.25 7.278 7.036 2.414 1.22 1.674-.444 7.104 1.454.444.016 1.41-1.46-.125-.52 7.98 1.985.584-.005 1.8c0-.03-1.157.008-1.725-.04-.785-.426-2.077-2.107-2.077-2.107l.702-8.86-8.92-1.786-.664-.94 1.64-8.852-9.36-2.866c.96 2.365 2.235 4.576 3.295 6.904-1.287.372-2.63.455-3.93.734-.35 11.967.053 24.416-.32 35.67-7.535.543-4-.175-7.276-.124-1.284 0-2.324 1.04-2.324 2.323 0 .82.425 1.54 1.067 1.95l-1.3.465-2.27-2.57 4.747-4.55-.03-1.31-5.894 5.893 2.55 2.945-1.518.786-2.33-2.45s-5.01 5.125-4.697 5.22c.156.045.435.304.62.57 3.57 7.7-1.3 11.376-7.182 9.246-1.498 7.087-2.924 13.482-4.1 20.822-4.398 1.66-25.075 2.62-25.304 2.24 0 0-.522-.5-.545-.75.094-.33-.59.68-.59.68 0 .437-18.028-.45-26.917-2.143 0 0-.182-.853-.11-1.977.146-2.256-.03-2.235 2.025-1.907 4.19.283 7.442-1.155 8.735-4.843.723-2.068.384-3.93-.72-9.456-1.076-5.366-1.087-4.79-.96-5.514.15-.85 1.068-1.8 2.39-2.87.995-.81 1.094-2.33.293-1.49-.55.803-1.52 1.09-2.39 1.54-2.04 1.07-1.973 2.1-.77 6.505.567 2.07 1.158 4.298 1.177 4.558.06.81-.23.48-1.446-.355-.777-.57-1.674-1.04-2.474-1.51-2.44-1.3-1.36.124.99 1.69 1.85 1.37 2.155 1.96.56 1.302-1.642-.674-4-.38-5.845.31-.36.203-.63.18-.686-.15-.083-.517.233-1.814.37-4.81.345-7.572 2.13-15.644 7.167-20.31 7.212-6.677 19.064-2.146 25.64 4.04l.71-1.08c-4.413-3.706-12.065-8.328-19.517-7.43 3.12-2.598 9.99-6.903 9.99-6.903 4.716 3.42 8.19 6.83 13.367 10.53l.9-.596-14.24-11.286-15.33 10.108s.638-9.697.878-13.242l-6.653 5.88 5.13 7.598-5.436 5.598s.92-.13-.087 1.597c-1.53 3.104-2.456 8.106-3.163 13.185.138 3.79-.797 7.99-1.086 11.33-.502-3.13-1.096-4.775-2.255-7.616-1.065-2.74-1.48-2.718-2.68-2.318-6.506.544-3.56-12.005 4.125-3.797.34.35.895.775.92.693.16-.503-2.04-7.112-2.89-8.636-.9-1.61-.91-1.84-2.244-1.7-2.5.256-3.346-.634-3.6-3.266.333-4.973 5.717-2.87 9.166-1.342.316.24-1.614-1.755-2.305-2.46-.94-.954-1.09-1.57-1.09-1.57l.205-2.64 5.275-4.815-4.338-6.406.18-2.29 4.637-5.56-4.94-5.365-.06-1.91 4.014-5.345-5.38-4.316-.263-1.72s3.456-6.39 3.363-6.623c-.08-.194-5.833-4.166-5.833-4.166l-.578-2.684 2.497-6.825-5.98-3.414-1.095-3.083 1.683-6.32-6.2-2.86-1.77-3.56 1.152-6.644-6.95-2.06-1.845-2.92.242-5.84-1.702-.178.024-1.44 1.895.015s-.148-.214.06-3.1c.355-4.906.39-4.72-.783-4.92-2.468-.43-1.902-1.945.62-1.664.388.042.716.075.992.127.662.124 1.174.986 1.174.986l-.556 9.06 8.89 1.484.842 1.14-1.487 8.396 8.343 2.41 1.12 2.033-2.366 8.733 8.41 3.698.555 1.623-3.57 7.75 7.73 3.756.482 1.86-4.29 7.99 8.91 6.48s-.24-.632-.594-1.69l-7.063-5.045 3.58-6.825s.285.498.588.393c-.18-1.14-.32-2.284-.4-3.405l-3.647-9.5 11.796-7.93c-5.054-3.043-11.43-2.94-17.285-4.083 0 0-.258-.814-.698-1.545-1.705-2.73-3.237-6.205-5.137-9.79 1.4-.66 2.007-.574 3.51-.867 0 0 3.8-23.805 6.775-35.438 0 0 .458.14.683.146 1.45 0 2.62-1.175 2.62-2.62 0-.79-.35-1.5-.905-1.977.32-.092.664-.184 1.03-.27.474-.007 2.41 2.128 2.41 2.128l-4.975 4.91-.027 1.62c1.99-2.06 6.35-6.52 6.35-6.52l-2.626-2.76 1.298-.604 2.13 2.342 4.773-4.907 1.224.84c-1.61 2.113-2.657 2.8-5.065 5.296 1.258 1.49 6.13 6.185 6.13 6.185l-.013-1.62-4.802-4.656 4.67-4.66.27-.31s3.71 1.602 3.944 1.6c-1.576-1.298-4.406-2.408-5.944-3.53-6.964-4.108-.35-12.607 6.08-10.497.18.69 3.542-17.93 3.164-18.952.34-2.88.414-2.474-.585-4.125-2.99-6.896-11.72-19.94-11.72-19.94l78.544-.506c-.817 1.597-1.642 2.89-2.262 4.754 0 0 4.418 4.596 6.03 10.64.9 3.373 2.198 6.53 4.468 8.775.035.08-.08.18-.218.274-6.21 2.185-13.29-3.11-15.465-9.157l-3.564 5.81c1.61.18-23.716-2.875-29.93-2.103.55.11 1.2.567.834 2.31-.63 3.006-1.756 13.868-1.756 13.868-1.25 10.57-2.213 23.85-9.19 28.24 0 0 1.07 1.14 1.99 1.72.024-.016-.82-.87-.85-.97.007-.306.18-.5.387-.662 1.48-1.196 3.28-3.68 3.215-3.744 5.757 4.994 14.764 9.3 20.193 7.51 2.14-.45 3.093-2.514 4.23-.84-1.475 9.09-1.375 19.093-.802 26.95.89 17.507 4.757 27.54 8.587 39.944-1.97.696-12.08 7.473-12.08 7.473-.06.86 12.196 3.675 17.005 3.177 0 0 .99.96.994.758l-.096-.19c.71-.396 1.194-1.16 1.194-2.033 0-1.283-1.036-2.323-2.318-2.323-.24 0-.474.035-.693.103-.604-1.48-1.12-2.775-1.12-2.775l6.81 2.963-2.22 7.45.745 1.655 2.707-9.7-8.69-3.722-.59-1.72 3.603-7.36-7.77-4.6-.328-1.467 4.18-7.898-7.524-5.78 5.506-7.11-6.773-5.69.075-.944 5.61-6.463-5.8-5.965-.16-2.41 6.324-5.624-5.46-7.932c2.275-1.527 3.547-3.272 5.04-5.01l1.33.583-4.85 3.672 5.183 7.487 5.467-4.935-2.962-4.83 1.807.82 1.65 2.587-.27 2.648-5.4 4.917 4.64 6.723.04 1.232s-2.888 3.317-4.99 5.783l5.885 6.49-4.812 6.14 6.055 5.154-.17-1.547-4.467-3.77 3.428-4.15c.247-2.5-.296-6.8.98-8.682-2.063-2.02-.984-6.894.03-8.473-1.973-2.337-.844-7.467.416-7.683-1.508-1.89-.908-5.72.35-6.964.405-.215-5.38-2.3-9.028-4.807 3.036-5.65 2.328-10.966 3.286-12.88 1.314 3.79 2.995 7.82 4.447 10.723.154.3.477.234.958.24 6.033.54 5.46 5.51.935 6.786 0 0 9.2 6.85 13.86 7.61.05.12.015.282-.14.605-.663 1.368-1.045 3.735-1.144 5.817-.337 3.096 1.16 7.85 1.16 7.85l-1.91 1.18c-.38 1.636-2.515 1.67-2.72 2.835.45 5.004 10.225 24.172 12.29 26.34.78-13.68-.713-28.527.035-42.178zm-2.23 34.88l1.583-1.3-.037 2.07zm1.545 3.172l-.798-.596.8-.9zm-98.302 24.412c.148.942.324 1.877.516 2.793-1.12.294-1.95 1.315-1.95 2.53 0 1.448 1.18 2.623 2.62 2.623.21 0 .41-.03.6-.076.41 1.444.81 2.688 1.12 3.603l.53.38c-1.432-4.987 1.346-7.668-2.76-11.81-.06-.207-.36-.15-.666-.043zm84.7-135.24l25.562.168v9.434l-19.7 20.94 7.596.09-.08 35.92c-2.083.864-4.068 2.205-5.99 3.502l-11.98-6.63-.862-.44s.34-.093 1.04-.554c1.358-.89 1.876-3.073 1.26-4.714-1.006-2.683-3.084-2.2-4.816-2.206-1.44-1.11-2.67-4.823-3.68-7.302-.466-1.076-.912-1.902-1.03-2.526-.106-.58-.103-1.082-.103-1.082s.233.073.573.77c1.91 4.02 6.37 5.963 8.736 2.16 1.2-2.33.37-4.99-1.646-5.736-.613-.228-2.713.015-2.713.015-.12.07-1.52-1.977-3.496-8.7-.813-2.78-1.026-8.808-.253-9.67 1.31-1.59 1.65-3.82 2.757-5.428.504-1.007.478-.38 1.267.744 2.69 3.83 7.42 6.795 11.748 6.61 3.075-.135 4.024-1.18 3.297-2.07-1.688-1.72-2.79-4.14-3.344-6.257-1.29-4.93-2.655-9.323-6.117-13.154zM151.217 53.56c.323.307.068.778.01 1.628-.15 2.16-.196 2.185-1.437 1.64-2.382-1.044-5.75-.13-7.78 2.072-2.56 2.778-2.642 5.637-1.043 11.283 1.826 6.35 1.783 7.188-.408 8.486-1.32 1.12-2.67 3.47-2.17 3.46.07 0 .25-.14.4-.317.15-.17 1.354-1.14 2.28-1.773 2.544-1.74 3.34-2.63 2.17-5.84-1.15-3.17-2.08-6.27-1.6-6.46.23-.09 1.107.94 1.65 1.25 1.11.64 3.457 1.818 3.745 1.817.397-.004-.027-.29-1.17-1.04-3.06-2.01-4.316-3.83-1.36-2.678 1.58.614 3.255.255 4.2-.055 1.1-.36 1.675-.72 1.792-.308.16 1.954.006 3.97-.115 5.934-.038.125-.187 1.463-.334 2.967-.56 5.714-1.535 10.527-4.045 13.627-8.4 10.372-17.957 7.35-28.693-.953 4.005-11.092 3.73-19.74 4.72-23.26.925-.276 2.012.268 2.69.647 1.492.85 3.194 1.362 4.83 1.45 1.52.083 1.784-.133 1.65.318-.107.35-2.56 1.07-4.06 1.38-2.73.57-2.53 1.2-.23.993 2.42-.217 4.754-1.18 7.232-2.826 1.715-1.14 1.78-1.14 1.317-2.575-.11-.346-.34-.86.476-1.16.847-.315.727-.66.246-1.046-.12-.09-.423-.112-.546-.21-.152-.12.01-.66.01-.73-3.124-2.643-8.634-2.706-13.162.006-.225-.08-.46-.436-.24-.92.477-1.043 5.35-2.29 8.81-2.348 1.577-.025 1.886.175 4.26.9.98.3 1.525.377 1.614.228.2-.334-.15-1.34-.9-1.88-2.54-1.816-6.233-1.672-11.276.33-2.7 1.07-2.418 1.44-1.546-3.886.243-1.477.52-2.606.52-2.606s23.6.84 27.48 2.454zm-3.632 5.004c1.248.008 2.39.32 3.054.967.97 1.08-.05 1.41-1.6.83-1.98-.75-4.227-.32-5.968.76-1.117.697-1.357.325-.417-.67 1.14-1.204 3.1-1.89 4.92-1.877zm-17.944 1.854c2.18-.015 4.17.375 4.99 1.294.75.84.03.925-1.84.195-2.63-1.028-6.13-.703-9.02.735-1.486.74-1.942.89-1.744.047.873-1.37 4.444-2.25 7.624-2.27zm17.41.677c2.077.006 3.84.48 3.51 1.565-.115.385-.22.152-1.7-.304-1.48-.456-3.374-.284-5.276.27-1.774.517-2.114.634-1.32-.133.97-.933 2.96-1.403 4.79-1.4zm4.227 1.042c2.1 3.236 2.47 7.98 4.704 10.55 4.13-.77 6.088 3.117 2.61 5.704-1.767.99-3.922.25-5.507-2.35-1.51-2.47-1.927-3.96-1.975-5.53.14-3.292-.05-5.055.17-8.365zm-24.192 1.485l.916.11c.665 2.253 2.153 2.39 3.044.03l.692.113c-1.054 2.892-3.69 3.01-4.65-.252zm-1.417.044c.38-.02.7.38.866.91.355 1.2-.05 1.048-.877.54-.84-.51-1.486-.846-1.003-1.052.36-.193.645-.323 1.01-.398zm7.86.768c.315.392.386.693-.02.977-.4.21-.69.34-1.076.48-.37.11-.596.03-.44-.51.096-.45.38-1.1.596-1.36.36-.06.743.19.94.42zm11.1-.275l.723.05c.76 2.06 2.54 2 3.224.21l.65-.01c-1.226 3.188-3.717 2.61-4.6-.26zm-1.31.27c.694 0 1.37 1 .99 1.51-.385.32-2.1-.05-2.25-.68-.06-.38.564-.838 1.26-.84zm6.712.19c.335.08.313.33.322.37.178.843-.83 1.14-1.057.816-.125-.178.405-.85.734-1.19zm-15.975 9.02c-1.7.47-2.49 1.94-2.38 3.58.085 1.32.774 2.4 1.78 2.63 2.026.46 3.428-.96 5.5-1.53.893-.234.684-1.388.11-1.89-.734-.643-1.863-.242-3.38.917-2.97 2.276-3.683-2.097-.974-2.87.42-.12.227-1.088-.655-.84zM46.19 174.352l1.155.332-1.155 1.363s.005-1.18-.002-1.7zm3.217 4.678l-2.38 2.678 3.234-.243-2.19 2.274 3.37.136-2.472 2.56 3.308-.067-2.444 2.47 3.12.09-2.062 2.26 3.435-.263-2.506 2.702 3.676-.068-2.79 2.522 3.67-.027-1.102 1.255.98.49c.997-.464 6.75-2.253 6.94-3.6-1.27-.34-5.01 1.562-5.26 1.246-1.5-6.618-7.97-21.25-12.235-25.518l-.29 41.387c-.1.095-.22.13-.337.19-.64.302-1.47.123-2.03.35-2.165-.114-5.78 3.5-3.89 4.22.987.217 6.455 1.153 6.47 1.426.67 11.987-.413 24.036.086 36.83 1.53.227 6.524.51 6.524.51s-18.333 19.13-18.693 18.75c.43-20.505.205-60.59-.155-60.737.004-1.2.425-3.735.425-3.735l-.4-127.525s-.107-.57-.328-.936c-.376-.62-.404-.78-.43-2.693-.147-1.182.023-1.49.023-1.49l12.54 13.25.15 37.047s11.733 17.547 14.47 25.642c5.99 12.053 5.34 29.617 8.97 36.34.077 0 .15-.002.224-.01.086.98.097 1.375.24 1.528.273 2.2.57 5.19.57 5.19l-1.314 2.09 1.467 1.878.005 5.007-1.952 1.985 1.786 2.268-.497 4.675-1.396 1.244.79 1.065s.13 1.685-.184 3.614c-.215 1.31-1.506 1.13-4.19-.233-3.806-1.44-7.7-4.023-10.707-5.97.18-2.434 3.197-7.984-1-14.104-1.55-1.162-6.05-.735-6.445-.91l.035-18.853m-.005-2.177l2.03-.356-2.05 2.05zm96.67-94.11c-.168.02-.375.173-.64.474-.28.313-.73.23-1.875.16-1.222-.076-1.532-.04-2.338.25-.92.332-.94.332-1.576.06-.993-.422-1.615-.472-2.53-.212-1.12.32-1.83.23-2.522-.11-.7-.344-.923-.275-1.167.36-.1.267-.6 1.303-.83 1.655-.746 1.145-.565 1.336 1 .854 1.08-.334 3.066-.544 4.545.07 1.124.465 2.462.316 4.063-.38 1.4-.61 2.785-.805 4.13.327.787.66.74.16.54-1.204-.222-1.525-.38-2.357-.803-2.308zm-53.23 4.81c-1.45 0-2.624 1.17-2.624 2.616s1.176 2.627 2.623 2.627c.68-.57 1.04-5.134 0-5.24zm50.594.02c-1.596.542-3.786 1.267-6.254.543-1.94-.593-1.473.864.63 1.047 1.466.126 1.367.126.225 1.194-.96.9.244.837.9.277.778-.66 2.885-.49 4.075.053.52.235.573-.75-.05-.97-1.565-.546-1.19-.588.52-1.143.634-.144.66-1.242-.05-1.002zm-50.597.856c.823.316.31 3.35 0 3.49-.967 0-1.75-.783-1.75-1.745 0-.96.783-1.74 1.745-1.74zm-13.98.11c.67-.23 1.14.886 1.14 1.63 0 .967-.78 1.75-1.74 1.75-1.18-1.15-1.39-2.43-.03-3.15.193-.073.404-.15.63-.226zm6.89 2.57l-5.6 5.66 5.493 5.566 5.506-5.69zm66.315 2.24c.8 0 1.45.654 1.45 1.456s-.65 1.45-1.45 1.45c-.803 0-1.457-.65-1.457-1.45 0-.803.65-1.457 1.455-1.457zm-66.366 1.9c.802 0 1.45.655 1.45 1.457s-.648 1.45-1.45 1.45c-.8 0-1.45-.648-1.45-1.45 0-.802.65-1.456 1.45-1.456zm59.514 1.39l4.01 5.4-4.914 4.41.25-2.74c1.082-.197 1.903-1.15 1.903-2.29 0-.99-.62-1.834-1.494-2.167zm-66.79.3L75.2 98.6l5.052 5.006-5.006 5.19.043 1.436 6.224-6.626zm14.285.004l-6.177 6.34 5.96 6.51.075-1.65-4.68-4.838 4.77-4.736zm89.146 1.015c1.26-.004 2.335.41 2.664 1.23.26.462.397.86.774 1.034.735.336 1.73.105 1.78-.142.085-.002-1.17-.12-1.386-.313-.983-.89-.817-1.447.58-1.337.448.02 1.704.04 1.732.53.277 1.694-1.977 2.935-4.86 2.71-2.056-.34-2.066.45-2.21 1.55-.09.36-.406.94-.663 1.4-.725 1.303-.965 1.12-.46 1.625.494.642 1.13 1.438 1.12 2.186l-.02 6.874s-4.31-.018-5.81-1.102c-1.57-2.86-2.638-9.04-.33-12.432.804-1.016 1.986-1.502 3.345-2.58 1.048-.83 2.492-1.235 3.75-1.236zm-24.393.77l-.153 1.987c-1.096.188-1.934 1.138-1.934 2.287 0 1.02.66 1.88 1.575 2.195l-.136 1.726-3.2-4.594zm-12.56 1.342c.47.264.79.766.79 1.347 0 .68-.44 1.26-1.052 1.47zm-66.76.725c-2.214 1.15-1.452 5.61 0 5.24 1.447 0 2.618-1.174 2.618-2.62 0-1.447-1.17-2.62-2.617-2.62zm14.46.07c-1.446 0-2.62 1.17-2.62 2.616s1.174 2.62 2.62 2.62c1.924-.603.835-5.15 0-5.236zm64.64.663l-.23 2.856c-.507-.254-.856-.778-.856-1.385 0-.69.46-1.28 1.09-1.47zm-79.1.145c.963 0 1.74.778 1.74 1.74 0 .963-.777 1.745-1.74 1.745-.573.11-.937-3.184 0-3.485zm14.46.067c1.168.096.2 3.064 0 3.486-.96 0-1.744-.784-1.744-1.746s.782-1.74 1.744-1.74zm58.737 1.656l-5.78 5.76 5.71 6.29 4.75-5.774zm-65.727 1.09l-5.542 5.707 5.24 5.413 5.53-5.834zm-36.42 3.123l2.024 2.15-2.09.02zm101.695.214c.802 0 1.45.653 1.45 1.455s-.648 1.45-1.45 1.45c-.802 0-1.45-.65-1.45-1.45 0-.803.648-1.457 1.45-1.457zm-65.303.786c.8 0 1.455.65 1.455 1.45 0 .803-.657 1.457-1.46 1.457s-1.45-.654-1.45-1.456c0-.8.65-1.45 1.45-1.45zm7.163 1.698l-6.127 6.33 5.92 6.3.08-1.49-4.74-4.77 4.806-4.92zm-14.404.01l.06 1.61 4.92 4.872-5.17 5.197.21 1.397 6.352-6.57zm66.12 1.74l4.43 4.41-4.42 4.92-.003-2.555c.91-.313 1.57-1.18 1.57-2.2 0-1.017-.656-1.876-1.57-2.19zm12.22.228l.05 1.802c-1 .26-1.737 1.162-1.737 2.24 0 1.12.796 2.057 1.852 2.276l.032 1.427-3.51-3.87zm-102.48.81s1.48 1.58 1.98 2.224c-.39.46-.635 1.05-.635 1.7 0 1.445 1.17 2.62 2.62 2.62.413 0 .804-.1 1.153-.275.267.4 1.45 2.036 1.45 2.036l-6.97-1.12zm38.51 1.048c-1.447 0-2.62 1.172-2.62 2.62 0 1.445 1.173 2.62 2.62 2.62 2.63-.535 2.112-5.113 0-5.24zm-14.593.1c-1.44 0-2.62 1.172-2.62 2.618 0 1.448 1.18 2.623 2.627 2.623s2.617-1.174 2.617-2.62c0-1.446-1.17-2.617-2.616-2.617zm78.63.65l.08 2.907c-.61-.205-1.05-.79-1.05-1.47 0-.653.403-1.21.976-1.436zm-64.03.13c1.693.615 1.177 3.6 0 3.483-.964 0-1.746-.783-1.746-1.745s.784-1.74 1.747-1.74zm-14.594.098c.962 0 1.74.78 1.74 1.74s-.778 1.746-1.74 1.746-1.745-.784-1.745-1.746c0-.96.783-1.74 1.745-1.74zm66.346.167c.47.262.79.764.79 1.345 0 .58-.317 1.087-.788 1.353zm-87.735.742l2.04 2.62c-.19.07-.39.11-.603.11-.963 0-1.745-.782-1.745-1.744 0-.368.113-.707.307-.988zm94.337 1.19l-4.79 5.755 5.885 5.22 4.17-5.17zm-65.436.692l-5.874 5.965 4.15 4.31-2.297-.25-3.32-3.39-.075 1.128 1.807 2.064-1.93-.068.337.896c4.758.135 9.285 1.535 13.9 2.45l.283-.62-1.71-.44 1.616-1.934-.02-1.47-2.794 2.995-.95-.216 3.962-4.088-.266-1.246-4.874 4.988-1.418-.323 4.955-5.054zm65.678 3.433c.803 0 1.45.65 1.45 1.45 0 .802-.647 1.45-1.45 1.45-.8 0-1.455-.65-1.455-1.45 0-.802.65-1.45 1.453-1.45zm-65.876.753c.8 0 1.45.65 1.45 1.45 0 .804-.65 1.45-1.45 1.45-.803 0-1.45-.646-1.45-1.45 0-.8.647-1.45 1.45-1.45zm-32.904.418s-.375 4.772-.586 7.07l7.59 2.028.94-7.623zm-3.31.36l1.06.038-.133 4.4-1.07-1.052zM60.096 125s.763 1.226 1.635 2.58c-.47.472-.76 1.12-.76 1.84 0 1.445 1.18 2.62 2.63 2.62.267 0 .52-.04.764-.113.343.645.978 1.67.978 1.67l-6.504-1.906zm81.436.488l5.107 4.158-3.97 4.883-.27-2.1c.893-.32 1.534-1.18 1.534-2.188 0-1.208-.925-2.197-2.1-2.31zm-88.33.07c.803 0 1.45.65 1.45 1.452 0 .802-.647 1.456-1.45 1.456-.8 0-1.455-.654-1.455-1.456 0-.802.654-1.45 1.456-1.45zm102.06.46c-1.282 0-2.327 1.037-2.327 2.32s1.045 2.328 2.328 2.328c.508.372.647-3.99 0-4.647zm0 .78c.138.69.307 3.253 0 3.09-.853 0-1.55-.697-1.55-1.55 0-.854.697-1.54 1.55-1.54zm-93.037 1.544c.58.915 1.184 1.9 1.692 2.792-.104.02-.212.027-.322.027-.962 0-1.745-.78-1.745-1.74 0-.41.14-.78.374-1.074zm79.715.4c.7.145 1.223.762 1.223 1.505 0 .606-.35 1.13-.857 1.385zm6.917 1.36l-4.314 5.787 6.55 5.1 3.707-6.336zm-98.485 2.355l4.88 1.427-.92 4.99c-.08-.29-.35-.817-.717-1.445.21-.38.332-.81.332-1.27 0-1.45-1.17-2.62-2.617-2.62-.07 0-.14 0-.21.01l-.748-1.1zm7.23 1.213l-1.588 7.96 7.34 2.954 1.787-8.41zm92.09.062c.802 0 1.45.65 1.45 1.45 0 .803-.648 1.452-1.45 1.452-.802 0-1.455-.65-1.455-1.452 0-.802.653-1.45 1.455-1.45zm-97.954.735c.765.183 1.333.87 1.333 1.692 0 .11-.01.21-.03.31-.42-.674-.872-1.375-1.3-2.01zm104.184.217l-3.934 7.41 6.688 4.67-.46-1.583-4.782-3.51 2.782-5.09zm-95.062 2.68c.803 0 1.45.652 1.45 1.454 0 .802-.647 1.45-1.45 1.45-.8 0-1.45-.648-1.45-1.45 0-.802.65-1.455 1.45-1.455zm6.927.738l1.56 2.717c-.644.47-1.063 1.23-1.063 2.1 0 1.44 1.175 2.62 2.622 2.62.215 0 .423-.03.625-.08l1.13 2.39-6.81-2.98zm89.652.024c-.61-.142-1.2.248-1.62.652-.44.422-.71 1.015-.71 1.67 0 1.284 1.04 2.324 2.32 2.324 1.755-.424.813-4.458 0-4.646zm-14.1.64l5.54 3.96-3.23 6.238s-.33-1.26-.74-2.954c.787-.372 1.332-1.172 1.332-2.1 0-1.283-1.04-2.323-2.323-2.323h-.027c-.218-1.016-.412-1.996-.55-2.82zm14.093.137c.96.294.634 2.99 0 3.09-.845.133-1.548-.69-1.548-1.544s.69-1.55 1.544-1.55zm-87.71 2.73l1.416 3.01c-.078.013-.16.02-.24.02-.963 0-1.746-.782-1.746-1.744 0-.51.22-.97.57-1.29zm74.34.74c.784.073 1.4.73 1.4 1.537 0 .56-.304 1.046-.748 1.318-.216-.9-.44-1.88-.656-2.854zm7.304.793l-3.79 7.495 7.006 4.28 3.223-7.25zm-93.833 1.44l4.32 1.964-1.22 4.456-.525-1.09c.254-.405.407-.88.407-1.394 0-1.35-1.022-2.463-2.335-2.604zm6.823 2.115l-2.12 7.5 6.735 3.508 3.07-7.542zm-5.67.27c.567.29.955.88.955 1.55 0 .12-.017.24-.04.35zm93.93.61c.8 0 1.457.66 1.457 1.46 0 .804-.653 1.45-1.456 1.45-.8 0-1.45-.646-1.45-1.45 0-.8.65-1.454 1.45-1.454zm6.396.42l-3.214 7.843 7.38 4.07-.555-1.43-5.455-3.15 2.34-5.676zm-91.952 2.614c.803 0 1.45.65 1.45 1.45 0 .803-.647 1.45-1.45 1.45-.8 0-1.45-.65-1.45-1.45 0-.802.65-1.45 1.45-1.45zm94.27 1.16c-1.28 0-2.32 1.04-2.32 2.324s1.04 2.37 2.323 2.322c2.33-.054 1.142-4.666 0-4.647zm-87.053.26c.443.8.774 1.634 1.08 2.49-.696.47-1.154 1.265-1.154 2.167 0 1.394 1.092 2.536 2.466 2.617.05.002.293.037.293.037l.417 1.58-5.792-3.04c.813-2.183 1.51-3.694 2.694-5.85zm87.056.518c.676.285.86 3.005 0 3.09-.854 0-1.547-.69-1.547-1.543 0-.856.69-1.548 1.543-1.548zm-14.28.9l5.693 3.264-2.86 6.167-.85-2.825c.613-.42 1.02-1.12 1.02-1.92 0-1.272-1.027-2.31-2.297-2.322zm-71.39 1.946l.904 3.016c-.92-.047-1.487-.79-1.487-1.72 0-.516.227-.977.584-1.295zm72.342 1.224c.724.127 1.274.755 1.274 1.517 0 .443-.185.84-.483 1.124zm-84.97.2l4.405 2.573-1.986 5.14-.578-1.853c.395-.46.635-1.054.635-1.707 0-1.22-.835-2.244-1.965-2.534zm91.94.103l-2.67 7.156 7.722 4.057 1.93-7.32zm-91.09 2.623c.45.314.744.836.744 1.426 0 .21-.04.41-.11.597zm5.77.355l-3.134 7.26 6.52 4.296 3.393-7.57zm87.737 1.18c.802 0 1.45.65 1.45 1.45 0 .805-.648 1.454-1.45 1.454-.802 0-1.45-.65-1.45-1.45 0-.805.648-1.454 1.45-1.454zm7.64 3.19c-.65.42-1.036 1.227-1.036 2.056 0 1.28 1.04 2.33 2.32 2.32.288 0 .545-.03.774-.083.67-.897-.28-4.333-2.06-4.292zm-93.43-.206c.803 0 1.452.65 1.452 1.45 0 .8-.65 1.455-1.45 1.455-.804 0-1.453-.654-1.453-1.456s.65-1.45 1.45-1.45zm95.062 3.736c-.097.05-.21.075-.346.07-.85-.04-1.54-.694-1.54-1.547 0-.487.224-.92.575-1.204 1.336-1 1.53 2.88 1.316 2.68zm-86.48 1.235c.266 1.19.56 2.32.85 3.377-.12.024-.24.04-.367.04-.962 0-1.745-.783-1.745-1.745 0-.794.532-1.464 1.26-1.672zm80.94.855l-2.02 8.047 7.726 2.817 1.48-7.613zm-94.21.11l4.1 2.83s-1.326 3.197-2.446 4.903l-.315-1.48c.68-.472 1.124-1.255 1.124-2.146 0-1.282-.918-2.35-2.135-2.575zm86.713.384c.853 0 1.54.69 1.54 1.54 0 .56-.167.79-.61 1.064-.34-.762-.807-1.52-1.23-2.544.126-.034.163-.058.3-.058zM67.45 172.53c.616.27 1.048.88 1.048 1.6 0 .45-.172.862-.455 1.173zm6.16 1.175l-3.723 6.467 5.46 4.176 4.264-6.47zm90.11.218c.803 0 1.452.653 1.452 1.454 0 .802-.65 1.45-1.45 1.45-.803 0-1.456-.648-1.456-1.45 0-.8.654-1.455 1.456-1.455zm6.686 2.01l.95 1.47c-.296.39-.475.87-.475 1.397 0 1.284 1.047 2.325 2.33 2.325.177 0 .347-.017.51-.054l.766 1.185-4.845-1.735zm-95.68 1.72c.803 0 1.45.65 1.45 1.45 0 .803-.647 1.45-1.45 1.45-.8 0-1.455-.647-1.455-1.45 0-.8.655-1.45 1.457-1.45zm97.097.465l1.433 2.223h-.043c-1.353-.03-1.925-1.14-1.39-2.23zm-90.13.1l-5.273 6.992 6.993 5.182-.11-1.546-5.11-3.65 3.888-5.176zm76.99 2.365l6.96 2.19-1.49 6.9-1.64-2.724c.446-.425.725-1.02.725-1.684 0-1.282-1.036-2.322-2.318-2.322-.26 0-.51.047-.745.125zm-75.82 1.2c-1.32.137-2.356 1.25-2.356 2.606 0 1.446 1.18 2.62 2.623 2.62.666.08.762-.94 0-.876-.962 0-1.745-.782-1.745-1.744 0-.923.72-1.676 1.63-1.734l-.127-.87h-.023zm85.272.748l-1.21 7.99 7.882 1.684.585-7.246zm-98.58.196l3.72 2.75-2.828 3.955-.15-1.132c.67-.475 1.11-1.26 1.11-2.148 0-1.136-.72-2.094-1.73-2.458zm91.36.997c.854 0 1.54.69 1.54 1.544 0 .38-.136.727-.364.997l-1.502-2.503c.102-.022.212-.037.324-.037zm-25.004 1.046c.17.06.646.097.57.25-.063.13-1.322 1.512-1.322 1.512l.14 1.29 2.24-2.537.9.33-3.147 3.197-.147 1.19 4.185-4.11 1.79.492-4.87 4.792 5.61 5.686 5.612-5.723-3.988-4.358 1.97.183c.833.948 1.75 2.457 3.277 3.26l-.15-1.136c-.08.053-1.858-1.673-1.577-1.954l1.57.115s2.266-.66-.573-.66c-3.726 0-7.743-1.27-10.943-2.22-.357-.107-.9-.393-1.167-.403-.655.653-1.46.514.013.794zm-66.09-.02c.43.316.71.822.71 1.4 0 .41-.14.786-.38 1.084zm101.2 1.39c.8 0 1.45.647 1.45 1.45 0 .8-.65 1.45-1.45 1.45-.803 0-1.45-.65-1.45-1.45 0-.803.647-1.45 1.45-1.45zm-95.405.14l-4.53 5.76 5.133 4.927 5.255-6.162zm101.78 1.475l.36.06.02 3.93-.584-.12zm-35.38 1.826c.8 0 1.45.65 1.45 1.45 0 .803-.65 1.45-1.45 1.45-.8 0-1.456-.647-1.456-1.45 0-.8.65-1.45 1.453-1.45zm-65.697.413c.8 0 1.45.654 1.45 1.456 0 .8-.65 1.45-1.45 1.45-.805 0-1.45-.65-1.45-1.45 0-.803.645-1.457 1.45-1.457zm6.994 1.143l-5.852 6.978 6.288 6.49-.02-1.45-4.883-5.12 4.576-5.333zm65.47.64l-6.024 6.087 6.007 6.225.144-1.4-4.637-4.68 4.343-4.483zm-13.244.63l.01 1.655 3.78 3.846-3.87 3.95.023 1.675 5.486-5.655zm30.87.726l7.096 1.34-.433 6.705-1.707-2.063c.29-.39.465-.87.465-1.393 0-1.282-1.04-2.317-2.322-2.317-.367 0-.71.085-1.02.236zm-95.65 1.194l3.5 3.68-3.345 3.776-.03-1.286c.933-.4 1.585-1.33 1.585-2.406 0-1.118-.7-2.066-1.684-2.442zm12.97.93c-1.163.265-2.034 1.305-2.034 2.55 0 1.242.87 2.286 2.037 2.554v-.915c-.673-.245-1.157-.887-1.157-1.64 0-.758.484-1.397 1.157-1.638zm51.426.244c-1.074.71-.593 4.712 0 4.646 1.286 0 2.32-1.04 2.32-2.325s-1.034-2.322-2.32-2.322zm13.747.38c-1.283 0-2.323 1.04-2.323 2.322s1.04 2.323 2.325 2.323c1.02-.34.605-4.416 0-4.65zm20.605.298c.852 0 1.544.69 1.544 1.544 0 .28-.08.54-.21.767l-1.84-2.23c.158-.055.327-.08.503-.08zm-34.35.1c.853 0 1.54.695 1.54 1.548s-.687 1.545-1.54 1.545c.078-.552-.29-3.154 0-3.09zm-64.35.358c.475.31.79.844.79 1.455 0 .585-.286 1.106-.727 1.423zm78.094.023c.192.625.434 3.2 0 3.09-.854 0-1.547-.69-1.547-1.546s.69-1.547 1.543-1.547zm-7.027 2.25l-5.66 5.626 5.78 5.9 5.46-5.827zm-65.25.3l-5.063 5.467 4.88 6.333 5.72-5.7zm-27.45.2c1.557 0 3.01.268 3.604 1.3 2.383 3.197 1.698 9.757.046 12.01-3.71 3.37-5.81 4.26-9.992 3.49.48-1.89-1.53-2.91-1.82-2.492-.036.006-.19.337-.003.36 1.442.177 1.328 1.897 1.158 1.905-1.593-.05-2.63-.02-2.792-.73-.1-.44.158-1.115 1.087-1.876 1.09-.873 6.114-.853 6.114-.853.02.01-.01-1.426.494-2.25.442-.723 1.056-1.526.634-1.86-.725-.334-1.215-1.15-1.318-2.084-.194-1.967.115-6.697.045-6.748.845-.08 1.814-.174 2.75-.17zm92.687 3.65c.8 0 1.454.65 1.454 1.45 0 .8-.653 1.45-1.456 1.45-.8 0-1.45-.65-1.45-1.45 0-.8.65-1.45 1.45-1.45zm-65.2.564c.802 0 1.45.647 1.45 1.45 0 .8-.648 1.454-1.45 1.454-.8 0-1.456-.653-1.456-1.455s.654-1.45 1.456-1.45zm72.116 1.364l-5.913 6.03 6.3 6.52-.198-1.77-4.54-4.67 4.44-4.626zm-13.356.113l-.16 1.67 4.185 4.4-3.803 3.907-.056 1.895 5.595-5.9zm-64.73 2.277l3.343 4.69-3.977 3.487.104-1.33c1.155-.273 2.015-1.312 2.015-2.55 0-1.1-.677-2.034-1.633-2.423zm12.517.924c-.075.97-.13 1.76-.18 2.477-1.082.32-1.875 1.326-1.875 2.513 0 1.052.625 1.96 1.52 2.373-.07.752-.163 1.584-.296 2.628l-3.997-5.842zm94.496.278l.157 16.4 11.85 12.33.125 46.03-48.928.3-12.588-21.36c-.278-.404-.615-.27-.89-.675l3.733-19.925c5.874 2.706 10.816-4.29 7.61-9.96 18.107-6.613 38.93-23.136 38.93-23.136zm-28.89.09c-1.283 0-2.323 1.036-2.323 2.32 0 1.284 1.04 2.33 2.322 2.33s.8-.793.8-2.076.484-2.57-.8-2.57zm-13.526.138c-.646.735-1.014 4.68 0 4.647 1.282-.04 2.323-1.045 2.323-2.33s-1.04-2.32-2.324-2.32zm13.526.64c.855 0 .466.837.466 1.69 0 .854.39 1.402-.466 1.402-.853 0-1.545-.697-1.545-1.55 0-.853.69-1.54 1.544-1.54zm-13.524.14c.85 0 1.54.686 1.54 1.54 0 .853-.69 1.545-1.54 1.545.09-.257-.39-2.982 0-3.086zm-64.81.61c.492.307.823.854.823 1.48 0 .723-.44 1.342-1.065 1.607zm12.48 1.555c-.073 1.113-.125 2.028-.2 2.954-.44-.32-.73-.83-.73-1.415 0-.667.377-1.25.93-1.54zm58.835.536l-5.514 5.517 5.745 5.966 5.457-5.774zM76.21 213.72l-5.777 4.635 3.72 5.7 1.295.78 5.287-4.525zm-23.185.382l13.59 7.253s-3.525 1.477-3.427 3.83c.14 2.635 1.72 4.787 4.85 3.98.72-.105 1.046.193 1.74 1.81 1.326 3.095 2.636 6.496 2.124 6.39-1.665-1.33-1.415-1.404-3.38-2.284-3.66-1.01-5.885 2.4-4.73 5.156 1.08 2.543 2.87 2.688 4.67 2.428.264.06.487.35.665.684.57 1.158 1.437 3.218 2.114 6.387 1.044 4.886 1.28 11 .517 12.54-1.053 2.126-2.507 5.006-2.507 5.006-2.837-5.403-9.014-10.14-15.956-8.463-.233.143-.28.906.034 1.353 2.252 2.954 2.633 5.662 3.438 8.566 2.06 7.445 6.224 11.705 6.164 10.945l-2.18 3.95s-18.875.095-26.6 0v-9.07l20.24-20.724-8.017-.34.277-35.73c2.93-.61 6.378-3.67 6.378-3.67zm88.87 2.29c.8 0 1.45.65 1.45 1.45 0 .8-.65 1.455-1.45 1.455-.803 0-1.457-.654-1.457-1.455 0-.8.654-1.45 1.456-1.45zm-66.3 1.468c.8 0 1.454.648 1.454 1.45 0 .802-.655 1.456-1.458 1.456-.808 0-1.45-.655-1.45-1.457s.642-1.45 1.45-1.45zm59.81 1.332l.143 1.43 3.978 4.168-3.683 3.745c-.535.736-1.91.575-2.34.626-.002.05.09.55.416.69.342.15.753.13.92.22.38.22.63.25.63.25l5.35-5.472zm.063 3.237c-.965.3-.795 4.41 0 4.64 1.283 0 2.323-1.04 2.323-2.325s-1.04-2.324-2.32-2.324zm13.64.63c.097.38.24 3.05 0 3.09-.854 0-1.546-.7-1.546-1.55s.693-1.55 1.547-1.55zm-13.64.14c.853 0 1.545.692 1.545 1.545s-.698 1.545-1.55 1.545c-.21-.356-.554-3.04 0-3.09zm-47.828.744c-.232.086-.55.03-.802.032-.807 0-1.808-.57-2.03-.466-.252.12-.166.65-.153.885.03.22.648.294.9.46.405.266.295.36-.166.47-.41.094-.74.12-1 .492-.165.23-.18.633.1.63 1.61-.025 3.65-.688 5.58-.042 1.1.395 1.82.64 1.993.49.364-.316-.925-1.548-2.16-1.78-1.24-.232-1.69-.137-1.284-.51.21-.19.49-.115.51-.253.057-.385-.227-.783-.563-.837-.362-.06-.646.32-.92.43zm6.926 3.867c-.13.003-.32.096-.573.3-.734.488-1.883 1.14-4.655.38-1.524-.5-3.234-.063-4.23.217-.776.218-1.888.43-2.778.025-.87-.418-1.822-1.052-1.646-.398.04.164.09 1.122.11 1.69.022 1.34.12 2.453 1.08 1.404.416-.454.92-.46 1.866-.085.674.263 1.147.443 1.67.102.74-.484 1.377-.605 2.744-.142.65.22 1.33.24 2.15-.265 1.362-.84 2.226-.022 2.75.835.413.68.62-.29 1.384-2.306.393-.96.515-1.765.123-1.76zm-6.526 7.49c-.743.42-1.78.546-2.53 1.04-1.593 1.1-.1 2.014 1.005 1.785.45-.1.975-.328 1.555-.71 1.994-1.325 3.098-1.13 3.286.47.204 1.73-2.462 2.512-2.213 3.316.335.523 1.628-.2 2.43-1.284 2.376-3.22-.24-6.476-3.533-4.616zm10.32 9.083c-2.703.304-6.772 1.61-8.815 3.144-1.606 1.25-2.046 1.565-1.366 2.064.62.457 1.1.473.244 1.347-.3.31-.82.963-.82 1.09.01.626 3.83 2.486 6.018 2.78 1.688.222 4.418-.035 5.888-.628 1.94-.784 2.006-1.318.174-.78-1.43.42-3.157.737-4.858.613-1.53-.11-3.03-.574-3.98-.912-2.34-.836-1.933-1.813.43-.98 2.728 1.177 6.26 1.157 9.395-.256 1.267-.57 1.62-1.02 1.85-.824.057.05.185.36.22.446.08.204.09-.535.2-1.71.093-.974.185-2.28.185-2.28s-.19.55-.185.81c.023 1.706-.805 1.714-3.145.41-2.75-1.51-4.085-1.363-6.7-1.347-1.145.01-1.197-.324.414-.856.766-.253 1.944-.662 3.7-1.223 1.45-.463 1.84-.982 1.156-.904zm-20.734 3.44c1 0 1.89.844 2.15 2.487l-.993-.07c-.33-2.45-2.11-1.894-2.806-.436l-.872.027c.684-1.346 1.647-2.004 2.526-2.004zm2.538.15c.403-.037 2.28.873 2.394 1.152.125.305-.59.635-1.214.82-.72.21-.572.24-.8-.186-.316-.6-.872-1.768-.38-1.79zm-4.784.12c.02.263-.55 1.225-.962 1.35-.485.147-.87-.497-.47-.825.36-.186 1.36-.903 1.433-.527zm19.28.127c1.26-.05 2.435 1.22 2.534 2.727l-.636-.016c-.587-3.134-2.995-2.425-3.535-.19l-.75-.214c.627-1.62 1.53-2.274 2.39-2.31zm-2.473.223c.347-.024.3.257-.112 1.09-.195.393-.335.616-.678.602-.467-.07-.78-.22-1.016-.588-.16-.366.22-.65 1.027-.907.366-.12.623-.19.78-.2zm5.298.232c.22 0 .623.143 1.256.422 1.618.712 1.81 1.006.96 1.41-.373.18-.685.317-.94.4-.755.25-.73-.172-.935-.697-.116-.3-.255-.57-.403-.884-.203-.44-.212-.658.064-.656zm-23.71 2.655c.27 0 .852.354 2.024.773 1.683.6 3.38.38 5.614-.33.92-.296 1.236-.48.872.054-.288.423-1.857 1.2-3.138 1.517-2.4.594-5.57-.534-5.575-1.764.018-.18.077-.25.2-.253zm7.94 2.025c.245.006.007.37-.5.94-.79.88-1.994 1.485-3.22 1.7-2.582.46-4.72-.245-4.74-1.69-.017-1.04.166-1.057 1.44-.4 1.08.56 3.512.694 5.47.063.645-.17 1.304-.563 1.418-.593.058-.01.1-.02.135-.016zm19.847 1.4c-1.96.517-4.04 1.037-5.94 1.403-2.037.4-5.006.03-6.556-.73-1.146-.564-1.548-.23-1.044.863.33.716.826 1.466 2.295 1.98 2.133.743 7.136-.467 10.85-2.387 2.16-.96 1.75-1.544.396-1.13zM69.3 269.48l3.345-5.68c22.642 4.383 47.14 1.2 54.636.162 0 0 8.19 13.545 11.13 18.3.28.505 1.04 2.218 1.04 2.218l-77.3-.06c1.08-2.178 2.11-4.99 2.11-4.99-2.36-.948-4.193-4.478-5.33-7.455-.993-2.614-2.72-8.996-4.985-12.105 3.968-2.25 13.944 2.77 15.365 9.61z" fill="#131f67"/><path d="M138.79 283.845H62.224l9.977-19.94c18.62 2.818 36.97 2.466 55.1-.403l11.49 20.343zM34.16 267.95l-.227-9.626 9.94.02zm83.186-63.177l-.113-31.048 14.012 9.217-.51 31.525zm-33.508-7.32c.502-11.105-2.154-21.466-4.2-31.97l14.507-9.53.792 35.05zm-38.2-29.18l.394-40.034c13.052 18.77 20.985 37.46 23.26 63.2-3.55 1.43-7.01 3.01-10.65 4.28-4.19-9.62-8.42-18.936-13.003-27.456zm132.247 17.235c-12.06-15.323-19.338-36.336-23.134-61.487l11.05-5.36c3.666 8.88 7.23 17.92 11.867 25.29zm-47.622-27.292l-1.174-33.602 11.05-6.714c.58 11.53 2.41 22.34 4.58 31.423zm-24.04-17.934l-11.93-6.94.678-30.374 10.91 8.547zm74.463-84.23c.855-3.18 6.606-7.24 9.068-9.428l-.1 8.996s-8.53.603-8.968.433zM97.08 51.19L84.705 30.07l77.57-.65-9.966 21.263c-20.55-3.756-38.12-2.06-55.23.504z" fill="#d40000"/><path d="M27.62 13.402H17.377V16.9h3.81s-.045-.664-.013 7.14c.022 5.472.017 8.966-.047 11.265.017 3.063-.488 4.936-1.693 6.06-1.91 1.605-5.64 1.445-7.018-.067-1.022-1.186-1.24-3.452-1.177-6.12H7.76s.002 1.29 0 1.97c-.605 12.59 16.264 10.456 16.804 1.67.113-1.877.055-1.195.01-11.597-.05-11.15-.01-10.32-.01-10.32h3.056zm105.012 227.734c.178.056 2.575-1.567 3.82-3.956 1.343-2.64.128-5.235.527-5.245 2.47.74 1.76 5.458.9 6.92-.73 1.272-2.13 2.128-3.58 2.373-1.43.24-1.677-.092-1.677-.092zm4.033-10.317c-.498 0-.715-.08-1.043-.42-.456-.48-1.004-.79-1.294-.75-.392.05-.57-.02-.574-.22-.002-.17.172-.2.816-.15.392.034 1.22-.585 1.22-.585l.007-44.603c3.507 1.454 8.75 2.29 12.777 2.77l.27 39.755s5.91-3.097 8.056-4.333l.077-35.584 4.186-.457-6.61-13.434c-.93.713-13.94-.5-17.19-2.616l11.873-7.41c-1.206-3.676-2.303-7.19-3.31-10.916-.032-.114-.25-.1-.282-.217-.244-.91-.418-1.32-.647-2.233-.043-.17.026-.45-.023-.62-2.557-8.81-4.303-20.49-4.658-30.94.038-.1.416-.014.416-.014l-.076-6.385-.422.28.04-2.89.43-.423c.01-.56.05-1.614.05-1.614l-.55-.343.284-4.84.566-.086.31-7.664-15.035 9.73s-9.82-7.025-14.11-10.67c4.72-3.21 5.97-9.47 7.14-14.666 1.197-5.14 1.59-9.384 1.93-13.686.373-4.74 1.158-10.805 1.787-13.79.38-1.81.366-2.007-.166-2.037-.182-.01.007-.07.424-.133 9.64-.385 19.993 1.05 29.187 2.247 0 0 2.275-4.237 3.065-5.8 0 0 .46 1.435.954 2.43 1.114 2.116 3.665 4.36 5.85 5.567.812.536 3.155 1.32 4.74 1.588.93.157 2.43-.14 3.54-.58.38-.16.68-.36.683-.56.004-.204-.297-.41-.68-.774-.33-.31-.768-.912-.978-1.34-.667-1.355-1.687-3.63-2.257-5.76-1.6-4.235-2.79-9.346-6.474-11.6l2.54-5.083-80.01.02 12.382 20.86s.373.623.496.844c.37.66.52.565.52.565-.808 7.29-1.954 14.47-3.47 21.526 0 0-.16-.56-2.51-.53-6.884.1-9.294 7.75-3.54 11.137.542.324 1.464.94 2.374 1.42.262.135 3.56 2.07 3.56 2.07l-3.952-1.777-.285 45.888s-8.245-2.475-13.68-2.71l.054-39.786-7.59 4.097-.344 35.573-4.157.268s1.573 3.354 1.923 4.06c.704 1.41 2.47 4.546 3.68 6.53.428.7 1.427 2.26 1.427 2.26 5.54.146 11.21.98 16.362 3.27L74.82 152.3c4.98 14.032 11.192 34.567 7.732 67.71l.834-.53.23-3.57 14.85-10.222 18.314 14.747s-1.33-.036-1.63-.05c-4.67-.163-7.96 4.613-9.085 8.602-1.99 7.03-2.25 8.76-3.166 19.91-.366 4.41-1.238 8.66-2.127 12.86-.47 2.11-.4 2.323-.4 2.323 9.315.296 19.043-.688 26.34-2.3 0 0 3.08-14.62 4.18-20.826 1.036.593 1.958.853 2.892.833 7.223-.784 6.604-10.69 2.88-10.966zM104.517 30.39l3.786 13.283-9.273.858-7.7-14.03zm57.008-.187l-9.533 20.222c-20-2.807-31.542-3.074-54.754.213L85.17 30.475l3.176-.027 9.098 16.098 13.513-1.347-3.735-14.74 3.57-.11 3.695 14.455 20.915-.11c.677-4.845 1.99-14.318 1.99-14.318l3.862.043-2.573 14.636 12.36 1.55 7.14-16.363zm-26.823.187l-1.218 12.296-17.3.133-2.768-12.44zm20.962-.236l-5.874 14.594-8.558-1.144 2.337-13.247zM54.022 53.91c1.336 1.048 1.755 1.32 1.53 1.757-.255.49-.557.394-1.69-.555-3.377-2.872-6.995-3.538-10.08-2.705-8.687 3.04-10.2 13.084-4.15 19.927 6.013 5.315 16.582 2.105 18.28-6.207.05-1.537 1.38-2.133 1.383-.148-.666 6.95-3.945 12.95-6.72 17.38h15.99c-3.878-5.79-5.18-9.185-6.325-17.83.054-1.36.94-1.567 1.243-.29.92 6.13 5.692 10.994 12.01 10.01 12.864-2.596 12.93-20.07 1.68-22.896-2.8-.58-6.17.16-8.765 2.47-.942.84-1.276.976-1.607.655-.36-.356.08-.713 1.15-1.66 5.94-4.38 5.67-12.37.268-16.84-5.08-3.536-11.074-3.233-15.38.55-5.58 5.196-3.7 12.716 1.193 16.373zm112.194-9.456c.38 1.247.766 2.468.858 2.717 1.396 3.79 1.97 5.04 2.883 6.3.15.21.196.185-.025.36-4.203 2.056-11.8-3-13.63-7.63.23-.447 1.246-2.327 1.246-2.327.53 1.035.132 2.058.48 2.987.087.396.956-2.678.956-2.678s.838 1.36.94 3.99c.016.4 1.092-1.76 1.092-1.76 1.353 1.82 1.276 4.974 1.276 4.974 1.525-1.85.574-2.91 2.93 1.805.27-.49.14-1.01.495-.873 1.035.4 2.49 1.125 3.018.98-.69-.866-2.03-1.32-2.398-2.47 0 0 1.063.09 1.132.04-1.21-.656-2.36-1.22-3.27-2.48.27-.098 1.354.088 1.31-.027-1.63-1.47-4.077-2.66-.54-2.33-2.3-1.62-4.86-2.736-.87-2.615-2.847-1.345-3.615-2.175-3.085-2.404.3-.126 1.15.386 2.51-.05-2.29-.93-3.23-1.36-3.324-1.665-.11-.373.978-.577 1.724-1.384 0 0-.92.21-1.324-.22 0 0 .447-1.287.79-2.03 2.915 2.643 4.06 6.386 4.816 8.795zm24.544-5.132s-12.873 13.87-19.247 20.75l6.228.093.29 37.555c2.17.29 5.938.006 7.36 1.45.887 1.31-2.54 3.882-4.463 3.342-1.285-.348-2.873-.072-2.873-.072l.13 41.847c-4.11-7.63-7.25-12.457-11.8-25.704 1.317-.917 2.673-1.624 2.9-1.78-1.75-4.217-2.96-10.85-.52-16.628l1.684 1.003c-1.232 3.527-1.69 8.743.33 13.563l.464-.48s-.5-.96-.82-2.02c-.286-.946-.697-2.17-.7-3.432-.08-2.24-.01-4.166.517-5.964.18-.587.44-1.46.577-1.73.138-.27.27-.52.268-.593-4.952-2.006-8.502-4.94-12.772-7.04-.16-.08-.296-.147-.404-.207-.54-.3-.4-.407.447-.74 1.785-.71 2.51-1.57 2.47-3.3-.054-2.464-1.37-3.42-4.246-3.26-1.043.06-1.11.044-1.3-.313-.432-.838-1.934-4.156-1.936-4.288 0-.08-.313-.823-.696-1.66-.59-1.33-1.272-2.7-1.55-4.09-.14-.69-.54-.964-.644-.25-.76 5.295-1.46 8.09-2.83 11.273-.407.948-.715 1.745-.683 1.774.133.115 2.423 1.18 3.495 1.62 4.185 1.72 6.087 2.783 5.44 3.04-.45.18-.61.49-.724 1.38-.3 2.33-.266 3.523.124 4.26.41.774.4.83-.27 1.265-.583.38-.458.38-.615 2.33-.188 2.31-.06 3.78-.06 3.78l1.04 1.34-1.06 1.317-.243 6.056 1.43 1.085-1.338 1.32.477 5.524s-.176.51-.407.762c2.267 23.353 11.02 46.89 24.13 62.93l.13 38.363 12.85 12.855zm-1.006 2.47v3.023l-10.91 11.75 10.91.19v2.563l-16.75-.032zm-.168 5.132l.028 8.468-8.156.01zM17.326 50.34c-6.814.258-5.7 7.938-2.748 10.213 1.79 1.657 1.81 1.782-.393.533-4.008-2.605-8.246-.79-8.368 3.58-.215 7.064 8.117 7.644 9.833 1.76.136-.774.83-1.727.778-.282-.112 2.376-3.122 8.29-3.365 8.214h7.604c-.565-1.41-2.476-5.03-2.516-7.94.05-2.02.54-.702.83.305 1.7 5.994 9.92 5.02 10.17-1.267.104-4.573-4.253-7.345-7.844-4.64-2.043 1.43-2.063 1.066-.422-.74 3.726-3.82 1.637-9.932-3.547-9.735zm97.432.85l1.7-.07c-.067 1.707-.743 9.59-1.552 16.49-.912 7.782-2.778 14.495-3.135 14.495l-1.64-.996c2.72-8.93 3.45-20.42 4.63-29.92zm7.715-.243c-.24 4.818-1.25 8.188-1.558 13.884-.382 6.96-1.577 15.62-4.707 22.81-1.055 2.42-3.003 4.69-5.735 5.768-4.792 1.88-8.86-4.06-5.62-8.43 2.56-3.45 6.568-3.406 7.785.087 1.005 2.887-2.225 6.51-4.803 5.386-1.79-.783-1.335-4.01.678-4.77.834-.314 1.54.744 1.128 1.693-.32.747-.35 1.215.08.897 1.82-1.285.45-4.34-1.8-3.198-3.012 1.524-2.505 6.007.53 6.203 3.84.378 6.807-4.354 8.704-13.34 2.08-10.054 1.565-19.056 3.56-26.95zm-4.91.17l2.02-.06c-.16.745-.19 1.54-.328 2.454-.796 5.28-1.267 12.98-2.082 19.01-1.152 8.52-3.214 13.69-3.267 13.06-.23-1.03-.883-1.87-1.383-2.68 2.082-5.66 2.922-10.812 3.456-15.664.62-5.67.8-10.927 1.58-16.11zm-8.632.487l1.78-.09c-.69 11.288-2.342 21.522-3.32 25.915-.3 1.32-.403 1.89-.654 2-.28.12-.743-.327-1.872-.954 1.72.243 3.098-19.194 4.078-26.88zm2.77-.162l1.927-.188c-.286 4.08-.974 10.497-1.746 16.282-.933 6.994-2.155 13.192-2.763 13.1l-1.604-.556c1.073.336 3.716-20.53 4.19-28.638zm-3.65.2c-1.254 8.545-1.374 18.53-3.98 26.51l-1.8-.838c.494.16 1.775-5.192 2.21-11.25.377-5.272 1.33-11.008 1.61-14.186zm-2.97.313c-.714 3.017-.714 7.464-1.25 11.174-.665 4.59-1.373 13.92-2.436 13.7l-1.84-.93c.966.29 2.65-17.387 3.674-23.66zm-4.842.748l1.868-.253c-.9 6.9-2.524 22.99-3.486 23.11l-1.75-.93c.68-2.827 2.41-12.436 3.37-21.927zm-1.16.27c-.774 7.584-1.5 15.264-3.117 21.162l-1.915-.863s1.33-6.487 1.96-11.044c.623-4.497.718-5.138.916-6.31.437-2.584.558-2.68.558-2.68zm82.043 7.773l-.184 36.42-2.124-.08.088-36.397zm5.016.288c.8 0 1.45.648 1.45 1.45 0 .802-.65 1.456-1.45 1.456-.802 0-1.45-.654-1.45-1.456 0-.802.648-1.45 1.45-1.45zM151.92 74.4c1.503 2.75 2.656 3.757 3.98 4.283 2.39.95 5.686-1.39 4.487-4.66-.63-1.72-2.234-1.976-4.26-1.633 0 0-.878-.62-1.906-3.738-1.21-3.69-3.13-7.485-3.13-7.485-.12 4.628-1.2 9.446.83 13.232zm36.354-9.986c.802 0 1.455.65 1.455 1.45 0 .803-.65 1.45-1.46 1.45-.8 0-1.45-.647-1.45-1.45 0-.8.65-1.45 1.45-1.45zm-3.983.057c.81 0 1.45.65 1.45 1.46 0 .8-.64 1.456-1.45 1.456-.8 0-1.45-.653-1.45-1.455s.656-1.45 1.457-1.45zm-32.54-.34c1.35 2.795 1.63 4.898 2.94 7.428.57 1.105 1.085 2.05 1.085 2.05 4.27-2.005 5.91 3.05 2.45 4.66-3.406 1.59-7.24-4.445-6.87-10.943.105-1.79.4-3.193.4-3.193zm34.458 3.77c.802 0 1.45.65 1.45 1.45 0 .8-.648 1.458-1.45 1.458-.802 0-1.45-.652-1.45-1.454s.648-1.45 1.45-1.45zm3.844 2.73v3.104l-7.585 7.36v-3.01zm-99.73 2.39c1.45.02 2.144.45 1.184.83-3.183 1.264-4.6 3.28-4.773 6.803-.01 1.78.205 2.014-.89 1.02-2.8-3.917 1.233-8.677 4.48-8.653zm2.66 1.274c.354-.014.704.03 1.05.14.857.27.54.29-.895 1.244-2.742 1.82-3.577 3.603-3.7 7.248-.033.55.08 1.007.033 1.237-.038.175-.25.118-.378.11-.528-.085-.85-.64-1-1.107-1.74-3.473 1.474-8.744 4.89-8.873zm2.97 1.205c.238-.004.444.033.61.117.67.336.426.384-.803 1.26-2.18 1.555-3.26 3.84-3.513 6.39-.163 1.638 1.1 3.585-1.135 1.98-1.577-1.303-1.26-4.693.404-7.02 1.028-1.433 3.158-2.712 4.432-2.73zm94.1-.71v3.532l-7.586 7.207V81.9zm-91.667 1.84c.862.01 1.248.56.242 1.194-2.456 1.544-3.932 4.49-3.788 7.56.14 1.857.21 2.19-.98.96C91.95 84.368 93.3 79 97 76.99c.504-.26.99-.37 1.385-.37zm2.513 1.03c1.41-.036 1.61.68.34 1.562-2.41 1.684-4.024 4.653-3.985 7.352.018 1.253-.08 1.41-.636.985-2.788-2.13.2-9.56 3.98-9.888.103-.01.202-.018.3-.02zm49.88.23c.34.025.96 1.252 1.93 3.82.933 2.478 2.442 5.6 2.762 5.718.1.036.524-.11.944-.332 3.182-1.67 5.422 3.07 2.285 4.83-2.23 1.255-4.337-.09-6.28-4.014-2.29-4.627-2.92-8.062-1.81-9.914.044-.077.1-.113.164-.11zm-47.298 1.26c.384-.017.755.056 1.105.237.824.43.704.745-.56 1.486-1.3.766-1.815 1.244-2.564 2.377-1.167 1.766-1.363 2.445-1.365 4.722 0 1.854-.55 1.956-1.66.307-1.91-2.84 1.92-8.99 5.045-9.13zm3.177 1.664c1.25-.026 2.072.484.876 1.116-3.804 2.01-5.403 4.896-4.675 8.447.23 1.115-1.04.17-1.812-1.344-1.13-2.216.95-6.498 3.79-7.805.594-.273 1.252-.4 1.82-.412zm42.93 3.268c.237.018.513.65 1.122 2.21.396 1.016.93 2.233 1.185 2.703.255.47.434.91.392.98-.214.357-1.977-.25-2.57-.886-.915-.986-1.205-3.18-.587-4.44.18-.37.31-.58.454-.57zm36.533 2.68c.802 0 1.45.65 1.45 1.45 0 .8-.648 1.456-1.45 1.456-.802 0-1.45-.654-1.45-1.456 0-.8.648-1.45 1.45-1.45zm-148.9 2.34c.8 0 1.45.655 1.45 1.457s-.65 1.45-1.45 1.45c-.803 0-1.452-.65-1.452-1.45 0-.805.65-1.458 1.45-1.458zm59.987.438c1.587-.056 2.077.693 2.344 3.1.184 1.653.54 1.807 3.14 1.37 2.744-.46 3.66.284 3.86 3.125.155 2.253.136 2.235 3.257 2.256 3.073.02 3.403.33 3.756 3.48.262 2.34.174 2.275 3.195 2.235 3.35-.045 3.65.2 3.877 3.16.183 2.4.342 2.554 2.455 2.38 2.07-.17 5.89-.19 6.605-.033 1.78.388 1.854.315 2.237-2.086.507-3.163 1.13-3.56 5.02-3.17 1.91.194 2.13.155 2.4-1.526.363-2.242.81-2.898.813-.957.002 4.906-.338 5.135-3.612 4.26-2.457-.653-2.497-.15-2.754 2.218-.228 2.087-.58 2.943-1.348 3.277-.595.26-2.6.036-3.41-.19-.303-.09-2.21-.135-4.473-.11-5.447.056-5.505.07-5.5-3.756 0-1.61-.354-1.955-3.204-1.87-3.576.108-3.388.204-3.996-4.09-.21-1.487-.33-1.544-3.29-1.502-3.222.048-3.96.095-3.77-2.623.177-2.47-.43-3.12-3.12-2.492-2.862.667-3.41-.55-3.69-2.758-.26-2.048-.432-1.536-1.8-1.64-1.516-.12-1.34-1.826.27-1.984.275-.025.52-.06.75-.07zm91.158.744c.802 0 1.45.65 1.45 1.45 0 .804-.648 1.45-1.45 1.45-.8 0-1.45-.65-1.45-1.45 0-.8.65-1.45 1.45-1.45zm-4.087.08c.8 0 1.45.655 1.45 1.457s-.65 1.45-1.45 1.45c-.803 0-1.45-.65-1.45-1.45 0-.8.647-1.453 1.45-1.453zM39.4 92.78c.8 0 1.453.647 1.453 1.45 0 .8-.653 1.45-1.455 1.45s-1.45-.65-1.45-1.45c0-.803.648-1.45 1.45-1.45zm-4.08.03c.8 0 1.45.65 1.45 1.45 0 .804-.65 1.45-1.45 1.45-.8 0-1.45-.646-1.45-1.45 0-.8.65-1.45 1.45-1.45zm75.87 1.237l15.094 11.263 14.286-9.56-.087 3.486-14.186 9.432s-12.07-9.347-17.906-13.86zm75.123.167c.802 0 1.45.656 1.45 1.458s-.648 1.45-1.45 1.45c-.803 0-1.45-.647-1.45-1.45 0-.8.647-1.455 1.45-1.455zm-24.723 1.904l3.58 5.817-3.574 2.594 3.255 4.16-3.5 3.59 3.855 2.45-3.606 5.02-4.99 2.22 4.99-6.56-4.13-2.84 3.917-4.22-3.514-4.61 3.64-2.84-3.94-6.457.26-.31zM95.418 94.83l26.52 19.84s2.45 1.843 3.153 2.29c1.49.942 1.79.565 3.28-.455 3.35-1.99 11.466-7.51 11.466-7.51l-.065 2.857s-8.16 6.106-12.676 8.64c-.64.353-1.33.018-1.81-.347-9.85-7.8-19.93-15.365-29.916-23.008zm60.943.315c.12.2.47.272.65.54 1.176 1.818 3.306 5.05 3.306 5.05l-3.73 2.96 3.425 4.495-4.28 4.346 4.37 2.975s-2.713 4.16-4.765 6.06l-.05-3.23 1.753-2.11-2.01-1.38-.006-4.438 2.047-2.155-1.87-1.892.33-4.852 1.787-1.412-1.474-2.02zm-119.08.99c.8 0 1.46.65 1.46 1.45 0 .802-.652 1.45-1.454 1.45-.8 0-1.45-.648-1.45-1.45 0-.8.65-1.45 1.45-1.45zm152.48 5.292l-7.38 6.82v-3.098l7.38-7.25zM41.5 98.097v3.737l-7.878 7.275v-3.61zm148.265 4.285v3.71l-7.38 6.934v-3.674zm-8.682.584l.154 120.595 8.568 9.07.007 3.01-10.84-11.23-.25-121.336zm-139.583-.36v4.2l-7.878 7.187v-3.95zm53.902.77l10.42 8.113-.044 28.27c-4.22-3.174-7.607-5.066-10.81-6.674zm90.93 9.147c.803 0 1.45.65 1.45 1.452 0 .802-.647 1.45-1.45 1.45-.802 0-1.455-.648-1.455-1.45 0-.802.655-1.45 1.457-1.45zm-77.374 1.384l.04 28.854-2.054-1.87-.12-28.613zm-71.162.277c.804 0 1.453.65 1.453 1.45 0 .803-.65 1.457-1.45 1.457-.807 0-1.46-.65-1.46-1.45 0-.8.652-1.45 1.454-1.45zm150.477 2.058c.803 0 1.45.65 1.45 1.45 0 .803-.647 1.456-1.45 1.456-.8 0-1.45-.653-1.45-1.455 0-.803.65-1.452 1.45-1.452zm-4.133.18c.802 0 1.45.65 1.45 1.45 0 .803-.648 1.452-1.45 1.452-.802 0-1.45-.65-1.45-1.45 0-.803.648-1.452 1.45-1.452zm-74.014-.14l6.354 5.943-6.547 6.212-.054-2.867 3.64-3.513-3.66-3.797zm2.42.525l5.297 3.912-.83 1zm-72.6.876c.802 0 1.45.648 1.45 1.45 0 .802-.648 1.45-1.45 1.45-.8 0-1.45-.648-1.45-1.45 0-.802.65-1.45 1.45-1.45zm-4.253.07c.8 0 1.45.654 1.45 1.456 0 .8-.65 1.45-1.45 1.45-.803 0-1.45-.65-1.45-1.45 0-.81.647-1.46 1.45-1.46zm104.162.527c1.02 11.544 1.726 19.534 4.71 30.42l-13.71 8.766.123-33.436zm37.782 26.415l-.054 39.647c-12.94-18.412-19.916-39.933-22.16-60.33 0 0 6.944-3.2 10.317-5.162 3.572 8.372 2.03 8.362 11.896 25.844zm8.87-24.737c.8 0 1.45.654 1.45 1.456 0 .802-.65 1.45-1.45 1.45-.803 0-1.452-.648-1.452-1.45 0-.8.65-1.455 1.45-1.455zm-148.656 1.56c.806 0 1.45.65 1.45 1.45 0 .803-.644 1.456-1.45 1.456-.8 0-1.45-.652-1.45-1.454 0-.802.65-1.45 1.45-1.45zm80.89-.134l5.04 3.844.01 2.914-6.02-5.793zm-1.72 1.54l6.296 6.223-6.6 6.586-6.51-6.17zm47.405.218l-6.074 2.49c2.323 21.038 8.347 36.81 16.47 49.593l.185-29.51c-4.19-6.637-7.366-14.632-10.582-22.572zm25.515.434v3.31l-7.557 6.93v-3.296zm-72.93 1.82l-4.01 3.917 4.04 3.906 3.887-3.91zm-75.516-.432v3.52l-7.5 7.244v-3.742zm84.47 1.972l.06 33.674-1.667.79.116-35.18zm-9.028.51l1.82 1.83-1.902 1.915-1.792-1.83zm73.007.35v3.818l-7.557 7.056-.125-3.64zm-83.61 14.314c7.797 6.746 13.79 16.99 20.366 22.713 2.66 2.305 9.164 5.905 12.675 7.01 3.99 1.26 7.097 1.775 11.103 1.846 3.162.05 3.176.07 3.176.07l1.34 2.38-2.215-.03-.15 8.4c2.346.113 4.64-.016 6.91-.297l.82 1.53c-16.13 2.187-31.898-3.925-41.38-11.735-4.324-3.555-7.838-7.896-12.116-14.216-8.233-12.84-22.734-19.04-36.238-19.186l-1.12-1.74 2.255.074s.23-1.615.26-4.36c.034-3.09.015-3.634-.227-3.723-1.634-.19-6.566-.09-6.42.12l-1.016-1.815c16.1-1.66 31.943 3.945 41.97 12.945zm-64.837-12.68v3.454l-7.5 7.076v-3.457zm82.458.295l-.197 3.086-3.577 3.54 3.803 3.7-.09 2.58-6.71-6.22zm-49 1.098c-.345 0-.553.03-.593.095-.086.15-.04 1.475-.33 6.272-.11 1.758-.23 1.765 1.246 1.943 1.24.042 4.007.75 5.85.968 1.55.21 1.228-.26 1.665-1.5.476-1.354.735-2.56 1.327-4.5.542-1.77.293-1.83-3.202-2.48-2.416-.45-4.924-.79-5.96-.79zm34.894-.294l6.072 6.05-5.98 6.07-.11-2.935c1.153-1.025 2.527-2.193 3.54-3.35l-3.52-3.598zm-30.45 1.96l.653 1.07 1.566.253-.272 1.09.79 1.125-.98.735.035 1.358-1.226-.042-1.064.764-.843-1.07-1.226-.04.067-1.52-.794-.672.95-.85-.12-1.35 1.51.255zm-9.86 1.82l.966.632-.98.675-.04 1.037-.6.51-2.203-4.31 1.435.58 1.094-.726zm17.676-.998c-.77.012-.87 1.437-1.7 4.13-1.164 3.76-1.25 3.413.986 4.197.992.35 2.895.99 3.9 1.464 2.45 1.152 2.464 1.15 3.38-.417.406-.695 1.176-2.4 1.716-3.284 1.345-2.206 1.38-2.1-1.09-3.29-1.455-.7-2.336-.987-5.394-2.227-.85-.346-1.392-.58-1.796-.575zm2.45 2.493l1.07.67 1.207-.5.24 1.294 1.32.51-.374 1.274.58.953-1.12.22-.82 1.766-1.23-.863-1.305.47-.363-.97-1.332-.644.485-1.07-.67-1.44 1.53-.12zm26.925 1.323l6.7 6.567-6.1 6.117-6.7-6.59zm69.916 1.196c.803 0 1.45.65 1.45 1.45 0 .802-.647 1.45-1.45 1.45-.8 0-1.45-.65-1.45-1.45 0-.802.65-1.45 1.45-1.45zm-87.814.32c-.39.003-.61.36-.95 1.05-.14.29-.97 1.836-1.734 3.033-1.723 2.7-1.724 2.56-.004 3.617.73.45 2.41 1.83 3.853 3.136 1.333 1.206 1.19.92 4.065-1.957 1.876-1.877 3.033-2.405 2.302-3.394-1.78-1.524-3.237-2.638-5.165-4.095-1.275-.95-1.93-1.4-2.37-1.397zm18.21.732l-3.954 3.87 4.455 4.036 3.694-3.792zm-67.71-1.318l.044 30.295c4.347 7.433 8.81 14.933 11.13 23.296l6.378-3.123c-3.05-24.75-10.145-38.473-17.55-50.465zm-11.35 1.9c.8 0 1.45.65 1.45 1.45 0 .804-.65 1.453-1.45 1.453-.803 0-1.45-.65-1.45-1.45 0-.803.65-1.452 1.45-1.452zm79.107 1.618l1.903 1.75-1.753 1.905-1.922-1.99zm71.33.285c.8 0 1.457.647 1.457 1.45 0 .8-.653 1.45-1.455 1.45s-1.45-.65-1.45-1.45c0-.803.648-1.45 1.45-1.45zm-3.895.146c.8 0 1.455.65 1.455 1.45 0 .802-.652 1.45-1.454 1.45-.803 0-1.452-.648-1.452-1.45 0-.8.65-1.45 1.45-1.45zm-84.8-.095l1.103.82 1.292-.557.093 1.526 1.178.58-.74 1.08.448 1.42-1.274.042-.992 1.3-.89-.856-1.734.112-.274-1.48-.75-.59.585-.98-.425-1.307 1.485-.1zm-63.88 1.618c.803 0 1.45.65 1.45 1.45 0 .804-.647 1.453-1.45 1.453-.8 0-1.45-.65-1.45-1.45 0-.802.65-1.45 1.45-1.45zm4.178.044c.803 0 1.45.654 1.45 1.456 0 .8-.647 1.45-1.45 1.45-.8 0-1.45-.65-1.45-1.45 0-.803.65-1.457 1.45-1.457zm84.03 3.46l-3.46 3.233 3.41 3.554-.103 2.724-6.05-6.037 6.15-6.04zm-34.217-.7L76.7 154.96l-.79-2.156 11.58-7.583zm96.618-.7c.804 0 1.45.652 1.45 1.454s-.646 1.45-1.45 1.45c-.8 0-1.45-.648-1.45-1.45 0-.802.65-1.455 1.45-1.455zm-77.87.875c-.6.043-1.212.753-2.38 1.99-1.14 1.217-2.49 2.645-2.78 2.85-.9.633-.856.786.713 2.55.476.534 1.376 1.63 2 2.43.623.804 1.617 1.81 1.814 2.02.64.666.99.526 3.918-1.576 3.56-2.552 3.542-2.174.272-6.395-1.88-2.43-2.78-3.923-3.552-3.868zm-70.646.893c.802 0 1.45.65 1.45 1.45 0 .802-.65 1.45-1.45 1.45-.8 0-1.455-.65-1.455-1.45 0-.802.653-1.45 1.455-1.45zm76.18.525l2.346 2.52-.21.25zm75.88.56v4.364l-7.23 6.68v-3.99zm-80.97 1.276l.874 1.21 1.49-.097-.22 1.425.79.58-.77 1.08-.063 1.36-1.23-.292-1.01 1.212-.99-1.16-1.167.136.04-1.415-1.195-.677.842-.92.026-1.584 1.734-.068zm35.77.09l.72 2.2-18.078 11.76-1.58-1.812zm-47.327 1.473l1.44 1.084-18.975 12.2-.573-1.59zm-55.495-.467v3.626L33.83 162.2v-3.748zm75.13.87l.23-.19 6.205 5.955-1.17 1.25zm-17.135 1.747l.17 35.186-1.653-1.147.125-33.383zm1.02.814l1.347 1.188-1.29 1.26zm89-.3v3.57l-7.23 6.867v-3.73zm-148.02 1.72v3.353l-8.004 7.65v-3.385zm74.597.456c-.21 0-.43.13-.76.39-.297.234-1.025.74-1.617 1.125-2.177 1.416-4.023 2.74-4.104 2.938-.168.405 2.016 3.256 5.05 6.674 1.192 1.343 1.16 1.603 2.356.407.953-1.08 4.44-4.038 4.34-4.83-.194-.905-1.39-1.935-4.367-5.96-.395-.504-.63-.737-.895-.74zm-13.44.37l4.755 6.81-.634.63-5.84-5.76zm-9.3.803l.01 32.826-8.935 6.344c.163.086-1.097-19.723-4.513-30.287zm22.21 1.156l.87 1.632 1.324-.224-.173 1.5 1.124.88-1.102 1.524.15 1.083-1.3-.294-1.184 1.225-.812-1.557-1.705.03.24-1.497-1.193-1 1.3-.768.18-1.366 1.12.095zm7.75.253l.144 1.34-.796-.69zm-22.84 2.382l-.012-1.92 5.695 5.495-5.816 5.45.04-2.587 3.31-3.154zm47.067-1.064l.81 2.45-11.7 7.204-2.36-1.226zm38.544 4.047c.803 0 1.456.65 1.456 1.45 0 .804-.654 1.458-1.456 1.458s-1.45-.655-1.45-1.457.65-1.45 1.45-1.45zm-74.466 4.724l-4.11-4.114.514-.56zm10.59-3.7c-1.394 1.193-4.367 4.63-4.36 5.195.003.563 4.115 4.12 6.59 5.696.775.495 1.083.51 1.383.06 4.274-6.38 4.455-6.166 2.764-7.41-1.72-1.316-3.73-3.273-5.1-3.946-.58-.283-.68-.108-1.276.406zm-15.407.313l6.777 6.5-6.285 6.06-6.524-6.88zm-69.19.49c.802 0 1.45.65 1.45 1.453 0 .8-.648 1.45-1.45 1.45-.8 0-1.45-.65-1.45-1.45 0-.803.65-1.452 1.45-1.452zm85.62 1.308l1.14 1.015 1.36-.356.305 1.342 1.31.483-.702 1.365.1 1.72-1.32-.245-.915 1.41-1.34-1.35-1.538.13.085-1.507-1.358-.656.862-.99-.54-1.354 1.626.257zm64.784.604c.802 0 1.45.65 1.45 1.45 0 .803-.648 1.452-1.45 1.452-.8 0-1.455-.65-1.455-1.45 0-.805.653-1.454 1.454-1.454zm-84.77 3.425l4.01 4.106 3.69-3.54-3.912-4.13zm80.77-3.367c.8 0 1.45.65 1.45 1.45 0 .803-.65 1.457-1.45 1.457-.803 0-1.45-.653-1.45-1.455s.65-1.45 1.45-1.45zm-148.4 1.515c.802 0 1.45.653 1.45 1.455s-.65 1.45-1.45 1.45c-.8 0-1.45-.648-1.45-1.45 0-.802.648-1.455 1.45-1.455zm4.253.014c.802 0 1.45.66 1.45 1.46 0 .8-.648 1.45-1.45 1.45-.802 0-1.45-.65-1.45-1.45 0-.8.648-1.455 1.45-1.455zm67.188.33l1.826 1.88-1.69 1.78-1.887-1.94zm24.79 1.29c-.933.67-3.472 5.48-3.91 6.536.006.255 1.228 1.03 2.757 1.745 1.3.61 5.53 2.305 5.92 2.4.85.206.995-.117 1.14-.67.072-.293.41-1.41.782-2.626 1.31-4.256 1.703-4.055-.247-4.7-.673-.224-2.78-.935-4.11-1.548-1.318-.61-1.913-1.147-2.337-1.14zm54.127.77c.8 0 1.45.65 1.45 1.45 0 .802-.653 1.456-1.455 1.456-.803 0-1.45-.654-1.45-1.456 0-.8.647-1.45 1.45-1.45zM117 173.82l.224 28.537-2.233-1.747-.06-28.63zm-9.99 4.863l-6.164 6.277-.04-3.198 3.45-3.128-3.515-3.676.077-2.47c2.25 1.84 4.17 4.104 6.194 6.193zm-69.087-5.473c.802 0 1.45.65 1.45 1.45 0 .802-.648 1.456-1.45 1.456-.802 0-1.456-.654-1.456-1.456 0-.802.653-1.45 1.455-1.45zm95.143-.063l1.24 1.038 1.043-.626.6 1.06 1.49.21-.67 1.63.88 1.26-1.46.27-.36 1.74-1.43-.85-1.088.47-.79-1.47-1.693-.07.925-1.6-.87-1.264 1.226-.08zm-19.03.114l-.01 2.52-2.682 2.72 2.69 2.93-.014 2.927-5.575-5.675zm28.6 1.658c-.56.02-.564.61-.995 2.54-.09.42-.39 1.54-.66 2.496-.81 2.89-.91 2.944 1.598 3.44 1.45.218 7.732 1.68 7.86.68.16-1.7.26-5.705.282-7.066.054-.457-.053-.887-.51-.94-2.863-.344-6.048-1.095-7.57-1.148zm-24.466.125c3.568 2.435 7.02 4.916 11.12 7.14l.103 29.345-11.247-8.377zm71.587.084v3.598l-7.497 7.16v-3.436zm-43.92 1.25l.65 1.39 1.364-.454-.002 1.66 1.217.77-1.466.676-.13 2.023-1.487-.46-1.226.76-1.083-1.14-1.33-.026.488-1.8-.856-.82 1.248-.612.102-1.603 1.33.796zm-103.85-.27v3.47l-8.164 7.51v-3.03zm114.07 2.175l1.83 3.096-.66 1.25-1.23-.6-1.35.5.21-1.655-1.04-.83 1.05-.965-.047-1.217zm-48.345 1.02l6.258 6.485-6.374 6.583-6.257-6.576zm82.045 4.06l-7.498 6.964v-3.388l7.49-7.11zm-147.77-2.84v3.386l-8.163 7.648v-3.135zm65.74 1.21l-4.064 4.024 4.03 4.046 4.072-3.948zm.055 2.308l1.74 1.786-1.663 1.728-1.8-1.744zm-6.98 2.47l6.206 6.372-.712.84-5.5-4.27zm13.32.518l.165 2.875-3.386 2.883 3.1 3.243.086 2.986-5.88-6.054zm72.298 2.918c.803 0 1.45.65 1.45 1.45 0 .803-.647 1.452-1.45 1.452-.802 0-1.45-.65-1.45-1.45 0-.803.648-1.452 1.45-1.452zm-148.32 1.75c.8 0 1.45.65 1.45 1.45 0 .803-.65 1.457-1.45 1.457-.803 0-1.452-.654-1.452-1.456 0-.802.65-1.45 1.45-1.45zm29.706.89l-4.578 6.846 3.607 2.418-3.416 4.592 3.55 4.275-3.58 3.07 3.63 6.216c-1.446-.286-2.91-1.248-4.24-1.916l-2.74-5.208 3.15-2.71-3.19-3.71 3.35-3.97-3.36-2.36 3.666-5.637zm120.35.912c.803 0 1.452.65 1.452 1.45 0 .803-.65 1.45-1.45 1.45-.803 0-1.45-.647-1.45-1.45 0-.8.647-1.45 1.45-1.45zm-90.04-.113l31.6 24.355-.13 3.232-31.607-24.29-13.42 9.475.12-3.448zm86.173.307c.8 0 1.45.65 1.45 1.45 0 .803-.65 1.452-1.45 1.452-.81 0-1.46-.65-1.46-1.45 0-.803.65-1.452 1.45-1.452zm-73.55 3.11l-.34.063-3.45-2.517.75-.846s2.26 2.496 3.03 3.3zm-70.5-1.402c.8 0 1.452.653 1.452 1.455 0 .8-.653 1.45-1.455 1.45s-1.45-.65-1.45-1.45c0-.802.647-1.456 1.45-1.456zm-3.915.018c.803 0 1.457.65 1.457 1.45 0 .803-.654 1.45-1.456 1.45-.8 0-1.45-.647-1.45-1.45 0-.8.65-1.45 1.45-1.45zm150.088 1.915c.803 0 1.45.654 1.45 1.456 0 .8-.647 1.45-1.45 1.45-.8 0-1.45-.65-1.45-1.45 0-.81.65-1.46 1.45-1.46zm-148.33 1.607c.8 0 1.45.654 1.45 1.456 0 .802-.65 1.45-1.45 1.45-.803 0-1.45-.648-1.45-1.45 0-.802.647-1.455 1.45-1.455zm151.673 2.703v3.204l-7.09 6.868v-3.093zm-95.65.962c1.05-.01 2.462.044 4.362.11 1.626.055 3.426.09 3.996.075 2.253-.06 2.99.705 3.03 3.14.036 2.162.027 2.156 2.86 2.275 3.412.143 4.315 1.02 4.36 4.243.02 1.255 1.033 1.747 3.02 1.465 3.134-.445 3.743-.015 4.107 2.896.3 2.43.14 2.3 3.01 2.28 3.084-.02 3.773.492 3.81 2.87.02 1.38.356 1.792 1.55 1.9 1.275.115 1.824.77 1.194 1.42-.113.12-.703.19-1.634.202-1.968.03-2.617-.59-2.983-2.845-.256-1.566-.415-1.647-3.03-1.574-3.337.093-3.597-.11-3.96-3.02-.31-2.5-.73-2.757-3.6-2.214-2.084.393-3.19-.527-3.46-2.874-.303-2.635-.42-2.73-3.38-2.836-2.965-.104-3.79-.626-3.816-2.41-.04-2.76-.39-3.01-4.035-2.9-1.77.054-3.58.023-4.623-.085-2.21-.23-2.197-.24-2.417 1.88-.33 3.17-.795 3.46-4.99 3.152-1.75-.13-1.874-.05-1.994 1.284-.15 1.67-.77 2.7-1.244 2.07-.248-.328-.25-.36 0-2.8.28-2.734.31-2.754 3.873-2.48 2.412.185 2.296.273 2.554-1.92.312-2.67.263-3.284 3.426-3.315zm-52.008-.25v3.517l-8.28 7.69v-3.41zm25.726 4.133l1.802 2.462-.585 4.577-1.53 1.153 1.084 2.176-.346 2.673-.43.24-3.007-5.84 3.56-3.13-3.644-4.447 3.445-4.645-3.574-2.51 4.296-6.326c.744-.904.788 2.685.788 2.685l-1.78 2.696 1.99 1.718h.005l.01 4.265-2.075 2.242zm2.274-2.073l.194-5.74-1.55-1.202 1.193-1.99-.08-5.085-.36-.247c-2.984-36.39-20.8-57.9-23.59-62.78 0 0-.62-.5-.506-1.75.05-.54.075-3.75.053-7.13-.112-17.25.033-29.07.033-29.07l-13.1-13.96.075 5.11.644.464-.002 23.26-.543.03s-.17 6.253-.125 10.55l.775.02-.045 15.983-.664.08.04 10.355h.72s.17 10.856-.09 16.136l-.533.033.036 10.29.61.05.04 14.722-.75.114.204 9.72.61.034c.22 6.004.116 16.385.116 16.385l-.7.03.173 9.65.5.033-.145 16.94-.456.053.178 10.005.496.047-.08 8.32-.34.06-.08 3.11.36.825.023 11.086-.276.12-.08 5.57 20.312-20.54-7.48-.224.004-6.637c0-10.956.146-19.796-.18-30.48-.1-.097-.84-.215-1.65-.26-3.85-.227-4.896-.54-4.91-1.46-.015-1.145 1.73-2.56 3.178-2.58.326-.006.876-.33.876-.33l-.46-121.55-9.09-9.52.04-3.02 11.2 11.85.42 121.485.424-.2.03-40.798c5.74 8.583 8.96 17.09 12.152 25.597 0 0 1.13-.39 1.176-.413.01-.01-.402-.14-.402-.14-3.258-10.872-7.38-18.754-12.724-26.982l.077-39.54c13.687 19.333 20.303 36.718 23.05 61.776l-6.924 3.46-.677.9-5.23 2.62-.5-.837-3.17 2.198c2.45 4.274 2.36 10.42.36 13.672l.86.533c.06.234 3.287-6.654-.324-13.66l2.362-1.456c3.41 7.045 1.826 14.636.22 16.59 0 0 2.47 1.574 4.24 2.536 1.93 1.046 3.642 2.003 5.952 2.75 1.422.576 2.327-.104 2.322-.12l.692-3.932-1.1-1.5 1.28-1.03.583-6.023-1.374-1.39zm119.653 1.608v3.88l-7.087 6.714V212.8zM42.1 210.18l-8.28 7.6v-3.162l8.28-7.774zm144.836 5.17c.81 0 1.46.653 1.46 1.455s-.65 1.45-1.454 1.45c-.8 0-1.45-.648-1.45-1.45 0-.802.65-1.456 1.45-1.456zM45.41 217.7l.01 35.805-2.186.002.1-36.245zm-7.312-.326c.8 0 1.45.65 1.45 1.45 0 .802-.65 1.45-1.45 1.45-.803 0-1.452-.648-1.452-1.45 0-.8.65-1.45 1.45-1.45zm146.777 1.384c.8 0 1.45.65 1.45 1.45 0 .803-.65 1.456-1.45 1.456-.803 0-1.456-.653-1.456-1.455 0-.81.65-1.46 1.45-1.46zm3.91.062c.803 0 1.452.65 1.452 1.45 0 .802-.65 1.45-1.452 1.45-.802 0-1.456-.648-1.456-1.45 0-.8.65-1.45 1.45-1.45zM40.365 221c.803 0 1.457.654 1.457 1.456 0 .802-.653 1.45-1.455 1.45s-1.45-.648-1.45-1.45c0-.802.648-1.455 1.45-1.455zm74.758.043c7.565.937 5.56 8.872 2.372 10.52-4.342 2.022-7.82-2.05-5.046-6.177 2.03-3.028 5.9-1.025 4.41 2.293-.85 1.87-2.59 1.65-2.58-.24.62-1.8.05-1.16-.438-.53-1.53 1.99 1.556 4.102 3.142 2.14.973-1.21 1.18-2.64.844-3.785-.57-1.954-2.825-3.098-5.377-1.29-3.046 3.66-4.676 8.39-5.58 13.682-1.914 11.263-2.01 23.114-3.66 26.12l-1.79-.044c2.607-12.89 2.62-23.925 5.4-34.088 1.376-5.04 4.887-8.624 8.295-8.613zm-78.725.062c.802 0 1.45.653 1.45 1.455s-.648 1.45-1.45 1.45c-.802 0-1.45-.648-1.45-1.45 0-.802.648-1.455 1.45-1.455zm30.694.2c-1.994.04-4.02 1.69-3.863 3.8.19 2.564 1.7 3.705 4.2 3.448 1.332-.138 1.3-.16 2.2 1.45.81 1.45 2.94 7.636 2.96 8.573-1.03-1.362-3.42-3.89-5.63-3.784-2.38.173-4.38 2.423-2.58 5.61.95 1.56 2.65 1.866 4.38 1.35 2.58 4.018 3.07 8.043 3.89 12.712 0 0 1.02-9.994 1.33-13.982.58-6.11 1.42-10.068 3.78-14.913-1.97-1.14-4.084-2.03-6.207-2.85-.846-.33-1.73-.33-2.568-.88-.578-.39-1.238-.558-1.9-.54zm120.01.814c.803 0 1.452.64 1.452 1.45 0 .8-.65 1.45-1.45 1.45-.803 0-1.45-.658-1.45-1.46s.647-1.45 1.45-1.45zm-115.922 3.2c1.493 2.43 2.95 5.93 3.08 8.14.05 1.46-.238 3.252-.486 4.93-.122.83-.435.02-1.002-1.77-2.35-7.437-2.972-8.86-4.607-8.49-.93.21-1.898.248-2.532-.102-2.07-1.14-2.26-4.97.764-5.704 2.39-.52 3.93 1.603 4.783 2.99zm-.055-1.85c3.014 1.183 4.94 2.973 4.39 5.89-.242 1.09-.404 1.993-.697 1.88-.34-.138-.806-1.45-1.742-3.71-.213-.73-2.36-4.05-1.95-4.06zm49.884.122c.16-.02.4.128.75.447 2.37 2.34 1.08 7.613-2.08 9.132-1.31.895-3.7.75-3.72-.12-.006-.336.07-.427.403-.432 2.66.02 5.492-3.68 4.71-7.62-.1-.59-.28-1.38-.07-1.41zm-82.85 1.28c.8 0 1.45.65 1.45 1.453s-.65 1.456-1.45 1.456c-.806 0-1.46-.655-1.46-1.457s.654-1.45 1.456-1.45zm85.34.448c.166-.025.742.223 1.125.684 2.24 2.7.42 7.295-3.098 8.87-1.345.727-2.477.226-2.19-.52 2.395-.997 4.657-3.57 4.42-7.09-.09-1.235-.503-1.906-.26-1.943zm-47.457.49l.815.387-.337.705c-.16-.42-.155-.587-.48-1.09zm50.002.29c.177-.002.576-.06.954.306 1.45 1.406 1.677 5.35.286 7.3-.65.913-2.675 2.574-3.28 2.74-.7.09-1.19.192-2.36-.34-.393-.013.175-.383.914-.81 2.62-1.51 4.36-4.21 3.906-6.746-.28-1.57-.756-2.44-.415-2.45zm2.654 1.275c.694.06 1.232.67 1.562 1.186 1.72 2.47.29 7.67-3.23 8.748-2.346.716-3.22.04-1.32-1.07 2.726-1.59 4.14-4.7 3.353-7.17-.378-1.18-.736-1.67-.366-1.695zm2.84 1.81c.82.01 1.455.64 1.744 1.286.68 1.596.572 3.83-.313 5.406-.883 1.57-2.57 2.874-4.444 3.065-.49.046-.916-.026-1.285-.186-.823-.355-.54-.407 1.01-1.218 2.47-1.29 3.93-3.978 3.555-6.94-.14-1.115-.587-1.41-.268-1.414zm-89.44-.54v3.83l-8.06 7.61v-3.744zm68.485.494c.153.16 1.064 2.33 1.18 2.78-1.89 2.714-2.424 7.17-2.716 10.546-1.065 9.57-2.17 21.122-2.656 21.23l-2.1.045c.8.53 1.826-15.87 3.453-26.257.126-.816 1.868-8.834 2.838-8.348zm24.384 1.694c2.77 1.873 1.29 7.72-2.56 9.166-1.397.536-1.91.605-2.543-.01-.4-.39-.78-.52.237-.88 2.848-.74 4.858-3.4 4.378-6.485-.057-.75-.764-2.733.49-1.792zm19.18.497c3.28 3.893 5.594 9.77 6.377 13.99.375 2.11.57 4.093.4 4.563-.304.833-.774.668-1.06-.322-2.676-12.81-16.696-13.24-21.1-2.345-4.028 10.49 7.26 19.975 15.7 13.12 1.18-.957 1.588-1.287 1.92-.896.22.255-.326 1.002-1.373 1.875-9.62 8.905-1 19.26 8.087 18.74 10.77-.61 14.445-13.445 5.48-19.7-.594-.464-.967-.65-.934-.977.07-.687.553-.59 1.645.33 8.66 7.725 19.37-.64 17.823-9.67-2.624-15.33-19.556-11.464-22.14-.735-.42 1.32-1.12 1.516-1.14.265-.012-.863.092-1.87.292-2.964.66-6.007 6.622-15.266 6.622-15.266zm-41.574 1.12l1.26.81c-1.357 4.05-1.86 8.824-2.414 13.446-.674 5.59-1.266 11.345-2.08 16.834l-1.927.07c1.005-3.392 1.47-12.867 2.465-20.805.58-4.017 1.216-9.542 2.697-10.352zm2.187 1.325l1.614.936c-.57 2.26-1.243 4.734-1.576 7.104-.74 5.267-1.032 11.656-2.74 21.49l-1.743.147c.44-3.156 1.27-10.19 1.98-16.66.824-7.514 2.12-13.2 2.467-13.015zm-72.66-.253v3.76l-8.06 7.422v-3.465zm75.39 1.443s1.39.783 1.565.874c-1.05 4.15-1.56 8.01-2.08 11.77-.697 5.08-1.215 10.016-2.176 15.594l-1.864.116c.93-4.275 1.99-14.325 2.82-21.412.487-4.114 1.488-7.02 1.73-6.94zm-44.373 8.45c.027 2.837-.594 7.23-.594 7.23-.243.14-1.004-6.435-3.66-9.41-3.238 1.54-6.03-2.074-3.823-4.56 4.31-3.704 8.08 4.21 8.083 6.74zm46.8-7.316l2.256 1.04c-.275-.05-.806 1.504-1.325 3.925-1.58 7.375-3.143 21.91-3.4 21.905l-1.736.146c.563-3.905 1.336-10.073 2.145-15.53.915-6.182 1.77-11.45 2.065-11.483zm3.13 1.415l1.715 1.03c-.15-.11-.768 1.72-1.07 2.996-1.54 7.36-2.236 13.81-3.19 20.945l-1.865.242c-.14.205 1.61-14.045 3.057-21.24.494-2.46 1.22-4.056 1.358-3.97zm2.67 1.28l1.837.906c-1.994 5.647-2.18 11.047-4.09 22.378l-1.94.35c.78-7.254 1.89-15.045 3.478-22.145.22-.955.696-1.47.716-1.49zm77.306.276c1.546 2.12 2.436 4.91 2.71 7.46.088.875.02 1.46-.263 1.466-.237.003-.356-.18-.564-.9-1.056-5.44-7.968-5.698-9.64-.736-1.875 4.83 2.866 8.88 6.62 6.776 1.228-.77 4.03-2.47 1.286.202-1.036 1.053-1.99 2.19-2.078 3.354-.284 3.737 2.174 6.146 5.05 6.38 3.216.267 5.446-2.02 5.55-5.1.048-1.652-.733-3.53-2.257-4.98-1.444-1.377-1.54-1.9-.08-.948 1.61 1.05 3.35 1.87 4.718 1.595 6.51-1.314 5.135-9.97-.5-10.52-2.07-.174-4.104 1.055-5.12 3.622-.985 2.313-1.21 1.52-.82-.15.68-2.726 1.583-5.294 3.3-7.52zm-74.68 1.05l2.065.83-4.32 20.803-1.742.236c1.084-5.997 1.646-12.93 3.11-18.397.31-1.16.482-2.46.89-3.47zm-89.876 3.296c.8 0 1.455.65 1.455 1.45 0 .8-.653 1.45-1.455 1.45s-1.45-.65-1.45-1.45c0-.8.65-1.45 1.45-1.45zm1.896 3.404c.8 0 1.454.654 1.454 1.456s-.653 1.45-1.455 1.45-1.45-.65-1.45-1.45c0-.804.646-1.457 1.45-1.457zm-3.78.09c.802 0 1.455.65 1.455 1.45 0 .804-.65 1.457-1.45 1.457s-1.45-.652-1.45-1.454c0-.8.65-1.45 1.45-1.45zm1.81 3.348c.803 0 1.452.654 1.452 1.456s-.65 1.45-1.453 1.45c-.8 0-1.455-.648-1.455-1.45 0-.802.654-1.456 1.456-1.456zm13.13 4.85l-17.41 17.633-.053-3.523L46 257.503l-12.025-.182.028-2.38zm-7.98 3.36l-9.327 8.903-.08-9.052zm9.965.65s-.05.326.83 1.86c2.545 4.423 3.133 8.51 5.382 13.25 1.12 2.595 3.64 5.214 4.205 5.362l-2.802 5.126 79.065-.164-12.655-22.09c-20.087 3.72-38.135 3.066-55.1.094-.973 1.305-2.04 3.964-3.06 5.887-2.534-6.816-10.637-11.217-15.858-9.322zm2.88.594c4.18-.06 7.66 1.928 10.755 6.14.984 1.34 1.366 1.95 1.362 2.51-.105.655-1.4 2.738-1.4 2.738s-.75-2.066-.93-3.07c-1.123 4.14-1.57-.655-2.003-1.92-1.37 3.998-2.11-1.496-2.04-2.98-1.864 2.565-1.744-1.644-2.653-2.426-.02 2.22-1.33.7-3.02.23.884 1.24 2.607 2.076.407 2.35 2.195 1.515 3.295 1.283 1.164 2.12 1.64.906 4.346 1.995 1.357 2.59 1.826 1.153 4.762 1.636 1.605 2.736 2.388 1.46 5.56 1.354 1.097 2.526 1.617.947 4.47 1.3 1.28 2.124.49.22 1.346.793 1.346.793l-1.38 2.18s-.496-.04-.836-.396c-1.464-1.53-2.89-4.342-4.165-8.286-.937-2.9-2.054-5.964-3.286-8.51-.667-1.344-.606-1.41 1.344-1.44zm70.61 4.98l10.93 18.7-2.59.04-9.65-16.008-13.016 1.47 4.286 14.318-3.87.105-3.84-14.08c-7.266.294-14.2.375-20.24-.11L86.96 283.4l-3.69-.124 2.337-14.135-12.213-1.56-6.626 15.86-3.816.075c2.463-4.155 8.613-17.57 9.762-18.89 26.606 4.257 40.42 1.96 54.287.075zm71.977 12.52v18.58h-3.14v3.617h10.34v-3.617h-3.466c-.02-6.35-.012-12.692 0-19.042-.176-8.806 9.6-7.283 9.72-2.083l.03 3.058h3.466s.112-.07.05-2.54c-.04-5.935-3.185-8.312-8.326-8.26-8.1.41-8.91 6.865-8.676 10.296zm-74.526-8.184l8.273 14.384-13.29.06-4.46-13.32zm-49.725.422c2.622.764 5.444.93 8.286 1.035l-2.42 12.87-11.78-.025zm33.15 1.514l3.123 12.5-22.168.12 1.83-12.46c5.815.35 11.5.03 17.212-.153z"/></svg>