<svg xmlns="http://www.w3.org/2000/svg" width="224.225" height="312.808"><path d="M7.41 38.31l2.578-1.862c2.24 3.576 4.742 5.933 8.567 5.528 5.742-.386 8.12-6.295 6.917-10.75-1.16-3.993-5.916-5.94-9.693-3.81-.9.504-1.93 1.125-1.93 1.125l-1.346-2.19 8.87-10.31H11.75v4.27H8.06v-7.66h18.813v2.6s-5.04 5.13-6.707 7.94c4.103.15 7.41 2.7 8.593 6.74.69 2.12.38 6.984-.527 9.075-1.51 3.494-5.65 6.326-9.43 6.49-6.345.42-9.716-3.95-11.4-7.18zm208.81 236.188l-2.58 1.862c-2.24-3.576-4.74-5.934-8.566-5.528-5.742.386-8.12 6.295-6.917 10.75 1.16 3.993 5.916 5.94 9.693 3.808.89-.502 1.92-1.028 1.92-1.028l1.594 2.06-9.117 10.354h9.625v-4.27h3.693v7.656h-18.813v-2.6s5.04-5.13 6.707-7.94c-4.11-.15-7.41-2.7-8.6-6.74-.7-2.122-.38-6.983.52-9.074 1.51-3.493 5.65-6.325 9.433-6.49 6.345-.418 9.717 3.95 11.397 7.18zm-111.845-89.18c2.914-5.845 5.036-11.842 5.413-18.254.345-2.36-1.088-2.4-1.304-.738-4.125 15.78-26.072 11.507-25.318-3.336.613-12.037 12.57-14.627 18.806-10.69 2.463 1.45 2.324.58.98-.924-9.265-10.334-3.654-23.642 8.866-23.886 13.54.803 17.054 15.05 8.748 23.427-1.033 1.006-3.323 4.24.125 1.98 8.39-5.96 20.03.448 19.79 9.634-.44 16.94-21.09 18.21-25.5 4.06-.424-1.57-1.65-2.352-1.31.31.61 4.826 1.88 12.1 5.5 18.427zm-.065-99.604c2.915-5.845 5.037-11.842 5.413-18.254.346-2.36-1.087-2.4-1.303-.738-4.126 15.78-26.072 11.507-25.318-3.336.612-12.038 12.57-14.627 18.806-10.69 2.463 1.45 2.323.58.98-.924-9.266-10.334-3.654-23.642 8.866-23.886 13.54.803 17.053 15.048 8.748 23.426-1.033 1.007-3.323 4.242.124 1.98 8.387-5.96 20.025.448 19.788 9.635-.438 16.94-21.09 18.204-25.506 4.054-.425-1.56-1.65-2.35-1.31.31.61 4.83 1.878 12.1 5.502 18.43zm14.88 141.643c-2.914 5.845-5.036 11.84-5.413 18.254-.345 2.36 1.088 2.4 1.304.74 4.13-15.78 26.08-11.5 25.32 3.34-.61 12.04-12.57 14.63-18.8 10.69-2.46-1.45-2.322-.58-.98.92 9.267 10.34 3.656 23.648-8.864 23.89-13.54-.802-17.054-15.05-8.75-23.425 1.034-1.01 3.324-4.243-.123-1.98-8.387 5.96-20.025-.45-19.79-9.636.44-16.94 21.09-18.204 25.507-4.055.424 1.565 1.65 2.353 1.31-.31-.613-4.826-1.88-12.1-5.503-18.426zM13.403 74.62c1.206-2.475 2.38-4.778 3.02-7.49.424-2.56-.444-1.608-.936.068-.73 2.325-2.756 3.384-4.635 3.41-3.412.046-5.114-2.636-5.008-5.52-.372-3.034 2.703-5.18 5.022-5.016 1.743.124 3.262 1.065 4.182 1.797.604.31 1.25.46.35-.37-1.7-1.858-3.114-3-3.083-5.78.03-2.61 2.26-5.33 5.217-5.25 3.695.107 5.376 2.925 5.367 5.547-.01 1.91-.97 3.67-2.45 4.76-.956.774-.688 1.355.402.62 1.047-.9 2.294-1.297 3.587-1.325 3.533-.055 4.914 2.997 4.71 5.834-.188 2.657-2.45 5.392-5.43 5.082-2.66-.306-4.06-2.54-4.864-4.835-.266-.706-.685-.896-.673.152.617 5.117 2.523 8.302 2.537 8.3zm197.42 164.307c-1.207 2.475-2.38 4.778-3.02 7.49-.425 2.558.443 1.608.936-.07.72-2.324 2.75-3.383 4.63-3.408 3.41-.05 5.11 2.63 5.002 5.51.372 3.034-2.703 5.18-5.02 5.015-1.744-.124-3.264-1.064-4.184-1.796-.603-.32-1.25-.46-.35.363 1.7 1.855 3.115 3 3.084 5.78-.03 2.61-2.26 5.33-5.216 5.245-3.696-.11-5.377-2.927-5.368-5.548.01-1.91.965-3.67 2.44-4.76.956-.776.688-1.356-.402-.623-1.046.903-2.293 1.3-3.586 1.326-3.533.054-4.914-2.998-4.71-5.834.188-2.657 2.45-5.39 5.432-5.08 2.662.303 4.06 2.54 4.862 4.832.263.703.682.893.67-.156-.614-5.12-2.52-8.304-2.535-8.3z"/></svg>