<svg xmlns="http://www.w3.org/2000/svg" width="224.225" height="312.808"><path d="M8.622 36.5c-.408-2.748-.402-9.846-.066-11.944 1.03-6.428 3.532-9.368 7.723-10.332 4.06-.936 9.78.106 11.04 5.482l-3.41.063c-1.84-3.64-6.498-2.67-9.12-1.09-2.093 1.26-3.04 6.52-2.634 6.84-.003 0 3.957-2.877 7.076-2.665 6.67.682 9.42 6.356 9.185 11.72-.21 6.45-2.295 11.6-9.36 11.945-6.72-.253-9.8-3.85-10.445-10.03zm16.57-1.706c.038-4.476-2.033-7.823-5.95-8.193-3.915-.36-7.863 3.39-7.59 7.95.275 4.58 2.08 8.43 6.827 8.41 5.1-.02 6.68-4.973 6.71-8.16zM215.37 276.31c.41 2.746.402 9.844.067 11.94-1.03 6.43-3.532 9.37-7.723 10.334-4.07.936-9.79-.106-11.044-5.482l3.406-.063c1.84 3.63 6.496 2.66 9.116 1.08 2.093-1.26 3.04-6.52 2.634-6.85.003 0-3.957 2.876-7.076 2.664-6.668-.68-9.417-6.356-9.185-11.72.21-6.45 2.295-11.6 9.36-11.945 6.72.253 9.8 3.85 10.446 10.03zm-16.57 1.704c-.037 4.475 2.034 7.823 5.95 8.192 3.916.37 7.863-3.38 7.59-7.942-.274-4.577-2.08-8.432-6.826-8.41-5.106.022-6.687 4.976-6.714 8.16zm-44.248-92.942c2.88-5.775 4.976-11.7 5.348-18.037.342-2.332-1.075-2.37-1.288-.73-4.076 15.594-25.763 11.372-25.017-3.295.605-11.895 12.42-14.454 18.582-10.565 2.434 1.433 2.296.575.968-.912-9.155-10.21-3.61-23.36 8.76-23.602 13.38.8 16.852 14.87 8.645 23.15-1.02 1-3.283 4.19.123 1.96 8.287-5.89 19.788.44 19.553 9.52-.433 16.74-20.84 17.99-25.203 4.01-.42-1.55-1.63-2.33-1.295.305.605 4.767 1.856 11.954 5.437 18.206zm-99.532 0c2.878-5.775 4.975-11.7 5.347-18.037.342-2.332-1.074-2.37-1.288-.73C55 181.9 33.31 177.677 34.06 163.01c.606-11.895 12.42-14.454 18.583-10.565 2.434 1.433 2.296.575.968-.912-9.15-10.21-3.61-23.36 8.76-23.602 13.38.8 16.86 14.87 8.65 23.15-1.02 1-3.28 4.19.128 1.96 8.288-5.89 19.79.44 19.554 9.52-.432 16.74-20.84 17.99-25.203 4.01-.42-1.55-1.63-2.33-1.295.305.605 4.767 1.857 11.954 5.438 18.206zm99.532-98.894c2.88-5.775 4.976-11.7 5.348-18.037.342-2.33-1.075-2.37-1.288-.72-4.076 15.59-25.763 11.37-25.017-3.295.605-11.895 12.42-14.454 18.582-10.564 2.434 1.43 2.296.574.968-.912-9.155-10.21-3.61-23.36 8.76-23.602 13.38.796 16.852 14.87 8.645 23.15-1.02.995-3.283 4.19.123 1.957 8.287-5.89 19.788.443 19.553 9.52-.433 16.74-20.84 17.988-25.203 4.006-.42-1.55-1.63-2.33-1.295.304.605 4.767 1.856 11.954 5.437 18.206zm-99.532 0c2.878-5.775 4.975-11.7 5.347-18.037.342-2.33-1.074-2.37-1.288-.72-4.08 15.59-25.77 11.37-25.02-3.3.6-11.892 12.42-14.45 18.58-10.56 2.43 1.43 2.293.573.97-.913-9.158-10.21-3.61-23.36 8.76-23.6 13.38.794 16.85 14.87 8.642 23.15-1.02.993-3.284 4.19.123 1.955 8.285-5.89 19.786.443 19.55 9.52-.43 16.74-20.84 17.988-25.202 4.006-.42-1.55-1.63-2.33-1.296.305.604 4.765 1.856 11.95 5.437 18.204zM169.254 226.53c-2.88 5.775-4.976 11.7-5.348 18.037-.342 2.332 1.074 2.37 1.288.728 4.076-15.592 25.763-11.37 25.017 3.297-.6 11.895-12.41 14.454-18.58 10.564-2.43-1.432-2.29-.574-.97.912 9.16 10.212 3.61 23.362-8.76 23.603-13.38-.79-16.85-14.87-8.64-23.14 1.02-.993 3.288-4.19-.12-1.955-8.285 5.888-19.786-.443-19.55-9.52.432-16.74 20.84-17.99 25.203-4.006.42 1.55 1.63 2.33 1.295-.305-.605-4.768-1.857-11.955-5.437-18.207zm-99.534 0c-2.878 5.775-4.975 11.7-5.347 18.037-.342 2.332 1.075 2.37 1.288.728 4.08-15.592 25.77-11.37 25.02 3.297-.6 11.895-12.42 14.454-18.58 10.564-2.43-1.432-2.29-.574-.97.912 9.16 10.212 3.61 23.362-8.76 23.603-13.38-.79-16.85-14.87-8.64-23.14 1.02-.993 3.284-4.19-.122-1.955-8.285 5.888-19.786-.443-19.55-9.52.432-16.74 20.84-17.99 25.202-4.006.42 1.55 1.63 2.33 1.295-.305-.604-4.768-1.855-11.955-5.436-18.207zM13.66 74.3c1.192-2.446 2.352-4.72 2.985-7.4.42-2.53-.44-1.59-.926.067-.73 2.297-2.73 3.344-4.58 3.37-3.38.044-5.06-2.606-4.95-5.455-.37-3 2.67-5.12 4.96-4.957 1.72.123 3.22 1.052 4.13 1.775.593.315 1.23.455.342-.358-1.678-1.833-3.077-2.964-3.046-5.71.03-2.58 2.233-5.27 5.155-5.185 3.65.106 5.31 2.89 5.304 5.48-.01 1.89-.956 3.627-2.414 4.703-.942.766-.68 1.34.4.615 1.035-.892 2.267-1.282 3.545-1.31 3.49-.055 4.856 2.962 4.656 5.764-.19 2.62-2.422 5.32-5.37 5.02-2.63-.3-4.01-2.51-4.803-4.78-.26-.7-.675-.887-.664.15.61 5.056 2.494 8.203 2.508 8.2zm196.905 162.003c-1.192 2.445-2.352 4.72-2.985 7.4-.42 2.528.44 1.59.926-.068.72-2.297 2.722-3.343 4.58-3.368 3.37-.046 5.052 2.604 4.948 5.453.368 3-2.67 5.12-4.962 4.957-1.722-.123-3.224-1.052-4.133-1.775-.6-.315-1.24-.455-.35.36 1.68 1.83 3.072 2.963 3.04 5.71-.03 2.578-2.233 5.267-5.155 5.183-3.65-.105-5.31-2.89-5.304-5.48.01-1.89.956-3.627 2.414-4.703.944-.766.68-1.34-.398-.615-1.036.892-2.268 1.283-3.546 1.31-3.49.055-4.854-2.96-4.654-5.764.187-2.626 2.422-5.33 5.37-5.022 2.63.31 4.01 2.51 4.803 4.78.26.7.672.89.66-.15-.61-5.054-2.492-8.2-2.506-8.2z"/></svg>