<svg xmlns="http://www.w3.org/2000/svg" height="312.808" width="224.225"><path d="M7.734 46.564v-2.737h2.66l5.665-29.27h3.22l6.24 29.27h2.143v2.737H20.35v-2.737h1.977l-.787-4.486h-7.386l-.57 4.49h1.977v2.74zm13.178-10.416l-3.21-15.67-3.006 15.67zM216.49 266.244v2.737h-2.66l-5.664 29.28h-3.223l-6.243-29.27h-2.147v-2.74h7.318v2.74h-1.97l.79 4.485h7.388l.57-4.485h-1.977v-2.737zm-13.177 10.416l3.21 15.67 3.006-15.67zm-98.55-91.686c2.88-5.775 4.975-11.7 5.347-18.037.34-2.332-1.075-2.37-1.288-.728-4.077 15.59-25.763 11.37-25.017-3.3.605-11.9 12.42-14.46 18.582-10.57 2.433 1.43 2.296.573.968-.91-9.155-10.21-3.61-23.36 8.76-23.605 13.38.794 16.852 14.87 8.645 23.15-1.02.993-3.283 4.19.123 1.955 8.287-5.887 19.787.444 19.553 9.52-.433 16.74-20.84 17.99-25.203 4.007-.42-1.55-1.63-2.33-1.295.304.605 4.767 1.856 11.954 5.437 18.206zM13.406 75.68c1.193-2.445 2.353-4.72 2.985-7.4.42-2.53-.44-1.59-.92.067-.72 2.298-2.72 3.344-4.58 3.37-3.37.044-5.05-2.605-4.95-5.455-.37-2.998 2.67-5.12 4.96-4.957 1.72.123 3.227 1.052 4.13 1.775.6.316 1.24.455.35-.358-1.676-1.833-3.075-2.964-3.045-5.71.03-2.58 2.235-5.27 5.157-5.185 3.65.106 5.31 2.89 5.303 5.48-.01 1.89-.956 3.627-2.41 4.704-.948.77-.68 1.34.394.62 1.034-.89 2.266-1.28 3.544-1.31 3.49-.05 4.856 2.96 4.656 5.77-.187 2.625-2.423 5.33-5.37 5.022-2.63-.302-4.012-2.51-4.804-4.777-.26-.695-.674-.883-.663.153.608 5.058 2.49 8.205 2.506 8.2zm196.47 161.833c-1.192 2.445-2.353 4.72-2.985 7.4-.42 2.528.44 1.59.93-.068.72-2.297 2.72-3.343 4.58-3.37 3.37-.044 5.05 2.606 4.95 5.455.37 3-2.67 5.12-4.96 4.957-1.723-.123-3.224-1.052-4.133-1.775-.593-.315-1.23-.455-.342.358 1.68 1.833 3.078 2.965 3.047 5.71-.03 2.58-2.234 5.27-5.155 5.185-3.652-.105-5.312-2.89-5.304-5.48.01-1.89.955-3.627 2.413-4.703.944-.766.68-1.34-.398-.615-1.036.892-2.268 1.283-3.546 1.31-3.49.055-4.856-2.962-4.656-5.764.186-2.626 2.42-5.33 5.37-5.023 2.63.302 4.01 2.51 4.803 4.777.262.695.676.883.665-.153-.61-5.057-2.494-8.204-2.508-8.2z"/></svg>