<svg xmlns="http://www.w3.org/2000/svg" width="224.225" height="312.808"><path d="M8.672 47.135l.165-2.018c.51-6.24 1.874-8.347 9.622-14.856 3.76-3.15 4.99-4.71 5.16-6.52.49-4.26-3.35-5.59-5.857-5.61-3.24-.03-6.91 1.913-5.16 6.415L8.97 25.607c-.734-4.2.017-8.142 3.426-9.892 4.544-2.28 10.38-1.385 13.32 2.207 1.98 2.417 2.43 5.75 1.37 8.36-3.1 6.67-13.62 9.604-14.49 17.32h11.63v-4.3h3.426v7.906zM215.28 265.673l-.164 2.018c-.51 6.24-1.875 8.35-9.622 14.86-3.76 3.16-4.994 4.72-5.168 6.53-.49 4.26 3.35 5.59 5.855 5.616 3.25.03 6.91-1.912 5.17-6.414l3.637-1.07c.735 4.2-.016 8.144-3.425 9.894-4.546 2.28-10.38 1.383-13.323-2.21-1.98-2.412-2.427-5.744-1.367-8.353 3.1-6.672 13.62-9.607 14.49-17.32h-11.63v4.295h-3.43v-7.906zM104.726 85.78c2.88-5.774 4.976-11.7 5.348-18.036.342-2.332-1.074-2.37-1.288-.73C104.71 82.61 83.024 78.387 83.77 63.72c.604-11.896 12.42-14.455 18.58-10.566 2.435 1.433 2.298.575.97-.91-9.155-10.213-3.61-23.363 8.76-23.604 13.38.794 16.852 14.87 8.645 23.148-1.02.995-3.284 4.192.123 1.957 8.287-5.888 19.787.443 19.552 9.52-.432 16.74-20.84 17.988-25.203 4.006-.42-1.55-1.63-2.32-1.295.31.605 4.77 1.857 11.958 5.438 18.21zm14.702 141.668c-2.88 5.776-4.976 11.7-5.348 18.037-.34 2.332 1.075 2.37 1.288.73 4.077-15.594 25.763-11.37 25.017 3.296-.605 11.9-12.42 14.46-18.582 10.57-2.434-1.43-2.296-.57-.968.91 9.155 10.21 3.61 23.36-8.76 23.6-13.38-.79-16.852-14.87-8.645-23.15 1.02-.99 3.283-4.19-.123-1.95-8.287 5.89-19.788-.44-19.553-9.52.433-16.74 20.84-17.99 25.203-4.005.42 1.55 1.63 2.33 1.295-.305-.605-4.768-1.856-11.955-5.437-18.207zM14.206 75.158c1.192-2.446 2.352-4.72 2.984-7.4.42-2.53-.438-1.59-.925.066-.72 2.298-2.723 3.344-4.58 3.37-3.37.045-5.053-2.605-4.948-5.455-.368-3 2.67-5.12 4.962-4.96 1.72.12 3.22 1.05 4.13 1.77.59.314 1.23.453.34-.36-1.68-1.83-3.08-2.964-3.048-5.71.03-2.58 2.233-5.27 5.155-5.184 3.652.105 5.312 2.89 5.303 5.48-.01 1.89-.954 3.627-2.412 4.703-.942.766-.68 1.34.4.615 1.036-.89 2.268-1.284 3.545-1.31 3.49-.056 4.854 2.96 4.655 5.763-.19 2.625-2.424 5.33-5.37 5.02-2.63-.3-4.013-2.51-4.806-4.777-.26-.696-.675-.883-.663.153.61 5.056 2.493 8.203 2.506 8.2zM210.02 237.573c-1.193 2.445-2.353 4.72-2.985 7.4-.42 2.53.438 1.59.925-.067.72-2.297 2.723-3.344 4.58-3.37 3.37-.044 5.053 2.605 4.948 5.455.368 3-2.67 5.12-4.962 4.96-1.722-.12-3.224-1.05-4.133-1.772-.596-.315-1.234-.454-.345.36 1.678 1.833 3.077 2.964 3.046 5.71-.03 2.58-2.233 5.27-5.155 5.185-3.66-.106-5.32-2.89-5.31-5.48.01-1.89.95-3.627 2.41-4.703.942-.768.68-1.34-.4-.616-1.035.89-2.268 1.28-3.545 1.31-3.49.054-4.855-2.962-4.655-5.765.188-2.626 2.423-5.33 5.37-5.02 2.63.3 4.013 2.51 4.805 4.774.262.693.676.88.664-.155-.61-5.058-2.49-8.205-2.506-8.203z"/></svg>