<svg xmlns="http://www.w3.org/2000/svg" width="224.225" height="312.808"><path d="M8.754 38.036l3.22-.028c.612 1.944 1.972 3.926 3.817 4.473 5.22 1.23 8.57-1.68 9.68-5.04 1.34-4.07-.03-9.792-3.615-11.83-2.976-1.68-7.395-.26-9.422 3.34l-2.256-1.38 1.21-13.42h14.73v3.17H14.17l-.187 5.59c2.566-1.8 6.52-1.78 9.086-.52 4.86 2.32 7.12 7.597 6.17 13.81-1.31 6.187-4.196 9.69-10.716 10.19-7.246.06-9.805-4.92-9.776-8.35zm206.87 236.736l-3.22.028c-.613-1.944-1.972-3.926-3.817-4.474-5.212-1.223-8.568 1.688-9.673 5.047-1.34 4.074.03 9.796 3.618 11.828 2.975 1.69 7.395.27 9.422-3.33l2.257 1.38-1.21 13.42h-14.73v-3.17h11.94l.19-5.59c-2.564 1.8-6.52 1.783-9.084.52-4.865-2.32-7.124-7.594-6.18-13.812 1.313-6.182 4.2-9.685 10.72-10.19 7.245-.06 9.804 4.92 9.775 8.35zM104.767 185c2.88-5.776 4.976-11.7 5.348-18.037.342-2.332-1.074-2.37-1.288-.73-4.076 15.594-25.763 11.37-25.017-3.295.605-11.895 12.42-14.454 18.582-10.565 2.434 1.433 2.296.575.968-.912-9.155-10.21-3.61-23.36 8.76-23.6 13.38.8 16.853 14.87 8.646 23.15-1.02 1-3.284 4.19.123 1.96 8.28-5.89 19.78.445 19.55 9.52-.43 16.74-20.84 17.99-25.21 4.01-.42-1.55-1.63-2.33-1.296.304.605 4.767 1.857 11.954 5.44 18.206zm49.243-99.262c2.88-5.776 4.976-11.7 5.348-18.038.342-2.33-1.075-2.37-1.288-.728-4.076 15.593-25.763 11.37-25.017-3.297.605-11.895 12.42-14.454 18.582-10.564 2.434 1.44 2.296.58.968-.91-9.155-10.21-3.61-23.36 8.76-23.6 13.38.8 16.852 14.87 8.645 23.15-1.02.998-3.283 4.19.123 1.96 8.29-5.887 19.79.444 19.56 9.52-.43 16.74-20.84 17.988-25.2 4.007-.42-1.55-1.63-2.33-1.294.305.605 4.767 1.856 11.953 5.437 18.206zm-98.68 0c2.878-5.776 4.975-11.7 5.347-18.038.34-2.33-1.075-2.37-1.288-.728-4.08 15.593-25.77 11.37-25.02-3.297.6-11.895 12.42-14.455 18.58-10.565 2.43 1.436 2.29.577.963-.91-9.154-10.21-3.61-23.36 8.76-23.6 13.38.792 16.853 14.87 8.646 23.147-1.02.994-3.283 4.19.123 1.956 8.285-5.887 19.785.444 19.55 9.522-.432 16.74-20.84 17.987-25.202 4.006-.42-1.55-1.63-2.33-1.295.31.604 4.77 1.855 11.955 5.436 18.208zm113.382 139.51c-2.88 5.775-4.976 11.7-5.348 18.037-.342 2.332 1.074 2.37 1.288.73 4.076-15.594 25.763-11.372 25.017 3.295-.61 11.895-12.42 14.454-18.59 10.565-2.436-1.433-2.298-.575-.97.912 9.154 10.21 3.61 23.36-8.76 23.602-13.38-.8-16.85-14.87-8.646-23.15 1.02-1 3.284-4.19-.123-1.96-8.285 5.89-19.786-.44-19.55-9.52.433-16.74 20.84-17.99 25.204-4.01.42 1.55 1.63 2.33 1.294-.305-.608-4.767-1.86-11.954-5.44-18.206zm-98.682 0c-2.878 5.775-4.975 11.7-5.347 18.037-.342 2.332 1.074 2.37 1.288.73 4.08-15.594 25.77-11.372 25.02 3.295-.6 11.895-12.42 14.454-18.58 10.565-2.43-1.433-2.292-.575-.963.912 9.154 10.21 3.61 23.36-8.762 23.602-13.38-.8-16.85-14.87-8.643-23.15 1.02-1 3.284-4.19-.123-1.96-8.288 5.89-19.788-.44-19.554-9.52.434-16.74 20.84-17.99 25.205-4.01.42 1.55 1.63 2.33 1.296-.305-.604-4.767-1.856-11.954-5.437-18.206zM14.714 75.523c1.192-2.445 2.352-4.72 2.984-7.4.42-2.53-.438-1.59-.925.067-.72 2.297-2.722 3.344-4.58 3.37-3.37.044-5.053-2.605-4.948-5.455-.368-3 2.67-5.12 4.962-4.957 1.722.123 3.224 1.052 4.133 1.775.596.316 1.234.455.345-.358-1.678-1.833-3.077-2.964-3.046-5.71.02-2.58 2.23-5.27 5.15-5.185 3.65.106 5.31 2.89 5.3 5.48-.01 1.89-.955 3.627-2.41 4.703-.947.767-.68 1.34.395.615 1.035-.892 2.267-1.282 3.545-1.31 3.49-.054 4.855 2.962 4.655 5.765-.188 2.625-2.423 5.328-5.37 5.022-2.63-.302-4.01-2.51-4.804-4.777-.26-.695-.674-.883-.663.153.61 5.06 2.493 8.21 2.506 8.21zM209.51 237.526c-1.19 2.445-2.35 4.72-2.983 7.4-.42 2.528.438 1.59.925-.067.72-2.3 2.723-3.35 4.58-3.37 3.37-.05 5.053 2.6 4.948 5.45.368 3-2.67 5.12-4.962 4.95-1.722-.122-3.224-1.052-4.133-1.775-.596-.315-1.234-.454-.345.36 1.678 1.832 3.077 2.963 3.046 5.71-.03 2.58-2.233 5.27-5.155 5.183-3.65-.105-5.31-2.89-5.3-5.48.01-1.888.96-3.626 2.41-4.703.95-.764.68-1.34-.39-.613-1.033.89-2.266 1.282-3.543 1.31-3.49.054-4.855-2.96-4.655-5.765.187-2.626 2.42-5.328 5.37-5.02 2.63.3 4.01 2.51 4.804 4.775.26.696.676.883.664-.152-.608-5.058-2.49-8.205-2.505-8.202z"/></svg>