<svg xmlns="http://www.w3.org/2000/svg" width="224.225" height="312.808"><path d="M216.098 266.965v31.507h-3.11v-31.507zm-12.328 31.507c2.993 0 5.4-2.687 5.4-6.023v-19.47c0-3.338-2.407-6.025-5.4-6.025h-1.746c-2.994 0-5.406 2.687-5.406 6.023v19.46c0 3.336 2.412 6.023 5.406 6.023h1.745zm-.902-2.978c-1.77 0-3.192-1.337-3.192-3.002V272.77c0-1.665 1.423-3.007 3.192-3.007 1.768 0 3.19 1.342 3.19 3.006v19.72c0 1.66-1.422 3-3.19 3zM8.128 45.844v-31.51h3.11v31.508zm12.328-31.508c-2.994 0-5.4 2.687-5.4 6.023v19.46c0 3.33 2.406 6.02 5.4 6.02H22.2c2.995 0 5.407-2.69 5.407-6.03V20.36c0-3.337-2.412-6.024-5.406-6.024h-1.74zm.9 2.978c1.77 0 3.193 1.337 3.193 3.002v19.722c0 1.665-1.43 3.007-3.2 3.007s-3.19-1.342-3.19-3.007V20.316c0-1.665 1.42-3.002 3.19-3.002zm134.4 134.156c2.88-5.776 4.976-11.702 5.35-18.038.34-2.332-1.076-2.37-1.29-.73-4.076 15.594-25.762 11.372-25.017-3.295.6-11.895 12.42-14.454 18.58-10.565 2.43 1.433 2.29.575.97-.91-9.16-10.213-3.61-23.363 8.76-23.604 13.38.794 16.85 14.87 8.64 23.148-1.02.995-3.287 4.192.12 1.957 8.286-5.888 19.786.443 19.552 9.52-.433 16.74-20.84 17.988-25.203 4.006-.42-1.55-1.63-2.33-1.295.3.603 4.76 1.855 11.95 5.436 18.2zm-103.532 0c2.88-5.776 4.976-11.702 5.348-18.038.34-2.332-1.075-2.37-1.288-.73-4.077 15.594-25.763 11.372-25.017-3.295.605-11.895 12.42-14.454 18.582-10.565 2.43 1.433 2.29.575.96-.91-9.157-10.213-3.61-23.363 8.76-23.604 13.38.794 16.85 14.87 8.643 23.148-1.02.995-3.283 4.192.123 1.957 8.287-5.888 19.79.443 19.553 9.52-.433 16.74-20.84 17.988-25.203 4.006-.42-1.55-1.63-2.33-1.293.3.603 4.76 1.854 11.95 5.435 18.2zm51.716-32.666c2.878-5.776 4.975-11.7 5.347-18.037.342-2.332-1.074-2.37-1.288-.73-4.08 15.594-25.77 11.37-25.02-3.295.6-11.895 12.42-14.454 18.58-10.565 2.43 1.433 2.292.575.963-.912-9.154-10.21-3.61-23.362 8.762-23.602 13.38.793 16.85 14.87 8.643 23.148-1.02 1-3.284 4.2.123 1.96 8.288-5.89 19.788.45 19.554 9.52-.434 16.74-20.84 17.99-25.205 4.01-.42-1.55-1.63-2.33-1.296.307.604 4.767 1.856 11.954 5.437 18.206zm51.817-32.664c2.88-5.777 4.975-11.702 5.348-18.04.34-2.33-1.075-2.37-1.288-.727-4.077 15.593-25.763 11.37-25.018-3.297.6-11.895 12.42-14.454 18.58-10.564 2.43 1.433 2.29.574.97-.912-9.16-10.21-3.61-23.362 8.76-23.603 13.38.794 16.85 14.87 8.64 23.15-1.02.993-3.287 4.19.12 1.955 8.286-5.888 19.786.443 19.552 9.52-.433 16.74-20.84 17.988-25.203 4.007-.42-1.56-1.63-2.33-1.295.3.603 4.76 1.855 11.95 5.436 18.2zm-103.533 0c2.88-5.777 4.976-11.702 5.348-18.04.34-2.33-1.075-2.37-1.288-.727-4.077 15.593-25.763 11.37-25.017-3.297.605-11.895 12.42-14.454 18.582-10.564 2.43 1.433 2.29.574.96-.912-9.157-10.21-3.61-23.362 8.76-23.603 13.38.794 16.85 14.87 8.643 23.15-1.02.993-3.283 4.19.123 1.955 8.287-5.888 19.79.443 19.553 9.52-.433 16.74-20.84 17.988-25.203 4.007-.42-1.56-1.63-2.33-1.293.3.603 4.76 1.853 11.95 5.433 18.2zm14.702 75.198c-2.88 5.776-4.976 11.7-5.348 18.037-.342 2.332 1.074 2.37 1.288.73 4.076-15.594 25.762-11.37 25.017 3.296-.605 11.9-12.42 14.46-18.582 10.57-2.43-1.43-2.29-.57-.96.91 9.156 10.21 3.61 23.36-8.76 23.6-13.38-.79-16.85-14.87-8.643-23.15 1.02-.99 3.284-4.19-.123-1.95-8.287 5.89-19.787-.44-19.552-9.52.433-16.74 20.84-17.99 25.204-4.005.42 1.55 1.63 2.33 1.296-.305-.606-4.768-1.858-11.955-5.44-18.207zm0 65.332c-2.88 5.774-4.976 11.7-5.348 18.036-.342 2.332 1.074 2.37 1.288.73 4.076-15.594 25.762-11.372 25.017 3.295-.605 11.9-12.42 14.46-18.582 10.57-2.43-1.43-2.29-.57-.96.91 9.156 10.21 3.61 23.36-8.76 23.6-13.38-.79-16.85-14.87-8.643-23.14 1.02-.995 3.284-4.192-.123-1.957-8.287 5.888-19.787-.442-19.552-9.52.433-16.74 20.84-17.99 25.204-4.006.42 1.55 1.63 2.328 1.296-.305-.606-4.766-1.858-11.953-5.44-18.205zm103.534-65.332c-2.88 5.776-4.977 11.7-5.35 18.037-.34 2.332 1.075 2.37 1.29.73 4.075-15.594 25.76-11.37 25.016 3.296-.605 11.9-12.42 14.46-18.583 10.57-2.433-1.43-2.296-.57-.968.91 9.155 10.21 3.61 23.36-8.76 23.6-13.38-.79-16.852-14.87-8.645-23.15 1.02-.99 3.284-4.19-.123-1.95-8.287 5.89-19.787-.44-19.553-9.52.433-16.74 20.84-17.99 25.204-4.005.42 1.55 1.63 2.33 1.295-.305-.605-4.768-1.857-11.955-5.438-18.207zm0 65.332c-2.88 5.774-4.977 11.7-5.35 18.036-.34 2.332 1.075 2.37 1.29.73 4.075-15.594 25.76-11.372 25.016 3.295-.605 11.9-12.42 14.46-18.583 10.57-2.433-1.43-2.296-.57-.968.91 9.155 10.218 3.61 23.368-8.76 23.61-13.38-.794-16.852-14.87-8.645-23.148 1.02-.995 3.284-4.192-.123-1.957-8.287 5.888-19.787-.443-19.553-9.52.433-16.74 20.84-17.99 25.204-4.006.42 1.55 1.63 2.326 1.295-.307-.605-4.765-1.857-11.952-5.438-18.204zm-51.35-32.666c-2.88 5.775-4.977 11.7-5.35 18.037-.34 2.34 1.075 2.38 1.29.73 4.075-15.59 25.762-11.37 25.016 3.3-.605 11.9-12.42 14.46-18.582 10.57-2.434-1.43-2.296-.574-.968.912 9.155 10.21 3.61 23.36-8.76 23.603-13.38-.794-16.853-14.87-8.646-23.15 1.02-.993 3.284-4.19-.123-1.955-8.286 5.89-19.787-.442-19.552-9.52.432-16.74 20.84-17.987 25.203-4.006.42 1.55 1.63 2.33 1.295-.303-.605-4.767-1.857-11.954-5.437-18.206zM13.67 75.74c1.192-2.446 2.352-4.72 2.985-7.4.42-2.53-.44-1.59-.926.067-.73 2.297-2.73 3.343-4.58 3.37-3.38.044-5.06-2.606-4.95-5.455-.37-3 2.67-5.12 4.96-4.957 1.72.123 3.22 1.052 4.13 1.775.593.315 1.23.455.342-.358-1.678-1.833-3.077-2.965-3.046-5.71.03-2.58 2.233-5.27 5.155-5.185 3.65.105 5.31 2.89 5.304 5.48-.01 1.89-.956 3.627-2.414 4.703-.942.766-.68 1.34.4.615 1.035-.892 2.267-1.283 3.545-1.31 3.49-.055 4.856 2.962 4.656 5.764-.19 2.62-2.422 5.32-5.37 5.02-2.63-.3-4.01-2.51-4.803-4.78-.26-.7-.675-.887-.664.15.61 5.056 2.494 8.203 2.508 8.2zm196.905 162.003c-1.192 2.445-2.352 4.72-2.985 7.4-.42 2.528.44 1.59.926-.068.72-2.297 2.722-3.343 4.58-3.368 3.37-.046 5.052 2.604 4.948 5.453.368 3-2.67 5.12-4.962 4.957-1.722-.123-3.224-1.052-4.133-1.775-.6-.315-1.24-.455-.35.36 1.68 1.83 3.072 2.963 3.04 5.71-.03 2.578-2.233 5.267-5.155 5.183-3.65-.105-5.31-2.89-5.304-5.48.01-1.89.956-3.627 2.414-4.703.944-.766.68-1.34-.398-.615-1.036.892-2.268 1.283-3.546 1.31-3.49.055-4.854-2.96-4.654-5.764.187-2.626 2.422-5.33 5.37-5.022 2.63.31 4.01 2.51 4.803 4.78.26.7.672.89.66-.15-.61-5.054-2.492-8.2-2.506-8.2z"/></svg>