<svg xmlns="http://www.w3.org/2000/svg" width="224.225" height="312.808"><title>Vectorized Playing Cards 1.0</title><path d="M161.255 30.505l-80.526.392L90.95 50.27c20.93-1.883 39.27-.21 58.376.414zM106.26 98.617c-.085.113-3.35.956-3.02 1.697 8.53 18.255 12.338 33.11 15.9 51.87 1.8-1.46 4.71-1.402 4.71-1.402-1.435-6.967 7.35-7.836 7.406-.547 1.686.39 3.42.397 4.943 2.1.68-20.502 8.04-41.715 17.54-56.413-10.83 4.285-26.72 14.965-26.72 14.965s-13.22-5.46-20.77-12.27zm65.82 2.183c-14.413 13.678-20.053 51.648-19.02 52.172-18.576-.62-24.207 19.854-8.104 30.894-.636 2.142-2.21 3.884-3.427 5.776 1.66.95 3.47 1.154 5.28 1.353 1.37 1.63 2.72 3.508 4.22 3.663 1.62-1.02 2.77-2.513 4.12-3.805 1.68-.428 3.35-.902 4.95-1.63-1.42-1.974-3.09-3.97-3.14-5.82 14-9.866 12.08-23.284-.543-30.153 3.76-22.597 9.244-37.032 15.61-47.297zm-99.257 17.458c-1.83.893-2.83 2.778-4.158 4.257-1.824.083-3.58.706-5.318 1.48 0 0 4.176 5.768 3.917 6.078-13.54 8.866-13.43 21.825-.43 30.362 2.204 18.443-13.473 47.63-14.265 46.783l-.03 6.034c10.91-12.065 17.08-33.985 18.16-51.987 22.28-1.483 23.07-23.003 7.73-31.098-1.18-1.08 3.856-6.082 3.856-6.082-1.28-1.258-3.417-1.4-5.29-1.555-1.18-1.412-2.21-2.82-4.18-4.272zm94.24 14.893c3.15 7.01 14.66-1.53 16.657 2.2 1.62 2.12 5.15 2.33 4.96-1.23-.664-3.52-2.987-4.31-12.202-2.77-3.496.588-4.93.93-4.908-.66-2.418-2.917-4.492 1.05-4.507 2.47zm10.69 10.23c-2.585 0-3.024 10.1-2.986 13.13-7.48 11.81 15.345 10.47 5.474-2.4.35-1.68-1.25-4.42-1.21-5.63-.81-.102-1.16-4.662-1.27-5.096zm-131.596 6.07c-4.048.106-8.498 3.82-2.008 9.16.43.15-.22 1.28 0 3.01 1.83 3.948 1.33 9.79 2.69 8.89 1.575-1.035 2.89-5.395 2.55-11.483-.02-.4-.55-.82-.452-1.253 3.643-6.01.563-8.404-2.79-8.32zm41.423 11.31c-1.04 19.73-5.874 39.08-16.828 55.86 9.43-4.39 18.58-10.06 27.435-14.91l20.694 12.805c1.2-.52 2.03-.77 2.83-1.56-9.533-13.94-12.49-34.01-16.64-52.16-1.58 1.12-4.553 1.682-4.553 1.682-.212 6.297-6.82 8.338-8.17.125zm-49.947 15.39c-2.207.14-3.867 5.6 2.386 6.41 4.41.628 10.06-1.543 12.86-.54 3.26 5.2 6.18-2.45 1.83-3.7-4.68-1.34-14.21 2.158-15.26-.814-.54-1.015-1.2-1.393-1.82-1.353zm37.533 85.44l-12.484 22.046 79.818-.48-10.433-21.028c.178-.233-34.86 4.165-56.9-.538z" fill="#e2cf00"/><path d="M92.488 52.154l1.297 3.093c17.145-2.072 35.082-4.22 53.04.347 0 0 1.318-2.86 1.297-3.066-16.733-4.256-54.15-3.15-55.634-.374zm17.35 43.436l16.314 10.552s7.814-5.52 11.144-7.855l-2.022-2.97c-6.9 15.21-19.03 3.18-23.576-3.975 0 0-1.236 2.772-1.86 4.248zm43.82 5.105c1.13-.024 1.757.41 2.325 1.562.642 1.3.887.98.474-.64-.65-2.556 2.063-4.22 4.62-2.513 1.846 1.232 1.765 4.212-.252 4.764-1.63.446-1.672.874-.24.804 2.567-.125 3.25 3.3 1.423 4.975-2.1 1.926-4.78.56-5.023-1.854-.112-.683-.257-.674-.482-.287-.65 1.115-.71 2.563-.582 3.875l-3.79-2.35c1.35-.67 2.18-1.07 3.15-2.08.13-.132.23-.23.23-.286 0-.103-.423.035-1.196.115-2.292.24-4.056-1.246-3.586-3.404.4-1.834 1.35-2.635 2.94-2.67zm-16.73 59.527c4.127-4.72 9.252-7.75 16.374-7.326.906-19.78 7.765-37.366 18.75-53.21l-12.085-7.266-4.85 2.925c-11.66 16.537-18.823 37.52-18.188 64.877zm-90.583-46.217s-8.18 6.127-11.982 9.086l.184 54.54 1.056.36c.076.12-.092-.81.393-1.23.396-.34 1.024-.74 1.397-.87 1.052-.38 1.098-1.08.117-1.69-.762-.47-1.05-1.193-.964-2.4.062-.85.026-1.038-.33-1.617-.442-.72-.48-1.63-.103-2.573.174-.438.157-.556-.154-1.148-.4-.756-.45-1.568-.15-2.44.11-.337.19-1.068.18-1.63-.04-2.174 1.75-3.615 5.062-4.07 1.295-.18 1.334-.23.74-1.316-3.355-6.127 4.182-9.32 4.745-8.34zm103.214 3.042c3.06-.044 5.58 2.398 5.62 5.46.04 3.06-2.4 5.58-5.47 5.623-3.06.045-5.58-2.402-5.624-5.463-.045-3.06 2.402-5.575 5.463-5.62zm.05.99c-2.45.035-4.41 2.05-4.37 4.5.03 2.45 2.05 4.412 4.5 4.376 2.45-.035 4.41-2.054 4.37-4.505-.038-2.45-2.057-4.407-4.508-4.37zm.11 1.408c1.66-.024 3.03 1.302 3.053 2.964.024 1.66-1.307 3.03-2.97 3.05-1.66.02-3.026-1.31-3.05-2.97-.024-1.66 1.302-3.03 2.964-3.05zm-110.04 2.277c.222-.004.462.03.71.108 1.38.44 1.86 1.655 1.112 2.808-.59.905-.52.983.507.6.81-.3 1.222-.205 1.86.426 1.912 1.894-.935 5.077-2.807 3.148-.927-.955-1.015-.673-.372.968.21.53.553 1.356.553 1.356l-2.745-.04s.425-1.094.622-1.61c.475-1.243.49-1.425-.5-.643-2.233 1.764-4.765-1.254-2.71-3.228.418-.402 1.09-.42 2.022-.053.68.267.762.08.25-.56-1.11-1.395-.083-3.252 1.495-3.28zm56.89 4.887c-1.117 7.3-.14 17.56-.167 23.04 2.977.563 3.01 2.59 3.467 5.11 1.447-.505 4.61 1.632 5.043 1.444.33-7.415-3.527-28.94-8.345-29.605zm49.384 7.32c4.225.34 3.416 3.6 2.157 4.94-.596.685-.485.994.17.6 1.784-1.08 3.2-.3 3.775 1.56.983 3.17-3.188 5.903-5.048 3.06-.63-.97-1.017-.75-.86.26.093.972 1.043 2.99 1.043 2.99l-4.143-.374s1.265-2.106 1.49-2.673c.46-1.178.215-1.492-.67-.543-2.593 2.373-6.185-.664-4.51-3.81.824-1.55 2.346-2.052 3.99-.816 1.11.723 1.347.41.356-.468-1.85-1.64-.237-4.93 2.25-4.73zM39.88 136.52h.14c.358.005.73.104 1.1.313 1.03.58 1.313 1.72.667 2.715-.37.573-.263.934.17.56.577-.5 1.853-.17 2.35.61 1.28 2.004-1.218 4.623-2.813 2.956-.705-.735-.975-.765-.893-.282.23.907.83 2.455.83 2.455l-2.87.05s.62-1.63.76-2.456c.106-.65-.154-.553-.84.22-.663.75-1.27.824-2.116.263-2.09-1.387-.415-4.947 1.767-3.75.75.41.855.173.27-.604-1.05-1.387.02-2.977 1.486-3.048zm149.064-1.27c-4.648 4.8-3.19 1.96-1.036 5.622.01 2.413 1.42 4.302.3 8.11-.356.746-.39 1.1-.19 1.85-.34 4.207-3.71 4.153-6.99 4.806.543-.036 5.193 8.554-3.48 9.226l.1 34.92 13.6-10.027-.06-54.51zm-102.07 18.44c-3.857 2.483-9.275 8.694-16.088 7.344-.828 21.788-7.978 38.656-18.178 53.152 3.522 2.082 7.398 4.58 11 6.182 3.045-1.57 4.754-2.226 7.743-4.685 12.267-18.94 16.15-39.647 15.52-61.996zm32.02 3.983c.687 11.19 2.51 21.786 8.33 30.287l.393-23.78c-2.075-.496-3.774-1.836-4.38-5.64zm-42.07 6.6l3.89.093s-.883 1.758-1.265 2.74c-.468 1.202-.248 1.447.64.612 1.153-1.087 2.993-1.188 3.96-.22 2.57 2.576-.12 6.773-3.16 4.93-1.3-.786-1.52-.522-.485.594 2.01 1.864-.09 4.55-2.435 4.56-1.697-.007-2.797-1.364-2.93-2.86-.065-.94.407-1.884 1.224-2.343.85-.48.24-.79-.685-.29-3.02 1.62-5.04-2.55-2.76-4.927 1.312-1.37 2.702-1.245 4.04.06.93.914 1.264.833 1-.247-.264-1.214-1.04-2.71-1.04-2.71zm104.993 3.276l2.786.002c-.275.69-.63 1.393-.852 2.074-.24.743-.06.84.68.12 1.92-1.29 3.97 0 3.55 2.043-.288 1.41-1.468 2.102-2.83 1.49-1.203-.54-.818-.31-.134.513.812.98.605 2.12-.47 2.876-1.9 1.337-4.413-.884-3.154-2.823.74-1.15.4-1.026-.274-.47-1.014.744-2.547-.306-2.577-1.762-.117-2.094 1.997-3.272 3.487-1.79.71.597.887.524.567-.345-.292-.63-.387-1.305-.777-1.924zm.15 15.23l2.92-.037s-.04.224-.49 1.07c-.53.992-.45 2.02.103 1.322.93-1.18 2.91-.85 3.56.59.754 1.674-.718 3.526-2.247 2.822-.995-.458-1.063-.36-.403.595.643.925.358 2.07-.686 2.732-2.05 1.31-4.51-1.303-2.8-2.976.457-.447.313-.665-.242-.364-2.264 1.23-3.934-1.83-1.976-3.62.833-.764 1.47-.71 2.84.236.428.293.51-.01.2-.76-.522-1.275-.78-1.62-.78-1.62zm-108.425 1.83c3.25-.05 5.92 2.55 5.968 5.8.047 3.25-2.547 5.922-5.797 5.97-3.252.047-5.928-2.55-5.975-5.803-.046-3.25 2.553-5.92 5.804-5.97zm.067 1.05c-2.67.04-4.81 2.23-4.77 4.9.04 2.67 2.235 4.806 4.905 4.768 2.67-.04 4.804-2.236 4.766-4.906-.04-2.67-2.237-4.8-4.907-4.762zm.05 1.86c1.644-.028 2.994 1.283 3.02 2.93.023 1.64-1.29 3-2.93 3.02-1.647.024-3-1.29-3.025-2.936-.023-1.646 1.293-2.996 2.937-3.02zm-7.4 14.26l3.4 1.66s-1.608 1.31-2.247 1.98c-.815.87-.76 1.273.346.86 2.104-.79 4.212.392 4.25 2.58.054 2.91-3.394 4.32-5.05 2.11-.49-.66-1.08-.93-.85-.39.56 1.3.22 2.942-.758 3.62-.78.54-2.212.7-2.933.322-2.48-1.286-2.61-4.144-.237-5.272 1.193-.567 1.233-1.1.06-.807-2.443.61-3.867-2.347-2.106-4.378 1.87-2.157 4.92-1.71 5.255 1.48.06.565.447.155.62-.714.207-.644.254-3.053.254-3.053zm31.675 4.792s-12.444 7.08-12.065 7.38c.07.042 2.756 3.82 2.756 3.82 6.174-13.988 20.958-2.404 23.326 4.737.513.32.6.227 1.16.48.052-.505 1.077-5.465 1.077-5.465zM77.99 258c-.623.78-2.71 2.994-2.446 3.077 18.287 3.93 37.146 3.618 56.343 1.535l-1.466-4.61c-18.95 4.83-52.43 0-52.43 0z" fill="#d40000"/><path d="M31.82 28.675l1.12 257.077 160.478-.567-.962-256.82zm48.805 1.832l80.04-.327c-3.754 9.746-14.566 25.144-14.054 25.18-16.64-2.75-33.81-4.138-53-.04zm-46.952.626l44.915-.058 14.814 26.553s.87 1.657.35 3.39c-.567 1.892-1.054 2.732-1.564 3.698.05-.55-4.27-1.098-3.908 2.6.245 2.504 3.413 3.92 5.772 1.972.378-.03.375.318.292.93-.218 1.434-1.74 5.985-2.785 6.287-5.32-4.36-7.22 3.603-3.63 5.19 2.07.92 5.26.16 6.76-2.335 1.14-1.91 1.01-1.594 1.37.723.13.86.32 1.86.42 2.31.3 1.403 0 1.675-2.368 2.312-1.9.74-3.83 1.15-5.79 1.574-3.586.58-5.418 3.29-5.507 6.58-.02.71.006 1.04-.147 1.25-15.165 5.75-31.28 13.81-48.184 27.56zM135.506 94.18c-.574-.928-2.41-5.806-2.915-7.84-1.31-9.867-1.56-21.58-2.97-30.763l1.86.208s.697 2.66 1.447 9.843c.37 3.56.76 10.965 1.07 14.368.467 5.057 2.75 13.144 4.167 15.185 2.31 3.33 6.95 1.18 5.397-2.77-.805-2.05-3.923-1.72-3.49.41.007.38.296-.27.75-.67 1.348-.51 2.865.89 2.074 2.58-.982 2.157-3.89 1.174-4.853-1.544-1.152-3.246 2.73-5.68 5.63-3.7 3.235 2.206 3.24 7.797.637 9.56-4.382 1.6-7.363-1.594-8.794-4.856zm10.838 4.113c-.177-.104.006-.444.223-1.25.81-3.018.3-5.373-1.652-7.592-1.088-1.23-1.497-1.45-.928-1.67 1.208-.472 3.876 1.46 4.61 3.37.723 1.87.904 3.805-.115 5.92-.71.453-1.81 1.363-2.138 1.233zm3.303-2.01c-.002-.352.235-1.466.29-2.01.21-2.105-.774-4.243-2.516-5.914-1.46-1.41-1.59-1.55-.21-1.57 3.57-.06 5.85 5.7 4.2 8.55-.42.45-1.712 1.37-1.76.94zm3.022-1.952c1.05-4.91-3.71-8.19-3.81-8.04.235-1.1 2.124-.47 2.77-.04 2.402 1.62 3.785 5.84 2.31 8.24-.16.296-.36.465-.618.62-.496.31-.79.565-.89.346-.076-.165.2-.88.23-1.116zm-41.85-15.95c.49-.482.64-.5 1.6-.14 2.99 1.13 5.38-1.02 4.67-3.27-.256-.816-1.378-1.703-2.068-1.774-1.13-.116-1.15.48.064.933 1.494.557 1.645 2.142.33 2.857-1.545 1.043-4.074-1.603-5.93-1.38-.885.265-1.453 1.094-.946 2.107.395.713 1.73 1.143 2.27.677zm-3.32-.32c-1.04-.48-1.44-.47-1.24-1.603.13-.745 1.19-5.76 1.7-7.7 1.51-5.807.09-9.026-4.2-10.324-2.904-.88-5.405-.434-8.364 1.14l-.53-1.642c12.404-3.243 33.576-2.523 33.5-2.4.42 1.67.58 3.34.74 5.01 0 0-3.966-1.944-6.035-2.592-3.19-.977-8.227.094-9.12 1.924-.506 1.04-.242 1.73 1.9.577 3.506-1.888 10.666-.45 13.19 1.552.58.46.55.56.562 1.1.017.824.066.873-1.082.26-6.015-3.077-11.156-2.72-12.93 1.318-.41-.123-1.97-.392-1.97-.392l1.677 2.478.32 2.593s2.733 1.52 4.242 2.16c1.482.63.63-.04-1.196-1.308-1.338-.93-.273-1.23.61-.876 1.816.415 4.47.944 7.544-1.007.955-.608 3.14-.08 3.174.192 0 0 .292 2.268.58 7 .138 2.24.413 5.162.57 6.362.473 3.626.608 3.832-1.3 2.094-.64-.582-1.706-1.55-1.72-1.492-.24 1.125 2.574 3.1 3.23 3.777.994 1.03 1.792 3.666 1.394 3.82-.25.1-2.927-2.17-5.03-4.205-.79-.764-1.965-1.788-1.998-1.753-.436.29 1.33 2.284 2.986 3.776 1.93 1.74 2.154 1.895 1.505 2.157-1.2.486-2.277-.116-5.19-2.523-.28-.234-1.383-1.016-1.436-.96-.265.355 2.42 2.897 3.03 3.116 1.133.406 1.46 1.5.566 1.93-.596.286-2.82-.932-4.6-2.475-.32-.275-1.206-.746-1.264-.682-.354.227 1.64 1.95 3.54 3.093 1.86 1.12 2.16 1.397 1.684 2.328-.44.96-4.526-1.26-6.568-3.55-.437-.486-.78-.695-.694-.53.89 2.465 3.817 4.23 5.995 4.935.39.125.953.282 1.207.484.62.49.48 1.004-.19 1.293-2.323.65-5.986-2.16-8.605-5.106-.304-.122-.123.26-.043.39 2.183 3.49 6.37 6.14 8.89 5.648 1.47-.29 2.654.155 2.666.65.01.404-.803 1.05-2.387 1.163-3.58.253-9.18-3.67-12.46-8.66-.1-.16-.22-.215-.23-.12-.09 1.06 1.95 3.654 3.51 5.14 4.64 4.41 9.03 5.9 12.455 3.416 1.93-1.495 3.795-4.765.92-5.858-1.522-.58-2.485 1.514-1.183.915 1.71-.205 2.1.702 1.875 1.555-.436 1.463-1.888 1.696-3.068 1.08-2.05-1.11-1.616-4.924 1.042-5.59 2.396-.58 4.486 1.453 4.76 3.38.43 2.992-2.948 6.23-5.656 7.035-9.235 2.747-16.447-10.084-16.49-10.375-.462-.89-1.02-1.362-1.37-.323-.38 1.505-2.463 5.92-3.578 5.892.346-1.56 1.807-4.178 1.452-6.47-.62 1.883-1.92 5.9-4.4 8.04-.65.586-2.54 1.28-1.24-.23 1.573-2.21 3.63-5.23 3.203-8.07-.415.637-.642 2.25-1.12 3.316-1.193 2.667-3.8 5.833-5.522 6.346-1.27.38-1.152-.05.15-1.42 1.395-1.47 3.866-5.786 3.703-7.647-.07-.82-2.564 7.105-7.25 9.276-1.265.46-1.984-.12-1.984-.12 1.84-1.06 6.93-6.08 6.45-11.777l-.674 2.11c-1.726 5.436-5.43 9.012-8.32 9.31-2.307.235-3.917-.696-3.345-1.106 2.99.024 5.448-1.01 7.368-3.924 1.95-2.964 2.68-7.72 1.497-12.76-1.068-4.54-1.3-8.626-1.675-12.993 3.276 1.12 6.572 1.863 9.762.617-.32 1.303-.855 1.465-1.696 2.447-.61.72-.4.89 1.98-.793.698-.49.948-.88 1.07-.75.207.215-.11 1.55-.803 4.22-1.036 3.997-.767 4.28 3.07 5.787.715.28.98.557 1.233.856.115.14.744 1.275.804 1.315.14.098.103-1.152.026-1.47-.207-.84-.66-1.47-1.057-1.714-.754-.693-1.84-.755-2.536-1.073zm72.42 52.08l.03-4.144 4.03 2.86-.05 1.367zm-6.89.9l-.15-76.68s3.09-2.05 4.636-3.07c.965 3.04.96 9.56.597 12.464-.606 1.89-.876 10.305-.19 14.586.547 3.412.446 9.056-.07 11.76-.2 1.053-.046 6 .334 10.58.29 3.494.206 6.674-.217 8.494-.333 1.434-.22 6.573.16 8.545.56 2.9.656 12.214.405 12.72-.665.752-5.86.86-5.51.6zm6.12-80.243s3.114 2.057 4.615 3.085l.02 3.303-4.497-2.936zm-46.47 5.333l1.926.12c.767 3.994 1.1 8.533 1.405 13.084.1 7.016.97 14.417 2.617 19.267l-1.416 1.49c-2.41-5.56-2.6-14.327-3.14-20.26-.234-6.676-1.332-13.65-1.387-13.695zm46.848-.7l4.19 2.836.042 3.594-4.22-2.8zm-44.07.965l1.692.184c.515 4.74 1.303 7.953 1.604 13.18.387 6.75 1.558 12.3 2.286 17.572l-1.267.42c-.85.393-2.254-5.842-2.88-18.48-.19-3.826-.837-8.13-1.436-12.88zm2.56.178l2.02.362c.892 12 2.303 23.27 3.78 29.727l-1.755.116c-2.178-9.23-2.32-19.91-4.046-30.207zm2.916.426l1.855.32c2.23 27.44 3.61 27.09 4.04 28.17l-2.01.81c-2.17-7.887-2.61-19.005-3.89-29.305zm8.426 26.95c-.318.925-1.07.84-1.89.934-.92-2.522-1.458-5.53-1.843-8.472-.848-6.465-1.154-12.527-2.036-18.91l2.22.23c-.076.05 1.57 22.502 3.55 26.22zm-47.63-24.12c2.918.14 5.34 1.45 5.572 3.364.052.43-.29.222-.685-.08-2.51-1.924-5.366-2.524-8.814-1.283-.752.27-1.367.7-1.702.64-.3-.192-.39-.66-.16-1.045.807-1.345 4.35-1.666 5.797-1.596zm-6.767 3.846c.063 3.022-.673 4.69-2.26 5.387-1.913.843-4.368-.962-3.175-2.98.903-1.528 2.453-1.068 2.748.536l2.432-5.418s.25 1.715.256 2.472zm88.834-.485l-.026 3.118-4.48-3 .3-3zm-79.615-.403c2.21.876 3.023 1.945 3.105 2.42-.128.355-.35.113-1.963-.758-2.487-1.526-5.727-1.774-8.575.16-.71.14-.79-.262-.07-1.027 2.16-1.7 5.16-1.723 7.5-.797zm16.79-.583c1.947-.062 4.272.433 6.237 1.418.86.437 1.64.708 2.21 1.21.45.235.49 1.263.152 1.34-.297.042-.78-.19-1.506-.695-4.667-3.03-8.026-2.657-10.724-.79-.15.102-.613.208-.796.194-.513-.04-.54-.25-.325-.53 1.25-1.41 3.118-2.09 4.747-2.146zm58.324 2.18l4.497 3.144-.003 3.09-4.78-3.33zM98.113 65.64l.657.018c1.53 3.71 3.45 1.797 4.25.312l.8.13c-1.253 4.968-6.348 2.37-5.706-.46zm-1.118.493c.743.09.717.93.95 1.543.52 1.368-1.452.21-1.79-.123-.573-.602.24-1.358.84-1.42zm22.26-.144c1.94 2.95 3.058 1.2 4.164-.09l.52.17c-.14 2.12-3.707 4.374-5.4-.037zm5.964.33c.2 0 .62.15 1 .3 1.06.43 1.003.742-.17 1.264-1.88.836-2.53.944-1.97-.236.323-.54.54-1.255 1.13-1.336zm-7.37.45c.47.34.78.73.84 1.35.03.44-1.43-.068-1.43-.77.042-.446.29-.808.583-.588zm-13 .17c.962.35.85.81.175 1.23-1.205.67-1.72.54-.94-.52.36-.49.436-.71.764-.72zm74.14 1.55l4.87 3.42-.045 3.142-4.866-3.318c-.228-1.348-.014-2.253.04-3.25zM94.82 73.35c.23.005.32.77.373 1.884.09 1.856-1.8 4.44-3.71 5.33-2.3 1.073-4.76-.43-4.35-2.66.38-2.05 3.3-2.137 3.41-.24-.285.5.112.917.275.873.75-.2 2.52-1.793 3.24-3.574.28-.694.45-1.408.65-1.57.04-.03.076-.045.11-.044zm84.04-.58l4.867 3.55.022 3.124-4.828-3.32c-.193-1.39-.11-2.385-.064-3.354zm-59.06 4.945c-.366.62-.065 1.726.69.783 1.94-2.26 4.75.566 3.245 2.36-1.364 1.63-3.04 1.105-6.586-.25-2.58-.983-2.99-.65-3.625.064-.523.587-.256 1.767.423 1.753 2.09.475 3.9.937 6.07 1.39 4.575.94 7.366-4.958 3.185-7.125-1-.517-3.07.156-3.4 1.026zm-20.2.68c-1.786 1.6-.32 5.806 2.306 6.182.55.077 1.372.054 2.305-.215 1.838-.53 3.864-1.62 3.947-2.25.377-2.88-3.91-.3-4.476.04-1.352.82-2.782.716-3.503-.26-1.622-2.195 1.288-4.715 3.055-2.03.446.68.29-.47-.197-1.25-.688-1.102-2.46-1.03-3.438-.22zm79.582-.907l4.573 3.23-.026 3.01-4.436-3.2zm.34 4.4l4.333 3.117.074 3.126-4.547-2.993c.09-1.126.113-2.184.143-3.25zm-24.29 1.796c3.81.062 5.96 5.69 3.95 8.03-.6.698-1.075.885-1.345.625-.06-.054.037-.683.076-1.395.124-2.27-.36-3.82-2.018-5.545-1.247-1.293-1.718-1.693-.665-1.715zm-46.906.896c-.72.257-1.48.776-2.07.648-.58-.126-.86.162-1.088.62-.873 1.745-.603 2.31 1.125 1.318.82-.47 1.105-.3 3.3.113 1.57.3 2.636.27 4.016-.09 1.72-.444 2.74-.48 3.61-.004.867.476 1.46 1.13 1.483.597-.096-.622-.64-2.216-.766-2.746-.06-.253-.487-.03-.89 0-1.423.104-3.12-1.175-4.22-.5-.878.54-.994.684-2.2-.024-.9-.527-1.52-.2-2.3.076zm45.882.392c2.58 2.153 3.24 4.064 2.99 5.632-.13 1.14-.214 2.4-1.33 3.087-.208.097-.515.16-.8.2.867-3.24-.155-6.14-3.8-9.237 1.06-.526 2.14-.35 2.94.315zm-58.175 0c.112 0 .24.017.366.06.447.146.52 1.32.166 1.685-.353.366-.637.063-1.045-.868-.307-.51.01-.88.51-.88zm-2.385.91c.943-.02 1.3.843 1.46 1.53.14.586-.035 2.333-.535 1.724-.12-.37-.63-1.565-1.04-1.876-.91-.696-.82-1.36.12-1.38zm-2.65.87c.137-.006.314.01.528.047 1.47.248 2.597 2.588 2.255 3.916-.78 1.43-1.07.465-1.326-.83-.2-.536-.802-1.378-1.17-1.81-.766-.904-.885-1.306-.288-1.32zm88.4-.68l4.477 3.207.007 3.436-4.687-3.15c.106-1.2.16-2.35.203-3.493zm-91.31 1.39c2.194.004 4.066 2.553 3.375 5.01-.854 2.563-5.12 2.016-4.414-.54.205-.734.99-1.272 1.74-.812 1.082.66.963-.42.276-.806-1.06-.592-2.52-.233-2.843.966-1.132 4.18 4.242 5.607 7.167 1.288 1.07-1.58 2.236-3.268 2.878-3.988.576-.648.7-.58.606.255-.372 3.884-3.08 8.74-8.16 8.473-4.938-.466-6.482-5.704-2.753-8.973.628-.55 1.288-.82 1.927-.866.072-.004.142-.01.212-.01zm26.16.212c-1.805.875-3.442 1.206-5.22.43-1.315-.57-1.294.05-.723.56 1.652 1.407 4.655.77 5.942-.02.416-.258.553-1.002 0-.97zm69.64 6.21l.015 3.122-4.995-3.348c-.08-.747.005-1.883.17-3.055zm-4.817 1.042l4.756 3.134.126 3.09-4.624-2.867zm.33 4.34l4.545 3.145.066 3.38-4.502-2.965zm-110.85 3.56l-2.782 8.404 1.823.11 1.23 2.217 1.264-2.27 1.917-.14zm111.047 1.12l4.38 3.01.064 3.122-4.553-3.147zm-.18 3.82l4.49 3.245.09 3.316-5.09-3.39zm-100.49 1.877l-2.757 9 1.553-.212 1.454 2.407 1.47-2.162 1.39.08zm-20.74.67l-2.62 8.944h1.76l1.49 2.255 1.302-2.177 1.993-.055zm120.65 1.646l5.27 3.7.05 3.52-5.11-3.42zm5.21 8.36l.06 3.087-4.43-3.157-.48-3.42zm-94.093.534l-3.22 9.09 2.16.02 1.308 2.184 1.05-2.2 1.735.02zm90.014.907l4.116 2.82-.033 3.166-4.05-2.713zm-77.986 36.785l-2.344-2.253c-.03-.183 1.918-1.126 3.117-.526 1.583.792 2.396 3.64.624 5.14-1.41 1.192-3.56.2-3.603.06zM99.9 154.83c.04-3.48-1.79-4.374-3.308-5.08 0 0-.256-22.053-.22-22.712 0 .096-.39-2.388-.436-2.535 0 0-.364-.097-.364-.093.063 2.236.21 25.152.174 25.3-2.837.328-3.63 2.25-3.886 4.827-2.213-.166-3.653 1.166-3.697 1.387-.82-1.122-.21-2.776-.852-3.947-1.96 6.858 1.857 10.96 5.186 10.58.533 6.583 7.785 7.773 7.54-.213 8.773-.515 5.8-8.58-.136-7.514zm-41.23-27.688l-3.176 8.906 2.227-.254.82 1.643c3.566-3.142 5.367 1.71 3.55-2.45zm120.75 15.847c.41-.04.95.33 1.057.84.078 1.5-1.943 1.16-2.007.21-.046-.676.565-1.03.95-1.06zm1.32 9.77c.872-.718 2.26-.31 2.282.764.018.955-1.077 1.27-1.933.733-.67-.405-.71-1.16-.35-1.5zm.124 2.65c4.778.36 8.33-2.88 6.81-5.21 1.282-1.61.235-2.54.586-3.466 1.014-1.04.166-3.275-.088-3.283-.208-3-1.08-3.385-2.376-4.983-.39-.463.908-.916 1.407-1.713-1.32.51-2.618-.47-2.61-.693l-.563-.697c-8.845.41-16.788 1.03-16.488 13.02-1.274 5.09.882 9.625 7.056 8.224 1.352-1.205.46-2.955.296-3.796-.528-2.312.08-3.816.25-4.9.526-3.352 2.983-6.464 3.25-1.21.43-.66.228-.756.94-1.03 1.694-.61 1.69 1.1 1.344 1.793-.223.355-.56.325-.904.285-.493-.06-1.137-.24-1.148-.42-.133.545.896 1.56.79 2.07-.137.488-.224.45.226.127 2.128-1.522 3.46 1.88.38 1.49 1.518.81-.727 3.18.84 4.394zm-3.15-18.307c1.68-.085 2.08-.1 2.003.78.318 1.624.725 2.38 2.843 2.207 2.134-.277 2.81-.41.663.88-1.086.48-1.438.57-2.724.455-1.3-.114-1.2-.245-1.94.197-.42.247-.87.548-1.21.61-.5.09-1.376.28-1.376.28-.498 2.523-1.257 3.793-2.3 4.992-1.48 1.68-2.23 1.972-.417 1.846.67.044.323-.292.616 2.427.103.954.28 2.058.422 2.43.47 1.24.532 1.854-1.26 1.942-4.47.34-5.517-4.018-4.92-6.24.05-.35.254-1.51.3-2.428.022-.503-.08-.93-.066-1.44.1-4.15 1.08-5.24 4.763-7.94 1.11-.812 3.104-.98 4.587-.997zm3.93.224c2.065-.043 4.06.95 3.065 1.593-.65.416-2.97.243-3.61-.216-.84-.59-.52-1.353.54-1.375zM89.57 140.85l-.818 1.45-.855 6.75.152 1.37 1.69 2.214 1.33-2.294 2.1.037zm96.542-.673c1.337.267 1.39 1.49 1.05 2.24-.747 1.65-5.75 2.45-5.75 2.45-.04-.708.058-1.39-.462-2.19 0 0 3.332-.87 4.036-1.514.47-.43.756-.97 1.126-.986zm.99 3.76c.484.006.742.36.873 1.07.063.384-.08.71-.393 1.13-1.27 1.38-4.84 2.336-6.13 1.985-.09-.12.13-1.573.223-2.22 1.716.052 4.607-1.47 5.427-1.965zm-50.888 8.5c-1.705-2.46-5.49-2.1-5.083-1.93.03-2.107-.33-5-3.53-5.31-3.22-.243-4.88 4.012-3.66 5.813-1.99-.826-4.97 1.245-4.97 1.44-.254.008-2.536 6.037 4.368 6.347.63 2.85 1.706 4.226 3.913 5.397l.053 23.23.78 1.055.07-24.345c3.53-.158 3.968-4.2 3.706-5.13 1.57.065 2.993-.25 4.194-1.166l.413 3.967s.83-1.4.646-2.14c-1.538-22.813 6.715-47.494 17.55-63.492.58-.67.757-1.472 1.043-1.48 2.643-1.422 4.312-2.38 4.312-2.38 4.356 2.094 12.137 7.148 12.137 7.148l.128 32.51c-.12-.32 14.498-1.63 14.278-1.235 0 0-1.28-.506-1.3-1.36l-.38-76.077-6.393-4.176s-5.26 3.435-6.73 4.61l.16 44.79-11.33-6.637s.185-1.583.2-2.097c-.18-6.112-3.18-8.163-8.894-6.35-.764.243-1.297.456-1.67.143-2.407-7.03-3.49-25.51-3.486-25.51l16.12-27.31 27.35-.15.47 104.35.99 54.694-13.96 10.17-.202-35.036s-2-.956-2.525-1.02c-.2-.015-.45.425-.097.652.513.325 1.775.783 1.775.783l.295 34.726s-5.427 3.65-7.854 5.174c-1.81 1.124-7.53 4.005-10.92 5.664-1.316.646-2.644 1.16-2.766 1.26-4.615 1.986-8.777 3.375-12.624 5.42-2.653 1.088-2.534.024-3.1-.844-5.54-5.48-12.692-5.803-18.49-3.274-.895.334-2.01.624-2.76 1.145-.215.16-.593.34-.84.4-.51.12-1.065.346-1.53.715-.835.657-1.39 1.732-1.866 2.798-.297.66-1.18 3.74-1.3 4.654-.02.154.295.12.306.135.04.055.89-3.73 1.23-4.447.72-1.53 1.627-2.447 2.108-2.59.22-.04.41.302.113.84-.59 1.07-1.07 3.35-1.213 4.374-.127.948-.153 1.708.024 1.74.03.03.87-2.867 1.245-3.89.98-2.668 1.6-3.773 2.55-4.342.97-.582 1.2-.5 1.006.12-1.444 2.816-2.04 4.945-2.322 7.944-.043.6.26.615.498-.375.79-3.15 1.877-7.406 4.44-8.677 1.097-.495 1.583-.47 1.466-.118-3.053 3.857-3.82 8.14-3.78 9.523.01.463.2.37.59-.63 1.034-3.8 2.567-7.033 4.387-8.62.704-.614 1.556-.783 2.27-.87 2.156-.27 2.23.53.353 1.624-2.14 1.245-4.612 5.775-4.887 9.177-.096 1.18.32 1.306.615-.264 1.268-6.76 7.065-11.23 11.71-9.16 2.09.93 2.47 2.227.65 1.65-3.682-1.164-7.773 1.447-9.46 5.09-1.524 3.29-1.49 5.02-.42 9.43.73 4.073 2.157 9.28 1.687 13.266-.507.775-2.106-.32-3.995-.552-1.14-.213-2.532-.267-3.72.188-1.04.397-1.627.496-1.82-.062-.06-.18.8-1.057 1.185-1.543.613-.774.26-.9-.604-.055-.423.41-1.333 1.378-1.583 1.428-.545.11-.567-.505-.126-2.072 1.55-6.084 1.136-6.187-1.52-7.42-2.626-1-1.795-1.506-2.96-2.5-.82.64 1.07 3.58 3.21 4.223 1.754.527 1.54 1.42.774 3.83-.778 3.37-2.105 7.833-1.337 10.827 1.61 6.29 8 6.16 12.89 3.62l.597 1.602c-4.137 1.676-25.936 3.107-33.28 2.263-.57-1.988-.627-2.498-.857-4.835 0 0 4.54 2.05 6.805 2.405 2.828.443 7.184.464 8.3-2.14.34-.764-.01-1.41-.986-.967-1.795.812-4.86 1.414-7.34 1.26-2.08-.13-5.04-.962-6.323-1.734-.61-.368-1.12-1.085-.644-1.985.424-.093.98.374 1.31.543 3.75 1.894 5.81 2.26 8.255 1.535 1.857-.55 4.357-2.553 3.74-3.12-.627.217-2.707 1.964-4.14 2.345-2.953.782-6.1-.42-9.167-2.405-.947-.82-.515-1.42.644-.762 4.59 2.31 6.51 3.846 10.902.6.98-.727 1.53-.634 2.104-.193 2.28 2.04 2.275.893.603-1.23-.38-.483-.725-1.16-.95-1.878-.17-.534-.208-1.066-.51-1.415-.52-.597-1.454-.886-2.52-1.356-1.54-.677-2.054-.35-.917.203 1.99.97 2.96 2.01.49 1.45-2.245-1.004-5.992-.442-8.112 1.03-1.664.81-2.397 1.68-2.79-.156-.823-3.833-.02-9.03-1.124-15.718-.21-1.275-.467-2.083-.2-2.257.342-.224 1.196.6 2.256 2.088.48.68 1.44 1.984 1.434 1.71.038-1.414-2.165-4.07-3.983-5.12-1-.573-1.676-3.23-.533-2.646.883.43 5.47 4.46 6.346 5.9.406.67.75.24.32-.545-.26-.47-1.338-1.856-2.385-2.88-1.86-1.815-2.074-1.73-1.717-2.102.705-.735 2.217.213 4.912 2.65.694.874 1.608 1.66 1.495 1.228.276-.68-2.422-3.58-4.023-4.356-.3-.187-.34-.384-.31-.745.15-1.37 3.25.64 5.82 2.99.96.88.163-.775-.95-1.9-.88-.883-2.29-1.983-3.25-2.36-.95-.392-1.01-1.222-.265-1.57 2.575-.11 5.235 2.524 6.82 4.594.437.57.84 1.006.383-.07-1.467-3.24-4.522-5.067-6.64-5.437-1.716-.3-1.68-1.85-.063-1.677 1.778.194 4.687 1.798 7.154 4.28.72.72 1.927 2.36 1.678 1.4-.003-.26-.76-1.286-1.636-2.275-2.02-2.003-4.365-3.774-6.85-4.3-1.165-.33-4.616.335-4.636-.263-.01-.44.36-.705 1.46-1.07 4.266-1.42 10.51 2.245 13.925 7.878.245.403.708.575.736.484-1.648-4.603-6.77-8.776-10.846-9.49-2.77-.445-5.565.262-6.894 2.13-1.495 2.1-.91 4.91 1.335 4.686 1.18-.11 1.085-.778 1.06-.8-.08-.08-.76.243-1.185.16-1.537-.3-1.376-3.078.87-2.804 2.584.315 2.95 4.39.06 5.247-2.664.79-3.64-.427-4.37-1.87-1.067-2.115.08-5.525 1.96-6.83 5.27-3.66 11.935-.59 15.7 3.035 1.865 1.793 3.226 3.93 4.08 6.23.22.534.617.502.475-.07-5.296-13.51-21.1-14.97-23.45-4.607 0 0-.08.316-1.6-1.845-2.464-3.503-6.144-4.283-10.676-1.896-4.58 1.72-6.123 2.815-9.298 4.457-.464.164-3.4 2.19-3.87 1.77-4.497-2.98-8.418-4-10.553-6.185.074-.4-.306-6.46-.306-6.46l.104-26.124c.03-.255-2.38.173-6.395.803-10.68 2.13-9.745-3.486-11.158-3.88-.747-.15-.692.17-.895-19.97-.06-5.85-.175-16.135-.26-22.856-.087-6.72-.11-12.32-.05-12.437.06-.115.66-.63 1.352-1.12 2.604-1.845 4.065-2.96 9.76-7.305 1.29-.984 1.614-1.15 1.614-1.15.654 12.1.067 24.81.39 35.21l.48.004-.187-34.936c-.98-.257 22.454-13.97 35.298-18.42.24-.083.84.185.84.185 7.372 9.034 26.768 6.3 28.33-4.7 3.214 6.706 17.332 19.73 23.783 4.03 0 0 2.34 4.51 4.346 4.808 4.508.598 5.008-.114 14.93-4.926-11.345 17.21-17.6 35.436-18.402 57.507zm-6.03-4.29c.248.76.332 1.74.12 2.514-.29.61-.722.6-.722.6l-2.197-1.88-2.15 1.995s-1.314-1.326-.592-3.16c1.375-2.57 4.523-2.105 5.542-.07zm56.772-.307c1.407-.09.68 1.53-1.4 2.626-1.307.69-2.39.882-2.858.634-.257-.76-.04-1.453.12-1.762.888-.455 3.328-1.255 4.138-1.498zm-90.81 3.05c1.563-.04 2.916 1.073 2.966 3.044.02.802-.39 1.6-.39 1.6l-2.61-1.926-1.994 2.127c-.34.12-1.56-1.4-.722-3.06.61-1.203 1.682-1.76 2.75-1.783zm37.733.904c2.19.994 2.57 4.063.44 5.245-1.02.56-2.61.873-3.36-.264l2.16-2.35-2.48-2.082c-.1-.097 1.89-1.156 3.23-.548zm52.69-.808c.38 0 .47.143.58.496.31 1-.478 2.01-1.83 2.33-1.25.294-1.13.44-1.72-.676-.465-.87-.588-.834.137-1.11.88-.28 1.815-.614 2.827-1.036zm-62.44 1.504s-1.56 1.583-2.24 2.245l2.343 2.444c.113.295-2.704 1.57-4.186-.35-.96-1.25-.42-3.627.947-4.44 1.395-.834 3.394-.14 3.135.1zm3.355-.276c1.383-.02 2.52 1.08 2.54 2.465.02 1.38-1.084 2.52-2.468 2.54-1.384.02-2.525-1.09-2.545-2.47-.02-1.385 1.09-2.52 2.47-2.54zm-34.25 4.214l-2.248 2.353 2.43 2.65s-1.923.313-2.606.185c-3.31-.62-2.986-4.5-.427-5.524 1.08-.38 1.88-.253 2.847.34zm-44.117.8s.443 4.983.847 6.686c-.265 1.943-1.522 3.266-2.09 5.26-.3.887-1.43 2.08-1.65.83-.82-1.544-.036-3.454-.712-4.554-.342-1.03-.24-1.62-.468-2.698-.5-.875-.9-1.288-.833-2.08-.134-3.525-1.014-2.827-2.578-2.54-1.29.426-3.03.597-4.05 1.35-2.217 1.56-1.01 2.455-1.847 4.81.13 1.03.383 1.403.202 2.293-.857 4.207.72 3.86.672 3.924-.657.964.154 3.14.47 3.03 1.924.47 1.23 1.874 1.853 2.62.626.72.593 1.084 3.23 1.15 4.764.372 12.334-.336 13.97-6.144 1.02-8.19 2.512-15.405-7.024-13.944zm47.36-.803c1.337-.02 2.435 1.047 2.454 2.383.02 1.336-1.05 2.434-2.385 2.453-1.337.02-2.435-1.043-2.454-2.38-.02-1.335 1.046-2.433 2.382-2.452zm-45.274 1.27c.9-.01 1.963.18 2.835 1.015 1.87 1.792 1.95 3.417 1.122 10.314-.234 1.943-.918 3.567-1.824 4.275-1.82 1.42-4.05 2.43-5.886 2.883-.97.24-1.815.245-2.47.24-.71-.005-1.12-.332-1.174-.926.158-1.606-1.482-1.762-2.432-1.67-1.693.066-1.866.244-.81-.574 1.206-.935 3.984-.948 4.512-.4 1.082-1.086 2.212-1.213 3.595-1.374-.203-.3-.7-1.5-.37-2.274.716-1.26 1.92-3.48 3.186-4.314 1.25-1.638.19-.898-.586-.87-.445.016-.407-.13-.48-.427-.31-1.277-.754-3.66-.757-5.08 0-.683.64-.812 1.54-.823zm-7.97 1.766c.49.44.483 1.046-.03 1.497-.59.518-1.755.233-1.784-.74.078-.98 1.222-1.257 1.814-.752zm84.42 3.457c-2.03.1-3.704-2.07-2.938-4.233.416-.585.596-.5.596-.5l2.31 2.063 2.22-2.32c1.828 2.206.26 4.83-2.19 4.993zm-86.89-3.36c-.17.634.05 1.265.08 1.573-.405.285-2.12.786-3.038 1.24-.64.22-1.104-.38-1.015-.93.24-1.02 1.74-1.686 2.83-2 .337-.085.89-.116 1.135.116zm.373 2.92c.617-.075.435 1.27.203 1.96-.23.49-.91.47-1.523.506-1.08.062-2.44 1.31-3.025 1.11-.194-.09-.333-.605-.353-.93.127-1.798 3.112-2.457 4.7-2.648zm3.265 1.87c-.208.302-.87.45-1.426.295-.91-.25-1.048-1.553-.25-2 1.406-.466 2.25.854 1.673 1.705zm89.712-2.966l-1.232 1.877-1.87-.032 3.027 9.28 1.4-3.627c.19-1.666.41-3.33.582-5zm-39.825.784l2.393 1.95 2.053-2.096c1.527 3.406-.233 4.965-2.106 4.924-2.07-.045-4.27-2.002-2.346-4.775zm-52.553 3.52c.76-.143.436 1.906.33 1.965-.483.18-2.57.45-3.45 1.192-1.872 1.468-2.67.573-1.804-1.185.82-1.02 3.84-1.95 4.926-1.97zm2.384.098c.836-.077 1.42.846.91 1.726-.69.646-1.903.175-1.9-.735-.003-.57.47-.955.99-.985zm-1.23 5.2c.115.48-.052.33-.93.59-.482.14-1.242.464-2.033.864-1.16.583-1.485.9-1.897.832-.327-.072-.704-.213-.806-.545-.403-1.324.676-2.674 3.19-3.602.522-.19 1.456-.347 1.776-.383.853.006-.058 1.315.702 2.247zm1.486-1.992c1.212-.017 1.44 1.595.53 1.88-2.126.55-1.946-1.88-.53-1.88zm-1.5 5.94c.34.328.39.865.007 1.145-.702.345-3.397.05-3.415-.706-.01-.5.89-.667 1.728-.684.838-.018 1.407-.02 1.68.242zm121.656.826l-2.22 2.97 2.98 7.456 2.72-9.03-2.132.846zm-125.62 7.66c.517 22.97.43 75.61.43 75.61l6.537 4.44 6.883-4.946c-.07-16.568-.136-27.996-.2-43.335l10.085 5.54s.31.445.262 2.52c-.696 5.722 4.84 9.44 8.512 7.18 1.416-.598 1.53-.704 1.83-.256.825 1.23 1.756 6.504 1.91 9.87.236 5.067 1.57 15.402 1.89 15.47l-16.42 27.82-25.59.122-.292-103.443c1.33 1.566 1.936 2.593 4.16 3.41zm95.258-2.214l-1.232 1.88h-1.485l2.607 9.613 3.155-9.4-1.74-.218zm-82.2 76.664s-3.195 2.296-4.215 2.955c-.538.2-.798.238-.925-.275-.157-.63.094-1.823.316-3.795.207-1.825.206-1.927-.097-4.526-.318-2.716-.356-2.83-.1-6.41.287-4 .343-7.88.026-10.28-.3-2.286-.294-7.495-.064-10.4.28-3.56.19-6.685-.28-9.268-.83-4.602-.97-6.19-.1-9.652.325-1.297.486-1.986.42-4.157-.077-2.413-.12-3.2-.986-8.546-.496-3.075-.535-3.5-.07-8.366.095-.982.127-1.64.502-1.95.437-.365 4.993-.63 4.993-.63zm-11.98-74.36l4.96-.053c-.382 1.555-.47 2.737-.507 3.86l-4.41-2.896zm.07 1.987l4.365 2.85c.003 1.202-.086 2.35.09 3.55l-4.42-2.936zm.01 4.52l4.67 3.193c.182 1.242.562 2.5.71 3.62l-5.297-3.586zm151.025 1.26l.244 91.72-46.49.206-14.738-28.31s.15-2.604.516-3.933c.44-1.605.556-1.955 1.174-2.03 1.656.856 3.5-.284 4.064-1.537.694-1.546-.714-3.88-2.873-4.39-.95-.225-1.992.2-3.043 1.005-.61.51-.75.568-.87.124-.273-1 .615-3.715 2.2-6.046.88-1.294 1.12-1.67 1.407-1.174 1.155 1.995 3.63 1.58 4.57.455 1.138-1.363.9-4.472-1.675-5.297-5.04-1.612-7.35 3.444-7.29 3.432l-1.076-6.064c6.065-1.485 9.566-2.01 11.493-3.85 1.516-1.446 2.24-3.95 2.05-6.175 0 0 16.852-6.842 24.737-11.092 13.578-7.318 25.6-17.04 25.6-17.04zm-25.658.664l-1.246 2.19-1.765.003 3.576 9.26 2.73-9.663-1.703.15zm-125.15 2.656l5.35 3.69c.118 1.198.272 2.265.11 3.622l-5.632-3.726zm104.402-1.134l-1.335 1.77-1.533-.163 3.01 9.165c.915-2.65 1.748-6.247 2.65-8.9l-1.42.07zm-104.5 5.844l5.534 3.668c.02 1.133.074 2.2-.32 3l-5.226-3.352zm114.87.53l-1.345 2.585-1.79-.24 3.2 8.783 3.5-8.704-2.164.113zM40.21 203.58l4.8 3.524c.07.05-.268 1.608-.192 2.49l-4.567-2.814zm.128 4.36l4.477 3.074c.01 1.165.09 2.262.274 3.254l-4.86-3.155zm-.076 4.44l5.175 3.685.274 2.96-5.48-3.447zm42.604 1.235c4.967 1.852 9.624 11.296 9.48 23.524-.098 8.49 2.466 20.6 2.42 20.46 0 0-1.442.192-1.85-.128-1.87-6.232-2.493-12.82-2.79-18.25-.24-4.53-.502-8.976-.79-10.015-.815-3.65-1.7-7.91-4.034-10.69-1.82-2.09-3.894-2.46-5.133-.105-1.02 1.926 1.12 5.113 2.89 4.054.43-.24.682-.65.12-.64-1.843.273-3.08-2.275-1.915-3.49 2.053-2.14 5.645 2.627 3.98 5.25-.735 1.134-2.654 1.334-4.19.916-3.417-1.652-4.274-5.696-3.13-8.36.87-2.032 2.785-3.246 4.93-2.53zm-6.008 1.215c.403.014.128.76-.244 1.92-.88 2.782.77 7.104 3.052 7.965.685.466.648.643.19.9-1.49.837-4.194-1.674-4.908-4.472-.516-2.023-.39-4.412.584-5.426.532-.555.954-.847 1.24-.886h.086zm-36.65 1.64l5.526 3.61c.257 1.125.145 2.33-.028 3.54l-5.532-3.856zm33.35-.05c.41-.013.256.674.142 1.927-.264 2.902.635 5.012 2.686 6.765.864.74 1.102.97.73 1.358-.53.55-2.044-.186-3.232-1.424-2.175-2.27-2.896-6.55-1.2-8.1.37-.34.658-.52.873-.527zm61.47.504c2.36-.092 4.354.824 4.573 3.71.33 4.224-3.61 6.535-6.36 4.11-2.46-2.436.04-6.248 2.89-4.462 1.44.905-.28 2.967-1.44 1.9-.52-.48-.75-.18-.38.374 1.128 1.676 3.34.282 3.18-1.195-.31-2.9-3.88-2.86-5.22-1.73-1.838 1.56-3.458 3.85-4.665 5.52-.99 1.45-1.202 1.41-1.056-.38.384-4.73 4.802-7.7 8.486-7.842zm-64.312.924c.376-.014.226.525.255 1.916.16 3.57 1.66 5.79 3.57 7.035.64.7-.18 1.2-1.38.86-2.74-.846-5.54-6.736-3.215-9.27.326-.356.583-.542.78-.55zm-2.666 1.17c.38-.024.165.764.2 2.253.076 3.14 1.046 4.64 3.376 6.56.76.622.854.552.554.9-.798.917-3.502-.385-4.655-2.26-1.372-2.235-1.573-5.605-.297-6.878.357-.36.623-.557.822-.57zm-2.652 1.51c.315 0 .14.567.188 1.92.117 3.28.867 4.906 2.95 6.424 1.307.954 1.625.668 1.225 1.045-.7.66-2.61.092-4.05-1.12-2.15-1.82-2.76-6.31-1.01-7.845.32-.274.54-.426.7-.425zm-25.096.463l5.31 3.68-.15 3.11-5.283-3.57zm92.854 5.83c-2.163-.44-2.98-2-2.717-3.77.08-.59.43-.93.8-.152.32 1.226 1.13 2.924 2.25 3.254.45.133.07.76-.34.674zm-46.494-3.67c2.44 6.14 2.395 12.85 2.8 19.18.537 8.43 2.027 14.1 2.514 15.05 0 0-2.38.03-2.502-.31 0 0-2.246-11.17-1.908-16.693.024-6.18-1.18-11.613-1.914-14.055-.778-2.163-.81-.734 1.01-3.164zm-46.39 2.4l5.11 3.34c-.073 1.14-.083 2.287-.07 3.43l-5.007-3.544zm68.7-.29c.005.19.74.347 1.892.068 1.28-.31 2.553-.254 3.536.016 1.045.286 1.16-.05.215-.463-.46-.2-1.194-.66-2.292-.64-1.098.02-3.358.62-3.35 1.023zm20.697-.13c.12.23.51.75.86 1.15.65.766.84.77.54 1.08-.69.72-2.14-.32-2.29-1.65-.14-.97.35-1.58.88-.574zm-45.75.26c2.38 3.4 2.74 11.38 2.78 17.05.044 5.105 1.77 14.458 1.91 14.417-.49.29-1.15.19-1.77-.05-.616-.8-.99-3.04-1.7-9.107-.187-1.567-.548-6.547-.63-10.556-.07-3.535-2.046-11.19-2.046-11.19s.767-.544 1.45-.56zm-2.66.85c2.172 4.86 2.53 9.67 2.623 15.52.093 5.53 1.32 12.01 1.786 14.87-.735.08-1.51.14-1.817-.19-.196-.27-.35-.69-.447-1.23-.99-4.783-1.227-9.984-1.51-14.383-.426-6.817-.536-8.504-1.5-11.903-.55-1.93-.743-1.89-.33-2.26.315-.28.916-.423 1.19-.417zm24.45 1.12c.06 2.26.35 1.34 1.144.98.6-.05 1.09.278 2.207.688 1.42.522 1.294.697 2.293.207.615-.302 1.106-.406 1.4-.167 1.17.95 2.677.415 3.525-.354.66-.344 1.384-.156 1.944-.104.81.073.597-.44.697-1.464.09-.904-.258-.984-1.196-.68-.96.315-1.912.36-2.745.105-2.13-.65-3.69-.226-4.744-.06-2.492.39-2.625.14-3.19-.216-.423-.27-1.12-.76-1.36-.745-.24.013-.16.83.02 1.815zm22.124-1.04c.237-.12.347.207.677.637.55.72.713 1.058.25 1.125-1.224.177-1.53.05-1.486-.71.036-.61.17-.847.56-1.047zm-49.14 1.077c1.8 1.81 2.254 11.973 2.46 14.16.65 11.855 1.773 13.558 1.195 14.448-.68-.01-.918.24-1.363-.354-1.54-4.343-1.45-8.805-1.7-13.336-.35-6-.947-9.25-1.79-12.224-.56-1.98-.556-2.01.457-2.55.18-.1.58-.15.74-.147zm-2.423 1.428c.633 1.44 1.906 7.986 2.078 13.636.14 4.485 1.21 13.257 1.41 13.304-.657.06-1.44-.074-1.76-.57-1.96-8.647-1.336-17.03-3.603-25.726.135-.422.852-1.118 1.875-.646zm-35.93 1.065l5.298 3.8.116 3.24-5.408-3.836zm78.752-.41c-2.99 1.16-3.766 2.114-3.295 2.95.395.707 1.585.46 4.772-.87 2.38-.994 3.13-.56 3.61.94-.026 2.215-2.17 2.473-3.388 2.17-.52-.02-.444.026.11.72 2.467 1.935 5.49-1.848 3.984-4.247-1.18-2.19-3.22-2.814-5.8-1.66zm-18.778.9c-2.47 1.937-1.587 5.426.467 5.95.577.29 1.43.153 1.76-.07.31-.202.31-.535-.32-.64-1.907-.317-2.99-1.715-2.07-3.133.893-1.377 2.55-1.112 5.736.26 2.754 1.188 3.962.82 4.286-.604.145-.63-.03-1.22-1.35-1.267-3.676-.136-6.113-2.372-8.504-.495zm33.034 5.34c-.162-1.003-1.795.028-2.88 1.807-1.06 1.75-1.172 2-1.39.184-.32-2.71 2.49-4.83 4.247-4.9 2.113-.24 3.502.94 3.556 2.306.11 2.684-3.09 2.71-3.53.61zm-93.125-1.6l5.612 3.854s.19 2.067.067 3.177l-5.635-3.604zm67.374 1.295c-2.44 1.655-1.007 4.675.7 5.015 1.8.36 1.926-.895.14-1.266-.96-.374-1.2-1.284-.83-1.99.852-1.393 2.43-.49 3.35-.054 2.034.968 3.09 1.323 3.732.653 1.14-1.19.12-3.31-1.39-2.562-.41.206-.715.398-1.58.18-1.316-.272-2.894-.57-4.13.03zM40.272 238.7l5.52 3.777-.17 3.343-5.18-3.802zm.114 4.59l5.19 3.7c-.076 1.41-.04 1.974.016 2.874l-5.25-3.39zm91.803.713c4.16.407 2.78 5.188-.127 3.898-.774-.58-1.008-.53-1.87 1.56-1.1 2.69-1.37 2.47-1.218-.63.11-3.03 1.503-4.8 3.21-4.82zm-32.8.728c.1.01.18.02.23.06.28.32-.568 1.568-1.28 2.3-.53.345-1.81-.59-1.5-1.046.36-.442 1.88-1.24 2.55-1.31zm5.552 2.47l-.745.106c-1.123-2.502-3.457-1.93-4.18.396l-1.02-.12c1.036-2.85 4.733-4.595 5.95-.383zm20.96.57l-1.26.073c-1.13-2.714-2.73-3.12-4.085-.437l-.974-.28c1.68-3.43 4.485-3.704 6.32.645zm-6.296-3.1c.646-.04.56.258-.11 1.175-.58.798-.723.923-1.31.488-.96-.712.637-1.607 1.42-1.66zm5.97.08c.122.008.265.02.43.06 1.296.32 1.892.936 1.255 1.725-.395.49-.782.685-1.043.356-.875-1.443-1.36-2.182-.64-2.14zm-19.608.855c.136.54-.29.92-.764.474-.194-.184-.36-.495-.338-.724.297-.28 1.007-.046 1.1.25zm-65.638 1.848l5.338 3.834c.177 1.35.21 2.377.205 3.3l-5.495-3.64zm77.804 1.16c3.073 2.11 6.68 2.08 8.934.23.505-.413.944-.43.953-.033-.32 1.473-4.24 3.37-7.303 2.294-1.684-.59-3.066-1.175-4.17-2.747-.656-1.023.694-.363 1.586.254zm-1.3 1.03c4.49 3.876 8.064 2.8 10.77.845.4-.1.408.26.497.93.113.857-.6 1.28-2.546 1.864-3.762 1.126-8.18-.11-8.973-2.633-.093-.497-.284-1.14.25-1.007zm-76.524 2.322l5.41 3.71-.17 2.84-5.272-3.56zm.086 4.347l5.11 3.46-.018 2.35-4.97-3.54zm37.105 1.1c21.79 4.93 37.24 2.59 52.394-.082l13.43 26.337-80.926.11c5.284-8.56 9.68-17.92 15.1-26.363z" fill="#131f67"/><path d="M7.81 14.212v2.87h2.936v24.98H7.81v3.092h8.532V42.06H14.08v-7.085l3.427-4.748 5.14 11.834h-3.283v3.1h9.307v-3.1h-2.22l-6.81-15.21 6.475-9.81 2.4.048v-2.87h-9.24v2.87h2.663L14.08 29.13V17.082h2.328v-2.87zm71.736 15.42l4.033 7.54v.354l2.23 4.353.334.21.502.95.055.46 1.245 1.99-.01.424 5.28 9.82c4.355-1.625 40.125-4.55 53.37.236l1.93-3.27h.46l3.402-5.968-.057-.502 1.146-1.303.166-.594 3.755-5.874.012-.95 4.693-7.827zm80.992 1.128s-2.45 4.707-3.71 6.61c-1.022-.806-3.982-.26-3.805 2.862-4.826-1.828-5.99 3.928-2.258 5.223-1.915 1.672-3.745-.22-5.197-1.5-1.42.35-4.368 1.394-6.037-1.676 0 0 .7.37 1.4.78 3.95 1.2 4.27-4.13 1.33-5-.37-.1-1.062-.138-1.062-.138.987-4.095-5.35-5.525-5.47-.604 0 0-.752-.123-1.323-.018-3.36.61-2.59 5.562.843 5.325.472-.033.894.052.894.052-.056.792-4.21 2.31-7.204-.42-1.418 1.08-3.665 2.435-6.594-.26 1.927-.078 3.775-.627 3.75-2.81-.01-1.42-1.29-2.69-3.132-2.758-.104-1.588-1.287-3.104-2.824-3.22-1.876.11-2.835 1.622-2.85 3.22-1.593.165-3.085 1.57-2.742 3.182.468 2.2 2.163 2.47 4.098 2.05-2.353 3.782-6.184 1.81-7.365.604-1.41 1.31-3.86 3.087-6.88.66 1.61-.277 3.4-1.22 3.096-3.466-.24-1.77-2.226-2.296-3.09-2.2 0-1.17-.885-3.1-2.97-2.9-2.275.22-2.14 3.094-2.11 3.12-1.88-.158-3.244 2.05-2.708 3.462.652 1.715 2.017 2.25 4.526 1.786-2.928 2.746-4.787 1.68-6.385 1.103-1.41 1.48-3.3 1.96-5.236.646 4.33.206 3.64-7.45-1.494-4.672-.444-1.435-1.106-3.203-3.795-2.79l-3.07-5.91zM61.39 35.654c-.222.002-.446.013-.674.028-8.294.53-11.357 6.295-10.966 11.4.263 3.445 2.143 6.386 4.875 7.982 1.17.892 1.417 1.227 1.21 1.645-.242.49-.57.44-1.234-.17-9.48-9.08-22.85 1.58-16.94 13.352 4.71 9.36 17.89 7.193 20.72-3.338.23-.84.59-1.2.98-.973.28.166.06 1.25-.163 2.9.016 5.965-6.19 15.348-6.54 15.665l16.27-.014c-3.73-5.096-5.92-10.095-6.373-17.37-.045-2.2.78-1.73 1.476.765 3.18 11.39 17.662 11.28 20.947.19 3.065-10.35-8.46-19-16.1-12.03-1.1 1-1.842 1.186-1.857.455-.008-.31 1.02-1.462 1.96-2.196 1.906-1.484 3.496-4.266 3.512-7.084.033-5.694-4.2-11.29-11.095-11.21zm-8.74 48.5h-.02c-.003.01.007.01.02 0zm67.536-45.85c.21-.01.432.034.65.145.678.34.804.94.392 1.83-.145.31-.355.67-.32 1 4.767 8.79 15.28 4.86 16.27.78.062-.26-.058-.55-.194-.82-.404-.68-.35-1.23.174-1.69 1.12-.98 2.724.176 2.075 1.5-.172.35-.352.73-.222 1.196 2.7 6.13 8.08 6.59 12.59 4.163-2.074 3.72-10.13 6-13.51-2.956-5.396 7.297-13.96 7.16-17.85-1.08-3.494 8.43-14.042 8.627-17.88 1.63-3.494 8.005-11.598 6.19-13.893 1.18 7.53 5.444 12.49-.24 13.38-2.667 0 0-.174-.28-.414-.52-.964-.942-.937-2.054.06-2.495 1.28-.566 2.477.662 1.82 1.867-.183.337-.346.41-.226.702 2.342 5.46 13.88 7.046 16.22-.613.077-.44.032-.843-.167-1.175-.55-.917.15-1.95 1.056-1.987zm-33.68 3.092c1.82.103 1.31 1.668.946 1.787zm67.578.976c.012.03-1.122 2.027-1.122 2.027-.6-.96-.445-2.16 1.122-2.03zm-6.153 10.094s-1.16 2.57-1.54 2.786c-21.553-5.52-51.63-.72-52.37-.188l-1.33-2.494c18.9-3.776 37.745-2.97 55.244-.104zM17.5 51.594c-.667.008-1.37.16-2.098.49-3.75 1.7-4.07 6-.703 9.396.53.54.98 1.055.98 1.14 0 .384-.38.315-1.29-.24-5.16-3.105-10.18.622-8.09 5.998 1.69 4.34 8.37 3.683 9.4-.93.138-.614.583-.992.78-.66.166.285-.324 2.633-.82 3.938-.653 1.713-1.04 2.61-1.434 3.31-.48.852-.51 1.132-.14 1.22.532.128 6.37-.032 6.37-.174-.004-.08-.25-.65-.55-1.273-1.17-2.44-2.065-6.67-1.51-7.15.31-.27.416-.13.84 1.12 2.088 6.18 9.855 4.69 9.706-1.867-.1-4.456-4.178-6.413-7.854-3.77-.837.6-1.085.633-1.16.17-.03-.187.114-.4.41-.6C25 58.57 22.17 51.533 17.5 51.59zm94.02 39.07c-2.083 8.027-7.12 8.844-13.207 9.82-7.537 1.21-12.45-1.537-14.746-5.733 0 0-10.78 4.08-14.714 6.44 8.178 3.75 18.984 12.05 25.127 21.47 2.19 2.87 2.078 2.23 2.075 8.53-.01 13.666.023 18.746.023 18.746 3.375.506 3.56 2.826 3.376 5.433 2.71-1.197 5.317.266 5.305 2.822-.02 4.698-4.64 3.42-5.6 2.904 1.5 4.14-.26 5.854-2.06 6.06-2.22.25-4.76-.82-4.02-5.558-2.42.94-5.48-.766-5.91-3.62l-.117-4.832c5.98-11.25-1.528-20.4-8.577-23.407 0 0 1.996-4.125 4.575-5.283.26-.08-1.564-2.754-4.635-2.17-1.415.03-1.086.02-2.416-1.707-2.63-3.41-3.866-3.645-6.427.006-1.13 1.606-1.398 1.65-2.73 1.677-1.47.033-3.724 1.087-4.207 2.03-.11.215.468.435 1.23 1.33 1.104 1.285 2.8 3.05 2.534 4.85-5.802 2.36-15.43 12.724-5.306 25.99l-7.322.096-.35-47.23-5.09 2.833.227 36.992-1.45-.48c.11-11.8-.07-23.595-.44-35.39l-13.43 9.784.6 55.47 1.428.302c1.06 7.56 16.034 2.27 16.91 2.93l.18 30.82-.658 1.528 11.913 6.51 10.93-5.67s1.473-.263 2.025-.554c4.538-2.387 7.91-1.85 10.378 1.65 1.52 2.16 1.777 2.48 1.777 2.48.922-6.233 6.45-8.53 11.81-6.9 3.944 1.197 9.332 5.126 10.98 9.923 0 0 .297.72.59 1.046l.227.1c-.016-.126-.26-.724-.355-1.015-5.53-12.7-21.114-14.647-23.517-4.27l-2.208-3.094 11.6-7.117 15.856 10.433s-.745 3.667-.83 5.25l.274.127c.078-.2.19-.96.26-1.438.25-1.733.71-3.188 1.334-4.3.375-.67.81-1.216 1.297-1.62.95-.55 1.83-.496 2.79-1.398l-2.314-1.73-.052-5.555 4.656 6.514c1.464-.34 7.16-2.04 10.54-.156.384.117 5.34-1.296 8.427 5.62l14.86-6.17s.946-.536.956-.677c-14.82-5.466-29.78-24.825-28.34-25.137 0 0-.043-1.986.07-6.86.12-5.432.056-10.977.147-16.427-5.044-1.61-3.79-5.674-3.79-5.674-3.03.664-3.515.076-4.28-.458l-.525-5.144c1.818-1.546 2.91-1.69 5.158-1.197 0 0-1.09-2.236-.1-4.074.835-1.453 3.058-2.37 4.833-1.35 2.293 1.566 1.56 4.84 1.234 5.3 2.383-1.067 5.3.123 6.015 2.48.356-6.97.962-14.776 2.36-20.857 2.58-10.975 6.803-22.47 12.093-31.507.865-1.51 1.97-3.02 2.86-4.435.83-1.26 1.223-2.074 1.223-2.074s-1.13.623-2.33.957c-1.72.467-3.017.91-3.214 1.108-1.26 1.06-2.91 1.85-4.26 2.436-4.76 1.852-7.96-.91-9.935-5.13-1.1 5.36-6.01 9.892-13.25 7.075-4.09-2.17-5.377-3.56-9.203-9.224-.32-.58-1.15-1.243-1.15-1.243zm.156.875c2.708 5.35 6.76 9.14 10.7 10.66 7.035 2.3 11.675-2.2 12.984-6.34l1.357 2.3-10.65 7.56-16.072-10.22c.27-.25 1.706-3.848 1.68-3.97zm48.365.36l-4.77 2.81s-3.17 5.113-4.23 7.04c-5.564 9.83-9.742 20.523-11.92 31.133-.88 3.885-1.815 10.982-2.126 14.394-.497 5.442-.473 7.677-.33 12.67l.37.403s-.584 1.026-1.003 1.89c-1.14 2.35-1.42 3.68-1.35 6.403.16 6.27 3.97 12.27 9.354 14.714l.71.316s-.923 2.497-2.6 4.254c-1.115 1.175-1.355 1.23-.96 1.81.55.8 2.323 1.5 4.526 1.465.78-.01.774-.013 2.215 1.556 2.814 3.064 3.66 3 6.22-.47.76-1.03 1.19-1.28 2.305-1.306 1.637-.04 4.62-1.358 4.608-1.975-2.012-.89-4.344-5.487-3.973-5.536 11.008-5.822 13.34-17.895 5.3-26.772l7.68-.12.28 48.16c1.504-1 4.904-3.145 4.904-3.145l-.11-37.476c.524.1 1.062.48 2.09.643l.3 35.434s1-.407 1.867-.97c4.29-2.83 12.69-9.367 12.69-9.367l-.29-54.61h-1.12l.178 54.583-13.036 9.52-.085-33.923 1.415-.205c3.817-.534 5.584-5.4 3.05-8.576-.9-1.13-.26-1.05 1.65-1.416 3.39-.3 5.27-2.86 4.28-4.687-.42-.783.13-.698.49-1.442.234-.584.19-1.31.09-1.884-.134-.757.176-1.09.367-1.57.3-.756.01-1.61-.49-2.317-.527-.75-.382-1.55-.387-2.047-.023-1.11-.424-1.27-1.6-2.34-.887-.81-.174-.99 1.133-1.66 2.055-1.06 2.197-4.805-.538-6.4-1.462-.85-4.122-.783-9.887.127-2.184.344-4.75.574-4.75.574s-.02-21.35-.17-32.36zm0 .754s11.71 6.847 11.61 7.04c-3.93 5.383-18.59 26.835-18.69 52.775-10.75-1.35-15.152 7.056-15.675 7.024-1.413-31.75 11.473-54.466 18.076-64.108zm-7.38 4.177l-.04.778-2.32 3.465-.06-3.466zm-3.58 1.207l.086 5.582-4.752 3.63-.28-5.825zm-44.05 1.28l2.44 1.69-.082 5.54-3.676-6.69zm66.855 1.87l.018 4.01c-9.37 13.213-14.285 28.31-15.79 47.425l-2.28-.075c.604-19.01 7.004-36.353 18.053-51.36zm-63.46.41l5.78 3.776-.25 6.317-5.246-3.365-.49-1.294zm34.993.27l-.023 5.873-4.466 3.315-.21-5.834zM89.3 103.403c.66.008 1.19.49 1.314 1.405.49 3.9 3.462 2.773 4.17 3.95.266.4-.367.75-2.4.582-3.73-.28-6.447-3.295-4.54-5.28.49-.45 1.003-.666 1.456-.66zm25.764 2.518l4.936 3.15-.015 6.487-4.837-2.952zm22.523.02l.38 5.738-5.4 3.593-.195-5.7zm10.282.024l-3.11 6.605-18.1 13.02-15.02-9.73-2.786-6.373 17.523 11.433zm-48.81 2.62c4.81-.057 8.5 5.047 9.76 9.52.92 2.958 1.06 4.022 1.15 8.718.1 4.784.25 5.61 1.147 6.285.553.414.713.302.783-.544.157-1.88 2.404-.72 2.443 1.26.043 2.2-2.378 2.906-4.168 1.216-.955-.9-.967-.89-1.265.877-.198 1.183-1.578 8.597 1.947 10.442.664.062.823-.47.33-1.09-.99-1.243.987-2.677 2.6-1.886 1.945.957 1.75 4.095-.33 5.21-2.38 1.277-5.457-.174-6.895-3.25-1.054-2.255-1.05-5.383.02-10.03.492-2.14.71-3.504.82-5.147.036-.54.1-1.126.14-1.306.116-.5-.13-.523-.984-.093-2.326 1.173-4.865.34-5.49-1.806-.75-2.563 2.11-5.212 3.874-3.59.67.615.59 1.227-.213 1.62-1.387.685-.91 2.484.56 2.128 4.863-1.455.417-15.1-5.06-16.044-3.62-.62-6.46 3.5-3.84 5.71 1.027.864 2.07.4 1.844-.82-.314-1.703 1.95-1.52 2.785.226 1.36 2.84-2.15 5.15-5.435 3.58-5.89-3.5-1.863-11.067 3.47-11.175zm21.8 1.086l4.85 3.26.04 6.332-4.82-2.857zm10.69.55l.02 5.81-4.68 3.406v-6.186zm12.61 3.81l-2.398 6.67-15.11 10.333-12.465-7.817-2.145-6.172 14.686 9.514zm-98.07.483l-.004 33.77c-4.896.21-7.707 5.052-4.04 9.628l-1.386.19c-3.31.457-5.53 2.21-5.09 4.34.135.65 0 1.31-.188 1.637-.295.874-.217 1.542.18 2.296.31.593.258.83.084 1.27-.378.943-.288 1.67.153 2.39.543.534.39.965.32 1.82-.09 1.208.13 1.694.89 2.164.98.606 1.346 1.6.23 1.518-.554-.04-2.504 1.84-2.504 1.84l-.182-54.195zm26.55 4.332c.874-.002 1.78 1.1 3.072 2.956.783 1.33.797 1.15 2.588 1.08 1.83.136 2.947.62 3.425 1.17.18.21-.3.266-1.46 1.44-1.2 1.218-1.364 1.7-2.162 3.065-.288.49-.914.537-1.208.09-.237-.363.37-1.543 1.51-2.933 1.605-1.55 1.268-1.706-1.066-1.46-1.64.172-1.816.09-2.44-.906-1.856-3.69-2.843-3.566-4.62.113-.485 1.03-.292.963-2.395.8-1.655-.13-2.065.29-1.13 1.16 1.46 1.197 2.027 4.02 1.946 3.988l-1.125.104s-.345-.635-.495-1.036c-.305-.812-1.126-2.032-2.017-2.994-1.264-1.36-.57-2.11 2.25-2.41 1.57-.17 1.604-.19 2.327-1.25 1.275-1.862 2.125-2.965 3-2.97zm68.54 3.362l-1.628 5.76-12.89 9.037-10.485-6.996-1.39-5.42 12.046 7.63zm-44.44 4.562s3.725 7.255 5.08 11.96c1.175 4.09 2.81 15.935 2.38 16.664-.916-1.258-3.94-.975-3.98-.963.253-1.387-.868-4.184-3.45-4.737zm42.41 2.65l-1.288 5.673-10.975 7.933-9.057-6.184-1.187-5.483 10.024 6.7zm-63.808.317l1.424.49.27 10.244 10.98 1.824.25 1.754L75.55 142c-.132-4.37-.206-12.266-.206-12.266zm-5.572.3l.307 11.913c-.12-.04-9.154 1.25-12.61 2.157l.2-1.63s6.28-1.366 10.83-1.89c0-3.33-.026-6.837-.033-10.23zm102.157 2.192s1.493.137 4.69-.426c8.24-1.44 10.473-.857 11.53 1.683 1.15 3.94-3.17 4.036-3.94 1.535-.49-1.62-2.26-1.266-8.17.134-5.054 1.196-8.257.24-8.195-2.626.063-2.944 3.417-3.204 4.084-.303zm-67.73-2.156c1.02-.015 1.86.8 1.875 1.82.015 1.02-.8 1.857-1.82 1.872-1.02.012-1.856-.798-1.87-1.818-.016-1.02.795-1.86 1.814-1.877zm-26.775.325l1.3.39s.193 7.77.232 7.783c2.8.617 8.68 1.72 8.68 1.72l.31 1.537c-2.46-.576-10.308-1.86-10.308-1.86-.245-3.37-.217-9.57-.217-9.57zm-9.5.145s.005 6.202-.1 9.533c.045-.03-6.657 1.067-10.06 1.773l.264-1.245c2.69-.607 5.62-1.217 8.587-1.84-.06-2.44-.057-7.787-.057-7.787zm4.785 1.335c.818-.01 1.497.65 1.51 1.468.01.817-.65 1.486-1.47 1.498-.816.013-1.485-.637-1.5-1.456-.01-.817.64-1.495 1.46-1.507zm111.51 3.87c.91 1.35 1.676 1.31 2.574 1.18-.225.068-1.286.694-1.225.9.03.105-.447 1.81.278 1.88 2.736.267 1.352 3.107 1.68 3.54.74.846 1.28 1.38.773 2.43-.45.934-1.1.905-.597 1.7 1.09 1.64-.417 1.98-.284 3.096.09.674.327 1.594.08 2.118-.75 1.58-3.394 2.48-6.333 2.6-.418.02-.1-.665-.297-1.098-.724-.46-.33-1.233-.083-1.74.24-.672.244-.673-.207-1.013-1.255-.78-1.19-1.14-1.09-1.7.275-1.666.016-1.83-.486-2.076-.64-.315-.554-1.017-.267-1.92.197-.62.057-.776-.246-1.34-.18-.334-.23-.514-.237-.727.09-.86-.68-.857-1.756-.015-.914 1.576-1.228 3.644-1.8 4.95-.444 1.004-.514 2.053.013 4.367 1.01 3.534.26 4.124-3.72 3.37-2.998-.738-3.88-3.93-3.05-7.84.134-.634.1-1.246.04-1.74-.327-2.69.37-5.28 2.25-7.045 3.133-2.95 4.684-3.4 11.17-2.985 2.533.18 2.73.34 2.73.34s.01-1.22.09-1.23zm-46.69.81l-.753 5.486-6.087 4.296c-2.864-2.262-5.08-1.51-7.093.915-1.598-.81-4.79-3.016-4.79-3.016l-.816-6.22 8.85 6.14zm-64.69 1.305c.82-.01 1.49.644 1.5 1.46.01.82-.64 1.494-1.455 1.506-.82.014-1.497-.64-1.51-1.455-.01-.82.65-1.5 1.467-1.51zm63.67 5.616l-.332 5.28-2.167 1.628-2.18-.22-.51-3.274zm-63.706.044c.82-.015 1.498.645 1.51 1.463.013.82-.647 1.488-1.465 1.5-.818.01-1.488-.64-1.5-1.457-.01-.82.64-1.497 1.457-1.51zm5.97.162c.82-.012 1.488.64 1.5 1.457.01.82-.64 1.49-1.457 1.503-.818.01-1.49-.644-1.503-1.463-.013-.816.642-1.485 1.46-1.5zm-11.866.283c.82-.01 1.493.643 1.505 1.46.01.82-.64 1.493-1.457 1.504-.82.013-1.498-.642-1.51-1.46-.012-.82.643-1.492 1.46-1.504zm110.224.24c.42-.033 1.04.586.738 1.514-.403 1.06-.12 1.42.55 2.278.57.726.47.827.383 1.29-.13 3.05 1.833 1.73.98 3.948-.185.482.06 1.17.15 1.74-.195-.522-3.808-.474-4.11.056-.52-.076-1.17-3.47-.65-3.917.065 0 .44.58.635.91.484.82.59.79.438-.16-.6-3.785-.24-7.635.886-7.66zm-92.37.264c.82-.01 1.493.645 1.505 1.463.012.82-.643 1.488-1.462 1.5-.815.01-1.484-.64-1.5-1.457-.01-.82.64-1.494 1.46-1.506zm-24.006.275c.818-.015 1.487.64 1.5 1.46.01.82-.64 1.486-1.457 1.5-.82.01-1.497-.64-1.51-1.46-.01-.817.65-1.49 1.467-1.503zm58.12.426l4.44 2.88c.076.91-.04 2.21.257 2.65-2.9-.27-4.366 1.38-4.366 1.38zm-45.58 2.38c4.86.037 9.57.81 13.947 2.227l-.345 1.562c-8.75-2.253-18.532-2.37-27.878.103l-.727-1.645c4.71-1.468 9.44-2.186 14.03-2.246.33-.004.65-.007.975-.004zm-27.485 2.128c1.273-.022 2.575.453 3.492 1.48 1.72 1.93.892 5.51-1.54 6.648-3.648 1.704-7.444-1.937-5.897-5.69.645-1.56 2.306-2.41 3.944-2.437zm90.194.457l-.056 1.57-1.107-.922zm-23.19.07c1.606-.02 2.928 1.267 2.95 2.874.024 1.607-1.26 2.928-2.865 2.952-1.607.023-2.928-1.26-2.952-2.867-.023-1.61 1.26-2.935 2.867-2.958zm-66.924.097c-.392.008-1.044.168-1.34.44-.775.716.004.737 1.028.925 1.82.334 2.32 1.9 2.155 3.59-.15 1.54.37 1.516.783.945 1.696-2.32.25-5.71-2.625-5.897zm84.423.776l-.08.048c.02.018.05-.004.08-.046zM72.82 152c2.176-.045 2.405 3.535.48 7.534-.578 1.2-.873 1.05-1.508-.766-1.565-4.477-1.225-6.723 1.028-6.77zm5.035.104c.418-.023.825.137 1.158.516 1.17 1.335.27 3.494-2.847 6.818-.757.808-1.15 1.116-1.428 1.122-.78.016-.777-.114.11-3 .39-1.27.775-2.668.857-3.1.26-1.387 1.225-2.31 2.15-2.358zm-7.88 3.2c.213.99.586 2.37.826 3.064.24.695.4 1.356.36 1.466-.19.534-1.58-.19-2.57-1.343-2-2.32-2.794-4.33-2.38-5.42.605-.86 2.155-1.25 2.87-.49.737.785.846 2.46.902 2.73zm13.77-2.31c2.107 1.242-.32 4.078-5.04 6.43-2.02 1.007-1.874.554-.343-1.433.586-.76 1.37-1.99 1.754-2.75.847-1.67 1.695-3.34 3.63-2.24zm-21.026.01c.67-.006 1.35.71 2.62 2.545.56.82 1.48 1.98 2.04 2.59.56.6.993 1.21.97 1.33-.216 1.29-6.786-2.79-7.26-4.506-.16-1.046.66-1.98 1.623-1.966zm94.03 3.733c1.185 2.436 1.287 3.95.307 4.502-1.394.78-3.185-.41-3.22-2.15-.01-.58-.61-2.616-1.16-3.937-.45-1.088-.514-1.76-.14-1.813 1.45.234 3.6 2.248 4.213 3.39zm-7.864-1.85c-.46 1.394-.944 3.57-.94 4.2.004.25-.15.76-.33 1.133-1.2 2.477-4.05.457-3-2.13.943-2.334 3.346-4.763 4.293-4.843.65-.055.043 1.437-.02 1.64zm1.92-1.336c.473-.04.87.99 1.484 2.74.83 2.36.795 4.2-.1 4.99-1.912 1.676-3.92-.76-3.147-3.827.618-2.45 1.224-3.845 1.762-3.9zm-64.228.44c2.383 35.07-15.595 62.05-16.876 62.787l-6.118 3.346-10.73-5.847c11.117-15.247 17.764-32.723 18.27-53.017 10.285 1 15.577-7.234 15.452-7.27zm58.952.11c.75-.205.227.45-.517 1.523-.797 1.146-1.828 4.26-2.645 4.758-1.834.883-3.91-.797-2.797-2.26 1.025-1.342 4.036-3.493 5.958-4.02zm10.914.24c.287-.003.825.187 1.606.57 3.82 1.864 5.704 4.324 4.07 5.5-1.148.826-2.376.185-3.523-1.99-.39-.74-1.1-1.836-1.574-2.442-.86-1.1-1.06-1.64-.58-1.64zm21.474 1.247c2.456-.034 4.473 1.92 4.51 4.376.034 2.454-1.926 4.476-4.38 4.51-2.456.037-4.473-1.93-4.508-4.383-.035-2.454 1.926-4.466 4.38-4.5zm-1.35 1.155c-2.89 1.28-2.02 5.815.47 6.47 1.05.294 2.33-.144 1.803-.65-3.287-1.03-3.31-3.455-1.984-5.23.214-.285-.07-.686-.29-.59zm-120.32 6.24c-.112 2.564.443 5.536-.78 8.318-1.857 4.276-7.817 6.23-11 5.85-.664-.27-1.436-.53-2.09-.252-.396.168-.884.146-1.306-.05-.407-.19-.797.06-1.192-.084-.46-.31-1.215-1.01-1.127-1.54.144-.74.087-1.29-.782-1.535-1.204-.34-1.45-.99-1.093-2.896.07-.413.16-.6-.1-.78-.89-.594-1.23-1.694-.64-2.852.38-.667.67-1.138-.01-1.67-.27-.61-.23-.84.35-1.62.62-.74.727-.825.33-1.457-.89-1.42.12-2.47 1.32-3.054 1.61-.66 3.016-1 4.714-1.195.633.035.606.59.987 1.126.56.87-.23 2.13.227 2.576.657.305.956.91.904 1.43-.022 1.207.05 1.62.378 2.126.364.56.5 1.588.16 2.287-.3.624-.267.58.13.95.392.362.584 2.183.445 2.15l1.65-.153c-.17.185.624-3.403 2.506-6.177-.102-2.173-.93-4.17-.857-7.04 4.08-1.462 7.03 2.007 6.874 5.558zm63.39-4.883c.588.462 3.513 1.276 3.62 1.183-.092 1.4.76 4.12 3.81 5.03.036 3.905.004 21.93.004 21.93-4.247-7.116-6.878-16.3-7.435-28.143zm-71.03.636s.16.52.31 1.523c.26 2.05-.02 2.33-.566.927-.638-1.64-.67-.362.047 3.395.18.91.17 1.12-.05 1.73-.14.382-.39 1.28-.583 1.98-.573 2.06-.91 2.652-1.5 1.01-.3-.836-.55-.967-.336-1.622.27-.82.205-1.435-.335-2.234-.09-.13-.282-.43-.315-1.277.167-1.906-.68-1.924-.85-2.416.03-.747-.32-2.553.195-2.505.423.04 1.95.084 2.674-.18.32-.12 1.32-.34 1.32-.34zm63.297.236c1.577-.03 2.872 1.23 2.895 2.81.023 1.573-1.238 2.87-2.815 2.89-1.577.024-2.877-1.232-2.9-2.81-.022-1.576 1.243-2.875 2.82-2.9zm-44.09 1.73l2.163.41c.482.16.13 29.998-17.19 51.53l-.15-4.986c8.24-11.928 14.176-26.556 15.176-46.953zm36.693.628l.396 7.13c-1.22-1.037-4.313-2.977-4.29-3.02l.014-2.634c.002.005 2.66.204 3.88-1.476zm-16.68.1c.52.22.976.724 1.423 1.09l-1.413.952zm49.578.36c9.344 2.77 18.544 2.69 27.642.663l.622 1.747c-9.87 2.675-19.68 2.52-29.428-.59zm-45.25 1.333l.5 3.076-5.273 3.41.256-4.667 2.75-1.783zm46.68 2.56c.85-.01 1.552.67 1.564 1.525.012.85-.67 1.552-1.523 1.564-.86.013-1.55-.67-1.56-1.52-.02-.85.66-1.556 1.51-1.568zm24.005.13c.853-.01 1.554.67 1.567 1.524.01.852-.68 1.553-1.53 1.565-.85.012-1.55-.67-1.56-1.524-.015-.853.663-1.553 1.515-1.566zm-44.962 4.797c.69 2.435.54 7.94-.35 11.67-.266 1.12-.428 5.1-.428 5.1-.165.21 5.293-4.515 7.047 1.68.6 2.13-1.85 4.15-3.49 3.56-.32-.116-.23-1.17.08-1.79.91-1.854-1.69-2.817-3.17-1.175-3.417 3.795.098 13.4 5.454 14.333 4.448.775 8.013-3.65 5.046-6.29-1.298-1.152-3.373.437-2.423 1.906 1.014 1.57-.855 2.198-2.27.74-2.464-2.532.304-6.35 4.027-5.47 5.955 1.358 4.73 10.66-1.51 11.188-4.774.4-7.987-1.678-10.006-5.365-1.896-3.54-2.037-6.364-1.17-12.58.516-3.685.092-6.793-.93-6.772-.56.01-1 .284-1.09.944-.18 1.35-.338 1.602-1.185 1.11-1.076-.62-1.673-2.63.084-3.99 1.803-1.39 4.137.784 4.04 1.158.045-.07.226-.42.468-2.004.786-5.147-.96-10.584-3.12-9.713-.476.19-.42.406.2.755 1.44.81.17 2.883-1.635 2.673-2.56-.298-3.14-3.867-.885-5.446 3.55-1.914 6.44 1.083 7.207 3.782zm-17.467-4.288s4.54 2.77 4.78 3.48c.156.454.34 4.425.34 4.425l-7.877-4.933-11.295 6.984c.185-1.532.998-5.478.998-5.478l6.006-3.8c.03.23 4.155 2.95 7.05-.68zm56.4.262c.854-.01 1.554.67 1.567 1.524.01.85-.67 1.552-1.52 1.564-.85.015-1.56-.664-1.57-1.516-.01-.852.664-1.557 1.52-1.57zm-12.02.025c.86-.01 1.56.666 1.57 1.52.02.85-.67 1.556-1.52 1.57-.85.01-1.55-.673-1.56-1.525-.01-.85.666-1.552 1.52-1.564zm6.05.35c.85-.014 1.56.67 1.57 1.522.015.854-.67 1.555-1.52 1.567-.853.01-1.553-.67-1.566-1.524-.012-.852.666-1.553 1.518-1.565zm-15.13 2.186c4.09.852 8.19 1.726 12.11 2.155l.16 12.033-1.144-.066-.164-10.755c-3.79-.27-7.36-1.084-10.716-1.95zm30.413.392l-.212 1.412s-7.075 1.223-10.77 1.7c-.06 2.423-.053 10.52-.053 10.52l-1.413.26-.007-12.256c4.197-.457 8.388-.93 12.456-1.64zm-68.474.677l8.33 5.507.98 5.834-9.71-6.452s-8.806 5.927-12.1 8.124l1.004-5.502zm38.455 1.09c3.355.71 6.71 1.447 10.06 1.735l.144 9.684-1.544-.41-.12-7.86c-2.62-.224-5.31-.73-8.016-1.303zm29.67.287l-.282 1.313s-5.367.81-8.137 1.305c-.246.057-.156 8.525-.156 8.525l-1.322.2-.156-9.885zm-15.034 1.082c.85-.015 1.548.67 1.56 1.52.01.853-.665 1.553-1.52 1.566-.85.012-1.55-.666-1.562-1.518-.016-.854.67-1.56 1.52-1.57zm-53.22 3.49l9.85 6.65s1.14 3.46 1.387 5.38l-11.333-7.32-14.18 9.4 1.64-5.806zm-59.694.204c.585.007 1.168.4 1.47 1.295.43 1.264 1.227 1.637 3.326 1.6 4.12-.22 8.44-2.157 12.327-.704 1.89.695 2.563 3.483.98 4.21-1.718.79-2.45.292-3.046-1.057-.55-.573-1.233-.483-4.925.15-1.63.265-3.545.503-5.155.633-4.116.332-6.39-.965-6.9-3.415-.33-1.563.95-2.726 1.922-2.713zm112.83 2.25c.853-.015 1.553.664 1.566 1.516.01.852-.67 1.557-1.524 1.57-.855.012-1.556-.67-1.568-1.523-.014-.852.67-1.553 1.52-1.565zm-30.173 1.88c1.11-.017 2.02.87 2.038 1.98.017 1.107-.87 2.02-1.98 2.036-1.107.016-2.015-.872-2.03-1.98-.016-1.11.867-2.02 1.975-2.037zM97.537 181.9s8.106 5.416 11.86 7.917l2.073 5.96-13.805-8.976-16.892 10.99 2.028-6.13zm58.52 1.863c.734 1.98 2.07 3.49 3.48 5.02 0 0-.787 1.49-3.59 1.4-1.53-.047-1.612.194-2.135 1.232-.86 1.313-1.558 2.173-2.11 2.6-.985.756-2.824-.373-4.34-2.668-.55-.836-.78-1.034-2.448-1-2.558.053-3.484-.656-2.155-1.805 1.154-1.41 1.99-2.962 3.023-4.445l1.15.132c.05.17-.893 3.014-2.22 4.172-.673.76.27 1.036 1.914.69 1.042-.314 1.31-.19 2.082 1.405 1.61 3.043 2.45 2.896 4.36-.19.665-1.377.64-1.514 2.474-1.117 1.97.198 2.563-.05 1.755-.735-1.636-1.387-2.538-4.658-2.538-4.658zm-58.45 4.08s14.66 9.6 14.62 9.393l2.938 6.92-17.203-11.443-21.02 13.668 3.145-6.85zm.567 6.305l5.11 3.36-.012 6.05-5.22-3.508zm-1.31.174l.096 5.97-4.58 2.728-.256-5.6zm-5.812 3.847l-.042.23.11.06.038.002.165 5.38-5.272 3.654.02-6.076zm13.498.063l4.806 3.204.2 6.403-5.215-3.414zm5.93 3.91l4.82 3.344.17 6.393-4.92-3.314zm-25.5.02l-.022 5.91-4.795 3.346-.227-6.035zm50.71 7.624c-.95.99-1.3.87-2.115-.77-.843-1.698-2.11-2.49-3.95-2.46-2.317.04-.8-1.48 1.656-1.66 4.25-.187 6.407 2.664 4.41 4.89zm-56.833-3.466l.128 5.928-4.77 2.48-.146-2.81 2.453-4.295zm-6.152 7.92l.167 1.08-.88.34zm82.27 14.84c-.01 0-.016.007-.017.02h.056c-.015-.01-.03-.015-.038-.02zm.04.02c.615.408 6.104 8.366 6.487 16.965.213 2.276-.772 2.71-1.263.545-.8-3.523-3.017-6.605-5.89-8.207-14.53-5.383-20.73 12.846-11.16 20.215 3.407 2.466 9.98 2.186 12.29-1.22.718-1.06 1.445-.96 1.537-.29.044.334-.12.563-1.01 1.36-3.59 3.22-5.737 7.78-4.597 11.116 1.517 4.43 5.65 7.493 10.42 8.193 5.117.75 10.437-2.85 12.004-7.53 1.437-4.29.173-7.91-3.81-11.52-1.872-1.7-1.966-1.837-1.58-2.24.378-.395.625-.298 1.55.597 2.864 2.765 8.2 4.25 11.713 2.627 5.625-2.6 8.046-11.362 4.194-17.1-2.33-4.662-8.68-6.4-13.985-3.82-2.827 1.375-5.317 4.583-6.058 7.8-.334 1.446-1.165 1.707-1.288.405.39-5.235 1.124-8.66 6.87-17.88zm48.343 8.984s2.092 4.32 2.404 6.595c.23 1.67.265 2.35-.192 2.36-.146.003-.507-.806-.646-1.44-1.123-5.18-8.65-5.1-9.74.08-1.11 5.267 3.654 8.997 7.812 5.72 1.71-1.175 1.79-.635.1 1.08-3.26 3.26-1.824 7.826 2.277 9.043 5.576 1.652 9.008-5.144 4.277-9.464-.603-.62-1.15-1.24-1.154-1.37-.007-.33.405-.36.73-.017 2.714 2.85 8.18 1.97 9.02-1.682 1.572-6.845-7.27-9.77-9.703-3.652-.596 1.525-.505 1.736-.81 1.442-.173-.166-.125-.798.064-1.656.383-1.732 2.857-6.99 2.857-6.99zM130.12 256.96c-20.08 4.296-39.33 2.778-53.142.222l-6.312 10.787-.434-.02-1.625 2.79.174.32s-5.24 10.063-7.45 13.24c25.806-.25 82.446-.375 82.446-.375l-3.45-6.94.19-.19-3.41-7.245-1.108-1.255s-.676-1.31-1.183-2.717c-.466-1.296-2.465-4.84-2.465-4.84l-.283.025zm-52.416 1.518c.266.21 25.72 5.01 52.1.08l1.444 2.415c-23.09 5.314-56.497.238-55.18-.254zm.44 4.75c2.326-.083 4.684 1.167 6.274 3.253.507.67 1.335 2.62 1.335 2.62s1.115-1.84 2.207-2.76c1.652-1.4 3.795-2.565 6.897-2.455 2.855.103 6 1.65 8.835 6.116.716-2.58 10.098-11.336 17.826-.415.885-2.9 5.02-8.7 11.717-4.647.457.977.928 2.054.928 2.054-3.952-2.77-10.467-.91-12.008 3.41-.138.526.037.8.24 1.31 2.037 2.91-3.262 2.84-1.692.486.294-.535.318-.976-.15-1.68-1.243-1.86-4.983-4.18-7.728-4.12-3.17.07-6.68 2.173-7.854 4.084-.43.703-.53 1.41-.15 2.025.28.622.18 1.142-.28 1.523-1.09.895-2.46-.138-1.94-1.463.35-.582.296-1.297-.41-2.29-1.42-1.994-4.734-4.095-7.618-4.036-4.13.096-8.3 3.07-8.034 5.517.115 1.075-.18 1.477-1.057 1.353-1.07-.15-1.19-1.16-.435-1.98.11-.266.293-.9-.052-1.37-4.36-5.895-10.882-4.176-12.38-2.857 1.455-2.49 3.48-3.605 5.538-3.678zm-3.882 4.092c1.638.014 3.4 1.25 3.958 2.216.404-.42 4.104-2.184 5.903.34-4.71-.356-4.767 4.642-1.286 5.123-1.59 4.82 5.527 5.11 5.076.582 5.317.784 4.66-5.956-.344-5.245 2.62-1.91 4.4-1.29 7.56.897 1.06-1.38 5.38-2.67 6.44-.26-4.96-.306-4.11 5.43-.41 5.48-1.1 3.972 6.17 5.433 5.05-.5 4.613.322 3.944-5.916-.48-5.4.33-1.135 4.82-1.626 6.804.542 1.823-1.665 3.836-2.805 7.472-.425-4.96-.825-5.02 5.61-.416 5.225-.43 4.26 6.08 4.333 4.995-.59 4.956-1.338 2.23-6.643-1.41-5.18 1.62-1.928 4.373-1.02 5.465-.63 3.374-3.86 6.313-.63 6.313-.63-5.87-.614-4.594 7.754 1.127 4.72-.008 1.72.732 3.21 3.067 3.454l2.78 5.745-78.69.52 4.34-7.634c.44.138 2.95.366 3.49-2.576 5.17 1.64 5.516-4.38 1.653-5.334.467-.32.995-.45 1.54-.446zm121.83.712v2.918h2.308l6.567 14.738-6.29 10.293h-2.423v2.617h9.174v-2.612h-3.053l8.412-12.134v12.133h-2.528v2.615h8.38v-2.546h-2.76v-25.1h2.752v-2.92h-8.378v2.92h2.526v7.41l-3.574 4.6-5.357-12.01h3.572v-2.92zM71.19 269.5c.514.827.084 1.365-.8 1.387 0 0 .574-.836.8-1.386zm64.736 1.067l.51 1.07c-.55-.223-.62-.46-.51-1.07z"/></svg>