<svg xmlns="http://www.w3.org/2000/svg" width="224.225" height="312.808"><path d="M8.725 39.85l3.026-.943c1.15 2.995 3.45 3.88 5.9 3.69 4.38-.342 5.838-5.15 6.167-9.4-1.707 1.774-4.274 2.675-6.46 2.587-6.982-.37-8.77-5.854-8.834-11.6-.194-4.847 1.848-8.357 5.348-9.964 1.854-.817 6.096-.817 7.96.148 4.283 2.216 5.868 6.05 5.58 15.19.005 7.525-1.624 16.288-9.837 16.476-4.75.644-8.355-2.98-8.84-6.185zm11.887-8.245c1.425-.885 2.23-1.716 2.868-2.962.524-1.022.7-1.553.552-3.67-.385-5.456-3.3-8.548-7.525-7.934-2.356.34-3.643 1.63-4.382 4.04-1.366 4.45.365 9.66 3.608 10.855 1.463.54 3.715.385 4.88-.34zM214.76 272.96l-3.026.94c-1.142-2.995-3.45-3.878-5.892-3.688-4.382.34-5.836 5.148-6.165 9.4 1.708-1.775 4.274-2.676 6.46-2.588 6.982.37 8.77 5.854 8.834 11.6.2 4.847-1.84 8.357-5.34 9.964-1.85.817-6.093.817-7.96-.148-4.28-2.217-5.864-6.05-5.58-15.19 0-7.525 1.628-16.29 9.84-16.476 4.748-.645 8.35 2.98 8.84 6.185zm-11.887 8.243c-1.424.885-2.23 1.716-2.867 2.962-.525 1.022-.702 1.553-.552 3.67.385 5.455 3.3 8.548 7.524 7.933 2.357-.342 3.643-1.638 4.383-4.047 1.37-4.45-.36-9.65-3.6-10.85-1.462-.54-3.713-.382-4.88.34zm-47.34-129.38c2.88-5.777 4.975-11.7 5.347-18.04.342-2.33-1.074-2.37-1.288-.727-4.076 15.593-25.762 11.37-25.017-3.297.605-11.9 12.42-14.46 18.583-10.57 2.433 1.43 2.296.57.967-.91-9.154-10.21-3.61-23.36 8.762-23.6 13.38.79 16.85 14.87 8.644 23.15-1.02.99-3.28 4.19.13 1.95 8.29-5.89 19.79.44 19.556 9.52-.433 16.74-20.84 17.99-25.204 4.005-.42-1.55-1.63-2.33-1.295.305.605 4.768 1.857 11.954 5.438 18.207zm-50.82 27.15c2.88-5.774 4.975-11.7 5.347-18.036.342-2.332-1.074-2.37-1.288-.728-4.076 15.59-25.762 11.37-25.017-3.3.605-11.9 12.42-14.46 18.582-10.57 2.434 1.43 2.297.573.968-.91-9.154-10.21-3.61-23.36 8.762-23.605 13.38.794 16.85 14.87 8.644 23.15-1.02.993-3.28 4.19.13 1.955 8.29-5.887 19.79.444 19.55 9.52-.43 16.74-20.84 17.99-25.2 4.007-.42-1.55-1.63-2.33-1.294.304.606 4.767 1.858 11.954 5.44 18.206zM54 151.823c2.88-5.776 4.975-11.7 5.348-18.04.34-2.33-1.075-2.37-1.288-.726-4.077 15.593-25.763 11.37-25.018-3.297.605-11.896 12.42-14.455 18.583-10.566 2.433 1.433 2.296.574.968-.912-9.155-10.21-3.61-23.362 8.76-23.602 13.38.794 16.852 14.87 8.645 23.15-1.02.994-3.283 4.19.123 1.955 8.29-5.888 19.79.443 19.56 9.52-.43 16.74-20.84 17.988-25.2 4.007-.42-1.55-1.63-2.33-1.294.304.604 4.767 1.856 11.953 5.437 18.206zM155.532 86.49c2.88-5.774 4.976-11.7 5.348-18.036.342-2.332-1.074-2.37-1.288-.73-4.076 15.594-25.762 11.372-25.017-3.295.605-11.9 12.42-14.46 18.583-10.57 2.433 1.43 2.296.57.967-.91-9.154-10.21-3.61-23.36 8.762-23.6 13.38.79 16.85 14.87 8.644 23.14-1.02.995-3.28 4.192.13 1.957 8.29-5.888 19.79.442 19.556 9.52-.433 16.74-20.84 17.99-25.204 4.006-.42-1.55-1.63-2.328-1.295.304.605 4.77 1.857 11.956 5.438 18.208zM54 86.49c2.88-5.774 4.975-11.7 5.348-18.036.34-2.332-1.075-2.37-1.288-.73-4.077 15.594-25.763 11.372-25.018-3.295.605-11.9 12.42-14.46 18.583-10.57 2.433 1.43 2.296.57.968-.91-9.155-10.21-3.61-23.36 8.76-23.6 13.38.79 16.852 14.87 8.645 23.14-1.02.995-3.283 4.192.123 1.957 8.29-5.888 19.79.442 19.56 9.52-.43 16.74-20.84 17.99-25.2 4.006-.42-1.55-1.63-2.328-1.294.304.604 4.77 1.856 11.956 5.437 18.208zm14.702 140.193c-2.88 5.775-4.976 11.7-5.35 18.037-.34 2.332 1.076 2.37 1.29.73 4.076-15.594 25.762-11.372 25.017 3.295-.61 11.895-12.42 14.454-18.59 10.565-2.436-1.433-2.3-.575-.97.912 9.154 10.21 3.61 23.36-8.76 23.602-13.38-.793-16.85-14.87-8.646-23.148 1.02-.995 3.284-4.192-.123-1.957-8.287 5.88-19.787-.45-19.553-9.52.433-16.74 20.84-17.99 25.204-4.01.42 1.55 1.63 2.33 1.297-.31-.603-4.768-1.855-11.955-5.436-18.207zm101.532 0c-2.88 5.775-4.976 11.7-5.348 18.037-.34 2.332 1.075 2.37 1.288.73 4.077-15.594 25.763-11.372 25.017 3.295-.6 11.895-12.41 14.454-18.58 10.565-2.43-1.433-2.29-.575-.97.912 9.16 10.21 3.61 23.36-8.76 23.602-13.38-.793-16.85-14.87-8.64-23.148 1.02-.995 3.288-4.192-.12-1.957-8.285 5.88-19.785-.45-19.55-9.52.433-16.74 20.84-17.99 25.203-4.01.42 1.55 1.63 2.33 1.295-.31-.605-4.768-1.856-11.955-5.437-18.207zm0-65.106c-2.88 5.776-4.976 11.7-5.348 18.038-.34 2.33 1.075 2.37 1.288.728 4.077-15.592 25.763-11.37 25.017 3.297-.6 11.895-12.41 14.454-18.58 10.564-2.43-1.432-2.29-.574-.97.912 9.16 10.212 3.61 23.362-8.76 23.603-13.38-.8-16.85-14.87-8.64-23.15 1.02-1 3.288-4.19-.12-1.96-8.285 5.89-19.785-.448-19.55-9.52.433-16.74 20.84-17.99 25.203-4.01.42 1.55 1.63 2.33 1.295-.306-.605-4.766-1.856-11.953-5.437-18.206zm-101.532 0c-2.88 5.776-4.976 11.7-5.35 18.038-.34 2.33 1.076 2.37 1.29.728 4.076-15.592 25.762-11.37 25.017 3.297-.61 11.895-12.42 14.454-18.59 10.564-2.436-1.432-2.3-.574-.97.912 9.154 10.212 3.61 23.362-8.76 23.603-13.38-.8-16.85-14.87-8.646-23.15 1.02-1 3.284-4.19-.123-1.96-8.287 5.89-19.787-.448-19.553-9.52.433-16.74 20.84-17.99 25.204-4.01.42 1.55 1.63 2.33 1.297-.306-.603-4.766-1.855-11.953-5.436-18.206zM13.66 73.25c1.192-2.444 2.352-4.72 2.985-7.4.42-2.528-.44-1.59-.926.068-.73 2.297-2.73 3.344-4.58 3.37-3.38.044-5.06-2.605-4.95-5.455-.37-3 2.67-5.12 4.96-4.957 1.72.123 3.22 1.052 4.13 1.775.593.32 1.23.46.342-.35-1.678-1.83-3.077-2.962-3.046-5.71.03-2.58 2.233-5.27 5.155-5.183 3.65.106 5.31 2.89 5.304 5.48-.01 1.89-.956 3.627-2.414 4.703-.942.767-.68 1.34.4.615 1.035-.892 2.267-1.282 3.545-1.31 3.49-.054 4.856 2.96 4.656 5.764-.19 2.624-2.422 5.33-5.37 5.02-2.63-.3-4.01-2.51-4.803-4.776-.26-.696-.675-.884-.664.152.61 5.058 2.494 8.205 2.508 8.2zm196.905 164.674c-1.192 2.445-2.352 4.72-2.985 7.4-.42 2.528.44 1.59.926-.068.72-2.297 2.722-3.344 4.58-3.37 3.37-.044 5.052 2.606 4.948 5.455.368 3-2.67 5.12-4.962 4.96-1.722-.12-3.224-1.05-4.133-1.77-.6-.313-1.24-.453-.35.36 1.68 1.834 3.072 2.965 3.04 5.71-.03 2.58-2.233 5.27-5.155 5.185-3.65-.106-5.31-2.89-5.304-5.48.01-1.89.956-3.627 2.414-4.703.944-.766.68-1.34-.398-.615-1.036.894-2.268 1.284-3.546 1.31-3.49.057-4.854-2.96-4.654-5.762.187-2.626 2.422-5.33 5.37-5.023 2.63.3 4.01 2.51 4.803 4.775.26.696.672.884.66-.152-.61-5.056-2.492-8.203-2.506-8.2z"/></svg>