<svg xmlns="http://www.w3.org/2000/svg" width="224.225" height="312.808"><path d="M6.59 38.05c.16-4.377 1.77-6.02 4.944-8.31-2.53-1.796-3.598-4.437-3.382-6.688.52-5.447 4.81-8.172 9.485-8.053 4.675.11 8.704 3.76 9.018 7.72.274 3.44-.77 5.1-3.257 6.91 2.953 2.44 4.84 4.05 4.77 8.36-.073 4.31-3.807 9.44-10.316 9.594-6.51.16-11.422-5.17-11.262-9.544zm18.173.013c.28-3.962-3.288-6.635-7.313-6.677-3.923-.04-7.432 3.247-7.432 6.804 0 3.82 4.563 5.897 7.51 5.908 3.583.013 6.994-2.622 7.235-6.035zM23.475 23.89c.078-3.338-3.057-5.73-6.29-5.633-2.874.085-5.92 2.24-5.92 5.03-.004 3.49 3.46 5.233 6.416 5.3 2.68.058 5.74-2.176 5.8-4.697zM216.13 274.76c-.16 4.374-1.77 6.018-4.943 8.308 2.53 1.796 3.598 4.437 3.383 6.688-.522 5.447-4.81 8.172-9.485 8.053-4.676-.12-8.705-3.77-9.02-7.73-.273-3.445.77-5.1 3.258-6.917-2.953-2.44-4.84-4.05-4.77-8.36.073-4.31 3.807-9.44 10.316-9.597 6.5-.158 11.42 5.17 11.26 9.544zm-18.172-.015c-.28 3.962 3.29 6.635 7.314 6.676 3.922.05 7.43-3.24 7.432-6.8 0-3.82-4.564-5.89-7.51-5.91-3.584-.01-6.995 2.63-7.236 6.04zm1.288 14.173c-.077 3.338 3.057 5.73 6.29 5.633 2.874-.08 5.92-2.24 5.922-5.03.003-3.49-3.462-5.23-6.417-5.29-2.68-.06-5.73 2.176-5.79 4.697zM156.538 85.453c2.88-5.776 4.976-11.7 5.348-18.038.342-2.33-1.074-2.37-1.288-.728-4.076 15.592-25.762 11.37-25.017-3.297.61-11.895 12.42-14.454 18.59-10.564 2.436 1.432 2.3.574.97-.912-9.153-10.212-3.61-23.362 8.763-23.603 13.38.8 16.85 14.87 8.644 23.15-1.02 1-3.284 4.19.123 1.96 8.286-5.89 19.786.448 19.55 9.52-.432 16.74-20.84 17.99-25.203 4.01-.42-1.55-1.63-2.33-1.294.306.607 4.766 1.86 11.953 5.44 18.206zm0 100.247c2.88-5.775 4.976-11.7 5.348-18.036.342-2.332-1.074-2.37-1.288-.73-4.076 15.594-25.762 11.37-25.017-3.295.61-11.9 12.42-14.46 18.59-10.57 2.436 1.43 2.3.57.97-.91-9.153-10.21-3.61-23.36 8.763-23.6 13.38.79 16.85 14.87 8.644 23.14-1.02.995-3.284 4.19.123 1.956 8.286-5.888 19.786.443 19.55 9.52-.432 16.74-20.84 17.99-25.203 4.007-.42-1.55-1.63-2.33-1.294.304.607 4.767 1.86 11.954 5.44 18.206zm-103.532 0c2.88-5.775 4.975-11.7 5.348-18.036.34-2.332-1.075-2.37-1.288-.73-4.077 15.594-25.763 11.37-25.018-3.295.605-11.9 12.42-14.46 18.583-10.57 2.44 1.43 2.3.57.97-.91-9.15-10.21-3.61-23.36 8.76-23.6 13.38.79 16.85 14.87 8.65 23.14-1.02.995-3.28 4.19.126 1.956 8.287-5.888 19.787.443 19.553 9.52-.433 16.74-20.84 17.99-25.203 4.007-.42-1.55-1.63-2.33-1.294.304.604 4.767 1.856 11.954 5.437 18.206zm50.184-50.123c2.878-5.776 4.975-11.7 5.347-18.038.34-2.34-1.075-2.37-1.288-.73-4.08 15.59-25.77 11.37-25.02-3.3.6-11.9 12.42-14.458 18.58-10.57 2.43 1.433 2.29.574.97-.912-9.16-10.21-3.61-23.36 8.76-23.6 13.38.792 16.85 14.87 8.64 23.15-1.02.993-3.284 4.19.122 1.954 8.285-5.89 19.785.442 19.55 9.52-.432 16.74-20.84 17.987-25.202 4.006-.42-1.55-1.63-2.33-1.295.306.604 4.768 1.855 11.954 5.436 18.207zM53.006 85.453c2.88-5.776 4.975-11.7 5.348-18.038.34-2.33-1.075-2.37-1.288-.728-4.077 15.592-25.763 11.37-25.018-3.297.605-11.895 12.42-14.454 18.583-10.564 2.44 1.432 2.3.574.97-.912-9.15-10.212-3.61-23.362 8.76-23.603 13.38.8 16.85 14.87 8.65 23.15-1.02 1-3.28 4.19.126 1.96 8.287-5.89 19.787.448 19.553 9.52-.433 16.74-20.84 17.99-25.203 4.01-.42-1.55-1.63-2.33-1.294.306.604 4.766 1.856 11.953 5.437 18.206zM171.24 227.158c-2.88 5.776-4.976 11.7-5.348 18.038-.34 2.33 1.075 2.37 1.288.728 4.077-15.592 25.763-11.37 25.017 3.297-.605 11.9-12.42 14.46-18.582 10.57-2.434-1.43-2.296-.57-.968.91 9.155 10.21 3.61 23.36-8.76 23.608-13.38-.793-16.852-14.87-8.645-23.15 1.02-.992 3.283-4.19-.123-1.954-8.29 5.888-19.79-.443-19.56-9.52.43-16.74 20.84-17.99 25.2-4.007.42 1.55 1.63 2.33 1.294-.303-.605-4.768-1.856-11.955-5.437-18.208zm-53.35-49.298c-2.878 5.775-4.975 11.7-5.347 18.036-.342 2.332 1.074 2.37 1.288.73 4.08-15.594 25.77-11.37 25.02 3.296-.6 11.894-12.42 14.453-18.58 10.564-2.43-1.433-2.292-.575-.963.912 9.154 10.21 3.61 23.362-8.762 23.602-13.38-.793-16.85-14.87-8.643-23.148 1.02-.995 3.284-4.19-.123-1.956-8.288 5.888-19.788-.443-19.554-9.52.434-16.74 20.84-17.988 25.205-4.007.42 1.55 1.63 2.32 1.296-.31-.604-4.77-1.856-11.958-5.437-18.21zm-50.182 49.298c-2.88 5.776-4.976 11.7-5.35 18.038-.34 2.33 1.076 2.37 1.29.728 4.076-15.592 25.762-11.37 25.017 3.297-.605 11.9-12.42 14.46-18.583 10.57-2.433-1.43-2.296-.57-.968.91 9.155 10.21 3.61 23.36-8.76 23.608-13.38-.793-16.852-14.87-8.645-23.15 1.02-.992 3.28-4.19-.13-1.954-8.29 5.888-19.79-.443-19.556-9.52.433-16.74 20.84-17.99 25.204-4.007.42 1.55 1.63 2.33 1.295-.303-.605-4.768-1.857-11.955-5.438-18.208zM13.956 77.836c1.192-2.445 2.352-4.72 2.984-7.4.42-2.53-.438-1.59-.925.067-.72 2.297-2.722 3.344-4.58 3.37-3.37.044-5.052-2.605-4.948-5.455-.368-3 2.67-5.12 4.962-4.957 1.72.13 3.22 1.06 4.13 1.78.59.32 1.23.46.34-.36-1.68-1.83-3.08-2.96-3.048-5.71.03-2.58 2.233-5.27 5.155-5.18 3.652.107 5.312 2.89 5.304 5.48-.01 1.89-.954 3.628-2.412 4.705-.944.766-.68 1.34.4.614 1.034-.89 2.266-1.28 3.544-1.31 3.49-.054 4.857 2.962 4.657 5.765-.188 2.623-2.423 5.326-5.37 5.02-2.63-.3-4.01-2.51-4.804-4.777-.266-.694-.68-.882-.668.154.607 5.057 2.49 8.205 2.504 8.2zM210.27 238.89c-1.193 2.444-2.353 4.72-2.985 7.4-.42 2.527.438 1.588.925-.068.72-2.298 2.722-3.344 4.58-3.37 3.37-.044 5.053 2.605 4.948 5.455.368 2.998-2.67 5.12-4.962 4.957-1.722-.123-3.224-1.052-4.133-1.776-.596-.315-1.234-.454-.345.36 1.678 1.832 3.077 2.963 3.046 5.71-.03 2.578-2.233 5.268-5.155 5.184-3.66-.106-5.32-2.89-5.31-5.48.01-1.89.95-3.627 2.41-4.704.942-.766.68-1.34-.4-.615-1.036.892-2.268 1.283-3.546 1.31-3.49.055-4.855-2.96-4.655-5.764.187-2.63 2.422-5.33 5.37-5.03 2.63.3 4.012 2.51 4.804 4.775.26.695.674.883.663-.153-.61-5.058-2.49-8.205-2.506-8.2z"/></svg>