<svg xmlns="http://www.w3.org/2000/svg" width="224.225" height="312.808"><path d="M89.822 58.218c9.92-9.682 16.437-20.238 22.668-30.39 5.464 11.17 13.305 20.943 21.786 30.39-9.073 9.368-16.105 19.386-21.76 29.917-6.267-10.795-12.865-20.57-22.694-29.917zm0 197.102c9.92-9.68 16.437-20.237 22.668-30.388 5.464 11.17 13.305 20.942 21.786 30.39-9.073 9.367-16.105 19.385-21.76 29.916-6.267-10.795-12.865-20.57-22.694-29.917zm0-98.635c9.92-9.682 16.437-20.237 22.668-30.39 5.464 11.17 13.305 20.943 21.786 30.39-9.073 9.368-16.105 19.386-21.76 29.918-6.267-10.796-12.865-20.572-22.694-29.918zm106.973 93.285c4.064-3.965 6.733-8.29 9.286-12.447 2.24 4.575 5.46 8.578 8.93 12.448-3.712 3.84-6.593 7.95-8.91 12.26-2.57-4.42-5.27-8.42-9.296-12.25zM9.81 63.76c4.063-3.967 6.732-8.29 9.284-12.45 2.238 4.576 5.45 8.58 8.925 12.45-3.72 3.837-6.6 7.94-8.92 12.255-2.57-4.422-5.27-8.427-9.3-12.256zm-.863-24.048l2.548-1.84c2.214 3.534 4.685 5.863 8.465 5.462 5.674-.38 8.023-6.22 6.835-10.623-1.147-3.94-5.845-5.86-9.578-3.76-.88.5-1.898 1.11-1.898 1.11l-1.33-2.16 8.76-10.2h-9.51v4.22H9.59v-7.563h18.59v2.567s-4.98 5.07-6.628 7.85c4.055.15 7.323 2.67 8.492 6.66.686 2.1.378 6.9-.517 8.97-1.493 3.45-5.584 6.25-9.32 6.41-6.27.416-9.603-3.9-11.264-7.092zm206.33 233.384l-2.547 1.84c-2.213-3.534-4.685-5.863-8.465-5.463-5.673.382-8.023 6.22-6.835 10.623 1.147 3.945 5.846 5.87 9.578 3.763.88-.5 1.9-1.02 1.9-1.02l1.572 2.03-9.008 10.23h9.51v-4.22h3.65v7.565h-18.59v-2.568s4.98-5.07 6.627-7.848c-4.06-.15-7.33-2.67-8.5-6.66-.688-2.1-.38-6.9.515-8.968 1.494-3.45 5.584-6.25 9.32-6.414 6.272-.413 9.603 3.903 11.264 7.095z" fill="#d40000"/></svg>