<svg xmlns="http://www.w3.org/2000/svg" width="224.225" height="312.808"><path d="M89.74 156.535c9.922-9.68 16.437-20.237 22.668-30.39 5.465 11.17 13.306 20.943 21.787 30.39-9.074 9.37-16.106 19.386-21.76 29.918-6.267-10.796-12.866-20.572-22.694-29.918zm106.987 93c4.064-3.965 6.733-8.29 9.285-12.447 2.24 4.575 5.45 8.58 8.925 12.448-3.717 3.838-6.597 7.942-8.913 12.256-2.568-4.423-5.27-8.427-9.297-12.256zM8.347 63.85c4.064-3.967 6.733-8.29 9.286-12.45 2.238 4.576 5.45 8.58 8.924 12.45-3.717 3.837-6.597 7.94-8.913 12.255-2.568-4.423-5.27-8.427-9.297-12.256zm-.613-17.286v-2.737h2.66l5.665-29.27h3.22l6.24 29.27h2.146v2.737H20.35v-2.737h1.977l-.787-4.486h-7.386l-.57 4.49h1.977v2.74zm13.178-10.416l-3.21-15.67-3.006 15.67zM216.49 266.244v2.737h-2.66l-5.664 29.278h-3.223l-6.243-29.27h-2.147v-2.738h7.318v2.736h-1.97l.788 4.486h7.387l.57-4.485h-1.977v-2.736zm-13.177 10.416l3.21 15.67 3.006-15.67z" fill="#d40000"/></svg>