<svg xmlns="http://www.w3.org/2000/svg" width="224.225" height="312.808"><path d="M33.173 58.156c9.92-9.68 16.436-20.237 22.667-30.39 5.465 11.17 13.306 20.943 21.786 30.39-9.073 9.37-16.105 19.386-21.76 29.918C49.6 77.278 43.002 67.502 33.174 58.156zm0 65.33c9.92-9.68 16.436-20.237 22.667-30.39 5.465 11.17 13.306 20.944 21.786 30.39-9.073 9.37-16.105 19.387-21.76 29.918C49.6 142.61 43 132.834 33.173 123.487zm0 66.898c9.92-9.682 16.436-20.238 22.667-30.39 5.465 11.17 13.306 20.943 21.786 30.39-9.073 9.368-16.105 19.386-21.76 29.917C49.6 209.51 43 199.73 33.173 190.39zm0 65.106c9.92-9.682 16.436-20.238 22.667-30.39 5.465 11.17 13.306 20.942 21.786 30.39-9.073 9.368-16.105 19.385-21.76 29.917C49.6 274.61 43 264.835 33.173 255.49zm56.445-98.866c9.92-9.682 16.436-20.237 22.667-30.39 5.464 11.17 13.306 20.943 21.786 30.39-9.07 9.37-16.1 19.386-21.75 29.918-6.27-10.796-12.865-20.572-22.693-29.918zm55.088-98.468c9.92-9.68 16.436-20.237 22.667-30.39 5.464 11.17 13.306 20.943 21.786 30.39-9.08 9.37-16.11 19.386-21.76 29.918-6.27-10.796-12.87-20.572-22.7-29.918zm0 65.33c9.92-9.68 16.436-20.237 22.667-30.39 5.464 11.17 13.306 20.944 21.786 30.39-9.08 9.37-16.11 19.387-21.76 29.918-6.27-10.795-12.87-20.57-22.7-29.917zm0 66.898c9.92-9.682 16.436-20.238 22.667-30.39 5.464 11.17 13.306 20.943 21.786 30.39-9.08 9.368-16.11 19.386-21.76 29.917-6.27-10.79-12.87-20.57-22.7-29.91zm0 65.106c9.92-9.682 16.436-20.238 22.667-30.39 5.464 11.17 13.306 20.942 21.786 30.39-9.08 9.368-16.11 19.385-21.76 29.917-6.27-10.796-12.87-20.572-22.7-29.918zm52.758-8.212c4.064-3.966 6.733-8.29 9.286-12.45 2.238 4.577 5.45 8.58 8.924 12.45-3.716 3.837-6.597 7.94-8.913 12.255-2.56-4.422-5.27-8.427-9.29-12.255zM8.65 61.42c4.063-3.966 6.732-8.29 9.285-12.45 2.238 4.577 5.45 8.58 8.924 12.45-3.72 3.838-6.6 7.94-8.92 12.255-2.57-4.422-5.27-8.427-9.3-12.255zm.124-21.57l3.027-.943c1.15 2.995 3.45 3.88 5.9 3.69 4.38-.342 5.838-5.15 6.166-9.4-1.707 1.774-4.274 2.675-6.46 2.587-6.98-.37-8.77-5.854-8.834-11.6-.194-4.847 1.848-8.357 5.35-9.964 1.85-.817 6.093-.817 7.958.148 4.283 2.216 5.868 6.05 5.58 15.19.005 7.525-1.624 16.288-9.837 16.476-4.75.644-8.352-2.98-8.84-6.185zm11.887-8.245c1.43-.885 2.23-1.716 2.87-2.962.53-1.022.7-1.553.55-3.67-.38-5.456-3.29-8.548-7.52-7.934-2.35.34-3.64 1.63-4.38 4.04-1.363 4.45.368 9.66 3.61 10.855 1.46.54 3.716.385 4.88-.34zM214.81 272.96l-3.027.94c-1.14-2.995-3.45-3.878-5.89-3.688-4.383.34-5.838 5.148-6.166 9.4 1.707-1.775 4.274-2.676 6.46-2.588 6.982.37 8.77 5.854 8.834 11.6.2 4.847-1.84 8.357-5.34 9.964-1.85.817-6.093.817-7.96-.148-4.28-2.217-5.865-6.05-5.58-15.19-.003-7.525 1.626-16.29 9.84-16.476 4.75-.645 8.352 2.98 8.84 6.185zm-11.887 8.243c-1.425.885-2.23 1.716-2.868 2.962-.524 1.022-.702 1.553-.552 3.67.385 5.455 3.3 8.548 7.524 7.933 2.357-.342 3.644-1.638 4.383-4.047 1.366-4.45-.365-9.65-3.61-10.85-1.46-.54-3.713-.382-4.877.34z" fill="#d40000"/></svg>