<svg xmlns="http://www.w3.org/2000/svg" width="224.225" height="312.808"><path d="M89.987 57.446c9.92-9.68 16.436-20.237 22.667-30.39 5.464 11.17 13.306 20.944 21.786 30.39-9.073 9.37-16.105 19.387-21.76 29.918-6.266-10.796-12.865-20.572-22.693-29.918zm0 198.808c9.92-9.68 16.436-20.237 22.667-30.39 5.464 11.17 13.306 20.944 21.786 30.39-9.073 9.37-16.105 19.387-21.76 29.918-6.266-10.796-12.865-20.572-22.693-29.918zm107.02-6.656c4.063-3.966 6.732-8.29 9.284-12.45 2.24 4.577 5.46 8.58 8.93 12.45-3.712 3.838-6.6 7.94-8.91 12.256-2.566-4.423-5.27-8.427-9.295-12.256zM9.28 63.326c4.064-3.966 6.733-8.29 9.285-12.448 2.24 4.576 5.45 8.58 8.925 12.448-3.717 3.838-6.598 7.942-8.914 12.256-2.567-4.422-5.27-8.427-9.296-12.256zm-.474-16.19l.165-2.02c.51-6.24 1.88-8.346 9.63-14.855 3.76-3.15 4.994-4.71 5.168-6.52.49-4.26-3.35-5.59-5.854-5.61-3.242-.03-6.91 1.913-5.16 6.415l-3.64 1.063c-.733-4.2.018-8.142 3.427-9.892 4.546-2.28 10.38-1.38 13.323 2.21 1.972 2.415 2.422 5.747 1.362 8.357-3.1 6.673-13.62 9.607-14.49 17.32h11.63v-4.3h3.426v7.907zm206.61 218.536l-.166 2.02c-.51 6.238-1.874 8.346-9.622 14.854-3.76 3.16-4.994 4.718-5.168 6.527-.49 4.26 3.35 5.59 5.855 5.614 3.242.03 6.91-1.912 5.16-6.414l3.638-1.068c.734 4.2-.017 8.142-3.426 9.892-4.548 2.28-10.38 1.385-13.325-2.207-1.978-2.414-2.428-5.746-1.368-8.355 3.1-6.672 13.62-9.607 14.49-17.32h-11.63v4.295h-3.426v-7.907z" fill="#d40000"/></svg>