<svg xmlns="http://www.w3.org/2000/svg" width="224.218" height="312.801"><path d="M33.505 59.285c9.92-9.682 16.436-20.238 22.667-30.39 5.465 11.17 13.306 20.943 21.786 30.39-9.073 9.368-16.105 19.386-21.76 29.917-6.266-10.795-12.865-20.57-22.693-29.917zm0 100.248c9.92-9.682 16.436-20.237 22.667-30.39 5.465 11.17 13.306 20.943 21.786 30.39-9.073 9.37-16.105 19.386-21.76 29.918-6.266-10.793-12.865-20.57-22.693-29.915zm0 98.6c9.92-9.683 16.436-20.24 22.667-30.39 5.465 11.17 13.306 20.942 21.786 30.39-9.073 9.367-16.105 19.385-21.76 29.916-6.266-10.798-12.865-20.574-22.693-29.92zM89.94 109.41c9.92-9.683 16.435-20.24 22.666-30.39 5.464 11.17 13.306 20.942 21.786 30.39-9.073 9.367-16.105 19.385-21.76 29.917-6.266-10.796-12.865-20.572-22.693-29.918zm55.098-50.125c9.92-9.682 16.436-20.238 22.667-30.39 5.464 11.17 13.306 20.943 21.786 30.39-9.07 9.368-16.102 19.386-21.756 29.917-6.267-10.795-12.866-20.57-22.694-29.917zm0 100.248c9.92-9.682 16.436-20.237 22.667-30.39 5.464 11.17 13.306 20.943 21.786 30.39-9.07 9.37-16.102 19.386-21.756 29.918-6.267-10.793-12.866-20.57-22.694-29.915zm0 98.6c9.92-9.683 16.436-20.24 22.667-30.39 5.464 11.17 13.306 20.942 21.786 30.39-9.07 9.367-16.102 19.385-21.756 29.916-6.267-10.798-12.866-20.574-22.694-29.92zm52.668-7.223c4.064-3.967 6.733-8.29 9.285-12.45 2.24 4.576 5.454 8.58 8.928 12.45-3.717 3.837-6.598 7.94-8.914 12.255-2.567-4.422-5.27-8.427-9.296-12.256zM8.89 65.052c4.064-3.966 6.733-8.29 9.286-12.45 2.238 4.577 5.45 8.58 8.924 12.45-3.716 3.837-6.597 7.94-8.913 12.255-2.568-4.422-5.27-8.427-9.297-12.255zm3.947-18.047c2.133-11.09 4.41-19.41 10.38-28.447H11.083v3.89H7.857v-7.33H25.61l2.19 3.44c-6.342 6.797-12.148 28.768-11.12 28.447zm198.543 218.79c-2.13 11.09-4.408 19.41-10.38 28.448h12.136v-3.89h3.225v7.33h-17.75l-2.188-3.44c6.34-6.797 12.147-28.768 11.118-28.447z" fill="#d40000"/></svg>