<svg xmlns="http://www.w3.org/2000/svg" width="224.225" height="312.808"><path d="M32.882 57.118c9.92-9.682 16.436-20.238 22.667-30.39 5.46 11.17 13.3 20.943 21.78 30.39-9.077 9.368-16.11 19.386-21.76 29.917C49.3 76.24 42.7 66.465 32.88 57.118zm0 100.248c9.92-9.68 16.436-20.237 22.667-30.39 5.46 11.17 13.3 20.943 21.78 30.39-9.077 9.37-16.11 19.386-21.76 29.918-6.27-10.796-12.87-20.572-22.697-29.918zm0 98.6c9.92-9.683 16.436-20.24 22.667-30.39 5.46 11.17 13.3 20.942 21.78 30.39-9.077 9.367-16.11 19.385-21.76 29.916-6.27-10.795-12.87-20.57-22.697-29.917zM89.065 107.24c9.92-9.682 16.436-20.238 22.667-30.39 5.464 11.17 13.306 20.943 21.786 30.39-9.073 9.368-16.105 19.386-21.76 29.918-6.266-10.796-12.865-20.572-22.693-29.918zm55.35-50.124c9.92-9.682 16.436-20.238 22.667-30.39 5.464 11.17 13.306 20.943 21.786 30.39-9.073 9.368-16.105 19.386-21.76 29.917-6.267-10.795-12.865-20.57-22.693-29.917zm0 100.248c9.92-9.68 16.436-20.237 22.667-30.39 5.464 11.17 13.306 20.943 21.786 30.39-9.073 9.37-16.105 19.386-21.76 29.918-6.267-10.796-12.865-20.572-22.693-29.918zm0 98.6c9.92-9.683 16.436-20.24 22.667-30.39 5.464 11.17 13.306 20.942 21.786 30.39-9.073 9.367-16.105 19.385-21.76 29.916-6.267-10.795-12.865-20.57-22.693-29.917zm-55.35-49.3c9.92-9.68 16.436-20.238 22.667-30.39 5.464 11.17 13.306 20.943 21.786 30.39-9.073 9.37-16.105 19.386-21.76 29.917-6.266-10.79-12.865-20.57-22.693-29.91zm109.398 45.197c4.064-3.96 6.733-8.29 9.285-12.45 2.24 4.58 5.45 8.58 8.925 12.45-3.717 3.84-6.597 7.94-8.914 12.26-2.57-4.42-5.27-8.424-9.3-12.252zM9.648 66.01c4.064-3.966 6.733-8.29 9.285-12.45 2.24 4.577 5.45 8.58 8.925 12.45-3.717 3.838-6.598 7.94-8.914 12.256-2.567-4.42-5.27-8.424-9.296-12.253zM7.342 38.05c.16-4.377 1.77-6.02 4.944-8.31-2.53-1.796-3.598-4.437-3.382-6.688.52-5.447 4.81-8.172 9.485-8.053 4.67.11 8.7 3.76 9.01 7.72.272 3.44-.77 5.1-3.26 6.91 2.953 2.44 4.84 4.05 4.77 8.36-.073 4.31-3.807 9.44-10.316 9.594-6.51.16-11.42-5.17-11.26-9.544zm18.173.013c.28-3.962-3.29-6.635-7.314-6.677-3.92-.04-7.43 3.247-7.43 6.804 0 3.82 4.57 5.897 7.51 5.908 3.59.013 7-2.622 7.24-6.035zM24.227 23.89c.078-3.338-3.057-5.73-6.29-5.633-2.874.085-5.92 2.24-5.92 5.03-.004 3.49 3.46 5.233 6.415 5.3 2.68.058 5.736-2.176 5.795-4.697zm192.656 250.87c-.16 4.374-1.77 6.018-4.944 8.308 2.53 1.796 3.59 4.437 3.38 6.688-.52 5.447-4.81 8.172-9.49 8.053-4.678-.12-8.707-3.77-9.02-7.73-.275-3.445.77-5.1 3.256-6.917-2.953-2.44-4.84-4.05-4.77-8.36.073-4.31 3.807-9.44 10.316-9.597 6.51-.158 11.422 5.17 11.262 9.544zm-18.173-.015c-.28 3.962 3.29 6.635 7.314 6.677 3.922.04 7.43-3.247 7.43-6.804 0-3.82-4.562-5.897-7.51-5.908-3.582-.013-6.993 2.622-7.234 6.035zm1.288 14.173c-.078 3.338 3.057 5.73 6.29 5.633 2.874-.08 5.92-2.24 5.922-5.03.003-3.49-3.463-5.23-6.417-5.29-2.68-.06-5.736 2.176-5.795 4.697z" fill="#d40000"/></svg>