<svg xmlns="http://www.w3.org/2000/svg" width="224.225" height="312.808"><path d="M33.348 57.804c9.92-9.682 16.436-20.238 22.667-30.39C61.48 38.584 69.32 48.358 77.8 57.804c-9.07 9.368-16.103 19.386-21.757 29.918-6.268-10.796-12.867-20.572-22.695-29.918zm0 65.33c9.92-9.68 16.436-20.237 22.667-30.39 5.465 11.172 13.306 20.944 21.786 30.39-9.07 9.37-16.1 19.387-21.75 29.918-6.266-10.795-12.865-20.57-22.693-29.918zm0 66.896c9.92-9.68 16.436-20.236 22.667-30.388 5.465 11.17 13.306 20.943 21.786 30.39-9.07 9.368-16.1 19.386-21.75 29.917-6.266-10.8-12.865-20.58-22.693-29.92zm0 65.107c9.92-9.682 16.436-20.238 22.667-30.39 5.465 11.17 13.306 20.943 21.786 30.39-9.07 9.368-16.1 19.386-21.75 29.918-6.266-10.796-12.865-20.572-22.693-29.918zM89.53 92.167c9.922-9.68 16.437-20.237 22.668-30.388 5.465 11.17 13.306 20.94 21.787 30.38-9.074 9.37-16.106 19.385-21.76 29.92-6.267-10.798-12.866-20.57-22.694-29.92zm-.466 128.343c9.92-9.682 16.436-20.238 22.667-30.39 5.47 11.17 13.31 20.943 21.79 30.39-9.07 9.368-16.1 19.386-21.76 29.917-6.26-10.796-12.86-20.572-22.69-29.918zM144.88 57.804c9.922-9.682 16.437-20.238 22.668-30.39 5.464 11.17 13.306 20.943 21.786 30.39-9.073 9.368-16.105 19.386-21.76 29.918-6.266-10.796-12.865-20.572-22.693-29.918zm0 65.33c9.922-9.68 16.437-20.237 22.668-30.39 5.464 11.172 13.306 20.944 21.786 30.39-9.073 9.37-16.105 19.387-21.76 29.918-6.266-10.795-12.865-20.57-22.693-29.918zm0 66.896c9.922-9.68 16.437-20.236 22.668-30.388 5.464 11.17 13.306 20.943 21.786 30.39-9.073 9.368-16.105 19.386-21.76 29.917-6.266-10.8-12.865-20.58-22.693-29.92zm0 65.107c9.922-9.682 16.437-20.238 22.668-30.39 5.464 11.17 13.306 20.943 21.786 30.39-9.073 9.368-16.105 19.386-21.76 29.918-6.266-10.796-12.865-20.572-22.693-29.918zm52.525-6.045c4.064-3.966 6.733-8.29 9.286-12.45 2.24 4.577 5.45 8.58 8.93 12.45-3.713 3.838-6.593 7.94-8.91 12.256-2.57-4.423-5.27-8.427-9.296-12.256zM8.59 63.234c4.064-3.966 6.733-8.29 9.285-12.448 2.24 4.576 5.45 8.58 8.925 12.448-3.717 3.838-6.597 7.942-8.914 12.256-2.567-4.422-5.27-8.427-9.296-12.256zm-.463-17.39v-31.51h3.11v31.508zm12.33-31.508c-2.995 0-5.4 2.687-5.4 6.023v19.46c0 3.33 2.405 6.02 5.4 6.02H22.2c2.995 0 5.407-2.69 5.407-6.03V20.36c0-3.337-2.412-6.024-5.406-6.024h-1.74zm.9 2.978c1.77 0 3.192 1.337 3.192 3.002v19.722c0 1.665-1.43 3.007-3.2 3.007s-3.19-1.342-3.19-3.007V20.316c0-1.665 1.42-3.002 3.19-3.002zm194.74 249.65v31.508h-3.11v-31.507zm-12.327 31.508c2.993 0 5.4-2.687 5.4-6.023v-19.47c0-3.338-2.407-6.025-5.4-6.025h-1.746c-2.994 0-5.406 2.687-5.406 6.023v19.46c0 3.336 2.412 6.023 5.406 6.023h1.745zm-.902-2.978c-1.77 0-3.192-1.337-3.192-3.002V272.77c0-1.665 1.423-3.007 3.192-3.007 1.768 0 3.19 1.342 3.19 3.006v19.72c0 1.66-1.422 3-3.19 3z" fill="#d40000"/></svg>