<svg xmlns="http://www.w3.org/2000/svg" width="224.225" height="312.808"><path d="M140.758 26.92s25.294 36.56 33.872 43.048c.63.296 11.207-1.724 11.207-1.724-5.42-12.977-8.907-26.403-5.39-41.455zm14.055 57.82c-17.437 4.922-34.842 9.55-53.746 1.528l-20.644 19.945c-.172.515 26.752 12.113 27.175 10.843l-6.626 21.154 15.278 3.363 7.014-22.502s21.093-2.02 30.883-5.38c7.443-2.55 15.14-4.4 21.788-9.95-13.73-8.25-21.136-19.09-21.122-18.99zm-104.88 5.898c-6.61-4.055-11.776 4.292-6.937 8.46-.57 2.434-.762 6.058 1.594 7.65 2.165 1.368 6.202-.05 6.785-.036.04 0 .105 4.383-.232 4.372-.626-.02-2.99-2.035-4.447-2.472-4.926-1.476-11.854-2.205-11.732-1.95.206.425-1.227 1.436 4.27 4.887 2.042 1.28 8.492-.17 13.63 1.45 3.13.986 6.207 2.63 7.906 1.81 2.15-.898 4.654-3.73 5.463-6.04.228-2.525-12.89 2.932-12.092 3.02l-.04-5.083c5.29.58 10.06-3.25 4.86-9.817 3.87-3.846-1.54-13.01-9.02-6.262zm22.02 23.25c-13 13.106-39.573 37.7-39.573 37.7l.285 18.355 25.96 23.23c2.057-24.66 16.07-47.675 29.415-59.19 1.226-3.5-13.26-18.866-16.086-20.094zm92.626 4.534c-1.96 15.164-3.74 35.842-29.47 58.828 4.46 7.592 10.13 15.318 18.3 19.006.58 1.304 23.6-23.823 37.76-35.703l-.075-16.092zm-115.95 3.255c-.056.33-1.006 4.314-1.25 4.208.02.217 2.634-.97 2.93-2.063.26-.958.86-2.255.9-2.44-.59-4.1-1.707-1.187-2.58.295zm-9.63 10.6c-.937 2.258-1.81 6.403-1.49 9.102 4.606 2.3 5.858-7.29 4.62-8.21-.742-.315-2.5-.92-3.133-.9zm142.234 43.97c-.427 1.912-.337 2.48.514 2.853 1.49.653 2.16-.136 3.357-3.25.713-1.854 1.348-4.644.773-5.753-2.825-1.97-4.32 4.705-4.645 6.15zm-69.653-4.493c-.903.007-1.773.08-2.58.265-7.6 1.73-7.026 15.02-8.316 20.32-23.88 3.4-30.195 5.03-36.74 7.71-10.173 4.18-13.395 6.73-16.09 8.832 1.694-.198 19.95 16.825 20.89 19.23-1.16-3.297 35.32-11.317 54.75-3.26 2.384.85 20.536-17.618 19.963-19.68 2.356-4.124-22.88-8.76-26.06-11.335-2.61-14.055 17.63-21.753 3.614-21.344-2.55.075-6.195-.775-9.422-.748zm63.514 15.79c-.45.53-.9.81-1.486 1.433l-1.334 1.758.97 1.57 2.49-2.743zm-17.805 17.673c2.62-1.182 11.92-5.69 12.32-4.648l-.197 4.51c-1.424-.47-10.607 1.05-5.296 10.53-3.344 7.53 4.11 11.41 9.33 6.43 10.943 3.753 9.48-7.195 7.22-8.965 1.78-2.764-.456-8.65-1.57-8.67 0 0 9.55 2.154 8.616.454-.428-.776-.96-2.114-3.083-3.53-2.444-1.634-6.74-1.04-10.22-1.77-3.716-.777-6.11-2.106-9.234-2.294-4.717.43-9.118 4.57-7.886 7.945zM50.88 240.754l-13.156 3.516s4.256 9.876 5.728 18.682c1.8 10.772.362 22.483.362 22.483l38.186.193z" fill="#e2cf00"/><path d="M206.21 301.715c-5.026-1.745-5.13-4.91-5.3-8.94-.298-6.117-.245-12.552.633-17.534.336-1.51.517-2.29-.996-2.82-.834-.29-1.67-.17-2.503-.3v-3.77c1.585-.08 3.056-.08 4.394.71.602.37 1.273.778 1.273.778 1.97-1.863 7.15-2.14 9.61.16 1.63 1.643 2.16 3.018 2.26 6.72.08 2.73 0 2.916 0 2.916l2.84-.016v3.666h-2.837s.063 1.82 0 5.773c-.05 3.078-.11 5.09-.324 6.55-.967 5.107-5.513 7.266-9.04 6.115zm5.442-6.315c.988-2.634.576-12.81.576-12.81-4.235-1.627-6.03-4.176-7.754-5.99 0 0-.718 11.296.14 17.38.78 5.046 5.334 5.798 7.038 1.42zm.024-17.114c.23.034.494.05.53-.048.323-.915-.24-4.74-1.197-5.508-2.58-2.066-4.93 0-4.86.093 1.212 1.65 2.64 3.466 4.48 4.897.35.29.644.508 1.04.566zM85.17 285.494c-16.753-23.913-32.278-46.66-52.89-71.73 0 0 .018-9.69.09-19.3l63.32 90.794zm58.656-31.244c8.3-9.01 14.588-18.61 20.17-28.418 6.36 11.297 13.723 20.5 21.853 28.1-7.98 8.056-15.21 17.276-20.93 28.862-4.66-8.854-10.69-18.092-21.1-28.544zm55.094-2.896c3.54-3.71 6.588-7.866 9.452-12.252 3.183 4.512 5.1 7.888 9.377 12.65-3.68 3.888-6.76 7.795-9.28 12.047-3.03-4.83-6.19-9.32-9.56-12.45zm-79.83-4.47c-.54-4.542-1.465-9.977-2.795-14.655l11.56-10.9c-1.246 9.74-3.162 17.21-8.765 25.55zm55.255-34.357c2.587 3.436-1.78 5.344-3.428 3.815-3.343-3.1 1.554-6.305 3.428-3.815zM59.71 190.884c-1.92 1.23 3.447-29.967 18.176-46.09 8.96 25.662-6.848 40.05-18.176 46.09zm72.666-.115l-9.783-2.64 4.87-13.69s9.186 2.15 8.403 4.99c-2.55 9.248-3.49 11.33-3.49 11.33zm-45.286-5.26c2.65-4.36 4.66-9.16 6.512-14.07l13.91-1.93-8.063 15.63zm58.96-19.2c-7.573-15.08 1.347-38.94 17.82-45.51-.593 15.287-5.337 30.772-17.82 45.502zm-50.887-4.29c.333-5.355-.28-10.966-1.02-15.94l34.432 4.59 1.203 14.433zm25.198-22.93c1.17-4.59 2.21-8.41 4.46-12.13 2.51.08 12.68-1.59 11.38.38-2.76 3.537-4.09 9.277-5.9 12.888-1.9-.2-10.5 1.28-9.93-1.137zm-22.8-2.63c-3.48-1.23-8.242-1.57-10.094-4.265l3.62-11.48 10.73 3.292zM127.67 26.94l8.41-.08s40.4 51.69 55.54 71.805c-.506 2.05.17 19.4.17 19.4-21.45-30.18-64.12-91.127-64.12-91.127zM50.19 99.07c-2.258-2.426 1.334-4.574 2.828-2.408 1.315 1.91-1.636 3.686-2.827 2.407zm45.33-8.476c.13-11.978 8.625-26.194 8.536-25.83-.098-.024 1.21 11.71 2.844 15.4-.44.652-10.98 11.18-11.38 10.43zM59.336 86.62c-6.585-12.59-14.5-22.132-21.392-28.814 8.584-8.12 15.02-18.148 21.624-28.027 5.452 10.36 12.54 19.83 20.487 28.83-7.973 7.83-15.506 18.92-20.72 28zM6.36 61.06c3.86-3.847 9.558-12.598 9.503-12.61 2.712 4.43 5.57 9.016 9.508 12.677-.04-.04-6.1 6.474-9.23 12.597-2.79-5.104-6.47-9.544-9.78-12.664zm-.547-27.846v-3.71h2.775s-.032.302-.01-4.756c.03-7.075.385-9.248 1.8-11.055 3.81-4.867 10.8-3.375 12.636 2.698.14.47.455 1.64.486 3.19.083 4.027.09 10.708-.044 14.88.067 1.636-.516 3.768-.936 4.13.202 1.488 2.54 1.787 4.006 1.67v3.88c.007-.02-1.487.145-3.248 0-.742-.06-2.456-1.47-2.456-1.47s-2.71 1.863-5.144 1.813c-7.968-.165-7.083-10.11-7.06-11.246zm6.383.98s.006 1.396.09 2.33c.282 3.082 2.294 4.68 4.3 4.132 1-.31 1.587-.914 1.587-.914-1.706-2.532-3.734-4.66-5.977-5.55zM19.6 18.76c-.852-4.65-5.23-5.362-6.882-1.427-.297.71-.545 6.313-.545 6.313l.034 6.62c3.553.782 5.513 3.062 7.733 5.648 0 0 .445-11.9-.34-17.153z" fill="#d40000"/><path d="M30.71 24.752l-.317 262.08 163.067.03-.055-261.685zm149.02 2.052c-1.324 14.5-1.556 25.865 5.968 40.904-1.36 1.425-11.597 1.83-14.824 3.517-.06.405.83 1.106.83 1.106 3.374-1.56 16.537-2.99 16.537-2.99-5.51-9.61-10.04-28.09-6.63-42.26l9.5.03-.06 69.83s.75 13.48 1.03 21.076c-5.06-6.537-11.76-15.667-16.14-22.445-5.315-7.476-11.23-16.246-17.306-24.473-1.79-2.59-4.345-5.954-6.43-8.983-3.27-4.676-5.976-8.305-9.37-13.34-3.623-5.213-7.096-9.944-11.403-15.997-3.65-5.15-3.82-5.763-3.82-5.763zm-62.392.27c6.158 10.703 17.182 14.327 19.956 15.05l1.612 2.354c-12.997-2.546-19.957-10.89-23.225-16.05-.25-.4-.22-1.323-.22-1.323zm-6.095 0c-1.704 4.04-4.088 6.364-6.347 8.81l.078-2.598c.07.163 3.383-3.514 4.524-6.212zm2.98 0s.05.69-.155 1.258c-1.305 4.214-9.407 12.212-9.174 11.013l-.083-2.063c-.03.09 6.09-5.83 7.69-10.208zm-5.89 0c-.632 1.177-2.988 4.73-3.2 3.745l.208-3.75zm18.51 0c1.022 1.478 1.95 2.56 3.023 4.07.2.29.32.63.27.76-.162.42-.647.107-1.99-1.082-2.198-1.95-3.695-3.748-3.695-3.748zm-8.193 0l1.99.005c4.12 6.84 11.516 10.48 14.076 11.28.682.75 1.42 2.13 1.705 2.43-6.9-1.87-14.63-7.707-17.77-13.725zm4.84-.03c2.194 3.17 5.634 5.39 7.57 6.905 1.043.81 2.42 2.48 2.29 2.81-4.315-1.368-9.36-6.15-11.677-9.69zm-8.46 1.96l1.2 1.91c-2.907 4.792-6.55 9.108-11.41 12.51l-.027-2.502c5.515-3.972 7.898-7.963 10.236-11.917zm1.945 2.768c3.464 4.667 10.93 11.89 22.904 14.048 0 0 .68.614 1.67 1.965 1.26 1.713 1.28 1.78 1.44 4.588.11 5.138 1.78 12.112 3.44 16.5-.21 1.09-.4 1.645-2.458 4.423-8.57 11.576-26.83 22.524-35.825 7.58-3-4.787-3.29-13.965-3.48-19.688 0 0 .06-.403.08-.512.216-1.04.513-.875 2.14-.43 1.644.706 3.36.136 5.1-.338 1.985-.8 2.15-.184.237 1.602-.666.617-1.476 1.56-1.39 1.515.084-.045 1.197-.5 1.69-.874 1.527-1.16 1.89-.71 1.322.57-2.404 5.43-2.83 5.65.55 7.16.704.315 1.185.667 1.58 1.01 2.312 2.177 1.482 1.005.835.006-.993-1.563-.094-2.39 1.585-1.42 1.12.646 2.594 1.168 3.395.92 1.557-.506 2.03-2.21 1.57-4.085-.37-1.036-2.495-2.87-2.005-.95 1.277-.06 2.38 1.753 1.27 2.98-.838 1.13-2.33.52-4.623-.996-1.266-.95-2.803-.465-2.743.705.04.786-1.076.605-1.8-.396-.4-.557-.13-2.157.626-3.674 4.75-9.55.745-18.81-7.48-16.2-.905.287-1.72.52-1.72.52l-.045-3.653c4.724-3.29 9.733-8.54 12.12-12.87zm4.802 17.143c-1.24 1.497-.8 2.83 1.922 1.487 2.21-1.092 2.52-1.22 4.94-1.308 3.43-.124 6.5.966 10.31 3.303 2.522 1.55 2.89 1.666 2.205.696-2.04-3.903-14.093-9.828-19.387-4.178zm-11.647.447c2.38.6 4.665 2.17 4.267 2.823-.143.234-.282.28-.585.12-1.74-.86-4.517-2.266-8.53-.55-.442.19-.687-.104-.685-.638.004-1.035 1.747-1.862 3.588-1.93.655 0 1.37.034 1.945.175zm13.827 3.027c-1.42.73-1.906 1.13-2.51.8-1.44-.79-1.134-.17-.24 1.41.63 1.12.625 1.35.53 2.03-.1.744-.085.772.64 1.57 1.353 1.78 2.7 3.495 4.727 4.844.632.42 1.477.9 1.54.902.203.005.126-.156-.236-.508-2.596-2.5-4.644-4.737-2-3.786 3.08 1.006 6.007-.245 8.408-1.06.98-.304 2.007-.56 2.262-.56 2.217.004 2.74-.92 1.323-2.327-4.79-5.38-8.77-6.644-14.44-3.325zm11.382 1c.99.914 1.51 1.41 1.41 1.65-.11.255-.87-.18-2.15-.86-2.578-1.373-5.49-1.696-9.14-.643-2.83.817-1.997-.48 1.16-1.7 2.523-1.165 6.01-.817 8.71 1.55zm-26.44-1.85c2.16-.036 4.412.673 5.92 1.972 1.05.906.28 1.116-1.427.41-2.583-1.068-4.76-1.238-6.878-.246-.665.31-1.432.68-1.642.66-.352-.24-.503-.938-.196-1.43.85-.837 2.54-1.344 4.22-1.37zm35.64.74c.155.007.394.26.75.76.646.91.67 1.36.135 2.95-.654 1.94-.917 1.625-1.08-1.08-.107-1.76-.11-2.64.193-2.626zm2.14 2.927c.246-.035.534.4.994 1.3.322.627.246.815-.758 3.752-.42 1.23-.817 2.21-.828 2.216-.31.243-.27.222-.4.053-.717-.915-.666-2.698-.05-4.836.467-1.62.72-2.448 1.04-2.49zm-19.484.222c.08-.008.556.097.556.097-.05 4.35 3.315 3.48 3.76.39 0 0 .83-.085.96.12.4.648-.53 2.51-1.914 3.118-1.01.45-2.385.342-3.206-.414-.23-.423-.925-2.04-.795-2.71.16-.392.403-.575.637-.595zm-2.006.51c.035-.004.068-.004.1 0 .33.014.57.104.7.503l.724 2.21c-.53.634-2.546-.65-2.54-1.615 0-.666.502-1.076 1.02-1.1zm-13.68-.007c.508-.05.687.006.746.48.172 1.437-1.264 2.998-3.127 3.083-1.806.2-2.78-1.197-2.724-2.56.005-1.037.897-1.167.996-.348.286 2.365 2.31 2.5 3.23 1.195.35-.51.27-1.778.876-1.85zm22.138.48c.144-.005.336.05.62.145 1.86.594 1.91.88.317 1.454-1.896.683-2.02.772-1.574-.55.25-.74.325-1.036.64-1.05zm-19.71.21c1.38.084 1.493 1.25.28 1.64-1.805.797-2.413.745-1.714-.43.38-.833.72-1.195 1.432-1.21zm-8.626.418c.166 0 .355.063.557.214.206.625.56 1.106.834 1.753-.284.28-.96.28-1.39-.06-.863-.685-.715-1.895-.002-1.902zm43.345 1.35c.536.002 1.08.85 1.26 1.482-1.87 2.402-1.58 6.888-2.01 8.243-.38 1.1-.5.15-1.54-2.71-.42-1.152 1.694-6.88 2.184-7.01.034-.01.07-.013.106-.013zm1.914 2.462c.418.237.98.783 1.08 1.64.06.5-.185 1.162-.344 1.817-.38 1.557-.89 4.5-1.076 7.22-.08 1.157-.077 2.2-.128 2.3-.564 1.102-1.75-1.865-1.65-4.227.37-1.885.576-8.492 2.113-8.75zm2.644 3.39c.264.367.43.648.513.965.14.55.022 1.21-.3 2.61-.86 3.72-.736 7.72-.176 11.83.12.866-.48.43-1.39-1.06-.504-.822-.826-1.954-.98-3.29-.317-2.92.293-6.882.81-10.006.23-1.38.39-2.6 1.523-1.042zm1.424 2.26l1.505 1.81s-.64 4.165-.637 6.387c-.107.83.744 9.88 1.022 10.61-.925-1.034-1.357-1.64-2.37-2.94-.114.017-.99-8.916-.385-12.33.365-2.07.863-3.538.863-3.538zm2.36 3.6c.253-.01.573.276.976.84.363.51.54.93.56 1.567.015.462-.215.82-.222 1.646-.04 4.922.624 9.567 1.46 14.045.296 1.603-.28.95-1.23-.064-.87-.922-.886-1.28-1.35-2.6-.09-.26-1.02-9.34-1.01-10.02.034-2.82.115-4.39.44-5.067.106-.22.23-.334.38-.34zm-5.46 9.89s-1.75.9-2.21.585c-.736-2.01-3.4-7.4-3.446-8.36.048-.31 1.093-1.73 1.093-1.73 1.47 3.197 2.795 6.46 4.56 9.51zm-32.91-6.474c-.53.62-1.16.36-2.43-.198-.65-.2-.55.068-1.63.628-.833.435-1.126.446-1.68.44-.73-.005-.992-.26-.995.253 0 .285-.043 1.568-.216 2.23-.237.904-.44 1.3-.31 1.46.37.34.68.134 1.462-.62 1.3-1.26 2.173-.9 3.62-.43 1.645.53 1.985.72 3.49.2 2.13-.75 3.414-.75 4.263-.21 1.464.93 1.905.876 1.303-1.67-.197-.82-.21-2.095-.33-2.316-.136-.248-.507.464-.897.726-.746.5-1.13.49-2.808-.057-.992-.328-2.106-1.39-2.85-.437zm26.976.332c.647 1.53 3.23 6.64 3.152 7.212-.504.452-1.178.78-1.577.377-1.29-2.357-1.68-3.627-2.73-6.273-.31-.63.627-2.24 1.154-1.315zm13.873-.188c.18-.025.563.355.85.735.882 1.19.935 1.33.963 2.6.1 4.6.68 10.01 1.973 14.19.254.82.74 1.82.685 1.954-.433.636-2.448-1.06-3.056-3.64-.84-3.275-1.33-6.692-1.597-8.916-.34-3.913-.34-6.713.173-6.917zm-15.5 2.537c.742 1.435 1.68 3.912 2.31 5.4.29.65-1.18 1.156-1.52.94-.586-.44-.865-1.678-1.25-2.418-1.23-2.683-1.45-2.74-.77-3.576.42-.58.92-1.294 1.23-.338zm18.42 1.647c.11 0 .25.106.423.334.776.92 1.303 1.62 1.506 2.3.148.494.03.864.083 1.758.14 2.344.752 5.54 2.495 12.086.17.638.4 1.393.37 1.598-.167 1.202-1.93-.746-2.443-2.758-.596-2.283-1.68-5.2-2-7.896-.66-4.28-1.023-7.42-.44-7.42zm-19.97 1.73c1.465 3.42 1.58 3.414.66 3.685-.974.286-1.03.192-2.178-2.136-.837-1.7-1.003-1.914-.3-2.527 1.074-1.265 1.355-.06 1.82.976zm-20.41-.815c-.167.004-.657.376-1.15.57-1.21.48-3.36.513-4.67.12-2.32-.934-1.667.277.39 1.014 1.59.534 4.75.12 5.24-.875.3-.317.41-.834.193-.83zm17.656 1.8c1.305 2.02 1.7 2.828 1.48 2.985-.21.21-1.248.6-1.674.39-.536-.26-1-1.51-1.236-2.482.164-.478 1.023-1.335 1.426-.888zm-32.77.85c.583.003 2.104 2.046 1.795 2.415-.083.19-.653.01-1.985-.36-.445-.16-1.45-.29-1.133-.94.16-.29 1.09-1.11 1.323-1.11zm31.364 2.802c-.13.35-1.116.43-1.535.405-.36-.75-.455-1.108-.556-1.604.137-.3.812-1.07 1.146-.92.2.18.843 1.746.945 2.116zm27.217-1.97c.21.006.57.372 1.107 1.14 1.015 1.448.878 1.343 1.605 4.805.827 3.925 1.814 6.72 2.81 10.73.015.666-.254.49-.993.04-1.207-.736-1.604-1.553-1.984-3.68-.65-3.516-2.02-6.77-2.548-10.92-.277-1.375-.3-2.128.005-2.117zm-30.423 1.402c.714-.027.618 1.072.414 1.25-.52.453-1.956.32-2.203.344-.55-.864 1.327-1.566 1.79-1.595zm34.048 3.734c.21.03.774.825 1.827 2.305 1.01 1.42.79 1.19 1.394 3.53.856 3.23 2.274 5.56 3.105 8.54 0 .34-.412.294-.806.133-.77-.32-1.45-.864-2.1-1.396-.447-.48-.44-1.09-1.756-5.603-.472-1.63-.596-2.05-1.187-4.526-.496-2.07-.717-3.024-.48-2.99zM59.4 97.05c3.44 6.332 2.167 9.14-5.234 10.017-.534-.075-.03 3.244-.045 4.727 3.71-2.12 8.19-2.617 12.326-3.948-1.125 3.603-3.1 7.686-9.083 7.057-6.252-4.83-13.61-1.92-18.605-3.89-2.716-1.01-3.753-4.02-3.785-4.54 3.25.33 6.93 1.027 10.09.8-3.45-2.656-2.44-6.33-1.96-8.01-4.034-5.09-.666-10.81 5.194-9.48.604.137 1.8.726 1.8.726 5.652-5.06 12.204-.307 9.296 6.55zm114.36-3.08c.233-.022.75.59 1.786 2.038 3.074 4.3 5.735 8.3 5.695 8.525-.132.75-3.335-.55-4.143-1.61-.92-1.21-3.51-7.43-3.507-8.42 0-.33.046-.513.17-.525zM48.583 112.385c1.6.234 2.046.37 2.03.995.136.53-3.88.6-4.425.207-.436-.314.125-1.003.554-1.17.623-.186 1.24-.12 1.84-.032zm110.72.57c-22.44 10.598-31.62 38.787-20.292 60.39l-1.56 1.126c-11.1-22.84-2.84-47.31 15.2-59.67.73-.52 2.35-.92 3.1-1.42 0 0-7.36 1.68-9.85 2.66-.5-.016-1.99.507-3.58 2.237-1.394 1.29-5.754 7.303-5.615 7.51l-11.585.468.01.43 11.37-.264c-11.708 19.28-8.83 37.62-1.6 50.46l.18.12c.42.28 1.523-.527 3.82-2.7.942-.896 2.133-2.01 2.644-2.473 1.416-1.3 3.435-3.54 4.823-5.16-7.872-16.048-.106-37.18 18.318-46.707.035-.51-.193-2.057-.193-2.057s-.695-.625-1.107-.56c-20.527 9.04-28.75 31.49-20.405 51.91l-1.375 1.497c-10.487-21.142.77-47.57 20.396-55.055-.01-.477-.433-1.087-.96-.72-21.19 9.838-30.423 34.958-20.044 56.37l-1.304 1.156c-11.81-23.442.633-49.713 20.14-58.69.575-.134-.513-.845-.513-.845zm-114.21.218s-.148 1.25.293 1.675c.203.89-.12.794-.88.613-1.864-.44-.41.62 1.117 1.48 1.503.847 1.3.82-.01 1.65-.88.56-.79.77-.67 1.194.175.63.295.21.66-.125.768-.707 1.38-.883 2.063-.88 1.024.004 1.128.824.947 1.463-.408 1.34-1.79 1.27-2.923.937-1.852-.546-4.88-3.76-4.833-5.653-.13-1.695 2.19-2.42 4.238-2.343zm8.335.414c.717.264 1.622.617 2.617 1.034 1.374.44 2.766 1.15 3.664 1.75 2.73 1.828 2.56 5.47 2.37 5.83l-14.13 13.39s-.8-.39-1.55-.772c-2.378-1.21-2.948-1.85-1.63-2.52.64-.326.844-1.026.936-1.71.12-.917.073-.76.622-1.18.95-.726.996-1.026 1-2.235.003-.8.086-1.17.377-1.67.23-.4.474-1.234.637-2.19.027-.157.035-.55.066-.688.167-.746.404-.966.56-1.136.16-.17.415-.748.59-1.248.396-1.116.32-.95.958-.827.926.18.794.72.693 1.575-.05.415-.326.707-.23.613.124-.123.692-.39.81-.42.295-.065.59.036.666.5.043.258-.07.733-.062 1.1.02.953.058 2.094.275 2.846 1.05 3.62.84 3.12.483.106-.084-.72-.185-1.78-.08-2.66.073-.624.25-1.393.493-1.814.62-1.08.652-1.294-.69-1.825-.5-.2-1.35-.545-1.53-.89-.215-.42-.855-.997-1.69-1.193-2.03-.476-3.21-2.44-2.917-2.73.19-.19 1.01.06 1.525.08 1.852.065 2.246-.03 3.066-.735.44-.375.636-.71.98-.734.37-.006.838.267 1.11.363zm96.145 2.17c-18.976 15.35-22.302 40.186-12.836 59.35l-1.64 1.286c-11.896-22.478-3.905-46.727 10.71-59.988zm-109.554 1.83c.33-.032.7.46 2.03 1.883.9.96 1.83 1.792 2.32 2.072 1.113.534.87.312-.06 1.193-.95 1.09-.426 1.985-1.56 1.44-2.953-1.387-5.026-5.47-3.106-6.453.145-.075.255-.125.367-.136zm-1.47 4.293c.07-.005.15.005.22.024.364.09.805.774 1.28 1.25 1.31 1.323 1.92 1.91 2.97 2.373 1.03.456 1.06.567.333 1.37-.265.294-.42.646-.484.842-.063.19-.08.44-.3.48-1.15.22-4.97-2.1-5.12-3.697.124-1.495.5-2.607 1.092-2.65zm8.09.445c.66-.017 1.05.573 1.05 1.53-.005.664-.378.934-1.137 1.218-1.623.607-2.62-.554-1.488-1.836.476-.538 1.12-.9 1.574-.912zm-.99 3.897c1.222.005 1.58 1.037.68 1.927-.84.83-2.545.84-2.54-.08.002-.72 1.08-1.86 1.86-1.85zm-7.59 1.235c.83.245 2.844 1.697 3.73 1.867.05.49-.54.624.294 1.545.38.41.412.7.082.87-1.01.54-4.514-1.165-4.75-2.92-.113-.856.17-1.342.643-1.373zm4.57 2.098c1.205.05 2.57.086 2.424.662-.104.417-.535 1.52-1.086 1.313-.268-.1-.53-.367-.715-.545-.643-.617-.814-1.438-.623-1.43zm45.57 4.988c3.51 3.178 16.26 36.374-10.314 60.56l-5.64 1.688c25.514-20.03 21.27-48.47 14.385-60.74 0-.36-.1-.32-.735.26-.556.505-.615.61-.39.706 7.78 11.973 10.69 45.79-19.968 62.108-.515.535.526.454.526.454.054-.44 13.803-3.78 12.833-3.864 12.814-11.33 23.97-38.343 10.082-61.89-.337-.22-.785.73-.785.73zm-4.43 3.76l-.18.747c11.124 21.837.507 48.59-20.17 58.49.34.25.72.423 1.1.6 23.454-12.63 30.217-39.358 19.986-60.062zm-1.86 1.547l-.13.793c9.21 18.584 1.9 44.373-20.077 54.835-.21 1.125.002.796 1.03.743 25.43-13.63 27.82-39.56 19.862-56.4zm-1.58 2.23c-.717.948-2.032 1.44-2.47 2.66 7.388 19.525-2.16 38.32-18.32 46.24-.014.983-.72 3.415.99 3.026 19.97-9.046 28.658-33.09 19.927-52.014 0 0-.114.082-.126.087zm100.3 37.747c.735.05 1.394.274 2.077.363 2.48.322 4.09 2.13 2.98 3.23-.364.36-.87.153-2.484-.635-.74-.362-.86-.7-1.013-1.518-.182-.98-.377-1.078-.626-.32-.25.77-.52 1.245-1.37 1.05-2.376-.552-1.477-2.19.438-2.17zM154.1 196.45c-5.955-3.38-13.31-9.48-17.514-16.4-2.09 3.92-4.548 11.06-4.548 11.06l-9.35-2.618-.11.195 9.24 2.663-.9 3.084c-.097.332-1.53 3.84-1.53 3.84l14.433 6.736c-.89 1.4-1.87 2.304-3.11 3.61-.7.735-.72 1.688-.72 1.688L160 191.224s2.58 3.828 3.54 4.696c.9.815 1.18 1.01.13 1.255-4.7.69-8.35 4.25-7.08 9.024.21.53.62.332 1.515-.23 3.12-2.825 10.75-5.442 11.01-4.78l.03 3.04c-8.212.12-7.37 6.16-6.77 9.4 0 .07-2.374 2.146-2.374 2.146.84.44 1.666.894 2.44 1.44-.72 4.025 2.71 9.864 9.45 6.875.587.6 1.138 1.2 1.78 1.95.69-.8 1.487-2.68 1.487-2.68 3.35 1.515 10.298-1.877 6.744-9.646l1.96-1.87-1.883-1.186c-.05-1.978-.357-3.74-1.536-5.464 0 0 3.16.806 5.5.942 1.447.13 2.665.166 2.54-.707-.032-.258-.25-1.516-.39-1.928-.7-2.034-4.32-3.53-7.832-3.725-.572-.032-1.19-.014-1.313-.162-.23-.28.183-.676.56-.61 1.926.335 3.777-1.088 4.11-2.898.067-.318.46-.9 1.025-1.517 1-1.1 1.08-1.07 1.06-2.654-.016-1.1.18-1.344.684-2.08.655-1.052.96-2.424.63-3.843-.104-.45-.53-1.086-.167-2.207.59-1.822-.71-3.49-2.41-4.44-.136-.038-.095.095-.207.23-1.542.48-3.42-.625-3.42-.625-.388-.19 1.314-10.075 4.84-9.192.585.353.833 2.072.79 2.102.16-.005.25-1.01.02-1.684-.238-.705-.785-1.377-1.837-1.178-.815.153-1.756 1.235-2.182 1.78-1.643 2.096-1.662 3.436-2.212 5.67-.263 1.054-.29.993-1.752-.148-1.047-.82-1.555-1.08-1.19-1.56.164-.216.843-.9.843-.9l12.76-12.28v122.98h-72.17l.506-15.803c1.352-11.112-1.03-34.447-2.83-36.64 1.39-1.563 5.702-5.33 5.464-5.5l-.575-.337-2.28 2.098-5.634-1.705c-2.4-1.66-4.852-3.195-7.395-3.848-4.153-1.066-12.153 2.33-12.16 2.366-12.78.95-23.014 6.14-22.87 6.1-.557-.51-1.293-2.14-1.313-2.13-6.587-9.167-13.063-14.303-21.91-20.57l11.207-6.19-26.56-27.747-.234-22.533 38.475-36.78c.23-.635 12.278 8.51 16.76 15.95.86-3.637 2.465-6.94 3.8-10.51.14-.327 7.655 2.78 9.884 2.91.333.02.602-.33.602-.33l-9.918-3.227 2.028-5.81s.706-1.577-.09-1.84c-4.522-1.46-8.764-4.04-13.088-6.235 0 0 2.02-2.245 2.05-2.344.03-.093.847-1.297.652-1.712-2.2 2.133-20.15 18.78-20.15 18.78-.51-2.858-1.316-3.856-3.06-5.62.95-.045 2.44-.984 3.3-1.61 2.63-1.917 4.06-5.337 3.716-7.335-2.526.802-4.806 1.744-7.97 2.32-1.776.32-3.463 1.123-4.485 1.984l-.154-3.186c.007.036 4.256.744 6.225-2.107 1.7-2.458 1-5.27.61-6.705.048-.32-.05-.283.685-.956.54-.5 1.38-1.14 1.38-1.14.037-.18-2.193-1.01-2.57-1.764.594-5.91-4.127-8.19-8.122-7.14-.745.226-1.1.365-1.99-.624-.132-.148-1.2-1.274-1.2-1.274s-.47 1.085-.71 1.56c-.782 1.545-1 1.08-2.686 1.163-4.28.21-6.19 3.663-5.207 7.905.23.996.13.843-.526 2.102-.334.643-.88 1.463-.88 1.463s.785.434 1.314.67c.782.35.823.76.82 1.54.11 1.723.49 2.875 1.476 4.353-3.352.077-5.924-.236-8.96-1.244.465 4.664 3.906 6.402 8.12 7.09 0 0-.442.41-.907.593-.988.285-1.605 1.15-1.596 1.926-.14.74-.62 1.485-1.06 1.88-.66.568-1.198 1.368-.94 2.916-.066 1.122-.337 1.446-.666 1.874-.662.86-.886 1.713-.72 2.843.076.525.238 1.65.13 2.815-.182 1.94.513 2.665 1.396 4.03.57.886.45.91.32 1.55-.317 1.543-.647 2.335-.99 3.508-.767 2.625-.796 4.614-.17 5.126.946.772 2.016.54 2.513.386 3.73-1.15 3.084-4.81 3.28-7.27.107-.63.32-.933.53-.903 1.056 1.23 2.17 1.945 3.606 2.723-4.96 5.05-8.205 8.14-14.478 13.65l.17-123.006h71.556s.074.91-.096 5.36c-.31 9.047-.69 18.523-.097 27.744.1 3.195.035 6.346.494 9.5.45 3.08.646 6.397 2.08 9.26.58 1.556.6 1.436-1.6 3.47-1.08.998-1.998 2.06-1.958 2.248.015.062-.046.296.12.164.11-.09.91-.878.996-.98.596-.705 1.594.2 5 1.16.665.186 1.606.814 2.326 1.335 5.09 4.29 12.25 2.95 17.6.614 1.52-.665 1.89-.734 4.334-1.02 9.04-1.075 18.7-5.024 18.68-5.01l1.18 1.93s.445-.08.76.405c5.2 9.82 22.175 21.04 21.873 20.52l-11.093 6.142c8.08 9.98 26.55 26.91 26.55 26.91l-.426 24.337c-4.96 3.966-9.32 8.513-13.68 12.953-1.254 1.24-2.14 1.95-1.663 1.97 1.135-.17 2.11.944 3.034 1.72.584.65.44.59-.23 1.48-.473.623-.646.803-.65 1.254.02.874.01 1.46-.764 2.114-.485.604-.76.993-.848 1.71-.086.718-.08 1.177-.573 1.81-.838.18-.918 1.396-.77 1.94.874.868.474 1.808.555 1.61-1.67 1.814-3.425 3.386-2.305.85.508-.944.684-1.727.684-1.727s-.806.833-1.227 1.227c-.645.596-.88.245-.9-1.607-.083-1.4-.674-3.356-.91-3.73-.13-.21-.152.153-.09 1.502.08 1.775.29 2.29-.333 4.062-.844 2.394-1.445 2.733-.073 2.65 1.3-.078 2.4-.092 2.968.683.193.266.44.71.964.977 1.07.585 1.92 1.233 2.513 1.88 1.92 2.09 1.37 3.955-2.345 2.69-1.955-.668-.674-1.507 1.428-1.313 1.29.12 1.51-.355.39-.697-2.076-.385-2.41-.62-3.78 1.01-5.756-.57-8.99-3.787-10.543-6.41-.65-1.096-.846-1.305-.394-1.926.18-.243.07-.17-.237.17s-1.142.62-1.42.867c-1.933 1.93-3.893 4.004-5.636 5.573zm25.06-13.52c.977.12.96.94.085 1.73-.818.62-1.38.74-1.842.273-.81-.817.236-2.01 1.758-2.005zm2.845.57c.79-.006 1.794.36 2.987 1.35 1.425 1.182 1.75 4.05.442 4.545-.55.21-.635.005-1.803-1.105-.783-.747-1.64-1.424-2.48-1.825-1.714-.818-1.934-1.127-.774-1.683.243-.125.56-.42.704-.652.296-.477.386-.63.925-.63zm-1.854 3.814c.23.006.537.145 1.01.4 2.898 1.58 4.31 4.06 3.33 5.46-.64.915-1.684.565-2.48-.736-.45-.733-1.64-1.67-2.995-2.357-1.55-.782-1.583-.894-.464-1.43.46-.22.803-.53 1.03-.93.26-.46.28-.413.57-.405zm.93 5.905c2.19 2.18 1.94 3.36.52 4.25-.97.6-2.527.753-3.037.25-.82-.72-.8-1.546.11-1.81.85-.18.53-.523-.26-.724-2.834-.807-4.58-2.31-1.495-1.985.885.095 1.74-.593 2.203-1.142.67-.814 1.574.763 1.968 1.156zm-149.12.84l63.82 91.36-51.59-.1s-.195-.67.225-6.15c.62-7.43-.332-13.873-2.09-21.126.22-.025-2.47-8.805-4.565-13.094-.38-.897-.32-.984.92-1.143 3.65-.588 7.583-1.47 11.232-3.015 1.7-.15 4.19.51 4.05.304-.06-.1-2.2-2.068-2.2-2.068-5.96 2.38-11.457 3.25-16.63 3.84 6.87 11.69 9.32 27.605 7.26 41.9l-9.886-.03-.03-70.353zm11.41 13.53c.903-.038 3.15 1.55 3.423 2.74.06.243.64 1.71 1.298 3.072.014.25 2.226 4.246 1.254 3.898-1.933-2.627-5.39-7.102-6.257-9.282 0-.29.038-.42.29-.43zm6.896 3.994c.12.66.79 2.385 1.318 3.523 1.378 2.965 3.51 7.613 3.077 8.936-.29.892.01.845-.77-.256-.383-.54-1.575-2.2-1.86-2.582-.7-.935-.23-.076-.63-1.6-.95-4.31-2.482-6.577-3.48-9.096-.355-1.183 1.89.6 2.347 1.08zm1.226.656c.186.13 2.715 1.91 2.97 2.164.897 3.187 4.48 13.4 3.554 15.226-.324-.25-1.69-1.9-1.88-2.747-.413-4.885-1.962-8.397-3.625-12.037-.47-1.096-.836-2.193-1.02-2.605zm4.758 3.587c.8.39 1.63 1.284 2.1 2.083.313.544.474 1.18.77 2.525.916 4.168 2.665 8.39 1.878 12.84-.49.664-1.557-.844-1.71-2.33-.505-4.924-.94-7.282-2.67-13.074-.336-1.122-.59-2.003-.367-2.04zm4.06 3.82c.174.006.524.324 1.11.873 1.136 1.07 1.296 1.463 1.303 3.233.04 2.602.907 5.573 1.04 8.2.08 1.516.36 5.44.12 5.67-.33.457-1.794-1.205-1.68-3.752.186-3.06.034-5.362-1.27-10.66-.604-2.446-.91-3.492-.648-3.552.01-.003.02-.006.03-.005zm117.83-15.464c4.56 2.925 2.952 8.33 1.976 8.99 6.296 7.957-3.492 12.03-6.598 9.17-4.598 4.57-12.488.74-9.45-6.79-.003 0-5.774-11.03 5.614-10.294 0 0 .194-4.46-.128-4.66-4.065-.276-9.59 3.64-11.157 4.72-.87.526-1.06.276-1.06.276-.22-2.312-.224-3.37.716-4.66 1.64-2.25 4.355-3.013 7.918-3.795 4.41 1.355 8.606 3.486 12.69 3.155 2.25.01 4.55.374 6.73 1.544 1.47.695 2.238 3.3 2.238 3.3-2.308 1.206-9.494-.96-9.494-.96zm-2.17-16.36c.02-.79.912-1.67 1.79-1.567 1.208.086 1.366 1.515.293 2.04-.31.25-1.31-.12-1.362.16.075.486-.416.28-.51.106-.167-.205-.204-.5-.204-.74zm-.73 3.115c.443-.31.813-.338 1.26-.396.683-.083 1.56.02 1.754.74.194.702-1.16 1.117-2.25 1.135-.56.01-1.2.12-1.37-.27-.158-.368.382-1.04.605-1.208zm-138.013-50.3c.88-3.06.33-4.77 1.796-8.54l3.57 1.187s.153 3.697-.567 5.757c-.72 2.058-3.087 3.7-4.797 1.595zm26.588 82.7c.422.05 1.456 1.524 1.922 2.87.43 1.248.287 2.833.6 4.178.7 4.6.66 9.22.473 10.62-.093.69-.54.41-1.155-.25-.892-.97-.768-.99-.758-3.668.01-2.294-.5-7.963-.734-9.115-.43-2.13-.612-4.16-.51-4.51.028-.098.086-.14.164-.13zm41.747.55c4.59.734 8.27 3.87 10.37 9.038 2.033 5.25 2.534 12.42 2.85 19.01-.023 1.57-.673 1.17-2.375.19-1.86-.907-2.256-.644-4.97-.022-1.695.39-1.54-.765 1.245-2.676.95-.62 2.054-1.446 1.69-1.57-.183-.063-1.032.166-1.646.662-2.736 2.21-3.478 2.747-2.69.6.2-.545.833-2.05 1.098-2.774.99-2.7-.15-3.855-3.516-5.565-.842-.425-1.395-1.14-.555.355.69 1.22-.732 2.21-2.49.78-1.224-.993-3.68-.33-4.473.91-.77 1.2-.358 3.44 1.156 4.166 1.337.576 1.834.16.544-.732-1.66-1.15-1.337-3.093.527-3.085.46 0 1.275.513 3.33 1.63 1.47.795 2.518.46 2.52-.73 0-.794.456-.73 1.423-.25 1.3.643 1.16 1.226.47 3.026-.464 1.257-.695 2.685-1.12 4-1.097 4.42-1.243 9.43-.03 10.99 3.227 4.152 6.655 3.712 9.59.97l-.127 4.546c-2.994 2.4-6.49 4.04-11.886 12.94-1.882-2.364-9.957-12.028-22.906-14.21l-2.907-3.99c.05-.247-2.177-14.827-3.633-19.79 0 0 1.6-2.433 3.055-4.226 5.814-7.16 15.64-15.36 25.454-14.195zm-16.89 4.14c-.5.16-.66-.834-.39-1.024.6-.05.81-.03 1.41.013.45.027.44.547-1.02 1.01zm-21.85-.743c.642.46 1.43 1.7 2.202 2.83.426.625.184 1.662.25 2.686.095 1.45.256 3.845.358 5.315.2 2.866-.07 5.264-.487 6.13-.428 1.034-1.296.32-1.512-1.098-.05-.34.235-3.86.235-5.79 0-3.32-.848-7.42-1.048-10.078zm19.6-.02c.223-.013.4-.005.55.188.7.894.98 1.434.343 1.923-.84.7-1.61.52-2.076-.81-.3-.95.41-1.25 1.176-1.31zm-2.6.787c.75.503 1.496 1.83 1.574 2.786-.048.27-.28.49-.783.9-.5.458-.656.43-1.215-.452-.873-1.368-1.283-2.268-1.11-2.74.436-.455 1.005-.637 1.537-.487zm30.61.173c1.253.106 2.492.68 3.713.968l-1.864 1.8c-.554-.922-1.185-1.845-1.85-2.768zm-33.395.94c.69.895 1.89 3.237 1.824 4.108-.175.296-.447.56-.736.726-.23.062-.437-.34-1.213-1.71-1.35-2.39-1.743-3.06-1.043-3.35.37-.04.93-.024 1.168.224zm-2.72.554c.75.67 2.55 4.225 2.603 5.226-.02.28-.104.52-.27.71-1.13 1.22-.846 1.02-2.53-2.45-1.426-2.855-1.8-3.137-.86-3.458.21-.07.73-.166 1.06-.037zm-2.708.93c.492-.01.63.82 1.594 2.7 1.61 3.56 2.217 4.053 1.85 4.434-.45.567-.712.966-1.14.277-.972-1.58-1.937-3.6-2.843-5.37-.726-1.32-.79-1.483-.325-1.806.266-.186.664-.233.86-.236zm28.79 1.01c-.607.17-3.045.94-1.55 1.08.3.03 1.065-.16 1.602-.2 1.51-.104 4.65.18 4.536-.11-.287-1.083-3.767-.982-4.59-.77zm-30.9.332c0 .06.39.753.78 1.433 2.29 4.43 3.565 6.042 3.16 6.742-.337.422-.855.954-1.16.827-.494-.203-1.15-1.652-2.79-4.934-1.698-3.39-1.874-3.644-1-4.085.354-.165.79-.288 1.01.017zm-2.29 1.562c1.05 1.713.913 1.488.9 7.062-.01 3.46-.455 5.68-1.035 6.53-.305.444-.84.18-1.107-.69-.12-.4.225-.998.29-1.63.41-4.175.124-8.346.133-12.296.318-.033.64.738.814 1.017zm27.175 1.367c.49.7.37 1.266.367 2.208-.005 1.34.09 1.437 1.01.76.817-.59.883-.63 2.338.357.865.586 1.954.652 2.658.005.498-.456.67-.25 1.335-.08.727.4.93.465 2.486-.29 1.047-.462 1.09-.53 1.713-.2 1.1.966 1.26.616 1.11-.648.003-.44.13-1.264.26-1.8.547-2.25-.337-2.273-1.506-.84-.453.555-1.46.795-2.415.348-1.366-.642-3.498-.382-5.07-.117-1.868.31-2.73-.202-3.48-.84-.424-.363-1.394-.686-1.5-.41-.11.28.11.715.7 1.554zm-25 3.155c.233-.05.59.64 1.116 2.106.675 1.89-.507 8.464-1.22 9.54-.377.565-.62.91-1.392-.135-.307-.46-.068-.606.237-1.9.462-1.965.853-5.145.88-6.625.004-1.92.11-2.927.374-2.984zm2.376 6.375c.167.013.363.39.63 1.14.38 1.03.196 3.014-.303 4.53-.29.886-.563 1.83-1.056 2.62-.166.443-1.026.288-1.264-.696-.15-.623.37-1.395.62-2.386.25-.996.538-2.26.68-2.9.263-1.554.45-2.325.696-2.31zm18.39 2.914c-.02-.003-.04 0-.054.005l-.015.02c-.04.04 1.795 2.035 2.286 2.593.256.217 2.464 2.9 1.09 2.284-3.463-1.437-7.516-.73-10.01 1.674-.314.3-.57-.007-1.518-.08-1.94-.142-2.644.626-1.465 1.58.18.148.558.214.728.448.16.215.11.6.19.71 3.75 4.975 10.695 5.943 15.05 2.693.55-.407.86-.55 1.37-.4 1.014.303 1.103-.546.208-1.733-.39-.518-.87-1.115-.59-1.287.553-.476.827-1.254-.136-1.545-.66-.2-1.405-.94-1.78-1.97-.434-1.205-4.703-4.9-5.35-4.99zm-17.016 2.178c.815-.02.853 4.794-.05 6.255-.46.55-1.52-.48-1.36-1.538.12-.805.986-4.42 1.184-4.61.08-.077.16-.115.227-.117zm16.61 3.004c.685-.006 1.62.3 2.365.972.4.362 1.105 1.936.812 2.553-.08.316-.926.297-1.003.068-.466-3.178-3.04-3.64-3.86-.673 0 0-.53.45-.597-.418.18-1.685.972-2.49 2.28-2.503zm20.736.276c.817-.016 1.597.396 2 1.27.28.61.31 1.122.2 1.39-.085.2-.36.113-.36.113-1.308-3.585-3.086-1.927-3.73.055 0 0-.67.208-.756-.005-.084-.214-.03-.617.235-1.175.51-1.06 1.482-1.63 2.41-1.64zm-17.48.222c.462-.025 1.254.35 1.847.948.602.607.66.97.174 1.42-.29.27-1.33.536-1.53.067l-.874-2.04c-.083-.19.174-.38.384-.39zm-6.3.097c.52 0 .63.12-.185 2.01-.174.408-2.26-.18-1.864-.96.6-.62 1.534-1.042 2.05-1.04zm20.91.15c.208-.01.378.02.45.117-.188.067-.977 2.063-.977 2.063-.745-.09-1.635.02-1.796-.59-.153-.574.148-.925 1.197-1.33.317-.113.777-.24 1.125-.254zm6.11.51c.79.29.974.96.873 1.307-.077.262-.45.264-.715.063-.25-.29-.628-.79-.6-1.12.08-.333.183-.336.435-.24zm-39.38 1.847c.244.457.683 3.048.17 2.98-.497-.127-.73-.91-.816-1.612-.02-.145.424-1.35.646-1.368zm8.7 1.383c.23-.03.81.17 1.67.66 2.835 1.37 5.74 1.565 8.827.876 1.78-.46 2.234-.73 2.485-.426.428.52-.247 1.04-2.76 1.884-2.756.926-5.616.77-9.376-1.884-1.01-.714-1.14-1.06-.846-1.103zm31.45.72c.468.87-1.12 1.696-1.925 1.93-1.71.493-4.3.26-5.764-.617-.12-.073-.24-.152-.35-.235-1.19-.888-.697-1.52.628-.838 1.425.735 4.325.87 5.863.128.77-.37 1.3-.84 1.56-.37zm-35.19 1.62c-.158.034.11.434.662 1.033 3.877 4.35 13.127 6.712 18.326 2.227 1.63-1.53 1.38-2.217-1.188-.996-2.84.935-6.876 1.057-10.367.54-1.717-.23-4.512-.89-5.93-1.927-.895-.653-1.364-.91-1.503-.88zm26.733.13c.237.02.652.106 1.552.575 1.314.683 4.297.45 5.274.088 2.06-.76 2.48.206.53 1.283-2.17 1.315-5.17.8-6.92-.893-.55-.486-.84-1.09-.6-1.14.02-.004.13.084.16.087zm-25.703 7.697c7.635.697 19.157 8.274 23.65 17.375h-2.585c-4.514-7.16-11.46-12.926-19.7-15.077-.327-.25-1.54-1.98-1.365-2.297zm33.89 1.667l-.353 2.516c-1.28 1.048-5.97 4.934-9.45 11.017-.723-.033-1.074-.907-.954-1.5 2.785-5.493 6.115-8.525 10.756-12.034zm-30.858 1.97c1.752-.12 13.15 6 16.986 13.738h-2.1c-4.318-5.62-9.116-9.29-13.374-10.76-1.036-1.092-2.17-2.93-1.512-2.978zm30.505 1.75l-.02 3.4c-2.727 2.655-4.72 5.325-6.28 8.588h-2.117s-.47-.932-.307-1.513c2.407-4.33 4.71-7.49 8.723-10.48zm-17.314 11.988h-2.05c-1.728-2.444-4.297-4.796-6.655-6.196-.966-1.198-2.048-2.676-1.613-2.915.026-.88 9.095 5.25 10.32 9.11zm17.358-6.916l-.04 1.966c-1.383 1.773-2.55 3.26-3.66 4.95h-1.742c1.593-3.436 5.593-7.845 5.45-6.916zm-23.51 3.807c.636.168 2.94 2.372 2.87 3.11l-1.04-.03c-.582-.735-1.273-1.5-1.683-2.255-.256-.476-.42-.918-.142-.824zm23.118.61c.007-.004.01-.003.015 0 .003 0-.02 2.5-.02 2.5h-1.753c-.19-.033.85-1.89 1.76-2.5z" fill="#131f67"/><path d="M153.978 26.47c-8.59 0-17.277.048-26.94.15l65.247 92.577.053-20.566-20.94-27.02c4.766-1.47 10.585-2.48 15.167-2.89-5.884-13.04-8.828-25.29-6.235-42.08-9.27-.107-17.762-.158-26.352-.16zm25.265.59c-.51 5.927-1.182 12.538-.106 19.88-3.396-1.24-4.192.878-4.755 1.1-.64-1.424-3.006-3.888-5.685-.992-1.394 1.506-.717 4.338 2.517 5.616-3.703.284-5.627-2.88-6.277-6.145-2.002-1.29-4.106-2.55-4.306-7.04l1.03.17c-.34 3.13 2.92 4.73 4.82 3.23 1.24-.948 1.37-2.4.88-4.668.99-.2 3.31-1.173 2.7-4.15-.845-4.11-5.07-3.63-7-.926-1.602-1.985-4.542-2.353-5.72.73-.657 1.717.84 3.645 2.54 4.02-3.777.722-5.68-4.485-5.89-8.01l-1.57-2.776c10.21-.06 14.676-.047 26.83-.047zm-51.144.1l7.57.006 55.31 71.57.112 17.817zm19.16.006l1.2.014c.945 6.3 4.57 10.86 10.764 13.08.32 5.146 2.803 12.137 12.22 14.5-.278 5.81 3.455 11.363 7.452 14.025 0 0-1.08.267-1.923.348-5.372-4.26-6.696-10.534-7.23-13.123-.18-.374-.693-.464-1.1-.555-4.6-1.625-8.47-5.402-10.05-10.013l-.995-4.525c0-.582-.117-.31-1.484-.812-3.547-1.306-6.827-5.143-8.297-9.727-.775-2.41-.567-3.212-.567-3.212zm-4.88.014l4.243.005s.025.75.086 1.237c.572 4.512 4.624 10.176 8.757 12.055.585.266 1.4.64 1.59.816 1.154 7.398 4.51 11.854 11.586 14.905.113.117.432.19.527.338.966 4.575 3.075 9.88 7.087 12.795l-1.736.18zm20.74 7.765c.96 0 1.74.78 1.74 1.74 0 .958-.78 1.732-1.74 1.732s-1.74-.774-1.74-1.733c0-.96.78-1.74 1.74-1.74zm-58.6 9.488c.1.25-23.747 20.422-21.426 58.374l-.69.773.187.27c-.786.894-1.544 1.61-2.404 2.483 4.944 3.15 13.563 6.59 13.59 6.5l-1.646 3.816 10.304 3.32-1.38 3.625s-7.165-2.376-10.136-3.366c-1.465 3.25-2.35 6.68-3.42 10.06-.1.273-.334.142-.7-.386-5.35-9.127-16.34-15.71-15.97-15.06L31.855 151.83l-.266 22.855 26.976 27.8s-7.806 3.84-11.5 6.36c2.872 2.344 6.124 4.15 8.98 6.366 5.906 4.17 9.892 10.29 13.72 14.44 18.055-8.95 36.238-8.45 51.94-3.02-1.828 1.93-3.87 3.597-5.756 5.68 4.565 11.98 3.104 35.765 2.874 36.41 9.505-9.71 23.64-30.522 21.756-59.83l4-4.01c-.073-.205-10.004-5.52-14.142-6.68l1.145-3.64-9.91-3.097 1.106-2.892 9.87 2.86c1.87-4.586 3.85-11.014 3.85-11.014 3.94 5.898 8.29 11.262 17.232 16.72l38.756-37.078-.25-23.84-26.39-26.386 10.983-5.723c-1.052-.85-2.582-1.66-3.67-2.51-.075-.063.22-.247.14-.307-.273-.21-.475-.383-.76-.58-.06-.04-.26.244-.32.2-3.73-2.614-7.455-5.186-10.39-8.313-.072-.08.037-.405-.04-.484-1.522-1.628-3.04-3.144-4.59-4.747-.72-.728-1.91-2.45-1.91-2.45l-.07-.57-1.664-2.097c-5.368 3.165-28.246 11.11-50.38 2.313l4.204-4.206c-1.12-2.704-1.845-5.72-2.134-8.19-1.16-9.9-.715-27.735-.715-27.735zM174.3 50.04c1.012 0 1.834.823 1.834 1.836 0 1.012-.82 1.835-1.835 1.835s-1.83-.82-1.83-1.83.817-1.83 1.83-1.83zm5.74 2.183c.933 4.562 2.987 11.185 5.034 15.65l-2.438.27c-1.987-1.29-4.085-3.17-4.305-5.84-5.37.04-6.94-8.378-4.98-7.368-.25 2.876 1.813 4.01 3.838 3.728 1.743-.243 3.25-2.65 1.175-5.307.922-.36 1.373-.63 1.67-1.133zm-76.074 13.49c.354 5.834 1.5 10.088 2.57 14.495l-10.6 10.007c.826-9.134 3.51-17.297 8.036-24.502zm50.867 19.214l1.35 1.932c-15.33 9-41.49 9.63-57.43 2.04l2.117-2.017c14.014 6.33 36.83 6.8 53.963-1.965zM55.29 87.93c-1.542-.015-3.325.57-5.214 2.01-7.033-3.2-11.638 4.288-7.29 9.247-.643 3.57-1.13 4.235 1.556 7.85-2.855.362-6.457-.384-9.52-.856.517 5.29 8.087 6.52 11.238 5.94 3.403-.735 6.612.948 6.752.987 2 .56 3.244 1.52 5.217 1.986 3.25.774 8.02-3.04 8.71-6.66.06-.487.21-.93-.06-1-2.224.568-4.668 1.37-6.835 1.844-2.12.52-3.72 1.032-5.337 2.296l-.135-4.368c11.015.525 6.22-9.95 5.6-10.4 2.044-4.13-.418-8.82-4.688-8.87zm100.126.33l2.395 5.76-6.36 2.16-1.63-5.64zm-100.584.176c3.743.036 7.092 3.98 3.496 8.394 6.97 6.147-1.963 12.735-6.216 8.162-5.663 5.187-11.68-.23-8.515-5.877-6.04-5.404 1.41-12.652 6.496-7.984 1.25-1.92 3.037-2.71 4.74-2.69zm43.468 2.11c.897 0 1.623.727 1.623 1.624 0 .895-.725 1.62-1.622 1.62-.89 0-1.62-.726-1.62-1.622 0-.897.73-1.623 1.627-1.623zm-41.474.122c-.093 0-.203.043-.324.15-.18.016-.575.693-1.565 1.84-1.72 1.992-1.904 2.01-1.904 2.01-1.83-.598-3.055-.275-4.262.49 0 0-1.37-.262-3.27-1.85-.865-.723-1.33-.88-1.482-.49-.16.413.232.82 1.894 1.95 2.3 1.564 2.157 1.445 2.157 1.445-.143 1.375.08 2.49.6 3.533 0 0-.406.976-2.038 3.113-.46.6-.84 1.26-.84 1.46-.005.83.72.27 2.39-1.84.652-.83 1.55-2.01 1.55-2.01 1.96.68 2.645.263 3.873-.17 0 0 .42.31 1.49 1.162 1.955 1.558 2.378 1.724 2.618 1.526.327-.265.28-.35-.46-.887-2.2-1.596-2.96-2.52-2.96-2.52.45-1.745-.04-3.19-.52-4.1 0 0 .035-.22 1.28-1.61.914-1.02 2.165-2.63 2.086-2.864.02-.146-.1-.34-.305-.34zm45.135.352l5.74 1.78-1.266 5.96-6.11-1.97zm41.49 1.463l1.6 5.816-5.96 1.58-.976-6.177zm4.19.097c.9 0 1.628.726 1.628 1.622s-.728 1.623-1.624 1.623c-.897 0-1.624-.727-1.624-1.623s.726-1.623 1.622-1.623zm13.56.207l5.016 4.463-5.562 2.81-2.68-5.815zm-47.273 1.29l5.826.685-.237 6.26-6.683-.894zm-20.207.067l6.48 2.845-2.34 6.53-6.636-2.85zm16.706.507c2.39.38 1.747 3.2 0 3.25-.896 0-1.622-.723-1.622-1.62s.726-1.622 1.623-1.622zm20.958.01l.796 6.267-6.048.367-.13-6.365zm4.158.718c.897 0 1.624.726 1.624 1.623 0 .896-.726 1.623-1.622 1.623-.896 0-1.622-.727-1.622-1.623 0-.9.725-1.625 1.622-1.625zm-84.183.587c.924 0 1.676.747 1.676 1.67 0 .925-.752 1.677-1.676 1.677s-1.67-.752-1.67-1.676c0-.925.747-1.672 1.67-1.672zm71.61-.06c.893 0 1.62.726 1.62 1.62 0 .897-.727 1.624-1.623 1.624-.897 0-1.623-.726-1.623-1.62 0-.898.727-1.625 1.624-1.625zm28.48.4l2.356 6.438-6.607 2.13-1.87-6.61zm4.636.174c.896 0 1.62.727 1.62 1.623s-.724 1.624-1.62 1.624c-.897 0-1.623-.726-1.623-1.622s.727-1.622 1.624-1.622zM167.5 98.3l4.27 3.018-2.113 1.18c-.554-1.328-1.533-2.9-2.154-4.198zm-61.03.584l6.305 1.368-.96 6.603-6.88-1.37zm-18.743.363l3.348 1.575-2.206 5.5-5.42-2.882zm14.964.358c.9 0 1.63.727 1.63 1.624 0 .89-.727 1.62-1.623 1.62s-1.623-.73-1.623-1.627c0-.898.728-1.624 1.624-1.624zm36.41.363l1.125 6.603-7.11 1-.44-6.73zm26.617.126c.897 0 1.623.725 1.623 1.622s-.726 1.624-1.623 1.624c-.896 0-1.622-.726-1.622-1.622 0-.896.727-1.622 1.623-1.622zm-5.042.047l2.353 5.82-6.955 2.91-2.057-5.82zm-17.734.42c.897 0 1.623.73 1.623 1.63 0 .894-.727 1.62-1.623 1.62-.9 0-1.626-.726-1.626-1.622 0-.897.726-1.624 1.623-1.624zm-23.487.67l6.654.12-.078 6.674-7.29-.203zm53.23.462l2.617 1.816c-26.94 17.323-64.79 19.47-94.326 2.42 0 0 1.207-1.204 1.893-1.91 26.625 15.935 65.496 13.7 89.812-2.327zm-56.84.753c.897 0 1.624.727 1.624 1.623s-.728 1.622-1.624 1.622c-.896 0-1.623-.725-1.623-1.62 0-.897.726-1.624 1.622-1.624zm13.665.367c.896 0 1.623.725 1.623 1.62s-.725 1.62-1.62 1.62c-.898 0-1.624-.726-1.624-1.622s.727-1.624 1.624-1.624zm-31.7.892l6.95 2.01-1.182 5.487-7.623-2.2zm-4.597.04c.898 0 1.625.726 1.625 1.622s-.725 1.625-1.62 1.625c-.896 0-1.623-.727-1.623-1.623s.73-1.623 1.625-1.623zm53.986 1.17l1.66 6.156-7.682 1.643-.926-6.056zm4.415.892c.898 0 1.624.728 1.624 1.624 0 .894-.726 1.62-1.623 1.62s-1.623-.726-1.623-1.623.727-1.622 1.623-1.622zm-100.39.958l-.013 4.318c-1.273-1.05-2.713-2.166-4.186-3.296 1.503.08 2.9-.335 4.2-1.02zm-15.826.106c.35-.006 1.17.28 2.15.28 3.13-.01 8.975.964 10.704 2.383.577.474 1.44.89 1.908 1.654 0 .362-.514.372-1.27-.097-1.45-.9-3.86-1.702-7.084-2.15-.58-.08-.654-.056-.655.22-.002.338.537.536 2.236.815 2.2.36 2.668.577 3.155.71 1.305.358.47.836-.874.964-5.485.515-9.592-1.845-10.42-4.54-.065-.178-.003-.236.156-.238zm76.424.094l6.903.893-.314 5.777-7.552-.866zm-58.692.5c1.207.95.377 3.818-.28 4.66-.424.477-1.42.226-1.415-.44.15-.6-.06-3.455.07-4.34.48-.273 1.19-.196 1.627.12zm79.984.258l.356 5.955-7.53.343.06-5.85zm-25.406.4c.897 0 1.624.728 1.624 1.624 0 .897-.727 1.624-1.623 1.624s-1.622-.726-1.622-1.622c0-.895.726-1.622 1.623-1.622zm-41.957.083c.277 4.37-6.435 7.336-8.946 5.994-1.112-.595-.65-.96 1.556-1.407 2.852-.754 4.73-1.49 4.733-2.022 0-.326-.43-.287-1.597.146-1.79.6-3.65.86-5.36 1.628-1.28.58-1.775.785-2.063.436-.6-.734 2.24-2.58 5.182-3.07 2.21-.368 4.437-1.546 6.49-1.705zm71.516.546c.896 0 1.623.726 1.623 1.623 0 .895-.728 1.622-1.624 1.622s-1.623-.726-1.623-1.622c0-.897.724-1.623 1.62-1.623zm-15.094 1.19c.895 0 1.62.726 1.62 1.62s-.73 1.625-1.625 1.625c-.896 0-1.623-.726-1.623-1.622s.728-1.623 1.624-1.623zm36.16 2.76c10.86 10.34 22.765 22.245 32.586 32.04l-.043 15.37-37.5 35.64c-6.79-4.144-12.54-9.326-17.83-18.53.597-.515 1.12-.842 1.575-1.405l-1.956 1.17c-6.92-11.067-9.854-33.11 1.896-50.78l-11.87.435 1.936-4.044 12.925-.705 5.226-5.605s1.656-.306 3.03-.623c1.36-.313 4.14-1.11 6.175-1.766 2.04-.66 3.775-1.198 3.85-1.198zm-87.67 2.86s11.16 6.067 17.36 18.215c-20.033 17.233-27.585 37.3-29.29 58.186-10.9-10.196-16.41-15.84-26.264-25.74l.358-14.78zm42.137 1.928c-2.888 6.173-5.37 12.936-7.597 20.183l-3.106-.915s2.01-.84 2.903-1.37l-1.613-2.6 3.057-1.255-1.804-2.2 3.1-1.797-1.55-1.948 2.84-1.42-1.762-2.026 2.98-1.664-1.553-1.94zm.952.014s.4.076.87.17c.11-.045-.56 1.616-.49 1.675 1.084.223 1.15.163 1.472.26l.826-1.71 1.36.257c-2.74 6.18-5.667 12.94-7.348 20.257l-1.6-.333s.468-1.544.47-1.75c-.19-.04-1.09-.42-1.368-.53-.098.24-.668 2.03-.668 2.03l-1.264-.036c2.07-7.99 5.68-16.85 7.737-20.29zm5.2.236l2.835 2.35-3.218 1.25 1.665 2.217-3.41 1.232 1.96 2.302-3.376 1.245 2.014 2.785-3.51 1.18 2.217 2.45-3.167 1.48 1.897 1.88s-1.976.65-2.09.68c-.318.08-1.648-.243-1.648-.243 2-7.13 4.475-14.357 7.832-20.81zm-68.976 1.19c-.782.51-.336 1.615-1.318 2.56-.158.17-.17.56-.233.9-.046.256-.822 3.342-.822 3.342s.198-.236.508-1.22c.263-.84.494-2.434.64-2.7.72-.22.83-2.58 1.565-2.26.425.186.344.57.105 1.477-.522 1.81-.727 2.573.17 1.338 1.34-1.61 1.47-3.067-.04-3.375-.16-.03-.48-.06-.573-.065zm20.257.67l-35.04 32.9-.11 12.277 12.197 12.36 8.656 8.39c3.143-18.79 10.35-36.714 28.096-52.226-2.72-4.37-7.38-9.88-13.8-13.7zm94.45.34c-20.586 9.676-25.32 29.52-18.945 47.49 9.81-12.62 17.512-24.477 18.947-47.49zm-73.28 1l9.35 3.01-3.52 12.006-8.42-2.554-.86-2.126zm72.245.313c-.895 16.056-6.95 31.74-17.485 44.043-5.33-13.14-2.126-34.15 17.48-44.043zm-50.36.086l-.59 1.49 1.293.365.552-1.515zm-1.297 3.522l-.53 1.518 1.33.45.5-1.54zm55.16.277c-2.883 22.27-14.916 42.54-27.628 52.867 4.05 6.57 8.81 10.797 13.65 14.325l35.81-34.302-.14-11.444zm-94.63 5.91c-.218.815-.296 1.23-.296 1.23s.416-.38 1.5-.978c7.04-3.51 4.77 1.826 1.45 3.8-.74.395-1.5.863-1.5.863s.707.16 1.47.3c4.27.887 3.36 3.385-1.093 2.996-.657-.057-1.43-.182-1.43-.145 0 .038.266.976.574 1.75 1.5 3.784-1.3 4.078-3.14 1.674-.26-.336-.84-1.26-.84-1.26s-.18.7-.292 1.375c-1.59 5.924-5.517 5.774-4.052-.24.186-.623.41-1.735.41-1.735s-.884.534-1.845.963c-5.088 2.27-5.91-.068-1.294-3.485 1.316-.97 1.76-1.353 1.76-1.353-.816-.065-1.57-.19-2.24-.358-3.682-.925-4.664-3.128 1.24-3.024.87.016 1.76.074 1.76.074s-.29-1.267-.6-2.22c-1.422-4.42 1.448-4.945 3.87-.987.515.84.663.846.663.846-.076 0 .15-1.506.738-2.903 2.93-5.43 4.08-.475 3.197 2.804zm63.33-4.395c-2.458 4.345-4.603 8.665-5.626 13.17l-9.564-.164c.664-3.995 2.354-8.15 4.37-12.544 3.898-.11 7.41-.28 10.827-.466zm-25.26 1.926l-.55 1.598 1.386.427.502-1.553zm-71.55 3c-1.024 2.662-1.367 5.63-1.936 8.007-.24 1.377.008 1.95.83 2.26 1.18.44 2.876-.16 3.82-1.518.54-.765.928-2.346 1.01-5.14l.09-2.486c-1.453-.27-2.446-.66-3.81-1.127zm70.256.346l-.46 1.47 1.338.494.51-1.483zm61.967.55c1.63.04 1.93.185 3.407 1.06l2.843 2.924c-.746.714-1.212 1.717-1.212 2.83 0 2.165 1.757 3.922 3.92 3.922 1.075 0 2.756-1.13 2.756-1.13l4.51 4.67c-2.628 1.15-5.2-1.5-6.17-2.547-.227-.243-.285-.412-.285-.412s.04.13-.054.646c-.376 2.08-2.43 8.216-4.39 7.89-2.206-.367.04-9.14.066-8.936-1.518 1.607-8.916 3.315-8.397 1.523 1.03-3.56 6.56-4.93 7.29-5.55-2.944-1.77-6.674-6.677-4.28-6.884zm-131.864.114c.936.066 1.58.18 2.216.445.296.08.31.328.342.56.005 1.05.27 4.138-.705 4.17-1.086-.023-2.1.21-2.81.75-.577.44-.768.12-.61-1 .15-1.085.69-3.37.92-4.292.04-.382.34-.65.643-.634zm29.234.04c-2.165 0-3.92 1.756-3.92 3.92 0 2.167 1.755 3.923 3.92 3.923 2.166 0 3.922-1.76 3.922-3.925s-1.757-3.92-3.923-3.92zm0 1.37c1.408 0 2.55 1.144 2.55 2.55 0 1.41-1.142 2.547-2.55 2.547-1.407 0-2.55-1.14-2.55-2.547 0-1.407 1.143-2.55 2.55-2.55zm20.236.05c8.99 15.516 7.947 36.814-2.65 52.307l11.393-.8-1.5 2.92-12.15 1.183c-1.856 1.7-3.545 3.64-5.37 5.458l-.02.645c-4.164.965-8.33 2.08-12.577 3.61-2.24-2.2-6.454-6.6-6.426-6.71l.27-1.425c28.89-14.74 20.44-44.296 18.405-46.727 3.098-3.72 6.797-7.223 10.62-10.46zm80.177 2.82c1.17 0 2.117.95 2.117 2.12 0 1.17-.947 2.12-2.117 2.12s-2.12-.95-2.12-2.12c0-1.17.95-2.12 2.12-2.12zm9.42.57l3.55 3.656c-.46.456-1.093.74-1.79.74-1.41 0-2.55-1.14-2.55-2.545 0-.726.303-1.385.79-1.85zm-121.93.454c1.17 0 2.115.946 2.115 2.116 0 1.17-.945 2.12-2.116 2.12-1.17 0-2.12-.95-2.12-2.12 0-1.17.95-2.115 2.12-2.115zm-15.765.89c.992.33.76 1.258-.52 2.073-.83.527-1.59.643-2.32.253-1.383-.74 1.486-2.81 2.84-2.327zm16.378 5.186L44.38 156.32c.804-2.05.833-4.097.894-6.147 3.84.396 5.45-1.553 4.89-5.564 2.48.15 5.05-.117 6.984-.64zm20.455 1.41c5.92 16.88.78 34.74-17.733 45.084.764-16.174 7.55-31.636 17.74-45.084zm16.86 1.48c10.16 2.66 21.73 3.9 33.736 3.91.09 4.57.31 9.4 1.246 14.064-10.23-2.676-21.653-3.92-34.133-3.7.517-4.83-.31-10.307-.846-14.273zm75.34 2.5l-10.82 12.65.456-6.91c3.643.465 4.94-1.457 4.404-5.254 1.987.245 3.972-.103 5.96-.488zm-105.126.7l-.854 5.05c-2.16.06-4.28.826-4.25 5.647l-6.454-.078zm119.068.93c1.17 0 2.116.95 2.116 2.12 0 1.17-.945 2.12-2.115 2.12-1.17 0-2.12-.95-2.12-2.12 0-1.17.95-2.12 2.12-2.12zm-128.88.643c1.17 0 2.12.95 2.12 2.12 0 1.17-.95 2.113-2.12 2.113-1.17 0-2.12-.945-2.12-2.115s.95-2.12 2.12-2.12zm124.15 2.17l-1.13 7.65c-2.946-.26-5.406.196-4.65 5.38-2.493-.243-5.957.346-8.28.547zm-10.56 1.386c1.17 0 2.12.95 2.12 2.12 0 1.17-.95 2.116-2.12 2.116-1.17 0-2.12-.946-2.12-2.116 0-1.17.95-2.12 2.12-2.12zm-129.124 1.64c1.17 0 2.12.95 2.12 2.12 0 1.17-.95 2.116-2.12 2.116-1.17 0-2.115-.945-2.115-2.115s.946-2.12 2.117-2.12zm7.028 2.507c2.707.61 1.455 6.916.846 8.632-.047.046 7.55-3.98 8.002-2.202.297 3.565-6.288 6.05-6.288 6.05s4.44 3.855 4.563 6.28c.01 1.566-1.856 1.276-4.28-.71-1.035-1.02-1.837-1.78-2.55-2.49.833-.72 1.36-1.784 1.36-2.97 0-2.166-1.757-3.922-3.92-3.922-1.197 0-2.266.537-2.986 1.38-.562-.54-1.198-1.17-2.053-1.98-1.4-1.31-2.38-2.35-2.24-2.82 1.847-1.3 5.52 2.194 5.85 2.51-.273-.68 1.76-7.394 3.7-7.756zm-3.7 7.76c.016.034.036.056.064.056l-.06-.06zm115.368-2.83c1.29-.02 1.21 2.91.75 4.43-.314 1.163-.623 2.113-.623 2.113s1.087-.847 1.567-1.072c3.505-1.64 4.81.218 3.045 2.37-.85 1.11-2.006 1.356-2.946 2.287 1.34.06 2.875.36 4.03 1.04.9.54 1.607 1.19 1.605 1.595-.003.907-2.227 1.395-4.307 1.16-.886.02-2.55-.454-2.55-.454s.69 1.16.94 1.854c.777 2.154.505 4.68-.618 4.674-1.88-.504-2.798-2.59-3.533-4.09-.603 1.67-1.187 3.46-2.53 4.702-1.332 1.23-2.015.21-1.947-1.88.03-.83.64-3.31.64-3.31-7.89 2.665-7.305-.94-1.147-4.095-3.794-1.81-6.1-3.437.354-3.805-.17-.155-1.3-3.61-.09-4.42 1.12-.752 3.51 1.83 3.622 1.956-.05-.256.63-2.28 1.762-3.676.87-.984 1.515-1.375 1.98-1.38zm-7.272 7.52c.008.005.015.006.02 0h-.02zM185.3 169.5c-1.375.123-2.23 1.343-2.865 2.406-.13.216-.368.293-.456.578-.57 1.834-1.07 4.03-1.37 6.764.87.358 2.83.962 3.7.637.24-.1.165-.733.25-.94 1.37-3.45 2.045-6.03 2.05-7.614 0-1.274-.44-1.91-1.315-1.83zm-141.197-.16c1.408 0 2.55 1.14 2.55 2.55 0 .81-.377 1.53-.965 1.993-1.643-1.637-2.483-2.495-3.584-3.574.47-.596 1.19-.976 2-.976zm141.685 1.213c.344.836-.763 1.745-2.196 1.74-.855-.005-1.13.116-.75-.623.45-.9 2.284-2.716 2.944-1.115zm-19.227-.59c1.17 0 2.12.95 2.12 2.12 0 1.17-.95 2.114-2.12 2.114-1.17 0-2.12-.945-2.12-2.115 0-1.17.95-2.12 2.12-2.12zm-111.77.15c1.17 0 2.126.946 2.126 2.116s-.95 2.12-2.12 2.12c-1.17 0-2.116-.95-2.116-2.12 0-1.17.944-2.12 2.114-2.12zm100.24.86c-2.16 0-3.92 1.76-3.92 3.922s1.76 3.922 3.92 3.922c2.17 0 3.927-1.757 3.927-3.922s-1.755-3.922-3.92-3.922zm-52.41.526c-1.03 4.52-2.616 8.84-4.62 13.11-3.78.23-7.87.403-10.563.786 4.49-7.862 4.596-9.71 6.26-13.875zm6.498.633c1.065.125 2.23.286 3.278.488-1.93 6.794-4.482 13.768-7.776 20.48l-1.996-.31-.947-1.17 3.17-1.263-2.47-2.52 4.09-1.24-2.515-2.482 4.044-1.01-2.164-2.626 3.626-1.416-2.303-2.975 3.857-1.06zm45.92.208c1.41 0 2.55 1.144 2.55 2.55 0 1.41-1.14 2.547-2.55 2.547-1.405 0-2.55-1.14-2.55-2.547 0-1.406 1.145-2.55 2.55-2.55zm-41.92.388l1.35.216-.415 1.445 1.536.33.497-1.56s1.235.11 1.367.21c-1.61 6.56-7.297 20.28-7.37 20.21l-1.463-.22.39-1.386-1.362-.192v-.013l-.657 1.506-1.453-.12c3.523-8.037 5.92-14.21 7.588-20.425zm71.59.52c1.08-.004 1.017.553.23 2.59-.732 1.913-1.01 2.68-1.364 2.93-.852.602-2.685.095-2.537-.786.48-2.86.652-4.078 1.39-4.466.77-.155 1.517-.267 2.28-.27zm-66.17.237l3.52.68-2.943 1.75 1.87 2.183-3.612 1.54 2.193 2.27-3.487 1.428 2.12 2.497-3.62 1.526 2.465 2.136-4.067 1.285 1.54 2.367-1.53.855-1.89-.293c3.13-7.313 5.147-13.328 7.44-20.218zm8.64 1.75l6.89 1.873 1.377 2.46-3.23 10.91-9.177-2.694zm-13.685 1.052l-.657 1.79 1.517.314.584-1.844zm-1.333 4.113l-.655 1.793 1.426.28.67-1.81zm-1.34 3.62l-.67 1.783 1.384.285.662-1.787zm64.71 3.28s-.704.51-.89.735c.154.41.6 1.037.532 1.45-.06.31-.405.56-.924 1.113-1.298 1.51-1.754 1.346-1-.265.247-.506.356-.976.356-.976-.3.42-.525.916-.73 1.31l-.824 1.602c.825.284 1.374.9 1.907 1.296 0 0 .27-.73.46-1.43.26-.974.775-1.374 1.41-1.71.397-.21.78-.596.78-.596-.698-.71-.778-1.726-1.078-2.533zm-66.145.44l-.71 1.9 1.38.34.77-1.94zm-77.925 4.77c-.125 7.56.126 12.537-.14 20.69l20.466 26.52-3.193 1.072s-.033.37-.206.416c-4.373 1.203-11.466 2.4-11.466 2.4 5.277 12.047 8.698 27.11 6.338 42.156l52.965-.14zm112.016 12.81l-1.825 1.83c-26.935-14.576-64.034-14.52-91.106 3.13l-2.205-1.616c29.546-18.93 65.9-18.812 95.14-3.343zM32.43 195.173l62.34 89.55-7.323.11-54.964-71.9zm133.783 1.62s-1.8.47-3.313.95c-4.334 1.39-6.36 3.896-5.96 7.374.115 1.027.38 1.013 2.147-.102 4.13-2.606 4.39-2.72 9.534-4.23.4-.116.98-.03.98-.03l-.222 4.063c-8.575-.032-8.106 6.78-5.64 10.322-.863 1.636-2.753 7.353 3.468 9.53 3.104.615 6.39-1.906 6.29-2.036 5.724 2.708 12.366-1.83 7.187-9.693 1.947-3.42.574-5.97-1.285-8.16 0 0 .314.03 3.023.53 4.11.76 5.68.624 5.68.624.01-3.7-3.055-5.35-9.444-5.853-4.525.64-12.432-3.31-12.432-3.28zm-69.01.43c.31 0 .616 0 .923.007l-.3 6.315-6.96.32-.454-6.294c2.4-.16 4.627-.34 6.793-.35zm8.342.156l7.467.905-1.13 5.907-6.876-.738zm60.407.065c.77-.017.6.78-.297.956-1.343.266-4.785 2.27-4.787 2.79 0 .336.17.287 1.43-.386.63-.335 1.944-.91 2.917-1.28.973-.37 2.086-.814 2.473-.99 1.157-.52 1.73-.16 1.314.828-.277.653-.386.705-3.068 1.556-2.427.77-2.873.97-4.415 1.953-.58.37-1.6.957-2.27 1.305-1.588.82-1.91.823-1.906-.28-.09-3.273 3.53-5.73 8.436-6.434.06-.01.114-.013.165-.015zm-64.467.768c.933 0 1.69.758 1.69 1.69 0 .935-.757 1.69-1.69 1.69-.934 0-1.69-.755-1.69-1.69 0-.932.756-1.69 1.69-1.69zm-18.475.45l.556 5.733-6.844 1.758-1.566-5.92c2.618-.642 5.235-1.092 7.853-1.57zm88.165.435c1.876.282 1.727 4.58.768 5.324-1.475 1.064-2.382-1.16-1.723-4.11.185-.887.528-1.197.956-1.217zm-84.282.23c.935 0 1.69.756 1.69 1.69 0 .933-.755 1.69-1.69 1.69-.932 0-1.69-.757-1.69-1.69 0-.934.758-1.69 1.69-1.69zm33.434.49l7.738 2.11-1.893 5.99-7.26-2.043zm-4.212.116c.935 0 1.692.757 1.692 1.69 0 .934-.757 1.69-1.69 1.69-.934 0-1.69-.756-1.69-1.69 0-.933.756-1.69 1.69-1.69zm63.297.503c3.333.033 7.73 1.705 7.737 4.283-.07.733-6.99-.24-10.18-1.526-1.138-.456-2.52-1.844-2.51-2.424 0-.345.67-.32.95.014.45.547 2.04 1.117 5.7 2.04 2.81.706 3.09.734 3.09.308 0-.388-1.66-.924-3.46-1.222-.907-.148-1.75-.42-3.14-.54-.65-.004-.808-.41-.268-.687.59-.175 1.302-.254 2.07-.246zm-5.888 1.332c.84.393 1.144 1.18 1.608 1.592-.577.274-.834.55-1.768.62.017-.618-.15-1.354.16-2.213zm-101.327.462c.934 0 1.69.757 1.69 1.69 0 .934-.756 1.69-1.69 1.69-.934 0-1.69-.756-1.69-1.69 0-.933.756-1.69 1.69-1.69zm-4.55.478l1.826 5.855-6.54 2.842-2.32-5.8c2.263-1.19 4.736-2.053 7.034-2.9zm30.24.958s5.21.01 7.008.03l-.42 6.61-6.5.048zm-6.96.366l.363 6.598-6.26.84-1.236-6.635zm39.577.058c.933 0 1.69.758 1.69 1.69 0 .935-.757 1.69-1.69 1.69-.934 0-1.69-.755-1.69-1.69 0-.932.756-1.69 1.69-1.69zm45.29.156c3.81.018 7.446 4.4 3.68 8.995 6.177 4.75-.54 12.74-6 8.085-7.806 7.67-12.17-2.744-8.94-5.506-4.77-7.84 1.092-12.796 7.14-9.337 1.113-1.58 2.628-2.243 4.12-2.236zm-63.8.19l6.87 1.527-1.382 6.525-6.71-1.36zm22.73.16l6.28 3.12-4.87 4.685-3.616-1.8zm-40.256.74c.933 0 1.69.757 1.69 1.69 0 .934-.757 1.69-1.69 1.69-.934 0-1.69-.756-1.69-1.69 0-.933.756-1.69 1.69-1.69zm13.567.213c.935 0 1.69.758 1.69 1.69 0 .935-.755 1.69-1.69 1.69-2.487-.39-1.818-3.324 0-3.38zm-31.273.95l1.53 6.527-6.36 2.15-2.274-6.36zm4.37.466c.935 0 1.692.756 1.692 1.69 0 .933-.758 1.69-1.692 1.69-.933 0-1.69-.757-1.69-1.69 0-.934.757-1.69 1.69-1.69zm94.16 3.008c-.478.595-1.107 1.295-1.107 1.295-1.582-.65-3.116-.39-4.143.314 0 0-1.09-.87-2.086-1.674-1.725-1.394-2.3-1.713-2.303-1.13 0 .12.587.718 1.3 1.328 1.946 1.667 2.344 2.267 2.344 2.267-.467 1.51-.462 2.696.43 3.967 0 0 .04.167-.645.89-1.24 1.307-2.52 3.326-2.226 3.623.366.37 1.403-.515 2.703-2.27.92-1.254 1.2-1.28 1.2-1.28 1.58.425 2.454.81 4.04-.493 0 0 .592.18 1.783 1.163 1.855 1.532 2.52 1.862 2.723 1.343.166-.423-.08-.707-1.65-1.903-1.023-.78-2.16-1.69-2.16-1.69.333-.55.57-2.5-.575-3.836 0 0 .046.09 1.74-2.106 1.126-1.46 1.32-1.64.95-1.954-.498-.65-2.15 1.946-2.32 2.154zm-49.057-1.87l6.197 2.604-2.217 6.476-5.984-2.444zm-68.184.435c.94 0 1.69.76 1.69 1.69 0 .937-.75 1.69-1.69 1.69-.93 0-1.69-.753-1.69-1.69 0-.93.76-1.69 1.69-1.69zm63.4.176c.93 0 1.69.757 1.69 1.69 0 .934-.76 1.69-1.69 1.69-.935 0-1.692-.756-1.692-1.69 0-.933.758-1.69 1.69-1.69zm-67.72.464l2.027 5.023-4.612-3.44zm50.853 1.294l6.17.73-.974 5.884-5.324-.482zm-6.74.016l-.062 6.044-5.862.25-.5-6.035zm-30.17 1.1c.936 0 1.69.755 1.69 1.69 0 .932-.754 1.69-1.69 1.69-.93 0-1.69-.758-1.69-1.69 0-.935.76-1.69 1.69-1.69zm-4.673.12l2.385 6.075-3.7 1.787-4.96-4.697zm22.067.076l.956 5.78-6.115 1.513-1.483-5.885zm87.397.058c1.33 0 2.41 1.08 2.41 2.41s-1.08 2.41-2.41 2.41-2.41-1.08-2.41-2.41 1.08-2.41 2.41-2.41zm-71.545.186c.93 0 1.69.758 1.69 1.69 0 .935-.76 1.69-1.69 1.69-.936 0-1.69-.755-1.69-1.69 0-.932.754-1.69 1.69-1.69zm16.65.624l6.52 2.11-2.19 5.22-5.633-1.525zm-28.896.217c.93 0 1.69.76 1.69 1.696 0 .932-.76 1.69-1.69 1.69-.936 0-1.69-.758-1.69-1.69 0-.935.754-1.69 1.69-1.69zm24.79.628c.933 0 1.69.757 1.69 1.69 0 .934-.757 1.69-1.69 1.69-.934 0-1.69-.756-1.69-1.69 0-.933.756-1.69 1.69-1.69zm-41.4 1.98l2.244 5.168-6.135 2.652-2.67-5.27zm4.345.31c.932 0 1.69.757 1.69 1.69 0 .934-.758 1.69-1.69 1.69-.935 0-1.69-.756-1.69-1.69 0-.933.755-1.69 1.69-1.69zm22.6 1.56c10.07-.02 19.16 2.084 26.456 5.105l-2.17 2.038c-23.67-8.13-39.15-4.47-55.025 2.495L66.665 225c11.22-5.49 22.27-7.635 32.34-7.656zm26.775.06c.936 0 1.69.76 1.69 1.69 0 .937-.754 1.69-1.69 1.69-.93 0-1.69-.753-1.69-1.69 0-.93.76-1.69 1.69-1.69zm-61.68 3.71c1.36.08 1.49 2.616.856 1.885l-1.51-1.75c.246-.103.463-.145.657-.133zm63.278 1.05c-.05 1.92-1.87 14.8-8.013 23.657-.373-4.477-1.454-9.832-2.66-13.406 0 0 6.608-6.107 10.673-10.25zM48.8 241.67l31.964 43.102-3.355-.025c-.71-3.17-1.72-6.407-3.71-8.828-1.62-1.97-3.07-3.45-5.97-4.77-1.75-.797-1.97-.628-2.08-1.97-.53-7.537-6.64-12.28-11.31-14.083-.45-4.556-2.51-9.04-7.67-12.813zm-3.112 1.032c2.92 2.007 6.12 3.748 7.846 11.66.13 1.656.232 1.48 1.53 1.966 5.096 1.493 9.527 7.616 9.922 12.97-.004 1.613.522 1.756 2.512 2.592 2.442 1.026 4.978 3.196 6.414 5.332 2.135 3.07 2.89 7.722 2.704 7.5l-1.758.01c-1.254-7.884-6.215-11.03-11.462-12.503.408-11.13-8.247-14.6-11.27-15.13.178-8.018-5.01-11.326-8.358-14.016.625-.248 1.92-.385 1.92-.385zm-5.17 1.105c2.614.85 4.595 4.494 4.394 6.17 3.448.435 7.07 3.77 6.275 7.24-.255.148-.657.178-1.056-.22.93-6.736-9.13-3.4-5.11 1.473l-1.793 1.173c-1.445-6.74-3.224-10.56-5.155-15.43.705-.186 2.45-.41 2.45-.41zm8.325 14.12c.894 0 1.614.726 1.614 1.62 0 .893-.72 1.62-1.614 1.62-.893 0-1.618-.727-1.618-1.62 0-.893.725-1.618 1.618-1.618zm8.634 7.27c3.84 1.088 5.083 4.975 4.956 6.39l-.84-.02c-1.35-6.16-8.37-2.81-5.438 2.104-3.753 1.39-3.457 4.85-2.352 6.22 1.525 1.89 5.413 1.83 6.598-1.08 3.65 4.72 8.69-.57 4.24-4.97 3.64 1.34 4.22 6.215 3.68 7.737 1.69.576 3.637 3.255 3.377 3.24l-27.25.005s1.32-10.995-.083-19.295c1.814.436 3.03.875 5.115-1.574 3.377 2.798 5.803.688 5.63-1.73-.26-1.685-1.134-2.524-2.58-3.42 2.954-.722 5.19 4.388 4.96 6.406zm3.04 7.75c.92 0 1.667.746 1.667 1.666s-.745 1.667-1.666 1.667c-.92 0-1.666-.746-1.666-1.667 0-.92.746-1.666 1.666-1.666z"/></svg>