<svg xmlns="http://www.w3.org/2000/svg" width="224.225" height="312.808"><title>Vectorized Playing Cards 1.0</title><path d="M29.6 25.335c.085 79.126.927 176.366.985 262.545l163.716-.038-1.09-262.126zm48.394 1.68c28.245.766 56.666-.063 85.12.16 0 0-10.338 18.007-13.47 23.675-.687 1.246-.757 2.128-.387 2.645.572.8.525 2.152-.116 2.934-.27.33-.39.55-.42.75-.02.2.16.42.31.78.51 1.722-.8 2.92-2.163 3.47-.917.37-2.96.617-4.465.545-9.443-.448-27.962-8.428-35.593-9.05-5.294-1.48-12.136-.96-17.776-.64-1.064.062-.88-2.42-.88-2.42-.886-8.2-6.693-15.336-10.15-22.86zm86.656.748l26.692.03.12 4.31-11.23 11.51c-1.06 1.078-1.894 1.97-1.894 1.97l-.067 10.388c-7.65-4.11-9.18-9.03-10.58-14.43-12.79 9.44-13.39 30.11.58 40.746.118-4.62 3.64-13.7 9.88-14.374l.087 35.993-7.674-7.496-16.687.22c2.75-4.466 2.813-8.01 1.033-12.195-3-6.837-7.63-22.44-7.274-22.388 0 0 .132-.334.51-.42 1.383-.31 2.263-1.642 1.868-3.25-.074-.514-.07-.393.28-1.064 1.36-2.316-.26-4.83-.26-4.83zm-88.53.217l10.016 18.106s-.13.83-.077 1.317c.07.7.31 1.326.71 1.98.26.432.46 1.022.52 1.568.1.9.1.9 1.41 2.09.275.25.33.408.226.66-.435 1.1-.18 3.35.68 6.04 1.09 3.39 1.37 3.348-.656 7.883-.42.947-.932 2.21-1.48 3.374-2.5 5.134-2.886 6.526 1.404 9.263 1.21.77 1.56 1.437 1.26 2.972-.238 1.205-.286 1.98.294 2.66.376.44.717.512.623.852-.062.23-.343 1.234-.25 2.08.25 2.274-2.375 5.625-4.773 6.8-.48.34-.618-.076-.89-.55-2.483-4.35-8.67-2.59-9.08 2.6-.107 1.373-.064 1.968-.42 2.26-.12.1-.48.304-.48.304s-9.256 6.02-15.143 9.113c-.38.2-.726.53-1 .59-.31.06-.542.004-.735-.19-2.174-4.133-.97-9.015-.783-10.745-.045-.613-.57-.724-1.36-.734-1.34-.015-3.264 1.34-3.682 2.607-.358 1.075-.587 1.77-.91 1.766-.324-.002-.48-.436-1.288-1.986-1.68-3.226-1.938-3.634-3.506-5.508-1.25-1.497-2.317-1.695-3.543-.58-.852.772-.824.1-1.55-.29-1.25-.855-3.133-.09-3.18 1.11-.04 1.004-.047 1.76-1.067 1.83-1.136.07-1.628 1.54-1.31 3.63.17 1.1.203 1.274-.134 1.68-1.1 1.312-1.24 2.22-.64 4.056 1.72 5.233 4.215 8.756 6.56 13.515 0 0-5.956 3.38-9.49 5.344l-.093-97.37zm115.724 5.174l.14 84.586-12.782-12.565s-.25-16.208-.236-22.835c.013-6.627.11-13.253.082-14.486-.027-1.232.066-6.476.106-11.86.084-11.277-.948-9.883 1.15-12.047zm-24.98 10.142l.706 2.04c-5.356 3.072-11.91 20.172.12 32.727l-.24 2.587c-12.61-11.436-10.276-27.838-.585-37.354zm.918 2.413c1.838 3.79 3.93 7.15 6.782 9.21-1.536 3.66-2.196 7.7.405 13.16-1.83 1-4.36 3.66-6.99 9.1-9.497-9.59-7.38-23.497-.207-31.48zm-70.62 7.16c5.264.01 10.755.865 15.788 2.382 3.174 16.05 8.75 26.84 8.726 33.122 0 0-.44-.075-1.375-.75-2.29-1.655-5.3-.73-6.91 1.376-1.53 1.998.01 4.777-.77 5.94-1.482 2.175-5.3 6.19-5.936 6.06-.465-.097-.39-.3 1.245-2.81 1.703-2.613 3.01-4.98 2.447-5.56-.237-.245-.364.274-1.635 2.48-2.982 5.183-5.606 8.387-6.645 7.97-.485-.195-.234-.624 1.975-3.543 2.494-3.297 3.187-5.358 2.94-6.27-.19-.7-.577.43-1.613 2.456-1.104 2.142-3.098 4.53-4.71 6.824-.51.83-1.17 1.31-2.01 1.69-.62.27-1.615.71-2.19.636-.296-.04-.09-.213.313-.61 3.184-3.277 5.92-6.932 7.47-10.44.24-.46-.1-1.115-.494-.632-2.38 4.19-5.698 9.42-9.297 11.725-.775.495-1.937.914-2.985.826-1.773-.05-1.147-.442.467-1.48 3.454-2.22 8.3-8.6 9.084-10.854.186-.533-.02-.838-.36-.8-2.843 4.546-6.598 9.548-10.963 11.64-2.35 1.13-5.317 1.352-6.776.64-1.07-.524-.8-.704 1.097-.827 4.564-.45 9.91-4.735 12.56-9.268 1.55-2.51.462-1.93-1.31.49-3.02 4.135-9.02 8.096-12.74 7.78-3.764-.22-5.93-3.136-5.446-5.635.29-1.51 1.365-3.05 3.47-3.493 3.603-.756 5.96 4.95 2.664 6.03-1.122.367-1.55.09-1.142-.36 2.446-1.07 1.36-4.01-.705-4.31-1.3-.19-2.804.683-2.867 2.696.038 1.5 1.273 2.968 3.75 3.003 2.938.04 7.445-2.072 10.18-5.966 1.94-2.976.154-1.97-1.293.014-1.278 1.755-5.4 4.205-5.716 4.115l.14-2.016c.06.346 6.348-3.957 5.98-7.16-.236-2.325.104-3.036 2.524-3.007 1.81.02 4.11.654 4.78 1.484.69.82 1.46 1.08 1.12-.304-.556-2.244.11-2.615-1.193-2.19-.9.296-1.69-.425-2.592-1.065-.99-.704-2.244-1.005-3.74-.95-1.118.04-1.622-.028-1.443-1.082.127-.74.27-1.42.054-1.904-.35-.794-1.75-1.613-3.33-2.777-1.868-1.375-1.523-1.456 2.455-10.624 1.67-3.85 1.675-4.64.674-7.482-1.585-4.49-1.83-6.29 1.132-6.916 1.68-.193 3.41-.29 5.165-.285zM114 55.48l1.54.438c.01 0 4.807 16.414 7.553 24.428.838 2.445 1.477 5.75 1.637 8.853-.076 4.27-2.482 7.33-5.416 7.67-2.077.24-4.33-.84-5.363-3.15-.87-2.2-.21-4.79 2.3-5.69 4.34-1.55 7.52 3.99 3.265 5.693-2.202.883-4.294-.707-3.302-2.557.696-1.297 2.65-1.157 3.114.183.378 1.427 1 .754.735-.21-.807-3.078-4.76-2.35-5.08.482 0 3.512 3.848 4.337 6.14 2.365 1.78-1.578 1.966-4.427 1.52-6.9-.61-5.133-3.515-11.793-5.58-19.393-1.03-3.793-2.52-8.32-3.053-12.22zm61.267.182l2.89 1.144-.068 9.528-2.46.845c-3.21-4.91-.54-11.52-.37-11.52zm-58.604.618l2.12.815c1.16 6.726 6.63 19.583 8.562 29.18.538 5.766.624 7.458-3.282 10.53v-.043h-2.114s-.01-.13.91-.82c5.113-3.826 2.06-12.258.13-18.738-3.37-10.35-6.377-20.937-6.336-20.924zm-19.804.67c-.27.004-.54.015-.82.03-3.2.17-3.72.376-3.73 1.07-.02 1.31.51 1.89 3.49 1.57 2.57-.278 6.3.12 8.86 1.226 2.93 1.26 3.626 1.558 4.68 2.1 2.642 1.36 2.18.007-.21-1.564-4.88-3.21-8.25-4.48-12.278-4.43zm23.05.464l1.99.758s.523 1.55.71 2.437c1.937 8.58 7.2 18.24 7.816 28.28.14 3.29-.425 6.36-2.838 7.84h-1.82c1.944-1.936 3.24-2.495 2.696-9.22-.86-8.638-6.558-19.43-8.558-30.105zm3.53 1.395l1.83.67c2.113 11.59 12.585 28.92 5.92 37.273h-1.666c1.487-2.32 2.1-4.356 1.877-7.486-.647-10.536-6.02-20.76-7.963-30.467zm3.072 1.06l1.973.6c2.68 11.746 12.98 30.997 5.636 36.32l-1.447-.038c5.53-10.34-2.855-21.04-6.164-36.887zm3.44 1.092c.606.34 1.473.5 2.134.69 2.077 8.883 5.874 17.62 7.602 25.89.58 4.53-.413 7.923-3.26 9.21h-.61c2.556-3.854 2.075-8.717.71-13.972-1.83-7.07-5.39-14.844-6.577-21.82zm-31.104.155c-.917-.01-1.876.13-2.89.454-1.04.39-.913 1.21.052 1.04l1.29-.225c2.367-.414 5.285.44 8.822 2.582.854.517 1.782 1.015 2.013 1.187.65.486 1.342.484 1.104-.134-.095-.247-1.458-1.304-2.664-1.98-2.58-1.56-4.976-2.9-7.727-2.924zm34.46.772l1.987.303c3.74 17.19 11.95 27.873 4.93 34.25h-1.76c1.92-1.96 2.79-5.035 2.15-8.668-.65-3.71-2.564-9.596-4.154-14.77-1.84-6-3.324-11.076-3.155-11.118zm2.85.482l1.686.316c1.972 6.987 5.323 15.65 7.34 22.864 1.24 4.436.743 9.9-2.027 10.908l-1.423.024c2.35-3.14 2.685-6.413 1.61-10.644-2.203-8.687-5.54-16.266-7.186-23.47zm10.4.01c1.7 7.246 5.786 18.297 7.254 22.113 1.952 3.896 1.366 9.666-1.57 11.95l-1.39.03c1.68-1.57 2.256-4.215 1.99-6.956-.757-7.747-6.24-18.49-8.226-26.74zm-7.39.344l1.74.16c1.74 7.577 5.122 14.942 7.32 22.52.41 1.712.765 3.802.622 5.34-.3 3.225-1.635 5.77-2.808 5.77h-1.198c2.444-2.914 2.324-6.886 1.28-11.156-1.73-7.055-5.915-15.563-6.958-22.632zm-45.24.04c-.726.003-.74.666.42 1.68.705.62.65.412.61.805-.17 1.677.09 3.213.783 1.485.185-.46.455-.98.725-.917.51.157.25 1.094.494 1.57.415.834-.027 1.04-1.04.78-.727-.186-.77.21-1.22.71-.79.88-.66 1.402.555 1.13.2-.046.37.01.525.047.38.088.728.33 1.63 1.02 1.165.886 2.81 2.068 3.878 2.25 1.71.29 1.33-.53-.074-1.068-1.2-.46-2.69-1.738-2.682-2.09.005-.27.38-.11 2.545-.706.937-.254 2.257-.83 2.813-1.09.917-.42.96-.42 2.4-.374 2.446.072 2.82-.01 1.103-1.285-3.47-2.575-8.098-4.25-10.55-3.18-.746.32-.73.123-1.267-.186-.704-.403-1.277-.585-1.656-.583zm49.646.23c2.405 9.262 7.055 17.56 8.187 26.345.257 2.51-.165 4.967-2.253 7.09l-1.41.024c-.204 0 1.97-3.36 1.78-6.24.06-1.534-.11-3.18-.55-4.807-2.73-7.81-5.42-14.89-7.51-22.334zm-43.417 3.04h.04c.657.104.68.365.49.706-.286.505-.785 1.476-.785 1.476s-.665.13-.8-.04c-.24-.347.636-2.09 1.056-2.143zm1.667.3c.072 0 .162.037.303.092.63.25 1.726.76 1.25 1.153-.56.467-2.723.678-2.62.483l.727-1.34c.154-.284.222-.39.343-.39zm-6.637 8.1c-.053 0-.1.015-.14.04-.122.072.16.576.578 1.146 1.918 2.586-.736 3.354-2.615 1.97-1.783-1.388-4.54-1.258-4.14.197.14.512.003.76 1 .776.884.02 1.112.068 1.91.61 3.05 2.09 6.994-.703 5.07-3.7-.365-.563-1.265-1.06-1.658-1.04zm7.53 4.04c-1.105 0-1.804.825-.42 1.072 4.96.89 1.636 6.03-1.86 3.38-3.15-2.843-7.364-2.823-7.415-.806-.008.508.015.525.762.667 1.756.33 4.378 1.13 5.382 1.636.59.3 1.21.58 1.38.62 2.1.767 4.79-.23 5.322-1.993.488-1.617.094-4.572-3.153-4.572zM40.55 95.014c.664.008 1.37.59 1.873 1.438 1.163 1.964 2.578 5.266 3.48 7.086.227.45.236.86.222 1.08.07 1.065.43 1.47 1.062.99.62-.475 1.484-1.265.47-1.39-1.02-.77-1.586-1.898-.955-2.585.465-.505.283-.834-.092-.854-1.428-.02-3.556-4.27-2.553-5.185 1.355-1.236 2.852.294 6.04 6.616 1.404 2.794 1.47 5.85.265 4.336-.41-.38-.326-.184-.806 1.02-.363.902-.66 1.33-2.034 2.653-1.675 1.61-2.69 2.88-2.727 3.16-.073.532.903.034 1.616-.894 1.59-1.555 1.65-1.97 1.64.09-.01 1.865-.11 2.205.23 2.193.52-.02.8-1.495 1.047-3.274.293-1.6 1.125-2.41 2.51-3.3.38-.244.388-.413.315-1.12-.255-2.262 1.03-6.483 1.618-5.44.082.236.337.785.473 1.17.11.596.486 1.27 1.06 1.313.71.532.71.82.955 2.77.08.636.363 1.59.56 2.1.37.945.698 1.5.493 1.78-.13.14-.405.4-.405.4l-11.594 6.88s-.91.506-1.24.644c-.92.414-1.48.107-1.93-.58-2.46-3.66-4.147-7.776-5.875-11.57-1.037-2.25-.02-3.74 1.32-1.926.52.705.252 1.155-.007 2.52-.046.246.184.15.614.22.68-.072 1.005.533.98 1.56-.43 1.47.164.677.444.603.537.006.656.33.957.94.187.86.566.61 1.12.043.457-.47.46-.46-.464-1.56-1.594-1.727-3.8-5.62-4.375-7.994-.16-.654-.1-1.176.02-1.525.72-1.62 1.72-1.624 2.814.64.184.385.55 1.005.81 1.38.42.607.68 1.13.666 2.095-.32.81-.374.826-.095.936.694.275 1.925 1.526 1.98 2.646.056 1.138.25 1.742 1.144 1.067 1.02-.77.587-1.08-.42-2.068-1.053-1.256-1.117-2.344-.49-3.25.1-.303.06-.39-.33-.352-1.224.12-2.415-1.432-1.563-2.61.39-.692.345-.87-.21-.89-.29-.01-.763.046-1-.086-.36-.68-1.116-1.626-1.11-2.403.36-1.09.91-1.53 1.498-1.524zm72.726.058c2.012 1.234 4.004 2.518 6.265 3.104-5.23 9.434-13.66 14.49-20.71 16.464.24 1.21.41 2.42 1.58 3.16-.04-.183-.55-2.326-.44-2.766 9.71-2.48 18.26-11.993 20.45-16.9l42.68-.462c-31.64 30.35-32.9 73.067-7.088 108.87l-2.97 1.733c-19.89-29.797-19.69-58.504-13.72-77.73 4.23-13.63 11.82-24.04 17.588-29.99 0 0-23.14-.32-34.657.105-1.673 2.56-3.23 4.65-5.48 7.066 0 0 5.85-5.65 5.7-6.63 10.674-.007 21.68-.624 32.34.12-12.474 14.93-18.622 30.34-19.69 44.835-.04 1.888-.152.83-.776 1.527l-1.97 3.054-1.577-3.176c-1.073-.35-3.183.21-4.078-.112-4.39 19.58.045 43.208 5.82 58.628 0 0-1.45.815-3.234.678-1.953-.434-2.43.104-4.122.45-1.945.37-2.624.366-3.055.857-.24.274-.672.655-1.163.92-4.74 1.72-10.3 8.178-10.3 8.086l-5.218-2.34c4.806-9.44 10.45-12.84 20.37-17.03l-.924-4.22c-10.562 3.938-17.285 8.65-22.587 17.804-6.435-.093-32.493-.276-32.52-.194 10.63-12.087 19.01-30.32 19.925-44.533.225-2.767-.16-1.436 1.062-2.262l1.926-2.294 1.51 2.26s1.097 1.39 1.79.23c1.937-19.82-.113-42.42-9.664-58.174 1.694-.113 3.382-.16 5.005.8 3.735 8.46 5.936 18.91 6.89 26.745 1.21 9.917 1.04 21.1-.19 30.6l.635.086c1.86-12.343 1.23-25.47-.48-36.945-.877-5.983-3.7-15.344-5.643-19.67-.535-1.19-.95-1.5-.443-1.68 11.64-.975 16.99-4.86 21.17-11.06zm-32.272 1.043c.89 0 1.612.72 1.612 1.612 0 .89-.722 1.612-1.612 1.612-.89 0-1.613-.724-1.613-1.614s.73-1.612 1.62-1.612zm87.48.82c-3.407 3.084-6.144 6.28-9.02 9.688 8.51 11.704 17.97 24.393 25.924 34.53 0 0 2.753-1.63 2.742-1.834-.006-.11-.22-.648-.27-.528-.118.282-2.23 1.463-2.23 1.463l-25.172-33.035s1.364-1.633 1.786-2.147c1.956-.643 7.398-7.384 7.665-7.245 4.26 3.26 17.12 17.11 22.08 21.35l.06 38.437c-.51 1.54-14.22 7.464-23.91 29.574-4.87 2.73-10.267 4.195-15.28 6.57 0 0 1.273 2.006 1.9 2.556-.77-1.656-.9-1.97.832-2.68l36.233-14.77-.067 2.984-.59 5.15c-9.86 6.08-18.183 8.63-31.755 17.8-.97.227-1.75 1.158-2.77 1.208-34.67-51.06-12.51-89.53 7.7-108.86zM55.58 99.545c.947.018.708 2.21.358 2.97-.7.55-1.396.06-1.38-.964.004-.33-.06-.65-.145-.7-.525-.33.353-1.31 1.168-1.3zm21.176 1.373c.797.605 1.09 1.41 1.385 2.216-1.07-.17-3.95-.994-2.6-1.637zm-5.237 2.853c25 37.82 23.89 77.99-4.02 108.43l35.3-.05c4.495-8.87 11.982-14.27 21.562-17.6l.834 2.787c-11.01 3.534-16.58 9.393-21.01 17.51H62.08c16.18-17.407 23.59-32.11 24.757-52.003 1.113-18.945-3.707-36.246-18.345-57.063zm7.05.44l5.89 2.79-.873 6.054-6.18-2.85zm-10.64 1.7c31.535 47.71 18.01 81.268-7.17 109.19l-4.64.08-10.81-10.043.197 61.037s-10.54 10.32-11.75 11.56c-1.198 1.153-2.096-.617-2.096-.617l.03-80.912.468-3.17.145-17.435 6.72-3.544 25.195 33.03s-1.01 1.49-1.48 1.758c-.3.173-.08.468.18.435.705-.095 2.724-2.35 2.3-2.715-9.14-11.324-26.133-33.494-26.133-33.494l-7.076 3.694s.206-14.475.08-20.03c.27-1.312 1.253-.96 1.915-1.546 8.148-5.24 13.89-11.63 17.434-17.83.26-.466 1.83-3.25 1.982-3.5.554-.9 1.925-3.72 2.724-5.52.446-1.004.92-2.22 1.1-2.37 4.903-1.595 10.05-3.86 14.973-5.897l-7.09-10.64zm-19.33.61c-.266-.002-.943.305-1.86 1.136-1.69 1.533-3.916 4.053-3.923 4.53.454.165.855-.096 1.217-.462 1.413-2.086 3.6-2.902 4.88-4.73.2-.337-.01-.477-.314-.472zm15.885 2.217s4.893 7.128 6.145 9.02c-12.89 5.1-26.38 11.845-38.33 16.205v-2.86l1.887-5.13zm19.182 4.71l4.82 2.49-1.36 5.44-4.866-2.72zm3.976 9.05l3.963 2.888-1.81 4.615-3.993-2.745zM55.31 125.88s-.61 2.14-1.635 4.053c-4.904 8.52-9.7 16.09-19.616 22.667-.38-.336-1.46-2.226-1.46-2.226l-.098-2.524c5.256-4.223 9.792-7.322 16.753-19.713l2.018-.82 1.72.743 1.163-2.076zm20.626.02c-4.57 9.69-9.06 19.69-16.34 27.24l19.92 27.807c6.554-19.633 4.12-38.034-3.58-55.05zm-25.06 2.11l-.956 1.657 1.658.956.956-1.658zm-2.703.18c-3.61 8.07-9.026 14.277-16.137 18.743l-.275-11.84zm1.27 2.41l-.957 1.654 1.656.956.956-1.658zm40.713.346l3.59 3.41-2.132 3.76-3.683-3.047zm55.016 1.676c-.004 0-.007.007-.01.01-6.31 19.617-4.415 38.354 4.244 54.664 4.248-10.57 7.735-17.646 16.03-28.902-5.108-6.686-19.75-25.98-20.264-25.77zm-97.14.315l-1.003 1.626 1.624 1.004 1.004-1.626zm27.538 2.288c5.69 13.6 5.19 25.864 2.165 36.49l-14.21-17.95c5.206-6.462 8.663-12.58 12.048-18.54zm-29.002.05l-1.076 1.577 1.58 1.08 1.076-1.583zm-1.59 2.26l-1.18 1.51 1.51 1.176 1.177-1.51zm46.817 1.605l3.22 3.056-2.033 3.963-3.266-2.99zm-48.674.744l-1.23 1.45 1.452 1.238 1.236-1.453zm103.8.43l14.336 18.495c-4.796 5.71-8.78 12.43-12.343 19.68-3.994-12.52-5.797-24.816-1.993-38.18zm-105.81 1.87l-1.32 1.38 1.38 1.325 1.32-1.38zm33.49 1.85l-6.56 9.485 7.52 9.6c.81-5.2.99-11.23-.96-19.088zm-35.63.31l-1.41 1.293 1.296 1.41 1.41-1.293zm-2.07 1.848l-1.49 1.207 1.21 1.484 1.48-1.205zm56.026.98l2.693 3.147-2.733 3.24-2.558-2.88zm34.24.565l1.83.068c-3 29.595 2.898 44.568 8.115 57.59 0 0-.014.52-.19.676-.85.297-2.57.61-3.95-.6-7.017-18.04-8.55-40.263-5.805-57.73zm-92.674.38l-1.55 1.12 1.12 1.55 1.55-1.12zm114.656 1.054c-.466 0-.87 12.18.883 18.12l6.595-8.94zm-17.058 2.01l2.206 2.966-2.34 3.19-2.395-3.02zm-99.39.808c.11-.017.293.29.648.536.33.346.282.32-.087.614-.58.46-.75.386-.74-.333.05-.59.09-.8.18-.815zm60.355 2.226l2.44 3.49-2.697 3.47-2.308-3.653zm38.843 4.42l2.568 3.13-2.205 3.43-2.806-3.276zm59.457.663l.227 3.606-.89-1.317-1.63 1.25 1.135 1.51 1.424-1.11.09 1.454c-9.047 6.535-12.95 14.043-16.617 19.674l-1.632.69-1.855-.59-.907 1.61-1.58.37c-.047-.01 3.17-6.9 8.675-13.915 4.903-6.25 13.534-13.29 13.56-13.23zm1.048 5.643l.077 12.82-16.18 6.25c4.2-7.158 9.152-13.8 16.106-19.073zm-4.02-1.56l-1.478 1.212 1.28 1.46 1.47-1.21zm-2.274 1.93l-1.425 1.27 1.33 1.415 1.425-1.28zm-54.047.71l3.05 3.25-2.238 3.837-3.174-3.045zm51.744 1.367l-1.337 1.367 1.462 1.407 1.335-1.365zm-2.104 2.16l-1.283 1.42 1.553 1.344 1.283-1.42zm-2.113 2.417l-1.194 1.498 1.618 1.25 1.195-1.5zm-46.484 2.3l3.815 2.476-1.864 4.536-3.807-2.9zm44.64.02l-1.12 1.554 1.723 1.18 1.133-1.61zm-1.723 2.452l-1.04 1.607 1.743 1.12 1.034-1.66zm-1.54 2.428l-.957 1.655 1.806 1.026.953-1.674zm-1.39 2.51l-.957 1.655 2 .862.792-1.58zm-37.92 1.023l3.904 2.646-1.727 4.753-4.123-2.917zm56.623 4.678l.194 97.83-42.994.15s-2.01-3.537-6.217-11.71c-1.783-3.46-3.29-4.93-3.443-7.67.16-1.61-.58-3.434-1.9-4.17-.442-.246-1.183.05-.935-.637.27-.76-.568-1.926-.796-2.174-.26-.44-.098-.546-.126-2.178-.026-1.578-.11-2.237-.448-3.428-.857-3.01-1.046-4.51-.558-6.073 1.27-3.955 2.595-6.99 4.307-10.68.996-2.16.844-3.002-2.21-4.57-2.29-1.175-2.59-1.162-2.303-2.877.136-.804.262-1.31.093-1.7-.104-.236-.484-.567-.706-.757-.298-.253-.21-.78.096-1.17.3-.385.3-.934.006-1.85-.625-1.926.79-4.478 3.46-6.24 1.18-.78 1.15-.62 2.38.675 3.6 3.78 8.95 1.403 8.96-3.926.003-1.66-.563-1.563 1.01-2.346 5.324-3.39 16.255-9.554 16.182-9.385.713 1.45.95 2.69 1.4 4.252.39 1.34.34 1.443.194 4.05-.13 2.357-.202 2.905.353 3.056 3.153.347 3.873-.768 4.48-2.804.26-.9.763-.717 1.074-.34 1.2 2.186 2.72 4.458 3.714 6.01 1.246 1.984 3.346 2.97 4.446 2.03.23-.77.42-.79 1.81-.475 1.69.382 2.65-.564 2.815-1.807.065-.497-.296-.476.61-.966 2.243-1.66 1.387-3.93 1.05-5.294.03.07.96-.57.98-1.847.108-6.64-5.646-16.2-5.516-15.953zM137.51 191.2l4.57 2.206-1.074 5.45-4.693-2.11zm44.43 2.027c2.63 3.05 4.537 8.133 5.517 11.444.487 1.65.546 3.536.11 3.797-.423.26-.623-.017-.542-1.003.067-.82.09-1.455-.26-1.446-1.02.265-1.06-1.28-.956-1.645.07-.24.194-.412.25-.544.25-.6-.406-.52-1.086-.527-.602.014-.757-.35-.728-.92-.018-.635-.856-.51-1.333-.03-.436.44-.345.955.246 1.32.85.516 1.65 1.793 3.624 6.194 1.148 2.557.81 4.37-.56 4.35-.946-.03-2.05-2.624-2.943-4.537-.23-.495.35-1.048.55-1.314.527-.69.448-.906-.33-.918-.73-.01-1.04.052-1.48-.847-.164-.34-.284-.854-.225-1.182.375-.99-.396-1.23-1.144-.85-.942.393-.935 1.235.503 2.612.927 1.52.685 1.412-.192 2.435-.183.36-.072.583.314.59 1.114-.34 2.326 1.663 1.995 2.35-.34.295-1.274 1.364-.373 1.158 1.832-.497 2.947 2.186 1.868 3.095-1.61.808-1.99.556-4.47-4.396-.77-1.54-1.695-3.19-1.81-3.36-.112-.17-.163-.624-.16-.99.11-.896-.272-1.1-1.05-.743-.585.14-1.112.62-.372 1.074.864 1.49 1.17 1.73.695 2.11-1.08.86-.614.825.6 1.066.59.175.89.48 1.054.85.625 1.4 1.734 3.38 1.844 3.786.364 1.03-.298 1.492-1.204 1.448-.95.023-1.382-.726-1.843-1.365-1.723-2.398-2.965-4.77-4.724-7.494l.235-2.544s.46.1.72-.024c.507-.245.807-1.04 1.096-2.096.463-.92 3.193-3.01 4.238-4.132.193-.126.355-.336.357-.462-.006-.41-1.183-.136-1.96.754-1.14 1.01-1.623.664-1.59-.628-.11-1.595-1.082-.795-1.13.763-.126 1.23-.554 1.98-1.415 2.664-1.63 1.3-1.358.97-1.28 2.777.13 3.148-1.085 5.737-1.88 4.02-.28-.61-.613-1.3-1.32-1.33-.505-.023-.754-.516-1.03-1.734-.41-1.97-.987-3.24-1.51-5.056zM141.47 200l5.26 2.093-.983 5.502-5.213-1.994zm40.116.505c-.035 0-.077.01-.12.03-1.483 1.12-2.85 2.374-4.466 3.34-.606.355-1.314 1.28-1.318 1.53-.005.24.72.233 1.424-.075.67-.29 4.484-3.874 4.49-4.203.262-.29.236-.638-.01-.622zm-48.312 6.68c1.246-.004.52.365-2.194 2.25-2.65 1.837-7.02 7.65-7.527 9.806-.23.98.39 1.06 1.09-.29 3.22-6.18 9.305-11.83 14.877-11.58 2.73.12 4.206.86 1.946 1.18-6.194.76-10.824 4.295-14.876 11.335-.003.157.367.15.792-.12 3.71-4.536 7.885-10.54 15.226-10.056 5.296.32 6.8 6.615 2.404 8.765-3.83 1.874-7.365-2.69-4.19-5.397 1.033-.88 1.677-.494.687.405-2.13 1.93.48 5.364 3.07 4.06 1.57-.66 2.21-2.916.82-4.62-3.09-3.79-9.747-.907-14.385 5.214-.487.645-.908 2.044-.498 1.893.72-.3 1.156-.86 1.58-1.498 1.656-2.297 2.93-3.45 5.17-4.68 1.732-.957 1.84-.778 1.192.875-.273.697-.49.928-1.164 1.36-2.825 1.93-4.58 4.514-4.65 6.16-.05 1.202.83 2.772-.125 3.094-1.62.766-6.03.14-7.22-1.38-.857-1.093-1.19-.46-.546 1.32.427 1.17.41 1.837 1.05 1.717.81-.43 1.366-.33 2.94.53.757.417 2.1.804 2.92.99 1.49.347 1.803.2 1.77.847-.01.2.06.756.015 1.107-.243 1.947 1.38 2.608 3.595 3.887 1.297.746.786 1.515-.71 5.217-.78 1.674-1.445 3.927-2.405 5.628-.9 1.91-.975 4.004-.396 6.388 1.072 4.425 1.845 6.674-.07 7.07-4.927.748-15.81.717-21.75-1.567-1.52-11.4-9.57-28.32-8.54-32.693 2.06 3.107 10.703 2.285 8.1-6.4 0 0 .71-1.06 2.115-2.486 3.623-3.68 4.52-4.29 2.8-1.05-1.328 2.49-3.017 5.74-3.05 6.37-.035.505.36.62.662.22.225-.3.493-1.02.73-1.57 2.16-5.06 5.854-9.62 8.4-10.72.66-.28.627.02.17.576-2.993 3.728-5.282 7.176-6.91 11.676-.07.467.587.66.797.22 2.81-5.89 3.65-7.23 7.105-11.38 1.358-1.63 2.62-2.453 3.63-2.364.873.076.615.22-.193 1.08-.616.66-1.53 1.572-3 3.427-2.6 3.273-5.216 8.596-4.254 8.32.166.44.987-.97 1.68-2.324 1.9-3.19 3.92-7.406 8.43-10.178.944-.39 1.974-.614 2.884-.624zm-87.276 1.027l8.036 8.03 16.165-.21c-2.67 4.144-1.247 10.565.222 14.318 2.88 7.356 7.1 19.502 6.792 19.68 0 0-2.35.603-2.564 2.093-.312 2.21.645 2.046-.736 4.04-.31.45-.11 1.296.222 1.97.22.494.43 1.237.02 1.815L59.9 285.385l-27.06.13v-5.086l13.55-13.72-.166-10.096c7.39 2.198 9.928 9.823 10.562 15.47 13.348-12.18 13.018-30.52.405-42.026-2.46 12.16-11.26 14.687-11.07 14.446zm100.528 1.442c.866.063 2.033.202 2.825.628-.533.32-.92.703-1.27 1.095-.433-.77-1.016-1.19-1.55-1.723zm22.407.087c.72 0 1.602 2.108 1.095 2.6-.286.28-1.214.385-1.545.176-.423-.315-.207-2.77.45-2.77zm-25.496 3.658c.927 0 1.68.75 1.68 1.68 0 .927-.753 1.68-1.68 1.68-.928 0-1.68-.753-1.68-1.68 0-.93.752-1.68 1.68-1.68zm-71.092 2.39l1.213.03c-2.202 2.945-2.5 5.48-1.718 9.15.877 4.136 7.574 19.67 8.006 23.95.02.19.04.736.04.736l-1.647.11-.18-.612c-2.3-7.744-4.593-13.652-6.194-18.167-1.598-4.87-4.04-12.09.476-15.197zm8.854.03c.01 0 .02 0 .03.006l1.16.01c-.046.025-1.74 3.656-1.86 5.86-.14 2.496.465 5.216 1.292 7.9 1.958 5.808 4.82 12.277 6.41 19.607.017.086.192.797.192.797l-1.723-.234s-.17-.75-.19-.856c-1.19-6.448-4.51-13.145-6.486-19.49-1.013-2.886-1.718-6.432-1.355-9.143.255-1.91 2.174-4.422 2.53-4.46zm14.07.016c-1.237 1.907-2.36 4.298-2.438 6.173-.07 3.486.948 6.43 1.96 9.512 3.127 9.49 4.64 14.494 6.205 22.103l-1.66-.71s-.065-.427-.1-.55c-.888-4.765-.944-4.35-6.156-20.374-1.22-3.847-2.385-7.22-2.157-10.42.05-1.826 1.644-5.438 3.32-5.727zm1.99 0h1.55s-.855.903-1.1 1.24c-2.71 3.754-1.926 7.78-.58 12.584 1.85 6.605 5.27 13.994 7.055 24.064.032.188 0 1.16 0 1.16l-1.845-.744c-1.674-9.234-5.807-18.808-7.8-27.11-1.17-4.88-.837-7.96 1.87-10.617.68-.524.85-.58.85-.58zm-18.908.053h1.16s-1.936 3.18-1.934 5.05c-.325 3.354.89 7.058 2.282 10.94 2.14 5.964 4.97 13.18 5.84 16.975.033.15.15.83.15.83l-2.024-.105s-.108-.92-.228-1.34c-2.335-8.166-4.61-13.447-7.29-20.9-.406-1.13-1.053-5.59-.29-8.48.6-2.27 2.332-2.97 2.332-2.97zm-3.1.002l1.25.035s-.19.34-.667 1.16c-2.28 4.13-1.26 7.9.155 12.1 1.885 5.606 4.846 12.45 6.694 18.927.105.367.247 1.47.247 1.47l-1.805-.025s-.365-1.32-.39-1.462c-1.015-6.003-6.502-16.01-7.93-23.626-.783-4.086-.11-6.616 2.447-8.573zm16.743 0s-1.97 3.42-2.15 5.325c-.356 3.736.83 6.828 2.184 11.04 2.34 7.268 5.64 15.796 5.933 19.694.01.127.057.602.057.602l-2.03-.722s-.09-.41-.13-.55c-1.77-7.055-3.866-14.08-6.68-21.998-.695-2.67-1.606-5.36-1.526-7.656.41-3.066.933-3.893 2.76-5.71zm8.94.006l1.636.035s-.49.263-1.656 1.507c-6.455 5.9 4.02 22.554 6.435 37.718.024.162.1.734.1.734l-1.8-.648c-.17-.756-.3-1.675-.508-2.5-1.957-7.752-4.57-15.723-6.965-22.952-1.347-5.268-1.838-9.908.58-12.502.753-.896 2.174-1.39 2.174-1.39zm-16.83.01l1.74.05c-1.26 1.58-2 4.04-2.066 6.226-.068 2.59.624 5.106 1.476 7.768 1.747 5.46 4.242 11.393 5.955 18.76.098.49.18.8.224 1.015.07.337.265.873.265.873l-1.84-.366s-.19-.476-.313-.727c-.187-.376-.356-.86-.508-1.432-.89-3.84-4.17-12.562-6.164-18.68-1.586-3.852-2.017-10.59 1.223-13.48zm21.753.068c2.23-.08 4.245 1.81 4.72 3.587.464 1.888-.13 4.017-2.204 5.07-3.368 1.704-6.993-2.833-4.336-5.33 2.017-1.893 4.996-.49 4.347 1.93-.42 1.578-2.81 1.68-3.206.088-.11-.53-.374-1.06-.564-.77-1.24 2.91 2.923 4.27 4.652 1.566 1.024-2.17-.928-4.962-3.8-4.43-3.938.727-4.39 5.725-2.756 11.555 2.28 9.214 7.723 21.607 7.713 27.295 0 .075.02.31.02.31l-1.727-.517-.028-.18c-1.035-7.945-6.936-21.1-8.63-31.21-.733-4.61 1.063-7.957 5.103-8.87.232-.055.463-.085.693-.094zm-17.086.073c-1.213 1.62-2.005 4.054-2.043 5.79-.035 2.547.88 5.025 1.633 7.676 1.91 6.545 6.37 18.63 6.205 20.895.046.243.17.994.17.994l-1.725-.51s-.07-.11-.197-.42c-.575-2.25-3.307-11.874-6.368-20.197-1.178-3.345-1.75-5.952-1.67-8.17.25-3.06 1.124-4.34 2.466-6.044zm32.812 10.85c-4.468.255-4.038 5.7-1.27 6.623.99.272 1.57.036 1.727-.18.18-.245-.02-.62-.67-.714-1.877-.62-2.55-2.83-.853-3.756.924-.487 2.403-.174 4.19 1.146 3.184 2.364 7.09 2.51 6.58.124-.125-.58-.375-.657-2.71-.975-1.896-.26-2.75-.86-3.577-1.305-1.303-.703-2.45-.994-3.422-.965zM57.64 231.96c11.54 11.27 9.83 28.932-.03 37.775-.203-.716-.633-2.465-.68-2.416 7.413-7.716 10.905-20.36.173-33.32.056.05.24-.937.536-2.04zm72.32.3c-.11.002-.205.014-.29.043-2.988.818-3.608 3.77-1.67 4.987 1.19.745 2.1.29.622-.613-1.268-.772-.644-2.802.89-2.78.67.01 1.13.3 2.835 1.56 1.404 1.035 2.726 1.117 3.026-.285.18-.836-.1-1.21-.993-.99-.395.1-.627-.133-1.163-.505-1.193-.83-2.495-1.43-3.26-1.414zm-73.513 2.21c10.4 12.073 7.062 24.663.048 32.04-1.926-5.683-6.646-9.228-6.646-9.228 1.772-3.947 2.84-8.07-.49-13.274 3.09-2.798 5.66-5.87 7.082-9.54zm67.58 4.407c-.488-.01-.33.46.82 1.265 2.742 1.866 2.977 2.203.32 2.16-.674-.04-1.73.44-2.327.637-3.468 1.155-3.636 1.063-5.295.674-.553-.13-1.114-.36-1.357-.14-.373.34-.794.567-.322 1.076.344.37.984.655 1.762 1.1 4.027 2.308 4.393 2.86 9.127 2.984.544.013.82-.268 1.14-.27.774-.01 1.18.18 1.96.892 1.43 1.305 1.498.356.647-1.357-.444-.9-.835-1.115-.616-1.798.5-1.56-.213-1.87-1.145-.49-.7 1.08-.774 1.056-1.44-.333-.87-1.735-.46-2.535.87-1.406 1.006.857 1.263.22 1.654-.46.515-.89.437-1.69-.482-1.62-.53.04-1.022-.203-1.44-.656-.812-.89-2.373-2.004-3.87-2.265zm1.14 4.69c.11.01.185.05.22.167.01.57-.382 1.737-.703 2.35-.102.272-.28.306-.525.356-.83.153-.89-.104-.74-.618.3-.794.55-1.924 1.622-2.25.045-.004.085-.006.12-.004zm-2.11.398c.336-.024.347.115.212.42-.24.515-.66 1.002-.98 1.405-.665.43-1.75-.885-1.27-1.226.67-.265 1.17-.537 1.87-.58.06-.01.115-.016.163-.02zm-74.512.86c.18 0 .362.035.55.115 2.518 3.4 2.346 8.57.392 11.43-.146.214-.295.252-.54.17-.842-.5-1.91-.683-2.71-.97v-9.95c.823-.173 1.532-.797 2.308-.795zm66.33.81c-.192.01-.272.14-.028.39 3.67 2.657 8.72 5.736 13.38 4.543.427-.092.772-.326.69-.767-.05-.274-.525-.51-1.038-.38-1.07.287-3.12.32-3.96.19-3.208-.53-6.038-2.578-8.5-3.778-.18-.14-.4-.204-.55-.2zm-1.07 2.534c-.165-.01-.152.155-.05.462.517 1.54 5.71 5.123 9.814 6.31 3.52 1.016 8.58.015 8.28-1.657-.15-.873-.792-1.08-3.04-.797-4.947.96-9.71-1.06-13.325-3.31-.975-.616-1.474-1-1.685-1.01zm-32.405 2.1c2.16-.028 4.304.15 6.622.534 4.51.77 9.734 2.166 14.155 4.214 7.515 2.82 16.963 4.995 24.98 4.7 1.957.054 5.494-.11 6.178-.338 1.79-.4 2.284-.02 2.71 2.196.075.48.224.62.845 1.04.95.642.79 1.277.676 2.697-.096 1.193.625 1.864 3.52 7.205 3.293 6.08 6.506 13.144 6.506 13.144-28.873-.02-56.42-1.09-85.96-.175 2.656-6.298 9.9-17.658 14.44-26.777-1.098-2.805.258-3.282-.31-3.948-.92-1.56-.257-3.747 1.687-4.24 1.35-.155 2.65-.245 3.95-.26z" fill="#131f67"/><path d="M61.958 285.687s9.462-19.127 13.448-24.858c5.736-7.28 31.624 3.16 44.5 5.76 5.232 1.01 17.362.532 17.362.532l10.14 18.275zM42.31 263.954l-.4-59.547 2.963 1.85.678 59.812-12.8 12.25-.07-3.59zm7.75-6.795c3.05-6.14-.354-13.64-.354-13.64 1.77.436 6.7-8.92 7.137-8.65 7.544 9.25 8.852 23.038-.366 31.58-2.327-5.937-6.386-9.3-6.416-9.3zm5.632-42.12c5.732-5.86 10.278-10.42 14.82-16.98.373-.534-24.183-31.725-23.8-32.27 3.787-4.188 8.865-7.265 12.816-12.32 0 0 20.138 26.362 20.602 26.13 2.04-8.25 3.534-15.72 3.145-24.34-1.243-22.065-10.67-35.57-10.744-35.306-3.18 20.27-34.52 50.974-40.69 48.787l-.03-14.166c.377.71 19.85-12.53 24.99-30.03.37-1.256 15.484-6.092 15.378-6.28-.64-1.64-7.25-10.993-7.25-10.993s2.67-1.244 2.967-1.24c8.57 10.657 15.038 24.696 17.238 38.064 2.67 14.4 4.398 41.466-24.475 71.03zm86.556-37.25c-4.518-14.02-4.395-28.54-2.318-38.68 3.17-18.37 14.78-31.52 24.09-41.55h4.038l-6.586 6.817c-3.016 3.46-7.384 10.676-7.384 10.676l24.095 31.493 13.734-2.968s-.414 14.087.012 14.087c-10.68 8.838-18.35 16.83-23.86 29.707-3.376 1.248-14.566 6.072-14.566 6.072-5.32-1.3 15.83-34.457 11.806-35.02-1.656-1.365-20-26.11-20.356-26.06-8.456 25.89-.207 53.076 14.67 72.06-1.69 1.097-3.217 1.95-3.077 1.69-6.373-8.84-11.956-19.392-14.308-28.33zM98.23 164.812c.953 1.475 5.24-31.593-6.027-58.064 1.072-.81 10.367-2.59 10.367-2.59l2.5 7.925-6.34 2.684 1.17 3.715c4.923-2.388 15.583-5.913 22.14-16.804 0 0 31.86-.273 32.538-.216.66.054-6.498 6.915-13.287 20.803-3.1 6.344-5.56 14.552-6.08 24.182-.1 1.902-7.29-8.948-7.29-8.948 1.79-9.168 6.59-18.19 11.36-27.217 0 0-7.33-.416-12.44-.267-7.96 8.7-12.95 13.28-24.95 17.435 4.377 14.02 31.15 20.758 25.194 19.477-1.216-.29-2.757 12.885-1.47 27.73.25 11.87 6.637 31.66 6.86 31.5 0 0-4.256.96-4.597.276.718-.17-6.333 1.613-6.333 1.613l-2.525-7.376 6.825-3.14-1.103-4.162c-.024.003-15.057 4.55-22.42 17.663l-32.93.036c12.7-13.78 17.88-27.406 20.64-45.424 2.693.482 8.21-.84 8.21-.84zM179.21 45.85c4.14-3.463 12.45-12.485 12.45-12.485l.11 4.62-9.432 9.81.096 60.55-3.19-3.06zm-4.358 22.164c-1.698.81-5.083 4.79-6.697 9.26-10.926-9.76-6.426-27.7-.445-31.435 1.735 3.917 6.76 9.11 6.644 9-1.154 4.102-2.04 8.263.498 13.174zM78.117 27.37l84.263.147c-4.806 9.464-9.216 17.114-14.325 26.43-2.658 3.207-60.2-10.354-60.47-9.003z" fill="#e2cf00"/><path d="M196.878 302.122v-2.78h2.768l6.61-10.032-6.848-15.833h-2.67v-3.112h9.933v3.112h-3.5l5.22 12.345 3.48-4.95-.08-7.395h-2.44v-3.112h9.07v3.112h-3.24l.16 25.865h2.745v2.78h-8.61v-2.78h2.37l-.23-12.162-7.915 12.162h2.8v2.78zm-31.544-18.04c-5.52-10.756-12.61-20.504-20.742-28.926 8.096-8.84 14.847-18 20.616-28.006 5.943 9.96 12.473 19.362 21.593 28.455-9.03 8.897-15.82 18.605-21.46 28.476zm-132.766-10.45l-.562-79.507 9.578 9.305.57 61.058zm165.924-22.107c3.49-3.696 6.658-7.794 9.272-12.218 3.29 4.872 6.78 9.856 9.665 12.342-3.28 3.72-6.38 8.05-9.36 12.5-2.6-4.15-5.43-8.34-9.58-12.63zm-121.974 6.7c-1.982.303-.86-1.532-.498-3.276.202-.98-.74-1.89-.734-2.19.025-1.728 1.318-2.457 7.177-2.39 13.814.96 20.955 5.38 28.878 7.436 7.59 1.97 15.11 1.93 23.49 1.736.616.353 2.86 6.134 2.44 6.713-18.94 3.733-43.11-10.173-60.743-8.038zm34.14-41.17c-1.997-1.445-3.87-1.713-5.72-2.027 3.247-5.715 7.18-10.922 13.75-14.18l3.06 7.564c-3.866 1.986-7.66 4.35-11.09 8.643zm-39.905-19.642s-2.835 4.634-5.51 6.888C57.288 193.64 39.5 170.93 39.5 170.93l-7.547 3.82s-.03-4.395.14-4.703c20.387-10.504 34.375-30.36 40.535-48.95 0 0 3.282 3.348 2.85 4.765-5.512 14.665-14.937 29.373-28.8 40.403zm25.426-21.637l25.73.037 1.14 8.946c-9.86 3.3-17.99 10.05-25.597 17.85l-12.207-.21c4.002-8.77 9.563-17.67 10.924-26.63zm95.28-37.693c.83 2.523-.01 5.243.31 5.13-30.83 15.245-39.638 48.708-39.638 48.708s-2.927-4.63-2.793-5.35c15.956-35.46 26.632-36.52 28.683-40.37l-24.266-31.4 5.49-7.465 26.03 33.87c2.587-1.19 4.062-2.19 6.183-3.113zm-15.2 45.88c5.223-9.4 10.62-14.866 15.99-18.626l-.26 12.408zm-144.13-36.9l.134-12.036 15.88-6.834c-4.39 9.57-10.35 14.7-16.015 18.87zm70.743-10.82l-.94-8.468c9.64-4.204 18.16-9.828 25.033-17.525 7.386-.353 12.43.147 12.39.047.013-.015-7.026 10.308-11.686 26.56zm79.867-88.935l8.774-8.867.28 79.12-8.814-8.38zm-77.11 64.422l-2.784-7.84c4.38-1.642 7.693-5.217 10.78-8.757 2.095 1.875 4.797 2.535 5.735 2.895 1.29.3-8.87 12.5-13.73 13.706zM37.765 57.56C47.16 48.39 53.267 38.717 59.17 29.1c5.174 10.58 12.667 19.838 20.7 28.786-8.28 9-14.57 18.637-20.61 28.338-5.94-10.226-12.19-19.812-21.498-28.664zm-21.663 15.8c-2.71-4.325-5.438-8.488-9.37-12.665 3.828-4.098 7.08-8.16 9.265-12.154 3.014 4.39 5.876 8.97 9.576 12.48-3.604 3.97-6.5 8.17-9.47 12.348zm73.08-21.036s-1.094-.633-.973-1.526c.36-1.157-1.17-3.775-1.17-3.775 18.68-5.67 45.89 10.283 62.04 6.928-.14 1.13.05 2.48-.41 3.54.51 2.26.87 2.33-1.34 3.71-11.346 3.21-23.3-3.63-34.385-6.9-9.04-2.848-16.385-2.12-23.77-1.968zM5.814 42.4v-3.38h3.172v-25.4H5.813v-2.935h8.797v2.934h-2.294l.213 12.21 7.98-12.22h-3.12l.034-2.935h9.954v2.934h-2.84l-6.353 10.05 6.36 15.36h2.84v3.38H17.43V39.23l3.734-.06-5.29-11.957-3.57 4.908v6.955H14.9v3.32z" fill="#d40000"/><path d="M77.154 26.252l3.413 6.427-.59.4c.93 1.54 1.718 3.29 2.67 4.82l.684-.08c1.13 2.15 1.58 2.94 3.05 5.49l-.66-.008c.34 1.13 1.217 1.883 1.235 2.695.008 1.01-.25 2.035.37 2.72.734.81.82 1.034.67 1.51-.4 1.26.74 2.655 1.9 2.53 8.17-1.09 16.49-.165 24.814 2.35 5.984 1.89 11.296 4 16.326 5.49 1.585.473 4.79 1.22 7.55 1.422 7.65.56 11.945-1 10.656-4.18-.102-.257-.332-.443-.352-.574-.037-.24 0-.503.435-.86 1.254-1.28.553-2.215-.21-3.634 0 0 9.825-17.555 14.733-26.3zm85.08 1.577l-7.17 12.38c-3.834-.7-4.736 2.53-4.794 2.98-4.98-1.28-4.214 5.18-1.716 5.61.16.936-4.093 2.1-6.335-.094 3.44.46 4.66-4.097.45-5.11 5.55-4.124-4.86-10.3-4.987-1.767-4.895-.863-4.26 5.604-1.154 6.107-1.588 1.75-6.257 1.8-8.698-1.89 4.15 2.157 6.396-3.41 2.083-4.966 5.323-4.667-5.1-8.97-4.855-1.43-3.93-2.327-6.63 3.61-1.385 4.52-.3 1.07-7.167 1.077-8.91-1.684 4.87 1.11 5.094-4.82.796-5.3 4.316-5.477-6.634-8.246-4.8-.775-4.23-1.672-5.824 3.6-1.704 5.296.227.84-6.673 1.553-9.088-1.475 5.302-.795 3.447-5.934.01-5.523 0 0 .05-.145.243-.645 1.62-5.16-7.1-5.59-5.89-.12.19.504.406 1.175.406 1.175-2.405-.49-3.874.49-3.7 2.745.6 2.994 2.18 2.773 4.204 2.177.85.89-4.88 3.853-8.48 1.205 4.406-1.265 2.174-6.43-1.51-5.732-.155-1.648-1.946-3.96-4.28-2.832l-2.47-4.86zm7.208 68.78l-5.177.074c-3.636 3.712-29.967 27.966-25.532 64.603 1.896 15.67 6.272 29.227 17.972 45.243l3.126-1.835.48.32 32.42-18.65.02-5.662-37.63 15.788c-.744-.793-1.183-1.68-1.812-2.66l15.08-6.406s.363-.917.48-1.338c4.957-12.545 15.03-21.627 23.8-28.643-.048-12.35-.106-38.206-.106-38.206l-22.68-22.58c-2.91 2.66-5.485 5.394-8.065 8.36l26.034 34.268-2.31 1.5-25.76-34.09c3.05-3.67 6.36-6.866 9.66-10.085zm23.13 22.28s-.126-58.836-.297-87.24l-13.51 13.86.05 59.63zm-1.15-81.64l-9.546 9.85.107 60.61-2.453-2.42V46.32l11.926-12.494zm-92.898-1.46c.286.5.162 1.2-.296 1.77-1.953 2.42 4.18 6.63 8.59 5.9 3.36-.56 6.222-2.577 4.987-4.11-1.005-1.25-.35-2.515.86-2.507 1.242.01 2.24.997 1.163 2.35-2.396 3.01 1.258 6.545 6.844 6.618 3.95.05 5.267-.922 5.054-3.736-.1-1.32.16-1.684 1.076-1.884 1.465-.317 2.205 1.36.99 2.64-2.624 2.768.358 6.835 5.32 7.098 1.814.096 2.173 0 4.198-1.144 1.583-.894 2.142-2.243 1.366-3.29-.998-1.35.348-2.96 1.902-2.298 1.11.473 1.658 1.325.43 2.77-1.615 1.896-.85 3.46 2.26 4.52 2.42.82 4.097.72 5.23-.317.354-.324 1.14-.996 1.127-.79-.762 1.315-1.437 2.54-1.437 2.54-5.072 2.26-9.032-1.975-8.9-2.13-5.227 3.012-9.86 2.376-13.776-2.69-1.018.565-8.306 1.893-13.568-3.882-5.31 2.663-10.245 1.546-14.63-1.433-3.242 3.06-6.658 3.545-10.208 2.075l-1.052-2.116c.265-.1 1.41 2.12 6.965 1.084 1.86-.343 5.07-3.48 3.27-5.01-.825-1.16-.85-1.684-.12-2.39.712-.695 1.933-.337 2.345.36zm-13.61 2.77c.31.6.353 1.598.01 1-.18-.317-1.12-1.73-1.076-1.773.438-.036.872.415 1.067.773zm106.512.48l.063 78.225-8.13-8.065-.39-61.28zm-94.14 3.79l2.56 1.61-4.584-.03zm14.39 1.346l2.15 2.087-4.52-.948zm40.264 1.083l-.96 1.97c-.554-.62-.715-1.935.96-1.97zm16.244 32.52c1.632-3.664 3.814-8.33 7.348-9.81-2.63-5.228-2.29-10.45-.423-13.317-2.67-2.484-5.41-5.46-7.11-9.74-8.43 7.446-9.79 22.738.18 32.867zm-.252-31.436l.58 1.43c-7.51 9.19-5.19 21.252.248 27.69l-.78 1.622c-6.648-7.01-9.558-21.83-.048-30.744zm-44.89 5.197c8.7 2.554 15.67 6.534 25.728 2.988l.047 1.96c-6.402 4.11-19.158-.236-27.775-3.416-13.852-5.114-24.632-4.815-32.333-4.23-.68-.134-1.22-1.904-.14-1.916 14.4-.16 12.074-1.955 34.462 4.613zm1.965-3.463l2.857 3.03c-2.146-.67-4.232-1.42-6.173-2.35zm43.613.75l.56.773c.243.337-1.58.51-1.274.118zm-49.096 5.55c10.386 3.9 21.823 7.79 29.328 4.3 0 0 .048 1.486-.81 1.907 0 0-.792.64-3.44 1.005-12.145.996-20.028-4.03-29.83-7-3.718-1.128-9.692-2.494-15.825-2.748-3.642-.166-9.215.357-9.215.357-1.213-.1-1.196-.816-1.206-1.52 10.558-1.407 20.267-.356 30.998 3.7zm50.226-3.74c.134-.007.27.003.405.024l1.062 1.356-1.26 2s-1.11-1.023-1.675-2.027c-.31-.65.53-1.313 1.468-1.357zm-30.602.38l3.29 2.484c-2.474.12-5.257.213-8.012-.88zm27.858 1.265c.26-.006.53.268.85.81.612 1.046.53 1.246-.657 1.628-1.56.5-1.69.39-1.18-1.01.34-.95.65-1.42.98-1.426zm4.996.64l2.224 1.867c-1.228 3.195-2.032 7.25.434 13.07-.273.02-1.872 1.597-2.373 1.866-1.41-.59-4.51-12.127-.285-16.8zm-2.53 2.445l-.564 3.533c-.046.29-2.46-1.67-2.235-2.653.43-1.167 1.9-.918 2.8-.88zm-3.99 1.24c.292.002.75.71 1.313 1.63.44.722.35.994-.622 1.87-1.43 1.446-1.712.974-1.395-1.487.156-1.214.374-2.013.705-2.01zm2.96 3.202c.194.003.363.05.487.15l.16 3.44c.01.31-2.69-.12-3.04-1.434-.45-.84 1.34-2.18 2.39-2.16zm-3.566 2.91c.194-.03.8.373 1.37.712.996.59 1.017.85.16 1.95-1.006 1.293-1.506 1.086-1.66-1.163-.057-.827-.12-1.467.13-1.5zm3.964 1.314c.087 0 .165.025.232.082.48.41 1.21 3.86.903 4.22-.44.51-2.744-.17-3.258-.98-.49-.776 1.283-3.32 2.123-3.325zm-2.822 4.06c.265-.017.742.165 1.463.513.44.21 1.16.604 1.32.94.28.59-.18 1.463-.79 2.19-.4.48-.77.122-1.55-1.487-.62-1.293-.88-2.12-.44-2.15zm4.655 1.544c.053 0 .1.01.145.035.785.435.653 1.727-.275 2.683-1.115 1.15-2.083.28-1.313-1.176.487-.922 1.07-1.535 1.443-1.544zm-64.776 32.093c-.68.03-1.738.647-2.2 1.24-.585.754-1.095.655-1.743.6-.77-.01-1.945.16-3.533.884-.9.41-1.31.502-2.63.57-.86.043-1.72.16-1.91.26-.19.1-.81.317-1.373.482-1.153.334-.743.66-.08 2.15 3.364 8.624 5.775 18.68 6.653 26.862.986 9.39.69 20.78-.626 29.48-3.22.02-5.242-.145-8.634-.088-2.315 18.81-8.593 33.746-21.14 47.18l33.92.085c3.884-10.365 21.62-18.27 22.2-17.687l.935 3.782s-12.757 1.823-21.35 18.01c.88-.53 4.08-.162 6.19 2.03 4.22-5.348 11.14-8.844 11.187-8.762l.23-.644s1.27-.43 2.386-.643c.357-.07 1.09-.207 1.578-.377.754-.264 1.127-.545 2.29-.445 2.417.23 4.844-.47 4.793-.483-7.2-19.86-8.905-37.783-6.09-58.605 2.65.02 8.47.12 8.47.12.582-5.85 1.323-11.704 3.12-17.228 2.306-7.093 5.09-13.685 9.57-19.713 2.53-3.786 4.74-6.48 7.353-10.028l-33.204.076c-4.396 7.382-12.86 13.55-19.666 16.12-2.315.87-2.642.74-3.025-.348-.69-1.947-.656-1.865 1.155-2.38.605-.174 2.54-1.193 5.56-2.608 6.41-3.253 10.817-9.21 13.41-13.23 1.03-1.587.338-1.23-1.425-1.245-1.61-.126-2.35-.625-3.8-1.98-.534-.498-.764-.853-1.01-.824-1.893 2.72-5.074 6.313-7.56 7.376zm7.792-6.286c1.49 1.6 3.26 2.533 5.59 2.837-3.73 5.846-8.28 10.416-13.51 13.195L103.11 104c6.52-3.03 8.26-6.07 10.57-8.55zm54.11 2.38c-35.116 32.462-33.05 73.39-8.46 106.633l-2.577 1.55c-23.095-30.95-27.273-76.73 8.014-108.323zm-22.14 3.96l8.608-.02-5.86 7.596-7.863-.028zm-1.35.06l-4.785 7.55-12.914.165c-7.725 9.527-16.025 14.174-24.474 17.346l-1.65-8.135s13.38-3.224 22.043-17.026zm-13.12.626l-2.993 3.31 3.11 3.162 2.84-3.21zm6.776-.078l-3.03 3.15 2.364 3.173 3.143-3.08zm-14.948.574l-.518 4.953 3.9 1.28.57-4.24zm23.724.18l-2.83 4.426 4.26.068 2.98-4.404zm-44.557 1.13l2.764 7.658-2.426 1.17-2.46-8zm-3.27 1.23l2.85 7.92-2.383.788-2.615-8.247zm3.415 31.274c.317 11.016.475 17.657-1.367 27.34-.097.506-2.075.058-2.075.058.25.084 1.114-10.942 1.045-17.867-.13-13.187-2.367-26.234-7.543-39.305.986-.605 3.42-.91 3.42-.91 3.266 9.91 6.162 20.57 6.517 30.685zm-34.47-30.533c11.335 15.04 19.438 35.444 18.082 55.576-1.298 23.41-10.173 36.9-25.76 53.112l-4.022.093c18.45-17.69 26.615-32.832 27.26-52.807.74-22.974-6.277-38.254-18.095-54.54zM31.6 126.922l.04 5.478 38.62-16.563-5.57-8.204zm90.515-17.945l-4.207.214.14 4.245 4.384-.11zm37.473-.805l25.028 32.818-6.192 4.6-23.86-30.84zm-19.615 2.242l7.49.116-2.896 4.805-7.24-.06zm-1.384.118c-3.444 6.406-8.195 13.71-10.863 25.514l-24.66.02c-.048-2.696-.398-5.39-.8-8.086 10.627-3.89 18.858-9.703 24.91-17.386zm4.56.338l-3.214 1.854 1.965 2.26 3.545-1.357zm-29.35 2.36l-1.06 4.18 3.994 1.54.74-4.966zm22.994 3.124l7.185.043-3.025 6.04-7.12-.105zm17.11-.79l23.682 30.698-2.22 1.756-23.145-30.005zm-14.385 1.277l-3.24 2.7 2.44 2.815 2.99-2.387c.06-.05-2.188-3.13-2.188-3.13zm-31.43.224l-.994 4.065 4.155 1.11.746-4.36zm-5.75 2.703l-.84 4 3.91 1.057.828-3.857zm-32.32-.4c.2-.04-.65 4.76-1.91 5.625-.6.414-.914.323-1.436-.24-.36-.39-1.987-3.045-1.987-3.045l1.39-.7c1.686 2.7 1.684 1.394 2.323-.907zm-6.49 2.76c.55 0 1.22.685 1.975 2.01 1.092 1.92 1.055 2.046-.74 2.6-3.228.853-4.43 1.06-3.435-1.07 1.07-2.298 1.49-3.53 2.2-3.537zm9.614-.38l2.21 3.786c-8.862 22.562-23.154 38.747-42.827 48.54l-.047-3.748c23.198-13.203 32.71-28.8 40.666-48.575zm60.25 1.635l6.974.125-1.866 5.333-7.414-.052zm-71.96-.233c-5.676 13.53-13.434 25.333-28.94 35.3l-.064-3.595c17.42-10.496 24.95-30.158 24.95-30.164zm88.158-.023c4.13.112 8.473 4.614 8.03 8.325-.31 2.615.193 4.556.905 3.485 1.57-2.366 6.206-.793 6.165 2.048-.022 1.512-1.032 1.76-1.61.396-.858-2.013-3.264-2.063-3.62.05-.33 1.98 1.347 3.437 5.836 5.06 5.26 1.233 8.424 5.95 6.554 8.66-.65.715-1.04.89-1.163.52-.037-.107-.165-.666-.286-1.24-.598-2.84-1.96-4.035-3.613-3.06-.83.49-.722 1.136-.24 1.99.646 1.136.24 1.578-.91 1-1.82-.916-2.42-3.083-.656-4.083 2.1-.84 1.388-1.02-1.293-1.927-5.71-1.95-8.156-5.53-8.456-12.344.11-3.11-.316-4.217-1.777-4.64-1.34-.39-2.85 1.31-1.89 2.203.52.486.944.93.67 1.197-.89.86-3.11-.536-3.087-2.036.016-.98.387-1.18 1.855-2.335.407-.32.06-.923-.536-.93-2.245.72-2.086-2.246-.88-2.343zm-12.93.785l-3.486 2.004 1.816 2.534 3.86-1.814zm-67.84 1.97c.4 0 .73.323.73.724 0 .4-.33.73-.73.73-.4 0-.724-.33-.724-.73 0-.4.32-.728.72-.728zm7.147.314c7.36 16.06 9.11 34.422 3.99 52.78l-19.876-25.86c7.625-8.587 12.75-18.415 15.885-26.927zm-26.877 1.18l-17.732 7.45-.094 13.292c9.91-6.76 14.11-13.68 17.83-20.745zm17.046-.116c1.743-.054.88 4.663-1.388 6.272-.832.64-1.393.56-1.667-.718-.142-.665-.84-2.067-1.72-3.196-1.02-1.313-1.01-1.345.484-1.438 1.65.024 3-.768 4.29-.924zm-1.73 2.005c-1.29-.02-1.677.58-.91 1.406.648.696 1.16.547 1.595-.457.264-.616.027-.94-.686-.95zm-31.98 17.25l.042-11.287 15.167-6.386c-3.043 6.594-8.674 13.132-15.21 17.67zm134.72 9.114l-2.02 2.03-19.58-25.52 1.23-3.22zM59.853 129.82c.656.01 2.145 2.285 2.563 3.918.31 1.212-.02 1.47-2.32 1.81-.953.26-3.525.01-3.316-.675.377-.99 2.84-5.057 3.07-5.054zm70.923.26l7.14.077-1.633 5.86-7.482-.11zm3.154.357l-3.322 2.302 2.63 2.59 3.524-2.18zm11.21 2.52l19.807 25.704c-5.908 7.52-11.802 16.15-15.676 27.56-7.05-16.49-9.632-32.54-4.127-53.26zm-80.432 2.188c.4 0 .73.323.73.724 0 .4-.33.72-.73.72-.4 0-.725-.33-.725-.73 0-.4.325-.725.725-.725zm-2.28.98c1.237.087.07 4.024-1.792 5.46-1.467 1.133-2.097.608-2.436-1.464-.124-.74-.91-2.02-1.6-3.02-.777-1.12-.458-1.3 1.503-.85 1.37.27 3.06-.06 4.325-.12zm66.188.962l7.49.045-1.153 8.898zm-72.98.412c1.18 1.1 2.672 4.96 1.907 5.23-.89.32-4.916-.146-5.366-.61-.31-.32-.31-.32.347-1.203.364-.484 1.053-1.45 1.536-2.148.433-.51.915-1.893 1.58-1.28zm4.17.13c-1.14.04-1.216.19-.675 1.42.444 1 .75 1.09 1.508.43 1.054-.917.61-1.908-.83-1.86zm131.47.77l.27 4.38c-28.79 14.28-39.573 48-39.728 47.998l-2.09-3.89c13.21-32.556 30.782-41.983 41.55-48.495zm-135.67 5.19c1.713-.04 2.214-.16 2.205.48.02 1.71-1.576 4.13-3.53 5.05-1.31.61-1.34.63-1.49-.92-.113-1.19-.5-2.726-1.12-3.946-.192-.453-.936-1.49 0-1.195.936.295 2.87.546 3.937.524zm3.845-.4c.4 0 .726.32.726.72 0 .4-.324.723-.724.723-.4 0-.72-.324-.72-.724 0-.4.32-.725.72-.725zm-9.173 1c.31-.01.606.63.96 1.57.77 2.04 1.004 3.15.777 3.63-.35.74-5.076.26-5.88-.57-.152.114 3.476-4.224 4.142-4.634zm3.402.503c-.68.046-.32.454.18 1.636.348.82.818.95 1.357.377.72-.768.817-1.377.363-1.705-.67-.27-1.16-.307-1.905-.31zm137.8 4.44l.023 1.47c-1.12-.337-1.815-.81-3.094-1.237-.78-.263-1.246-.45-.554-1.275 1.085-1.294 2.248-2.103 3.57-2.904l.007 1.667c-2.112.937-1.907 1.8.048 2.28zm-83.23-1.496h7.954v5.252h6.22l-.483 5.984h-5.74v5.252h-7.954v-5.253h-5.68l.457-5.984h5.224zm17.965.02c-4.028 19.96-.333 41.15 5.882 58.41l-3.138.346c-4.845-13.804-8.696-33.46-4.78-58.744 0 0 1.403-.027 2.03-.013zm59.042.386c.4 0 .722.325.722.726 0 .4-.324.723-.725.723-.4 0-.725-.325-.725-.725 0-.4.322-.724.723-.724zm-139.936 1.68c.263-.008 1.07.34 1.79.54 1.08.3 1.93.43 2.916.45 1.98.037 2.238.02 1.387 1.645-.613 1.17-1.993 2.72-2.96 3.19-1.366.73-1.89.63-1.81-.717.01-.913-.385-2.5-.9-3.63-.403-.88-.86-1.47-.42-1.48zm8.365.64c.4 0 .73.324.73.725 0 .4-.33.73-.73.73-.4 0-.724-.33-.724-.73 0-.4.323-.727.724-.727zm133.842-.095c.56-.01 1.52.33 2.4.76 2.323 1.13 2.26 1.39-.89 3.62-2.288 1.736-2.83 1.93-2.91-.806-.083-2.308.166-3.552 1.4-3.578zm-143.4.66c.922.01 1.944 4.82 1.114 5.25-1.29.662-5.29-.638-5.274-1.73.003-.36 3.752-3.528 4.16-3.52zm140.62-.2c.55-.024.624.41.574 1.94-.026.812.113 2.135.17 2.752.117 1.28.006 1.37-1.004.796-.65-.367-1.966-.967-3.39-1.09-1.167-.1-1.25-.58-.89-1.35 1.03-1.706 2.897-2.903 4.54-3.048zm-137.194.724c-.806-.007-.606.422-.107 1.626.353.854.966.936 1.597.21.884-1.02.71-1.557-.574-1.753-.27-.04-.73-.08-.92-.08zM183.68 152.6c-.334.03-.792.298-1.012.44-.757.476-1.065.818.034 1.194.976.334 1.495.48 1.42-.362-.05-.507-.01-1.243-.44-1.27zm-74.66.625v5.232h6.333v-5.234zm69.004.454c.4 0 .72.32.72.72 0 .4-.32.724-.722.724-.4 0-.725-.326-.725-.726 0-.4.325-.724.725-.724zm-118.55.81l19.98 25.643-1.327 3.342-20.575-27.068zm132.126-.12l.044 3.35c-2.257 1.653-16.59 12.04-24.005 29.52l-3.887 1.654c5.466-15.048 17.153-27.934 27.844-34.525zm-151.977 1.42c1.3.395 2.54 1.3 3.77 1.46 1.41.174 1.896.084 1.513.813-.856 1.632-2.47 3.34-4.175 3.9-1.22.4-1.79.25-1.6-.507.36-1.418.42-2.58.37-3.87.196-.705-.405-1.69.12-1.797zm-1.527.3c.83.71.664 5.19-.26 6.155-.485.503-1.888.042-3.993-1.15-1.376-.78-1.63-1.257-.946-1.734 1.165-.706 4.573-3.44 5.2-3.272zm142.73.1c.43-.01.964.064 1.606.21 2.49.56 3.045 1.13.922 2.815-.784.622-1.615 1.397-1.857 1.693-1.14 1.4-1.936.384-2.186-2.158-.17-1.78.1-2.792 1.52-2.562zm-3.12.24c.405 0 .665.21.657.714-.01.643.452 3.424.71 4.19.45 1.302.123 1.596-.956 1.028-.785-.423-2.865-.744-3.99-.655-1.28.1-1.245-.244-.87-1.32.665-1.906 3.237-3.957 4.45-3.96zm-136.87.93c-.485 0-.505.652-.172 2.155.106.48.518.45 1.294-.096.92-.644.88-1.05-.154-1.67-.427-.255-.745-.39-.966-.39zm5.663.162c.4 0 .72.323.72.724 0 .4-.324.722-.725.722-.4 0-.725-.326-.725-.726 0-.4.324-.725.724-.725zm128.84 2.814c.345.34 1.63.323 1.85.12.34-.314.18-1.767-.1-1.94-.725-.248-2.187 1.282-1.753 1.82zM55.44 163.1c.437 2.07 3.35 1.957 3.02-.203-.19-1.262-.234-1.236.398-1.208 3.006.14 2.485 4.89-.98 4.52-.725.08-.82.38-.21.63s2.938.85 3.297.85c3.77-.013 9.21 5.786 9.08 10.93-.09 3.368 1.05 5.79 2.22 6.065.924.22 2.27-.625 2.153-1.656-.16-1.42.997-.977 1.66.045 1.017 1.41-.293 3.446-2.71 3.287-1.03.2.756.854 2.08 1.236 1.2.066.185 1.544-.038 1.81-.678.785-2.9.183-4.643-1.224-2.14-1.727-3.06-4.042-3.31-8.59-.16-2.924-.38-3.52-1.23-2.313-1.53 2.69-5.19 1.375-5.65-1.466-.256-1.5 1.07-2.59 1.497-1.223 1.132 2.834 3.91 2.153 3.46-.66-.3-1.857-2.157-2.88-5.828-3.915-4.413-1.243-5.725-2.754-6.584-6.37-.38-1.604-.32-2.44.527-3.28.414-.414.95-.835.95-.835s.59 2.435.832 3.563zm115.41-2.297c.403 0 .726.323.726.724 0 .4-.323.723-.724.723-.4 0-.724-.323-.724-.724 0-.402.322-.725.722-.725zm-138.48.688c1.316.48 2.445 1.18 3.8 1.64.88.3.64 1.01-.27 2.01-1.017 1.2-2.014 1.79-3.42 2.457l.013-2.024c1.712-.597 2.8-2.022-.073-2.48zm141.905 1.13c.497.01 1.202.03 2.028.2 2.095.43 2.34.62 1.083 2.09-.467.548-1.16 1.37-1.54 1.83-1.238 1.727-1.905 1.13-2.48-1.093-.717-2.326-.88-3.22.91-3.016zm-135.338.83c.4 0 .724.33.724.73 0 .4-.32.728-.72.728-.4 0-.724-.323-.724-.723 0-.4.325-.724.726-.724zm133.227 1.58c.2.74.503 1.67.734 2.34 1.133 2.507.415 1.538-1.62 1.317-1.37-.15-3.55.08-4.088-.3-.235-.303-.018-1.11.42-2.015.62-1.28 1.742-2.367 2.58-2.862 2.122-.98 1.628.266 1.97 1.527zm-122.315-.89l22.82 30.17-1.79 2.55-23.477-31.02zm143.01.11c-11.866 8.58-16.42 18.98-17.347 20.34l17.39-6.71zm-22.65.99c-.65.18-1.587 1.386-1.186 1.86.24.247 1.197.28 1.656.11.707-.258.225-1.97-.472-1.968zm-100 32.63l-4.86 6.126-25.33-32.76 6.39-4.614zm121.38-31.84l.18 11.26-14.875 6.2c4.98-8.413 9.86-13.615 14.692-17.46zm-101.71.955l5.958 7.756-7.28-.166zm75.333.634c.4 0 .724.323.724.724 0 .4-.32.724-.72.724-.4 0-.725-.324-.725-.724 0-.4.324-.725.724-.725zm4.366 1.835c2.725.034 3.634.182 2.842 1.52-1.057 1.308-1.68 2.55-2.835 3.76-.668.677-1.5-.72-2.196-2.956-.56-1.806-.276-2.26.79-2.276 1.067-.016 1.25-.054 1.397-.05zm-3.147 2.44c.223.712.744 1.885 1.16 2.6.413.717.878 1.51.85 1.65-.07.337-.39.36-1.106.09-1.556-.7-5.205.04-5.3-.303-.544-.773.27-2.88 1.8-4.34.75-.713 1.435-1.176 1.83-1.183.398-.01.47.54.763 1.48zm-127.288-.555l25.77 33.466-1.783 2.17-26.06-34.113s-4.115 2.015-5.325 2.69l.16 17.31-.705-.037.106 87.673 14.38-14.34-.19-59.49c3.053 2.87 5.663 5.93 9.156 8.746l5.98-.047c15.61-15.88 24.16-29.47 26.04-53.807 1.25-16.28-4.16-36.75-18.5-56.592l-3.51 2.13 6.923 10.43-14.66 6.498c-5.84 12.31-12.76 23.67-25.425 30.18l-.07 15.93-.22.33.165 5zm125.996 1.142c-.683.05-1.753 1.527-1.263 2.03.575.276 1.465.257 1.84-.24.253-.482.19-1.51-.58-1.79zm-76.874 3.446l7.564.044-1.98 6.49-7.37-.14zm71.89-.028c.402 0 .725.323.725.724 0 .4-.322.724-.723.724-.4 0-.723-.324-.723-.724 0-.4.323-.724.723-.724zm-38.556.197l.98 8.433c-8.255 3-17.155 8.093-24.94 17.455-1.33-.086-11.945.093-11.945.093.265.038 9.835-18.02 10.937-25.858zm-29.973.787l-3.47 2.385 2.71 2.89 3.592-2.434zm72.23.036c.736-.004 1.725.086 2.52.227 1.28.248 1.466.272 1.034 1.328-.572 1.4-1.87 3.93-2.2 4.13-1.17.728-3.775-4.483-2.89-5.383.24-.185.737-.294 1.537-.298zm-3.32 1.602c.335-.03.782.622.914 1.184.16.683 1.345 2.4 2.09 3.227.94 1.034.89 1.18-.45 1.287-1.597.127-3.157.44-4.056.768-1.393.506-1.582.394-1.404-1.235.27-2.453 1.91-5.146 2.915-5.233zm-1.224 5.073c.174.475 2.336-.4 2.456-.97-.02-.252-.87-1.73-1.38-1.8-.867.137-1.23 2.098-1.08 2.77zm-73.03-.333l7.153.068-2.347 5.894-7.075-.02zm3.202.79l-3.43 2.168 2.67 2.582 3.285-2.264zm72.74 1.07c.61-.007 1.25.05 1.39.274.38.627-1.168 4.124-1.168 4.124l-2.523 1c-.543-1.116-1.47-2.276-1.695-3.485-.09-.53.175-.72.76-1.05.87-.488 2.223-.854 3.235-.864zm-6.75.285c.4 0 .724.325.724.726 0 .4-.327.725-.727.725-.4 0-.724-.323-.724-.723 0-.4.322-.725.723-.725zm-32.62.1s1.545 8.736 1.63 7.77c-11.93 4.496-18.91 11.126-22.215 17.594l-22.384-.015 4.997-7.754 13.25-.067c6.405-7.774 14.307-13.97 24.72-17.53zm-2.866 2.058l-1.11 3.527 3.346 2.133 1.26-3.79zm36.66.066c.285-.025.565.45 1.14 1.474.425.752.984 1.85.984 1.85l-1.002.37c-.804-2.76-1.545-1.733-1.632.7l-1.37.548s.15-2.345.93-3.716c.453-.786.703-1.2.953-1.225zm-72.95 2.41l6.936.09-2.9 6.01-7.053-.195zm30.254.485l-.55 4.46 3.736.79.51-4.237zm-27.305.053l-3.428 2.215 2.25 2.96 3.3-2.21zm21.947 3.905l-.71 4.11 3.504.8.798-4.13zm-76.158.25l8.77 8.692.482 60.65-8.72 8.746zm47.715 2.22c-.03.05 6.996.2 6.996.2l-2.812 5.076-2.403-.108 3.162-2.16-2.028-2.59-3.25 2.12 1.81 2.62-4.745-.1zm45.24 1.5l2.382 7.87-2.862.497-2.152-7.404c.878-.454 1.755-.68 2.633-.963zm-22.5.49l.05 4.72 3.822.325.15-4.425zm19.005.755l2.17 7.477-1.816.518-2.604-7.097c.712-.42 1.457-.73 2.242-.9zm-3.32 1.543l2.8 7.32c-3.87 1.57-7.88 4.926-10.9 8.277-2.24-1.645-3.557-1.817-4.937-2.19 3.806-7.092 8.303-10.816 13.032-13.406zm-42.26 1.837l7.355.22-5.117 7.64-8.32-.01zm21.9.285l-.48 4.47 3.94 2.326.597-4.59zm-4.747.627l-2.8 2.96 2.974 3.392 2.727-3.544zm-6.26.154l-3.326 3.05 2.645 3.45 3.04-3.47zM44.84 206.99l.328 59.25-12.22 11.842-.09-3.187 9.713-10.143c.01-20.04-.053-40.08-.12-60.123zm32.51-1.914l-3.37 4.6 4 .01 2.9-4.453zm-20.805 28.67c-1.33 4.79-7.464 9.98-7.574 9.896 3.037 4.35 2.935 10.557.256 13.614.012-.07 4.88 3.97 5.565 6.07.387.835.54 1.853 1.03 2.683.13.22.54.765.54.765 11.897-12.06 6.23-26.2.186-33.03zm.178 1.256c11.55 14.327 3.937 27.44-.092 31.1l-.77-1.272c8.583-9.972 4.946-22.224-.054-28.025zm-1.25 2.787c.08.233.53.91.195.864l-.58-.113zm-.084 1.6c.25 0 .46.076.572.25.236.39-.957 3.685-1.695 2.92-.222-.438-.484-.815-.688-1.266-.24-.535-.085-.795.466-1.33.38-.37.923-.573 1.342-.574zm1.66.89c.582.046 1.412 1.884 1.49 3.196.035.137-1.97-.31-2.506-.922.067-.534.57-1.902 1.016-2.27zm-4.52 1.5c3.48 6.99 3.26 12.45.2 17.473l-2.4-2.05c1.613-3.82 2.41-7.895-.305-13.083zm2.346 1.75c.24-.02.983.09 1.64.3 2.328.743 2.415 2.265.175 3.38-.93.46-1.22.257-1.752-2.07-.264-1.153-.463-1.58-.062-1.613zm4.494 2.678c.45 0 .653.847.71 2.31.05 1.387-.246 1.496-1.36.505-1.21-1.07-1.42-1.326-.31-2.207.32-.257.754-.607.96-.61zM56.2 248.5c.22-.02.86.39 1.49.87 1.59 1.21 1.24 2.044-.57 2.63-1.25.407-1.19.458-1.16-1.71.016-1.07-.048-1.764.236-1.79zm21.06 1.973c-1.943.492-2.76 2.225-2.115 3.784.293.71.74.714.216 1.148-.58.673-.89 2.23-.25 2.798.758.435.95-.312.155 1.15l-14.63 26.874 87.814-.163-10.55-19.77c.024-.03.844-3.26-.844-3.65-.543-.126-.853-.63-.963-1.112.14-1.374-.485-1.96-1.01-2.67-8.348 1.18-15.6.593-21.59-.755-8.627-1.94-14.794-5.3-18.804-6.353-5.53-1.457-12.207-2.09-17.426-1.28zm4.73.185c6.803-.04 14.42 2.04 19.75 4.35 5.53 2.282 11.39 3.984 17.31 4.86 4.885.613 9.76.304 14.43-.067.51-.074 1.04-.004 1.42.4.97 1.077.31 1.75-2.114 1.975-3.89.32-8.714.184-12.993-.46-6.776-.78-13.96-2.825-20.157-5.394-7.747-2.906-14.86-3.88-20.48-3.02-3.088.47-3.54.544-3.53-.286.024-1.618 1.363-2.357 6.362-2.355zm-22.296 4.69c-.3.685-2.416-1.558-2.395-2.19.042-.28 1.755-1.398 2.435-1.85.33-.255.308-.124.31.173.014.847-.053 3.03-.353 3.87zm-3.26-1.655c.977.13 2.583 2.767 1.17 3.176-1.253.36-2.39.593-2.544-.247.644-2.062.887-2.88 1.26-2.925.037-.006.077-.007.115-.006zm56.787 9.003c6.235 1.08 14.417 1.725 19.764 1.307 3.065-.308 3.71-.21 3.692 1.07-.013.8.075.78-3.88.776-3.29.22-6.25-.137-9.434-.3-6.585-.328-12.57-1.457-18.1-3.376-6.134-1.593-11.45-4.65-17.453-5.28-5.507-.54-10.46.433-11.498 1.01-.35-.005-.53-.52-.51-.993.02-.46.192-.833.58-1.13 15.78-3.98 24.23 4.547 36.835 6.916zM58.5 257.42c.525.006.357.784-.503 2.433-.73 1.4-1.02 1.394-1.433-.044-.442-1.54-.4-1.71.478-1.93.517-.128.953-.397 1.458-.46zm-3.684.782c.615.01 1.49 2.8 1.042 3.325-.36.417-1.64.135-2.017-.355-.6-.79.17-2.98.97-2.97zm27.59.753c2.446-.026 4.885.235 7.13.62-1.293.478-2.578.92-3.92 1.694-.925-.8-1.98-1.57-3.212-2.32zm3.18 3.386c8.65-4.823 12.302 1.836 13.552 2.91 7.56-1.674 9.04-.85 13.26 3.71 7.573-3.704 11.244-.56 14.405 1.435 3.71-3.464 8.41-3.56 10.86-1.82.46.766 1.098 1.74 1.15 2.03.04.225-.306-.038-1.16-.648-4.446-3.182-11.827.78-9.855 4.977.53 1.13.448 1.617-.346 2.07-1.13.763-2.515-.503-1.73-1.795 1.313-2.16.325-3.966-2.866-5.634-4.5-2.35-11.848.284-10.336 3.75.967 1.11.07 1.89-1.207 1.85-1.446-.045-1.936-1.013-1.01-2.047 1.158-1.32.854-2.66-.494-4.185-4.04-5.753-12.21-3.472-11.13 1.57.473 1.25-.877 1.757-2.28 1.2-.893-.354-.76-1.733.217-2.22 1.123-.114 1.283-1.74 1.15-2.785-.196-1.52-2.438-3.02-4.655-3.813-1.603-.575-3.094-.698-4.27-.59-2.484.227-3.87 1.913-3.46 4.44.24 1.49-.177 3.037-1.927 2.217-.96-.45-.718-1.53.26-2.53 3.44-3.36-3.485-7.443-7.665-4.63-.71.585-1.226.686-1.226.686 2.62-6.526 10.83-.415 10.752-.148zm11.392-.88l5.22 1.968c-1.205.238-2.054.578-2.907.916zm-13.64 2.12c-4.82-.91-5.086 4.475-1.94 5.35-4.326 5.94 6.992 8.246 4.915.92 5.735 1.03 4.698-5.494.433-5.434 1-2.432 8.87-.59 8.533 1.217-5.326.567-3.2 5.415-.896 5.42-5.565 5.27 5.57 10.126 5.276 2.184 4.47.94 4.995-4.992.7-5.382 1.573-2.21 7.19-.816 8.748 1.715-4.43.587-4.154 4.482-.685 5.11-4.397 5.6 6.426 7.668 5.3 1.16 3.88 1.33 6.007-3.842.983-5.32 5.15-3.066 10.735 1.504 10.13 1.597-5.87-.348-4.704 5.538-.454 5.218-2.704 6.11 8.012 6.453 5.294.114 4.82.09 4.4-5.498-.22-5.87 2.91-2.12 6.188-2.307 8.297-.32-4.395 1.153-2.57 6.26 1.852 4.846.41 4.274 3.882 3.368 3.96 3.24l3.11 5.8-84.26.135 7.192-13.272c4.25.217 4.097-3.875 3.91-3.975 2.827 2.018 5.866-2.998 1.73-4.436 3.38-3.536 8.39-.27 8.09-.017zm-27.43-.37c-.178.18-.22.29-.51.02-.738-.84 1.26-.91.51-.02zm17.42 2.225c.37.304.116 1.136-.185 1.42-.76.814-1.016.75-.347-.655.2-.427.386-.77.535-.767zm36.915.376l4.38 1.06-2.08 1.17c-.767-.837-1.507-1.56-2.3-2.235zm13.692 1.76l4.763.304c-.63.428-1.246.826-2.016 1.607-.6-.636-1.736-1.273-2.747-1.91zm15.87 4.86c.266.55 1.318 2.47 1.22 2.523-1.54.27-1.955-2.024-1.22-2.524z" fill="#100f08"/></svg>