<svg xmlns="http://www.w3.org/2000/svg" width="224.225" height="312.808"><path d="M34.26 57.844c9.92-9.682 16.436-20.238 22.667-30.39 5.464 11.17 13.306 20.943 21.786 30.39-9.073 9.368-16.105 19.386-21.76 29.917C50.687 76.97 44.09 67.19 34.26 57.85zm0 98.893c9.92-9.68 16.436-20.237 22.667-30.39 5.464 11.17 13.306 20.944 21.786 30.39-9.073 9.37-16.105 19.386-21.76 29.918-6.267-10.796-12.865-20.572-22.693-29.918zm0 98.6c9.92-9.683 16.436-20.24 22.667-30.39 5.464 11.17 13.306 20.942 21.786 30.39-9.073 9.367-16.105 19.385-21.76 29.917-6.267-10.796-12.865-20.572-22.693-29.918zM145.793 57.843c9.92-9.682 16.436-20.238 22.667-30.39 5.464 11.17 13.306 20.943 21.786 30.39-9.073 9.368-16.105 19.386-21.76 29.917-6.267-10.793-12.865-20.57-22.693-29.915zm0 98.893c9.92-9.68 16.436-20.237 22.667-30.39 5.464 11.17 13.306 20.944 21.786 30.39-9.073 9.37-16.105 19.386-21.76 29.918-6.267-10.796-12.865-20.572-22.693-29.918zm0 98.6c9.92-9.683 16.436-20.24 22.667-30.39 5.464 11.17 13.306 20.942 21.786 30.39-9.073 9.367-16.105 19.385-21.76 29.917-6.267-10.796-12.865-20.572-22.693-29.918zm51.737-7.01c4.065-3.967 6.734-8.29 9.287-12.45 2.238 4.577 5.45 8.58 8.924 12.45-3.71 3.837-6.59 7.94-8.91 12.255-2.57-4.42-5.27-8.42-9.29-12.25zM8.716 62.47c4.064-3.967 6.733-8.29 9.286-12.45 2.238 4.576 5.45 8.58 8.924 12.45-3.717 3.837-6.597 7.94-8.913 12.254-2.568-4.422-5.27-8.427-9.297-12.255zm.022-25.97c-.408-2.748-.402-9.846-.066-11.944 1.03-6.428 3.532-9.368 7.723-10.332 4.068-.936 9.79.106 11.044 5.482l-3.41.063c-1.84-3.64-6.5-2.67-9.12-1.09-2.096 1.26-3.04 6.52-2.636 6.84-.003 0 3.957-2.877 7.075-2.665 6.67.682 9.42 6.356 9.186 11.72-.21 6.45-2.295 11.6-9.36 11.945-6.72-.253-9.8-3.85-10.445-10.03zm16.57-1.706c.038-4.475-2.033-7.823-5.95-8.193-3.915-.36-7.862 3.39-7.59 7.95.275 4.58 2.08 8.43 6.827 8.41 5.106-.02 6.687-4.973 6.714-8.16zm190.18 241.516c.407 2.746.4 9.844.065 11.94-1.03 6.43-3.532 9.37-7.723 10.334-4.068.936-9.79-.106-11.044-5.482l3.407-.063c1.84 3.63 6.495 2.66 9.115 1.08 2.094-1.26 3.04-6.52 2.634-6.85.003 0-3.957 2.876-7.075 2.664-6.67-.68-9.418-6.356-9.186-11.72.22-6.448 2.3-11.6 9.37-11.945 6.72.253 9.8 3.85 10.446 10.03zm-16.57 1.704c-.04 4.475 2.032 7.823 5.95 8.192 3.914.37 7.86-3.38 7.59-7.942-.276-4.577-2.08-8.432-6.828-8.41-5.106.022-6.687 4.976-6.714 8.16z" fill="#d40000"/></svg>