<svg xmlns="http://www.w3.org/2000/svg" height="312.808" width="224.225"><path d="M35.32 55.545c9.92-9.682 16.435-20.237 22.666-30.39 5.464 11.17 13.306 20.943 21.786 30.39-9.073 9.368-16.105 19.386-21.76 29.918C51.746 74.667 45.148 64.89 35.32 55.545zm0 198.847c9.92-9.682 16.435-20.237 22.666-30.39 5.464 11.17 13.306 20.943 21.786 30.39-9.073 9.37-16.105 19.386-21.76 29.918-6.267-10.796-12.865-20.572-22.693-29.918zM146.85 55.545c9.922-9.682 16.438-20.237 22.67-30.39 5.463 11.17 13.304 20.943 21.785 30.39-9.073 9.368-16.105 19.386-21.76 29.918-6.267-10.796-12.865-20.572-22.694-29.918zm0 198.847c9.922-9.682 16.438-20.237 22.67-30.39 5.463 11.17 13.304 20.943 21.785 30.39-9.073 9.37-16.105 19.386-21.76 29.918-6.267-10.796-12.865-20.572-22.694-29.918zm49.19-5.19c4.064-3.966 6.733-8.29 9.286-12.448 2.238 4.575 5.45 8.578 8.924 12.448-3.716 3.838-6.597 7.942-8.913 12.256-2.567-4.423-5.27-8.427-9.296-12.256zM8.822 64.09c4.064-3.966 6.733-8.29 9.285-12.45 2.24 4.577 5.45 8.58 8.925 12.45-3.717 3.837-6.598 7.94-8.914 12.255-2.567-4.422-5.27-8.427-9.296-12.255zm9.512-17.218V44.06h2.585v-4.637H7.99v-3.27l13.985-21.1 2.284.01v21.09h3.954v3.27H24.26l-.075 4.636h2.167v2.81zm2.585-24.097l-8.88 13.377h8.88zm184.97 243.16v2.814h-2.586v4.632h12.925v3.27l-13.984 21.1-2.285-.01v-21.09h-3.952v-3.27h3.952l.077-4.636h-2.168v-2.814zm-2.586 24.098l8.88-13.377h-8.88z" fill="#d40000"/></svg>