<svg xmlns="http://www.w3.org/2000/svg" width="224.225" height="312.808"><path d="M34.377 57.403c9.92-9.682 16.436-20.238 22.667-30.39 5.464 11.17 13.306 20.943 21.786 30.39C69.757 66.77 62.725 76.79 57.07 87.32c-6.267-10.795-12.865-20.57-22.693-29.917zm0 196.65c9.92-9.68 16.436-20.236 22.667-30.39 5.464 11.17 13.306 20.945 21.786 30.39-9.073 9.37-16.105 19.387-21.76 29.92-6.267-10.797-12.865-20.573-22.693-29.92zm110.68-196.65c9.92-9.682 16.437-20.238 22.668-30.39 5.465 11.17 13.306 20.943 21.786 30.39-9.07 9.368-16.1 19.386-21.75 29.917-6.266-10.795-12.865-20.57-22.693-29.917zm-55.242 99.262c9.92-9.68 16.436-20.237 22.667-30.39 5.465 11.17 13.306 20.943 21.787 30.39-9.08 9.37-16.11 19.386-21.76 29.918-6.27-10.796-12.87-20.572-22.7-29.918zm55.243 97.39c9.92-9.68 16.436-20.238 22.667-30.39 5.465 11.17 13.306 20.943 21.786 30.39-9.07 9.37-16.1 19.385-21.75 29.917-6.266-10.796-12.865-20.572-22.693-29.918zm51.227-4.505c4.064-3.966 6.733-8.29 9.286-12.45 2.24 4.577 5.45 8.58 8.93 12.45-3.713 3.837-6.593 7.94-8.91 12.255-2.57-4.422-5.27-8.427-9.296-12.255zM9.578 63.692c4.063-3.966 6.732-8.29 9.285-12.45 2.238 4.577 5.45 8.58 8.924 12.45-3.716 3.838-6.597 7.942-8.913 12.256-2.567-4.423-5.27-8.427-9.296-12.256zm-.9-25.656l3.22-.028c.612 1.944 1.972 3.926 3.817 4.473 5.21 1.23 8.567-1.68 9.672-5.04 1.34-4.07-.03-9.792-3.617-11.83-2.976-1.68-7.395-.26-9.422 3.34l-2.258-1.38 1.212-13.42h14.73v3.17H14.095l-.188 5.59c2.566-1.8 6.518-1.78 9.086-.52 4.864 2.32 7.124 7.597 6.177 13.81-1.31 6.187-4.198 9.69-10.718 10.19-7.244.06-9.803-4.92-9.774-8.35zm206.87 236.736l-3.22.028c-.613-1.944-1.973-3.926-3.818-4.474-5.21-1.223-8.567 1.688-9.672 5.047-1.34 4.074.03 9.796 3.617 11.828 2.976 1.69 7.395.27 9.422-3.33l2.258 1.38-1.212 13.42h-14.73v-3.17h11.938l.19-5.59c-2.56 1.8-6.52 1.784-9.08.52-4.863-2.32-7.123-7.593-6.176-13.81 1.31-6.183 4.198-9.686 10.718-10.19 7.245-.06 9.804 4.92 9.776 8.35z" fill="#d40000"/></svg>