<svg xmlns="http://www.w3.org/2000/svg" width="224.225" height="312.808"><title>Vectorized Playing Cards 1.0</title><path d="M31.46 288.51l-.508-263.005 163.133.307.204 262.595zM89.944 69.358c-5.834-1.59-5.693 4.205-1.42 4.42 4.786.413 6.835-7.745 4.55-10.96 0 0-1.99 6.145-3.13 6.54zM52.086 102.12l-7.007 3.125-.03 5.23c2.92-2.323 5.2-5.158 7.03-8.356zM99.91 259.277c-1.38-.696-3.04-2.19-2.786-2.454.126-.13.873.106 1.55.41 5.476 2.308 9.727 2.16 16.256-.21.494-.18 1.232.762.957 1.28-2.89 4.276-12.248 2.756-15.977.974zm-2.887-6.418c-1.257-1.89.41-.46.97.08 4.05 3.76 9.54 5.04 14.252 1.49.22-.25.248-.47.183-.64-.133-.35-.136.02-2.15.72-4.523 1.69-8.334.3-12.05-2.54-1.53-1.18-2.243-1.76-2.243-2.07 0-.288.286-.46.8-.37.32.05 1.21.24 1.862.29 1.13.09 1.044.042 2.204-.49 2.48-1.147 4.77-1.56 7.35-1.1.6.107 1.36.305 1.46.27.58-.19-.27-.956-2.47-2.696-.43-.344-.97-.637-1.142-.934-.276-.46.025-.584.338-.58.903.01 4.958 3.4 6.348 5.41.423.614.716.68.717 1.315-.08.66-.186 1.295.53 2.22.51.664 1.01 1.73 1.013 1.783.004.06-.103.392-.573.082-.215-.04-.32-.268-.71-.212-.34.05-.897.32-1.506.608-5.68 3.65-10.91 1.87-15.17-2.644zm12.445-.26c.114.01-.392-2.09-.964-2.71-1.128-1.22-2.848-1.446-3.888-.196-.585.703-1.227 2.663-1.227 2.663s.91.27 1.16.27c.03-.44.04-1.668.94-2.388.443-.35 1.402-.34 1.775-.05.742.363 1.055 1.836 1.065 2.41.405.125 1.34.01 1.13-.004zm-6.868-3.03c-.8.356-1.842.597-2.08 1.133-.316.707.796.92 1.375 1.16.8.385.818.244 1.077-.373.162-.384.375-.887.58-1.35.597-1.155 0-.995-.952-.57zm8.667 2.01c.46-.46.548-.766.137-1.29-.187-.236-.718-.478-1.296-.67-.742-.25-1.066-.554-.6.45l.665 1.437c.342.69.642.504 1.094.072zM35.47 202.53c.282 0 3.078-.917 4.073-1.36.986-.376 1.104-.365.712-.91-.147-.206-.266-.782-.195-1.414l.075-.88c-1.723-.35-4.296.604-5.182 1.81-.63.77-.565 2.483.517 2.756zm-.35 4.3c.523.523.668.54 2.24-.04.55-.37 1.7-.83 2.507-.882 1.893-.504 1.894-.305 1.358-1.517-.247-.556-.328-1.02-.25-1.533.09-.61.164-.694-.18-.8-.906-.285-5.118 1.29-5.873 2.516-.53.862-.46 1.6.197 2.26zm98.916 37.21c-.275.41-.752 1.14-.953 1.633-.346.85-.136 1.013.002 2.683.08.97.1 2.47.104 3.28 0 1.55-.02 2.03.45 2.12.412.08.603-.234.803-1.04.1-.4.34-.823.412-1.08.296-1.74.846-4.643 2.1-5.864.174-.144.684-.234 1.61-.246 1.133-.013 1.495-.045 1.846-.31 1.984-1.733.42-3.975-1.35-4.132-2.05-.178-4.87 2.65-5.034 2.96zm7.87-.727c.127 1.994-1.862 3.354-3.884 2.892-.82-.207-1.066-.02-1.615 1.15-1.192 3.21-1.664 6.426-1.98 8.532-.137 1.893-.832 6.823-.33 8.394 5.764 7.124 11.832 14.477 18.475 21.807l39.51.054.24-46.514-11.476-10.853.022-17.208c-12.284 5.787-24.53 11.655-36.792 17.494 2.672 8.57-6.387 10.364-8.374 4.62-1.72 1.58-3.13 10.085-2.495 10.505 0 0 .228.307.61-.37.626-1.114 1.445-1.935 2.322-2.478 2.55-1.582 5.59-.802 5.76 1.97zm-31.447-.87c-1.94-1.54-.9-3.89.71-4.596.85-.373 2.22-.32 3.73.21 1.32.61 2.11.523 3.47.355.9-.1.73 1.785-.21 2.272-.664.34-2.185.18-4.034-.875-3.19-1.82-4.59.535-2.615 2.66 1.095 1.17-.78.233-1.06-.032zM44.78 214.28c1.705-1.098.997-3.033-.592-3.357-2.138.046-2.682 2.502-1.152 3.35 0 .3-.76.055-1.172-.253-.638-.477-.056-2.344-.65-2.42-.452.01-4.87 1.57-5.346 1.884-1.985 1.127-.122 3.67 1.03 3.38 2.393-.605 5.645-1.142 7.883-2.582zm-9.875-3.633c.04 1.132.358 1.635 1.102 1.646 1.553-.27 3-1.01 4.45-1.48 1.135-.37 1.595-.79.73-1.498-.26-.3-.493-.73-.366-1.546.3-.94.07-.98-.32-1.03-.394-.05-1.296.33-3.61 1.22-1.22.47-1.453.67-1.77 1.34-.14.51-.23.83-.21 1.34zm12.88 14.615c.27-.315.863-2.288.863-2.776-.12-.813-.724-.997-1.26-.472-.65.582-.474 1.46-.86 2.135-.135.23-.277.56-.238.69.21.71 1.083.84 1.497.42zm5.07-10.745c19.8-21.088 32.066-50.268 10.608-90.514-2.407-1.024-3.15 2.888-3.38 3.048l-2.742 2.39c14.53 25.05 12.01 53.86-5.75 74.35l.02 1.3c.04 2.86.866 2.74 2.07 1.4 1.274-1.34.42-.25-.1.308-.45.476-1.163 1.424-1.353 1.67.234 1.717 1.315 4.916.635 6.06zm-1.315-6.337c-.204-.57-.42-1.87-.53-2.872-.07-.652-.097-1.268-.13-1.905-.21-1.267-.728-4.175-1.148-4.816-.453-.69-1.56-1.197-2.795-1.276-1.056-.06-1.144-.05-1.37.3-.385.59-.12 3.57.27 4.66.444 1.28.185 1.98-.174 3.25-.125.458-.17.49.056.52.98-.07 1.31-1.28 1.7-.92.132.134-.21 1.128-.67 2.13-.488 1.06-.633 2.52-.054 4.32.323 1.006.186 1.324-.01 1.93-.13.404-.36 1.647-.367 2.883.46 1.55.227 2.244-.044 2.757-.59 1.31-1.044 3.094-.727 4.1.14.434.5.06.77-.69.412-1.49.9-1.82 2.12-1.82.886 0 .97.31 1.264-.09.664-.9 2.293-4.1 2.324-4.99.63-2.272.66-4.224-.5-7.47zm9.47 14.928c.537-.205 1.365-1.343 1.366-1.735 0-.43-3.32-3.66-4.704-4.55-.626-.404-.924-.118-2.03 1.372-.985 1.325-1.114 1.336-.93 1.59.22.308 3.602 2.507 4.725 3.132.39.216 1.047.39 1.57.192zm6.22-5.747c-.494-.38-4.467-4.78-5.647-5-.448-.08-1.885 1.558-1.885 1.93 0 .255 2.482 2.78 4.24 4.315.502.44 1.057.797 1.232.797.56-.286 1.99-1.443 2.062-2.033zm4.223-4.15c0-.26-.438-.8-1.508-1.85-2.725-2.672-4.243-3.9-4.72-3.893-.523.173-1.466 1.76-1.523 2.313.178.332 4.736 4.466 5.326 4.867.73.704 2.324-.935 2.426-1.433zm4.275-4.27c.117-.39-.11-.724-.688-1.28-.41-.39-1.862-1.812-3.23-3.16-2.866-2.823-2.872-2.826-3.793-1.506-.95 1.36-.945 1.37 1.85 4.095 2.98 2.907 3.676 3.496 4.14 3.496.705-.325 1.475-.87 1.72-1.64zm-31.948-2.55c-.5-.15-.956-.06-1.35.25-2.11 1.8.886 4.11 2.118 2.67.82-.81.784-2.55-.768-2.917zm36.336-1.88c0-.3-.615-.972-2.745-3.01-5.27-5.03-5.03-4.84-5.61-4.523-.365.196-1.073 1.548-1.073 2.05 0 .377.508.9 4.414 4.547 2.29 2.137 2.968 2.677 3.36 2.677.626-.31 1.634-.98 1.66-1.74zm-36.2.19c1.035-.45 1.228-1.57.64-2.453-1.124-.99-2.69-.17-2.715 1.108.2 1.2 1.21 1.707 2.08 1.35zm40.53-4.41c0-.6-9.023-9.04-9.665-9.04-.43 0-.75.352-1.15 1.31-.357.827-.32 1.32.127 1.75.653.625 2.39 2.23 4.046 3.726.978.886 2.103 1.943 2.5 2.35.927.953 1.95 1.69 2.34 1.69.56-.326 1.336-.77 1.81-1.787zm-41.003-1.09c.01-.34-.078-.686-.32-.944-.62-.658-1.772-.31-2.06.562-.264 2.055 2.296 2.146 2.38.382zm6.684-65.68l1.765-5.4 5.393-.14.756-5.366 5.55-.8.09-5.54 5.31-.726-.33-5.936 4.93-1.164-.243-5.495 4.476-1.37-.18-4.782.77-.6-1.935-1.97-1.666.54-.03 4.918-4.47 1.438.47 5.44-4.515 1.03-.06 5.915-5.19.58-.37 5.22-5.06.995-.755 5.11-4.913.334-1.5 4.49-3.245.037v3.006zm58.673 96.54c-.17-.406.275-.345 1.046.142.807.51 1.98.934 2.816.936.35 0 1.594-.222 2.766-.494 1.4-.513 2.644-.544 4.1-.23 1.08.146 2.17.264 2.42.262.723.1 1.948-.792 2.276-1.353.89-1.522.678 1.243.682 1.56.016 1.415.193 3.043-.82 2.286-.602-.31-1.65-.59-2.486-.03-.843.56-1.54.68-2.526.09-.81-.32-1.238-.39-1.844.17-.675.63-2.313.4-3.19.113-1.51-.25-2.353-.47-3.364.33-.54.31-.678.08-1.084-1.116s-.727-2.528-.79-2.677zm3.84-1c-.095-.154.715-.947 1.26-1.23 1.606-.83 4.794-.793 7.074.05 1.188.438 1.37 1.19.215 1.03-2.41-.503-5.43-.918-7.75.188-.18.098-.76.035-.8-.038zm2.036-3.757c-1.645-.61-2.452-1.26-2.452-1.468 0-.223.352-.18 1.646.17 1.76.655 3.844 1 5.582.39 1.25-.46 1.874-.754 1.874-.476 0 .29-.516 1.06-1.375 1.5-1.71.69-3.96.36-5.27-.12zm35.708-4.57l1.22-.167-.423-5.095 4.5-1.33-.31-5.06 4.794-1.65-.286-5.7 4.98-.98.65-4.994 4.703-.335.974-5.43 5.05-.172 1.04-4.514 3.36-.02-.014-2.535-5.236.015-1.11 4.884-4.94.142-1.05 5.368-5.18-.04-.66 5.784-4.87.8.004 6.228-4.7 1.22.365 5.324-4.694 1.714.53 5.084zm31.396-119.54c-.672.478-.927 1.426-.72 2.198.663 1.75 2.992 1.21 3.267-.06.138-.55-.228-1.38-.864-1.562-.11-.032-.506.005-.712-.207-.14-.153.78-.63 1.33-.45.68.226 1.24 1.127 1.24 1.908 0 .304-.082.753.028.904 1.127-.03 2.417-.65 3.624-.982 2.04-.564 2.78-1.734 2.326-3.105-.38-1.14-1.548-1.593-3.084-1.015-2.11.794-4.583 1.173-6.43 2.387zM94.65 226.267c6.91-4.855 10.98-7.63 19.85-8.11-3.164-1.3-3.68-3.01-4.57-4.647-10.99 1.04-16.823 4.547-22.043 7.823 2.157 1.016 4.41 2.197 6.763 4.934zm38.522-6.734c-3.352-2.37-7.34-3.8-11.476-4.906l-3.17 3.285c-.186-.117 9.18.094 14.646 1.62zm32.176-31.165c-21.614-33.212-7.095-62.438 7.934-81.06.483-.61.6-.642.49-1.128-.142-.64-.32-3.868-.21-5.733-27.78 27.532-28.492 63.4-11.067 91.867 1.246-1.114 3.758-2.596 2.853-3.946zm3.24-2.84c-3.547-5.91-22.444-37.902 6.42-73.593 0 0-.1-1.82-.315-2.504-.387-1.22-.99-1.71-.99-1.71-12.123 18.2-29.742 40.97-7.736 80.515zm-16.525-60.214c.432-.353 1.06-1.633 1.06-2.16 0-.473-.34-.866-3.597-4.17-4.34-4.404-5.09-5.077-5.645-5.077-.52 0-1.89 1.3-1.89 1.797 0 .238 1.28 1.614 4.29 4.624 5.6 5.584 5.33 5.356 5.79 4.986zm3.998-8.11c0-.267-.4-.793-1.35-1.772-2.51-2.582-6.09-5.856-6.4-5.856-.4 0-1.49.886-1.78 1.442-.2.392-.2.48.04.85.445.693 6.044 6.007 7.635 7.343.955.88 1.82-1.34 1.866-2zm2.17-3.297c.447-.237 1.288-1.81 1.187-2.21-.05-.19-1.47-1.717-3.156-3.397-3.34-3.324-3.535-3.444-4.367-2.7-.754.675-1.226 1.35-1.133 1.62.11.332 5.11 5.415 6.133 6.238.81.65.9.683 1.34.45zm25.49-.246c1.57-1.5-.21-3.16-1.5-2.39-.55.34-.877 1.08-.71 1.577.28.818 1.39 1.264 2.212.823zm3.11-.38c2.657-.7 3.93-1.16 4.486-1.99.385-.57.43-.922-.004-1.86-.4-.86-.867-1.123-2.53-.21-1.144.626-3.69.926-4.58 1.452-.356.307-.182.303.104.485.64.408.952.685.882 1.223-.15 1.17-.03 1.35 1.64.907zm-2.81-4.16c1.29-.66 1.03-2.252-.414-2.885-1.902-.5-3.126 1.79-1.57 2.904.418.292 1.476.24 1.98-.018zm4.285-.645c1.865-.64 2.58-1.14 3.12-2.17.427-.817.245-1.182.19-1.972-.087-1.197-.69-1.06-2.427-.433-.85.33-4.91 1.47-4.967 1.887 1.96 1.12 1.46 1.71 1.477 3.14.102.33 1.022.095 2.607-.45zm-25.43-1.907c0-.54-5.21-5.645-5.763-5.645-.86 0-2.094 1.34-1.91 2.074.084.334 4.97 5.253 5.58 5.618.855.5 2.04-1.23 2.09-2.044zm2.997-3.182c.225-.175.623-.632.886-1.014.56-.817.52-1.272-.15-1.703-.246-.16-1.34-1.15-2.43-2.2-1.09-1.05-2.12-1.963-2.293-2.026-.9-.12-2.524 1.32-2.356 2.058.097.388 4.092 4.32 4.983 4.91.576.38.853.374 1.358-.024zm7.058-7.603c0-.144-.906-.727-2.36-1.516-4.436-2.414-4.512-2.43-5.9-1.3-.475.39-.865.83-.865.98 0 .154.96 1.186 2.19 2.346 2.542 2.407 3.17 2.927 3.523 2.927.733-.54 3.297-2.773 3.41-3.44zm6.214-2.266c.55-.658 1.165-2.93.87-3.39-.27-.27-.96-.228-1.29.072-.34.31-1.186 3.17-1.056 3.506.134.343 1.005.18 1.48-.19zm-48.49 96.8c.42-.057 1.244-.57 2.44-1.598 1.28-1.097 5.33-3.54 5.77-4.523.196-.56.05-1.36-.37-1.42-.32-.047-.39.2-3.082 2.14-1.815 1.31-5.007 3.65-5.487 4.146-.21.53.26 1.2.73 1.255zm-.375 15.643c2.772-1.924 5.02-3.917 8.632-6.144.28-.37.32-.92.15-1.365-.21-.553-.5-.335-1.595.425-2.663 1.79-5.403 3.905-7.7 5.472-.734.5-1.354.775-1.2 1.055.208.37 1.346.484 1.713.55zm2.696 1.18c1.82-1.49 4.004-2.916 5.95-4.358.27-.273.343-1.19.063-1.567-.22-.297-.04-.243-.58.063-.787.448-5.503 3.663-6.38 4.39-.513.423-.94.635-.813.783.59.38 1.217.61 1.758.686zm2.29 1.155c.377-.256 3.62-2.328 3.88-2.6.3-.318.21-1.728-.08-1.84-.82.654-5.142 3.287-5.15 3.71.44.397 1.02.76 1.35.73zm3.466.285c.5-.456.598-.533.61-1.045.02-.923-.21-.883-1.53.06-.924.596-1.485 1.016-1.32 1.373.656 1.026 1.585.218 2.24-.384zm.358 1.892c.26-.1.26-.23.224-.556-.04-.36-.093-.344-.485-.344-1.05.04-.103.99.262.9zm-12.62-5.185c.477-1.573 1.144-2.817 2.235-3.996 4.36-3.863 3.027-8.62.274-12.49 3.56-4.99 7.12-10.27 10.18-15.112l-.01-7.87.41.043c-.143 17.176.64 45.34.64 45.34l3.54 2.7-.476.236c.582-.09-10.313-6.91-16.798-8.85zm3.202-1.962c3.014-2.274 5.948-4.064 8.938-6.49.318-.26.506-.274.515-.87.016-1.133-.21-1.145-1.327-.345-.493.354-2.31 1.622-4.03 2.784-1.794 1.21-3.46 2.29-3.792 2.677-1.683 1.95-2.304 2.87-2.132 3.15.18.29.522-.023 1.83-.905zm3.288-5.514c1.55-1.02 5.257-3.6 5.595-3.915.586-.55.69-1.43.16-1.532-.26-.05-3.13 1.864-5.556 3.7-1.18.897-1.444 1.104-1.444 1.948 0 .51.31.414 1.24-.2zm1.545-4.01c4.75-3.38 4.63-3.094 4.525-4.35-.037-.43-.13-.62-.32-.655-.148-.027-.987.576-1.933 1.24-.944.667-2.07 1.56-2.637 1.95-1.65 1.148-2.2 1.456-2.2 2.113 0 .646.176 1.054.46 1.054.11 0 1.055-.61 2.1-1.35zm-.683-2.62c2.19-1.544 4.6-3.29 4.93-3.702.4-.503.328-1.598-.18-1.598-2.197 1.466-4.84 3.395-6.698 4.92-.24.21-.547.413-.64.69-.02.356.43.83.61.843.36 0 .916-.406 1.98-1.157zm-1.423-5.23c1.67-1.13 3.19-2.48 4.85-3.62 1.246-.852 1.6-1.12 1.525-2.19-.044-.62-.588-.26-2.7 1.145-1.547 1.032-2.26 1.44-2.808 2.145-.382.89-1.652 1.725-1.72 2.743 0 .377.25.198.854-.223zm5.13-6.803c1.283-.85 1.404-.87 1.265-2-.175-1.414-.32-1.33-1.547.542-.806 1.23-1.083 1.59-.96 1.817.21.39.44.17 1.24-.36zm-4.675-10.4c-.137-.63-.33-.494-.976.073-1.19 1.043-1.377 1.8-.637 2.195.394.21.7.186.933-.33.502-1.11.643-1.503.68-1.94zm-6.66 9.88c-.153-.575-.855-1.357-1.39-1.63-.53-.277-.85-.226-1.356.42-.467.59-.25.942.45 1.83.51.65.72.854 1.124.854.49-.193 1.27-.85 1.17-1.476zM100.42 203.4c-.34-.656-1.06-1.347-1.39-1.232-.35.124-.69.626-.697.94.145.645.688 1.08 1.106 1.093.784-.11 1.263-.243.98-.8zm3.14-1c-.68-.715-2.02-2.294-2.24-2.294-.342 0-1.162.86-1.162 1.214 0 .416 1.222 2.126 1.63 2.263 1.026-.095 2.913.02 1.773-1.183zm3.88.2c-.07-.344-3.89-4.406-4.173-4.406-.364 0-1.083.8-1.083 1.17 0 .294 1.233 1.903 2.374 3.094.567.594.62.68 1.313.57.76-.117 1.75.047 1.57-.427zm6.75-.906c0-.82-.43-1.27-2.153-3.137-.625-.677-1.683-1.854-2.35-2.615-1.29-1.47-1.84-1.922-2.355-1.923-.402 0-1.024.654-1.024 1.074 0 .27 3.175 3.91 6.05 7 .64.686.925.886 1.537.56.353-.24.3-.647.3-.96zm-4.97-9.753c-.646.53-.886.75-.89 1.107-.004.54 5.477 6.56 5.965 6.56.286 0 .242-.04.412-.687.34-1.967-.194-2.544-1.614-3.84-.953-.87-2.873-3.86-3.874-3.138zm9.664-4.023c-1.53-1.83-2.376-2.67-2.686-2.67-.213 0-.53.203-.874.583-.573.54-.518.52-.156 1.163.188.336.714.994 1.17 1.464.842.87 1.274 1.147 1.68.73.36-.37 1.247-.806.865-1.27zm-.798-4.566c-.374-.004-1 .67-1 1.035 0 .31 1.24 1.863 2.106 2.64.7.626 1.03.795 1.52.38.366-.53.283-1.01.056-1.415-.62-.708-1.974-2.61-2.68-2.64zm4.3.45c-.01-.535-1.576-2.57-2.072-2.773-.412 0-1.287.96-1.287 1.403 0 .236.337.764.905 1.424 1.12 1.296 1.407 1.58 1.65 1.38.4-.333.817-.915.808-1.437zm1.765-2.294c.108-.446-.17-.906-.794-1.69-.782-.98-1.166-1.048-1.902-.288-.27.28-.4.526-.4.662 0 .373 1.64 2.456 1.946 2.456.703-.087.92-.6 1.154-1.14zm-2.88 5.163c-.145.67-.43 1.11-1.077 1.422-5.01 3.606-4.846 9.485-5.915 14.91-8.108-.082-20.924 3.244-20.845 3.42l43.082-43.464s.535.13.208.512c-3.485 2.508-3.27 7.38-5.56 9.822-3.833 4.63-7.393 8.644-9.89 13.37zm-23.383 17.75c.07-.49-.382-.625-.777-.23-.39.39-.236.69.315.627.29-.034.425-.15.46-.397zm13.278-1.826c.16-.412-.22-.8-2.525-3.36-2.34-2.596-2.87-3.203-3.273-3.203-.343 0-1.18.85-1.18 1.197 0 .16.368.686.817 1.17.45.48 1.3 1.43 1.895 2.106 1.02 1.163 1.505 1.725 1.894 1.996.38.266.67.252 1.28.252.84 0 1.025.03 1.097-.16zm3.997-8.155c.16-.51.384-.963.385-1.154.004-.354-2.947-3.362-3.446-3.685-.6-.387-1.72.874-1.44 1.61.076.203.954 1.236 1.95 2.295 1.266 1.346 1.9 1.98 2.105 1.95.21-.034.24-.35.447-1.015zm1.233-3.16c.216-.32.392-.74.392-.934 0-.22-.494-.82-1.2-1.61-1.316-1.48-1.654-1.65-2.375-.96-.72.685-.477 1.003.785 2.433 1.58 1.79 1.758 2.006 2.395 1.07zm11.283-14.13c.49-.584.5-.874.053-1.407l-.617-.735c-.405-.486-.94-.405-1.493.224-.265.3-.44.605-.44.71 0 .102.283.517.63.92.78.908 1.26 1.006 1.865.285zm1.73-2.23c.333-.51.183-1.07-.44-1.64-.593-.54-.887-.563-1.303-.1-.553.615-.464.822.133 1.483.674.745 1.216.857 1.61.256zm1.385-1.85c.46-.46.45-.857.038-1.383-.387-.492-.79-.626-1.196-.407-.71.38-.632 1.03.067 1.764.425.45.624.496 1.095.025zm-32.966 92.71c8.824.987 18.3 1.68 35.014-.92l.085-5.67c-5.21 4.063-12.05 1.277-12.445-3.402-.046-4.17 1.068-8.98 2.006-12.41.7-2.548.898-3.53.244-4.028-1.44-.815-4-.917-4.653-2.61-.314-.896-.343-1.85.115-1.17.21.31 1.873 1.084 3.173 1.375 2.262.504 2.626.672 2.882 1.602.165.584-.21 2.61-.804 4.44-.424 1.306-.922 3.41-.922 3.813 0 .446.345.52.734.39.17-.05.966-.844 1.466-1.29 2.175-1.94 2.806-1.88.95.015-.74.756-1.758 1.797-1.758 1.876 0 .405.374.36 1.21.057 1.284-.463 4.3-.407 5.64.267 1.666.84 1.736.8 1.7-1.735-.3-4.746-1.075-10.36-2.62-14.74-2.358-6.68-7.255-12.88-14.49-12.6-8.816.46-14.137 3.97-20.136 8.175 3.624 8.038-1.61 14.195-3.51 15.008-.18.08 2.375 8.17 3.467 12.28.992 3.737 2.66 11.278 2.66 11.278zM135.35 71.91c-.205-.528-5.11-16.512-6.482-23.197-13.26-.772-23.067-1.873-34.743 1.442 0 0-.254 4.504-.13 4.722.117.556.52.543.848.36 5.393-2.962 11.238-1.627 11.644 5.68.155 2.79-.783 4.758-.954 7.406-.15 2.312-1.968 5.393-.866 7.15.142.215.918.64 1.98 1.095 1.98.848 2.756 1.626 2.9 2.92.217.894-.33 1.495-.494.577-.105-.582-.207-1.095-2.652-1.932-2.38-.816-3.02-1.762-3.26-2.26-.33-.687-.26-1.174.04-2.27.65-2.33 1.3-4.705 1.24-5.827-.02-.404-.47-.208-1.04.28-.723.617-3.83 2.662-3.92 2.575-.04-.04.51-.86 1.38-1.69 1.06-1.01 2.37-2.23 2.37-2.452 0-.397-.152-.12-1.18.183-1.78.49-3.84.42-5.22-.19-1.17-.515-1.99-.814-2.163-.532-.433 7.12.624 14.458 3.61 20.18 2.676 5.203 8.237 11.716 16.6 10.255 8.64-1.51 17.046-8.46 16.744-8.47-3.224-7.3.45-12.736 3.756-15.993zM66.858 266.26c-3.83-3.834-13.48-8.005-20.112-9.92-.53-.114-1.054-.367-1.057.262l-.08 13.16-11.86 11.108.21 5.42 25.144-.12L75.8 261.69s.804-.144.893-.294c-3.066-12.997-7.68-23.377-10.61-28.58.047.064-4.217 3.445-7.967-.758-2.105-2.36-.814-6.5 1.183-8.02-1.683-1.238-5.173-3.484-7.46-4.133-.476-.116-1.186.846-1.418 1.718-.418 1.415-1.113 2.682-1.58 4.11-.513 1.19-1.007 1.37-1.773 1.036-1.193-.36-1.51-.48-1.51-.48l.04 15.47c9.148 3.17 18.566 11.31 21.248 24.49zm38.03-165.32l2.712-2.943c-4.29-.526-8.786-1.293-14.046-2.945 3.653 2.716 7.478 4.397 11.335 5.89zM89.99 92.66c4.783 1.593 10.83 5.31 18.385 3.91-6.886-2.73-12.114-9.113-14.34-22.105-.488 2.522-1.496 7.766-3.08 8.334-2.23-8.63-11.187-3.61-7.595 3.42-9.08 6.24-19.995 9.76-29.896 14.57 0 0-1.49 4.57-8.906 10.84-1.4-7.35.268-18.25-.6-25.63L32.33 75.02c.18 2.09.098 3.39.005 5.838.32.428.76.65 1.208.918.75 42.316-.26 84.147-.25 122.582-.115 23.55.508 48.09.163 70.33l-.435.8.02 5.317 11.87-11.304s-.55-8.023.08-14.15c7.49 1.507 14.48 5.03 20.745 8.89.79.22-3.845-15.4-20.693-22.338 0 0-.023-4.88-.022-15.485 0-10.23-.16-11.313-.386-11.48-.68.74-9.303 3.647-9.74 3.155.23.077-2.432-18.108-.13-20.87l8.248.173c2.36 1.904 1.413-.415 2.782-.796.82-.22 4.635 1.266 4.635 1.266 15.72-18.557 14.15-49.074 2.87-66.244-2.89 2.346-5.965 5.526-8.86 6.892-.037-.1-.055-9.467-.055-9.467 15.02-9.646 31.36-37.57 30.317-37.668 0 0 4.65 4.53 6.456 7.094l-14.83 21.48c3.396 6.84 6.83 13.04 9.06 19.053.3.813 1.23.79 1.465 1.646.2.73-.692 1.747-.57 2.554 3.13 11.97 3.84 24.668.753 36.17-.65 2.59.54 4.69 2.134 6.638.134.17-1.483-1.4-1.63-1.482-.552-.333-1.476.835-1.67 2.308.126.904.617 1.063 1.266 1.795 1.145.95 5.69 5.426 7.693 7.47 1.78 1.82 2.24 1.9 3.44.61.34-.315.69-.745 1.015-1.01.06.095.504-.366.655-.51l26.777-26.14c3.11-3.037-26.74 27.423-26.74 27.423S75.49 210.693 71.94 214.2c-3.666 3.618-4.16 4.41-4.308 4.678-.26.48 1.183.467 1.84.37.052-.008-.552.14-1.163.134-3.77-.842-5.06 3.325-7.43 4.164-6.29 4.464-2.06 11.634 3.94 9.266l1.46-.703c3.64 6.76 8.89 19.07 11.356 29.78l-.993.46-15.84 23.76h89.824c-6.45-6.43-11.94-14.31-17.53-20.21-8.957 2.68-36.044 2.13-35.616.97 0 0-4.1-16.61-6.42-24.76 7.363-6.31 6.61-16.26-4.08-20.73 7.78-6.144 15.614-8.227 23.25-8.725 2.48 6.3 8.307 6.697 11.056.93.02-.066 10.33 3.17 14.13 6.67-5.636-.586-11.2-1.708-16.84-1.977 4.962 1.96 10.02 7.08 11.636 12.935.794 2.09 2.006 8.992 2.327 9.02 0 0 1.88-7.976 3.34-7.537 3.72 7.762 10.133 1.922 7.43-4.26 9.474-4.524 20.134-9.575 28.85-13.767 2.544-3.84 8.8-11.124 9.21-11.155 0 0 11.504-65.91 11.5-87.94-.38-26.49.53-55.975-.61-80.75l-.01-7.12-24.297.01-17.348 25.51s-.13.405-.13.58c2.37 10.292 5.406 19.05 10.17 28.56 6.58-4.968 12.12 3.213 7.19 7.962-.927.892-.68 1.117.25 1.738.91.61 7.153 3.755 7.444 3.755 1.13-1.676 1.457-4.153 2.22-6.045.19-.72.734-.81 1.822-.68 1.398.16 1.39.742 1.344-8.15l-.04-7.64c-8.432-3.888-19.597-13.76-20.12-24.03 4.878 3.545 16.08 8.703 19.073 9.164 1.31.366 1.11-1.924 1.15-2.84.357.24.486 3.775.486 3.775-4.95-1.494-7.54-1.19-19.893-8.35 2.12 10.104 12.235 18.07 19.57 21.704 0 0 .307 4.8.29 10.17-.046 16.39.118 17.113.118 17.113 0-.008 4.037-1.028 5.157-1.584 2-1.604 5.21-.375 5.654.805.65 6.184.026 11.92-.11 17.825-3.42.246-5.29.965-6.977 1.034-1.096-.146-1.763-.153-2.323-.777-1.63-3.526-1.525-1.29-1.723 1.36-.15.78-4.238-.582-4.646-.82-17.65 20.32-16.144 43.71-4.16 65.375 1.98-1.336 5.39-3.886 8.8-5.56.086 2.755.13 8.43.13 8.43-13.815 10.136-30.363 36.994-29.804 37.07l-5.613-6.704s3.534-5.62 4.78-7.105c.145-.17.238-1.91.238-1.91l8.58-12.404c-3.88-6.87-6.53-12.746-9.29-19.5-.154-.57-.83-2.998-.68-3.227-5.723-25.857.478-38.72.02-39.7 0 0-.075-.515-.196-.616-.187-.156.05-.305.26-.675.408-.717 1.058-2.186.836-2.62-.165-.323-4.806-4.963-8.785-8.785-2.09-2.01-2.01-2.24-3.09-1.147-.4.408-1.385 1.567-1.385 1.567-14.377 13.3-25.786 25.413-40.214 39.572l-.693-.63c20.988-20.86 42.17-41.515 62.954-62.577l-3.654.06c.102-.264.254-.51.466-.583 1.96.004 3.976-.59 5.432-1.42 2.964-2.2 7.22-5.15 7.553-8.053-.216-5.59-4.93-6.4-8.336-3.667-4.734-8.5-8.48-18.73-10.487-28.276-.095-.476-.76-1.293-.86-1.835 1.012-3.17 17.085-25.076 17.085-25.076H76.21L93.38 48.33c0-.818 24.483-3.708 35.696-.294l6.828 24.256c-6.203 5.998-8.036 15.86 3.372 20.995.222.48-1.08 1.272-1.08 1.272.18-.3.496-.61.368-.88-3.075-1.348-6.368-4.75-6.368-4.75-6.863 5.36-13.28 8.345-19.563 8.61 0 0 3.318 2.25 3.96 4.72 0 0-.31-.04-.39-.136-.68-.833-2.246-3.526-3.566-4.32-2.237-.536-3.56-.145-5.326 1.072l-2.39 2.31c-5.48-1.67-11.57-4.398-14.93-8.54zm-.916 59.367l2.503-2.47c.286-1.832.783-4.163 2.898-6.7 2.346-2.816 4.94-5.463 6.848-7.97 2.294-3.01 3.54-5.736 2.936-7 3.41-.615 6.55-3.632 6.65-9.107.04-2.876 1.43-7.072 1.53-7.013 0 0 23.86-.812 40.27-16.458 0 0 1.15.25.88.45-6.218 6.23-12.83 10.82-20.648 13.743l-43.113 43.07zm4.773-4.942c.645-.644.79-.855.425-1.158-.555-.46-1.625.49-1.625 1.448 0 .608.482.43 1.2-.29zm2.232-2.194c.51-.49.49-.85.07-1.27-.59-.58-1.43-.22-1.72.72-.29.948.84 1.33 1.64.558zm1.96-1.98c.26-.3.48-.61.48-.683 0-.333-.827-1.09-1.19-1.09-.463 0-1.29.778-1.29 1.21 0 .365.83 1.11 1.234 1.11.156 0 .5-.245.763-.546zm1.85-3.7c-.59-.493-.975-.496-1.46-.013-.562.563-.504 1.18.168 1.77.51.53.73.48 1.42.055.58-.59.68-1.143-.13-1.81zm2.17-.33c.635-.532.544-.97-.147-1.663-.728-.727-1.29-.733-1.808.038-.195.29-.23.58-.23.663 0 .28 1.2 1.35 1.516 1.35.174 0 .407-.168.668-.388zm2.09-2.063c.54-.563.47-.965-.302-1.76-.65-.67-1.103-.722-1.676-.19-.59.548-.47 1.128.2 1.796.676.677 1.18.78 1.78.154zm2.37-2.397c.395-.42.288-.385.007-.84-.433-.702-1.7-1.865-2.06-1.865-.45 0-.848.723-.845 1.436.004.71.35 1 1.25 1.708.6.47.415.513.875.243.258-.15.605-.46.774-.686zm1.878-1.717c.85-.966.687-1.152-1.36-3.31-.695-.73-.84-.814-1.335-.772-.47.04-.504.157-.747.654-.448.914-.116 1.38 1.172 2.75 1.324 1.41 1.52 1.53 2.27.68zm2.1-2.254c.33-.29.546-.624.546-.836 0-.376-1.658-2.215-2.25-2.553-.42-.24-.857-.104-1.4.364-.327.28-.32.347-.24.657.125.504 2.257 2.75 2.61 2.75.145 0 .433-.12.733-.383zm2.08-2.02c.353-.36.63-.795.63-.985 0-.407-1.786-2.475-2.34-2.764-.47-.245-.74-.143-1.205.508-.534.75-.326 1.093.734 2.314 1.007 1.158 1.33 1.51 1.517 1.51.063 0 .32-.232.667-.586zm1.966-2.115c.45-.276 1.04-.855.802-1.326-.256-.486-3.384-3.8-3.72-3.98-.66-.355-.64.154-.64 1.8v.85l1.44 1.41c2.1 2.053 1.63 1.552 2.116 1.242zm2.544-2.337c.25-.25.486-.67.48-.824-1.296-1.582-5.072-6.582-5.754-6.397-.07.02-.1.022-.15.165-.17.5-.238 1.536-.12 2.374 1.192 1.145 4.002 4.875 4.64 5.106.38.148.546-.07.905-.427zm2.03-2.13c.24-.228.435-.538.435-.688 0-.15-.42-.675-.867-1.2-.444-.53-1.32-1.593-1.94-2.37-3.56-4.44-3.817-4.77-4.36-4.32-.356.298-.442 1.344-.263 1.735.31.677 4.193 5.36 5.446 6.57.8.77.957.848 1.55.275zm2.048-1.96c.306-.288.555-.668.555-.845 0-.18-.573-.9-1.174-1.606-.6-.706-1.602-1.91-2.224-2.676-1.597-1.963-1.61-2.035-2.8-2.16-1.806-.183-1.565.215.48 2.6.495.58 1.43 1.72 2.077 2.535 1.52 1.91 2.19 2.615 2.49 2.615.13 0 .295-.18.6-.467zm2.09-2.046c.926-.78.743-1.034-2.267-4.142-.98-1.02-1.053-1.18-1.82-1.18-.77 0-1.02.16-1.02.533 0 .23 3.92 4.89 4.21 5 .385.153.43.183.903-.215zm2.193-2.245c.25-.266.45-.607.45-.76 0-.335-.85-1.417-1.65-2.116-.37-.33-.84-.67-1.14-.67-.51 0-1.39.29-1.54.537-.1.157 1.063 1.595 2.21 2.8.76.8 1.052.87 1.673.205zm1.93-1.91c.482-.486.48-.93-.018-1.58-.356-.47-.464-.517-1.203-.517-1.4 0-1.44.36-.36 1.516.805.86 1.027 1.13 1.577.58zm2.06-2.03c.543-.69.08-1.07-.817-.664-.21.096-.324.348-.37.464-.275.72.663.866 1.186.2zm-34.42 5.85c-1.99 1.26-5.335 3.643-7.61 5.235-.06.343-.103 1.214 0 1.89 1.29-.875 5.435-3.522 7.316-5.014.095-.56.232-1.545.293-2.11zm3.65-5.773c-.066-.34-.29-.124-.88.374-.77.653-7.314 5.5-9.05 6.72-.66.465-1.284.857-1.355 1.02-.067.154-.13 1.47.12 1.803 1.418-1.083 8.146-5.595 8.248-5.752.695-1.11 2.246-3.047 2.92-4.165zm-.75 14.614S89.895 136 87.31 140.81c0 0-.015 5.5-.09 8.667l-.44.124s-.034-8.487-.143-17.697c-.27-23.014-.497-28.603-.497-28.603l-2.607-1.91-.11-.907s11.568 8.1 17.212 9.39c-4.124 6.463-7.937 8.956-2.715 16.483zm-9.525 11.54c.16-.386.05-.367-.28-.353-.245.01-.383.236-.394.482-.01.28.015.347.234.305.157-.03.363-.246.44-.432zm1.93-2.86c1.154-1.42 2.11-2.343 2.28-3.39-.74.123-5 3.108-5.065 3.424.04 1.58-.32 1.77.98 1.07.57-.31 1.03-.69 1.803-1.107zm.363-3.523c1.24-1.032 5.77-3.466 6.286-4.666.2-.55-.446-1.068-.547-1.018.08.072-6.483 4.005-8.877 6.07-.21.264-.16.717-.014 1.092.262.69.786.13 3.15-1.48zm-1.507-1.898c1.35-.9 4.547-3.107 5.34-3.66 1.35-.938 1.62-1.253 1.135-1.948-.195-.278-.46-.44-.905-.246-3.91 2.72-4.246 3.18-7.213 5.09-.2.535-.15 1.335.16 1.618.222.014.6-.263 1.486-.855zm-.01-2.938c3.56-2.576 5.48-3.878 5.61-4.163.14-.313.18-1.538-.054-1.67-1.325 1.01-4.867 3.177-7.288 5.14-.065.404-.14 1.31.056 1.505.493.2.64-.066 1.674-.815zm-.425-9.3c2.593-1.92 4.988-3.595 7.687-5.398 2.287-1.52 2.67-1.86 1.79-2.31-.3-.16-.91-.406-1.3-.27-3.038 2.45-6.414 4.8-9.635 7.18-.08.354 0 1.053-.02 1.37-.03.484.612.07 1.48-.575zm-.356-2.743c.21-.186 1.57-1.086 3.013-2.133 3.878-2.806 4.336-3.08 4.336-3.38 0-.812-1.12-.985-2.14-.16-1.87 1.527-6.33 4.3-6.344 4.69-.016.58-.114 1.156.056 1.41.214.32.528.05 1.073-.43zm1.12-3.8c3.942-2.754 3.79-2.625 3.79-3.12 0-.43-.388-.237-.99-.28-.57-.042-.58.118-1.66.936-2.307 1.74-3.15 2.216-3.39 2.73-.077.16-.13.8.01.94.28.278.6-.063 2.236-1.206zm.26-2.738c.77-.644 1.39-1.116 1.44-1.25.114-.294-.47-.817-.91-.817-.475 0-.846.248-2.026 1.263-1.04.896-1.25.707-1.17 1.214.05.293.054.94.15 1.058.253.304.793-.036 2.515-1.47zm-1.6-1.78c.832-.702 1.01-.846.4-1.454-.55-.55-1.19-.69-1.53-.35-.19.247-.006 1.7-.027 1.99-.033.465.586.292 1.155-.187zm17.87-15.145c0-.3 1.45-1.36 2.54-1.602 1.386-.31 3.13-.15 4.35.46 1.05.526 2.19 1.788.5 1.02-1.55-.69-4.874-.7-6.08-.14-.89.45-1.312.57-1.312.266zm-1.08-5.314c.112-.114 1.562.26 2.36.47 2.144.565 3.904.233 6.15-.415.527-.15.79.214.464.48-1.14.79-2.62 1.25-3.895 1.37-2.808.26-5.828-1.172-5.08-1.905zM91.2 81.7c1.195-.584 2.66-8.8 2.19-10.215-1.47 2.24-3.11 3.245-5.455 2.857-3.835-.63-3.977-5.35-1.014-5.83 1.18-.19 2.63.59 2.87.41 1.26-.59 2.25-4.83 2.56-6.21.224-1.34.56-5.07.61-6.26.105-2.523.003-6.25.003-6.25l-18.66-22.32-40.87-.176s-.13 31.27-.033 47.266l11.574 11.1.147 17.95c12.93-5.64 25.44-11.57 37.696-17.98-1.42-1.696-1.38-5.974 1.21-7.592 3.814-2.383 6.983.77 7.167 3.254zm10.242 3.807c.085-1.013.837-1.845.89-2.874 0-.23.186-.495.794-.172.793.42 1.037.126 1.933-.287 1.59-.733 2.047-.716 3.272-.226.79.424 1.033.42 1.78.036 1.013-.672 2.094-.89 2.99-.576 1.333.465 1.8.722 2.56.353.38-.19.86-.887.95-.83.543.81.433 2.09.783 2.81.62 1.224.377 2.1-.353 1.5-1.533-1.265-2.73-1.296-4.93-.75-1.287.32-1.935.566-3.362.397-4.42-.524-4.72-.39-5.62.21-.87.583-1.542.642-1.69.405zm11.87-8.016c-1.277-.32-2.736-1.48-3.794-1.17-1.305.09-2.048-1.447-1.38-2.29 1.143-1.112 2.92.01 3.61.534 1.5 1.138 1.71 1.228 2.317 1.228 2.487-.042 2.01-2.37.81-3.22-.714-.74-.785-1.23-.633-1.41.246-.295.956-.045 1.734.77 1.486 1.4 1.522 4.188-.305 5.03-.91.507-1.505.75-2.364.535zm5.19-8.053c-1.157-.84-3.217-2.72-3.755-3.39-.91-1.134-1.274-1.858-1.16-2.768.09-.71.196-1.13-.26-1.364-.482-.25-.946-1.32-.852-1.88.026-.157.57-.064.9.35.42.066.332-.18.786-.483 4.73-3.174 8.523-2.562 13.01-.38 1.3.625 4.7 3.202 2.88 2.366-.11-.05-1.3-.57-2.505-1.18-3.89-1.86-8.225-2.99-11.755-.597-.605.424-.972.75-.5.75 1.984-.385 3.946-1.21 5.984-1.082 3.04.04 4.88 1.54 7.16 2.577 2.47 1.106 2.95 1.484 2.047 2.396-.254.283-.46.275-1.652.183-1.284-.1-1.39-.06-2.113.4-1.893 1.214-4.353 1.876-6.54 1.692-2.573-.215-2.85-.42-2.902-.05-.034.237.52.65 1.28 1.345.58.53 1.358 1.31 1.426 1.43.216.38-.765.193-1.473-.32zm-.72-4.12c-.007-.304-.575-1.63-.913-1.97-.326-.33-.58-.2-1.273.286-.52.366-.576.655-.097 1.08 1.02.904 2.29 1.13 2.28.604zm3.875.183c1.04-.51 2.096-2.29 1.616-2.87-.284-.345-.532-.02-1.08.95-.26.46-.71 1.05-.9 1.18-.85.597-1.97.04-2.44-1.27-.286-.79-.585-1.294-.917-.994-.6.54.08 2.5 1.27 3.006.704.3 1.724.344 2.453-.01zm3.232-.3c1.053-.325 1.556-.8 1.467-1.26-.073-.38-.832-.83-1.347-.83-.23 0-.682-.01-.844.208-.36.48-.924 1.927-.95 2.084.123.32.48.17 1.678-.2zm3.64-7.853c-5.255-2.01-9.405-2.816-14.404-.685-1.6.697-2.514.77-2.594.2-.07-.476 1.08-1.892 2.33-2.547 3.49-1.596 7.68-1.746 11.19-.062 1.31.643 4.99 3.26 4.99 3.498 0 .26-.334.06-1.515-.402zm61.51 58.885c1.25-.66 1.826-1.957 1.06-2.723-.225-.227-.54-.226-.8-.226-.44 0-3.725.88-4.363 1.222-.416.22-.265.61.132.97.182.164.32.52.346.91.037.5-.062.95.268.87.67-.154 1.73-.302 3.354-1.03zm-4.674 1.205c.357-.65.205-1.54-.732-2.086-.488-.25-.874-.115-1.267.445-.93 1.698 1.38 2.427 2 1.643zm-4.69.796c.2-2.17.103-8.577.103-8.577s-1.17.98-1.906 1.02c.27-.94.563-1.286.982-2.205.24-.972.374-2.693.307-3.677-.07-1.078-.83-1.107-.05-3.044.4-.99.476-2.03-.043-3.258-.223-.604-.295-.95.287-1.72.543-.71.33-1.067.32-2.552-.015-2.06 0-2.392-.625-.732-.93 1.376-1.36 1.112-2.776.947-1.372 3.074-2.976 6.297-3.04 8.947-.04 1.66-.06 1.92.976 5.413.385 1.3.517 1.736.54 3.308.02 1.5.133 2.03.362 2.86.404 1.475 2.056 3.914 4.566 3.27zM132.96 256.49l.006-3.09s-4.944 1.525-7.454.587c-2.58-.7-2.57-.828-2.52-.548.09.5 2.006 1.51 3.78 1.923 1.25.29 3.75-.004 4.976-.367.697-.207.77-.013.492.2-3.032 2.37-6.877 1.28-9.292-.688-1.29-1.266-2.155-1.27-1.46.425 3.318 6.72 11.556 2.755 11.473 1.55zm-3.337-4.592l1.124.02s-.345-1.96-.927-2.53c-1.19-1.17-2.88-.99-3.948.157-.49.527-.864 2.387-.864 2.387l.905.02c.336-.87 1.762-4.943 3.71-.054zm-4.5-2.964c-.638-.172-2.04.465-2.723.908-.25.28-.257.32.044.716.655.864 1.657 1.276 1.728.953.29-.45 1.016-2.394.95-2.57zm7.43 2.18c.147-.6-.42-1.63-1.306-1.992-.383-.095-.76-.172-.65.25.125.472.39 1.247.637 1.764.18.39.294.585.672.437.296-.1.546-.19.646-.458zM180.8 210.14l.01-5.234c-2.643 2.68-6.1 7.176-7.145 8.86zM100.056 65.86c1.12-.48 1.942-1.94 1.658-2.68-.176-.46-.64-.09-1.11.59-.758 1.092-.95 1.21-1.615 1.21-.71 0-.99-.18-1.477-1.133-.335-.9-.572-1.04-.884-.65-.15.177-.14.43.05 1.087.5 1.716 1.782 2.258 3.37 1.578zm3.052-.54c1.242-.43 1.496-.563 1.437-.98-.062-.43-1.05-1.01-1.61-.9-.405.245-1.454 1.906-1.395 2.203.143.23.56.026 1.567-.32zm-7.167-.72c-.04-.382-.092-.76-.2-.886-.4-.48-1.24-.14-1.24.47 0 .463.66.988 1.197.988.376 0 .322.092.247-.572zm7.02-3.13c1.77.666 2.667.74 1.706-.163-1.322-1.467-7.38-3.14-10.63-.75-.23.33-.183 1.595.07 1.525 2.645-1.783 6.03-1.688 8.858-.612zm-6.045-5.054c-1.485.494-2.88 1.27-3.058 1.993-.287 1.16.234 1.17 2.176.56 2.5-.82 5.3-.45 7.43.782 1.62 1.177 2.1.787 1.826-.2-.906-3.275-5.966-3.865-8.374-3.143z" fill="#131f67"/><path d="M192.228 35.395l-10.92 10.822.152 12.806c1.098 2.012-16.855-5.738-19.69-8.084.33 8.55 12.006 18.3 19.598 21.86l.208 27.162s3.055-1.185 4.736-1.77c1.245-.432 4.094-.39 5.032-.84 1.49-18.62 2.762-42.85.884-61.966zM131.486 48.8c-1.064.017-1.7.305-1.687.99-.32-.054 4.03 15.99 6.01 22.688-3.86 3.9-7.888 10.672-2.12 16.94 1.23 1.34 3.48 2.472 5.623 3.757.955.927-11.72 9.098-23 9.1-3.62-7.93-8.67-3.544-11.458-.777-2.178-.19-10.3-5.03-14.46-7.8-.065-.045-.02-1.193-.013-1.403.29 1.89 16.282 5.97 17.004 4.075-.46 0-7.174-4.54-9.1-9.02-2.46-5.052-4.434-11.99-4.434-11.99-.894 2.565-.587 6.12-3.053 7.394-.74-8.353-12.665-4.093-6.73 4.075-3.334.97-6.186 2.7-9.424 4.14 6.775 9.21 16.1 15.35 25.946 18.96-1.3 2.76-8.97 8.99-2.67 16.33.284.226-6.02 7.1-9.12 12.48-2.335 4.048-1.63 7.154-1.364 7.255 8.54-9.788 13.34-18.068 13.34-18.068-.074 1.14 10.136.522 9.965-8.67.225-2.483.674-5.17 1.63-7.475 15.58.73 28.973-4.82 40.295-16.474 0 0 2.308.66 3.76.886.73.113 1.765-.362 1.936-.41.657-.035 1.6-.163 2.486-.66 1.207-.678 2.43-1.848 3.72-2.894 1.694-1.373 3.386-2.696 3.99-4.11.673-1.57.145-3.465-.433-5.142-3.636-4.277-6.047.324-7.658-.274-5.59-7.6-10.255-29.103-11.015-29.27-3.125-.63-13.81-4.717-17.98-4.646zM93.108 63.472c-.417.028-1.915 6.713-3.243 6.66-5.623-3.62-5.744 3.875-.91 3.534 4.086-.288 6.37-6.88 4.173-10.19-.006-.002-.013-.004-.02-.004zM33.004 76.19c.186 40.644.918 81.274 1.87 121.905 3.674-.907 6.345-1.598 9.948-.024.338-11.55-.678-40.7-.435-68.92 13.73-10.68 23.373-22.46 30.146-37.85l-20.963 9.82s-6.85 9.82-9.038 10.45c-.312-1.393-.66-18.02-.377-25.15zm46.58 25.14l-4.118 5.96s.096 20.467.334 30.33c.17 1.963 1.955 3.764.526 5.523.87 0 4.678 26.555 1.06 37.32-.65 1.928-.042 3.29.97 3.73l7.85 7.967c2.476.822 4.887.5 6.965 0 7.44-6.797 17.99-18.706 17.99-18.706l-27.9-26.376c-2.39-6.398-3.67-45.75-3.67-45.75zm101.692 85.358c-20.203 15.102-28.887 36.594-29.02 36.45.07.25-.102 1.132 1.164.435 5.23-2.832 18.672-8.938 18.672-8.938 3.193-3.836 5.65-7.538 9.305-11.19 0 0 .395 16.655.072 25.01 3.29 2.45 11.12 10.11 11.12 10.11s2.16-118.32-2.507-121.324c-4.53.88-6.805 2.54-8.495-2.72-1.195 24.09-.013 48.27-.32 72.17zm-43.873-66.59c-4.873 3.982-21.627 20.415-21.592 20.585 4.45 7.45 22 22.377 30.41 30.722l1.22 42.51c1.238-1.664 2.138-3.23 3.48-4.896 0 0-.22-21.53-.74-31.62-.152-2.99-.84-5.34-.622-5.61-2.367-12.25-3.35-25.78 0-38.91-7.944-6.846-10.47-11.397-12.146-12.79zm1.304 48.552c-.012.004-.025.013-.038.03-4.12 5.857-11.98 18.575-12.55 18.545-.17-.38-8.13-.025-9.636 4.983-1.264 3.73-1.36 7.16-2.28 11.006-15.975-.522-27.67 4.53-39.98 15.878-3.506.137-6.57.425-8.728 1.223-1.806.668-2.777 1.873-3.887 2.678-3.125 2.265-3.97 4.198-3.818 6.563.276 4.287 7.85 4.897 8.24 1.876.383 0 7.41 16.056 8.095 18.792 1.66 4.423 3.434 12.7 3.645 12.712 2.83.182 18.717 4.637 18.775 3.02 1.496-.64-5.525-23.617-5.525-23.617 12.275-10.3-1.255-21.3-4.435-20.9 6.988-4.98 15.006-8.33 23.848-8.77 1.37 4.913 7.716 7.44 10.91.91 0 0 13.745 4.92 13.69 6.55-5.66-.856-10.314-1.3-15.98-1.84 10.858 5.89 11.19 13.66 13.407 21.39.3-1.37 3.165-7.35 3.165-7.35 3.683 8.166 10.686 2.5 7.797-4.095l8.713-4.04c1.004-.51-13.026-16.29-25.786-18.53.644-1.174.898-2.28 1.56-3.237 3.2-3.14 5.68-7.734.79-13.233 3.23-4.51 10.716-15.403 10.24-15.597 0 0 .148-5.09-.24-4.952zM33.79 218.848c-.125 0-.35 37.768-.085 56.515-.314.777-.517 4.926-.517 4.926l11.62-10.92.347-14.11c3.034-.73 21.945 8.87 20.43 8.82 1.445-.61-8.728-19.82-20.594-21.95-.22-10.88-.33-23.205-.64-26.517-4.12.786-10.56 3.25-10.56 3.226zm103.163 22.72c-3.254.97-4.61 7.81-3.558 11.126.195.614.072.746.59.145 1.268-1.87.868-5.57 3.108-7.53 5.916 1.78 5.33-5.91-.14-3.75z" fill="#e2cf00"/><path d="M198.39 302.414v-3.48h3.133V280.16s.016-4.517.222-5.086c2.415-8.23 15.787-7.658 16.453-.316.282 1.25.204 5.403.204 5.403h-3.538s-.025-1.32-.073-2.3c.46-7.79-9-6.17-9.47-.94-.19.94-.21 3.25-.21 3.25v18.774h3.654v3.48zm-136.716-16.3l15.382-23.238c18.364 6.137 37.112 6.248 56.06 3.22l16.932 20.017h-6.923l-10.658-15.22c-3.862.893-7.876 1.282-11.876 1.83l4.99 13.39h-5.43l-3.91-13.243c-9.192.356-15.452-.462-21.835-1.21l-2.3 14.453H86.58l3.73-14.923c-4.345-.814-8.726-1.512-12.364-2.678l-11.29 17.6zm17.615-13.676l6.38 1.73-3.12 11.945H70.87zm16.49 13.675l1.8-10.553c4.29.846 9.882 1.016 15.782.956l2.775 9.597zM126 276.33l5.038-1.34 7.553 11.12h-9.18zm39.874 7.93c-5.324-10.708-12.595-20.02-20.5-28.88 7.72-8.116 14.225-17.49 20.473-28.15 6.2 10.76 13.352 20.73 21.23 28.564-8.667 8.62-15.304 18.004-21.203 28.462zm42.902-19.278c-2.565-4.19-5.634-8.383-9.403-12.574 3.44-3.87 6.44-8.014 9.14-12.347 3.114 4.78 6.32 8.927 9.62 12.498-3.486 3.9-6.41 8.17-9.356 12.427zm-156.26-55.81C77.09 180.6 73.82 150.6 60.25 126.4l2.885-2.968c15.697 25.795 19.038 62.47-9.89 90.893-.305-1.714-.725-5.15-.725-5.15zm97.98-32.05c3.53 6.01 5.69 12.09 9.42 18.136l-8.85 11.96zm-105.713 18.93c-.23-18.856.057-57.06.057-57.06l8.29-6.343c9.92 12.042 15.333 43.78-2.48 64.902-1.296-.943-4.824-.55-5.867-1.498zm117.706-3.804c-22.74-38.354-11.176-66.32 10.74-91.154.06 1.913.205 3.82.38 5.726-18.816 21.542-26.34 53.4-7.89 82.223zm-41.176-5.574l10.354-14.11s1.963-5.612 3.616-7.27l1.9-1.68c.637.61 1.84 1.382 1.8 2.083-.04.662-1.012 4.165-1.012 4.165l-12.11 17.708s-3.676-.644-4.544-.896zm55.08-68.487c.325-.37 4.436 1.345 4.436 1.345l.264 57.983-8.23 5.282c-2.388 1.213-21.045-36.84 3.53-64.615zM89.7 142.612c3.748-5.103 7.695-9.522 11.326-14.21.94.323 3.406.378 3.406.378.26.14-.83 3.89-3.516 6.474-2.7 2.75-9.13 10.292-9.314 14.09-.058 1.173-2.687 2.515-2.687 2.515l-1.87-1.976c.57-2.884 1.47-5.1 2.66-7.27zm-23.37-22.24l8.248-10.698.82 28.422zm-28.17-63.03c7.85-8.356 14.788-17.946 21.343-27.857 5.982 9.84 12.616 19.9 20.917 28.06-7.558 8.287-14.72 18.23-20.97 28.09-6.002-9.6-12.712-19.535-21.29-28.293zM6.833 59.85c3.736-3.62 6.842-7.626 9.372-11.986 2.902 4.404 5.642 8.94 9.52 12.544-3.58 3.838-4.727 5.06-9.608 12.22-2.755-4.463-5.615-8.864-9.284-12.78zm86.493-11.572L77 27.873h7.906l9.723 14.44 11.64-1.33-4.1-13.11H107l3.408 12.9c7.143.17 14.124.725 20.902 1.404l3.484-14.304h4.914l-4.46 14.97 13.15 3.45 11.718-18.42h5.82L149.33 51.656c-21.71-6.52-39.145-5.774-56.002-3.378zM6.023 37.853c-.254-1.803-.31-3.582.017-5.312h3.528s-.023 1.3.026 2.41c.002 6.99 8.363 6.09 9.598 1.69.436-1.552.368-4.04.368-4.04l.015-18.587h-3.582V10.4h10.61v3.61h-3.31v18.53s-.026.08-.008.4c.062 1.12.1 3.802-.495 5.06-3.352 8.352-15.612 6.458-16.767-.147zm134.372 1.884l3.72-11.877 11.126.012-8.51 13.567zm-26.928-2.89l-2.35-8.974h19.615L128.2 37.907c-5.182-.874-9.912-1.04-14.733-1.06zm-23.515-8.974h7.83l3.05 9.288-4.517.52z" fill="#d40000"/><path d="M74.442 26.558l18.906 22.617c3.94-1.408 23.792-3.673 35.702-.956 2.075 8.13 4.27 16.34 6.593 23.74 0 0-.744.87-1.28 1.42-7.607 8.76-2.223 17.23 4.736 19.99-1.26 2.6-14.6 9.09-22.72 8.32.01-.08-2.498-5.957-7.58-3.97-1.74.68-2.456 1.985-3.8 3.262-4.85-1.463-11.26-4.654-14.59-8.16 6.23 3.102 12.37 4.772 18.53 3.95 0 0-.764-.637-1.63-1.035-.52-.24-1.777-.994-2.79-1.677-2.864-1.93-4.767-4.26-6.728-8.237-2.26-4.032-2.627-8.37-3.864-12.196-.656 1.96-.938 7.14-2.65 8.213-.443.29-.524.202-.855-.895-1.305-3.985-6.084-3.48-7.66-.646-.8 2.434-.685 3.504.325 5.77l-2.89 1.62-.006.477-1.784.85-.37-.25c-8.29 4.005-16.42 8.173-24.878 12.008 0 0-4.493 7.453-8.604 10.418l-.16-25.312-12.17-10.993-.06 6.022s.585.61.876.92c.166 42.37.027 84.057.053 122.526l.056 35.412-.742.04-.04 4.13.838.19-.117 5.83-.43.03-.06 3.69.664.104-.012 20.842-.656.845.015 5.95 12.71-12.08.286-13.738c10.025 1.894 20.51 9.1 20.51 9.1-1.77-11.508-13.965-20.99-20.97-22.883l.023-27.264s-5.208 2.174-7.78 2.507c-1.275.18-1.765-.013-2.374-.933-.443-.67-.453-1.28-.053-2.67.19-.644.18-.814-.052-1.466-.327-.916-.33-1.33-.01-2.945.338-.95.19-1.456-.163-2.335-.38-.94-.41-1.115-.246-1.657.427-1.427.45-1.66.228-2.296-.434-1.246-.45-2.145-.045-2.953 1.875-3.143 6.077-2.37 8.358-2.254 1.157 1.285 1.848 2.002 1.955.14.81-2.225 3.947.05 5.413.997 12.47-16.713 18.623-39.343 2.973-67.663L44.658 138l.02-8.718c11.544-7.418 24.53-24.284 30.154-37.582 1.87 2.19 4.02 4.345 6.04 6.554l-1.32 2.214-.39-.222C75.58 107.078 65.855 120 65.698 119.87c3.6 6.67 6.805 13.4 9.53 20.22l.714-.32.64 2.05-1.26.374c4.26 13.97 4.4 26.906 1.195 38.835l.752 3.17s4.506 4.363 5.722 5.65c3.174 3.07 6.713 6.503 6.713 6.503l4.12-4.027-.24-.345 36.056-35.794 2.25 2.15c-22.084 22.24-60.44 60.638-60.44 60.638l-1.33.192c-.755.112-1.873.16-2.585.11-1.173-.08-1.317-.054-2.26.393-1.06.502-1.933 1.25-3.106 2.65-.538.643-.906.92-1.5 1.13-7.518 4.486-.72 13.51 5.673 8.76 4.686 8.954 8.655 19.383 10.843 29.7 0 .074-.84.36-.84.36l-16.85 24.984h6.48l.678-1.15h-4.86l15.5-22.39c19.72 5.373 37.82 6.137 56.19 2.94l15.99 19.45h-6.343l.905 1.15 8.21.13-18.794-22.177c-6.73 1.8-24.48 3.244-35.61 1.36-1.703-8.27-4.51-17.26-6.59-24.414 10.628-8.316 2.65-19.295-3.91-20.825-.316-.6 13.3-8.88 23-8.306 2.777 6.672 8.86 5.684 11.043.72 4.022 1.477 9.243 2.952 13.387 6.247-5.53-1.21-11.93-1.874-17.2-1.955 10.022 3.885 12.834 12.075 14.07 19.8.216 1.28.903 2.936.903 2.936.853-2.787 1.55-5.67 3.232-8.057.774 2.73 3.62 4.853 6.488 3.23 1.664-1.207 2.243-3.276 1.716-6.136-.147-.796-.22-1.23-.22-1.23l2.23-1.208.29.25s2.44-1.044 3.65-1.63c.19-.096-.22-.475-.22-.475l22.52-10.62c-.086-.05 5.68-7.918 8.986-10.95.1 9.424.077 13.3.07 24.492l1.273 1.242c1.13 1.1 3.587 3.385 9.13 8.477 1.25 1.146 2.12 1.713 2.12 1.713l-.17-164.865h-.185l-.003-3.17.26-.015v-8.25l-.232-.134v-2.6l.31-.224.02-22.266-.358-.06-.02-5.342-12.555 13.28.094 12.52c-5.6-.723-12.53-4.31-17.302-7.2-1.54-.94-2.4-1.19-2.353-.653.67 7.456 11.462 18.856 19.755 21.84l.014 28.04c0 .016 1.958-.98 3.154-1.48l.18.498 2.673-1.107.218-.575 2.316-.294c.025.474.105.41.105.41 2.063.58 2.976 1.99 2.144 3.57-.29.53-.346 1.284-.105 1.48.894 1.41 1.13 2.66.047 3.994-.416.682-.413 1.068.015 1.793 1.12 2.252.485 2.103-.355 3.445-.19 1.015.923 1.676.557 2.63-.17.63-.834 1.367-1.284 1.7-.528.384-.962-.33-.962-.33s-1.673.72-2.876.95c-1.184.383-3.22 1.07-3.926-.522-.402-.913-.08-1.746-.104-2.765l-1.737-.19-.062 4.632c-.99.527-4.94-1.49-4.94-1.49-16.934 21.95-16.46 46.296-3.9 66.693.124.33 8.85-5.97 8.85-5.97s-.016 5.164.06 7.96c-11.096 9.18-21.813 21.526-29.475 36.747l-4.744-5.626c.817-.722.848-1.866.83-2.73l3.448-5.14.03-1.333 8.96-12.518c.14.745-9.246-16.807-10.496-22.52l.62-.17c-4.21-15.937-3.347-27.097-.305-40.095l-.865-.84-11.823-11.808c-.96.885-1.915 1.775-2.87 2.67-.146.136-.867.055-1.013.192-6.224 5.832-12.204 11.69-18.125 17.772-.153.157.105.806-.048.963-5.93 6.106-12.077 11.903-18.08 18L95 157.28c21.25-21.244 61.284-60.704 61.284-60.704s.172-.314.45-.324c1.112-.042 2.11-.295 3.21-.613 1.32-.31 1.53-.407 2.086-.98.34-.35.9-.84 1.24-1.09.58-.426 1.906-1.54 3.98-3.345 1.265-1.104 2.046-2.71 2.02-4.143-.05-2.552-1.74-4.73-3.916-5.04-.906-.13-2.68.34-3.578.946-.684.462-1.007.673-1.3.466-4.338-8.796-8.558-19.858-10.348-28.985-.097-.576-.045-.746.424-1.47.29-.45.927-1.443 1.416-2.21 3.877-5.604 8.374-12.414 12.592-18.56.7-1.02 2.06-2.986 2.06-2.986l1.028-1.69h-6.687l-.82 1.316h5.505l-16.39 23.57c-30.174-9.862-54.9-3.61-55.492-3.475l-16.31-20.09h7.46L84 26.56zm14.685 0l.83 1.315h7.825l-.443-1.315zm13.05 1.315H107l-.277-1.315h-4.948zm8.632-1.315l.3 1.315h19.613l.35-1.315zm23.98 1.315h4.91l.37-1.315h-4.944zm9.72-1.315l-.42 1.315h11.14l.836-1.315zm47.65 9.094l.174 3.653-8.033 8.466.01 11.83-2.336-.54-.09-12.217zm-2.252 7.786c.07 3.62-.518 7.092.44 10.784.47 1.817 1.427 3.947 1.547 6.095l-2.65-.063c-.336-1.084-.467-2.28-.864-3.615-.977-3.3-1.77-6.76-1.047-10.25zm-57.833 5.906c.097.18.414 1.71.706 3.128 1.393 7.79 3.258 13.568 5.16 19.45 2.417 7.41 5.995 16.74 9.473 21.064.46.54.686 1.154.52 1.42-.28.455-1.7-.178-2.653-1.183-.39-.41-1.14-1.563-1.69-2.595-1.216-2.276-2.85-5.587-3.01-6.11-.07-.213-.71-1.848-1.428-3.635-1.26-3.124-2.005-5.264-3.056-8.74-.835-2.755-1.6-5.64-2.534-8.544-1.52-4.76-2.4-8.53-3.247-12.9-.124-.64-.338-1.39-.26-1.55.48-.347 1.79-.21 2.02.184zm.85.296c-.15-.126 1.382-.15 1.872.26.144.146.404 1.06.627 2.234 1.387 7.165 3.47 14.57 5.894 21.586 1.937 5.605 4.05 11 6.686 15.37.824 1.456 1.942 3.012 3.37 4.694.795.942.86 1.074.644 1.334-.26.318-.722.277-1.612-.145-.83-.393-1.726-1.256-2.57-2.475-.29-.416-.727-1.043-.977-1.392-3.884-6.717-6.243-13.098-8.38-19.58-2.19-6.646-4.16-13.367-5.5-21.113l-.05-.773zm4.882 1.01c.34.346.534 1.008.83 2.393 1.618 6.643 2.94 12.58 4.853 18.033 1.028 2.934 1.92 5.865 3.02 8.628 1.762 4.414 3.917 8.435 6.565 11.784.872 1.102 2.46 2.462 3.79 3.253.92.55 1.06.69 1 1.01-.08.29-.98.41-1.277.38-1.456-.25-3.61-1.37-4.224-2.21-4.453-4.81-7.637-12.69-9.957-19.15-3.987-11.125-7.2-25.023-6.59-24.59-.04-.324 1.595.05 1.99.48zm1.914.4c.145.004.308.03.49.078.83.228.94.344 1.14 1.262 1.424 6.353 2.933 11.956 4.616 17.285 1.712 5.422 3.474 10.537 6.22 15.902 2.013 3.915 4.562 6.62 7.303 7.99.786.393 1.49.77 1.56.84.072.07.053.275-.043.455-.146.27-.312.325-.982.314-1.245-.02-2.117-.408-3.45-1.305-3.5-2.41-6.56-7.88-7.915-10.98-1.647-3.78-3.162-7.71-4.53-12-2.45-7.69-3.98-12.78-5.097-19.27 0-.37.254-.57.687-.56zm52.464 10.383l-.022 2.253c-8.815.585-17.853-3.142-25.118-6.496 5.472 7.26 11.313 13.7 25.116 15.03l.024 2.325c-17.978-.255-30.64-18.46-29.974-22.998 7.396 4.777 20.754 10.3 29.976 9.886zm-49.614-9.536c.43.02 1.014.203 1.24.43 1.47 5.485 2.54 11.574 4.97 17.686 2.985 7.51 4.64 14.138 10.174 20.325 1.722 1.768 5.095 1.716 5.095 1.716s-.428.957-1.003 1.116c-1.183.18-2.043.233-2.91-.046-3.203-1.354-5.653-4.778-6.92-7.098-1.184-1.738-4.08-8.902-6.46-16.206-2.596-7.952-4.735-16.22-4.49-17.884.09-.035.16-.045.304-.04zm2.962.923c.21 0 .492.08.83.242.36.172.52.28.706.957.12.44.1 1.12.32 2.23 1.25 5.724 2.973 10.374 4.684 14.904 1.624 4.304 3.37 8.53 5.52 12.35 1.084 1.924 2.16 3.724 2.84 4.403 1.85 1.852 4.995 1.944 5.92.106.515-1.044.41-2.7-.607-3.556-.787-.75-2.572-.432-2.62.475 0 .24.445.133 1.088.057 1.797-.208 2.36 2.973.05 3.504-2.927.67-4.958-3.286-2.375-5.71 4.38-2.97 7.72 1.087 6.688 4.99-1 2.304-2.676 3.48-4.89 3.56-2.854.093-4.036-.79-6.964-5.045-3.355-5.388-4.81-10.646-7.176-16.536-2.237-5.57-3.727-11.51-4.43-16.7.064-.16.206-.24.418-.24zm2.775.92c.26.01.805.145 1.044.293.145.09.35.287.35.287 3.938 14.363 7.22 22.967 10.56 29.04 0 0-.053 1.117-.275 1.434-.4.568-.594.428-1.11-.47-2.105-4.07-4.107-8.562-5.97-13.195-2.197-5.46-4.145-11.1-4.97-16.47.043-.69-.11-.888.373-.93zm26.555 8.21c.557 0 1.01.45 1.01 1.006 0 .557-.453 1.01-1.01 1.01-.556 0-1.01-.453-1.01-1.01 0-.557.454-1.005 1.01-1.005zm-81.79-.183c-1.17 1.59-2.125 7.283-3.34 7.352-1.336-.03-2.96-.79-4.01.42-1.272 1.46-.49 3.08 1.08 3.98.72.35 2.257.44 3.19.17 3.82-1.28 5.27-7.48 3.08-11.93zm85.61 1.494c.804 0 1.454.66 1.454 1.46 0 .81-.65 1.46-1.458 1.46s-1.456-.65-1.456-1.45.65-1.46 1.456-1.46zm-85.544.7c1.31 3.28-.14 7.21-1.73 8.53-1.462 1.22-3.76 1.375-5.073.19-1.092-1.03-.606-3.495 1.432-3.31.683.022 1.5.646 1.96 1.305 1.327.137 2.856-6.594 3.412-6.713zm90.62.8c.91 0 1.644.738 1.644 1.645s-.735 1.644-1.643 1.644-1.643-.736-1.643-1.644.735-1.643 1.643-1.643zm5.82 1.16c.927 0 1.678.75 1.678 1.68 0 .927-.75 1.68-1.677 1.68s-1.68-.753-1.68-1.68c0-.926.75-1.677 1.68-1.677zm-54.16 7.63c.25 0 .427.24.59.72.34 1 .334 1.117-.2 1.788-5.16 7.14-.453 14.442 7.02 15.235.63.046.948.755 1.28 1.58-.044.39-.05.39-1.743.42-1.108.02-1.996-.05-2.55-.196-2.62-.704-5.828-3.07-7.14-5.263-1.51-2.527-1.764-5.14-.83-8.624.597-2.237 1.357-3.71 2.53-4.93.47-.487.795-.73 1.045-.73zm48.907.793l.088 24.5-2.61.953.106-26.057zm4.94.946c3.25 8.07 3.394 15.47.458 22.2l-2.965.43c4.067-9.483 2.34-16.272.04-22.826zM33.322 76.63l10.558 9.96.366 110.98-1.682-.594-.672-109.16-8.57-7.86zm103.088.32c.02 0 .038.002.056.004.282.03.54.39.778 1.06.28.794.275.817-.04 1.605-1.447 3.55-.265 6.93 3.312 7.994.85.27.99.403 1.49 1.46.323.68.468.93.342 1.08-.188.134-.64.2-1.99-.09-5.32-1.817-7.253-7.64-4.832-12.26.3-.527.577-.814.83-.854.02-.007.036-.01.053-.01zm-42.38-.44s1.115 3.927 1.008 4.82c-.284 1.72-2.73 4.47-4.87 5.475-1.984.76-4.98.38-6.235-.94-4.555-5.33 3.943-10.683 6.08-5.133 1.285 3.64-3.94 4.503-4.17 1.706-.002-.72.232-.946.903-1.415.597-.416.53-.787.014-.787-1.974.72-2.02 2.537-1.13 3.683 1.776 1.86 3.975.776 5.49-.588 2.04-1.838 2.442-4.475 2.91-6.82zm44.077 4.05c.1 0 2.19 4.99 2.465 5.7-.07.502-.614.465-1.546-.185-.946-.66-1.23-1.124-1.63-2.66-.12-.54-.323-2.522.71-2.85zm-42.38 2.104c.46 0 .937 1.688.72 2.552-.375 1.497-4.297 4.026-7.052 4.548-.553.105-1.144.216-1.315.247-.565.1-1.23-.22-1.924-.926-.49-.498-.727-.994-.61-1.11.097-.097 1.36.122 2.43.106 3.004.03 5.32-2.12 7.1-4.69.274-.404.565-.735.65-.735zm-59.67 1.25s2.033 1.84 3.104 2.892c-.114 4.894-1.92 10.2-1.92 14.573.045 3.805 2.507 6.973 2.757 10.285.148 2.142-.48 5.324-1.537 7.734-.98 2.242-1.5 4.635-1.494 6.96.12 5.405 4.003 11.316 2.64 16.665-1.28 5.024-2.74 7.926-2.356 10.595.746 5.143 3.483 9.71 2.755 13.99-.68 3.99-2.48 7.97-2.287 11.57.224 4.15 1.777 7.622 2.215 11.41.285 2.47-.41 6.304-.41 6.304l-2.85.234c1.566-5.833-.767-11.108-1.66-16.715-.76-4.773 1.38-8.572 2.014-12.644.396-2.53-.052-4.937-1.305-8.16-2.475-5.946-1.585-9.82.2-15 2.205-5.517-.83-9.884-1.586-15.168-.39-4.552-.084-7.772 1.626-11.82 1.273-3.9 1.633-6.16-.268-9.9-1.2-2.364-1.516-3.76-1.518-6.873.62-6.177 2.288-9.64 1.88-16.935zm61.028 2.462c.443 0 .662.313.662.943 0 1.15-1.718 2.61-4.756 4.04-1.574.74-2.49.85-3.41.415-.86-.407-.82-.764.125-1.04 2.374-.692 4.06-1.64 5.98-3.363.61-.543 1.24-.99 1.4-.99zm-13.747.795c7.838 8.385 15.52 12.703 21.4 14.72l-.925 2.193c-7.72-2.99-15.593-7.15-22.264-16.09zm15.1 1.37c.21 0 1.01 1.01 1.01 1.28 0 .156-.29.663-.65 1.12-.52.664-.972 1.006-2.27 1.716-1.752.96-2.813 1.195-3.58.792-.75-.4-.5-.736 1.39-1.847.978-.57 2.28-1.5 2.89-2.052.617-.557 1.158-1.01 1.21-1.01zm-20.76 1.235c6.42 8.785 14.69 14.622 24.41 17.736l-1.53 2.068c-8.88-3.06-17.564-8.595-25.5-18.34zm22.42 1.083c.327 0 1.05.817 1.05 1.183 0 .177-.14.498-.31.717-.344.436-2.137 1.784-2.9 2.18-.6.308-1.047.303-1.698-.02-.774-.385-.64-.707.62-1.518.615-.398 1.547-1.134 2.07-1.635.525-.5 1.05-.908 1.17-.908zm-25.83.64c-.18.23-9.45 21.462-29.09 36.517l-.09-3.527c10.878-8.626 18.788-20.44 24.754-30.754zm27.7 1.524c.297-.002.507.2.715.59.25.48-.02.9-1.12 1.73-.685.52-.94.62-1.51.61-1.46-.03-1.422-.38.18-1.813.834-.745 1.355-1.1 1.737-1.113zm37.928 1.05l4.094.32c1.1.766-16 11.96-27.86 10.957l.313-2.684c10.41.297 23.74-8.105 23.454-8.59zm-35.118 1.05c.94.53 2.11 1.15 1.82 1.357-.436.27-3.213.095-3.853-.247-.48-.26-.452-.39.208-1.13.81-.91.95-.466 1.825.02zm-36.495-.663c-6.487 11.444-14.214 21.89-23.16 28.697l-.117-6.052c8.514-6.555 14.957-18.525 14.974-18.57zm81.258.73l1.986 1.157c-12.37 11.45-25.733 16.387-38.572 15.15l1.033-2.32c20.833 1.647 34.67-13.767 35.553-13.99zm3.01.404s.666-.083.595.05c-4.107 4.027-9.746 8.324-13.44 10.72-17.49 17.965-32.465 32.14-47.7 48.14l-2.437-2.55 2.204-2.332c.005-4.61 5.65-9.78 9-13.76 1.395-1.576 4.02-5.624 3.72-7.324-.1-.39-.116-.537-.116-.537 5.295-1.06 6.56-5.35 6.676-9.146.246-2.54.585-4.84 1.44-6.927 23.96 1.92 39.4-15.72 40.057-16.34zm-41.753 2.65c2.72-.01 4.773 2.14 4.767 5.19-.023 1.276-.472 2.244-2.2 5.617-1.675 2.883-1.894 4.638-2.552 7.968l-1.702-1.53-3.096 2.792.045-4.07s1.07-1.36 2.8-3.3c2.19-2.43 4.17-5.56 4.08-7.32-.06-1.757-1.918-3.19-3.818-2.04-1.65 1.155-2.414 3.24-3.386 9.484-.172 1.107-.334 2.41-.424 2.693-.243.768-2.63 3.027-2.63 3.027-.203 0-1.146-4.58-1.146-4.58l-2.414.396c2.797-3.033 4.966-6.693 6.376-10.526 1.292-2.362 2.94-3.78 5.304-3.802zm-52.495.97s-4.804 9.98-13.24 16.47l-.053-3.907c4.9-3.8 8.63-10.347 8.625-10.333zm115.62.254c-16.675 17.267-38.44 49.06-11.43 93.725l3.568-4.12c-21.747-40.394-6.335-61.332 7.98-82.34zm-90.165 1.43c4.883 3.47 9.98 6.917 16.57 9.107-.352 1.174-9.412 8.797-2.91 15.846.27.37-.42 1.267-1.48 2.54-3.105 4.244-6.205 7.266-8.8 12.044l-.107 8.973-2.595-2.29zm89.526.826l.11 5.116c-24.774 30.112-21.984 57.224-7.98 82.196l-2.682 2.722c-22.953-39.51-8.632-69.292 10.554-90.036zm-61.122 3.026c-1.09 2.885-5.87 7.828-5.87 7.828s.633-4.813 1.03-6.332c.306-1.16.99-2.726 1.67-3.475 1.93-2.12 3.857.286 3.176 1.98zm-32.87-2.707l.464 40.34-3.484-3.51-.513-30.85zm-4.704 7.893l.695 27.392c-3.47-8.207-8.36-17.19-8.46-17.103 0 0 4-5.3 7.77-10.284zm27.507 8.57s.53-.445 1.363-1.4c1.807-1.827 1.97-1.84 1.804.622-.064.947-.01 2.16-.01 2.16 1.057-.613 3.55-3.557 4.254-3.026.546.51.985 1.576.997 3.233-.06 3.243-1.895 6.22-4.803 7.192-8.03 2.486-13.413-6.773-7.838-12.643.554-.582 2.132-1.663 2.89-1.45.94 1.717.907 3.62 1.345 5.31zm79.653-2.91c.468 1.278 1.065 2.542 2.69 3.113-.25 39.224-.062 108.67-.062 108.67l7.89 7.4-.052 3.233-10.45-9.57s-.56-81.893-.01-112.845zm7.834 1.818c.28 3.796-.36 7.79.29 11.69.643 2.693 1.617 5.122 1.697 7.774.074 2.426-.084 3.806-1.12 7.193-.724 2.363-.796 2.74-.963 5.104-.39 3.29.674 6.275 1.49 8.896 1.084 3.477.78 7.68-.952 13.225-.623 1.997-.743 2.84-.652 4.647.24 3.796 1.598 7.405 2.288 11.13.373 2.137-.01 4.93-1.325 9.668-.49 1.763-1.01 4.833-1.01 5.994 0 1.242.4 3.59.785 4.6 1.824 4.793 1.913 5.65 2.007 8.532.014 2.167-.61 4.356-1.38 6.26-1.277 3.04-.437 6.166 0 9.584l-3.143-2.687c-.928-2.93-.6-5.665.26-7.848 1.222-3.416 1.53-3.733 1.51-5.7-.02-2.606-1.516-5.69-2.135-7.523-1.097-3.254-1.1-6.446-.01-9.89.536-1.69 1.31-5.004 1.484-6.35.335-2.587.08-4.63-1.22-9.82-.63-2.534-.765-3.51-.81-6.033-.04-2.336.3-4.764 1.05-7.58 1.08-4.473 1.067-7.16-.34-11.31-1.136-3.43-1.454-5.756-1.164-8.487.168-1.586.6-3.07 1.33-4.554 1.346-3.365 1.552-6.583.55-9.794-1.723-6.574-1.695-9.913-1.525-15.846zm-8.836 2.15c-.273 26.884.006 57.66.006 57.66s-7.97 5.572-7.936 5.282c-10.26-16.92-14.17-41.84 3.75-64.32 0 0 2.886 1.23 4.177 1.38zm-121.11 6.41c14.52 27.116 16.41 54.51-7.6 82.61.774 2.485.647 4.8.26 7.067 4.683-3.643 42.223-41.14 10.607-93.346zm74.004-2.207l7.134.42.48 6.138-2.304 2.29s-.044-1.27-.074-2.403c-.038-1.386-.234-2.6-.363-2.557-.12.04-.25 1.655-.352 3.42l-.106 2.635-.796.795c-1.063 1.064-1.28.98-1.32-.516-.09-3.255-.08-3.478-.32-3.24-.132.134-.207 1.247-.24 2.93-.025 1.334-.12 2.614-.207 2.84-.18.467-1.54 1.678-1.88 1.678-.33 0-.314-.47-.317-2.496 0-1.708-.18-2.645-.453-2.016-.066.15-.18 1.848-.204 3.226-.025 1.38-.115 2.637-.2 2.793-.295.552-1.696 1.737-1.942 1.643-.353-.134-.44-1.147-.43-2.84.006-.83.136-1.53-.183-1.755-.32-.223-.373.736-.29 3.17l-.02 2.65-.895.978c-1.417 1.46-1.514 1.39-1.517-1.13.063-1.995-.008-2.87-.4-2.712-.395.158-.238 1.123-.16 3.09.07 1.756.046 2.637-.073 2.86-.1.178-.56.696-1.02 1.15-.47.454-1.04 1.083-1.11 1.083-.11-2.116-.29-6.674-.29-6.674l-7.44-.327s1.522-1.81 2.17-2.158c.335-.18.86-.2 2.725-.12 1.27.054 2.98-.054 3.13-.11.56-.217-.606-.408-2.25-.515-1.094-.077-1.38-.05-2.594-.226l1.084-1.113.81-.807 2.374.076c1.437.05 2.504.04 2.67-.054 1.405-.277.09-.597-1.51-.6-1.564-.002-2.447-.005-2.447-.348 0-.35 1.75-1.94 2.247-2.04.26-.056 1.53-.108 2.83-.118 2.23-.02 3.04-.05 2.915-.42s-1.603-.264-2.586-.307c-2.73-.006-2.86-.11-.99-1.74l.9-.795 1.71.045c2.584.075 3.835-.03 3.835-.273 0-.22-1.68-.435-3.11-.435-.857 0-1.55.015-1.55.015.64-.83 1.322-1.502 2.07-2.242l2.304-.04c1.684.025 2.717.09 2.746-.22.03-.305-.6-.302-1.376-.31-1.047-.004-2.29-.093-2.455-.26-.18-.175.15-.67.88-1.322l.757-.682zm-70.616.08c19.954 32.598 12.75 67.818-9.496 89.74l-.652-4.278c21.003-25.54 24.67-51.914 7.68-82.943zm37.108 4.38c-3.58 5.387-9.06 10.7-11.126 15.1-.424.493-.56 1.61-1.22 1.832-.327 0-.434-.62-.352-2.06.06-1.083.16-1.446.683-2.503 2.828-5.16 6.104-8.87 9.72-13.77zm.84.52l3.31.21c-.734 2.345-1.727 4.016-2.9 5.537-1.5 1.95-3.31 3.912-5.414 6.31-3.05 3.47-4.577 7.01-4.435 8.562-.763.805-1.292 1.36-2.26 2.18l-1.932-1.774c1.432-7.345 8.366-14.094 13.632-21.027zm40.51 2.985l1.074.063c3.672.218 5.962.44 6.094.6.08.1.19.665.24 1.25.08.9.004 1.495-.47 3.63-.31 1.404-.657 2.65-.77 2.765-.424.43-.59 0-.79-1.993-.12-1.2-.165-2.08-.323-1.98-.074.05-.24 1.34-.192 2.3.124 2.51.108 3.12-.67 3.88-1.364 1.323-1.44 1.19-1.54-1.16-.045-.976-.277-2.398-.345-2.466-.296-.293-.394 1.057-.396 3.34v2.438l-.65.707c-.85.918-1.12 1.057-1.434.746-.193-.19-.12-.61-.12-2 0-1.63-.287-2.57-.596-2.256-.057.056-.072 1.634-.077 3.01-.004 1.374-.02 2.59-.038 2.7-.05.33-1.598 1.887-1.877 1.887-.325 0-.584-1.792-.584-3.26 0-.98-.21-1.152-.416-.614-.05.133-.09 1.51-.09 2.744v2.242l-.91.937c-1.215 1.256-1.413 1.182-1.416-.538-.002-1.484-.102-2.27-.4-2.27-.173 0-.214.704-.214 2.37 0 1.143-.072 2.274-.162 2.514-.09.236-.49.762-.884 1.166-.395.405-.8.736-.902.736-.165 0-.404-1.404-.34-2.01.013-.127.013-1.012 0-1.967-.033-2.28.122-2.182-3.515-2.296-4.267-.135-4.33-.16-3.045-1.403 1.22-1.18 1.047-1.133 3.876-.945 2.27.15 2.547.143 2.775-.086.14-.14.217-.29.174-.334-.043-.042-.91-.12-1.924-.18-2.81-.153-3.057-.355-1.868-1.544l.673-.677h2.875c1.94 0 3.26-.087 3.33-.2.19-.305-.58-.38-2.427-.488-.99-.054-1.924-.14-2.073-.18-.47-.137-.294-.61.5-1.352l.762-.714h2.54c2.355 0 3.51-.153 3.51-.463 0-.22-.47-.31-1.68-.324-1.71-.02-2.85-.187-2.93-.42.42-.807.995-1.26 1.67-1.933l2.58.093c2.6.09 3.413-.003 3.413-.456 0-.234-1.113-.404-2.553-.32-.926.06-2.05-.162-2.05-.49 0-.14.374-.63.833-1.082l.836-.822 2.528.1c1.41.06 2.912.046 3.024-.03.42-.29-.554-.512-2.142-.605-2.447-.14-2.607-.33-1.313-1.552zm-88.15 1.352c13.096 23.454 11.134 45.548-2.813 64.35-1.6-.932-3.304-1.44-5.13-1.633l-.352-56.623zm93.668 9.167c.262-.04.257.39.184 1.3-.06.73-.17 1.498-.248 1.7-.15.4-.27.417-1.546.235-1.448-.202-1.427-.464.165-2.03.77-.76 1.21-1.163 1.44-1.2zm-70.316 1.05s1.722-.01 2.584.02c0 0 .134 4.388.486 6.92l5.614.27-2.18 2.266-4.256-.137s-1.295-6.23-2.25-9.34zm66.89 2.654c.79-.013 2.862.343 3.105.586.19.19.196.658.03 3.49-.06 1.02-.123 3.213-.137 4.872-.024 3.003-.024 3.015-.37 3.064-.46.065-.51-.095-.635-2.073-.07-1.115-.223-2.09-.353-2.133-.15-.05-.135.932-.135 2.963v2.624c-.447.37-.86.863-1.373 1.123-.314 0-.482-.493-.638-1.866-.154-1.364-.305-2.324-.488-2.02-.045.07-.027 1.555.06 2.774l.16 2.22-.986.99c-1.01 1.02-1.138 1.104-1.3.84-.377-1.01.157-5.64-.754-6.224-.145-.078-1.355-.11-2.76-.17-2.37-.1-3.714-.14-4.044-.425-.2-.18.918-1.47 1.493-1.73.412-.19.88-.2 2.835-.07 2.263.15 3.404.13 3.103-.158-.08-.076-1.23-.244-2.132-.334-1.82-.18-2.46-.365-2.46-.7.424-.754.943-1.196 1.567-1.84l.88.09c.482.05 1.626.17 2.54.276.915.104 2.76.12 2.016.057.242-.24-.7-.49-2.01-.65-2.468-.305-2.69-.584-1.45-1.807l.763-.75c1.29.1 2.6.132 3.89.33.94.148 1.45.095 1.45-.223 0-.223-.47-.214-1.61-.44-.41-.082-2.536-.05-2.57-.677.5-.694 1.4-1.96 2.3-2.015zm-57.52 5.323c.375-.022.394.895.433 3.32.044 2.654.087 3.11.315 3.34.217.217.762.292 3.093.41 3.57.18 3.66.233 2.403 1.445-.875.843-.912.737-1.633.653-1.886-.22-4.644-.17-4.752.005-.18.302.02.362 1.74.493 2.1.16 2.68.234 2.68.59 0 .157-.356.618-.79 1.025l-.793.74-2.21-.088c-2.325-.094-3.52-.127-3.52.19 0 .19 1.328.4 3.433.608.546.054 1.106.063 1.136.155.072.228-.99 1.545-1.647 2.034-.535.397-.715.175-3.047.125-2.38-.05-2.585.04-2.14.48.105.104.498.115 1.386.177 1.455.1 2.154.32 2.154.68 0 .342-1.312 1.7-1.93 1.993-.54.258-.773.27-1.974.1-.944-.13-1.124-.33-1.1-1.216l.155-5.767c.14-5.352.185-5.624.893-5.523.304.043.375.407.456 2.223.085 1.93.166 2.314.487 2.314.12 0 .14-.764.064-2.627-.12-2.89-.124-3.32.757-4.154.39-.373.704-.67.89-.4.37 1.14.266 2.384.376 3.527-.01 1.153.44 1.394.54.296-.05-1.74-.063-3.3-.074-5.16l1.07-1.07c.568-.56.926-.914 1.15-.93zm-6.957 2.164c.426-.07 2.815-.03 3.16.05-.6.95-1.88 2.19-2.754 2.73-.22.017-.442-2.3-.4-2.78zm67.654 5.26l.5 3.573-3.9-.266zm-52.56.58c.02-.002.05.004.07.01.28.11.36.798.47 4.114.05 1.563.16 2.786.252 2.9.11.138.597.205 1.502.205.733 0 2.116.044 3.073.1 2.09.12 2.143.21.9 1.435l-.84.833-2.616-.106c-2.68-.11-3.127-.062-3.127.307 0 .25.455.37 1.312.35.34-.01 1.19.034 1.892.1 1.567.145 1.6.264.43 1.522l-.84.902-.817-.11c-1.312-.18-4.763-.14-4.963.06-.32.322.096.46 1.667.556 2.437.15 2.86.22 2.86.497 0 .134-.343.59-.76 1.01l-.76.76-3.095-.16c-2.17-.037-2.91 0-2.96.14-.086.243.27.32 2.51.55 2.144.223 2.46.444 1.64 1.46-.897 1.116-1.234 1.242-2.925 1.078-1.86-.18-3.76-.183-4.038-.01-.43.273.01.454 1.333.553 2.004.15 3.17.363 3.17.657 0 .33-.66 1.18-1.302 1.67l-.528.4-2.288-.24c-2.28-.244-3.444-.123-3.12.202.094.094.942.227 1.88.295 1.72.124 2.572.346 2.572.7 0 .106-.44.626-.973 1.156-.54.534-1.15.89-1.15.89l-7.034-.63s-.36-1.257.346-4.67c.64-3.077.9-3.768 1.206-3.195.085.16.16.906.22 1.417.144 1.234.448 2.01.63 2.01.205 0 .204-.733-.062-2.46-.37-2.406-.416-2.5.5-3.47.785-.83 1.23-1.026 1.474-.65.07.108.164 1.2.257 2.114.164 1.61.26 1.98.47 1.77.134-.136.234-.596.086-2.983l-.19-2.32 1.03-1.05c.943-.956 1.05-1.023 1.24-.776.13.17.274 1.164.342 2.352.104 1.754.244 2.332.5 2.076.12-.12.06-4.107-.07-5.03-.082-.603-.04-.692.72-1.547.91-1.02 1.388-1.44 1.636-1.444.33-.004.508.997.51 2.328 0 1.42.113 1.98.246 2.16.34.458.38-1.146.3-2.73l-.09-2.89.936-.94c.89-.886.96-.925 1.21-.675.205.206.192.696.275 2.155.123 2.02.52 3 .632 1.6.06-.315.05-.932-.02-1.37-.07-.44-.13-1.435-.127-2.21 0-1.18.06-1.496.347-1.962.42-.673 1.646-1.724 2.03-1.763zm40.65 2.2s1.57 1.343 1.57 1.726c0 .17-.62.91-1.46 1.736-1.557 1.525-1.7 1.787-1.88 3.423-.07.61-.378 1.42-1.096 2.86-.55 1.107-1.345 2.4-1.345 2.4-2.48 2.96-4.818 5.675-9.165 11.93-.248.574-.26 1.15-.515 1.626-.194.353-.632.644-.826.725-.286.12-.86.476-1.276.794-1.625 1.24-2.67 2.87-3.14 4.9-.26 1.097-.41 2.083-.85 5.466-.186 1.39-.797 3.815-.797 3.815-9.34-.135-18.08 1.483-25.873 5.88zm12.48 1.436l2.08 9.44-2.14-.043-.216-6.855-6.68-.638 2.386-2.31zm-10.136.866c.57.584 1.282 1.224 1.8 1.857-1.786 5.97-7.443 13.717-13.06 21.402l-4.12-.45c-.07-.17 5.706-8.226 8.47-11.28 1.053-1.272 1.77-2.482 2.708-4.36.34-.68.935-2.44 1.39-4.275.973-1.17 2.816-2.877 2.81-2.895zm2.216 2.094l3.114 3.158.76 44.696c-4.8-3.767-10.46-6.56-16.493-8.682l1.055-2.403 1.163-1.25c4.103-4.44 3.19-9.22.067-12.6 3.803-5.546 7.248-9.677 10.146-15.09l-.04-3.713c-.03-3.42.235-4.114.235-4.114zm-37.24 1.868c.327-.03.37.796.45 3.14.08 2.19.17 3.23.315 3.454.193.305.38.33 2.966.41 2.73.083 3.298.162 3.298.455 0 .083-.35.503-.78.93l-.778.78-2.43-.04c-1.297.04-2.828.017-2.868.054-.216.2.593.472 1.78.474.735 0 1.91.13 2.043.184.46.176.245.63-.76 1.595l-1 .964-2.21-.047c-1.21-.022-2.687.013-2.88.077-.67.224-.336.406.775.42 1.86.027 3.14.18 3.197.47.027.14-.318.656-.774 1.146l-.826.884-3.247-.136c-3.07.023-3.487.252-.924.508.977.098 2.52.34 2.575.35.058.007.14.123.196.255.11.28-1.13 1.674-1.788 2.015-.34.18-.577.19-1.166.057-.693-.157-3.67-.13-3.99.062-.27.16.315.345 1.14.362 1.244.026 2.727.386 2.727.68 0 .246-.63 1.026-1.3 1.61-.31.273-1.048.03-3.103.1-1.407.046-2.344.177-2.344.27 0 .086.7.36 1.596.426.887.063 2.106.275 2.19.357.207.21-1.374 2.077-1.374 2.077l-6.752-.093-.62-7.154.575-.663c1.292-1.495 1.574-1.278 1.832 1.4.19 1.96.33 2.56.613 2.276.105-.107.063-1.227-.042-2.874-.086-1.36-.16-2.595-.16-2.75 0-.37 1.536-1.984 1.837-1.926.295.056.46.724.62 2.557.13 1.507.2 1.918.497 1.62.14-.14.16-.926.02-2.832l-.182-2.49.652-.77c1.31-1.555 1.564-1.38 1.723 1.14.108 1.7.272 2.594.585 2.594.105 0 .108-1.27.044-3.19l-.1-2.88.82-.83c.45-.456.91-.827 1.013-.827.318 0 .5.724.7 2.43.226 1.916.3 2.246.484 2.06.08-.077.06-1.235-.043-2.725l-.228-2.85.994-1.01c.55-.553 1.1-.985 1.224-.96.3.056.494.92.517 2.14.025 1.14.22 2.12.47 2.373.127.126.16-.576.13-2.61-.05-3.13-.13-3.37 1.28-4.838.38-.393.626-.646.796-.663zm36.464 1.28l.03 4.37c-1.753 3.75-5.8 9.245-9.905 15.14l-2.14-1.16c5.13-6.73 9.423-13 12.012-18.35zm-58.62 1.376c.096 0 .203.004.323.01 1.11.065 1.14.448.11 1.41-.434.406-.926.727-1.114.727-.32 0-.335-.047-.237-.88.12-1.022.244-1.26.92-1.265zm66.9 3.153l3.026 2.976.76 32.006-3.184 5.195zm3.79 4.217c2.727 6.42 5.56 12.44 8.7 17.32l-8.09 11.42zm-27.213 9.978c3.72-.05 7.146 2.892 7.577 5.883.813 3.436-.956 7.136-3.86 8.27-1.01.365-1.603.39-1.603.39-.353-2.07-.2-4.066-.67-6.168 0 0-1.74 2.294-2.72 3.1-.51.28-.737.354-.67-.31.033-1.164.122-3.744.122-3.744l-4.3 4.447s-.35-.483-.763-1.59c-1.35-3.613.402-7.386 3.17-9.12 1.206-.793 2.477-1.14 3.717-1.156zm57.17-.27l.085 3.913c-6.745 5.23-16.365 16.247-24.608 30.606l-3.63 1.53c5.592-13.362 17.4-26.972 28.154-36.045zm.077 5.145l.07 5.83c-5.95 5.72-11.12 11.63-15.62 19.237-2.627 1.262-7.493 3.66-7.493 3.66-.61-.15 13.256-21.734 23.043-28.73zm-60.027 4.99c.27-.003.257.52.172 1.28-.193 1.72-.395 2.348-1.025 3.187-2.18 2.573-5.642 6.073-6.113 9.328-.24 1.74 1.12 3.367 2.452 3.2 4.142-.518 4.59-7.88 4.936-11.512.147-.9.214-1.655.364-1.94.874-1.113 1.812-2.2 2.99-3.08l.508 5.63 2.334-.78c-6.586 8.946-4.69 9.507-8.167 13.172-3.225 3.407-9.485-.473-7.883-5.65 1.39-3.485 3.545-6.982 4.13-10.714.155-1.104.25-1.874.25-1.874l1.494 3.123c.76-.75 2.98-3.234 3.554-3.366zm60.27 1.93l-.014 4.017c-3.07 3.457-5.718 6.11-8.854 10.89l-4.98 2.27c3.25-6.194 8.586-11.99 13.85-17.177zm-60.856 3.545s.33 1.875-.4 5.28c-.344 1.615-1.898 6.33-4.355 5.218-2.09-1.842.453-5.26 1.734-6.876.99-1.16 2.065-2.413 3.017-3.622zm-6.556.48l-1.36 2.905c-12.2.043-24.055 4.41-34.6 13.32l-2.67-.876c11.174-10.57 25.03-15.71 38.63-15.35zm12.83 2.233c13.75 4.606 20.1 11.325 25.3 18.37l-2.175 1.117c-5.45-7.055-12.178-13.51-24.705-17.243zm-15.76 4.347l-.587 2.49c-7.7.23-15.83 2.963-23.734 8.453l-2.85-.455c7.96-6.245 17.05-9.81 27.173-10.49zm35.195 16.815l-2.442 1.15c-7.29-9.46-13.88-12.15-21.365-14.56l.806-2.1c10.063 2.67 17.446 7.78 23.003 15.5zM44.195 215.8l.21 25.233-1.756-.35-.25-24.404zm-4.07 1.37c-3.35 12.55-.752 15.8.46 23.124l-2.774-.443c-2.7-7.42-2.97-14.17-.7-22.05zm84.29 1.925c.21.2-.17.816-.684 1.12-.5.297-.39.252-1.19-.037-.77-.28-1.76-1.016-1.76-1.296.568.01 3.148-.018 3.646.212zm2.366.18c.46.054 1.79.03 1.87.444.03.24-.49.65-1.55 1.37-1.62 1.103-2.17 1.32-2.64.8-.45-.5-.318-1.01.44-1.71.74-.68 1.166-.91 1.89-.91zm-55.24.274c.93 0 2.59 1.14 3.59 2.47 1.018 1.59 2.18 3.22 3.12 4.82 2.14 3.65 3.8 7.354 5.18 11.146 3.626 9.017 5.75 17.76 7.52 26.445-.034.733-.67.72-1.19.547-.27-.086-.54-.267-.595-.405-.75-2.128-1.01-4.303-1.58-6.438-1.432-5.34-1.944-8.4-4.7-15.93-1.43-3.91-3.5-9.35-5.76-13.53-1.45-2.68-3.13-5.16-5.303-7.35-.576-.572-1.29-1.095-1.29-1.21 0-.37.36-.573 1.014-.573zm58.77.29c.86.21 2.94.45 2.15 1.14-2.91 1.12-3.86 2.33-5.4 3.57-.233 0-1.154-1.15-1.154-1.42 1.25-1.54 2.83-2.2 4.41-3.3zm-54.55.01c1.22-.05 2.41 1.53 2.976 2.52 3.746 5.51 6.954 13.37 9.593 21.08 2.84 8.29 4.645 16.27 5.43 21.93-.068.172-.42.24-.82.234-.77-.006-.88-.184-1.076-.794-1.953-9.36-4.576-19.023-7.75-27.226-1.707-4.37-3.64-8.76-6.36-13.167-1.858-2.72-2.91-4.148-2.83-4.36.056-.146.362-.218.72-.218.04-.007.082-.01.12-.01zm-8.373.16c1.644-.01 4.364 1.94 6.21 4.45 3.916 5.37 6.158 11.64 8.483 17.72 2.67 6.973 4.596 14.723 5.746 20.823.194.872.514 1.255-.31 1.53-1.25-.357-1.22-.32-1.577-1.84-.488-1.635-.637-3.285-1.1-4.946-2.64-9.5-5.596-20.04-10.51-28.62-5.9-9.443-7.614-6.816-8.563-8.48.073-.378.73-.64 1.615-.645zm14.196 2.3c5.07 8.82 7.305 14.238 8.847 19.566 2.336 8.074 5.103 14.522 6.32 23.95 0 0-1.333.024-1.867-.194-.22-.22-.455-1.16-.594-1.933-1.22-6.657-3.2-14.534-5.31-20.74-2.27-6.91-4.973-13.48-8.966-19.827-1.05-1.71-1.248-2.382-.607-2.41 1.144.077 1.647.957 2.17 1.59zm52.82-.943c.235.002.33-.03.76.116.67.23.884.375.92.64.057.388-.36.514-1.656.818-1.02.238-3.01 1.3-4.396 2.45-.64.534-1.193 1.107-1.347 1.107-.32 0-1.08-.834-1.08-1.182 1.06-1.62 4.43-3.84 6.795-3.95zm-69.86.22c4.29.13 7.65 5.115 9.41 8.48.688 1.313 1.578 2.744 2.25 4.246 3.484 7.79 6.44 17.556 7.883 23.796.694 3 1.496 5.202 1.213 5.79-.353.223-1.1.052-1.445-.238-.22-.186-.34-.874-.73-2.127-1-3.218-2.66-12.41-6.98-22.067-.095-.217-2.186-6.327-5.8-12.124-1.47-2.36-3.85-3.84-6.016-4.325-1.09-.178-1.417-.048-1.35-.638.043-.375.16-.477.745-.662.26-.08.532-.127.82-.134zm26.827 19.92c-.295 0-.554-.56-.75-1.48-.096-.45-.228-.774.62-1.306 5.323-5.662.745-13.975-5.946-14.7-.62-.093-1.42-.095-1.65-.182-.34-.19-.964-1.396-1.235-1.88 9.25-2.24 19.063 10.997 8.962 19.547zm46.067-18.5c.553.14 1.75 1.25 1.6 1.494-.18.29-1.215.3-2.71.566-3.18.565-4.543 2.64-6.022 4.18-.327.1-.62-.13-.912-.63-.216-.37-.39-.814-.39-.988 1.652-2.408 6.08-4.84 8.44-4.62zm-75.066.71c2.704 0 5.406 1.31 6.927 3.448 5.55 8.305 11.782 26.77 13.27 35.88-.15.29-.546.322-1.315.1-.43-.125-.38-.26-.65-1.108-1.743-6.635-3.654-13.077-5.9-18.986-1.16-3.045-2.52-6.02-3.805-8.695-.81-1.69-2.443-4.7-3.063-5.62-1.46-2.74-4.41-3.545-6.265-2.66-1.926 1.04-2.168 3.526-.7 4.63 1.21.85 3.13.71 3.832-.606.24-.467.165-1.044.01-1.19-.15-.14-.423-.1-.48.053.1 1.612-1.958 1.72-2.857 1.08-1.435-1.074-.48-4.47 3.434-3.104 1.51.792 2.014 2.295 1.3 3.89-.734 1.63-1.87 2.373-3.62 2.363-2.13-.037-4.54-1.53-4.56-4.213.006-2.002.934-3.67 2.673-4.784.646-.412.898-.478 1.765-.478zm22.897 1.248c6.56.3 9.572 8.022 6.12 12.68-.88 1.115-1.436.91-1.812-.525-.184-.59-.39-.68.14-1.136 3.073-2.945.55-8.67-4.514-8.9 0 0-.945-1.376-1.04-2.107.34-.123.794-.015 1.103-.015zm54.71.53c.495.122 1.55 1.133 1.55 1.49 0 .42-.208.34-1.374.14-2.76-.495-5.523 1.102-7.83 4.586-1.12 2.093-1.26 1.895-1.847.093-.3-.927-.308-.906.864-2.61 2.19-2.81 5.422-4.094 8.632-3.7zm2.563 3.543c2.307 2.097 1.23 6.716-1.89 7.193-2.75.32-5.196-2.655-3.463-4.68 1.126-1.22 2.536-1.345 3.403-.293.893 1.083.514 2.562-.76 2.715-.15.05-.27.166-.27.254 0 .27 1.13.196 1.515-.117.776-.86.79-2.168.096-3.1-.61-.83-1.92-1.487-2.97-1.06-1.85.662-3.734 3.17-4.812 6.33-.303.89-.48 1.724-.61 1.92-.263.4-.244.39-.487.237-.213-.135-.61-2.07-.61-2.807 0-.56.484-2.038 1.12-3.306 2.006-3.724 6.51-6.222 9.737-3.292zm-56.26-.938c2.686.16 4.81 3.966 3.643 6.617-.36.486-.88.817-1.125.51-.087-.11-.5-1.355-1.073-2.673-.572-1.32-1.1-2.607-1.262-2.93-.426-.913-.735-1.534-.184-1.526zm-18.255 2.21c3.06 5.42 5.62 11.636 7.745 17.703 1.65 4.727 3.01 9.365 3.79 13.465.07.414.173.63-.01.81-.3.3-1.76-.445-1.76-.445-2.56-8.818-4.63-17.66-10.723-28.89 0 0-.266-.447-.337-.738-.08-.704.126-1.594.554-2.09.173-.186.406-.2.738.18zm-34.34 10.235c14.475.974 25.67 7.07 31.65 23.18-2.124-1.196-12.902-9.466-31.484-10.563l-.03-2.234c13.32-.11 26.32 6.825 26.047 6.724C54.9 247.44 42.45 243.3 33.64 243.03zm100.417 3.257c-.91 1.43-.87 1.37-1.31 2.605.05.4.127 2.897.187 4.354.076 1.858.13 2.667.275 2.844.248.3.752.35.97.08.088-.106.238-.507.34-.89 1.194-4.513 1.756-6.202 2.237-6.76.318-.41.426-.372 1.737-.224 2.95.262 3.95-3.254 2.02-4.67-2.58-1.434-5.317.972-6.46 2.664zm3.117.96c-2.11 1.733-2.17 4.23-2.81 6.53-.34 1.55-.827 2.364-1.02.03-.36-3.24.092-5.656 1.496-7.557.87-1.4 2.296-2.34 3.58-2.43 2.76-.19 3.042 1.997 2.274 3.17-.555.855-2.1 1.227-3.52.258zm-99.7 1.04c1.04 0 1.883.844 1.883 1.885 0 1.04-.843 1.885-1.884 1.885-1.045 0-1.89-.847-1.89-1.888 0-1.04.844-1.885 1.885-1.885zm6.006 1.29c.93 0 1.687.753 1.687 1.683s-.756 1.69-1.686 1.69-1.682-.756-1.682-1.686.753-1.68 1.683-1.68zm5.475 1.85c.758 0 1.368.615 1.368 1.373 0 .76-.61 1.374-1.366 1.374-.758 0-1.373-.615-1.373-1.373s.612-1.37 1.37-1.37zm3.886 2.46c.582 0 1.056.48 1.056 1.064 0 .58-.47 1.06-1.06 1.06-.58 0-1.06-.48-1.06-1.06 0-.59.48-1.068 1.065-1.068zm-13.62 3.385c-.403 2.044-.087 4.145.382 5.593 1.072 3.12.584 8.707.584 8.707l-3.143 3.15c.22-2.93.57-6.01.41-8.47-.115-1.632-.85-3.16-1.046-4.8-.178-1.52.09-4.555.09-4.555zm5.092.942l.11 13.322-10.756 10.42-.016-2.75 9.17-9.09-.193-12.346zm26.52 30.38l-.707 1.15H82.3l.257-1.15zm15.702 0l-.285 1.15h5.617l.186-1.15s-2.953 0-5.52 0zm9.203 0l-.178 1.15h20.852l-.31-1.15zm24.372 0l.333 1.15h5.554l-.46-1.15zm9.285 0l.406 1.15h9.548l-.795-1.15z"/></svg>