<svg xmlns="http://www.w3.org/2000/svg" xmlns:xlink="http://www.w3.org/1999/xlink" width="223.228" height="311.811"><defs><pattern patternTransform="rotate(135 144.736 26.788) scale(.1564)" id="b" xlink:href="#a"/><pattern id="a" patternTransform="translate(-254.024 74.426)" height="110.741" width="108.618" patternUnits="userSpaceOnUse"><path d="M54.31 13.957l-10.765 16.12 7.177 18.007-18.658-5.256-14.907 12.39-.767-19.368L0 25.5l18.184-6.714L22.96 0l12.006 15.22zm-.753 69.023l-17.382 8.578-2.788 19.183-13.53-13.88-19.105 3.28 9.02-17.15-9.02-17.16 19.105 3.27 13.53-13.88 2.788 19.18zm55.06-69.023l-10.763 16.12 7.177 18.007-18.65-5.256-14.904 12.39-.77-19.368L54.31 25.5l18.183-6.714L77.27 0l12.005 15.22zm-.75 69.023l-17.383 8.578-2.787 19.183-13.53-13.88-19.106 3.28 9.02-17.15-9.02-17.158 19.11 3.27L87.7 55.22l2.785 19.18z" fill="#131f67"/></pattern></defs><g transform="translate(-260.433 -370.276)" stroke="#131f67" stroke-linecap="round"><rect ry="0" y="382.859" x="273.521" height="286.644" width="197.052" fill="none" stroke-width="4.952"/><path fill="url(#b)" d="M277.91 386.728h188.276v278.906H277.91z"/></g></svg>