<svg xmlns="http://www.w3.org/2000/svg" xmlns:xlink="http://www.w3.org/1999/xlink" width="223.228" height="311.811"><defs><pattern patternTransform="rotate(-45 973.082 -925.082)" id="b" xlink:href="#a"/><pattern id="a" patternTransform="translate(127.765 536.85)" height="17.116" width="16.772" patternUnits="userSpaceOnUse"><g fill="#d40000"><path d="M7.61.826L6.652 3.65l1.783 2.39L5.455 6 3.73 8.436 2.845 5.59 0 4.702 2.434 2.98 2.396 0l2.39 1.783z"/><path d="M16.772 5.163l-2.924.582-1.178 2.74-1.458-2.602-2.97-.273 2.024-2.19L9.61.51l2.707 1.25L14.88.234l-.35 2.96zM7.61 16.29l-.958-2.824 1.783-2.39-2.98.04L3.73 8.68l-.885 2.848L0 12.413l2.434 1.72-.038 2.983 2.39-1.783z"/><path d="M16.772 11.953l-2.924-.582-1.178-2.74-1.458 2.61-2.97.275 2.024 2.19-.657 2.91 2.7-1.25 2.56 1.525-.35-2.96z"/></g></pattern></defs><g transform="translate(-260.433 -370.276)" stroke="#d40000" stroke-linecap="round"><rect width="197.052" height="286.644" x="273.521" y="382.859" ry="0" fill="none" stroke-width="4.952"/><path fill="url(#b)" d="M277.91 386.728h188.276v278.906H277.91z"/></g></svg>