<svg id="visual" viewBox="0 0 900 600" width="900" height="600" xmlns="http://www.w3.org/2000/svg" xmlns:xlink="http://www.w3.org/1999/xlink" version="1.1"><path d="M0 199L75 208C150 217 300 235 450 243C600 251 750 249 825 248L900 247L900 0L825 0C750 0 600 0 450 0C300 0 150 0 75 0L0 0Z" fill="#ecf2fa"></path><path d="M0 463L75 467C150 471 300 479 450 472C600 465 750 443 825 432L900 421L900 245L825 246C750 247 600 249 450 241C300 233 150 215 75 206L0 197Z" fill="#dfe3ec"></path><path d="M0 601L75 601C150 601 300 601 450 601C600 601 750 601 825 601L900 601L900 419L825 430C750 441 600 463 450 470C300 477 150 469 75 465L0 461Z" fill="#d2d4dd"></path></svg>